%FSLAX34Y34*%
G04 Gerber Fmt 3.4, Leading zero omitted, Abs format*
G04 (created by PCBNEW (2014-02-03 BZR 4657)-product) date Wed 05 Mar 2014 09:41:08 PM CST*
%MOIN*%
G01*
G70*
G90*
G04 APERTURE LIST*
%ADD10C,0.006000*%
%ADD11C,0.005000*%
%ADD12C,0.098425*%
%ADD13C,0.035433*%
%ADD14R,0.070866X0.070866*%
%ADD15C,0.070866*%
%ADD16R,0.066929X0.066929*%
%ADD17C,0.066929*%
%ADD18C,0.030000*%
%ADD19C,0.035000*%
%ADD20C,0.010000*%
%ADD21C,0.020000*%
G04 APERTURE END LIST*
G54D10*
G54D11*
X29000Y-58000D02*
X29000Y-49000D01*
X50000Y-49000D02*
X50000Y-58000D01*
X29000Y-67000D02*
X39500Y-67000D01*
X29000Y-67000D02*
X29000Y-58000D01*
X50000Y-58000D02*
X50000Y-67000D01*
X39500Y-67000D02*
X50000Y-67000D01*
X50000Y-40000D02*
X50000Y-49000D01*
X29000Y-49000D02*
X29000Y-40000D01*
X29000Y-21750D02*
X29000Y-40000D01*
X50000Y-21750D02*
X29000Y-21750D01*
X50000Y-40000D02*
X50000Y-21750D01*
G54D12*
X30000Y-50000D03*
X38500Y-57000D03*
G54D13*
X30000Y-54838D03*
X30000Y-52161D03*
G54D14*
X32250Y-49750D03*
G54D15*
X33250Y-49750D03*
X34250Y-49750D03*
X36250Y-49750D03*
X35250Y-49750D03*
G54D14*
X32250Y-57250D03*
G54D15*
X33250Y-57250D03*
X34250Y-57250D03*
X36250Y-57250D03*
X35250Y-57250D03*
G54D14*
X42750Y-57250D03*
G54D15*
X43750Y-57250D03*
X44750Y-57250D03*
X46750Y-57250D03*
X45750Y-57250D03*
G54D14*
X42750Y-49750D03*
G54D15*
X43750Y-49750D03*
X44750Y-49750D03*
X46750Y-49750D03*
X45750Y-49750D03*
G54D13*
X40500Y-54838D03*
X40500Y-52161D03*
G54D12*
X49000Y-57000D03*
X40500Y-50000D03*
X30000Y-59000D03*
X38500Y-66000D03*
G54D13*
X30000Y-63838D03*
X30000Y-61161D03*
G54D14*
X32250Y-58750D03*
G54D15*
X33250Y-58750D03*
X34250Y-58750D03*
X36250Y-58750D03*
X35250Y-58750D03*
G54D14*
X32250Y-66250D03*
G54D15*
X33250Y-66250D03*
X34250Y-66250D03*
X36250Y-66250D03*
X35250Y-66250D03*
G54D14*
X42750Y-66250D03*
G54D15*
X43750Y-66250D03*
X44750Y-66250D03*
X46750Y-66250D03*
X45750Y-66250D03*
G54D14*
X42750Y-58750D03*
G54D15*
X43750Y-58750D03*
X44750Y-58750D03*
X46750Y-58750D03*
X45750Y-58750D03*
G54D13*
X40500Y-63838D03*
X40500Y-61161D03*
G54D12*
X49000Y-66000D03*
X40500Y-59000D03*
X40500Y-41000D03*
X49000Y-48000D03*
G54D13*
X40500Y-45838D03*
X40500Y-43161D03*
G54D14*
X42750Y-40750D03*
G54D15*
X43750Y-40750D03*
X44750Y-40750D03*
X46750Y-40750D03*
X45750Y-40750D03*
G54D14*
X42750Y-48250D03*
G54D15*
X43750Y-48250D03*
X44750Y-48250D03*
X46750Y-48250D03*
X45750Y-48250D03*
G54D14*
X48000Y-39500D03*
G54D15*
X49000Y-39500D03*
G54D14*
X32250Y-48250D03*
G54D15*
X33250Y-48250D03*
X34250Y-48250D03*
X36250Y-48250D03*
X35250Y-48250D03*
G54D14*
X30000Y-39500D03*
G54D15*
X31000Y-39500D03*
G54D16*
X44500Y-36000D03*
G54D17*
X45500Y-36000D03*
X44500Y-37000D03*
X45500Y-37000D03*
X44500Y-38000D03*
X45500Y-38000D03*
G54D14*
X39500Y-28750D03*
G54D15*
X39500Y-27750D03*
X39500Y-26750D03*
X39500Y-24750D03*
X39500Y-23750D03*
X39500Y-25750D03*
G54D14*
X37500Y-39250D03*
G54D15*
X38500Y-39250D03*
X39500Y-39250D03*
X41500Y-39250D03*
X40500Y-39250D03*
G54D10*
G36*
X35770Y-29063D02*
X36384Y-29418D01*
X36029Y-30031D01*
X35415Y-29677D01*
X35770Y-29063D01*
X35770Y-29063D01*
G37*
G54D15*
X35400Y-30413D03*
X34900Y-31280D03*
X33900Y-33012D03*
X34400Y-32146D03*
G54D10*
G36*
X45584Y-33141D02*
X44970Y-33496D01*
X44615Y-32882D01*
X45229Y-32528D01*
X45584Y-33141D01*
X45584Y-33141D01*
G37*
G54D15*
X44600Y-32146D03*
X44100Y-31280D03*
X43100Y-29547D03*
X43600Y-30413D03*
G54D14*
X32250Y-40750D03*
G54D15*
X33250Y-40750D03*
X34250Y-40750D03*
X36250Y-40750D03*
X35250Y-40750D03*
G54D13*
X30000Y-45838D03*
X30000Y-43161D03*
G54D14*
X41000Y-29500D03*
G54D15*
X41000Y-28500D03*
X41000Y-27500D03*
X41000Y-25500D03*
X41000Y-26500D03*
G54D12*
X35750Y-33250D03*
X43250Y-33250D03*
X38500Y-48000D03*
X30000Y-41000D03*
G54D18*
X39400Y-33200D03*
X38200Y-29050D03*
X38750Y-32450D03*
X42100Y-32400D03*
X37000Y-32300D03*
X38150Y-33100D03*
X30250Y-56250D03*
X40750Y-56250D03*
X30250Y-65250D03*
X40750Y-65250D03*
X40750Y-47250D03*
X30250Y-47250D03*
X36750Y-55250D03*
X37000Y-50250D03*
X47500Y-50250D03*
X47250Y-55250D03*
X36750Y-64250D03*
X37000Y-59250D03*
X47500Y-59250D03*
X47250Y-64250D03*
X47250Y-46250D03*
X47500Y-41250D03*
X37000Y-41250D03*
X36750Y-46250D03*
X36500Y-50750D03*
X47000Y-50750D03*
X36500Y-59750D03*
X47000Y-59750D03*
X47000Y-41750D03*
X36500Y-41750D03*
X29750Y-53500D03*
X40250Y-53500D03*
X29750Y-62500D03*
X40250Y-62500D03*
X40250Y-44500D03*
X29750Y-44500D03*
X39800Y-31950D03*
X35750Y-31150D03*
X39050Y-32100D03*
X38300Y-28300D03*
X37600Y-31750D03*
X38300Y-27850D03*
X38400Y-32750D03*
G54D19*
X42700Y-38150D03*
G54D18*
X30250Y-53500D03*
X35750Y-53500D03*
X46250Y-53500D03*
X40750Y-53500D03*
X30250Y-62500D03*
X35750Y-62500D03*
X46250Y-62500D03*
X40750Y-62500D03*
X40750Y-44500D03*
X46250Y-44500D03*
X35750Y-44500D03*
X30250Y-44500D03*
X31250Y-51500D03*
X41750Y-51500D03*
X31250Y-60500D03*
X41750Y-60500D03*
X41750Y-42500D03*
X31250Y-42500D03*
X37350Y-27300D03*
X43250Y-37800D03*
X37500Y-36000D03*
G54D20*
X43600Y-37100D02*
X44500Y-38000D01*
X43600Y-35000D02*
X43600Y-37100D01*
X43150Y-34550D02*
X43600Y-35000D01*
X42000Y-34550D02*
X43150Y-34550D01*
X41250Y-33800D02*
X42000Y-34550D01*
X40000Y-33800D02*
X41250Y-33800D01*
X39400Y-33200D02*
X40000Y-33800D01*
X38200Y-31900D02*
X38200Y-29050D01*
X38750Y-32450D02*
X38200Y-31900D01*
X43850Y-36350D02*
X44500Y-37000D01*
X43850Y-34850D02*
X43850Y-36350D01*
X43300Y-34300D02*
X43850Y-34850D01*
X42150Y-34300D02*
X43300Y-34300D01*
X41400Y-33550D02*
X42150Y-34300D01*
X41400Y-33100D02*
X41400Y-33550D01*
X42100Y-32400D02*
X41400Y-33100D01*
X39700Y-38450D02*
X40500Y-39250D01*
X36200Y-38450D02*
X39700Y-38450D01*
X35650Y-37900D02*
X36200Y-38450D01*
X35650Y-35600D02*
X35650Y-37900D01*
X37700Y-33550D02*
X35650Y-35600D01*
X37700Y-33000D02*
X37700Y-33550D01*
X37000Y-32300D02*
X37700Y-33000D01*
X38975Y-32775D02*
X39450Y-32300D01*
X39450Y-31600D02*
X40000Y-31050D01*
X39450Y-32300D02*
X39450Y-31600D01*
X43600Y-30413D02*
X43600Y-30450D01*
X43600Y-30450D02*
X43000Y-31050D01*
X43000Y-31050D02*
X40000Y-31050D01*
X38600Y-33150D02*
X38975Y-32775D01*
X38200Y-33150D02*
X38600Y-33150D01*
X38150Y-33100D02*
X38200Y-33150D01*
X36750Y-55250D02*
X36500Y-55000D01*
X36500Y-55000D02*
X36500Y-54250D01*
X36500Y-54250D02*
X36500Y-51500D01*
X36500Y-51500D02*
X37000Y-51000D01*
X37000Y-51000D02*
X37000Y-50250D01*
X47500Y-51000D02*
X47500Y-50250D01*
X47000Y-51500D02*
X47500Y-51000D01*
X47000Y-54250D02*
X47000Y-51500D01*
X47000Y-55000D02*
X47000Y-54250D01*
X47250Y-55250D02*
X47000Y-55000D01*
X36750Y-64250D02*
X36500Y-64000D01*
X36500Y-64000D02*
X36500Y-63250D01*
X36500Y-63250D02*
X36500Y-60500D01*
X36500Y-60500D02*
X37000Y-60000D01*
X37000Y-60000D02*
X37000Y-59250D01*
X47500Y-60000D02*
X47500Y-59250D01*
X47000Y-60500D02*
X47500Y-60000D01*
X47000Y-63250D02*
X47000Y-60500D01*
X47000Y-64000D02*
X47000Y-63250D01*
X47250Y-64250D02*
X47000Y-64000D01*
X47250Y-46250D02*
X47000Y-46000D01*
X47000Y-46000D02*
X47000Y-45250D01*
X47000Y-45250D02*
X47000Y-42500D01*
X47000Y-42500D02*
X47500Y-42000D01*
X47500Y-42000D02*
X47500Y-41250D01*
X37000Y-42000D02*
X37000Y-41250D01*
X36500Y-42500D02*
X37000Y-42000D01*
X36500Y-45250D02*
X36500Y-42500D01*
X36500Y-46000D02*
X36500Y-45250D01*
X36750Y-46250D02*
X36500Y-46000D01*
X36250Y-51000D02*
X36500Y-50750D01*
X36250Y-57250D02*
X36250Y-51000D01*
X46750Y-57250D02*
X46750Y-51000D01*
X46750Y-51000D02*
X47000Y-50750D01*
X36250Y-60000D02*
X36500Y-59750D01*
X36250Y-66250D02*
X36250Y-60000D01*
X46750Y-66250D02*
X46750Y-60000D01*
X46750Y-60000D02*
X47000Y-59750D01*
X46750Y-42000D02*
X47000Y-41750D01*
X46750Y-48250D02*
X46750Y-42000D01*
X36250Y-48250D02*
X36250Y-42000D01*
X36250Y-42000D02*
X36500Y-41750D01*
X36250Y-50250D02*
X36000Y-50500D01*
X36000Y-50500D02*
X36000Y-52500D01*
X36000Y-52500D02*
X35250Y-53250D01*
X35250Y-53250D02*
X34750Y-53250D01*
X34750Y-53250D02*
X33500Y-54500D01*
X33500Y-54500D02*
X33000Y-54500D01*
X33000Y-54500D02*
X31750Y-53250D01*
X31750Y-53250D02*
X30500Y-53250D01*
X30500Y-53250D02*
X30250Y-53000D01*
X30250Y-53000D02*
X30000Y-53000D01*
X30000Y-53000D02*
X29750Y-53250D01*
X29750Y-53250D02*
X29750Y-53500D01*
X36250Y-49750D02*
X36250Y-50250D01*
X46750Y-49750D02*
X46750Y-50250D01*
X40250Y-53250D02*
X40250Y-53500D01*
X40500Y-53000D02*
X40250Y-53250D01*
X40750Y-53000D02*
X40500Y-53000D01*
X41000Y-53250D02*
X40750Y-53000D01*
X42250Y-53250D02*
X41000Y-53250D01*
X43500Y-54500D02*
X42250Y-53250D01*
X44000Y-54500D02*
X43500Y-54500D01*
X45250Y-53250D02*
X44000Y-54500D01*
X45750Y-53250D02*
X45250Y-53250D01*
X46500Y-52500D02*
X45750Y-53250D01*
X46500Y-50500D02*
X46500Y-52500D01*
X46750Y-50250D02*
X46500Y-50500D01*
X36250Y-59250D02*
X36000Y-59500D01*
X36000Y-59500D02*
X36000Y-61500D01*
X36000Y-61500D02*
X35250Y-62250D01*
X35250Y-62250D02*
X34750Y-62250D01*
X34750Y-62250D02*
X33500Y-63500D01*
X33500Y-63500D02*
X33000Y-63500D01*
X33000Y-63500D02*
X31750Y-62250D01*
X31750Y-62250D02*
X30500Y-62250D01*
X30500Y-62250D02*
X30250Y-62000D01*
X30250Y-62000D02*
X30000Y-62000D01*
X30000Y-62000D02*
X29750Y-62250D01*
X29750Y-62250D02*
X29750Y-62500D01*
X36250Y-58750D02*
X36250Y-59250D01*
X46750Y-58750D02*
X46750Y-59250D01*
X40250Y-62250D02*
X40250Y-62500D01*
X40500Y-62000D02*
X40250Y-62250D01*
X40750Y-62000D02*
X40500Y-62000D01*
X41000Y-62250D02*
X40750Y-62000D01*
X42250Y-62250D02*
X41000Y-62250D01*
X43500Y-63500D02*
X42250Y-62250D01*
X44000Y-63500D02*
X43500Y-63500D01*
X45250Y-62250D02*
X44000Y-63500D01*
X45750Y-62250D02*
X45250Y-62250D01*
X46500Y-61500D02*
X45750Y-62250D01*
X46500Y-59500D02*
X46500Y-61500D01*
X46750Y-59250D02*
X46500Y-59500D01*
X46750Y-41250D02*
X46500Y-41500D01*
X46500Y-41500D02*
X46500Y-43500D01*
X46500Y-43500D02*
X45750Y-44250D01*
X45750Y-44250D02*
X45250Y-44250D01*
X45250Y-44250D02*
X44000Y-45500D01*
X44000Y-45500D02*
X43500Y-45500D01*
X43500Y-45500D02*
X42250Y-44250D01*
X42250Y-44250D02*
X41000Y-44250D01*
X41000Y-44250D02*
X40750Y-44000D01*
X40750Y-44000D02*
X40500Y-44000D01*
X40500Y-44000D02*
X40250Y-44250D01*
X40250Y-44250D02*
X40250Y-44500D01*
X46750Y-40750D02*
X46750Y-41250D01*
X36250Y-40750D02*
X36250Y-41250D01*
X29750Y-44250D02*
X29750Y-44500D01*
X30000Y-44000D02*
X29750Y-44250D01*
X30250Y-44000D02*
X30000Y-44000D01*
X30500Y-44250D02*
X30250Y-44000D01*
X31750Y-44250D02*
X30500Y-44250D01*
X33000Y-45500D02*
X31750Y-44250D01*
X33500Y-45500D02*
X33000Y-45500D01*
X34750Y-44250D02*
X33500Y-45500D01*
X35250Y-44250D02*
X34750Y-44250D01*
X36000Y-43500D02*
X35250Y-44250D01*
X36000Y-41500D02*
X36000Y-43500D01*
X36250Y-41250D02*
X36000Y-41500D01*
X41500Y-39250D02*
X41500Y-38900D01*
X39800Y-32300D02*
X39800Y-31950D01*
X38650Y-33450D02*
X39800Y-32300D01*
X38200Y-33450D02*
X38650Y-33450D01*
X35900Y-35750D02*
X38200Y-33450D01*
X35900Y-37750D02*
X35900Y-35750D01*
X36350Y-38200D02*
X35900Y-37750D01*
X40800Y-38200D02*
X36350Y-38200D01*
X41500Y-38900D02*
X40800Y-38200D01*
X33900Y-33012D02*
X34537Y-33012D01*
X35750Y-31800D02*
X35750Y-31150D01*
X34537Y-33012D02*
X35750Y-31800D01*
X42850Y-29797D02*
X43100Y-29547D01*
X42850Y-30500D02*
X42850Y-29797D01*
X42550Y-30800D02*
X42850Y-30500D01*
X39900Y-30800D02*
X42550Y-30800D01*
X39150Y-31550D02*
X39900Y-30800D01*
X39150Y-32000D02*
X39150Y-31550D01*
X39050Y-32100D02*
X39150Y-32000D01*
X37850Y-29050D02*
X37850Y-28750D01*
X37850Y-28750D02*
X38300Y-28300D01*
X37850Y-29150D02*
X37850Y-29050D01*
X37950Y-29250D02*
X37850Y-29150D01*
X37950Y-31400D02*
X37950Y-29250D01*
X37600Y-31750D02*
X37950Y-31400D01*
X37600Y-28550D02*
X37600Y-28850D01*
X38300Y-27850D02*
X37600Y-28550D01*
X37600Y-29350D02*
X37600Y-28850D01*
X37700Y-29450D02*
X37600Y-29350D01*
X37700Y-31150D02*
X37700Y-29450D01*
X37250Y-31600D02*
X37700Y-31150D01*
X37250Y-31850D02*
X37250Y-31600D01*
X37600Y-32200D02*
X37250Y-31850D01*
X37850Y-32200D02*
X37600Y-32200D01*
X38400Y-32750D02*
X37850Y-32200D01*
G54D21*
X45100Y-33950D02*
X45100Y-33012D01*
X46850Y-35700D02*
X45100Y-33950D01*
X46850Y-38500D02*
X46850Y-35700D01*
X46150Y-39200D02*
X46850Y-38500D01*
X43750Y-39200D02*
X46150Y-39200D01*
X42700Y-38150D02*
X43750Y-39200D01*
X37500Y-39250D02*
X36300Y-39250D01*
X36450Y-30097D02*
X35900Y-29547D01*
X36450Y-32450D02*
X36450Y-30097D01*
X37000Y-33000D02*
X36450Y-32450D01*
X37000Y-33650D02*
X37000Y-33000D01*
X35200Y-35450D02*
X37000Y-33650D01*
X35200Y-38150D02*
X35200Y-35450D01*
X36300Y-39250D02*
X35200Y-38150D01*
G54D20*
X30250Y-53500D02*
X31500Y-53500D01*
X31500Y-53500D02*
X33250Y-55250D01*
X33250Y-55250D02*
X33250Y-57250D01*
X35000Y-53500D02*
X35750Y-53500D01*
X33250Y-55250D02*
X35000Y-53500D01*
X43750Y-55250D02*
X45500Y-53500D01*
X45500Y-53500D02*
X46250Y-53500D01*
X43750Y-55250D02*
X43750Y-57250D01*
X42000Y-53500D02*
X43750Y-55250D01*
X40750Y-53500D02*
X42000Y-53500D01*
X30250Y-62500D02*
X31500Y-62500D01*
X31500Y-62500D02*
X33250Y-64250D01*
X33250Y-64250D02*
X33250Y-66250D01*
X35000Y-62500D02*
X35750Y-62500D01*
X33250Y-64250D02*
X35000Y-62500D01*
X43750Y-64250D02*
X45500Y-62500D01*
X45500Y-62500D02*
X46250Y-62500D01*
X43750Y-64250D02*
X43750Y-66250D01*
X42000Y-62500D02*
X43750Y-64250D01*
X40750Y-62500D02*
X42000Y-62500D01*
X40750Y-44500D02*
X42000Y-44500D01*
X42000Y-44500D02*
X43750Y-46250D01*
X43750Y-46250D02*
X43750Y-48250D01*
X45500Y-44500D02*
X46250Y-44500D01*
X43750Y-46250D02*
X45500Y-44500D01*
X33250Y-46250D02*
X35000Y-44500D01*
X35000Y-44500D02*
X35750Y-44500D01*
X33250Y-46250D02*
X33250Y-48250D01*
X31500Y-44500D02*
X33250Y-46250D01*
X30250Y-44500D02*
X31500Y-44500D01*
X33250Y-50500D02*
X33000Y-50750D01*
X33000Y-50750D02*
X32000Y-50750D01*
X32000Y-50750D02*
X31250Y-51500D01*
X33250Y-49750D02*
X33250Y-50500D01*
X43750Y-49750D02*
X43750Y-50500D01*
X42500Y-50750D02*
X41750Y-51500D01*
X43500Y-50750D02*
X42500Y-50750D01*
X43750Y-50500D02*
X43500Y-50750D01*
X33250Y-59500D02*
X33000Y-59750D01*
X33000Y-59750D02*
X32000Y-59750D01*
X32000Y-59750D02*
X31250Y-60500D01*
X33250Y-58750D02*
X33250Y-59500D01*
X43750Y-58750D02*
X43750Y-59500D01*
X42500Y-59750D02*
X41750Y-60500D01*
X43500Y-59750D02*
X42500Y-59750D01*
X43750Y-59500D02*
X43500Y-59750D01*
X43750Y-41500D02*
X43500Y-41750D01*
X43500Y-41750D02*
X42500Y-41750D01*
X42500Y-41750D02*
X41750Y-42500D01*
X43750Y-40750D02*
X43750Y-41500D01*
X33250Y-40750D02*
X33250Y-41500D01*
X32000Y-41750D02*
X31250Y-42500D01*
X33000Y-41750D02*
X32000Y-41750D01*
X33250Y-41500D02*
X33000Y-41750D01*
X39500Y-27750D02*
X39150Y-27750D01*
X38700Y-27300D02*
X37350Y-27300D01*
X39150Y-27750D02*
X38700Y-27300D01*
X45500Y-38000D02*
X45500Y-38450D01*
X44150Y-38700D02*
X43250Y-37800D01*
X45250Y-38700D02*
X44150Y-38700D01*
X45500Y-38450D02*
X45250Y-38700D01*
G54D10*
G36*
X37025Y-39825D02*
X31512Y-39825D01*
X31526Y-39820D01*
X31608Y-39594D01*
X31598Y-39354D01*
X31526Y-39179D01*
X31425Y-39145D01*
X31354Y-39216D01*
X31070Y-39500D01*
X31076Y-39505D01*
X31005Y-39576D01*
X31000Y-39570D01*
X30994Y-39576D01*
X30923Y-39505D01*
X30929Y-39500D01*
X30923Y-39494D01*
X30994Y-39423D01*
X31000Y-39429D01*
X31354Y-39074D01*
X31320Y-38973D01*
X31094Y-38891D01*
X30854Y-38901D01*
X30679Y-38973D01*
X30645Y-39074D01*
X30600Y-39029D01*
X30583Y-39046D01*
X30566Y-39004D01*
X30495Y-38933D01*
X30404Y-38895D01*
X30304Y-38895D01*
X29839Y-38895D01*
X34301Y-31160D01*
X34283Y-31294D01*
X34354Y-31374D01*
X34803Y-31254D01*
X34823Y-31274D01*
X34894Y-31203D01*
X34803Y-31112D01*
X34708Y-30760D01*
X34604Y-30739D01*
X34509Y-30818D01*
X34502Y-30812D01*
X35165Y-29662D01*
X35161Y-29694D01*
X35187Y-29790D01*
X35247Y-29869D01*
X35317Y-29909D01*
X35300Y-29909D01*
X35114Y-29986D01*
X34972Y-30127D01*
X34895Y-30313D01*
X34895Y-30513D01*
X34961Y-30674D01*
X34885Y-30663D01*
X34805Y-30734D01*
X34925Y-31183D01*
X34905Y-31203D01*
X34976Y-31274D01*
X35067Y-31183D01*
X35419Y-31088D01*
X35440Y-30984D01*
X35385Y-30918D01*
X35499Y-30918D01*
X35685Y-30841D01*
X35827Y-30700D01*
X35904Y-30514D01*
X35904Y-30314D01*
X35868Y-30227D01*
X35947Y-30273D01*
X36046Y-30286D01*
X36100Y-30271D01*
X36100Y-32450D01*
X36126Y-32583D01*
X36202Y-32697D01*
X36650Y-33144D01*
X36650Y-33505D01*
X36392Y-33762D01*
X36392Y-33122D01*
X36294Y-32886D01*
X36114Y-32705D01*
X36050Y-32679D01*
X36050Y-31090D01*
X36004Y-30980D01*
X35920Y-30895D01*
X35809Y-30850D01*
X35690Y-30849D01*
X35580Y-30895D01*
X35495Y-30979D01*
X35450Y-31090D01*
X35449Y-31190D01*
X35445Y-31185D01*
X34961Y-31315D01*
X35091Y-31799D01*
X35195Y-31820D01*
X35379Y-31666D01*
X35491Y-31453D01*
X35507Y-31331D01*
X35550Y-31374D01*
X35550Y-31717D01*
X34455Y-32812D01*
X34363Y-32812D01*
X34327Y-32726D01*
X34217Y-32616D01*
X34299Y-32650D01*
X34499Y-32650D01*
X34685Y-32573D01*
X34827Y-32432D01*
X34904Y-32246D01*
X34904Y-32046D01*
X34838Y-31885D01*
X34914Y-31896D01*
X34994Y-31825D01*
X34874Y-31376D01*
X34894Y-31356D01*
X34823Y-31285D01*
X34732Y-31376D01*
X34380Y-31471D01*
X34359Y-31575D01*
X34414Y-31641D01*
X34300Y-31641D01*
X34114Y-31718D01*
X33972Y-31859D01*
X33895Y-32045D01*
X33895Y-32245D01*
X33972Y-32431D01*
X34082Y-32541D01*
X34000Y-32507D01*
X33800Y-32507D01*
X33614Y-32584D01*
X33472Y-32725D01*
X33395Y-32911D01*
X33395Y-33111D01*
X33472Y-33297D01*
X33613Y-33439D01*
X33799Y-33516D01*
X33999Y-33516D01*
X34185Y-33439D01*
X34327Y-33298D01*
X34363Y-33212D01*
X34537Y-33212D01*
X34614Y-33196D01*
X34679Y-33153D01*
X35891Y-31941D01*
X35891Y-31941D01*
X35934Y-31876D01*
X35950Y-31800D01*
X35950Y-31374D01*
X36004Y-31320D01*
X36049Y-31209D01*
X36050Y-31090D01*
X36050Y-32679D01*
X35878Y-32607D01*
X35622Y-32607D01*
X35386Y-32705D01*
X35205Y-32885D01*
X35107Y-33121D01*
X35107Y-33377D01*
X35205Y-33613D01*
X35385Y-33794D01*
X35621Y-33892D01*
X35877Y-33892D01*
X36113Y-33794D01*
X36294Y-33614D01*
X36392Y-33378D01*
X36392Y-33122D01*
X36392Y-33762D01*
X34952Y-35202D01*
X34876Y-35316D01*
X34850Y-35450D01*
X34850Y-38150D01*
X34876Y-38283D01*
X34952Y-38397D01*
X36052Y-39497D01*
X36166Y-39573D01*
X36166Y-39573D01*
X36300Y-39600D01*
X36895Y-39600D01*
X36895Y-39654D01*
X36933Y-39745D01*
X37004Y-39816D01*
X37025Y-39825D01*
X37025Y-39825D01*
G37*
G54D20*
X37025Y-39825D02*
X31512Y-39825D01*
X31526Y-39820D01*
X31608Y-39594D01*
X31598Y-39354D01*
X31526Y-39179D01*
X31425Y-39145D01*
X31354Y-39216D01*
X31070Y-39500D01*
X31076Y-39505D01*
X31005Y-39576D01*
X31000Y-39570D01*
X30994Y-39576D01*
X30923Y-39505D01*
X30929Y-39500D01*
X30923Y-39494D01*
X30994Y-39423D01*
X31000Y-39429D01*
X31354Y-39074D01*
X31320Y-38973D01*
X31094Y-38891D01*
X30854Y-38901D01*
X30679Y-38973D01*
X30645Y-39074D01*
X30600Y-39029D01*
X30583Y-39046D01*
X30566Y-39004D01*
X30495Y-38933D01*
X30404Y-38895D01*
X30304Y-38895D01*
X29839Y-38895D01*
X34301Y-31160D01*
X34283Y-31294D01*
X34354Y-31374D01*
X34803Y-31254D01*
X34823Y-31274D01*
X34894Y-31203D01*
X34803Y-31112D01*
X34708Y-30760D01*
X34604Y-30739D01*
X34509Y-30818D01*
X34502Y-30812D01*
X35165Y-29662D01*
X35161Y-29694D01*
X35187Y-29790D01*
X35247Y-29869D01*
X35317Y-29909D01*
X35300Y-29909D01*
X35114Y-29986D01*
X34972Y-30127D01*
X34895Y-30313D01*
X34895Y-30513D01*
X34961Y-30674D01*
X34885Y-30663D01*
X34805Y-30734D01*
X34925Y-31183D01*
X34905Y-31203D01*
X34976Y-31274D01*
X35067Y-31183D01*
X35419Y-31088D01*
X35440Y-30984D01*
X35385Y-30918D01*
X35499Y-30918D01*
X35685Y-30841D01*
X35827Y-30700D01*
X35904Y-30514D01*
X35904Y-30314D01*
X35868Y-30227D01*
X35947Y-30273D01*
X36046Y-30286D01*
X36100Y-30271D01*
X36100Y-32450D01*
X36126Y-32583D01*
X36202Y-32697D01*
X36650Y-33144D01*
X36650Y-33505D01*
X36392Y-33762D01*
X36392Y-33122D01*
X36294Y-32886D01*
X36114Y-32705D01*
X36050Y-32679D01*
X36050Y-31090D01*
X36004Y-30980D01*
X35920Y-30895D01*
X35809Y-30850D01*
X35690Y-30849D01*
X35580Y-30895D01*
X35495Y-30979D01*
X35450Y-31090D01*
X35449Y-31190D01*
X35445Y-31185D01*
X34961Y-31315D01*
X35091Y-31799D01*
X35195Y-31820D01*
X35379Y-31666D01*
X35491Y-31453D01*
X35507Y-31331D01*
X35550Y-31374D01*
X35550Y-31717D01*
X34455Y-32812D01*
X34363Y-32812D01*
X34327Y-32726D01*
X34217Y-32616D01*
X34299Y-32650D01*
X34499Y-32650D01*
X34685Y-32573D01*
X34827Y-32432D01*
X34904Y-32246D01*
X34904Y-32046D01*
X34838Y-31885D01*
X34914Y-31896D01*
X34994Y-31825D01*
X34874Y-31376D01*
X34894Y-31356D01*
X34823Y-31285D01*
X34732Y-31376D01*
X34380Y-31471D01*
X34359Y-31575D01*
X34414Y-31641D01*
X34300Y-31641D01*
X34114Y-31718D01*
X33972Y-31859D01*
X33895Y-32045D01*
X33895Y-32245D01*
X33972Y-32431D01*
X34082Y-32541D01*
X34000Y-32507D01*
X33800Y-32507D01*
X33614Y-32584D01*
X33472Y-32725D01*
X33395Y-32911D01*
X33395Y-33111D01*
X33472Y-33297D01*
X33613Y-33439D01*
X33799Y-33516D01*
X33999Y-33516D01*
X34185Y-33439D01*
X34327Y-33298D01*
X34363Y-33212D01*
X34537Y-33212D01*
X34614Y-33196D01*
X34679Y-33153D01*
X35891Y-31941D01*
X35891Y-31941D01*
X35934Y-31876D01*
X35950Y-31800D01*
X35950Y-31374D01*
X36004Y-31320D01*
X36049Y-31209D01*
X36050Y-31090D01*
X36050Y-32679D01*
X35878Y-32607D01*
X35622Y-32607D01*
X35386Y-32705D01*
X35205Y-32885D01*
X35107Y-33121D01*
X35107Y-33377D01*
X35205Y-33613D01*
X35385Y-33794D01*
X35621Y-33892D01*
X35877Y-33892D01*
X36113Y-33794D01*
X36294Y-33614D01*
X36392Y-33378D01*
X36392Y-33122D01*
X36392Y-33762D01*
X34952Y-35202D01*
X34876Y-35316D01*
X34850Y-35450D01*
X34850Y-38150D01*
X34876Y-38283D01*
X34952Y-38397D01*
X36052Y-39497D01*
X36166Y-39573D01*
X36166Y-39573D01*
X36300Y-39600D01*
X36895Y-39600D01*
X36895Y-39654D01*
X36933Y-39745D01*
X37004Y-39816D01*
X37025Y-39825D01*
G54D10*
G36*
X49175Y-38920D02*
X49094Y-38891D01*
X48854Y-38901D01*
X48679Y-38973D01*
X48645Y-39074D01*
X49000Y-39429D01*
X49005Y-39423D01*
X49076Y-39494D01*
X49070Y-39500D01*
X49076Y-39505D01*
X49005Y-39576D01*
X49000Y-39570D01*
X48994Y-39576D01*
X48923Y-39505D01*
X48929Y-39500D01*
X48574Y-39145D01*
X48504Y-39169D01*
X48504Y-39115D01*
X48481Y-39060D01*
X48439Y-39018D01*
X48384Y-38995D01*
X48324Y-38995D01*
X47615Y-38995D01*
X47560Y-39018D01*
X47518Y-39060D01*
X47495Y-39115D01*
X47495Y-39175D01*
X47495Y-39825D01*
X39702Y-39825D01*
X39820Y-39776D01*
X39854Y-39675D01*
X39500Y-39320D01*
X39145Y-39675D01*
X39179Y-39776D01*
X39312Y-39825D01*
X37974Y-39825D01*
X37995Y-39816D01*
X38066Y-39745D01*
X38104Y-39654D01*
X38104Y-39567D01*
X38213Y-39677D01*
X38399Y-39754D01*
X38599Y-39754D01*
X38785Y-39677D01*
X38927Y-39536D01*
X38943Y-39497D01*
X38973Y-39570D01*
X39074Y-39604D01*
X39429Y-39250D01*
X39074Y-38895D01*
X38973Y-38929D01*
X38945Y-39007D01*
X38927Y-38964D01*
X38786Y-38822D01*
X38600Y-38745D01*
X38400Y-38745D01*
X38214Y-38822D01*
X38104Y-38932D01*
X38104Y-38845D01*
X38066Y-38754D01*
X37995Y-38683D01*
X37914Y-38650D01*
X39384Y-38650D01*
X39354Y-38651D01*
X39179Y-38723D01*
X39145Y-38824D01*
X39500Y-39179D01*
X39505Y-39173D01*
X39576Y-39244D01*
X39570Y-39250D01*
X39925Y-39604D01*
X40026Y-39570D01*
X40054Y-39492D01*
X40072Y-39535D01*
X40213Y-39677D01*
X40399Y-39754D01*
X40599Y-39754D01*
X40785Y-39677D01*
X40927Y-39536D01*
X41000Y-39360D01*
X41072Y-39535D01*
X41213Y-39677D01*
X41399Y-39754D01*
X41599Y-39754D01*
X41785Y-39677D01*
X41927Y-39536D01*
X42004Y-39350D01*
X42004Y-39150D01*
X41927Y-38964D01*
X41786Y-38822D01*
X41645Y-38764D01*
X41641Y-38758D01*
X40941Y-38058D01*
X40876Y-38015D01*
X40800Y-38000D01*
X36432Y-38000D01*
X36100Y-37667D01*
X36100Y-35832D01*
X38282Y-33650D01*
X38650Y-33650D01*
X38726Y-33634D01*
X38791Y-33591D01*
X39106Y-33276D01*
X39145Y-33369D01*
X39229Y-33454D01*
X39340Y-33499D01*
X39417Y-33500D01*
X39858Y-33941D01*
X39858Y-33941D01*
X39901Y-33970D01*
X39923Y-33984D01*
X39923Y-33984D01*
X40000Y-34000D01*
X41167Y-34000D01*
X41858Y-34691D01*
X41923Y-34734D01*
X42000Y-34750D01*
X43067Y-34750D01*
X43400Y-35082D01*
X43400Y-37100D01*
X43415Y-37176D01*
X43458Y-37241D01*
X44046Y-37829D01*
X44015Y-37903D01*
X44015Y-38095D01*
X44088Y-38274D01*
X44225Y-38410D01*
X44403Y-38484D01*
X44595Y-38484D01*
X44774Y-38411D01*
X44910Y-38274D01*
X44943Y-38196D01*
X44990Y-38308D01*
X45088Y-38340D01*
X45429Y-38000D01*
X45088Y-37659D01*
X44990Y-37691D01*
X44946Y-37811D01*
X44911Y-37725D01*
X44774Y-37589D01*
X44596Y-37515D01*
X44404Y-37515D01*
X44329Y-37546D01*
X43800Y-37017D01*
X43800Y-36582D01*
X44046Y-36829D01*
X44015Y-36903D01*
X44015Y-37095D01*
X44088Y-37274D01*
X44225Y-37410D01*
X44403Y-37484D01*
X44595Y-37484D01*
X44774Y-37411D01*
X44910Y-37274D01*
X44984Y-37096D01*
X44984Y-36904D01*
X44911Y-36725D01*
X44774Y-36589D01*
X44596Y-36515D01*
X44404Y-36515D01*
X44329Y-36546D01*
X44267Y-36484D01*
X44864Y-36484D01*
X44919Y-36461D01*
X44961Y-36419D01*
X44984Y-36364D01*
X44984Y-36304D01*
X44984Y-35635D01*
X44961Y-35580D01*
X44919Y-35538D01*
X44864Y-35515D01*
X44804Y-35515D01*
X44135Y-35515D01*
X44080Y-35538D01*
X44050Y-35568D01*
X44050Y-34850D01*
X44037Y-34786D01*
X44034Y-34773D01*
X44034Y-34773D01*
X43991Y-34708D01*
X43892Y-34609D01*
X43892Y-33122D01*
X43794Y-32886D01*
X43614Y-32705D01*
X43378Y-32607D01*
X43122Y-32607D01*
X42886Y-32705D01*
X42705Y-32885D01*
X42607Y-33121D01*
X42607Y-33377D01*
X42705Y-33613D01*
X42885Y-33794D01*
X43121Y-33892D01*
X43377Y-33892D01*
X43613Y-33794D01*
X43794Y-33614D01*
X43892Y-33378D01*
X43892Y-33122D01*
X43892Y-34609D01*
X43441Y-34158D01*
X43376Y-34115D01*
X43300Y-34100D01*
X42232Y-34100D01*
X41600Y-33467D01*
X41600Y-33182D01*
X42082Y-32699D01*
X42159Y-32700D01*
X42269Y-32654D01*
X42354Y-32570D01*
X42399Y-32459D01*
X42400Y-32340D01*
X42354Y-32230D01*
X42270Y-32145D01*
X42159Y-32100D01*
X42040Y-32099D01*
X41930Y-32145D01*
X41845Y-32229D01*
X41800Y-32340D01*
X41799Y-32417D01*
X41258Y-32958D01*
X41215Y-33023D01*
X41200Y-33100D01*
X41200Y-33550D01*
X41209Y-33600D01*
X40082Y-33600D01*
X39699Y-33217D01*
X39700Y-33140D01*
X39654Y-33030D01*
X39570Y-32945D01*
X39476Y-32906D01*
X39941Y-32441D01*
X39984Y-32376D01*
X40000Y-32300D01*
X40000Y-32174D01*
X40054Y-32120D01*
X40099Y-32009D01*
X40100Y-31890D01*
X40054Y-31780D01*
X39970Y-31695D01*
X39859Y-31650D01*
X39740Y-31649D01*
X39650Y-31687D01*
X39650Y-31682D01*
X40082Y-31250D01*
X43000Y-31250D01*
X43076Y-31234D01*
X43141Y-31191D01*
X43439Y-30893D01*
X43499Y-30918D01*
X43610Y-30918D01*
X43559Y-30984D01*
X43580Y-31088D01*
X43932Y-31183D01*
X44023Y-31274D01*
X44094Y-31203D01*
X44074Y-31183D01*
X44194Y-30734D01*
X44114Y-30663D01*
X44036Y-30677D01*
X44104Y-30514D01*
X44104Y-30314D01*
X44027Y-30128D01*
X43886Y-29986D01*
X43700Y-29909D01*
X43500Y-29909D01*
X43417Y-29943D01*
X43527Y-29834D01*
X43604Y-29648D01*
X43604Y-29448D01*
X43527Y-29262D01*
X43386Y-29120D01*
X43200Y-29043D01*
X43000Y-29043D01*
X42814Y-29120D01*
X42672Y-29261D01*
X42595Y-29447D01*
X42595Y-29647D01*
X42652Y-29785D01*
X42650Y-29797D01*
X42650Y-30417D01*
X42467Y-30600D01*
X41604Y-30600D01*
X41604Y-29904D01*
X41604Y-29612D01*
X41541Y-29550D01*
X41050Y-29550D01*
X41050Y-30041D01*
X41112Y-30104D01*
X41304Y-30104D01*
X41404Y-30104D01*
X41495Y-30066D01*
X41566Y-29995D01*
X41604Y-29904D01*
X41604Y-30600D01*
X40950Y-30600D01*
X40950Y-30041D01*
X40950Y-29550D01*
X40458Y-29550D01*
X40395Y-29612D01*
X40395Y-29904D01*
X40433Y-29995D01*
X40504Y-30066D01*
X40595Y-30104D01*
X40695Y-30104D01*
X40887Y-30104D01*
X40950Y-30041D01*
X40950Y-30600D01*
X40108Y-30600D01*
X40108Y-27844D01*
X40098Y-27604D01*
X40026Y-27429D01*
X40004Y-27422D01*
X40004Y-26650D01*
X39927Y-26464D01*
X39786Y-26322D01*
X39610Y-26249D01*
X39785Y-26177D01*
X39927Y-26036D01*
X40004Y-25850D01*
X40004Y-25650D01*
X39927Y-25464D01*
X39786Y-25322D01*
X39610Y-25249D01*
X39785Y-25177D01*
X39927Y-25036D01*
X40004Y-24850D01*
X40004Y-24650D01*
X39927Y-24464D01*
X39786Y-24322D01*
X39610Y-24249D01*
X39785Y-24177D01*
X39927Y-24036D01*
X40004Y-23850D01*
X40004Y-23650D01*
X39927Y-23464D01*
X39786Y-23322D01*
X39600Y-23245D01*
X39400Y-23245D01*
X39214Y-23322D01*
X39072Y-23463D01*
X38995Y-23649D01*
X38995Y-23849D01*
X39072Y-24035D01*
X39213Y-24177D01*
X39389Y-24250D01*
X39214Y-24322D01*
X39072Y-24463D01*
X38995Y-24649D01*
X38995Y-24849D01*
X39072Y-25035D01*
X39213Y-25177D01*
X39389Y-25250D01*
X39214Y-25322D01*
X39072Y-25463D01*
X38995Y-25649D01*
X38995Y-25849D01*
X39072Y-26035D01*
X39213Y-26177D01*
X39389Y-26250D01*
X39214Y-26322D01*
X39072Y-26463D01*
X38995Y-26649D01*
X38995Y-26849D01*
X39072Y-27035D01*
X39213Y-27177D01*
X39252Y-27193D01*
X39179Y-27223D01*
X39145Y-27324D01*
X39500Y-27679D01*
X39854Y-27324D01*
X39820Y-27223D01*
X39742Y-27195D01*
X39785Y-27177D01*
X39927Y-27036D01*
X40004Y-26850D01*
X40004Y-26650D01*
X40004Y-27422D01*
X39925Y-27395D01*
X39570Y-27750D01*
X39576Y-27755D01*
X39505Y-27826D01*
X39500Y-27820D01*
X39494Y-27826D01*
X39429Y-27761D01*
X39423Y-27755D01*
X39429Y-27750D01*
X39074Y-27395D01*
X38973Y-27429D01*
X38891Y-27655D01*
X38901Y-27895D01*
X38973Y-28070D01*
X39074Y-28104D01*
X39029Y-28149D01*
X39046Y-28166D01*
X39004Y-28183D01*
X38933Y-28254D01*
X38895Y-28345D01*
X38895Y-28637D01*
X38958Y-28700D01*
X39450Y-28700D01*
X39450Y-28692D01*
X39550Y-28692D01*
X39550Y-28700D01*
X40041Y-28700D01*
X40104Y-28637D01*
X40104Y-28345D01*
X40066Y-28254D01*
X39995Y-28183D01*
X39953Y-28166D01*
X39970Y-28149D01*
X39925Y-28104D01*
X40026Y-28070D01*
X40108Y-27844D01*
X40108Y-30600D01*
X40104Y-30600D01*
X40104Y-29154D01*
X40104Y-28862D01*
X40041Y-28800D01*
X39550Y-28800D01*
X39550Y-29291D01*
X39612Y-29354D01*
X39804Y-29354D01*
X39904Y-29354D01*
X39995Y-29316D01*
X40066Y-29245D01*
X40104Y-29154D01*
X40104Y-30600D01*
X39900Y-30600D01*
X39823Y-30615D01*
X39758Y-30658D01*
X39450Y-30967D01*
X39450Y-29291D01*
X39450Y-28800D01*
X38958Y-28800D01*
X38895Y-28862D01*
X38895Y-29154D01*
X38933Y-29245D01*
X39004Y-29316D01*
X39095Y-29354D01*
X39195Y-29354D01*
X39387Y-29354D01*
X39450Y-29291D01*
X39450Y-30967D01*
X39008Y-31408D01*
X38965Y-31473D01*
X38950Y-31550D01*
X38950Y-31816D01*
X38880Y-31845D01*
X38795Y-31929D01*
X38750Y-32040D01*
X38749Y-32149D01*
X38732Y-32149D01*
X38400Y-31817D01*
X38400Y-29274D01*
X38454Y-29220D01*
X38499Y-29109D01*
X38500Y-28990D01*
X38454Y-28880D01*
X38370Y-28795D01*
X38259Y-28750D01*
X38140Y-28749D01*
X38127Y-28755D01*
X38282Y-28599D01*
X38359Y-28600D01*
X38469Y-28554D01*
X38554Y-28470D01*
X38599Y-28359D01*
X38600Y-28240D01*
X38554Y-28130D01*
X38499Y-28074D01*
X38554Y-28020D01*
X38599Y-27909D01*
X38600Y-27790D01*
X38554Y-27680D01*
X38470Y-27595D01*
X38359Y-27550D01*
X38240Y-27549D01*
X38130Y-27595D01*
X38045Y-27679D01*
X38000Y-27790D01*
X37999Y-27867D01*
X37458Y-28408D01*
X37415Y-28473D01*
X37400Y-28550D01*
X37400Y-28850D01*
X37400Y-29350D01*
X37415Y-29426D01*
X37458Y-29491D01*
X37500Y-29532D01*
X37500Y-31067D01*
X37108Y-31458D01*
X37065Y-31523D01*
X37050Y-31600D01*
X37050Y-31850D01*
X37065Y-31926D01*
X37108Y-31991D01*
X37157Y-32040D01*
X37059Y-32000D01*
X36940Y-31999D01*
X36830Y-32045D01*
X36800Y-32075D01*
X36800Y-30097D01*
X36773Y-29964D01*
X36697Y-29850D01*
X36523Y-29676D01*
X36625Y-29500D01*
X36638Y-29401D01*
X36612Y-29305D01*
X36552Y-29226D01*
X36465Y-29176D01*
X35852Y-28822D01*
X35753Y-28809D01*
X35657Y-28835D01*
X35631Y-28855D01*
X39499Y-22150D01*
X41154Y-25018D01*
X41100Y-24995D01*
X40900Y-24995D01*
X40714Y-25072D01*
X40572Y-25213D01*
X40495Y-25399D01*
X40495Y-25599D01*
X40572Y-25785D01*
X40713Y-25927D01*
X40889Y-26000D01*
X40714Y-26072D01*
X40572Y-26213D01*
X40495Y-26399D01*
X40495Y-26599D01*
X40572Y-26785D01*
X40713Y-26927D01*
X40889Y-27000D01*
X40714Y-27072D01*
X40572Y-27213D01*
X40495Y-27399D01*
X40495Y-27599D01*
X40572Y-27785D01*
X40713Y-27927D01*
X40889Y-28000D01*
X40714Y-28072D01*
X40572Y-28213D01*
X40495Y-28399D01*
X40495Y-28599D01*
X40572Y-28785D01*
X40682Y-28895D01*
X40595Y-28895D01*
X40504Y-28933D01*
X40433Y-29004D01*
X40395Y-29095D01*
X40395Y-29387D01*
X40458Y-29450D01*
X40950Y-29450D01*
X40950Y-29442D01*
X41050Y-29442D01*
X41050Y-29450D01*
X41541Y-29450D01*
X41604Y-29387D01*
X41604Y-29095D01*
X41566Y-29004D01*
X41495Y-28933D01*
X41404Y-28895D01*
X41317Y-28895D01*
X41427Y-28786D01*
X41504Y-28600D01*
X41504Y-28400D01*
X41427Y-28214D01*
X41286Y-28072D01*
X41110Y-27999D01*
X41285Y-27927D01*
X41427Y-27786D01*
X41504Y-27600D01*
X41504Y-27400D01*
X41427Y-27214D01*
X41286Y-27072D01*
X41110Y-26999D01*
X41285Y-26927D01*
X41427Y-26786D01*
X41504Y-26600D01*
X41504Y-26400D01*
X41427Y-26214D01*
X41286Y-26072D01*
X41110Y-25999D01*
X41285Y-25927D01*
X41427Y-25786D01*
X41498Y-25614D01*
X44497Y-30812D01*
X44494Y-30815D01*
X44395Y-30739D01*
X44291Y-30760D01*
X44196Y-31112D01*
X44105Y-31203D01*
X44176Y-31274D01*
X44196Y-31254D01*
X44645Y-31374D01*
X44716Y-31294D01*
X44690Y-31146D01*
X45365Y-32317D01*
X45342Y-32299D01*
X45246Y-32273D01*
X45147Y-32286D01*
X45068Y-32332D01*
X45104Y-32246D01*
X45104Y-32046D01*
X45027Y-31860D01*
X44886Y-31718D01*
X44700Y-31641D01*
X44589Y-31641D01*
X44640Y-31575D01*
X44619Y-31471D01*
X44267Y-31376D01*
X44176Y-31285D01*
X44105Y-31356D01*
X44125Y-31376D01*
X44038Y-31701D01*
X44038Y-31315D01*
X43554Y-31185D01*
X43483Y-31265D01*
X43525Y-31502D01*
X43654Y-31705D01*
X43804Y-31820D01*
X43908Y-31799D01*
X44038Y-31315D01*
X44038Y-31701D01*
X44005Y-31825D01*
X44085Y-31896D01*
X44163Y-31882D01*
X44095Y-32045D01*
X44095Y-32245D01*
X44172Y-32431D01*
X44313Y-32573D01*
X44499Y-32650D01*
X44517Y-32650D01*
X44447Y-32690D01*
X44387Y-32769D01*
X44361Y-32865D01*
X44374Y-32964D01*
X44424Y-33050D01*
X44750Y-33614D01*
X44750Y-33950D01*
X44776Y-34083D01*
X44852Y-34197D01*
X46500Y-35844D01*
X46500Y-38355D01*
X46089Y-38765D01*
X46089Y-38090D01*
X46078Y-37857D01*
X46009Y-37691D01*
X45984Y-37683D01*
X45984Y-36904D01*
X45984Y-35904D01*
X45911Y-35725D01*
X45774Y-35589D01*
X45596Y-35515D01*
X45404Y-35515D01*
X45225Y-35588D01*
X45089Y-35725D01*
X45015Y-35903D01*
X45015Y-36095D01*
X45088Y-36274D01*
X45225Y-36410D01*
X45403Y-36484D01*
X45595Y-36484D01*
X45774Y-36411D01*
X45910Y-36274D01*
X45984Y-36096D01*
X45984Y-35904D01*
X45984Y-36904D01*
X45911Y-36725D01*
X45774Y-36589D01*
X45596Y-36515D01*
X45404Y-36515D01*
X45225Y-36588D01*
X45089Y-36725D01*
X45015Y-36903D01*
X45015Y-37095D01*
X45088Y-37274D01*
X45225Y-37410D01*
X45303Y-37443D01*
X45191Y-37490D01*
X45159Y-37588D01*
X45500Y-37929D01*
X45840Y-37588D01*
X45808Y-37490D01*
X45688Y-37446D01*
X45774Y-37411D01*
X45910Y-37274D01*
X45984Y-37096D01*
X45984Y-36904D01*
X45984Y-37683D01*
X45911Y-37659D01*
X45570Y-38000D01*
X45911Y-38340D01*
X46009Y-38308D01*
X46089Y-38090D01*
X46089Y-38765D01*
X46005Y-38850D01*
X45840Y-38850D01*
X45840Y-38411D01*
X45500Y-38070D01*
X45159Y-38411D01*
X45191Y-38509D01*
X45409Y-38589D01*
X45642Y-38578D01*
X45808Y-38509D01*
X45840Y-38411D01*
X45840Y-38850D01*
X43894Y-38850D01*
X43125Y-38080D01*
X43125Y-38065D01*
X43060Y-37909D01*
X42941Y-37789D01*
X42784Y-37725D01*
X42615Y-37724D01*
X42459Y-37789D01*
X42339Y-37908D01*
X42275Y-38065D01*
X42274Y-38234D01*
X42339Y-38390D01*
X42458Y-38510D01*
X42615Y-38574D01*
X42629Y-38574D01*
X43502Y-39447D01*
X43616Y-39523D01*
X43616Y-39523D01*
X43750Y-39550D01*
X46150Y-39550D01*
X46283Y-39523D01*
X46283Y-39523D01*
X46397Y-39447D01*
X47097Y-38747D01*
X47173Y-38633D01*
X47173Y-38633D01*
X47200Y-38500D01*
X47200Y-35700D01*
X47173Y-35566D01*
X47097Y-35452D01*
X45450Y-33805D01*
X45450Y-33507D01*
X45752Y-33333D01*
X45812Y-33254D01*
X45838Y-33158D01*
X45834Y-33130D01*
X49175Y-38920D01*
X49175Y-38920D01*
G37*
G54D20*
X49175Y-38920D02*
X49094Y-38891D01*
X48854Y-38901D01*
X48679Y-38973D01*
X48645Y-39074D01*
X49000Y-39429D01*
X49005Y-39423D01*
X49076Y-39494D01*
X49070Y-39500D01*
X49076Y-39505D01*
X49005Y-39576D01*
X49000Y-39570D01*
X48994Y-39576D01*
X48923Y-39505D01*
X48929Y-39500D01*
X48574Y-39145D01*
X48504Y-39169D01*
X48504Y-39115D01*
X48481Y-39060D01*
X48439Y-39018D01*
X48384Y-38995D01*
X48324Y-38995D01*
X47615Y-38995D01*
X47560Y-39018D01*
X47518Y-39060D01*
X47495Y-39115D01*
X47495Y-39175D01*
X47495Y-39825D01*
X39702Y-39825D01*
X39820Y-39776D01*
X39854Y-39675D01*
X39500Y-39320D01*
X39145Y-39675D01*
X39179Y-39776D01*
X39312Y-39825D01*
X37974Y-39825D01*
X37995Y-39816D01*
X38066Y-39745D01*
X38104Y-39654D01*
X38104Y-39567D01*
X38213Y-39677D01*
X38399Y-39754D01*
X38599Y-39754D01*
X38785Y-39677D01*
X38927Y-39536D01*
X38943Y-39497D01*
X38973Y-39570D01*
X39074Y-39604D01*
X39429Y-39250D01*
X39074Y-38895D01*
X38973Y-38929D01*
X38945Y-39007D01*
X38927Y-38964D01*
X38786Y-38822D01*
X38600Y-38745D01*
X38400Y-38745D01*
X38214Y-38822D01*
X38104Y-38932D01*
X38104Y-38845D01*
X38066Y-38754D01*
X37995Y-38683D01*
X37914Y-38650D01*
X39384Y-38650D01*
X39354Y-38651D01*
X39179Y-38723D01*
X39145Y-38824D01*
X39500Y-39179D01*
X39505Y-39173D01*
X39576Y-39244D01*
X39570Y-39250D01*
X39925Y-39604D01*
X40026Y-39570D01*
X40054Y-39492D01*
X40072Y-39535D01*
X40213Y-39677D01*
X40399Y-39754D01*
X40599Y-39754D01*
X40785Y-39677D01*
X40927Y-39536D01*
X41000Y-39360D01*
X41072Y-39535D01*
X41213Y-39677D01*
X41399Y-39754D01*
X41599Y-39754D01*
X41785Y-39677D01*
X41927Y-39536D01*
X42004Y-39350D01*
X42004Y-39150D01*
X41927Y-38964D01*
X41786Y-38822D01*
X41645Y-38764D01*
X41641Y-38758D01*
X40941Y-38058D01*
X40876Y-38015D01*
X40800Y-38000D01*
X36432Y-38000D01*
X36100Y-37667D01*
X36100Y-35832D01*
X38282Y-33650D01*
X38650Y-33650D01*
X38726Y-33634D01*
X38791Y-33591D01*
X39106Y-33276D01*
X39145Y-33369D01*
X39229Y-33454D01*
X39340Y-33499D01*
X39417Y-33500D01*
X39858Y-33941D01*
X39858Y-33941D01*
X39901Y-33970D01*
X39923Y-33984D01*
X39923Y-33984D01*
X40000Y-34000D01*
X41167Y-34000D01*
X41858Y-34691D01*
X41923Y-34734D01*
X42000Y-34750D01*
X43067Y-34750D01*
X43400Y-35082D01*
X43400Y-37100D01*
X43415Y-37176D01*
X43458Y-37241D01*
X44046Y-37829D01*
X44015Y-37903D01*
X44015Y-38095D01*
X44088Y-38274D01*
X44225Y-38410D01*
X44403Y-38484D01*
X44595Y-38484D01*
X44774Y-38411D01*
X44910Y-38274D01*
X44943Y-38196D01*
X44990Y-38308D01*
X45088Y-38340D01*
X45429Y-38000D01*
X45088Y-37659D01*
X44990Y-37691D01*
X44946Y-37811D01*
X44911Y-37725D01*
X44774Y-37589D01*
X44596Y-37515D01*
X44404Y-37515D01*
X44329Y-37546D01*
X43800Y-37017D01*
X43800Y-36582D01*
X44046Y-36829D01*
X44015Y-36903D01*
X44015Y-37095D01*
X44088Y-37274D01*
X44225Y-37410D01*
X44403Y-37484D01*
X44595Y-37484D01*
X44774Y-37411D01*
X44910Y-37274D01*
X44984Y-37096D01*
X44984Y-36904D01*
X44911Y-36725D01*
X44774Y-36589D01*
X44596Y-36515D01*
X44404Y-36515D01*
X44329Y-36546D01*
X44267Y-36484D01*
X44864Y-36484D01*
X44919Y-36461D01*
X44961Y-36419D01*
X44984Y-36364D01*
X44984Y-36304D01*
X44984Y-35635D01*
X44961Y-35580D01*
X44919Y-35538D01*
X44864Y-35515D01*
X44804Y-35515D01*
X44135Y-35515D01*
X44080Y-35538D01*
X44050Y-35568D01*
X44050Y-34850D01*
X44037Y-34786D01*
X44034Y-34773D01*
X44034Y-34773D01*
X43991Y-34708D01*
X43892Y-34609D01*
X43892Y-33122D01*
X43794Y-32886D01*
X43614Y-32705D01*
X43378Y-32607D01*
X43122Y-32607D01*
X42886Y-32705D01*
X42705Y-32885D01*
X42607Y-33121D01*
X42607Y-33377D01*
X42705Y-33613D01*
X42885Y-33794D01*
X43121Y-33892D01*
X43377Y-33892D01*
X43613Y-33794D01*
X43794Y-33614D01*
X43892Y-33378D01*
X43892Y-33122D01*
X43892Y-34609D01*
X43441Y-34158D01*
X43376Y-34115D01*
X43300Y-34100D01*
X42232Y-34100D01*
X41600Y-33467D01*
X41600Y-33182D01*
X42082Y-32699D01*
X42159Y-32700D01*
X42269Y-32654D01*
X42354Y-32570D01*
X42399Y-32459D01*
X42400Y-32340D01*
X42354Y-32230D01*
X42270Y-32145D01*
X42159Y-32100D01*
X42040Y-32099D01*
X41930Y-32145D01*
X41845Y-32229D01*
X41800Y-32340D01*
X41799Y-32417D01*
X41258Y-32958D01*
X41215Y-33023D01*
X41200Y-33100D01*
X41200Y-33550D01*
X41209Y-33600D01*
X40082Y-33600D01*
X39699Y-33217D01*
X39700Y-33140D01*
X39654Y-33030D01*
X39570Y-32945D01*
X39476Y-32906D01*
X39941Y-32441D01*
X39984Y-32376D01*
X40000Y-32300D01*
X40000Y-32174D01*
X40054Y-32120D01*
X40099Y-32009D01*
X40100Y-31890D01*
X40054Y-31780D01*
X39970Y-31695D01*
X39859Y-31650D01*
X39740Y-31649D01*
X39650Y-31687D01*
X39650Y-31682D01*
X40082Y-31250D01*
X43000Y-31250D01*
X43076Y-31234D01*
X43141Y-31191D01*
X43439Y-30893D01*
X43499Y-30918D01*
X43610Y-30918D01*
X43559Y-30984D01*
X43580Y-31088D01*
X43932Y-31183D01*
X44023Y-31274D01*
X44094Y-31203D01*
X44074Y-31183D01*
X44194Y-30734D01*
X44114Y-30663D01*
X44036Y-30677D01*
X44104Y-30514D01*
X44104Y-30314D01*
X44027Y-30128D01*
X43886Y-29986D01*
X43700Y-29909D01*
X43500Y-29909D01*
X43417Y-29943D01*
X43527Y-29834D01*
X43604Y-29648D01*
X43604Y-29448D01*
X43527Y-29262D01*
X43386Y-29120D01*
X43200Y-29043D01*
X43000Y-29043D01*
X42814Y-29120D01*
X42672Y-29261D01*
X42595Y-29447D01*
X42595Y-29647D01*
X42652Y-29785D01*
X42650Y-29797D01*
X42650Y-30417D01*
X42467Y-30600D01*
X41604Y-30600D01*
X41604Y-29904D01*
X41604Y-29612D01*
X41541Y-29550D01*
X41050Y-29550D01*
X41050Y-30041D01*
X41112Y-30104D01*
X41304Y-30104D01*
X41404Y-30104D01*
X41495Y-30066D01*
X41566Y-29995D01*
X41604Y-29904D01*
X41604Y-30600D01*
X40950Y-30600D01*
X40950Y-30041D01*
X40950Y-29550D01*
X40458Y-29550D01*
X40395Y-29612D01*
X40395Y-29904D01*
X40433Y-29995D01*
X40504Y-30066D01*
X40595Y-30104D01*
X40695Y-30104D01*
X40887Y-30104D01*
X40950Y-30041D01*
X40950Y-30600D01*
X40108Y-30600D01*
X40108Y-27844D01*
X40098Y-27604D01*
X40026Y-27429D01*
X40004Y-27422D01*
X40004Y-26650D01*
X39927Y-26464D01*
X39786Y-26322D01*
X39610Y-26249D01*
X39785Y-26177D01*
X39927Y-26036D01*
X40004Y-25850D01*
X40004Y-25650D01*
X39927Y-25464D01*
X39786Y-25322D01*
X39610Y-25249D01*
X39785Y-25177D01*
X39927Y-25036D01*
X40004Y-24850D01*
X40004Y-24650D01*
X39927Y-24464D01*
X39786Y-24322D01*
X39610Y-24249D01*
X39785Y-24177D01*
X39927Y-24036D01*
X40004Y-23850D01*
X40004Y-23650D01*
X39927Y-23464D01*
X39786Y-23322D01*
X39600Y-23245D01*
X39400Y-23245D01*
X39214Y-23322D01*
X39072Y-23463D01*
X38995Y-23649D01*
X38995Y-23849D01*
X39072Y-24035D01*
X39213Y-24177D01*
X39389Y-24250D01*
X39214Y-24322D01*
X39072Y-24463D01*
X38995Y-24649D01*
X38995Y-24849D01*
X39072Y-25035D01*
X39213Y-25177D01*
X39389Y-25250D01*
X39214Y-25322D01*
X39072Y-25463D01*
X38995Y-25649D01*
X38995Y-25849D01*
X39072Y-26035D01*
X39213Y-26177D01*
X39389Y-26250D01*
X39214Y-26322D01*
X39072Y-26463D01*
X38995Y-26649D01*
X38995Y-26849D01*
X39072Y-27035D01*
X39213Y-27177D01*
X39252Y-27193D01*
X39179Y-27223D01*
X39145Y-27324D01*
X39500Y-27679D01*
X39854Y-27324D01*
X39820Y-27223D01*
X39742Y-27195D01*
X39785Y-27177D01*
X39927Y-27036D01*
X40004Y-26850D01*
X40004Y-26650D01*
X40004Y-27422D01*
X39925Y-27395D01*
X39570Y-27750D01*
X39576Y-27755D01*
X39505Y-27826D01*
X39500Y-27820D01*
X39494Y-27826D01*
X39429Y-27761D01*
X39423Y-27755D01*
X39429Y-27750D01*
X39074Y-27395D01*
X38973Y-27429D01*
X38891Y-27655D01*
X38901Y-27895D01*
X38973Y-28070D01*
X39074Y-28104D01*
X39029Y-28149D01*
X39046Y-28166D01*
X39004Y-28183D01*
X38933Y-28254D01*
X38895Y-28345D01*
X38895Y-28637D01*
X38958Y-28700D01*
X39450Y-28700D01*
X39450Y-28692D01*
X39550Y-28692D01*
X39550Y-28700D01*
X40041Y-28700D01*
X40104Y-28637D01*
X40104Y-28345D01*
X40066Y-28254D01*
X39995Y-28183D01*
X39953Y-28166D01*
X39970Y-28149D01*
X39925Y-28104D01*
X40026Y-28070D01*
X40108Y-27844D01*
X40108Y-30600D01*
X40104Y-30600D01*
X40104Y-29154D01*
X40104Y-28862D01*
X40041Y-28800D01*
X39550Y-28800D01*
X39550Y-29291D01*
X39612Y-29354D01*
X39804Y-29354D01*
X39904Y-29354D01*
X39995Y-29316D01*
X40066Y-29245D01*
X40104Y-29154D01*
X40104Y-30600D01*
X39900Y-30600D01*
X39823Y-30615D01*
X39758Y-30658D01*
X39450Y-30967D01*
X39450Y-29291D01*
X39450Y-28800D01*
X38958Y-28800D01*
X38895Y-28862D01*
X38895Y-29154D01*
X38933Y-29245D01*
X39004Y-29316D01*
X39095Y-29354D01*
X39195Y-29354D01*
X39387Y-29354D01*
X39450Y-29291D01*
X39450Y-30967D01*
X39008Y-31408D01*
X38965Y-31473D01*
X38950Y-31550D01*
X38950Y-31816D01*
X38880Y-31845D01*
X38795Y-31929D01*
X38750Y-32040D01*
X38749Y-32149D01*
X38732Y-32149D01*
X38400Y-31817D01*
X38400Y-29274D01*
X38454Y-29220D01*
X38499Y-29109D01*
X38500Y-28990D01*
X38454Y-28880D01*
X38370Y-28795D01*
X38259Y-28750D01*
X38140Y-28749D01*
X38127Y-28755D01*
X38282Y-28599D01*
X38359Y-28600D01*
X38469Y-28554D01*
X38554Y-28470D01*
X38599Y-28359D01*
X38600Y-28240D01*
X38554Y-28130D01*
X38499Y-28074D01*
X38554Y-28020D01*
X38599Y-27909D01*
X38600Y-27790D01*
X38554Y-27680D01*
X38470Y-27595D01*
X38359Y-27550D01*
X38240Y-27549D01*
X38130Y-27595D01*
X38045Y-27679D01*
X38000Y-27790D01*
X37999Y-27867D01*
X37458Y-28408D01*
X37415Y-28473D01*
X37400Y-28550D01*
X37400Y-28850D01*
X37400Y-29350D01*
X37415Y-29426D01*
X37458Y-29491D01*
X37500Y-29532D01*
X37500Y-31067D01*
X37108Y-31458D01*
X37065Y-31523D01*
X37050Y-31600D01*
X37050Y-31850D01*
X37065Y-31926D01*
X37108Y-31991D01*
X37157Y-32040D01*
X37059Y-32000D01*
X36940Y-31999D01*
X36830Y-32045D01*
X36800Y-32075D01*
X36800Y-30097D01*
X36773Y-29964D01*
X36697Y-29850D01*
X36523Y-29676D01*
X36625Y-29500D01*
X36638Y-29401D01*
X36612Y-29305D01*
X36552Y-29226D01*
X36465Y-29176D01*
X35852Y-28822D01*
X35753Y-28809D01*
X35657Y-28835D01*
X35631Y-28855D01*
X39499Y-22150D01*
X41154Y-25018D01*
X41100Y-24995D01*
X40900Y-24995D01*
X40714Y-25072D01*
X40572Y-25213D01*
X40495Y-25399D01*
X40495Y-25599D01*
X40572Y-25785D01*
X40713Y-25927D01*
X40889Y-26000D01*
X40714Y-26072D01*
X40572Y-26213D01*
X40495Y-26399D01*
X40495Y-26599D01*
X40572Y-26785D01*
X40713Y-26927D01*
X40889Y-27000D01*
X40714Y-27072D01*
X40572Y-27213D01*
X40495Y-27399D01*
X40495Y-27599D01*
X40572Y-27785D01*
X40713Y-27927D01*
X40889Y-28000D01*
X40714Y-28072D01*
X40572Y-28213D01*
X40495Y-28399D01*
X40495Y-28599D01*
X40572Y-28785D01*
X40682Y-28895D01*
X40595Y-28895D01*
X40504Y-28933D01*
X40433Y-29004D01*
X40395Y-29095D01*
X40395Y-29387D01*
X40458Y-29450D01*
X40950Y-29450D01*
X40950Y-29442D01*
X41050Y-29442D01*
X41050Y-29450D01*
X41541Y-29450D01*
X41604Y-29387D01*
X41604Y-29095D01*
X41566Y-29004D01*
X41495Y-28933D01*
X41404Y-28895D01*
X41317Y-28895D01*
X41427Y-28786D01*
X41504Y-28600D01*
X41504Y-28400D01*
X41427Y-28214D01*
X41286Y-28072D01*
X41110Y-27999D01*
X41285Y-27927D01*
X41427Y-27786D01*
X41504Y-27600D01*
X41504Y-27400D01*
X41427Y-27214D01*
X41286Y-27072D01*
X41110Y-26999D01*
X41285Y-26927D01*
X41427Y-26786D01*
X41504Y-26600D01*
X41504Y-26400D01*
X41427Y-26214D01*
X41286Y-26072D01*
X41110Y-25999D01*
X41285Y-25927D01*
X41427Y-25786D01*
X41498Y-25614D01*
X44497Y-30812D01*
X44494Y-30815D01*
X44395Y-30739D01*
X44291Y-30760D01*
X44196Y-31112D01*
X44105Y-31203D01*
X44176Y-31274D01*
X44196Y-31254D01*
X44645Y-31374D01*
X44716Y-31294D01*
X44690Y-31146D01*
X45365Y-32317D01*
X45342Y-32299D01*
X45246Y-32273D01*
X45147Y-32286D01*
X45068Y-32332D01*
X45104Y-32246D01*
X45104Y-32046D01*
X45027Y-31860D01*
X44886Y-31718D01*
X44700Y-31641D01*
X44589Y-31641D01*
X44640Y-31575D01*
X44619Y-31471D01*
X44267Y-31376D01*
X44176Y-31285D01*
X44105Y-31356D01*
X44125Y-31376D01*
X44038Y-31701D01*
X44038Y-31315D01*
X43554Y-31185D01*
X43483Y-31265D01*
X43525Y-31502D01*
X43654Y-31705D01*
X43804Y-31820D01*
X43908Y-31799D01*
X44038Y-31315D01*
X44038Y-31701D01*
X44005Y-31825D01*
X44085Y-31896D01*
X44163Y-31882D01*
X44095Y-32045D01*
X44095Y-32245D01*
X44172Y-32431D01*
X44313Y-32573D01*
X44499Y-32650D01*
X44517Y-32650D01*
X44447Y-32690D01*
X44387Y-32769D01*
X44361Y-32865D01*
X44374Y-32964D01*
X44424Y-33050D01*
X44750Y-33614D01*
X44750Y-33950D01*
X44776Y-34083D01*
X44852Y-34197D01*
X46500Y-35844D01*
X46500Y-38355D01*
X46089Y-38765D01*
X46089Y-38090D01*
X46078Y-37857D01*
X46009Y-37691D01*
X45984Y-37683D01*
X45984Y-36904D01*
X45984Y-35904D01*
X45911Y-35725D01*
X45774Y-35589D01*
X45596Y-35515D01*
X45404Y-35515D01*
X45225Y-35588D01*
X45089Y-35725D01*
X45015Y-35903D01*
X45015Y-36095D01*
X45088Y-36274D01*
X45225Y-36410D01*
X45403Y-36484D01*
X45595Y-36484D01*
X45774Y-36411D01*
X45910Y-36274D01*
X45984Y-36096D01*
X45984Y-35904D01*
X45984Y-36904D01*
X45911Y-36725D01*
X45774Y-36589D01*
X45596Y-36515D01*
X45404Y-36515D01*
X45225Y-36588D01*
X45089Y-36725D01*
X45015Y-36903D01*
X45015Y-37095D01*
X45088Y-37274D01*
X45225Y-37410D01*
X45303Y-37443D01*
X45191Y-37490D01*
X45159Y-37588D01*
X45500Y-37929D01*
X45840Y-37588D01*
X45808Y-37490D01*
X45688Y-37446D01*
X45774Y-37411D01*
X45910Y-37274D01*
X45984Y-37096D01*
X45984Y-36904D01*
X45984Y-37683D01*
X45911Y-37659D01*
X45570Y-38000D01*
X45911Y-38340D01*
X46009Y-38308D01*
X46089Y-38090D01*
X46089Y-38765D01*
X46005Y-38850D01*
X45840Y-38850D01*
X45840Y-38411D01*
X45500Y-38070D01*
X45159Y-38411D01*
X45191Y-38509D01*
X45409Y-38589D01*
X45642Y-38578D01*
X45808Y-38509D01*
X45840Y-38411D01*
X45840Y-38850D01*
X43894Y-38850D01*
X43125Y-38080D01*
X43125Y-38065D01*
X43060Y-37909D01*
X42941Y-37789D01*
X42784Y-37725D01*
X42615Y-37724D01*
X42459Y-37789D01*
X42339Y-37908D01*
X42275Y-38065D01*
X42274Y-38234D01*
X42339Y-38390D01*
X42458Y-38510D01*
X42615Y-38574D01*
X42629Y-38574D01*
X43502Y-39447D01*
X43616Y-39523D01*
X43616Y-39523D01*
X43750Y-39550D01*
X46150Y-39550D01*
X46283Y-39523D01*
X46283Y-39523D01*
X46397Y-39447D01*
X47097Y-38747D01*
X47173Y-38633D01*
X47173Y-38633D01*
X47200Y-38500D01*
X47200Y-35700D01*
X47173Y-35566D01*
X47097Y-35452D01*
X45450Y-33805D01*
X45450Y-33507D01*
X45752Y-33333D01*
X45812Y-33254D01*
X45838Y-33158D01*
X45834Y-33130D01*
X49175Y-38920D01*
G54D10*
G36*
X39325Y-48825D02*
X39142Y-48825D01*
X39142Y-47872D01*
X39044Y-47636D01*
X38864Y-47455D01*
X38628Y-47357D01*
X38372Y-47357D01*
X38136Y-47455D01*
X37955Y-47635D01*
X37857Y-47871D01*
X37857Y-48127D01*
X37955Y-48363D01*
X38135Y-48544D01*
X38371Y-48642D01*
X38627Y-48642D01*
X38863Y-48544D01*
X39044Y-48364D01*
X39142Y-48128D01*
X39142Y-47872D01*
X39142Y-48825D01*
X34452Y-48825D01*
X34570Y-48776D01*
X34604Y-48675D01*
X34250Y-48320D01*
X33895Y-48675D01*
X33929Y-48776D01*
X34062Y-48825D01*
X32724Y-48825D01*
X32745Y-48816D01*
X32816Y-48745D01*
X32854Y-48654D01*
X32854Y-48567D01*
X32963Y-48677D01*
X33149Y-48754D01*
X33349Y-48754D01*
X33535Y-48677D01*
X33677Y-48536D01*
X33693Y-48497D01*
X33723Y-48570D01*
X33824Y-48604D01*
X34179Y-48250D01*
X33824Y-47895D01*
X33723Y-47929D01*
X33695Y-48007D01*
X33677Y-47964D01*
X33536Y-47822D01*
X33450Y-47786D01*
X33450Y-46332D01*
X35082Y-44700D01*
X35525Y-44700D01*
X35579Y-44754D01*
X35690Y-44799D01*
X35809Y-44800D01*
X35919Y-44754D01*
X36004Y-44670D01*
X36049Y-44559D01*
X36050Y-44500D01*
X36050Y-47786D01*
X35964Y-47822D01*
X35822Y-47963D01*
X35749Y-48139D01*
X35677Y-47964D01*
X35536Y-47822D01*
X35350Y-47745D01*
X35150Y-47745D01*
X34964Y-47822D01*
X34822Y-47963D01*
X34806Y-48002D01*
X34776Y-47929D01*
X34675Y-47895D01*
X34604Y-47966D01*
X34604Y-47824D01*
X34570Y-47723D01*
X34344Y-47641D01*
X34104Y-47651D01*
X33929Y-47723D01*
X33895Y-47824D01*
X34250Y-48179D01*
X34604Y-47824D01*
X34604Y-47966D01*
X34320Y-48250D01*
X34675Y-48604D01*
X34776Y-48570D01*
X34804Y-48492D01*
X34822Y-48535D01*
X34963Y-48677D01*
X35149Y-48754D01*
X35349Y-48754D01*
X35535Y-48677D01*
X35677Y-48536D01*
X35750Y-48360D01*
X35822Y-48535D01*
X35963Y-48677D01*
X36149Y-48754D01*
X36349Y-48754D01*
X36535Y-48677D01*
X36677Y-48536D01*
X36754Y-48350D01*
X36754Y-48150D01*
X36677Y-47964D01*
X36536Y-47822D01*
X36450Y-47786D01*
X36450Y-46309D01*
X36495Y-46419D01*
X36579Y-46504D01*
X36690Y-46549D01*
X36809Y-46550D01*
X36919Y-46504D01*
X37004Y-46420D01*
X37049Y-46309D01*
X37050Y-46190D01*
X37004Y-46080D01*
X36920Y-45995D01*
X36809Y-45950D01*
X36732Y-45949D01*
X36700Y-45917D01*
X36700Y-45250D01*
X36700Y-42582D01*
X37141Y-42141D01*
X37184Y-42076D01*
X37184Y-42076D01*
X37187Y-42063D01*
X37199Y-42000D01*
X37200Y-42000D01*
X37200Y-41474D01*
X37254Y-41420D01*
X37299Y-41309D01*
X37300Y-41190D01*
X37254Y-41080D01*
X37170Y-40995D01*
X37059Y-40950D01*
X36940Y-40949D01*
X36830Y-40995D01*
X36745Y-41079D01*
X36700Y-41190D01*
X36699Y-41309D01*
X36745Y-41419D01*
X36800Y-41474D01*
X36800Y-41690D01*
X36754Y-41580D01*
X36670Y-41495D01*
X36559Y-41450D01*
X36440Y-41449D01*
X36330Y-41495D01*
X36245Y-41579D01*
X36200Y-41690D01*
X36200Y-41749D01*
X36200Y-41582D01*
X36391Y-41391D01*
X36391Y-41391D01*
X36434Y-41326D01*
X36450Y-41250D01*
X36450Y-41213D01*
X36535Y-41177D01*
X36677Y-41036D01*
X36754Y-40850D01*
X36754Y-40650D01*
X36677Y-40464D01*
X36536Y-40322D01*
X36350Y-40245D01*
X36150Y-40245D01*
X35964Y-40322D01*
X35822Y-40463D01*
X35749Y-40639D01*
X35677Y-40464D01*
X35536Y-40322D01*
X35350Y-40245D01*
X35150Y-40245D01*
X34964Y-40322D01*
X34822Y-40463D01*
X34806Y-40502D01*
X34776Y-40429D01*
X34675Y-40395D01*
X34320Y-40750D01*
X34675Y-41104D01*
X34776Y-41070D01*
X34804Y-40992D01*
X34822Y-41035D01*
X34963Y-41177D01*
X35149Y-41254D01*
X35349Y-41254D01*
X35535Y-41177D01*
X35677Y-41036D01*
X35750Y-40860D01*
X35822Y-41035D01*
X35963Y-41177D01*
X36017Y-41199D01*
X35858Y-41358D01*
X35815Y-41423D01*
X35800Y-41500D01*
X35800Y-43417D01*
X35167Y-44050D01*
X34750Y-44050D01*
X34673Y-44065D01*
X34608Y-44108D01*
X34604Y-44112D01*
X34604Y-41175D01*
X34250Y-40820D01*
X33895Y-41175D01*
X33929Y-41276D01*
X34155Y-41358D01*
X34395Y-41348D01*
X34570Y-41276D01*
X34604Y-41175D01*
X34604Y-44112D01*
X33417Y-45300D01*
X33082Y-45300D01*
X31891Y-44108D01*
X31826Y-44065D01*
X31750Y-44050D01*
X30642Y-44050D01*
X30642Y-40872D01*
X30544Y-40636D01*
X30364Y-40455D01*
X30128Y-40357D01*
X29872Y-40357D01*
X29636Y-40455D01*
X29455Y-40635D01*
X29357Y-40871D01*
X29357Y-41127D01*
X29455Y-41363D01*
X29635Y-41544D01*
X29871Y-41642D01*
X30127Y-41642D01*
X30363Y-41544D01*
X30544Y-41364D01*
X30642Y-41128D01*
X30642Y-40872D01*
X30642Y-44050D01*
X30582Y-44050D01*
X30391Y-43858D01*
X30327Y-43815D01*
X30327Y-43096D01*
X30277Y-42976D01*
X30185Y-42884D01*
X30065Y-42834D01*
X29935Y-42834D01*
X29814Y-42883D01*
X29722Y-42975D01*
X29672Y-43096D01*
X29672Y-43226D01*
X29722Y-43346D01*
X29814Y-43438D01*
X29934Y-43488D01*
X30064Y-43488D01*
X30185Y-43438D01*
X30277Y-43346D01*
X30327Y-43226D01*
X30327Y-43096D01*
X30327Y-43815D01*
X30326Y-43815D01*
X30250Y-43800D01*
X30000Y-43800D01*
X29923Y-43815D01*
X29858Y-43858D01*
X29608Y-44108D01*
X29565Y-44173D01*
X29550Y-44250D01*
X29550Y-44275D01*
X29495Y-44329D01*
X29450Y-44440D01*
X29449Y-44559D01*
X29495Y-44669D01*
X29579Y-44754D01*
X29690Y-44799D01*
X29809Y-44800D01*
X29919Y-44754D01*
X30000Y-44674D01*
X30079Y-44754D01*
X30190Y-44799D01*
X30309Y-44800D01*
X30419Y-44754D01*
X30474Y-44700D01*
X31417Y-44700D01*
X33050Y-46332D01*
X33050Y-47786D01*
X32964Y-47822D01*
X32854Y-47932D01*
X32854Y-47845D01*
X32816Y-47754D01*
X32745Y-47683D01*
X32654Y-47645D01*
X32554Y-47645D01*
X31845Y-47645D01*
X31754Y-47683D01*
X31683Y-47754D01*
X31645Y-47845D01*
X31645Y-47945D01*
X31645Y-48654D01*
X31683Y-48745D01*
X31754Y-48816D01*
X31775Y-48825D01*
X30327Y-48825D01*
X30327Y-45773D01*
X30277Y-45653D01*
X30185Y-45561D01*
X30065Y-45511D01*
X29935Y-45511D01*
X29814Y-45561D01*
X29722Y-45653D01*
X29672Y-45773D01*
X29672Y-45903D01*
X29722Y-46023D01*
X29814Y-46115D01*
X29934Y-46165D01*
X30064Y-46165D01*
X30185Y-46116D01*
X30277Y-46024D01*
X30327Y-45903D01*
X30327Y-45773D01*
X30327Y-48825D01*
X29175Y-48825D01*
X29175Y-40175D01*
X31775Y-40175D01*
X31754Y-40183D01*
X31683Y-40254D01*
X31645Y-40345D01*
X31645Y-40445D01*
X31645Y-41154D01*
X31683Y-41245D01*
X31754Y-41316D01*
X31845Y-41354D01*
X31945Y-41354D01*
X32654Y-41354D01*
X32745Y-41316D01*
X32816Y-41245D01*
X32854Y-41154D01*
X32854Y-41067D01*
X32963Y-41177D01*
X33050Y-41213D01*
X33050Y-41417D01*
X32917Y-41550D01*
X32000Y-41550D01*
X31923Y-41565D01*
X31858Y-41608D01*
X31267Y-42200D01*
X31190Y-42199D01*
X31080Y-42245D01*
X30995Y-42329D01*
X30950Y-42440D01*
X30949Y-42559D01*
X30995Y-42669D01*
X31079Y-42754D01*
X31190Y-42799D01*
X31309Y-42800D01*
X31419Y-42754D01*
X31504Y-42670D01*
X31549Y-42559D01*
X31550Y-42482D01*
X32082Y-41950D01*
X33000Y-41950D01*
X33076Y-41934D01*
X33141Y-41891D01*
X33391Y-41641D01*
X33391Y-41641D01*
X33434Y-41576D01*
X33450Y-41500D01*
X33450Y-41213D01*
X33535Y-41177D01*
X33677Y-41036D01*
X33693Y-40997D01*
X33723Y-41070D01*
X33824Y-41104D01*
X34179Y-40750D01*
X33824Y-40395D01*
X33723Y-40429D01*
X33695Y-40507D01*
X33677Y-40464D01*
X33536Y-40322D01*
X33350Y-40245D01*
X33150Y-40245D01*
X32964Y-40322D01*
X32854Y-40432D01*
X32854Y-40345D01*
X32816Y-40254D01*
X32745Y-40183D01*
X32724Y-40175D01*
X34047Y-40175D01*
X33929Y-40223D01*
X33895Y-40324D01*
X34250Y-40679D01*
X34604Y-40324D01*
X34570Y-40223D01*
X34437Y-40175D01*
X39325Y-40175D01*
X39325Y-48825D01*
X39325Y-48825D01*
G37*
G54D20*
X39325Y-48825D02*
X39142Y-48825D01*
X39142Y-47872D01*
X39044Y-47636D01*
X38864Y-47455D01*
X38628Y-47357D01*
X38372Y-47357D01*
X38136Y-47455D01*
X37955Y-47635D01*
X37857Y-47871D01*
X37857Y-48127D01*
X37955Y-48363D01*
X38135Y-48544D01*
X38371Y-48642D01*
X38627Y-48642D01*
X38863Y-48544D01*
X39044Y-48364D01*
X39142Y-48128D01*
X39142Y-47872D01*
X39142Y-48825D01*
X34452Y-48825D01*
X34570Y-48776D01*
X34604Y-48675D01*
X34250Y-48320D01*
X33895Y-48675D01*
X33929Y-48776D01*
X34062Y-48825D01*
X32724Y-48825D01*
X32745Y-48816D01*
X32816Y-48745D01*
X32854Y-48654D01*
X32854Y-48567D01*
X32963Y-48677D01*
X33149Y-48754D01*
X33349Y-48754D01*
X33535Y-48677D01*
X33677Y-48536D01*
X33693Y-48497D01*
X33723Y-48570D01*
X33824Y-48604D01*
X34179Y-48250D01*
X33824Y-47895D01*
X33723Y-47929D01*
X33695Y-48007D01*
X33677Y-47964D01*
X33536Y-47822D01*
X33450Y-47786D01*
X33450Y-46332D01*
X35082Y-44700D01*
X35525Y-44700D01*
X35579Y-44754D01*
X35690Y-44799D01*
X35809Y-44800D01*
X35919Y-44754D01*
X36004Y-44670D01*
X36049Y-44559D01*
X36050Y-44500D01*
X36050Y-47786D01*
X35964Y-47822D01*
X35822Y-47963D01*
X35749Y-48139D01*
X35677Y-47964D01*
X35536Y-47822D01*
X35350Y-47745D01*
X35150Y-47745D01*
X34964Y-47822D01*
X34822Y-47963D01*
X34806Y-48002D01*
X34776Y-47929D01*
X34675Y-47895D01*
X34604Y-47966D01*
X34604Y-47824D01*
X34570Y-47723D01*
X34344Y-47641D01*
X34104Y-47651D01*
X33929Y-47723D01*
X33895Y-47824D01*
X34250Y-48179D01*
X34604Y-47824D01*
X34604Y-47966D01*
X34320Y-48250D01*
X34675Y-48604D01*
X34776Y-48570D01*
X34804Y-48492D01*
X34822Y-48535D01*
X34963Y-48677D01*
X35149Y-48754D01*
X35349Y-48754D01*
X35535Y-48677D01*
X35677Y-48536D01*
X35750Y-48360D01*
X35822Y-48535D01*
X35963Y-48677D01*
X36149Y-48754D01*
X36349Y-48754D01*
X36535Y-48677D01*
X36677Y-48536D01*
X36754Y-48350D01*
X36754Y-48150D01*
X36677Y-47964D01*
X36536Y-47822D01*
X36450Y-47786D01*
X36450Y-46309D01*
X36495Y-46419D01*
X36579Y-46504D01*
X36690Y-46549D01*
X36809Y-46550D01*
X36919Y-46504D01*
X37004Y-46420D01*
X37049Y-46309D01*
X37050Y-46190D01*
X37004Y-46080D01*
X36920Y-45995D01*
X36809Y-45950D01*
X36732Y-45949D01*
X36700Y-45917D01*
X36700Y-45250D01*
X36700Y-42582D01*
X37141Y-42141D01*
X37184Y-42076D01*
X37184Y-42076D01*
X37187Y-42063D01*
X37199Y-42000D01*
X37200Y-42000D01*
X37200Y-41474D01*
X37254Y-41420D01*
X37299Y-41309D01*
X37300Y-41190D01*
X37254Y-41080D01*
X37170Y-40995D01*
X37059Y-40950D01*
X36940Y-40949D01*
X36830Y-40995D01*
X36745Y-41079D01*
X36700Y-41190D01*
X36699Y-41309D01*
X36745Y-41419D01*
X36800Y-41474D01*
X36800Y-41690D01*
X36754Y-41580D01*
X36670Y-41495D01*
X36559Y-41450D01*
X36440Y-41449D01*
X36330Y-41495D01*
X36245Y-41579D01*
X36200Y-41690D01*
X36200Y-41749D01*
X36200Y-41582D01*
X36391Y-41391D01*
X36391Y-41391D01*
X36434Y-41326D01*
X36450Y-41250D01*
X36450Y-41213D01*
X36535Y-41177D01*
X36677Y-41036D01*
X36754Y-40850D01*
X36754Y-40650D01*
X36677Y-40464D01*
X36536Y-40322D01*
X36350Y-40245D01*
X36150Y-40245D01*
X35964Y-40322D01*
X35822Y-40463D01*
X35749Y-40639D01*
X35677Y-40464D01*
X35536Y-40322D01*
X35350Y-40245D01*
X35150Y-40245D01*
X34964Y-40322D01*
X34822Y-40463D01*
X34806Y-40502D01*
X34776Y-40429D01*
X34675Y-40395D01*
X34320Y-40750D01*
X34675Y-41104D01*
X34776Y-41070D01*
X34804Y-40992D01*
X34822Y-41035D01*
X34963Y-41177D01*
X35149Y-41254D01*
X35349Y-41254D01*
X35535Y-41177D01*
X35677Y-41036D01*
X35750Y-40860D01*
X35822Y-41035D01*
X35963Y-41177D01*
X36017Y-41199D01*
X35858Y-41358D01*
X35815Y-41423D01*
X35800Y-41500D01*
X35800Y-43417D01*
X35167Y-44050D01*
X34750Y-44050D01*
X34673Y-44065D01*
X34608Y-44108D01*
X34604Y-44112D01*
X34604Y-41175D01*
X34250Y-40820D01*
X33895Y-41175D01*
X33929Y-41276D01*
X34155Y-41358D01*
X34395Y-41348D01*
X34570Y-41276D01*
X34604Y-41175D01*
X34604Y-44112D01*
X33417Y-45300D01*
X33082Y-45300D01*
X31891Y-44108D01*
X31826Y-44065D01*
X31750Y-44050D01*
X30642Y-44050D01*
X30642Y-40872D01*
X30544Y-40636D01*
X30364Y-40455D01*
X30128Y-40357D01*
X29872Y-40357D01*
X29636Y-40455D01*
X29455Y-40635D01*
X29357Y-40871D01*
X29357Y-41127D01*
X29455Y-41363D01*
X29635Y-41544D01*
X29871Y-41642D01*
X30127Y-41642D01*
X30363Y-41544D01*
X30544Y-41364D01*
X30642Y-41128D01*
X30642Y-40872D01*
X30642Y-44050D01*
X30582Y-44050D01*
X30391Y-43858D01*
X30327Y-43815D01*
X30327Y-43096D01*
X30277Y-42976D01*
X30185Y-42884D01*
X30065Y-42834D01*
X29935Y-42834D01*
X29814Y-42883D01*
X29722Y-42975D01*
X29672Y-43096D01*
X29672Y-43226D01*
X29722Y-43346D01*
X29814Y-43438D01*
X29934Y-43488D01*
X30064Y-43488D01*
X30185Y-43438D01*
X30277Y-43346D01*
X30327Y-43226D01*
X30327Y-43096D01*
X30327Y-43815D01*
X30326Y-43815D01*
X30250Y-43800D01*
X30000Y-43800D01*
X29923Y-43815D01*
X29858Y-43858D01*
X29608Y-44108D01*
X29565Y-44173D01*
X29550Y-44250D01*
X29550Y-44275D01*
X29495Y-44329D01*
X29450Y-44440D01*
X29449Y-44559D01*
X29495Y-44669D01*
X29579Y-44754D01*
X29690Y-44799D01*
X29809Y-44800D01*
X29919Y-44754D01*
X30000Y-44674D01*
X30079Y-44754D01*
X30190Y-44799D01*
X30309Y-44800D01*
X30419Y-44754D01*
X30474Y-44700D01*
X31417Y-44700D01*
X33050Y-46332D01*
X33050Y-47786D01*
X32964Y-47822D01*
X32854Y-47932D01*
X32854Y-47845D01*
X32816Y-47754D01*
X32745Y-47683D01*
X32654Y-47645D01*
X32554Y-47645D01*
X31845Y-47645D01*
X31754Y-47683D01*
X31683Y-47754D01*
X31645Y-47845D01*
X31645Y-47945D01*
X31645Y-48654D01*
X31683Y-48745D01*
X31754Y-48816D01*
X31775Y-48825D01*
X30327Y-48825D01*
X30327Y-45773D01*
X30277Y-45653D01*
X30185Y-45561D01*
X30065Y-45511D01*
X29935Y-45511D01*
X29814Y-45561D01*
X29722Y-45653D01*
X29672Y-45773D01*
X29672Y-45903D01*
X29722Y-46023D01*
X29814Y-46115D01*
X29934Y-46165D01*
X30064Y-46165D01*
X30185Y-46116D01*
X30277Y-46024D01*
X30327Y-45903D01*
X30327Y-45773D01*
X30327Y-48825D01*
X29175Y-48825D01*
X29175Y-40175D01*
X31775Y-40175D01*
X31754Y-40183D01*
X31683Y-40254D01*
X31645Y-40345D01*
X31645Y-40445D01*
X31645Y-41154D01*
X31683Y-41245D01*
X31754Y-41316D01*
X31845Y-41354D01*
X31945Y-41354D01*
X32654Y-41354D01*
X32745Y-41316D01*
X32816Y-41245D01*
X32854Y-41154D01*
X32854Y-41067D01*
X32963Y-41177D01*
X33050Y-41213D01*
X33050Y-41417D01*
X32917Y-41550D01*
X32000Y-41550D01*
X31923Y-41565D01*
X31858Y-41608D01*
X31267Y-42200D01*
X31190Y-42199D01*
X31080Y-42245D01*
X30995Y-42329D01*
X30950Y-42440D01*
X30949Y-42559D01*
X30995Y-42669D01*
X31079Y-42754D01*
X31190Y-42799D01*
X31309Y-42800D01*
X31419Y-42754D01*
X31504Y-42670D01*
X31549Y-42559D01*
X31550Y-42482D01*
X32082Y-41950D01*
X33000Y-41950D01*
X33076Y-41934D01*
X33141Y-41891D01*
X33391Y-41641D01*
X33391Y-41641D01*
X33434Y-41576D01*
X33450Y-41500D01*
X33450Y-41213D01*
X33535Y-41177D01*
X33677Y-41036D01*
X33693Y-40997D01*
X33723Y-41070D01*
X33824Y-41104D01*
X34179Y-40750D01*
X33824Y-40395D01*
X33723Y-40429D01*
X33695Y-40507D01*
X33677Y-40464D01*
X33536Y-40322D01*
X33350Y-40245D01*
X33150Y-40245D01*
X32964Y-40322D01*
X32854Y-40432D01*
X32854Y-40345D01*
X32816Y-40254D01*
X32745Y-40183D01*
X32724Y-40175D01*
X34047Y-40175D01*
X33929Y-40223D01*
X33895Y-40324D01*
X34250Y-40679D01*
X34604Y-40324D01*
X34570Y-40223D01*
X34437Y-40175D01*
X39325Y-40175D01*
X39325Y-48825D01*
G54D10*
G36*
X49825Y-48825D02*
X49642Y-48825D01*
X49642Y-47872D01*
X49544Y-47636D01*
X49364Y-47455D01*
X49128Y-47357D01*
X48872Y-47357D01*
X48636Y-47455D01*
X48455Y-47635D01*
X48357Y-47871D01*
X48357Y-48127D01*
X48455Y-48363D01*
X48635Y-48544D01*
X48871Y-48642D01*
X49127Y-48642D01*
X49363Y-48544D01*
X49544Y-48364D01*
X49642Y-48128D01*
X49642Y-47872D01*
X49642Y-48825D01*
X44952Y-48825D01*
X45070Y-48776D01*
X45104Y-48675D01*
X44750Y-48320D01*
X44395Y-48675D01*
X44429Y-48776D01*
X44562Y-48825D01*
X43224Y-48825D01*
X43245Y-48816D01*
X43316Y-48745D01*
X43354Y-48654D01*
X43354Y-48567D01*
X43463Y-48677D01*
X43649Y-48754D01*
X43849Y-48754D01*
X44035Y-48677D01*
X44177Y-48536D01*
X44193Y-48497D01*
X44223Y-48570D01*
X44324Y-48604D01*
X44679Y-48250D01*
X44324Y-47895D01*
X44223Y-47929D01*
X44195Y-48007D01*
X44177Y-47964D01*
X44036Y-47822D01*
X43950Y-47786D01*
X43950Y-46332D01*
X45582Y-44700D01*
X46025Y-44700D01*
X46079Y-44754D01*
X46190Y-44799D01*
X46309Y-44800D01*
X46419Y-44754D01*
X46504Y-44670D01*
X46549Y-44559D01*
X46550Y-44500D01*
X46550Y-47786D01*
X46464Y-47822D01*
X46322Y-47963D01*
X46249Y-48139D01*
X46177Y-47964D01*
X46036Y-47822D01*
X45850Y-47745D01*
X45650Y-47745D01*
X45464Y-47822D01*
X45322Y-47963D01*
X45306Y-48002D01*
X45276Y-47929D01*
X45175Y-47895D01*
X45104Y-47966D01*
X45104Y-47824D01*
X45070Y-47723D01*
X44844Y-47641D01*
X44604Y-47651D01*
X44429Y-47723D01*
X44395Y-47824D01*
X44750Y-48179D01*
X45104Y-47824D01*
X45104Y-47966D01*
X44820Y-48250D01*
X45175Y-48604D01*
X45276Y-48570D01*
X45304Y-48492D01*
X45322Y-48535D01*
X45463Y-48677D01*
X45649Y-48754D01*
X45849Y-48754D01*
X46035Y-48677D01*
X46177Y-48536D01*
X46250Y-48360D01*
X46322Y-48535D01*
X46463Y-48677D01*
X46649Y-48754D01*
X46849Y-48754D01*
X47035Y-48677D01*
X47177Y-48536D01*
X47254Y-48350D01*
X47254Y-48150D01*
X47177Y-47964D01*
X47036Y-47822D01*
X46950Y-47786D01*
X46950Y-46309D01*
X46995Y-46419D01*
X47079Y-46504D01*
X47190Y-46549D01*
X47309Y-46550D01*
X47419Y-46504D01*
X47504Y-46420D01*
X47549Y-46309D01*
X47550Y-46190D01*
X47504Y-46080D01*
X47420Y-45995D01*
X47309Y-45950D01*
X47232Y-45949D01*
X47200Y-45917D01*
X47200Y-45250D01*
X47200Y-42582D01*
X47641Y-42141D01*
X47684Y-42076D01*
X47684Y-42076D01*
X47687Y-42063D01*
X47699Y-42000D01*
X47700Y-42000D01*
X47700Y-41474D01*
X47754Y-41420D01*
X47799Y-41309D01*
X47800Y-41190D01*
X47754Y-41080D01*
X47670Y-40995D01*
X47559Y-40950D01*
X47440Y-40949D01*
X47330Y-40995D01*
X47245Y-41079D01*
X47200Y-41190D01*
X47199Y-41309D01*
X47245Y-41419D01*
X47300Y-41474D01*
X47300Y-41690D01*
X47254Y-41580D01*
X47170Y-41495D01*
X47059Y-41450D01*
X46940Y-41449D01*
X46830Y-41495D01*
X46745Y-41579D01*
X46700Y-41690D01*
X46700Y-41749D01*
X46700Y-41582D01*
X46891Y-41391D01*
X46891Y-41391D01*
X46934Y-41326D01*
X46950Y-41250D01*
X46950Y-41213D01*
X47035Y-41177D01*
X47177Y-41036D01*
X47254Y-40850D01*
X47254Y-40650D01*
X47177Y-40464D01*
X47036Y-40322D01*
X46850Y-40245D01*
X46650Y-40245D01*
X46464Y-40322D01*
X46322Y-40463D01*
X46249Y-40639D01*
X46177Y-40464D01*
X46036Y-40322D01*
X45850Y-40245D01*
X45650Y-40245D01*
X45464Y-40322D01*
X45322Y-40463D01*
X45306Y-40502D01*
X45276Y-40429D01*
X45175Y-40395D01*
X44820Y-40750D01*
X45175Y-41104D01*
X45276Y-41070D01*
X45304Y-40992D01*
X45322Y-41035D01*
X45463Y-41177D01*
X45649Y-41254D01*
X45849Y-41254D01*
X46035Y-41177D01*
X46177Y-41036D01*
X46250Y-40860D01*
X46322Y-41035D01*
X46463Y-41177D01*
X46517Y-41199D01*
X46358Y-41358D01*
X46315Y-41423D01*
X46300Y-41500D01*
X46300Y-43417D01*
X45667Y-44050D01*
X45250Y-44050D01*
X45173Y-44065D01*
X45108Y-44108D01*
X45104Y-44112D01*
X45104Y-41175D01*
X44750Y-40820D01*
X44395Y-41175D01*
X44429Y-41276D01*
X44655Y-41358D01*
X44895Y-41348D01*
X45070Y-41276D01*
X45104Y-41175D01*
X45104Y-44112D01*
X43917Y-45300D01*
X43582Y-45300D01*
X42391Y-44108D01*
X42326Y-44065D01*
X42250Y-44050D01*
X41142Y-44050D01*
X41142Y-40872D01*
X41044Y-40636D01*
X40864Y-40455D01*
X40628Y-40357D01*
X40372Y-40357D01*
X40136Y-40455D01*
X39955Y-40635D01*
X39857Y-40871D01*
X39857Y-41127D01*
X39955Y-41363D01*
X40135Y-41544D01*
X40371Y-41642D01*
X40627Y-41642D01*
X40863Y-41544D01*
X41044Y-41364D01*
X41142Y-41128D01*
X41142Y-40872D01*
X41142Y-44050D01*
X41082Y-44050D01*
X40891Y-43858D01*
X40827Y-43815D01*
X40827Y-43096D01*
X40777Y-42976D01*
X40685Y-42884D01*
X40565Y-42834D01*
X40435Y-42834D01*
X40314Y-42883D01*
X40222Y-42975D01*
X40172Y-43096D01*
X40172Y-43226D01*
X40222Y-43346D01*
X40314Y-43438D01*
X40434Y-43488D01*
X40564Y-43488D01*
X40685Y-43438D01*
X40777Y-43346D01*
X40827Y-43226D01*
X40827Y-43096D01*
X40827Y-43815D01*
X40826Y-43815D01*
X40750Y-43800D01*
X40500Y-43800D01*
X40423Y-43815D01*
X40358Y-43858D01*
X40108Y-44108D01*
X40065Y-44173D01*
X40050Y-44250D01*
X40050Y-44275D01*
X39995Y-44329D01*
X39950Y-44440D01*
X39949Y-44559D01*
X39995Y-44669D01*
X40079Y-44754D01*
X40190Y-44799D01*
X40309Y-44800D01*
X40419Y-44754D01*
X40500Y-44674D01*
X40579Y-44754D01*
X40690Y-44799D01*
X40809Y-44800D01*
X40919Y-44754D01*
X40974Y-44700D01*
X41917Y-44700D01*
X43550Y-46332D01*
X43550Y-47786D01*
X43464Y-47822D01*
X43354Y-47932D01*
X43354Y-47845D01*
X43316Y-47754D01*
X43245Y-47683D01*
X43154Y-47645D01*
X43054Y-47645D01*
X42345Y-47645D01*
X42254Y-47683D01*
X42183Y-47754D01*
X42145Y-47845D01*
X42145Y-47945D01*
X42145Y-48654D01*
X42183Y-48745D01*
X42254Y-48816D01*
X42275Y-48825D01*
X40827Y-48825D01*
X40827Y-45773D01*
X40777Y-45653D01*
X40685Y-45561D01*
X40565Y-45511D01*
X40435Y-45511D01*
X40314Y-45561D01*
X40222Y-45653D01*
X40172Y-45773D01*
X40172Y-45903D01*
X40222Y-46023D01*
X40314Y-46115D01*
X40434Y-46165D01*
X40564Y-46165D01*
X40685Y-46116D01*
X40777Y-46024D01*
X40827Y-45903D01*
X40827Y-45773D01*
X40827Y-48825D01*
X39675Y-48825D01*
X39675Y-40175D01*
X42275Y-40175D01*
X42254Y-40183D01*
X42183Y-40254D01*
X42145Y-40345D01*
X42145Y-40445D01*
X42145Y-41154D01*
X42183Y-41245D01*
X42254Y-41316D01*
X42345Y-41354D01*
X42445Y-41354D01*
X43154Y-41354D01*
X43245Y-41316D01*
X43316Y-41245D01*
X43354Y-41154D01*
X43354Y-41067D01*
X43463Y-41177D01*
X43550Y-41213D01*
X43550Y-41417D01*
X43417Y-41550D01*
X42500Y-41550D01*
X42423Y-41565D01*
X42358Y-41608D01*
X41767Y-42200D01*
X41690Y-42199D01*
X41580Y-42245D01*
X41495Y-42329D01*
X41450Y-42440D01*
X41449Y-42559D01*
X41495Y-42669D01*
X41579Y-42754D01*
X41690Y-42799D01*
X41809Y-42800D01*
X41919Y-42754D01*
X42004Y-42670D01*
X42049Y-42559D01*
X42050Y-42482D01*
X42582Y-41950D01*
X43500Y-41950D01*
X43576Y-41934D01*
X43641Y-41891D01*
X43891Y-41641D01*
X43891Y-41641D01*
X43934Y-41576D01*
X43950Y-41500D01*
X43950Y-41213D01*
X44035Y-41177D01*
X44177Y-41036D01*
X44193Y-40997D01*
X44223Y-41070D01*
X44324Y-41104D01*
X44679Y-40750D01*
X44324Y-40395D01*
X44223Y-40429D01*
X44195Y-40507D01*
X44177Y-40464D01*
X44036Y-40322D01*
X43850Y-40245D01*
X43650Y-40245D01*
X43464Y-40322D01*
X43354Y-40432D01*
X43354Y-40345D01*
X43316Y-40254D01*
X43245Y-40183D01*
X43224Y-40175D01*
X44547Y-40175D01*
X44429Y-40223D01*
X44395Y-40324D01*
X44750Y-40679D01*
X45104Y-40324D01*
X45070Y-40223D01*
X44937Y-40175D01*
X49825Y-40175D01*
X49825Y-48825D01*
X49825Y-48825D01*
G37*
G54D20*
X49825Y-48825D02*
X49642Y-48825D01*
X49642Y-47872D01*
X49544Y-47636D01*
X49364Y-47455D01*
X49128Y-47357D01*
X48872Y-47357D01*
X48636Y-47455D01*
X48455Y-47635D01*
X48357Y-47871D01*
X48357Y-48127D01*
X48455Y-48363D01*
X48635Y-48544D01*
X48871Y-48642D01*
X49127Y-48642D01*
X49363Y-48544D01*
X49544Y-48364D01*
X49642Y-48128D01*
X49642Y-47872D01*
X49642Y-48825D01*
X44952Y-48825D01*
X45070Y-48776D01*
X45104Y-48675D01*
X44750Y-48320D01*
X44395Y-48675D01*
X44429Y-48776D01*
X44562Y-48825D01*
X43224Y-48825D01*
X43245Y-48816D01*
X43316Y-48745D01*
X43354Y-48654D01*
X43354Y-48567D01*
X43463Y-48677D01*
X43649Y-48754D01*
X43849Y-48754D01*
X44035Y-48677D01*
X44177Y-48536D01*
X44193Y-48497D01*
X44223Y-48570D01*
X44324Y-48604D01*
X44679Y-48250D01*
X44324Y-47895D01*
X44223Y-47929D01*
X44195Y-48007D01*
X44177Y-47964D01*
X44036Y-47822D01*
X43950Y-47786D01*
X43950Y-46332D01*
X45582Y-44700D01*
X46025Y-44700D01*
X46079Y-44754D01*
X46190Y-44799D01*
X46309Y-44800D01*
X46419Y-44754D01*
X46504Y-44670D01*
X46549Y-44559D01*
X46550Y-44500D01*
X46550Y-47786D01*
X46464Y-47822D01*
X46322Y-47963D01*
X46249Y-48139D01*
X46177Y-47964D01*
X46036Y-47822D01*
X45850Y-47745D01*
X45650Y-47745D01*
X45464Y-47822D01*
X45322Y-47963D01*
X45306Y-48002D01*
X45276Y-47929D01*
X45175Y-47895D01*
X45104Y-47966D01*
X45104Y-47824D01*
X45070Y-47723D01*
X44844Y-47641D01*
X44604Y-47651D01*
X44429Y-47723D01*
X44395Y-47824D01*
X44750Y-48179D01*
X45104Y-47824D01*
X45104Y-47966D01*
X44820Y-48250D01*
X45175Y-48604D01*
X45276Y-48570D01*
X45304Y-48492D01*
X45322Y-48535D01*
X45463Y-48677D01*
X45649Y-48754D01*
X45849Y-48754D01*
X46035Y-48677D01*
X46177Y-48536D01*
X46250Y-48360D01*
X46322Y-48535D01*
X46463Y-48677D01*
X46649Y-48754D01*
X46849Y-48754D01*
X47035Y-48677D01*
X47177Y-48536D01*
X47254Y-48350D01*
X47254Y-48150D01*
X47177Y-47964D01*
X47036Y-47822D01*
X46950Y-47786D01*
X46950Y-46309D01*
X46995Y-46419D01*
X47079Y-46504D01*
X47190Y-46549D01*
X47309Y-46550D01*
X47419Y-46504D01*
X47504Y-46420D01*
X47549Y-46309D01*
X47550Y-46190D01*
X47504Y-46080D01*
X47420Y-45995D01*
X47309Y-45950D01*
X47232Y-45949D01*
X47200Y-45917D01*
X47200Y-45250D01*
X47200Y-42582D01*
X47641Y-42141D01*
X47684Y-42076D01*
X47684Y-42076D01*
X47687Y-42063D01*
X47699Y-42000D01*
X47700Y-42000D01*
X47700Y-41474D01*
X47754Y-41420D01*
X47799Y-41309D01*
X47800Y-41190D01*
X47754Y-41080D01*
X47670Y-40995D01*
X47559Y-40950D01*
X47440Y-40949D01*
X47330Y-40995D01*
X47245Y-41079D01*
X47200Y-41190D01*
X47199Y-41309D01*
X47245Y-41419D01*
X47300Y-41474D01*
X47300Y-41690D01*
X47254Y-41580D01*
X47170Y-41495D01*
X47059Y-41450D01*
X46940Y-41449D01*
X46830Y-41495D01*
X46745Y-41579D01*
X46700Y-41690D01*
X46700Y-41749D01*
X46700Y-41582D01*
X46891Y-41391D01*
X46891Y-41391D01*
X46934Y-41326D01*
X46950Y-41250D01*
X46950Y-41213D01*
X47035Y-41177D01*
X47177Y-41036D01*
X47254Y-40850D01*
X47254Y-40650D01*
X47177Y-40464D01*
X47036Y-40322D01*
X46850Y-40245D01*
X46650Y-40245D01*
X46464Y-40322D01*
X46322Y-40463D01*
X46249Y-40639D01*
X46177Y-40464D01*
X46036Y-40322D01*
X45850Y-40245D01*
X45650Y-40245D01*
X45464Y-40322D01*
X45322Y-40463D01*
X45306Y-40502D01*
X45276Y-40429D01*
X45175Y-40395D01*
X44820Y-40750D01*
X45175Y-41104D01*
X45276Y-41070D01*
X45304Y-40992D01*
X45322Y-41035D01*
X45463Y-41177D01*
X45649Y-41254D01*
X45849Y-41254D01*
X46035Y-41177D01*
X46177Y-41036D01*
X46250Y-40860D01*
X46322Y-41035D01*
X46463Y-41177D01*
X46517Y-41199D01*
X46358Y-41358D01*
X46315Y-41423D01*
X46300Y-41500D01*
X46300Y-43417D01*
X45667Y-44050D01*
X45250Y-44050D01*
X45173Y-44065D01*
X45108Y-44108D01*
X45104Y-44112D01*
X45104Y-41175D01*
X44750Y-40820D01*
X44395Y-41175D01*
X44429Y-41276D01*
X44655Y-41358D01*
X44895Y-41348D01*
X45070Y-41276D01*
X45104Y-41175D01*
X45104Y-44112D01*
X43917Y-45300D01*
X43582Y-45300D01*
X42391Y-44108D01*
X42326Y-44065D01*
X42250Y-44050D01*
X41142Y-44050D01*
X41142Y-40872D01*
X41044Y-40636D01*
X40864Y-40455D01*
X40628Y-40357D01*
X40372Y-40357D01*
X40136Y-40455D01*
X39955Y-40635D01*
X39857Y-40871D01*
X39857Y-41127D01*
X39955Y-41363D01*
X40135Y-41544D01*
X40371Y-41642D01*
X40627Y-41642D01*
X40863Y-41544D01*
X41044Y-41364D01*
X41142Y-41128D01*
X41142Y-40872D01*
X41142Y-44050D01*
X41082Y-44050D01*
X40891Y-43858D01*
X40827Y-43815D01*
X40827Y-43096D01*
X40777Y-42976D01*
X40685Y-42884D01*
X40565Y-42834D01*
X40435Y-42834D01*
X40314Y-42883D01*
X40222Y-42975D01*
X40172Y-43096D01*
X40172Y-43226D01*
X40222Y-43346D01*
X40314Y-43438D01*
X40434Y-43488D01*
X40564Y-43488D01*
X40685Y-43438D01*
X40777Y-43346D01*
X40827Y-43226D01*
X40827Y-43096D01*
X40827Y-43815D01*
X40826Y-43815D01*
X40750Y-43800D01*
X40500Y-43800D01*
X40423Y-43815D01*
X40358Y-43858D01*
X40108Y-44108D01*
X40065Y-44173D01*
X40050Y-44250D01*
X40050Y-44275D01*
X39995Y-44329D01*
X39950Y-44440D01*
X39949Y-44559D01*
X39995Y-44669D01*
X40079Y-44754D01*
X40190Y-44799D01*
X40309Y-44800D01*
X40419Y-44754D01*
X40500Y-44674D01*
X40579Y-44754D01*
X40690Y-44799D01*
X40809Y-44800D01*
X40919Y-44754D01*
X40974Y-44700D01*
X41917Y-44700D01*
X43550Y-46332D01*
X43550Y-47786D01*
X43464Y-47822D01*
X43354Y-47932D01*
X43354Y-47845D01*
X43316Y-47754D01*
X43245Y-47683D01*
X43154Y-47645D01*
X43054Y-47645D01*
X42345Y-47645D01*
X42254Y-47683D01*
X42183Y-47754D01*
X42145Y-47845D01*
X42145Y-47945D01*
X42145Y-48654D01*
X42183Y-48745D01*
X42254Y-48816D01*
X42275Y-48825D01*
X40827Y-48825D01*
X40827Y-45773D01*
X40777Y-45653D01*
X40685Y-45561D01*
X40565Y-45511D01*
X40435Y-45511D01*
X40314Y-45561D01*
X40222Y-45653D01*
X40172Y-45773D01*
X40172Y-45903D01*
X40222Y-46023D01*
X40314Y-46115D01*
X40434Y-46165D01*
X40564Y-46165D01*
X40685Y-46116D01*
X40777Y-46024D01*
X40827Y-45903D01*
X40827Y-45773D01*
X40827Y-48825D01*
X39675Y-48825D01*
X39675Y-40175D01*
X42275Y-40175D01*
X42254Y-40183D01*
X42183Y-40254D01*
X42145Y-40345D01*
X42145Y-40445D01*
X42145Y-41154D01*
X42183Y-41245D01*
X42254Y-41316D01*
X42345Y-41354D01*
X42445Y-41354D01*
X43154Y-41354D01*
X43245Y-41316D01*
X43316Y-41245D01*
X43354Y-41154D01*
X43354Y-41067D01*
X43463Y-41177D01*
X43550Y-41213D01*
X43550Y-41417D01*
X43417Y-41550D01*
X42500Y-41550D01*
X42423Y-41565D01*
X42358Y-41608D01*
X41767Y-42200D01*
X41690Y-42199D01*
X41580Y-42245D01*
X41495Y-42329D01*
X41450Y-42440D01*
X41449Y-42559D01*
X41495Y-42669D01*
X41579Y-42754D01*
X41690Y-42799D01*
X41809Y-42800D01*
X41919Y-42754D01*
X42004Y-42670D01*
X42049Y-42559D01*
X42050Y-42482D01*
X42582Y-41950D01*
X43500Y-41950D01*
X43576Y-41934D01*
X43641Y-41891D01*
X43891Y-41641D01*
X43891Y-41641D01*
X43934Y-41576D01*
X43950Y-41500D01*
X43950Y-41213D01*
X44035Y-41177D01*
X44177Y-41036D01*
X44193Y-40997D01*
X44223Y-41070D01*
X44324Y-41104D01*
X44679Y-40750D01*
X44324Y-40395D01*
X44223Y-40429D01*
X44195Y-40507D01*
X44177Y-40464D01*
X44036Y-40322D01*
X43850Y-40245D01*
X43650Y-40245D01*
X43464Y-40322D01*
X43354Y-40432D01*
X43354Y-40345D01*
X43316Y-40254D01*
X43245Y-40183D01*
X43224Y-40175D01*
X44547Y-40175D01*
X44429Y-40223D01*
X44395Y-40324D01*
X44750Y-40679D01*
X45104Y-40324D01*
X45070Y-40223D01*
X44937Y-40175D01*
X49825Y-40175D01*
X49825Y-48825D01*
G54D10*
G36*
X39325Y-66825D02*
X39142Y-66825D01*
X39142Y-65872D01*
X39044Y-65636D01*
X38864Y-65455D01*
X38628Y-65357D01*
X38372Y-65357D01*
X38136Y-65455D01*
X37955Y-65635D01*
X37857Y-65871D01*
X37857Y-66127D01*
X37955Y-66363D01*
X38135Y-66544D01*
X38371Y-66642D01*
X38627Y-66642D01*
X38863Y-66544D01*
X39044Y-66364D01*
X39142Y-66128D01*
X39142Y-65872D01*
X39142Y-66825D01*
X34452Y-66825D01*
X34570Y-66776D01*
X34604Y-66675D01*
X34250Y-66320D01*
X33895Y-66675D01*
X33929Y-66776D01*
X34062Y-66825D01*
X32724Y-66825D01*
X32745Y-66816D01*
X32816Y-66745D01*
X32854Y-66654D01*
X32854Y-66567D01*
X32963Y-66677D01*
X33149Y-66754D01*
X33349Y-66754D01*
X33535Y-66677D01*
X33677Y-66536D01*
X33693Y-66497D01*
X33723Y-66570D01*
X33824Y-66604D01*
X34179Y-66250D01*
X33824Y-65895D01*
X33723Y-65929D01*
X33695Y-66007D01*
X33677Y-65964D01*
X33536Y-65822D01*
X33450Y-65786D01*
X33450Y-64332D01*
X35082Y-62700D01*
X35525Y-62700D01*
X35579Y-62754D01*
X35690Y-62799D01*
X35809Y-62800D01*
X35919Y-62754D01*
X36004Y-62670D01*
X36049Y-62559D01*
X36050Y-62500D01*
X36050Y-65786D01*
X35964Y-65822D01*
X35822Y-65963D01*
X35749Y-66139D01*
X35677Y-65964D01*
X35536Y-65822D01*
X35350Y-65745D01*
X35150Y-65745D01*
X34964Y-65822D01*
X34822Y-65963D01*
X34806Y-66002D01*
X34776Y-65929D01*
X34675Y-65895D01*
X34604Y-65966D01*
X34604Y-65824D01*
X34570Y-65723D01*
X34344Y-65641D01*
X34104Y-65651D01*
X33929Y-65723D01*
X33895Y-65824D01*
X34250Y-66179D01*
X34604Y-65824D01*
X34604Y-65966D01*
X34320Y-66250D01*
X34675Y-66604D01*
X34776Y-66570D01*
X34804Y-66492D01*
X34822Y-66535D01*
X34963Y-66677D01*
X35149Y-66754D01*
X35349Y-66754D01*
X35535Y-66677D01*
X35677Y-66536D01*
X35750Y-66360D01*
X35822Y-66535D01*
X35963Y-66677D01*
X36149Y-66754D01*
X36349Y-66754D01*
X36535Y-66677D01*
X36677Y-66536D01*
X36754Y-66350D01*
X36754Y-66150D01*
X36677Y-65964D01*
X36536Y-65822D01*
X36450Y-65786D01*
X36450Y-64309D01*
X36495Y-64419D01*
X36579Y-64504D01*
X36690Y-64549D01*
X36809Y-64550D01*
X36919Y-64504D01*
X37004Y-64420D01*
X37049Y-64309D01*
X37050Y-64190D01*
X37004Y-64080D01*
X36920Y-63995D01*
X36809Y-63950D01*
X36732Y-63949D01*
X36700Y-63917D01*
X36700Y-63250D01*
X36700Y-60582D01*
X37141Y-60141D01*
X37184Y-60076D01*
X37184Y-60076D01*
X37187Y-60063D01*
X37199Y-60000D01*
X37200Y-60000D01*
X37200Y-59474D01*
X37254Y-59420D01*
X37299Y-59309D01*
X37300Y-59190D01*
X37254Y-59080D01*
X37170Y-58995D01*
X37059Y-58950D01*
X36940Y-58949D01*
X36830Y-58995D01*
X36745Y-59079D01*
X36700Y-59190D01*
X36699Y-59309D01*
X36745Y-59419D01*
X36800Y-59474D01*
X36800Y-59690D01*
X36754Y-59580D01*
X36670Y-59495D01*
X36559Y-59450D01*
X36440Y-59449D01*
X36330Y-59495D01*
X36245Y-59579D01*
X36200Y-59690D01*
X36200Y-59749D01*
X36200Y-59582D01*
X36391Y-59391D01*
X36391Y-59391D01*
X36434Y-59326D01*
X36450Y-59250D01*
X36450Y-59213D01*
X36535Y-59177D01*
X36677Y-59036D01*
X36754Y-58850D01*
X36754Y-58650D01*
X36677Y-58464D01*
X36536Y-58322D01*
X36350Y-58245D01*
X36150Y-58245D01*
X35964Y-58322D01*
X35822Y-58463D01*
X35749Y-58639D01*
X35677Y-58464D01*
X35536Y-58322D01*
X35350Y-58245D01*
X35150Y-58245D01*
X34964Y-58322D01*
X34822Y-58463D01*
X34806Y-58502D01*
X34776Y-58429D01*
X34675Y-58395D01*
X34320Y-58750D01*
X34675Y-59104D01*
X34776Y-59070D01*
X34804Y-58992D01*
X34822Y-59035D01*
X34963Y-59177D01*
X35149Y-59254D01*
X35349Y-59254D01*
X35535Y-59177D01*
X35677Y-59036D01*
X35750Y-58860D01*
X35822Y-59035D01*
X35963Y-59177D01*
X36017Y-59199D01*
X35858Y-59358D01*
X35815Y-59423D01*
X35800Y-59500D01*
X35800Y-61417D01*
X35167Y-62050D01*
X34750Y-62050D01*
X34673Y-62065D01*
X34608Y-62108D01*
X34604Y-62112D01*
X34604Y-59175D01*
X34250Y-58820D01*
X33895Y-59175D01*
X33929Y-59276D01*
X34155Y-59358D01*
X34395Y-59348D01*
X34570Y-59276D01*
X34604Y-59175D01*
X34604Y-62112D01*
X33417Y-63300D01*
X33082Y-63300D01*
X31891Y-62108D01*
X31826Y-62065D01*
X31750Y-62050D01*
X30642Y-62050D01*
X30642Y-58872D01*
X30544Y-58636D01*
X30364Y-58455D01*
X30128Y-58357D01*
X29872Y-58357D01*
X29636Y-58455D01*
X29455Y-58635D01*
X29357Y-58871D01*
X29357Y-59127D01*
X29455Y-59363D01*
X29635Y-59544D01*
X29871Y-59642D01*
X30127Y-59642D01*
X30363Y-59544D01*
X30544Y-59364D01*
X30642Y-59128D01*
X30642Y-58872D01*
X30642Y-62050D01*
X30582Y-62050D01*
X30391Y-61858D01*
X30327Y-61815D01*
X30327Y-61096D01*
X30277Y-60976D01*
X30185Y-60884D01*
X30065Y-60834D01*
X29935Y-60834D01*
X29814Y-60883D01*
X29722Y-60975D01*
X29672Y-61096D01*
X29672Y-61226D01*
X29722Y-61346D01*
X29814Y-61438D01*
X29934Y-61488D01*
X30064Y-61488D01*
X30185Y-61438D01*
X30277Y-61346D01*
X30327Y-61226D01*
X30327Y-61096D01*
X30327Y-61815D01*
X30326Y-61815D01*
X30250Y-61800D01*
X30000Y-61800D01*
X29923Y-61815D01*
X29858Y-61858D01*
X29608Y-62108D01*
X29565Y-62173D01*
X29550Y-62250D01*
X29550Y-62275D01*
X29495Y-62329D01*
X29450Y-62440D01*
X29449Y-62559D01*
X29495Y-62669D01*
X29579Y-62754D01*
X29690Y-62799D01*
X29809Y-62800D01*
X29919Y-62754D01*
X30000Y-62674D01*
X30079Y-62754D01*
X30190Y-62799D01*
X30309Y-62800D01*
X30419Y-62754D01*
X30474Y-62700D01*
X31417Y-62700D01*
X33050Y-64332D01*
X33050Y-65786D01*
X32964Y-65822D01*
X32854Y-65932D01*
X32854Y-65845D01*
X32816Y-65754D01*
X32745Y-65683D01*
X32654Y-65645D01*
X32554Y-65645D01*
X31845Y-65645D01*
X31754Y-65683D01*
X31683Y-65754D01*
X31645Y-65845D01*
X31645Y-65945D01*
X31645Y-66654D01*
X31683Y-66745D01*
X31754Y-66816D01*
X31775Y-66825D01*
X30327Y-66825D01*
X30327Y-63773D01*
X30277Y-63653D01*
X30185Y-63561D01*
X30065Y-63511D01*
X29935Y-63511D01*
X29814Y-63561D01*
X29722Y-63653D01*
X29672Y-63773D01*
X29672Y-63903D01*
X29722Y-64023D01*
X29814Y-64115D01*
X29934Y-64165D01*
X30064Y-64165D01*
X30185Y-64116D01*
X30277Y-64024D01*
X30327Y-63903D01*
X30327Y-63773D01*
X30327Y-66825D01*
X29175Y-66825D01*
X29175Y-58175D01*
X31775Y-58175D01*
X31754Y-58183D01*
X31683Y-58254D01*
X31645Y-58345D01*
X31645Y-58445D01*
X31645Y-59154D01*
X31683Y-59245D01*
X31754Y-59316D01*
X31845Y-59354D01*
X31945Y-59354D01*
X32654Y-59354D01*
X32745Y-59316D01*
X32816Y-59245D01*
X32854Y-59154D01*
X32854Y-59067D01*
X32963Y-59177D01*
X33050Y-59213D01*
X33050Y-59417D01*
X32917Y-59550D01*
X32000Y-59550D01*
X31923Y-59565D01*
X31858Y-59608D01*
X31267Y-60200D01*
X31190Y-60199D01*
X31080Y-60245D01*
X30995Y-60329D01*
X30950Y-60440D01*
X30949Y-60559D01*
X30995Y-60669D01*
X31079Y-60754D01*
X31190Y-60799D01*
X31309Y-60800D01*
X31419Y-60754D01*
X31504Y-60670D01*
X31549Y-60559D01*
X31550Y-60482D01*
X32082Y-59950D01*
X33000Y-59950D01*
X33076Y-59934D01*
X33141Y-59891D01*
X33391Y-59641D01*
X33391Y-59641D01*
X33434Y-59576D01*
X33450Y-59500D01*
X33450Y-59213D01*
X33535Y-59177D01*
X33677Y-59036D01*
X33693Y-58997D01*
X33723Y-59070D01*
X33824Y-59104D01*
X34179Y-58750D01*
X33824Y-58395D01*
X33723Y-58429D01*
X33695Y-58507D01*
X33677Y-58464D01*
X33536Y-58322D01*
X33350Y-58245D01*
X33150Y-58245D01*
X32964Y-58322D01*
X32854Y-58432D01*
X32854Y-58345D01*
X32816Y-58254D01*
X32745Y-58183D01*
X32724Y-58175D01*
X34047Y-58175D01*
X33929Y-58223D01*
X33895Y-58324D01*
X34250Y-58679D01*
X34604Y-58324D01*
X34570Y-58223D01*
X34437Y-58175D01*
X39325Y-58175D01*
X39325Y-66825D01*
X39325Y-66825D01*
G37*
G54D20*
X39325Y-66825D02*
X39142Y-66825D01*
X39142Y-65872D01*
X39044Y-65636D01*
X38864Y-65455D01*
X38628Y-65357D01*
X38372Y-65357D01*
X38136Y-65455D01*
X37955Y-65635D01*
X37857Y-65871D01*
X37857Y-66127D01*
X37955Y-66363D01*
X38135Y-66544D01*
X38371Y-66642D01*
X38627Y-66642D01*
X38863Y-66544D01*
X39044Y-66364D01*
X39142Y-66128D01*
X39142Y-65872D01*
X39142Y-66825D01*
X34452Y-66825D01*
X34570Y-66776D01*
X34604Y-66675D01*
X34250Y-66320D01*
X33895Y-66675D01*
X33929Y-66776D01*
X34062Y-66825D01*
X32724Y-66825D01*
X32745Y-66816D01*
X32816Y-66745D01*
X32854Y-66654D01*
X32854Y-66567D01*
X32963Y-66677D01*
X33149Y-66754D01*
X33349Y-66754D01*
X33535Y-66677D01*
X33677Y-66536D01*
X33693Y-66497D01*
X33723Y-66570D01*
X33824Y-66604D01*
X34179Y-66250D01*
X33824Y-65895D01*
X33723Y-65929D01*
X33695Y-66007D01*
X33677Y-65964D01*
X33536Y-65822D01*
X33450Y-65786D01*
X33450Y-64332D01*
X35082Y-62700D01*
X35525Y-62700D01*
X35579Y-62754D01*
X35690Y-62799D01*
X35809Y-62800D01*
X35919Y-62754D01*
X36004Y-62670D01*
X36049Y-62559D01*
X36050Y-62500D01*
X36050Y-65786D01*
X35964Y-65822D01*
X35822Y-65963D01*
X35749Y-66139D01*
X35677Y-65964D01*
X35536Y-65822D01*
X35350Y-65745D01*
X35150Y-65745D01*
X34964Y-65822D01*
X34822Y-65963D01*
X34806Y-66002D01*
X34776Y-65929D01*
X34675Y-65895D01*
X34604Y-65966D01*
X34604Y-65824D01*
X34570Y-65723D01*
X34344Y-65641D01*
X34104Y-65651D01*
X33929Y-65723D01*
X33895Y-65824D01*
X34250Y-66179D01*
X34604Y-65824D01*
X34604Y-65966D01*
X34320Y-66250D01*
X34675Y-66604D01*
X34776Y-66570D01*
X34804Y-66492D01*
X34822Y-66535D01*
X34963Y-66677D01*
X35149Y-66754D01*
X35349Y-66754D01*
X35535Y-66677D01*
X35677Y-66536D01*
X35750Y-66360D01*
X35822Y-66535D01*
X35963Y-66677D01*
X36149Y-66754D01*
X36349Y-66754D01*
X36535Y-66677D01*
X36677Y-66536D01*
X36754Y-66350D01*
X36754Y-66150D01*
X36677Y-65964D01*
X36536Y-65822D01*
X36450Y-65786D01*
X36450Y-64309D01*
X36495Y-64419D01*
X36579Y-64504D01*
X36690Y-64549D01*
X36809Y-64550D01*
X36919Y-64504D01*
X37004Y-64420D01*
X37049Y-64309D01*
X37050Y-64190D01*
X37004Y-64080D01*
X36920Y-63995D01*
X36809Y-63950D01*
X36732Y-63949D01*
X36700Y-63917D01*
X36700Y-63250D01*
X36700Y-60582D01*
X37141Y-60141D01*
X37184Y-60076D01*
X37184Y-60076D01*
X37187Y-60063D01*
X37199Y-60000D01*
X37200Y-60000D01*
X37200Y-59474D01*
X37254Y-59420D01*
X37299Y-59309D01*
X37300Y-59190D01*
X37254Y-59080D01*
X37170Y-58995D01*
X37059Y-58950D01*
X36940Y-58949D01*
X36830Y-58995D01*
X36745Y-59079D01*
X36700Y-59190D01*
X36699Y-59309D01*
X36745Y-59419D01*
X36800Y-59474D01*
X36800Y-59690D01*
X36754Y-59580D01*
X36670Y-59495D01*
X36559Y-59450D01*
X36440Y-59449D01*
X36330Y-59495D01*
X36245Y-59579D01*
X36200Y-59690D01*
X36200Y-59749D01*
X36200Y-59582D01*
X36391Y-59391D01*
X36391Y-59391D01*
X36434Y-59326D01*
X36450Y-59250D01*
X36450Y-59213D01*
X36535Y-59177D01*
X36677Y-59036D01*
X36754Y-58850D01*
X36754Y-58650D01*
X36677Y-58464D01*
X36536Y-58322D01*
X36350Y-58245D01*
X36150Y-58245D01*
X35964Y-58322D01*
X35822Y-58463D01*
X35749Y-58639D01*
X35677Y-58464D01*
X35536Y-58322D01*
X35350Y-58245D01*
X35150Y-58245D01*
X34964Y-58322D01*
X34822Y-58463D01*
X34806Y-58502D01*
X34776Y-58429D01*
X34675Y-58395D01*
X34320Y-58750D01*
X34675Y-59104D01*
X34776Y-59070D01*
X34804Y-58992D01*
X34822Y-59035D01*
X34963Y-59177D01*
X35149Y-59254D01*
X35349Y-59254D01*
X35535Y-59177D01*
X35677Y-59036D01*
X35750Y-58860D01*
X35822Y-59035D01*
X35963Y-59177D01*
X36017Y-59199D01*
X35858Y-59358D01*
X35815Y-59423D01*
X35800Y-59500D01*
X35800Y-61417D01*
X35167Y-62050D01*
X34750Y-62050D01*
X34673Y-62065D01*
X34608Y-62108D01*
X34604Y-62112D01*
X34604Y-59175D01*
X34250Y-58820D01*
X33895Y-59175D01*
X33929Y-59276D01*
X34155Y-59358D01*
X34395Y-59348D01*
X34570Y-59276D01*
X34604Y-59175D01*
X34604Y-62112D01*
X33417Y-63300D01*
X33082Y-63300D01*
X31891Y-62108D01*
X31826Y-62065D01*
X31750Y-62050D01*
X30642Y-62050D01*
X30642Y-58872D01*
X30544Y-58636D01*
X30364Y-58455D01*
X30128Y-58357D01*
X29872Y-58357D01*
X29636Y-58455D01*
X29455Y-58635D01*
X29357Y-58871D01*
X29357Y-59127D01*
X29455Y-59363D01*
X29635Y-59544D01*
X29871Y-59642D01*
X30127Y-59642D01*
X30363Y-59544D01*
X30544Y-59364D01*
X30642Y-59128D01*
X30642Y-58872D01*
X30642Y-62050D01*
X30582Y-62050D01*
X30391Y-61858D01*
X30327Y-61815D01*
X30327Y-61096D01*
X30277Y-60976D01*
X30185Y-60884D01*
X30065Y-60834D01*
X29935Y-60834D01*
X29814Y-60883D01*
X29722Y-60975D01*
X29672Y-61096D01*
X29672Y-61226D01*
X29722Y-61346D01*
X29814Y-61438D01*
X29934Y-61488D01*
X30064Y-61488D01*
X30185Y-61438D01*
X30277Y-61346D01*
X30327Y-61226D01*
X30327Y-61096D01*
X30327Y-61815D01*
X30326Y-61815D01*
X30250Y-61800D01*
X30000Y-61800D01*
X29923Y-61815D01*
X29858Y-61858D01*
X29608Y-62108D01*
X29565Y-62173D01*
X29550Y-62250D01*
X29550Y-62275D01*
X29495Y-62329D01*
X29450Y-62440D01*
X29449Y-62559D01*
X29495Y-62669D01*
X29579Y-62754D01*
X29690Y-62799D01*
X29809Y-62800D01*
X29919Y-62754D01*
X30000Y-62674D01*
X30079Y-62754D01*
X30190Y-62799D01*
X30309Y-62800D01*
X30419Y-62754D01*
X30474Y-62700D01*
X31417Y-62700D01*
X33050Y-64332D01*
X33050Y-65786D01*
X32964Y-65822D01*
X32854Y-65932D01*
X32854Y-65845D01*
X32816Y-65754D01*
X32745Y-65683D01*
X32654Y-65645D01*
X32554Y-65645D01*
X31845Y-65645D01*
X31754Y-65683D01*
X31683Y-65754D01*
X31645Y-65845D01*
X31645Y-65945D01*
X31645Y-66654D01*
X31683Y-66745D01*
X31754Y-66816D01*
X31775Y-66825D01*
X30327Y-66825D01*
X30327Y-63773D01*
X30277Y-63653D01*
X30185Y-63561D01*
X30065Y-63511D01*
X29935Y-63511D01*
X29814Y-63561D01*
X29722Y-63653D01*
X29672Y-63773D01*
X29672Y-63903D01*
X29722Y-64023D01*
X29814Y-64115D01*
X29934Y-64165D01*
X30064Y-64165D01*
X30185Y-64116D01*
X30277Y-64024D01*
X30327Y-63903D01*
X30327Y-63773D01*
X30327Y-66825D01*
X29175Y-66825D01*
X29175Y-58175D01*
X31775Y-58175D01*
X31754Y-58183D01*
X31683Y-58254D01*
X31645Y-58345D01*
X31645Y-58445D01*
X31645Y-59154D01*
X31683Y-59245D01*
X31754Y-59316D01*
X31845Y-59354D01*
X31945Y-59354D01*
X32654Y-59354D01*
X32745Y-59316D01*
X32816Y-59245D01*
X32854Y-59154D01*
X32854Y-59067D01*
X32963Y-59177D01*
X33050Y-59213D01*
X33050Y-59417D01*
X32917Y-59550D01*
X32000Y-59550D01*
X31923Y-59565D01*
X31858Y-59608D01*
X31267Y-60200D01*
X31190Y-60199D01*
X31080Y-60245D01*
X30995Y-60329D01*
X30950Y-60440D01*
X30949Y-60559D01*
X30995Y-60669D01*
X31079Y-60754D01*
X31190Y-60799D01*
X31309Y-60800D01*
X31419Y-60754D01*
X31504Y-60670D01*
X31549Y-60559D01*
X31550Y-60482D01*
X32082Y-59950D01*
X33000Y-59950D01*
X33076Y-59934D01*
X33141Y-59891D01*
X33391Y-59641D01*
X33391Y-59641D01*
X33434Y-59576D01*
X33450Y-59500D01*
X33450Y-59213D01*
X33535Y-59177D01*
X33677Y-59036D01*
X33693Y-58997D01*
X33723Y-59070D01*
X33824Y-59104D01*
X34179Y-58750D01*
X33824Y-58395D01*
X33723Y-58429D01*
X33695Y-58507D01*
X33677Y-58464D01*
X33536Y-58322D01*
X33350Y-58245D01*
X33150Y-58245D01*
X32964Y-58322D01*
X32854Y-58432D01*
X32854Y-58345D01*
X32816Y-58254D01*
X32745Y-58183D01*
X32724Y-58175D01*
X34047Y-58175D01*
X33929Y-58223D01*
X33895Y-58324D01*
X34250Y-58679D01*
X34604Y-58324D01*
X34570Y-58223D01*
X34437Y-58175D01*
X39325Y-58175D01*
X39325Y-66825D01*
G54D10*
G36*
X49825Y-66825D02*
X49642Y-66825D01*
X49642Y-65872D01*
X49544Y-65636D01*
X49364Y-65455D01*
X49128Y-65357D01*
X48872Y-65357D01*
X48636Y-65455D01*
X48455Y-65635D01*
X48357Y-65871D01*
X48357Y-66127D01*
X48455Y-66363D01*
X48635Y-66544D01*
X48871Y-66642D01*
X49127Y-66642D01*
X49363Y-66544D01*
X49544Y-66364D01*
X49642Y-66128D01*
X49642Y-65872D01*
X49642Y-66825D01*
X44952Y-66825D01*
X45070Y-66776D01*
X45104Y-66675D01*
X44750Y-66320D01*
X44395Y-66675D01*
X44429Y-66776D01*
X44562Y-66825D01*
X43224Y-66825D01*
X43245Y-66816D01*
X43316Y-66745D01*
X43354Y-66654D01*
X43354Y-66567D01*
X43463Y-66677D01*
X43649Y-66754D01*
X43849Y-66754D01*
X44035Y-66677D01*
X44177Y-66536D01*
X44193Y-66497D01*
X44223Y-66570D01*
X44324Y-66604D01*
X44679Y-66250D01*
X44324Y-65895D01*
X44223Y-65929D01*
X44195Y-66007D01*
X44177Y-65964D01*
X44036Y-65822D01*
X43950Y-65786D01*
X43950Y-64332D01*
X45582Y-62700D01*
X46025Y-62700D01*
X46079Y-62754D01*
X46190Y-62799D01*
X46309Y-62800D01*
X46419Y-62754D01*
X46504Y-62670D01*
X46549Y-62559D01*
X46550Y-62500D01*
X46550Y-65786D01*
X46464Y-65822D01*
X46322Y-65963D01*
X46249Y-66139D01*
X46177Y-65964D01*
X46036Y-65822D01*
X45850Y-65745D01*
X45650Y-65745D01*
X45464Y-65822D01*
X45322Y-65963D01*
X45306Y-66002D01*
X45276Y-65929D01*
X45175Y-65895D01*
X45104Y-65966D01*
X45104Y-65824D01*
X45070Y-65723D01*
X44844Y-65641D01*
X44604Y-65651D01*
X44429Y-65723D01*
X44395Y-65824D01*
X44750Y-66179D01*
X45104Y-65824D01*
X45104Y-65966D01*
X44820Y-66250D01*
X45175Y-66604D01*
X45276Y-66570D01*
X45304Y-66492D01*
X45322Y-66535D01*
X45463Y-66677D01*
X45649Y-66754D01*
X45849Y-66754D01*
X46035Y-66677D01*
X46177Y-66536D01*
X46250Y-66360D01*
X46322Y-66535D01*
X46463Y-66677D01*
X46649Y-66754D01*
X46849Y-66754D01*
X47035Y-66677D01*
X47177Y-66536D01*
X47254Y-66350D01*
X47254Y-66150D01*
X47177Y-65964D01*
X47036Y-65822D01*
X46950Y-65786D01*
X46950Y-64309D01*
X46995Y-64419D01*
X47079Y-64504D01*
X47190Y-64549D01*
X47309Y-64550D01*
X47419Y-64504D01*
X47504Y-64420D01*
X47549Y-64309D01*
X47550Y-64190D01*
X47504Y-64080D01*
X47420Y-63995D01*
X47309Y-63950D01*
X47232Y-63949D01*
X47200Y-63917D01*
X47200Y-63250D01*
X47200Y-60582D01*
X47641Y-60141D01*
X47684Y-60076D01*
X47684Y-60076D01*
X47687Y-60063D01*
X47699Y-60000D01*
X47700Y-60000D01*
X47700Y-59474D01*
X47754Y-59420D01*
X47799Y-59309D01*
X47800Y-59190D01*
X47754Y-59080D01*
X47670Y-58995D01*
X47559Y-58950D01*
X47440Y-58949D01*
X47330Y-58995D01*
X47245Y-59079D01*
X47200Y-59190D01*
X47199Y-59309D01*
X47245Y-59419D01*
X47300Y-59474D01*
X47300Y-59690D01*
X47254Y-59580D01*
X47170Y-59495D01*
X47059Y-59450D01*
X46940Y-59449D01*
X46830Y-59495D01*
X46745Y-59579D01*
X46700Y-59690D01*
X46700Y-59749D01*
X46700Y-59582D01*
X46891Y-59391D01*
X46891Y-59391D01*
X46934Y-59326D01*
X46950Y-59250D01*
X46950Y-59213D01*
X47035Y-59177D01*
X47177Y-59036D01*
X47254Y-58850D01*
X47254Y-58650D01*
X47177Y-58464D01*
X47036Y-58322D01*
X46850Y-58245D01*
X46650Y-58245D01*
X46464Y-58322D01*
X46322Y-58463D01*
X46249Y-58639D01*
X46177Y-58464D01*
X46036Y-58322D01*
X45850Y-58245D01*
X45650Y-58245D01*
X45464Y-58322D01*
X45322Y-58463D01*
X45306Y-58502D01*
X45276Y-58429D01*
X45175Y-58395D01*
X44820Y-58750D01*
X45175Y-59104D01*
X45276Y-59070D01*
X45304Y-58992D01*
X45322Y-59035D01*
X45463Y-59177D01*
X45649Y-59254D01*
X45849Y-59254D01*
X46035Y-59177D01*
X46177Y-59036D01*
X46250Y-58860D01*
X46322Y-59035D01*
X46463Y-59177D01*
X46517Y-59199D01*
X46358Y-59358D01*
X46315Y-59423D01*
X46300Y-59500D01*
X46300Y-61417D01*
X45667Y-62050D01*
X45250Y-62050D01*
X45173Y-62065D01*
X45108Y-62108D01*
X45104Y-62112D01*
X45104Y-59175D01*
X44750Y-58820D01*
X44395Y-59175D01*
X44429Y-59276D01*
X44655Y-59358D01*
X44895Y-59348D01*
X45070Y-59276D01*
X45104Y-59175D01*
X45104Y-62112D01*
X43917Y-63300D01*
X43582Y-63300D01*
X42391Y-62108D01*
X42326Y-62065D01*
X42250Y-62050D01*
X41142Y-62050D01*
X41142Y-58872D01*
X41044Y-58636D01*
X40864Y-58455D01*
X40628Y-58357D01*
X40372Y-58357D01*
X40136Y-58455D01*
X39955Y-58635D01*
X39857Y-58871D01*
X39857Y-59127D01*
X39955Y-59363D01*
X40135Y-59544D01*
X40371Y-59642D01*
X40627Y-59642D01*
X40863Y-59544D01*
X41044Y-59364D01*
X41142Y-59128D01*
X41142Y-58872D01*
X41142Y-62050D01*
X41082Y-62050D01*
X40891Y-61858D01*
X40827Y-61815D01*
X40827Y-61096D01*
X40777Y-60976D01*
X40685Y-60884D01*
X40565Y-60834D01*
X40435Y-60834D01*
X40314Y-60883D01*
X40222Y-60975D01*
X40172Y-61096D01*
X40172Y-61226D01*
X40222Y-61346D01*
X40314Y-61438D01*
X40434Y-61488D01*
X40564Y-61488D01*
X40685Y-61438D01*
X40777Y-61346D01*
X40827Y-61226D01*
X40827Y-61096D01*
X40827Y-61815D01*
X40826Y-61815D01*
X40750Y-61800D01*
X40500Y-61800D01*
X40423Y-61815D01*
X40358Y-61858D01*
X40108Y-62108D01*
X40065Y-62173D01*
X40050Y-62250D01*
X40050Y-62275D01*
X39995Y-62329D01*
X39950Y-62440D01*
X39949Y-62559D01*
X39995Y-62669D01*
X40079Y-62754D01*
X40190Y-62799D01*
X40309Y-62800D01*
X40419Y-62754D01*
X40500Y-62674D01*
X40579Y-62754D01*
X40690Y-62799D01*
X40809Y-62800D01*
X40919Y-62754D01*
X40974Y-62700D01*
X41917Y-62700D01*
X43550Y-64332D01*
X43550Y-65786D01*
X43464Y-65822D01*
X43354Y-65932D01*
X43354Y-65845D01*
X43316Y-65754D01*
X43245Y-65683D01*
X43154Y-65645D01*
X43054Y-65645D01*
X42345Y-65645D01*
X42254Y-65683D01*
X42183Y-65754D01*
X42145Y-65845D01*
X42145Y-65945D01*
X42145Y-66654D01*
X42183Y-66745D01*
X42254Y-66816D01*
X42275Y-66825D01*
X40827Y-66825D01*
X40827Y-63773D01*
X40777Y-63653D01*
X40685Y-63561D01*
X40565Y-63511D01*
X40435Y-63511D01*
X40314Y-63561D01*
X40222Y-63653D01*
X40172Y-63773D01*
X40172Y-63903D01*
X40222Y-64023D01*
X40314Y-64115D01*
X40434Y-64165D01*
X40564Y-64165D01*
X40685Y-64116D01*
X40777Y-64024D01*
X40827Y-63903D01*
X40827Y-63773D01*
X40827Y-66825D01*
X39675Y-66825D01*
X39675Y-58175D01*
X42275Y-58175D01*
X42254Y-58183D01*
X42183Y-58254D01*
X42145Y-58345D01*
X42145Y-58445D01*
X42145Y-59154D01*
X42183Y-59245D01*
X42254Y-59316D01*
X42345Y-59354D01*
X42445Y-59354D01*
X43154Y-59354D01*
X43245Y-59316D01*
X43316Y-59245D01*
X43354Y-59154D01*
X43354Y-59067D01*
X43463Y-59177D01*
X43550Y-59213D01*
X43550Y-59417D01*
X43417Y-59550D01*
X42500Y-59550D01*
X42423Y-59565D01*
X42358Y-59608D01*
X41767Y-60200D01*
X41690Y-60199D01*
X41580Y-60245D01*
X41495Y-60329D01*
X41450Y-60440D01*
X41449Y-60559D01*
X41495Y-60669D01*
X41579Y-60754D01*
X41690Y-60799D01*
X41809Y-60800D01*
X41919Y-60754D01*
X42004Y-60670D01*
X42049Y-60559D01*
X42050Y-60482D01*
X42582Y-59950D01*
X43500Y-59950D01*
X43576Y-59934D01*
X43641Y-59891D01*
X43891Y-59641D01*
X43891Y-59641D01*
X43934Y-59576D01*
X43950Y-59500D01*
X43950Y-59213D01*
X44035Y-59177D01*
X44177Y-59036D01*
X44193Y-58997D01*
X44223Y-59070D01*
X44324Y-59104D01*
X44679Y-58750D01*
X44324Y-58395D01*
X44223Y-58429D01*
X44195Y-58507D01*
X44177Y-58464D01*
X44036Y-58322D01*
X43850Y-58245D01*
X43650Y-58245D01*
X43464Y-58322D01*
X43354Y-58432D01*
X43354Y-58345D01*
X43316Y-58254D01*
X43245Y-58183D01*
X43224Y-58175D01*
X44547Y-58175D01*
X44429Y-58223D01*
X44395Y-58324D01*
X44750Y-58679D01*
X45104Y-58324D01*
X45070Y-58223D01*
X44937Y-58175D01*
X49825Y-58175D01*
X49825Y-66825D01*
X49825Y-66825D01*
G37*
G54D20*
X49825Y-66825D02*
X49642Y-66825D01*
X49642Y-65872D01*
X49544Y-65636D01*
X49364Y-65455D01*
X49128Y-65357D01*
X48872Y-65357D01*
X48636Y-65455D01*
X48455Y-65635D01*
X48357Y-65871D01*
X48357Y-66127D01*
X48455Y-66363D01*
X48635Y-66544D01*
X48871Y-66642D01*
X49127Y-66642D01*
X49363Y-66544D01*
X49544Y-66364D01*
X49642Y-66128D01*
X49642Y-65872D01*
X49642Y-66825D01*
X44952Y-66825D01*
X45070Y-66776D01*
X45104Y-66675D01*
X44750Y-66320D01*
X44395Y-66675D01*
X44429Y-66776D01*
X44562Y-66825D01*
X43224Y-66825D01*
X43245Y-66816D01*
X43316Y-66745D01*
X43354Y-66654D01*
X43354Y-66567D01*
X43463Y-66677D01*
X43649Y-66754D01*
X43849Y-66754D01*
X44035Y-66677D01*
X44177Y-66536D01*
X44193Y-66497D01*
X44223Y-66570D01*
X44324Y-66604D01*
X44679Y-66250D01*
X44324Y-65895D01*
X44223Y-65929D01*
X44195Y-66007D01*
X44177Y-65964D01*
X44036Y-65822D01*
X43950Y-65786D01*
X43950Y-64332D01*
X45582Y-62700D01*
X46025Y-62700D01*
X46079Y-62754D01*
X46190Y-62799D01*
X46309Y-62800D01*
X46419Y-62754D01*
X46504Y-62670D01*
X46549Y-62559D01*
X46550Y-62500D01*
X46550Y-65786D01*
X46464Y-65822D01*
X46322Y-65963D01*
X46249Y-66139D01*
X46177Y-65964D01*
X46036Y-65822D01*
X45850Y-65745D01*
X45650Y-65745D01*
X45464Y-65822D01*
X45322Y-65963D01*
X45306Y-66002D01*
X45276Y-65929D01*
X45175Y-65895D01*
X45104Y-65966D01*
X45104Y-65824D01*
X45070Y-65723D01*
X44844Y-65641D01*
X44604Y-65651D01*
X44429Y-65723D01*
X44395Y-65824D01*
X44750Y-66179D01*
X45104Y-65824D01*
X45104Y-65966D01*
X44820Y-66250D01*
X45175Y-66604D01*
X45276Y-66570D01*
X45304Y-66492D01*
X45322Y-66535D01*
X45463Y-66677D01*
X45649Y-66754D01*
X45849Y-66754D01*
X46035Y-66677D01*
X46177Y-66536D01*
X46250Y-66360D01*
X46322Y-66535D01*
X46463Y-66677D01*
X46649Y-66754D01*
X46849Y-66754D01*
X47035Y-66677D01*
X47177Y-66536D01*
X47254Y-66350D01*
X47254Y-66150D01*
X47177Y-65964D01*
X47036Y-65822D01*
X46950Y-65786D01*
X46950Y-64309D01*
X46995Y-64419D01*
X47079Y-64504D01*
X47190Y-64549D01*
X47309Y-64550D01*
X47419Y-64504D01*
X47504Y-64420D01*
X47549Y-64309D01*
X47550Y-64190D01*
X47504Y-64080D01*
X47420Y-63995D01*
X47309Y-63950D01*
X47232Y-63949D01*
X47200Y-63917D01*
X47200Y-63250D01*
X47200Y-60582D01*
X47641Y-60141D01*
X47684Y-60076D01*
X47684Y-60076D01*
X47687Y-60063D01*
X47699Y-60000D01*
X47700Y-60000D01*
X47700Y-59474D01*
X47754Y-59420D01*
X47799Y-59309D01*
X47800Y-59190D01*
X47754Y-59080D01*
X47670Y-58995D01*
X47559Y-58950D01*
X47440Y-58949D01*
X47330Y-58995D01*
X47245Y-59079D01*
X47200Y-59190D01*
X47199Y-59309D01*
X47245Y-59419D01*
X47300Y-59474D01*
X47300Y-59690D01*
X47254Y-59580D01*
X47170Y-59495D01*
X47059Y-59450D01*
X46940Y-59449D01*
X46830Y-59495D01*
X46745Y-59579D01*
X46700Y-59690D01*
X46700Y-59749D01*
X46700Y-59582D01*
X46891Y-59391D01*
X46891Y-59391D01*
X46934Y-59326D01*
X46950Y-59250D01*
X46950Y-59213D01*
X47035Y-59177D01*
X47177Y-59036D01*
X47254Y-58850D01*
X47254Y-58650D01*
X47177Y-58464D01*
X47036Y-58322D01*
X46850Y-58245D01*
X46650Y-58245D01*
X46464Y-58322D01*
X46322Y-58463D01*
X46249Y-58639D01*
X46177Y-58464D01*
X46036Y-58322D01*
X45850Y-58245D01*
X45650Y-58245D01*
X45464Y-58322D01*
X45322Y-58463D01*
X45306Y-58502D01*
X45276Y-58429D01*
X45175Y-58395D01*
X44820Y-58750D01*
X45175Y-59104D01*
X45276Y-59070D01*
X45304Y-58992D01*
X45322Y-59035D01*
X45463Y-59177D01*
X45649Y-59254D01*
X45849Y-59254D01*
X46035Y-59177D01*
X46177Y-59036D01*
X46250Y-58860D01*
X46322Y-59035D01*
X46463Y-59177D01*
X46517Y-59199D01*
X46358Y-59358D01*
X46315Y-59423D01*
X46300Y-59500D01*
X46300Y-61417D01*
X45667Y-62050D01*
X45250Y-62050D01*
X45173Y-62065D01*
X45108Y-62108D01*
X45104Y-62112D01*
X45104Y-59175D01*
X44750Y-58820D01*
X44395Y-59175D01*
X44429Y-59276D01*
X44655Y-59358D01*
X44895Y-59348D01*
X45070Y-59276D01*
X45104Y-59175D01*
X45104Y-62112D01*
X43917Y-63300D01*
X43582Y-63300D01*
X42391Y-62108D01*
X42326Y-62065D01*
X42250Y-62050D01*
X41142Y-62050D01*
X41142Y-58872D01*
X41044Y-58636D01*
X40864Y-58455D01*
X40628Y-58357D01*
X40372Y-58357D01*
X40136Y-58455D01*
X39955Y-58635D01*
X39857Y-58871D01*
X39857Y-59127D01*
X39955Y-59363D01*
X40135Y-59544D01*
X40371Y-59642D01*
X40627Y-59642D01*
X40863Y-59544D01*
X41044Y-59364D01*
X41142Y-59128D01*
X41142Y-58872D01*
X41142Y-62050D01*
X41082Y-62050D01*
X40891Y-61858D01*
X40827Y-61815D01*
X40827Y-61096D01*
X40777Y-60976D01*
X40685Y-60884D01*
X40565Y-60834D01*
X40435Y-60834D01*
X40314Y-60883D01*
X40222Y-60975D01*
X40172Y-61096D01*
X40172Y-61226D01*
X40222Y-61346D01*
X40314Y-61438D01*
X40434Y-61488D01*
X40564Y-61488D01*
X40685Y-61438D01*
X40777Y-61346D01*
X40827Y-61226D01*
X40827Y-61096D01*
X40827Y-61815D01*
X40826Y-61815D01*
X40750Y-61800D01*
X40500Y-61800D01*
X40423Y-61815D01*
X40358Y-61858D01*
X40108Y-62108D01*
X40065Y-62173D01*
X40050Y-62250D01*
X40050Y-62275D01*
X39995Y-62329D01*
X39950Y-62440D01*
X39949Y-62559D01*
X39995Y-62669D01*
X40079Y-62754D01*
X40190Y-62799D01*
X40309Y-62800D01*
X40419Y-62754D01*
X40500Y-62674D01*
X40579Y-62754D01*
X40690Y-62799D01*
X40809Y-62800D01*
X40919Y-62754D01*
X40974Y-62700D01*
X41917Y-62700D01*
X43550Y-64332D01*
X43550Y-65786D01*
X43464Y-65822D01*
X43354Y-65932D01*
X43354Y-65845D01*
X43316Y-65754D01*
X43245Y-65683D01*
X43154Y-65645D01*
X43054Y-65645D01*
X42345Y-65645D01*
X42254Y-65683D01*
X42183Y-65754D01*
X42145Y-65845D01*
X42145Y-65945D01*
X42145Y-66654D01*
X42183Y-66745D01*
X42254Y-66816D01*
X42275Y-66825D01*
X40827Y-66825D01*
X40827Y-63773D01*
X40777Y-63653D01*
X40685Y-63561D01*
X40565Y-63511D01*
X40435Y-63511D01*
X40314Y-63561D01*
X40222Y-63653D01*
X40172Y-63773D01*
X40172Y-63903D01*
X40222Y-64023D01*
X40314Y-64115D01*
X40434Y-64165D01*
X40564Y-64165D01*
X40685Y-64116D01*
X40777Y-64024D01*
X40827Y-63903D01*
X40827Y-63773D01*
X40827Y-66825D01*
X39675Y-66825D01*
X39675Y-58175D01*
X42275Y-58175D01*
X42254Y-58183D01*
X42183Y-58254D01*
X42145Y-58345D01*
X42145Y-58445D01*
X42145Y-59154D01*
X42183Y-59245D01*
X42254Y-59316D01*
X42345Y-59354D01*
X42445Y-59354D01*
X43154Y-59354D01*
X43245Y-59316D01*
X43316Y-59245D01*
X43354Y-59154D01*
X43354Y-59067D01*
X43463Y-59177D01*
X43550Y-59213D01*
X43550Y-59417D01*
X43417Y-59550D01*
X42500Y-59550D01*
X42423Y-59565D01*
X42358Y-59608D01*
X41767Y-60200D01*
X41690Y-60199D01*
X41580Y-60245D01*
X41495Y-60329D01*
X41450Y-60440D01*
X41449Y-60559D01*
X41495Y-60669D01*
X41579Y-60754D01*
X41690Y-60799D01*
X41809Y-60800D01*
X41919Y-60754D01*
X42004Y-60670D01*
X42049Y-60559D01*
X42050Y-60482D01*
X42582Y-59950D01*
X43500Y-59950D01*
X43576Y-59934D01*
X43641Y-59891D01*
X43891Y-59641D01*
X43891Y-59641D01*
X43934Y-59576D01*
X43950Y-59500D01*
X43950Y-59213D01*
X44035Y-59177D01*
X44177Y-59036D01*
X44193Y-58997D01*
X44223Y-59070D01*
X44324Y-59104D01*
X44679Y-58750D01*
X44324Y-58395D01*
X44223Y-58429D01*
X44195Y-58507D01*
X44177Y-58464D01*
X44036Y-58322D01*
X43850Y-58245D01*
X43650Y-58245D01*
X43464Y-58322D01*
X43354Y-58432D01*
X43354Y-58345D01*
X43316Y-58254D01*
X43245Y-58183D01*
X43224Y-58175D01*
X44547Y-58175D01*
X44429Y-58223D01*
X44395Y-58324D01*
X44750Y-58679D01*
X45104Y-58324D01*
X45070Y-58223D01*
X44937Y-58175D01*
X49825Y-58175D01*
X49825Y-66825D01*
G54D10*
G36*
X39325Y-57825D02*
X39142Y-57825D01*
X39142Y-56872D01*
X39044Y-56636D01*
X38864Y-56455D01*
X38628Y-56357D01*
X38372Y-56357D01*
X38136Y-56455D01*
X37955Y-56635D01*
X37857Y-56871D01*
X37857Y-57127D01*
X37955Y-57363D01*
X38135Y-57544D01*
X38371Y-57642D01*
X38627Y-57642D01*
X38863Y-57544D01*
X39044Y-57364D01*
X39142Y-57128D01*
X39142Y-56872D01*
X39142Y-57825D01*
X34452Y-57825D01*
X34570Y-57776D01*
X34604Y-57675D01*
X34250Y-57320D01*
X33895Y-57675D01*
X33929Y-57776D01*
X34062Y-57825D01*
X32724Y-57825D01*
X32745Y-57816D01*
X32816Y-57745D01*
X32854Y-57654D01*
X32854Y-57567D01*
X32963Y-57677D01*
X33149Y-57754D01*
X33349Y-57754D01*
X33535Y-57677D01*
X33677Y-57536D01*
X33693Y-57497D01*
X33723Y-57570D01*
X33824Y-57604D01*
X34179Y-57250D01*
X33824Y-56895D01*
X33723Y-56929D01*
X33695Y-57007D01*
X33677Y-56964D01*
X33536Y-56822D01*
X33450Y-56786D01*
X33450Y-55332D01*
X35082Y-53700D01*
X35525Y-53700D01*
X35579Y-53754D01*
X35690Y-53799D01*
X35809Y-53800D01*
X35919Y-53754D01*
X36004Y-53670D01*
X36049Y-53559D01*
X36050Y-53500D01*
X36050Y-56786D01*
X35964Y-56822D01*
X35822Y-56963D01*
X35749Y-57139D01*
X35677Y-56964D01*
X35536Y-56822D01*
X35350Y-56745D01*
X35150Y-56745D01*
X34964Y-56822D01*
X34822Y-56963D01*
X34806Y-57002D01*
X34776Y-56929D01*
X34675Y-56895D01*
X34604Y-56966D01*
X34604Y-56824D01*
X34570Y-56723D01*
X34344Y-56641D01*
X34104Y-56651D01*
X33929Y-56723D01*
X33895Y-56824D01*
X34250Y-57179D01*
X34604Y-56824D01*
X34604Y-56966D01*
X34320Y-57250D01*
X34675Y-57604D01*
X34776Y-57570D01*
X34804Y-57492D01*
X34822Y-57535D01*
X34963Y-57677D01*
X35149Y-57754D01*
X35349Y-57754D01*
X35535Y-57677D01*
X35677Y-57536D01*
X35750Y-57360D01*
X35822Y-57535D01*
X35963Y-57677D01*
X36149Y-57754D01*
X36349Y-57754D01*
X36535Y-57677D01*
X36677Y-57536D01*
X36754Y-57350D01*
X36754Y-57150D01*
X36677Y-56964D01*
X36536Y-56822D01*
X36450Y-56786D01*
X36450Y-55309D01*
X36495Y-55419D01*
X36579Y-55504D01*
X36690Y-55549D01*
X36809Y-55550D01*
X36919Y-55504D01*
X37004Y-55420D01*
X37049Y-55309D01*
X37050Y-55190D01*
X37004Y-55080D01*
X36920Y-54995D01*
X36809Y-54950D01*
X36732Y-54949D01*
X36700Y-54917D01*
X36700Y-54250D01*
X36700Y-51582D01*
X37141Y-51141D01*
X37184Y-51076D01*
X37184Y-51076D01*
X37187Y-51063D01*
X37199Y-51000D01*
X37200Y-51000D01*
X37200Y-50474D01*
X37254Y-50420D01*
X37299Y-50309D01*
X37300Y-50190D01*
X37254Y-50080D01*
X37170Y-49995D01*
X37059Y-49950D01*
X36940Y-49949D01*
X36830Y-49995D01*
X36745Y-50079D01*
X36700Y-50190D01*
X36699Y-50309D01*
X36745Y-50419D01*
X36800Y-50474D01*
X36800Y-50690D01*
X36754Y-50580D01*
X36670Y-50495D01*
X36559Y-50450D01*
X36440Y-50449D01*
X36330Y-50495D01*
X36245Y-50579D01*
X36200Y-50690D01*
X36200Y-50749D01*
X36200Y-50582D01*
X36391Y-50391D01*
X36391Y-50391D01*
X36434Y-50326D01*
X36450Y-50250D01*
X36450Y-50213D01*
X36535Y-50177D01*
X36677Y-50036D01*
X36754Y-49850D01*
X36754Y-49650D01*
X36677Y-49464D01*
X36536Y-49322D01*
X36350Y-49245D01*
X36150Y-49245D01*
X35964Y-49322D01*
X35822Y-49463D01*
X35749Y-49639D01*
X35677Y-49464D01*
X35536Y-49322D01*
X35350Y-49245D01*
X35150Y-49245D01*
X34964Y-49322D01*
X34822Y-49463D01*
X34806Y-49502D01*
X34776Y-49429D01*
X34675Y-49395D01*
X34320Y-49750D01*
X34675Y-50104D01*
X34776Y-50070D01*
X34804Y-49992D01*
X34822Y-50035D01*
X34963Y-50177D01*
X35149Y-50254D01*
X35349Y-50254D01*
X35535Y-50177D01*
X35677Y-50036D01*
X35750Y-49860D01*
X35822Y-50035D01*
X35963Y-50177D01*
X36017Y-50199D01*
X35858Y-50358D01*
X35815Y-50423D01*
X35800Y-50500D01*
X35800Y-52417D01*
X35167Y-53050D01*
X34750Y-53050D01*
X34673Y-53065D01*
X34608Y-53108D01*
X34604Y-53112D01*
X34604Y-50175D01*
X34250Y-49820D01*
X33895Y-50175D01*
X33929Y-50276D01*
X34155Y-50358D01*
X34395Y-50348D01*
X34570Y-50276D01*
X34604Y-50175D01*
X34604Y-53112D01*
X33417Y-54300D01*
X33082Y-54300D01*
X31891Y-53108D01*
X31826Y-53065D01*
X31750Y-53050D01*
X30642Y-53050D01*
X30642Y-49872D01*
X30544Y-49636D01*
X30364Y-49455D01*
X30128Y-49357D01*
X29872Y-49357D01*
X29636Y-49455D01*
X29455Y-49635D01*
X29357Y-49871D01*
X29357Y-50127D01*
X29455Y-50363D01*
X29635Y-50544D01*
X29871Y-50642D01*
X30127Y-50642D01*
X30363Y-50544D01*
X30544Y-50364D01*
X30642Y-50128D01*
X30642Y-49872D01*
X30642Y-53050D01*
X30582Y-53050D01*
X30391Y-52858D01*
X30327Y-52815D01*
X30327Y-52096D01*
X30277Y-51976D01*
X30185Y-51884D01*
X30065Y-51834D01*
X29935Y-51834D01*
X29814Y-51883D01*
X29722Y-51975D01*
X29672Y-52096D01*
X29672Y-52226D01*
X29722Y-52346D01*
X29814Y-52438D01*
X29934Y-52488D01*
X30064Y-52488D01*
X30185Y-52438D01*
X30277Y-52346D01*
X30327Y-52226D01*
X30327Y-52096D01*
X30327Y-52815D01*
X30326Y-52815D01*
X30250Y-52800D01*
X30000Y-52800D01*
X29923Y-52815D01*
X29858Y-52858D01*
X29608Y-53108D01*
X29565Y-53173D01*
X29550Y-53250D01*
X29550Y-53275D01*
X29495Y-53329D01*
X29450Y-53440D01*
X29449Y-53559D01*
X29495Y-53669D01*
X29579Y-53754D01*
X29690Y-53799D01*
X29809Y-53800D01*
X29919Y-53754D01*
X30000Y-53674D01*
X30079Y-53754D01*
X30190Y-53799D01*
X30309Y-53800D01*
X30419Y-53754D01*
X30474Y-53700D01*
X31417Y-53700D01*
X33050Y-55332D01*
X33050Y-56786D01*
X32964Y-56822D01*
X32854Y-56932D01*
X32854Y-56845D01*
X32816Y-56754D01*
X32745Y-56683D01*
X32654Y-56645D01*
X32554Y-56645D01*
X31845Y-56645D01*
X31754Y-56683D01*
X31683Y-56754D01*
X31645Y-56845D01*
X31645Y-56945D01*
X31645Y-57654D01*
X31683Y-57745D01*
X31754Y-57816D01*
X31775Y-57825D01*
X30327Y-57825D01*
X30327Y-54773D01*
X30277Y-54653D01*
X30185Y-54561D01*
X30065Y-54511D01*
X29935Y-54511D01*
X29814Y-54561D01*
X29722Y-54653D01*
X29672Y-54773D01*
X29672Y-54903D01*
X29722Y-55023D01*
X29814Y-55115D01*
X29934Y-55165D01*
X30064Y-55165D01*
X30185Y-55116D01*
X30277Y-55024D01*
X30327Y-54903D01*
X30327Y-54773D01*
X30327Y-57825D01*
X29175Y-57825D01*
X29175Y-49175D01*
X31775Y-49175D01*
X31754Y-49183D01*
X31683Y-49254D01*
X31645Y-49345D01*
X31645Y-49445D01*
X31645Y-50154D01*
X31683Y-50245D01*
X31754Y-50316D01*
X31845Y-50354D01*
X31945Y-50354D01*
X32654Y-50354D01*
X32745Y-50316D01*
X32816Y-50245D01*
X32854Y-50154D01*
X32854Y-50067D01*
X32963Y-50177D01*
X33050Y-50213D01*
X33050Y-50417D01*
X32917Y-50550D01*
X32000Y-50550D01*
X31923Y-50565D01*
X31858Y-50608D01*
X31267Y-51200D01*
X31190Y-51199D01*
X31080Y-51245D01*
X30995Y-51329D01*
X30950Y-51440D01*
X30949Y-51559D01*
X30995Y-51669D01*
X31079Y-51754D01*
X31190Y-51799D01*
X31309Y-51800D01*
X31419Y-51754D01*
X31504Y-51670D01*
X31549Y-51559D01*
X31550Y-51482D01*
X32082Y-50950D01*
X33000Y-50950D01*
X33076Y-50934D01*
X33141Y-50891D01*
X33391Y-50641D01*
X33391Y-50641D01*
X33434Y-50576D01*
X33450Y-50500D01*
X33450Y-50213D01*
X33535Y-50177D01*
X33677Y-50036D01*
X33693Y-49997D01*
X33723Y-50070D01*
X33824Y-50104D01*
X34179Y-49750D01*
X33824Y-49395D01*
X33723Y-49429D01*
X33695Y-49507D01*
X33677Y-49464D01*
X33536Y-49322D01*
X33350Y-49245D01*
X33150Y-49245D01*
X32964Y-49322D01*
X32854Y-49432D01*
X32854Y-49345D01*
X32816Y-49254D01*
X32745Y-49183D01*
X32724Y-49175D01*
X34047Y-49175D01*
X33929Y-49223D01*
X33895Y-49324D01*
X34250Y-49679D01*
X34604Y-49324D01*
X34570Y-49223D01*
X34437Y-49175D01*
X39325Y-49175D01*
X39325Y-57825D01*
X39325Y-57825D01*
G37*
G54D20*
X39325Y-57825D02*
X39142Y-57825D01*
X39142Y-56872D01*
X39044Y-56636D01*
X38864Y-56455D01*
X38628Y-56357D01*
X38372Y-56357D01*
X38136Y-56455D01*
X37955Y-56635D01*
X37857Y-56871D01*
X37857Y-57127D01*
X37955Y-57363D01*
X38135Y-57544D01*
X38371Y-57642D01*
X38627Y-57642D01*
X38863Y-57544D01*
X39044Y-57364D01*
X39142Y-57128D01*
X39142Y-56872D01*
X39142Y-57825D01*
X34452Y-57825D01*
X34570Y-57776D01*
X34604Y-57675D01*
X34250Y-57320D01*
X33895Y-57675D01*
X33929Y-57776D01*
X34062Y-57825D01*
X32724Y-57825D01*
X32745Y-57816D01*
X32816Y-57745D01*
X32854Y-57654D01*
X32854Y-57567D01*
X32963Y-57677D01*
X33149Y-57754D01*
X33349Y-57754D01*
X33535Y-57677D01*
X33677Y-57536D01*
X33693Y-57497D01*
X33723Y-57570D01*
X33824Y-57604D01*
X34179Y-57250D01*
X33824Y-56895D01*
X33723Y-56929D01*
X33695Y-57007D01*
X33677Y-56964D01*
X33536Y-56822D01*
X33450Y-56786D01*
X33450Y-55332D01*
X35082Y-53700D01*
X35525Y-53700D01*
X35579Y-53754D01*
X35690Y-53799D01*
X35809Y-53800D01*
X35919Y-53754D01*
X36004Y-53670D01*
X36049Y-53559D01*
X36050Y-53500D01*
X36050Y-56786D01*
X35964Y-56822D01*
X35822Y-56963D01*
X35749Y-57139D01*
X35677Y-56964D01*
X35536Y-56822D01*
X35350Y-56745D01*
X35150Y-56745D01*
X34964Y-56822D01*
X34822Y-56963D01*
X34806Y-57002D01*
X34776Y-56929D01*
X34675Y-56895D01*
X34604Y-56966D01*
X34604Y-56824D01*
X34570Y-56723D01*
X34344Y-56641D01*
X34104Y-56651D01*
X33929Y-56723D01*
X33895Y-56824D01*
X34250Y-57179D01*
X34604Y-56824D01*
X34604Y-56966D01*
X34320Y-57250D01*
X34675Y-57604D01*
X34776Y-57570D01*
X34804Y-57492D01*
X34822Y-57535D01*
X34963Y-57677D01*
X35149Y-57754D01*
X35349Y-57754D01*
X35535Y-57677D01*
X35677Y-57536D01*
X35750Y-57360D01*
X35822Y-57535D01*
X35963Y-57677D01*
X36149Y-57754D01*
X36349Y-57754D01*
X36535Y-57677D01*
X36677Y-57536D01*
X36754Y-57350D01*
X36754Y-57150D01*
X36677Y-56964D01*
X36536Y-56822D01*
X36450Y-56786D01*
X36450Y-55309D01*
X36495Y-55419D01*
X36579Y-55504D01*
X36690Y-55549D01*
X36809Y-55550D01*
X36919Y-55504D01*
X37004Y-55420D01*
X37049Y-55309D01*
X37050Y-55190D01*
X37004Y-55080D01*
X36920Y-54995D01*
X36809Y-54950D01*
X36732Y-54949D01*
X36700Y-54917D01*
X36700Y-54250D01*
X36700Y-51582D01*
X37141Y-51141D01*
X37184Y-51076D01*
X37184Y-51076D01*
X37187Y-51063D01*
X37199Y-51000D01*
X37200Y-51000D01*
X37200Y-50474D01*
X37254Y-50420D01*
X37299Y-50309D01*
X37300Y-50190D01*
X37254Y-50080D01*
X37170Y-49995D01*
X37059Y-49950D01*
X36940Y-49949D01*
X36830Y-49995D01*
X36745Y-50079D01*
X36700Y-50190D01*
X36699Y-50309D01*
X36745Y-50419D01*
X36800Y-50474D01*
X36800Y-50690D01*
X36754Y-50580D01*
X36670Y-50495D01*
X36559Y-50450D01*
X36440Y-50449D01*
X36330Y-50495D01*
X36245Y-50579D01*
X36200Y-50690D01*
X36200Y-50749D01*
X36200Y-50582D01*
X36391Y-50391D01*
X36391Y-50391D01*
X36434Y-50326D01*
X36450Y-50250D01*
X36450Y-50213D01*
X36535Y-50177D01*
X36677Y-50036D01*
X36754Y-49850D01*
X36754Y-49650D01*
X36677Y-49464D01*
X36536Y-49322D01*
X36350Y-49245D01*
X36150Y-49245D01*
X35964Y-49322D01*
X35822Y-49463D01*
X35749Y-49639D01*
X35677Y-49464D01*
X35536Y-49322D01*
X35350Y-49245D01*
X35150Y-49245D01*
X34964Y-49322D01*
X34822Y-49463D01*
X34806Y-49502D01*
X34776Y-49429D01*
X34675Y-49395D01*
X34320Y-49750D01*
X34675Y-50104D01*
X34776Y-50070D01*
X34804Y-49992D01*
X34822Y-50035D01*
X34963Y-50177D01*
X35149Y-50254D01*
X35349Y-50254D01*
X35535Y-50177D01*
X35677Y-50036D01*
X35750Y-49860D01*
X35822Y-50035D01*
X35963Y-50177D01*
X36017Y-50199D01*
X35858Y-50358D01*
X35815Y-50423D01*
X35800Y-50500D01*
X35800Y-52417D01*
X35167Y-53050D01*
X34750Y-53050D01*
X34673Y-53065D01*
X34608Y-53108D01*
X34604Y-53112D01*
X34604Y-50175D01*
X34250Y-49820D01*
X33895Y-50175D01*
X33929Y-50276D01*
X34155Y-50358D01*
X34395Y-50348D01*
X34570Y-50276D01*
X34604Y-50175D01*
X34604Y-53112D01*
X33417Y-54300D01*
X33082Y-54300D01*
X31891Y-53108D01*
X31826Y-53065D01*
X31750Y-53050D01*
X30642Y-53050D01*
X30642Y-49872D01*
X30544Y-49636D01*
X30364Y-49455D01*
X30128Y-49357D01*
X29872Y-49357D01*
X29636Y-49455D01*
X29455Y-49635D01*
X29357Y-49871D01*
X29357Y-50127D01*
X29455Y-50363D01*
X29635Y-50544D01*
X29871Y-50642D01*
X30127Y-50642D01*
X30363Y-50544D01*
X30544Y-50364D01*
X30642Y-50128D01*
X30642Y-49872D01*
X30642Y-53050D01*
X30582Y-53050D01*
X30391Y-52858D01*
X30327Y-52815D01*
X30327Y-52096D01*
X30277Y-51976D01*
X30185Y-51884D01*
X30065Y-51834D01*
X29935Y-51834D01*
X29814Y-51883D01*
X29722Y-51975D01*
X29672Y-52096D01*
X29672Y-52226D01*
X29722Y-52346D01*
X29814Y-52438D01*
X29934Y-52488D01*
X30064Y-52488D01*
X30185Y-52438D01*
X30277Y-52346D01*
X30327Y-52226D01*
X30327Y-52096D01*
X30327Y-52815D01*
X30326Y-52815D01*
X30250Y-52800D01*
X30000Y-52800D01*
X29923Y-52815D01*
X29858Y-52858D01*
X29608Y-53108D01*
X29565Y-53173D01*
X29550Y-53250D01*
X29550Y-53275D01*
X29495Y-53329D01*
X29450Y-53440D01*
X29449Y-53559D01*
X29495Y-53669D01*
X29579Y-53754D01*
X29690Y-53799D01*
X29809Y-53800D01*
X29919Y-53754D01*
X30000Y-53674D01*
X30079Y-53754D01*
X30190Y-53799D01*
X30309Y-53800D01*
X30419Y-53754D01*
X30474Y-53700D01*
X31417Y-53700D01*
X33050Y-55332D01*
X33050Y-56786D01*
X32964Y-56822D01*
X32854Y-56932D01*
X32854Y-56845D01*
X32816Y-56754D01*
X32745Y-56683D01*
X32654Y-56645D01*
X32554Y-56645D01*
X31845Y-56645D01*
X31754Y-56683D01*
X31683Y-56754D01*
X31645Y-56845D01*
X31645Y-56945D01*
X31645Y-57654D01*
X31683Y-57745D01*
X31754Y-57816D01*
X31775Y-57825D01*
X30327Y-57825D01*
X30327Y-54773D01*
X30277Y-54653D01*
X30185Y-54561D01*
X30065Y-54511D01*
X29935Y-54511D01*
X29814Y-54561D01*
X29722Y-54653D01*
X29672Y-54773D01*
X29672Y-54903D01*
X29722Y-55023D01*
X29814Y-55115D01*
X29934Y-55165D01*
X30064Y-55165D01*
X30185Y-55116D01*
X30277Y-55024D01*
X30327Y-54903D01*
X30327Y-54773D01*
X30327Y-57825D01*
X29175Y-57825D01*
X29175Y-49175D01*
X31775Y-49175D01*
X31754Y-49183D01*
X31683Y-49254D01*
X31645Y-49345D01*
X31645Y-49445D01*
X31645Y-50154D01*
X31683Y-50245D01*
X31754Y-50316D01*
X31845Y-50354D01*
X31945Y-50354D01*
X32654Y-50354D01*
X32745Y-50316D01*
X32816Y-50245D01*
X32854Y-50154D01*
X32854Y-50067D01*
X32963Y-50177D01*
X33050Y-50213D01*
X33050Y-50417D01*
X32917Y-50550D01*
X32000Y-50550D01*
X31923Y-50565D01*
X31858Y-50608D01*
X31267Y-51200D01*
X31190Y-51199D01*
X31080Y-51245D01*
X30995Y-51329D01*
X30950Y-51440D01*
X30949Y-51559D01*
X30995Y-51669D01*
X31079Y-51754D01*
X31190Y-51799D01*
X31309Y-51800D01*
X31419Y-51754D01*
X31504Y-51670D01*
X31549Y-51559D01*
X31550Y-51482D01*
X32082Y-50950D01*
X33000Y-50950D01*
X33076Y-50934D01*
X33141Y-50891D01*
X33391Y-50641D01*
X33391Y-50641D01*
X33434Y-50576D01*
X33450Y-50500D01*
X33450Y-50213D01*
X33535Y-50177D01*
X33677Y-50036D01*
X33693Y-49997D01*
X33723Y-50070D01*
X33824Y-50104D01*
X34179Y-49750D01*
X33824Y-49395D01*
X33723Y-49429D01*
X33695Y-49507D01*
X33677Y-49464D01*
X33536Y-49322D01*
X33350Y-49245D01*
X33150Y-49245D01*
X32964Y-49322D01*
X32854Y-49432D01*
X32854Y-49345D01*
X32816Y-49254D01*
X32745Y-49183D01*
X32724Y-49175D01*
X34047Y-49175D01*
X33929Y-49223D01*
X33895Y-49324D01*
X34250Y-49679D01*
X34604Y-49324D01*
X34570Y-49223D01*
X34437Y-49175D01*
X39325Y-49175D01*
X39325Y-57825D01*
G54D10*
G36*
X49825Y-57825D02*
X49642Y-57825D01*
X49642Y-56872D01*
X49544Y-56636D01*
X49364Y-56455D01*
X49128Y-56357D01*
X48872Y-56357D01*
X48636Y-56455D01*
X48455Y-56635D01*
X48357Y-56871D01*
X48357Y-57127D01*
X48455Y-57363D01*
X48635Y-57544D01*
X48871Y-57642D01*
X49127Y-57642D01*
X49363Y-57544D01*
X49544Y-57364D01*
X49642Y-57128D01*
X49642Y-56872D01*
X49642Y-57825D01*
X44952Y-57825D01*
X45070Y-57776D01*
X45104Y-57675D01*
X44750Y-57320D01*
X44395Y-57675D01*
X44429Y-57776D01*
X44562Y-57825D01*
X43224Y-57825D01*
X43245Y-57816D01*
X43316Y-57745D01*
X43354Y-57654D01*
X43354Y-57567D01*
X43463Y-57677D01*
X43649Y-57754D01*
X43849Y-57754D01*
X44035Y-57677D01*
X44177Y-57536D01*
X44193Y-57497D01*
X44223Y-57570D01*
X44324Y-57604D01*
X44679Y-57250D01*
X44324Y-56895D01*
X44223Y-56929D01*
X44195Y-57007D01*
X44177Y-56964D01*
X44036Y-56822D01*
X43950Y-56786D01*
X43950Y-55332D01*
X45582Y-53700D01*
X46025Y-53700D01*
X46079Y-53754D01*
X46190Y-53799D01*
X46309Y-53800D01*
X46419Y-53754D01*
X46504Y-53670D01*
X46549Y-53559D01*
X46550Y-53500D01*
X46550Y-56786D01*
X46464Y-56822D01*
X46322Y-56963D01*
X46249Y-57139D01*
X46177Y-56964D01*
X46036Y-56822D01*
X45850Y-56745D01*
X45650Y-56745D01*
X45464Y-56822D01*
X45322Y-56963D01*
X45306Y-57002D01*
X45276Y-56929D01*
X45175Y-56895D01*
X45104Y-56966D01*
X45104Y-56824D01*
X45070Y-56723D01*
X44844Y-56641D01*
X44604Y-56651D01*
X44429Y-56723D01*
X44395Y-56824D01*
X44750Y-57179D01*
X45104Y-56824D01*
X45104Y-56966D01*
X44820Y-57250D01*
X45175Y-57604D01*
X45276Y-57570D01*
X45304Y-57492D01*
X45322Y-57535D01*
X45463Y-57677D01*
X45649Y-57754D01*
X45849Y-57754D01*
X46035Y-57677D01*
X46177Y-57536D01*
X46250Y-57360D01*
X46322Y-57535D01*
X46463Y-57677D01*
X46649Y-57754D01*
X46849Y-57754D01*
X47035Y-57677D01*
X47177Y-57536D01*
X47254Y-57350D01*
X47254Y-57150D01*
X47177Y-56964D01*
X47036Y-56822D01*
X46950Y-56786D01*
X46950Y-55309D01*
X46995Y-55419D01*
X47079Y-55504D01*
X47190Y-55549D01*
X47309Y-55550D01*
X47419Y-55504D01*
X47504Y-55420D01*
X47549Y-55309D01*
X47550Y-55190D01*
X47504Y-55080D01*
X47420Y-54995D01*
X47309Y-54950D01*
X47232Y-54949D01*
X47200Y-54917D01*
X47200Y-54250D01*
X47200Y-51582D01*
X47641Y-51141D01*
X47684Y-51076D01*
X47684Y-51076D01*
X47687Y-51063D01*
X47699Y-51000D01*
X47700Y-51000D01*
X47700Y-50474D01*
X47754Y-50420D01*
X47799Y-50309D01*
X47800Y-50190D01*
X47754Y-50080D01*
X47670Y-49995D01*
X47559Y-49950D01*
X47440Y-49949D01*
X47330Y-49995D01*
X47245Y-50079D01*
X47200Y-50190D01*
X47199Y-50309D01*
X47245Y-50419D01*
X47300Y-50474D01*
X47300Y-50690D01*
X47254Y-50580D01*
X47170Y-50495D01*
X47059Y-50450D01*
X46940Y-50449D01*
X46830Y-50495D01*
X46745Y-50579D01*
X46700Y-50690D01*
X46700Y-50749D01*
X46700Y-50582D01*
X46891Y-50391D01*
X46891Y-50391D01*
X46934Y-50326D01*
X46950Y-50250D01*
X46950Y-50213D01*
X47035Y-50177D01*
X47177Y-50036D01*
X47254Y-49850D01*
X47254Y-49650D01*
X47177Y-49464D01*
X47036Y-49322D01*
X46850Y-49245D01*
X46650Y-49245D01*
X46464Y-49322D01*
X46322Y-49463D01*
X46249Y-49639D01*
X46177Y-49464D01*
X46036Y-49322D01*
X45850Y-49245D01*
X45650Y-49245D01*
X45464Y-49322D01*
X45322Y-49463D01*
X45306Y-49502D01*
X45276Y-49429D01*
X45175Y-49395D01*
X44820Y-49750D01*
X45175Y-50104D01*
X45276Y-50070D01*
X45304Y-49992D01*
X45322Y-50035D01*
X45463Y-50177D01*
X45649Y-50254D01*
X45849Y-50254D01*
X46035Y-50177D01*
X46177Y-50036D01*
X46250Y-49860D01*
X46322Y-50035D01*
X46463Y-50177D01*
X46517Y-50199D01*
X46358Y-50358D01*
X46315Y-50423D01*
X46300Y-50500D01*
X46300Y-52417D01*
X45667Y-53050D01*
X45250Y-53050D01*
X45173Y-53065D01*
X45108Y-53108D01*
X45104Y-53112D01*
X45104Y-50175D01*
X44750Y-49820D01*
X44395Y-50175D01*
X44429Y-50276D01*
X44655Y-50358D01*
X44895Y-50348D01*
X45070Y-50276D01*
X45104Y-50175D01*
X45104Y-53112D01*
X43917Y-54300D01*
X43582Y-54300D01*
X42391Y-53108D01*
X42326Y-53065D01*
X42250Y-53050D01*
X41142Y-53050D01*
X41142Y-49872D01*
X41044Y-49636D01*
X40864Y-49455D01*
X40628Y-49357D01*
X40372Y-49357D01*
X40136Y-49455D01*
X39955Y-49635D01*
X39857Y-49871D01*
X39857Y-50127D01*
X39955Y-50363D01*
X40135Y-50544D01*
X40371Y-50642D01*
X40627Y-50642D01*
X40863Y-50544D01*
X41044Y-50364D01*
X41142Y-50128D01*
X41142Y-49872D01*
X41142Y-53050D01*
X41082Y-53050D01*
X40891Y-52858D01*
X40827Y-52815D01*
X40827Y-52096D01*
X40777Y-51976D01*
X40685Y-51884D01*
X40565Y-51834D01*
X40435Y-51834D01*
X40314Y-51883D01*
X40222Y-51975D01*
X40172Y-52096D01*
X40172Y-52226D01*
X40222Y-52346D01*
X40314Y-52438D01*
X40434Y-52488D01*
X40564Y-52488D01*
X40685Y-52438D01*
X40777Y-52346D01*
X40827Y-52226D01*
X40827Y-52096D01*
X40827Y-52815D01*
X40826Y-52815D01*
X40750Y-52800D01*
X40500Y-52800D01*
X40423Y-52815D01*
X40358Y-52858D01*
X40108Y-53108D01*
X40065Y-53173D01*
X40050Y-53250D01*
X40050Y-53275D01*
X39995Y-53329D01*
X39950Y-53440D01*
X39949Y-53559D01*
X39995Y-53669D01*
X40079Y-53754D01*
X40190Y-53799D01*
X40309Y-53800D01*
X40419Y-53754D01*
X40500Y-53674D01*
X40579Y-53754D01*
X40690Y-53799D01*
X40809Y-53800D01*
X40919Y-53754D01*
X40974Y-53700D01*
X41917Y-53700D01*
X43550Y-55332D01*
X43550Y-56786D01*
X43464Y-56822D01*
X43354Y-56932D01*
X43354Y-56845D01*
X43316Y-56754D01*
X43245Y-56683D01*
X43154Y-56645D01*
X43054Y-56645D01*
X42345Y-56645D01*
X42254Y-56683D01*
X42183Y-56754D01*
X42145Y-56845D01*
X42145Y-56945D01*
X42145Y-57654D01*
X42183Y-57745D01*
X42254Y-57816D01*
X42275Y-57825D01*
X40827Y-57825D01*
X40827Y-54773D01*
X40777Y-54653D01*
X40685Y-54561D01*
X40565Y-54511D01*
X40435Y-54511D01*
X40314Y-54561D01*
X40222Y-54653D01*
X40172Y-54773D01*
X40172Y-54903D01*
X40222Y-55023D01*
X40314Y-55115D01*
X40434Y-55165D01*
X40564Y-55165D01*
X40685Y-55116D01*
X40777Y-55024D01*
X40827Y-54903D01*
X40827Y-54773D01*
X40827Y-57825D01*
X39675Y-57825D01*
X39675Y-49175D01*
X42275Y-49175D01*
X42254Y-49183D01*
X42183Y-49254D01*
X42145Y-49345D01*
X42145Y-49445D01*
X42145Y-50154D01*
X42183Y-50245D01*
X42254Y-50316D01*
X42345Y-50354D01*
X42445Y-50354D01*
X43154Y-50354D01*
X43245Y-50316D01*
X43316Y-50245D01*
X43354Y-50154D01*
X43354Y-50067D01*
X43463Y-50177D01*
X43550Y-50213D01*
X43550Y-50417D01*
X43417Y-50550D01*
X42500Y-50550D01*
X42423Y-50565D01*
X42358Y-50608D01*
X41767Y-51200D01*
X41690Y-51199D01*
X41580Y-51245D01*
X41495Y-51329D01*
X41450Y-51440D01*
X41449Y-51559D01*
X41495Y-51669D01*
X41579Y-51754D01*
X41690Y-51799D01*
X41809Y-51800D01*
X41919Y-51754D01*
X42004Y-51670D01*
X42049Y-51559D01*
X42050Y-51482D01*
X42582Y-50950D01*
X43500Y-50950D01*
X43576Y-50934D01*
X43641Y-50891D01*
X43891Y-50641D01*
X43891Y-50641D01*
X43934Y-50576D01*
X43950Y-50500D01*
X43950Y-50213D01*
X44035Y-50177D01*
X44177Y-50036D01*
X44193Y-49997D01*
X44223Y-50070D01*
X44324Y-50104D01*
X44679Y-49750D01*
X44324Y-49395D01*
X44223Y-49429D01*
X44195Y-49507D01*
X44177Y-49464D01*
X44036Y-49322D01*
X43850Y-49245D01*
X43650Y-49245D01*
X43464Y-49322D01*
X43354Y-49432D01*
X43354Y-49345D01*
X43316Y-49254D01*
X43245Y-49183D01*
X43224Y-49175D01*
X44547Y-49175D01*
X44429Y-49223D01*
X44395Y-49324D01*
X44750Y-49679D01*
X45104Y-49324D01*
X45070Y-49223D01*
X44937Y-49175D01*
X49825Y-49175D01*
X49825Y-57825D01*
X49825Y-57825D01*
G37*
G54D20*
X49825Y-57825D02*
X49642Y-57825D01*
X49642Y-56872D01*
X49544Y-56636D01*
X49364Y-56455D01*
X49128Y-56357D01*
X48872Y-56357D01*
X48636Y-56455D01*
X48455Y-56635D01*
X48357Y-56871D01*
X48357Y-57127D01*
X48455Y-57363D01*
X48635Y-57544D01*
X48871Y-57642D01*
X49127Y-57642D01*
X49363Y-57544D01*
X49544Y-57364D01*
X49642Y-57128D01*
X49642Y-56872D01*
X49642Y-57825D01*
X44952Y-57825D01*
X45070Y-57776D01*
X45104Y-57675D01*
X44750Y-57320D01*
X44395Y-57675D01*
X44429Y-57776D01*
X44562Y-57825D01*
X43224Y-57825D01*
X43245Y-57816D01*
X43316Y-57745D01*
X43354Y-57654D01*
X43354Y-57567D01*
X43463Y-57677D01*
X43649Y-57754D01*
X43849Y-57754D01*
X44035Y-57677D01*
X44177Y-57536D01*
X44193Y-57497D01*
X44223Y-57570D01*
X44324Y-57604D01*
X44679Y-57250D01*
X44324Y-56895D01*
X44223Y-56929D01*
X44195Y-57007D01*
X44177Y-56964D01*
X44036Y-56822D01*
X43950Y-56786D01*
X43950Y-55332D01*
X45582Y-53700D01*
X46025Y-53700D01*
X46079Y-53754D01*
X46190Y-53799D01*
X46309Y-53800D01*
X46419Y-53754D01*
X46504Y-53670D01*
X46549Y-53559D01*
X46550Y-53500D01*
X46550Y-56786D01*
X46464Y-56822D01*
X46322Y-56963D01*
X46249Y-57139D01*
X46177Y-56964D01*
X46036Y-56822D01*
X45850Y-56745D01*
X45650Y-56745D01*
X45464Y-56822D01*
X45322Y-56963D01*
X45306Y-57002D01*
X45276Y-56929D01*
X45175Y-56895D01*
X45104Y-56966D01*
X45104Y-56824D01*
X45070Y-56723D01*
X44844Y-56641D01*
X44604Y-56651D01*
X44429Y-56723D01*
X44395Y-56824D01*
X44750Y-57179D01*
X45104Y-56824D01*
X45104Y-56966D01*
X44820Y-57250D01*
X45175Y-57604D01*
X45276Y-57570D01*
X45304Y-57492D01*
X45322Y-57535D01*
X45463Y-57677D01*
X45649Y-57754D01*
X45849Y-57754D01*
X46035Y-57677D01*
X46177Y-57536D01*
X46250Y-57360D01*
X46322Y-57535D01*
X46463Y-57677D01*
X46649Y-57754D01*
X46849Y-57754D01*
X47035Y-57677D01*
X47177Y-57536D01*
X47254Y-57350D01*
X47254Y-57150D01*
X47177Y-56964D01*
X47036Y-56822D01*
X46950Y-56786D01*
X46950Y-55309D01*
X46995Y-55419D01*
X47079Y-55504D01*
X47190Y-55549D01*
X47309Y-55550D01*
X47419Y-55504D01*
X47504Y-55420D01*
X47549Y-55309D01*
X47550Y-55190D01*
X47504Y-55080D01*
X47420Y-54995D01*
X47309Y-54950D01*
X47232Y-54949D01*
X47200Y-54917D01*
X47200Y-54250D01*
X47200Y-51582D01*
X47641Y-51141D01*
X47684Y-51076D01*
X47684Y-51076D01*
X47687Y-51063D01*
X47699Y-51000D01*
X47700Y-51000D01*
X47700Y-50474D01*
X47754Y-50420D01*
X47799Y-50309D01*
X47800Y-50190D01*
X47754Y-50080D01*
X47670Y-49995D01*
X47559Y-49950D01*
X47440Y-49949D01*
X47330Y-49995D01*
X47245Y-50079D01*
X47200Y-50190D01*
X47199Y-50309D01*
X47245Y-50419D01*
X47300Y-50474D01*
X47300Y-50690D01*
X47254Y-50580D01*
X47170Y-50495D01*
X47059Y-50450D01*
X46940Y-50449D01*
X46830Y-50495D01*
X46745Y-50579D01*
X46700Y-50690D01*
X46700Y-50749D01*
X46700Y-50582D01*
X46891Y-50391D01*
X46891Y-50391D01*
X46934Y-50326D01*
X46950Y-50250D01*
X46950Y-50213D01*
X47035Y-50177D01*
X47177Y-50036D01*
X47254Y-49850D01*
X47254Y-49650D01*
X47177Y-49464D01*
X47036Y-49322D01*
X46850Y-49245D01*
X46650Y-49245D01*
X46464Y-49322D01*
X46322Y-49463D01*
X46249Y-49639D01*
X46177Y-49464D01*
X46036Y-49322D01*
X45850Y-49245D01*
X45650Y-49245D01*
X45464Y-49322D01*
X45322Y-49463D01*
X45306Y-49502D01*
X45276Y-49429D01*
X45175Y-49395D01*
X44820Y-49750D01*
X45175Y-50104D01*
X45276Y-50070D01*
X45304Y-49992D01*
X45322Y-50035D01*
X45463Y-50177D01*
X45649Y-50254D01*
X45849Y-50254D01*
X46035Y-50177D01*
X46177Y-50036D01*
X46250Y-49860D01*
X46322Y-50035D01*
X46463Y-50177D01*
X46517Y-50199D01*
X46358Y-50358D01*
X46315Y-50423D01*
X46300Y-50500D01*
X46300Y-52417D01*
X45667Y-53050D01*
X45250Y-53050D01*
X45173Y-53065D01*
X45108Y-53108D01*
X45104Y-53112D01*
X45104Y-50175D01*
X44750Y-49820D01*
X44395Y-50175D01*
X44429Y-50276D01*
X44655Y-50358D01*
X44895Y-50348D01*
X45070Y-50276D01*
X45104Y-50175D01*
X45104Y-53112D01*
X43917Y-54300D01*
X43582Y-54300D01*
X42391Y-53108D01*
X42326Y-53065D01*
X42250Y-53050D01*
X41142Y-53050D01*
X41142Y-49872D01*
X41044Y-49636D01*
X40864Y-49455D01*
X40628Y-49357D01*
X40372Y-49357D01*
X40136Y-49455D01*
X39955Y-49635D01*
X39857Y-49871D01*
X39857Y-50127D01*
X39955Y-50363D01*
X40135Y-50544D01*
X40371Y-50642D01*
X40627Y-50642D01*
X40863Y-50544D01*
X41044Y-50364D01*
X41142Y-50128D01*
X41142Y-49872D01*
X41142Y-53050D01*
X41082Y-53050D01*
X40891Y-52858D01*
X40827Y-52815D01*
X40827Y-52096D01*
X40777Y-51976D01*
X40685Y-51884D01*
X40565Y-51834D01*
X40435Y-51834D01*
X40314Y-51883D01*
X40222Y-51975D01*
X40172Y-52096D01*
X40172Y-52226D01*
X40222Y-52346D01*
X40314Y-52438D01*
X40434Y-52488D01*
X40564Y-52488D01*
X40685Y-52438D01*
X40777Y-52346D01*
X40827Y-52226D01*
X40827Y-52096D01*
X40827Y-52815D01*
X40826Y-52815D01*
X40750Y-52800D01*
X40500Y-52800D01*
X40423Y-52815D01*
X40358Y-52858D01*
X40108Y-53108D01*
X40065Y-53173D01*
X40050Y-53250D01*
X40050Y-53275D01*
X39995Y-53329D01*
X39950Y-53440D01*
X39949Y-53559D01*
X39995Y-53669D01*
X40079Y-53754D01*
X40190Y-53799D01*
X40309Y-53800D01*
X40419Y-53754D01*
X40500Y-53674D01*
X40579Y-53754D01*
X40690Y-53799D01*
X40809Y-53800D01*
X40919Y-53754D01*
X40974Y-53700D01*
X41917Y-53700D01*
X43550Y-55332D01*
X43550Y-56786D01*
X43464Y-56822D01*
X43354Y-56932D01*
X43354Y-56845D01*
X43316Y-56754D01*
X43245Y-56683D01*
X43154Y-56645D01*
X43054Y-56645D01*
X42345Y-56645D01*
X42254Y-56683D01*
X42183Y-56754D01*
X42145Y-56845D01*
X42145Y-56945D01*
X42145Y-57654D01*
X42183Y-57745D01*
X42254Y-57816D01*
X42275Y-57825D01*
X40827Y-57825D01*
X40827Y-54773D01*
X40777Y-54653D01*
X40685Y-54561D01*
X40565Y-54511D01*
X40435Y-54511D01*
X40314Y-54561D01*
X40222Y-54653D01*
X40172Y-54773D01*
X40172Y-54903D01*
X40222Y-55023D01*
X40314Y-55115D01*
X40434Y-55165D01*
X40564Y-55165D01*
X40685Y-55116D01*
X40777Y-55024D01*
X40827Y-54903D01*
X40827Y-54773D01*
X40827Y-57825D01*
X39675Y-57825D01*
X39675Y-49175D01*
X42275Y-49175D01*
X42254Y-49183D01*
X42183Y-49254D01*
X42145Y-49345D01*
X42145Y-49445D01*
X42145Y-50154D01*
X42183Y-50245D01*
X42254Y-50316D01*
X42345Y-50354D01*
X42445Y-50354D01*
X43154Y-50354D01*
X43245Y-50316D01*
X43316Y-50245D01*
X43354Y-50154D01*
X43354Y-50067D01*
X43463Y-50177D01*
X43550Y-50213D01*
X43550Y-50417D01*
X43417Y-50550D01*
X42500Y-50550D01*
X42423Y-50565D01*
X42358Y-50608D01*
X41767Y-51200D01*
X41690Y-51199D01*
X41580Y-51245D01*
X41495Y-51329D01*
X41450Y-51440D01*
X41449Y-51559D01*
X41495Y-51669D01*
X41579Y-51754D01*
X41690Y-51799D01*
X41809Y-51800D01*
X41919Y-51754D01*
X42004Y-51670D01*
X42049Y-51559D01*
X42050Y-51482D01*
X42582Y-50950D01*
X43500Y-50950D01*
X43576Y-50934D01*
X43641Y-50891D01*
X43891Y-50641D01*
X43891Y-50641D01*
X43934Y-50576D01*
X43950Y-50500D01*
X43950Y-50213D01*
X44035Y-50177D01*
X44177Y-50036D01*
X44193Y-49997D01*
X44223Y-50070D01*
X44324Y-50104D01*
X44679Y-49750D01*
X44324Y-49395D01*
X44223Y-49429D01*
X44195Y-49507D01*
X44177Y-49464D01*
X44036Y-49322D01*
X43850Y-49245D01*
X43650Y-49245D01*
X43464Y-49322D01*
X43354Y-49432D01*
X43354Y-49345D01*
X43316Y-49254D01*
X43245Y-49183D01*
X43224Y-49175D01*
X44547Y-49175D01*
X44429Y-49223D01*
X44395Y-49324D01*
X44750Y-49679D01*
X45104Y-49324D01*
X45070Y-49223D01*
X44937Y-49175D01*
X49825Y-49175D01*
X49825Y-57825D01*
M02*
