M48
;DRILL file {Pcbnew (2014-02-03 BZR 4657)-product} date Thu 13 Mar 2014 03:56:54 PM CDT
;FORMAT={2:4/ absolute / inch / keep zeros}
FMAT,2
INCH,TZ
T1C0.015
T2C0.020
T3C0.035
T4C0.098
%
G90
G05
M72
T1
X029500Y-045500
X029500Y-055500
X029500Y-065500
X030000Y-045500
X030000Y-047750
X030000Y-055500
X030000Y-057750
X030000Y-065500
X030000Y-067750
X031000Y-043500
X031000Y-053500
X031000Y-063500
X035500Y-045500
X035500Y-055500
X035500Y-065500
X035750Y-031150
X036250Y-042750
X036250Y-052750
X036250Y-062750
X036500Y-046500
X036500Y-056500
X036500Y-066500
X036750Y-042250
X036750Y-052250
X036750Y-062250
X037000Y-032300
X037350Y-027300
X037500Y-036000
X037600Y-031750
X038150Y-033100
X038200Y-029050
X038300Y-027850
X038300Y-028300
X038400Y-032750
X038750Y-032450
X039050Y-032100
X039400Y-033200
X039800Y-031950
X040500Y-045500
X040500Y-055500
X040500Y-065500
X041000Y-045500
X041000Y-047750
X041000Y-055500
X041000Y-057750
X041000Y-065500
X041000Y-067750
X042000Y-043500
X042000Y-053500
X042000Y-063500
X042100Y-032400
X043250Y-037800
X046500Y-045500
X046500Y-055500
X046500Y-065500
X047250Y-042750
X047250Y-052750
X047250Y-062750
X047500Y-046500
X047500Y-056500
X047500Y-066500
X047750Y-042250
X047750Y-052250
X047750Y-062250
T2
X042700Y-038150
T3
X029750Y-044161
X029750Y-046839
X029750Y-054161
X029750Y-056839
X029750Y-064161
X029750Y-066839
X030000Y-039500
X031000Y-039500
X032000Y-041750
X032000Y-049250
X032000Y-051750
X032000Y-059250
X032000Y-061750
X032000Y-069250
X033000Y-041750
X033000Y-049250
X033000Y-051750
X033000Y-059250
X033000Y-061750
X033000Y-069250
X033900Y-033012
X034000Y-041750
X034000Y-049250
X034000Y-051750
X034000Y-059250
X034000Y-061750
X034000Y-069250
X034400Y-032146
X034900Y-031280
X035000Y-041750
X035000Y-049250
X035000Y-051750
X035000Y-059250
X035000Y-061750
X035000Y-069250
X035400Y-030414
X035900Y-029548
X036000Y-041750
X036000Y-049250
X036000Y-051750
X036000Y-059250
X036000Y-061750
X036000Y-069250
X037500Y-039250
X038500Y-039250
X039500Y-023750
X039500Y-024750
X039500Y-025750
X039500Y-026750
X039500Y-027750
X039500Y-028750
X039500Y-039250
X040500Y-039250
X040750Y-044161
X040750Y-046839
X040750Y-054161
X040750Y-056839
X040750Y-064161
X040750Y-066839
X041000Y-025500
X041000Y-026500
X041000Y-027500
X041000Y-028500
X041000Y-029500
X041500Y-039250
X043000Y-041750
X043000Y-049250
X043000Y-051750
X043000Y-059250
X043000Y-061750
X043000Y-069250
X043100Y-029548
X043600Y-030414
X044000Y-041750
X044000Y-049250
X044000Y-051750
X044000Y-059250
X044000Y-061750
X044000Y-069250
X044100Y-031280
X044500Y-036000
X044500Y-037000
X044500Y-038000
X044600Y-032146
X045000Y-041750
X045000Y-049250
X045000Y-051750
X045000Y-059250
X045000Y-061750
X045000Y-069250
X045100Y-033012
X045500Y-036000
X045500Y-037000
X045500Y-038000
X046000Y-041750
X046000Y-049250
X046000Y-051750
X046000Y-059250
X046000Y-061750
X046000Y-069250
X047000Y-041750
X047000Y-049250
X047000Y-051750
X047000Y-059250
X047000Y-061750
X047000Y-069250
X048000Y-039500
X049000Y-039500
T4
X030000Y-042000
X030000Y-052000
X030000Y-062000
X035750Y-033250
X038000Y-049000
X038000Y-059000
X038000Y-069000
X041000Y-042000
X041000Y-052000
X041000Y-062000
X043250Y-033250
X049000Y-049000
X049000Y-059000
X049000Y-069000
T0
M30
