%FSLAX34Y34*%
G04 Gerber Fmt 3.4, Leading zero omitted, Abs format*
G04 (created by PCBNEW (2014-02-03 BZR 4657)-product) date Thu 13 Mar 2014 03:57:06 PM CDT*
%MOIN*%
G01*
G70*
G90*
G04 APERTURE LIST*
%ADD10C,0.006000*%
%ADD11C,0.098425*%
%ADD12R,0.070866X0.070866*%
%ADD13C,0.070866*%
%ADD14C,0.035433*%
%ADD15R,0.066929X0.066929*%
%ADD16C,0.066929*%
%ADD17C,0.030000*%
%ADD18C,0.035000*%
%ADD19C,0.010000*%
%ADD20C,0.020000*%
G04 APERTURE END LIST*
G54D10*
G54D11*
X41000Y-42000D03*
X49000Y-49000D03*
G54D12*
X43000Y-41750D03*
G54D13*
X44000Y-41750D03*
X45000Y-41750D03*
X47000Y-41750D03*
X46000Y-41750D03*
G54D12*
X43000Y-49250D03*
G54D13*
X44000Y-49250D03*
X45000Y-49250D03*
X47000Y-49250D03*
X46000Y-49250D03*
G54D12*
X43000Y-59250D03*
G54D13*
X44000Y-59250D03*
X45000Y-59250D03*
X47000Y-59250D03*
X46000Y-59250D03*
G54D12*
X43000Y-51750D03*
G54D13*
X44000Y-51750D03*
X45000Y-51750D03*
X47000Y-51750D03*
X46000Y-51750D03*
G54D11*
X49000Y-59000D03*
X41000Y-52000D03*
X41000Y-62000D03*
X49000Y-69000D03*
G54D12*
X43000Y-61750D03*
G54D13*
X44000Y-61750D03*
X45000Y-61750D03*
X47000Y-61750D03*
X46000Y-61750D03*
G54D12*
X43000Y-69250D03*
G54D13*
X44000Y-69250D03*
X45000Y-69250D03*
X47000Y-69250D03*
X46000Y-69250D03*
G54D14*
X40750Y-56838D03*
X40750Y-54161D03*
X40750Y-66838D03*
X40750Y-64161D03*
G54D12*
X32000Y-69250D03*
G54D13*
X33000Y-69250D03*
X34000Y-69250D03*
X36000Y-69250D03*
X35000Y-69250D03*
G54D12*
X32000Y-61750D03*
G54D13*
X33000Y-61750D03*
X34000Y-61750D03*
X36000Y-61750D03*
X35000Y-61750D03*
G54D14*
X29750Y-66838D03*
X29750Y-64161D03*
G54D11*
X38000Y-69000D03*
X30000Y-62000D03*
X30000Y-52000D03*
X38000Y-59000D03*
G54D14*
X29750Y-56838D03*
X29750Y-54161D03*
G54D12*
X32000Y-51750D03*
G54D13*
X33000Y-51750D03*
X34000Y-51750D03*
X36000Y-51750D03*
X35000Y-51750D03*
G54D12*
X32000Y-59250D03*
G54D13*
X33000Y-59250D03*
X34000Y-59250D03*
X36000Y-59250D03*
X35000Y-59250D03*
G54D14*
X40750Y-46838D03*
X40750Y-44161D03*
G54D12*
X48000Y-39500D03*
G54D13*
X49000Y-39500D03*
G54D12*
X32000Y-49250D03*
G54D13*
X33000Y-49250D03*
X34000Y-49250D03*
X36000Y-49250D03*
X35000Y-49250D03*
G54D12*
X30000Y-39500D03*
G54D13*
X31000Y-39500D03*
G54D15*
X44500Y-36000D03*
G54D16*
X45500Y-36000D03*
X44500Y-37000D03*
X45500Y-37000D03*
X44500Y-38000D03*
X45500Y-38000D03*
G54D12*
X39500Y-28750D03*
G54D13*
X39500Y-27750D03*
X39500Y-26750D03*
X39500Y-24750D03*
X39500Y-23750D03*
X39500Y-25750D03*
G54D12*
X37500Y-39250D03*
G54D13*
X38500Y-39250D03*
X39500Y-39250D03*
X41500Y-39250D03*
X40500Y-39250D03*
G54D10*
G36*
X35770Y-29063D02*
X36384Y-29418D01*
X36029Y-30031D01*
X35415Y-29677D01*
X35770Y-29063D01*
X35770Y-29063D01*
G37*
G54D13*
X35400Y-30413D03*
X34900Y-31280D03*
X33900Y-33012D03*
X34400Y-32146D03*
G54D10*
G36*
X45584Y-33141D02*
X44970Y-33496D01*
X44615Y-32882D01*
X45229Y-32528D01*
X45584Y-33141D01*
X45584Y-33141D01*
G37*
G54D13*
X44600Y-32146D03*
X44100Y-31280D03*
X43100Y-29547D03*
X43600Y-30413D03*
G54D12*
X32000Y-41750D03*
G54D13*
X33000Y-41750D03*
X34000Y-41750D03*
X36000Y-41750D03*
X35000Y-41750D03*
G54D14*
X29750Y-46838D03*
X29750Y-44161D03*
G54D12*
X41000Y-29500D03*
G54D13*
X41000Y-28500D03*
X41000Y-27500D03*
X41000Y-25500D03*
X41000Y-26500D03*
G54D11*
X35750Y-33250D03*
X43250Y-33250D03*
X38000Y-49000D03*
X30000Y-42000D03*
G54D17*
X39400Y-33200D03*
X38200Y-29050D03*
X38750Y-32450D03*
X42100Y-32400D03*
X37000Y-32300D03*
X38150Y-33100D03*
X41000Y-47750D03*
X41000Y-57750D03*
X41000Y-67750D03*
X30000Y-67750D03*
X30000Y-57750D03*
X30000Y-47750D03*
X47750Y-42250D03*
X47500Y-46500D03*
X47500Y-56500D03*
X47750Y-52250D03*
X47750Y-62250D03*
X47500Y-66500D03*
X36500Y-66500D03*
X36750Y-62250D03*
X36750Y-52250D03*
X36500Y-56500D03*
X36500Y-46500D03*
X36750Y-42250D03*
X47250Y-42750D03*
X47250Y-52750D03*
X47250Y-62750D03*
X36250Y-62750D03*
X36250Y-52750D03*
X36250Y-42750D03*
X40500Y-45500D03*
X40500Y-55500D03*
X40500Y-65500D03*
X29500Y-65500D03*
X29500Y-55500D03*
X29500Y-45500D03*
X39800Y-31950D03*
X35750Y-31150D03*
X39050Y-32100D03*
X38300Y-28300D03*
X37600Y-31750D03*
X38300Y-27850D03*
X38400Y-32750D03*
G54D18*
X42700Y-38150D03*
G54D17*
X41000Y-45500D03*
X46500Y-45500D03*
X46500Y-55500D03*
X41000Y-55500D03*
X41000Y-65500D03*
X46500Y-65500D03*
X35500Y-65500D03*
X30000Y-65500D03*
X30000Y-55500D03*
X35500Y-55500D03*
X35500Y-45500D03*
X30000Y-45500D03*
X42000Y-43500D03*
X42000Y-53500D03*
X42000Y-63500D03*
X31000Y-63500D03*
X31000Y-53500D03*
X31000Y-43500D03*
X37350Y-27300D03*
X43250Y-37800D03*
X37500Y-36000D03*
G54D19*
X43600Y-37100D02*
X44500Y-38000D01*
X43600Y-35000D02*
X43600Y-37100D01*
X43150Y-34550D02*
X43600Y-35000D01*
X42000Y-34550D02*
X43150Y-34550D01*
X41250Y-33800D02*
X42000Y-34550D01*
X40000Y-33800D02*
X41250Y-33800D01*
X39400Y-33200D02*
X40000Y-33800D01*
X38200Y-31900D02*
X38200Y-29050D01*
X38750Y-32450D02*
X38200Y-31900D01*
X43850Y-36350D02*
X44500Y-37000D01*
X43850Y-34850D02*
X43850Y-36350D01*
X43300Y-34300D02*
X43850Y-34850D01*
X42150Y-34300D02*
X43300Y-34300D01*
X41400Y-33550D02*
X42150Y-34300D01*
X41400Y-33100D02*
X41400Y-33550D01*
X42100Y-32400D02*
X41400Y-33100D01*
X39700Y-38450D02*
X40500Y-39250D01*
X36200Y-38450D02*
X39700Y-38450D01*
X35650Y-37900D02*
X36200Y-38450D01*
X35650Y-35600D02*
X35650Y-37900D01*
X37700Y-33550D02*
X35650Y-35600D01*
X37700Y-33000D02*
X37700Y-33550D01*
X37000Y-32300D02*
X37700Y-33000D01*
X38975Y-32775D02*
X39450Y-32300D01*
X39450Y-31600D02*
X40000Y-31050D01*
X39450Y-32300D02*
X39450Y-31600D01*
X43600Y-30413D02*
X43600Y-30450D01*
X43600Y-30450D02*
X43000Y-31050D01*
X43000Y-31050D02*
X40000Y-31050D01*
X38600Y-33150D02*
X38975Y-32775D01*
X38200Y-33150D02*
X38600Y-33150D01*
X38150Y-33100D02*
X38200Y-33150D01*
X47250Y-46250D02*
X47250Y-43500D01*
X47250Y-43500D02*
X47750Y-43000D01*
X47750Y-43000D02*
X47750Y-42250D01*
X47250Y-46250D02*
X47500Y-46500D01*
X47250Y-56250D02*
X47500Y-56500D01*
X47750Y-53000D02*
X47750Y-52250D01*
X47250Y-53500D02*
X47750Y-53000D01*
X47250Y-56250D02*
X47250Y-53500D01*
X47250Y-66250D02*
X47250Y-63500D01*
X47250Y-63500D02*
X47750Y-63000D01*
X47750Y-63000D02*
X47750Y-62250D01*
X47250Y-66250D02*
X47500Y-66500D01*
X36250Y-66250D02*
X36500Y-66500D01*
X36750Y-63000D02*
X36750Y-62250D01*
X36250Y-63500D02*
X36750Y-63000D01*
X36250Y-66250D02*
X36250Y-63500D01*
X36250Y-56250D02*
X36250Y-53500D01*
X36250Y-53500D02*
X36750Y-53000D01*
X36750Y-53000D02*
X36750Y-52250D01*
X36250Y-56250D02*
X36500Y-56500D01*
X36250Y-46250D02*
X36500Y-46500D01*
X36750Y-43000D02*
X36750Y-42250D01*
X36250Y-43500D02*
X36750Y-43000D01*
X36250Y-46250D02*
X36250Y-43500D01*
X47000Y-43000D02*
X47250Y-42750D01*
X47000Y-49250D02*
X47000Y-43000D01*
X47000Y-59250D02*
X47000Y-53000D01*
X47000Y-53000D02*
X47250Y-52750D01*
X47000Y-63000D02*
X47250Y-62750D01*
X47000Y-69250D02*
X47000Y-63000D01*
X36000Y-69250D02*
X36000Y-63000D01*
X36000Y-63000D02*
X36250Y-62750D01*
X36000Y-53000D02*
X36250Y-52750D01*
X36000Y-59250D02*
X36000Y-53000D01*
X36000Y-49250D02*
X36000Y-43000D01*
X36000Y-43000D02*
X36250Y-42750D01*
X47000Y-42250D02*
X46750Y-42500D01*
X46750Y-42500D02*
X46750Y-44500D01*
X46750Y-44500D02*
X46000Y-45250D01*
X46000Y-45250D02*
X45500Y-45250D01*
X45500Y-45250D02*
X44250Y-46500D01*
X44250Y-46500D02*
X43750Y-46500D01*
X43750Y-46500D02*
X42500Y-45250D01*
X42500Y-45250D02*
X41250Y-45250D01*
X41250Y-45250D02*
X41000Y-45000D01*
X41000Y-45000D02*
X40750Y-45000D01*
X40750Y-45000D02*
X40500Y-45250D01*
X40500Y-45250D02*
X40500Y-45500D01*
X47000Y-41750D02*
X47000Y-42250D01*
X47000Y-51750D02*
X47000Y-52250D01*
X40500Y-55250D02*
X40500Y-55500D01*
X40750Y-55000D02*
X40500Y-55250D01*
X41000Y-55000D02*
X40750Y-55000D01*
X41250Y-55250D02*
X41000Y-55000D01*
X42500Y-55250D02*
X41250Y-55250D01*
X43750Y-56500D02*
X42500Y-55250D01*
X44250Y-56500D02*
X43750Y-56500D01*
X45500Y-55250D02*
X44250Y-56500D01*
X46000Y-55250D02*
X45500Y-55250D01*
X46750Y-54500D02*
X46000Y-55250D01*
X46750Y-52500D02*
X46750Y-54500D01*
X47000Y-52250D02*
X46750Y-52500D01*
X47000Y-62250D02*
X46750Y-62500D01*
X46750Y-62500D02*
X46750Y-64500D01*
X46750Y-64500D02*
X46000Y-65250D01*
X46000Y-65250D02*
X45500Y-65250D01*
X45500Y-65250D02*
X44250Y-66500D01*
X44250Y-66500D02*
X43750Y-66500D01*
X43750Y-66500D02*
X42500Y-65250D01*
X42500Y-65250D02*
X41250Y-65250D01*
X41250Y-65250D02*
X41000Y-65000D01*
X41000Y-65000D02*
X40750Y-65000D01*
X40750Y-65000D02*
X40500Y-65250D01*
X40500Y-65250D02*
X40500Y-65500D01*
X47000Y-61750D02*
X47000Y-62250D01*
X36000Y-61750D02*
X36000Y-62250D01*
X29500Y-65250D02*
X29500Y-65500D01*
X29750Y-65000D02*
X29500Y-65250D01*
X30000Y-65000D02*
X29750Y-65000D01*
X30250Y-65250D02*
X30000Y-65000D01*
X31500Y-65250D02*
X30250Y-65250D01*
X32750Y-66500D02*
X31500Y-65250D01*
X33250Y-66500D02*
X32750Y-66500D01*
X34500Y-65250D02*
X33250Y-66500D01*
X35000Y-65250D02*
X34500Y-65250D01*
X35750Y-64500D02*
X35000Y-65250D01*
X35750Y-62500D02*
X35750Y-64500D01*
X36000Y-62250D02*
X35750Y-62500D01*
X36000Y-52250D02*
X35750Y-52500D01*
X35750Y-52500D02*
X35750Y-54500D01*
X35750Y-54500D02*
X35000Y-55250D01*
X35000Y-55250D02*
X34500Y-55250D01*
X34500Y-55250D02*
X33250Y-56500D01*
X33250Y-56500D02*
X32750Y-56500D01*
X32750Y-56500D02*
X31500Y-55250D01*
X31500Y-55250D02*
X30250Y-55250D01*
X30250Y-55250D02*
X30000Y-55000D01*
X30000Y-55000D02*
X29750Y-55000D01*
X29750Y-55000D02*
X29500Y-55250D01*
X29500Y-55250D02*
X29500Y-55500D01*
X36000Y-51750D02*
X36000Y-52250D01*
X36000Y-41750D02*
X36000Y-42250D01*
X29500Y-45250D02*
X29500Y-45500D01*
X29750Y-45000D02*
X29500Y-45250D01*
X30000Y-45000D02*
X29750Y-45000D01*
X30250Y-45250D02*
X30000Y-45000D01*
X31500Y-45250D02*
X30250Y-45250D01*
X32750Y-46500D02*
X31500Y-45250D01*
X33250Y-46500D02*
X32750Y-46500D01*
X34500Y-45250D02*
X33250Y-46500D01*
X35000Y-45250D02*
X34500Y-45250D01*
X35750Y-44500D02*
X35000Y-45250D01*
X35750Y-42500D02*
X35750Y-44500D01*
X36000Y-42250D02*
X35750Y-42500D01*
X41500Y-39250D02*
X41500Y-38900D01*
X39800Y-32300D02*
X39800Y-31950D01*
X38650Y-33450D02*
X39800Y-32300D01*
X38200Y-33450D02*
X38650Y-33450D01*
X35900Y-35750D02*
X38200Y-33450D01*
X35900Y-37750D02*
X35900Y-35750D01*
X36350Y-38200D02*
X35900Y-37750D01*
X40800Y-38200D02*
X36350Y-38200D01*
X41500Y-38900D02*
X40800Y-38200D01*
X33900Y-33012D02*
X34537Y-33012D01*
X35750Y-31800D02*
X35750Y-31150D01*
X34537Y-33012D02*
X35750Y-31800D01*
X42850Y-29797D02*
X43100Y-29547D01*
X42850Y-30500D02*
X42850Y-29797D01*
X42550Y-30800D02*
X42850Y-30500D01*
X39900Y-30800D02*
X42550Y-30800D01*
X39150Y-31550D02*
X39900Y-30800D01*
X39150Y-32000D02*
X39150Y-31550D01*
X39050Y-32100D02*
X39150Y-32000D01*
X37850Y-29050D02*
X37850Y-28750D01*
X37850Y-28750D02*
X38300Y-28300D01*
X37850Y-29150D02*
X37850Y-29050D01*
X37950Y-29250D02*
X37850Y-29150D01*
X37950Y-31400D02*
X37950Y-29250D01*
X37600Y-31750D02*
X37950Y-31400D01*
X37600Y-28550D02*
X37600Y-28850D01*
X38300Y-27850D02*
X37600Y-28550D01*
X37600Y-29350D02*
X37600Y-28850D01*
X37700Y-29450D02*
X37600Y-29350D01*
X37700Y-31150D02*
X37700Y-29450D01*
X37250Y-31600D02*
X37700Y-31150D01*
X37250Y-31850D02*
X37250Y-31600D01*
X37600Y-32200D02*
X37250Y-31850D01*
X37850Y-32200D02*
X37600Y-32200D01*
X38400Y-32750D02*
X37850Y-32200D01*
G54D20*
X45100Y-33950D02*
X45100Y-33012D01*
X46850Y-35700D02*
X45100Y-33950D01*
X46850Y-38500D02*
X46850Y-35700D01*
X46150Y-39200D02*
X46850Y-38500D01*
X43750Y-39200D02*
X46150Y-39200D01*
X42700Y-38150D02*
X43750Y-39200D01*
X37500Y-39250D02*
X36300Y-39250D01*
X36450Y-30097D02*
X35900Y-29547D01*
X36450Y-32450D02*
X36450Y-30097D01*
X37000Y-33000D02*
X36450Y-32450D01*
X37000Y-33650D02*
X37000Y-33000D01*
X35200Y-35450D02*
X37000Y-33650D01*
X35200Y-38150D02*
X35200Y-35450D01*
X36300Y-39250D02*
X35200Y-38150D01*
G54D19*
X41000Y-45500D02*
X42250Y-45500D01*
X42250Y-45500D02*
X44000Y-47250D01*
X44000Y-47250D02*
X44000Y-49250D01*
X45750Y-45500D02*
X46500Y-45500D01*
X44000Y-47250D02*
X45750Y-45500D01*
X44000Y-57250D02*
X45750Y-55500D01*
X45750Y-55500D02*
X46500Y-55500D01*
X44000Y-57250D02*
X44000Y-59250D01*
X42250Y-55500D02*
X44000Y-57250D01*
X41000Y-55500D02*
X42250Y-55500D01*
X41000Y-65500D02*
X42250Y-65500D01*
X42250Y-65500D02*
X44000Y-67250D01*
X44000Y-67250D02*
X44000Y-69250D01*
X45750Y-65500D02*
X46500Y-65500D01*
X44000Y-67250D02*
X45750Y-65500D01*
X33000Y-67250D02*
X34750Y-65500D01*
X34750Y-65500D02*
X35500Y-65500D01*
X33000Y-67250D02*
X33000Y-69250D01*
X31250Y-65500D02*
X33000Y-67250D01*
X30000Y-65500D02*
X31250Y-65500D01*
X30000Y-55500D02*
X31250Y-55500D01*
X31250Y-55500D02*
X33000Y-57250D01*
X33000Y-57250D02*
X33000Y-59250D01*
X34750Y-55500D02*
X35500Y-55500D01*
X33000Y-57250D02*
X34750Y-55500D01*
X33000Y-47250D02*
X34750Y-45500D01*
X34750Y-45500D02*
X35500Y-45500D01*
X33000Y-47250D02*
X33000Y-49250D01*
X31250Y-45500D02*
X33000Y-47250D01*
X30000Y-45500D02*
X31250Y-45500D01*
X44000Y-42500D02*
X43750Y-42750D01*
X43750Y-42750D02*
X42750Y-42750D01*
X42750Y-42750D02*
X42000Y-43500D01*
X44000Y-41750D02*
X44000Y-42500D01*
X44000Y-51750D02*
X44000Y-52500D01*
X42750Y-52750D02*
X42000Y-53500D01*
X43750Y-52750D02*
X42750Y-52750D01*
X44000Y-52500D02*
X43750Y-52750D01*
X44000Y-62500D02*
X43750Y-62750D01*
X43750Y-62750D02*
X42750Y-62750D01*
X42750Y-62750D02*
X42000Y-63500D01*
X44000Y-61750D02*
X44000Y-62500D01*
X33000Y-61750D02*
X33000Y-62500D01*
X31750Y-62750D02*
X31000Y-63500D01*
X32750Y-62750D02*
X31750Y-62750D01*
X33000Y-62500D02*
X32750Y-62750D01*
X33000Y-52500D02*
X32750Y-52750D01*
X32750Y-52750D02*
X31750Y-52750D01*
X31750Y-52750D02*
X31000Y-53500D01*
X33000Y-51750D02*
X33000Y-52500D01*
X33000Y-41750D02*
X33000Y-42500D01*
X31750Y-42750D02*
X31000Y-43500D01*
X32750Y-42750D02*
X31750Y-42750D01*
X33000Y-42500D02*
X32750Y-42750D01*
X39500Y-27750D02*
X39150Y-27750D01*
X38700Y-27300D02*
X37350Y-27300D01*
X39150Y-27750D02*
X38700Y-27300D01*
X45500Y-38000D02*
X45500Y-38450D01*
X44150Y-38700D02*
X43250Y-37800D01*
X45250Y-38700D02*
X44150Y-38700D01*
X45500Y-38450D02*
X45250Y-38700D01*
G54D10*
G36*
X37025Y-39825D02*
X34550Y-39825D01*
X34550Y-39800D01*
X33450Y-39800D01*
X33450Y-39825D01*
X31512Y-39825D01*
X31526Y-39820D01*
X31608Y-39594D01*
X31598Y-39354D01*
X31526Y-39179D01*
X31425Y-39145D01*
X31354Y-39216D01*
X31070Y-39500D01*
X31076Y-39505D01*
X31005Y-39576D01*
X31000Y-39570D01*
X30994Y-39576D01*
X30923Y-39505D01*
X30929Y-39500D01*
X30923Y-39494D01*
X30994Y-39423D01*
X31000Y-39429D01*
X31354Y-39074D01*
X31320Y-38973D01*
X31094Y-38891D01*
X30854Y-38901D01*
X30679Y-38973D01*
X30645Y-39074D01*
X30600Y-39029D01*
X30583Y-39046D01*
X30566Y-39004D01*
X30495Y-38933D01*
X30404Y-38895D01*
X30304Y-38895D01*
X29839Y-38895D01*
X34301Y-31160D01*
X34283Y-31294D01*
X34354Y-31374D01*
X34803Y-31254D01*
X34823Y-31274D01*
X34894Y-31203D01*
X34803Y-31112D01*
X34708Y-30760D01*
X34604Y-30739D01*
X34509Y-30818D01*
X34502Y-30812D01*
X35165Y-29662D01*
X35161Y-29694D01*
X35187Y-29790D01*
X35247Y-29869D01*
X35317Y-29909D01*
X35300Y-29909D01*
X35114Y-29986D01*
X34972Y-30127D01*
X34895Y-30313D01*
X34895Y-30513D01*
X34961Y-30674D01*
X34885Y-30663D01*
X34805Y-30734D01*
X34925Y-31183D01*
X34905Y-31203D01*
X34976Y-31274D01*
X35067Y-31183D01*
X35419Y-31088D01*
X35440Y-30984D01*
X35385Y-30918D01*
X35499Y-30918D01*
X35685Y-30841D01*
X35827Y-30700D01*
X35904Y-30514D01*
X35904Y-30314D01*
X35868Y-30227D01*
X35947Y-30273D01*
X36046Y-30286D01*
X36100Y-30271D01*
X36100Y-32450D01*
X36126Y-32583D01*
X36202Y-32697D01*
X36650Y-33144D01*
X36650Y-33505D01*
X36392Y-33762D01*
X36392Y-33122D01*
X36294Y-32886D01*
X36114Y-32705D01*
X36050Y-32679D01*
X36050Y-31090D01*
X36004Y-30980D01*
X35920Y-30895D01*
X35809Y-30850D01*
X35690Y-30849D01*
X35580Y-30895D01*
X35495Y-30979D01*
X35450Y-31090D01*
X35449Y-31190D01*
X35445Y-31185D01*
X34961Y-31315D01*
X35091Y-31799D01*
X35195Y-31820D01*
X35379Y-31666D01*
X35491Y-31453D01*
X35507Y-31331D01*
X35550Y-31374D01*
X35550Y-31717D01*
X34455Y-32812D01*
X34363Y-32812D01*
X34327Y-32726D01*
X34217Y-32616D01*
X34299Y-32650D01*
X34499Y-32650D01*
X34685Y-32573D01*
X34827Y-32432D01*
X34904Y-32246D01*
X34904Y-32046D01*
X34838Y-31885D01*
X34914Y-31896D01*
X34994Y-31825D01*
X34874Y-31376D01*
X34894Y-31356D01*
X34823Y-31285D01*
X34732Y-31376D01*
X34380Y-31471D01*
X34359Y-31575D01*
X34414Y-31641D01*
X34300Y-31641D01*
X34114Y-31718D01*
X33972Y-31859D01*
X33895Y-32045D01*
X33895Y-32245D01*
X33972Y-32431D01*
X34082Y-32541D01*
X34000Y-32507D01*
X33800Y-32507D01*
X33614Y-32584D01*
X33472Y-32725D01*
X33395Y-32911D01*
X33395Y-33111D01*
X33472Y-33297D01*
X33613Y-33439D01*
X33799Y-33516D01*
X33999Y-33516D01*
X34185Y-33439D01*
X34327Y-33298D01*
X34363Y-33212D01*
X34537Y-33212D01*
X34614Y-33196D01*
X34679Y-33153D01*
X35891Y-31941D01*
X35891Y-31941D01*
X35934Y-31876D01*
X35950Y-31800D01*
X35950Y-31374D01*
X36004Y-31320D01*
X36049Y-31209D01*
X36050Y-31090D01*
X36050Y-32679D01*
X35878Y-32607D01*
X35622Y-32607D01*
X35386Y-32705D01*
X35205Y-32885D01*
X35107Y-33121D01*
X35107Y-33377D01*
X35205Y-33613D01*
X35385Y-33794D01*
X35621Y-33892D01*
X35877Y-33892D01*
X36113Y-33794D01*
X36294Y-33614D01*
X36392Y-33378D01*
X36392Y-33122D01*
X36392Y-33762D01*
X34952Y-35202D01*
X34876Y-35316D01*
X34850Y-35450D01*
X34850Y-38150D01*
X34876Y-38283D01*
X34952Y-38397D01*
X36052Y-39497D01*
X36166Y-39573D01*
X36166Y-39573D01*
X36300Y-39600D01*
X36895Y-39600D01*
X36895Y-39654D01*
X36933Y-39745D01*
X37004Y-39816D01*
X37025Y-39825D01*
X37025Y-39825D01*
G37*
G54D19*
X37025Y-39825D02*
X34550Y-39825D01*
X34550Y-39800D01*
X33450Y-39800D01*
X33450Y-39825D01*
X31512Y-39825D01*
X31526Y-39820D01*
X31608Y-39594D01*
X31598Y-39354D01*
X31526Y-39179D01*
X31425Y-39145D01*
X31354Y-39216D01*
X31070Y-39500D01*
X31076Y-39505D01*
X31005Y-39576D01*
X31000Y-39570D01*
X30994Y-39576D01*
X30923Y-39505D01*
X30929Y-39500D01*
X30923Y-39494D01*
X30994Y-39423D01*
X31000Y-39429D01*
X31354Y-39074D01*
X31320Y-38973D01*
X31094Y-38891D01*
X30854Y-38901D01*
X30679Y-38973D01*
X30645Y-39074D01*
X30600Y-39029D01*
X30583Y-39046D01*
X30566Y-39004D01*
X30495Y-38933D01*
X30404Y-38895D01*
X30304Y-38895D01*
X29839Y-38895D01*
X34301Y-31160D01*
X34283Y-31294D01*
X34354Y-31374D01*
X34803Y-31254D01*
X34823Y-31274D01*
X34894Y-31203D01*
X34803Y-31112D01*
X34708Y-30760D01*
X34604Y-30739D01*
X34509Y-30818D01*
X34502Y-30812D01*
X35165Y-29662D01*
X35161Y-29694D01*
X35187Y-29790D01*
X35247Y-29869D01*
X35317Y-29909D01*
X35300Y-29909D01*
X35114Y-29986D01*
X34972Y-30127D01*
X34895Y-30313D01*
X34895Y-30513D01*
X34961Y-30674D01*
X34885Y-30663D01*
X34805Y-30734D01*
X34925Y-31183D01*
X34905Y-31203D01*
X34976Y-31274D01*
X35067Y-31183D01*
X35419Y-31088D01*
X35440Y-30984D01*
X35385Y-30918D01*
X35499Y-30918D01*
X35685Y-30841D01*
X35827Y-30700D01*
X35904Y-30514D01*
X35904Y-30314D01*
X35868Y-30227D01*
X35947Y-30273D01*
X36046Y-30286D01*
X36100Y-30271D01*
X36100Y-32450D01*
X36126Y-32583D01*
X36202Y-32697D01*
X36650Y-33144D01*
X36650Y-33505D01*
X36392Y-33762D01*
X36392Y-33122D01*
X36294Y-32886D01*
X36114Y-32705D01*
X36050Y-32679D01*
X36050Y-31090D01*
X36004Y-30980D01*
X35920Y-30895D01*
X35809Y-30850D01*
X35690Y-30849D01*
X35580Y-30895D01*
X35495Y-30979D01*
X35450Y-31090D01*
X35449Y-31190D01*
X35445Y-31185D01*
X34961Y-31315D01*
X35091Y-31799D01*
X35195Y-31820D01*
X35379Y-31666D01*
X35491Y-31453D01*
X35507Y-31331D01*
X35550Y-31374D01*
X35550Y-31717D01*
X34455Y-32812D01*
X34363Y-32812D01*
X34327Y-32726D01*
X34217Y-32616D01*
X34299Y-32650D01*
X34499Y-32650D01*
X34685Y-32573D01*
X34827Y-32432D01*
X34904Y-32246D01*
X34904Y-32046D01*
X34838Y-31885D01*
X34914Y-31896D01*
X34994Y-31825D01*
X34874Y-31376D01*
X34894Y-31356D01*
X34823Y-31285D01*
X34732Y-31376D01*
X34380Y-31471D01*
X34359Y-31575D01*
X34414Y-31641D01*
X34300Y-31641D01*
X34114Y-31718D01*
X33972Y-31859D01*
X33895Y-32045D01*
X33895Y-32245D01*
X33972Y-32431D01*
X34082Y-32541D01*
X34000Y-32507D01*
X33800Y-32507D01*
X33614Y-32584D01*
X33472Y-32725D01*
X33395Y-32911D01*
X33395Y-33111D01*
X33472Y-33297D01*
X33613Y-33439D01*
X33799Y-33516D01*
X33999Y-33516D01*
X34185Y-33439D01*
X34327Y-33298D01*
X34363Y-33212D01*
X34537Y-33212D01*
X34614Y-33196D01*
X34679Y-33153D01*
X35891Y-31941D01*
X35891Y-31941D01*
X35934Y-31876D01*
X35950Y-31800D01*
X35950Y-31374D01*
X36004Y-31320D01*
X36049Y-31209D01*
X36050Y-31090D01*
X36050Y-32679D01*
X35878Y-32607D01*
X35622Y-32607D01*
X35386Y-32705D01*
X35205Y-32885D01*
X35107Y-33121D01*
X35107Y-33377D01*
X35205Y-33613D01*
X35385Y-33794D01*
X35621Y-33892D01*
X35877Y-33892D01*
X36113Y-33794D01*
X36294Y-33614D01*
X36392Y-33378D01*
X36392Y-33122D01*
X36392Y-33762D01*
X34952Y-35202D01*
X34876Y-35316D01*
X34850Y-35450D01*
X34850Y-38150D01*
X34876Y-38283D01*
X34952Y-38397D01*
X36052Y-39497D01*
X36166Y-39573D01*
X36166Y-39573D01*
X36300Y-39600D01*
X36895Y-39600D01*
X36895Y-39654D01*
X36933Y-39745D01*
X37004Y-39816D01*
X37025Y-39825D01*
G54D10*
G36*
X49175Y-38920D02*
X49094Y-38891D01*
X48854Y-38901D01*
X48679Y-38973D01*
X48645Y-39074D01*
X49000Y-39429D01*
X49005Y-39423D01*
X49076Y-39494D01*
X49070Y-39500D01*
X49076Y-39505D01*
X49005Y-39576D01*
X49000Y-39570D01*
X48994Y-39576D01*
X48923Y-39505D01*
X48929Y-39500D01*
X48574Y-39145D01*
X48504Y-39169D01*
X48504Y-39115D01*
X48481Y-39060D01*
X48439Y-39018D01*
X48384Y-38995D01*
X48324Y-38995D01*
X47615Y-38995D01*
X47560Y-39018D01*
X47518Y-39060D01*
X47495Y-39115D01*
X47495Y-39175D01*
X47495Y-39825D01*
X45550Y-39825D01*
X45550Y-39800D01*
X44450Y-39800D01*
X44450Y-39825D01*
X39702Y-39825D01*
X39820Y-39776D01*
X39854Y-39675D01*
X39500Y-39320D01*
X39145Y-39675D01*
X39179Y-39776D01*
X39312Y-39825D01*
X37974Y-39825D01*
X37995Y-39816D01*
X38066Y-39745D01*
X38104Y-39654D01*
X38104Y-39567D01*
X38213Y-39677D01*
X38399Y-39754D01*
X38599Y-39754D01*
X38785Y-39677D01*
X38927Y-39536D01*
X38943Y-39497D01*
X38973Y-39570D01*
X39074Y-39604D01*
X39429Y-39250D01*
X39074Y-38895D01*
X38973Y-38929D01*
X38945Y-39007D01*
X38927Y-38964D01*
X38786Y-38822D01*
X38600Y-38745D01*
X38400Y-38745D01*
X38214Y-38822D01*
X38104Y-38932D01*
X38104Y-38845D01*
X38066Y-38754D01*
X37995Y-38683D01*
X37914Y-38650D01*
X39384Y-38650D01*
X39354Y-38651D01*
X39179Y-38723D01*
X39145Y-38824D01*
X39500Y-39179D01*
X39505Y-39173D01*
X39576Y-39244D01*
X39570Y-39250D01*
X39925Y-39604D01*
X40026Y-39570D01*
X40054Y-39492D01*
X40072Y-39535D01*
X40213Y-39677D01*
X40399Y-39754D01*
X40599Y-39754D01*
X40785Y-39677D01*
X40927Y-39536D01*
X41000Y-39360D01*
X41072Y-39535D01*
X41213Y-39677D01*
X41399Y-39754D01*
X41599Y-39754D01*
X41785Y-39677D01*
X41927Y-39536D01*
X42004Y-39350D01*
X42004Y-39150D01*
X41927Y-38964D01*
X41786Y-38822D01*
X41645Y-38764D01*
X41641Y-38758D01*
X40941Y-38058D01*
X40876Y-38015D01*
X40800Y-38000D01*
X36432Y-38000D01*
X36100Y-37667D01*
X36100Y-35832D01*
X38282Y-33650D01*
X38650Y-33650D01*
X38726Y-33634D01*
X38791Y-33591D01*
X39106Y-33276D01*
X39145Y-33369D01*
X39229Y-33454D01*
X39340Y-33499D01*
X39417Y-33500D01*
X39858Y-33941D01*
X39858Y-33941D01*
X39901Y-33970D01*
X39923Y-33984D01*
X39923Y-33984D01*
X40000Y-34000D01*
X41167Y-34000D01*
X41858Y-34691D01*
X41923Y-34734D01*
X42000Y-34750D01*
X43067Y-34750D01*
X43400Y-35082D01*
X43400Y-37100D01*
X43415Y-37176D01*
X43458Y-37241D01*
X44046Y-37829D01*
X44015Y-37903D01*
X44015Y-38095D01*
X44088Y-38274D01*
X44225Y-38410D01*
X44403Y-38484D01*
X44595Y-38484D01*
X44774Y-38411D01*
X44910Y-38274D01*
X44943Y-38196D01*
X44990Y-38308D01*
X45088Y-38340D01*
X45429Y-38000D01*
X45088Y-37659D01*
X44990Y-37691D01*
X44946Y-37811D01*
X44911Y-37725D01*
X44774Y-37589D01*
X44596Y-37515D01*
X44404Y-37515D01*
X44329Y-37546D01*
X43800Y-37017D01*
X43800Y-36582D01*
X44046Y-36829D01*
X44015Y-36903D01*
X44015Y-37095D01*
X44088Y-37274D01*
X44225Y-37410D01*
X44403Y-37484D01*
X44595Y-37484D01*
X44774Y-37411D01*
X44910Y-37274D01*
X44984Y-37096D01*
X44984Y-36904D01*
X44911Y-36725D01*
X44774Y-36589D01*
X44596Y-36515D01*
X44404Y-36515D01*
X44329Y-36546D01*
X44267Y-36484D01*
X44864Y-36484D01*
X44919Y-36461D01*
X44961Y-36419D01*
X44984Y-36364D01*
X44984Y-36304D01*
X44984Y-35635D01*
X44961Y-35580D01*
X44919Y-35538D01*
X44864Y-35515D01*
X44804Y-35515D01*
X44135Y-35515D01*
X44080Y-35538D01*
X44050Y-35568D01*
X44050Y-34850D01*
X44037Y-34786D01*
X44034Y-34773D01*
X44034Y-34773D01*
X43991Y-34708D01*
X43892Y-34609D01*
X43892Y-33122D01*
X43794Y-32886D01*
X43614Y-32705D01*
X43378Y-32607D01*
X43122Y-32607D01*
X42886Y-32705D01*
X42705Y-32885D01*
X42607Y-33121D01*
X42607Y-33377D01*
X42705Y-33613D01*
X42885Y-33794D01*
X43121Y-33892D01*
X43377Y-33892D01*
X43613Y-33794D01*
X43794Y-33614D01*
X43892Y-33378D01*
X43892Y-33122D01*
X43892Y-34609D01*
X43441Y-34158D01*
X43376Y-34115D01*
X43300Y-34100D01*
X42232Y-34100D01*
X41600Y-33467D01*
X41600Y-33182D01*
X42082Y-32699D01*
X42159Y-32700D01*
X42269Y-32654D01*
X42354Y-32570D01*
X42399Y-32459D01*
X42400Y-32340D01*
X42354Y-32230D01*
X42270Y-32145D01*
X42159Y-32100D01*
X42040Y-32099D01*
X41930Y-32145D01*
X41845Y-32229D01*
X41800Y-32340D01*
X41799Y-32417D01*
X41258Y-32958D01*
X41215Y-33023D01*
X41200Y-33100D01*
X41200Y-33550D01*
X41209Y-33600D01*
X40082Y-33600D01*
X39699Y-33217D01*
X39700Y-33140D01*
X39654Y-33030D01*
X39570Y-32945D01*
X39476Y-32906D01*
X39941Y-32441D01*
X39984Y-32376D01*
X40000Y-32300D01*
X40000Y-32174D01*
X40054Y-32120D01*
X40099Y-32009D01*
X40100Y-31890D01*
X40054Y-31780D01*
X39970Y-31695D01*
X39859Y-31650D01*
X39740Y-31649D01*
X39650Y-31687D01*
X39650Y-31682D01*
X40082Y-31250D01*
X43000Y-31250D01*
X43076Y-31234D01*
X43141Y-31191D01*
X43439Y-30893D01*
X43499Y-30918D01*
X43610Y-30918D01*
X43559Y-30984D01*
X43580Y-31088D01*
X43932Y-31183D01*
X44023Y-31274D01*
X44094Y-31203D01*
X44074Y-31183D01*
X44194Y-30734D01*
X44114Y-30663D01*
X44036Y-30677D01*
X44104Y-30514D01*
X44104Y-30314D01*
X44027Y-30128D01*
X43886Y-29986D01*
X43700Y-29909D01*
X43500Y-29909D01*
X43417Y-29943D01*
X43527Y-29834D01*
X43604Y-29648D01*
X43604Y-29448D01*
X43527Y-29262D01*
X43386Y-29120D01*
X43200Y-29043D01*
X43000Y-29043D01*
X42814Y-29120D01*
X42672Y-29261D01*
X42595Y-29447D01*
X42595Y-29647D01*
X42652Y-29785D01*
X42650Y-29797D01*
X42650Y-30417D01*
X42467Y-30600D01*
X41604Y-30600D01*
X41604Y-29904D01*
X41604Y-29612D01*
X41541Y-29550D01*
X41050Y-29550D01*
X41050Y-30041D01*
X41112Y-30104D01*
X41304Y-30104D01*
X41404Y-30104D01*
X41495Y-30066D01*
X41566Y-29995D01*
X41604Y-29904D01*
X41604Y-30600D01*
X40950Y-30600D01*
X40950Y-30041D01*
X40950Y-29550D01*
X40458Y-29550D01*
X40395Y-29612D01*
X40395Y-29904D01*
X40433Y-29995D01*
X40504Y-30066D01*
X40595Y-30104D01*
X40695Y-30104D01*
X40887Y-30104D01*
X40950Y-30041D01*
X40950Y-30600D01*
X40108Y-30600D01*
X40108Y-27844D01*
X40098Y-27604D01*
X40026Y-27429D01*
X40004Y-27422D01*
X40004Y-26650D01*
X39927Y-26464D01*
X39786Y-26322D01*
X39610Y-26249D01*
X39785Y-26177D01*
X39927Y-26036D01*
X40004Y-25850D01*
X40004Y-25650D01*
X39927Y-25464D01*
X39786Y-25322D01*
X39610Y-25249D01*
X39785Y-25177D01*
X39927Y-25036D01*
X40004Y-24850D01*
X40004Y-24650D01*
X39927Y-24464D01*
X39786Y-24322D01*
X39610Y-24249D01*
X39785Y-24177D01*
X39927Y-24036D01*
X40004Y-23850D01*
X40004Y-23650D01*
X39927Y-23464D01*
X39786Y-23322D01*
X39600Y-23245D01*
X39400Y-23245D01*
X39214Y-23322D01*
X39072Y-23463D01*
X38995Y-23649D01*
X38995Y-23849D01*
X39072Y-24035D01*
X39213Y-24177D01*
X39389Y-24250D01*
X39214Y-24322D01*
X39072Y-24463D01*
X38995Y-24649D01*
X38995Y-24849D01*
X39072Y-25035D01*
X39213Y-25177D01*
X39389Y-25250D01*
X39214Y-25322D01*
X39072Y-25463D01*
X38995Y-25649D01*
X38995Y-25849D01*
X39072Y-26035D01*
X39213Y-26177D01*
X39389Y-26250D01*
X39214Y-26322D01*
X39072Y-26463D01*
X38995Y-26649D01*
X38995Y-26849D01*
X39072Y-27035D01*
X39213Y-27177D01*
X39252Y-27193D01*
X39179Y-27223D01*
X39145Y-27324D01*
X39500Y-27679D01*
X39854Y-27324D01*
X39820Y-27223D01*
X39742Y-27195D01*
X39785Y-27177D01*
X39927Y-27036D01*
X40004Y-26850D01*
X40004Y-26650D01*
X40004Y-27422D01*
X39925Y-27395D01*
X39570Y-27750D01*
X39576Y-27755D01*
X39505Y-27826D01*
X39500Y-27820D01*
X39494Y-27826D01*
X39429Y-27761D01*
X39423Y-27755D01*
X39429Y-27750D01*
X39074Y-27395D01*
X38973Y-27429D01*
X38891Y-27655D01*
X38901Y-27895D01*
X38973Y-28070D01*
X39074Y-28104D01*
X39029Y-28149D01*
X39046Y-28166D01*
X39004Y-28183D01*
X38933Y-28254D01*
X38895Y-28345D01*
X38895Y-28637D01*
X38958Y-28700D01*
X39450Y-28700D01*
X39450Y-28692D01*
X39550Y-28692D01*
X39550Y-28700D01*
X40041Y-28700D01*
X40104Y-28637D01*
X40104Y-28345D01*
X40066Y-28254D01*
X39995Y-28183D01*
X39953Y-28166D01*
X39970Y-28149D01*
X39925Y-28104D01*
X40026Y-28070D01*
X40108Y-27844D01*
X40108Y-30600D01*
X40104Y-30600D01*
X40104Y-29154D01*
X40104Y-28862D01*
X40041Y-28800D01*
X39550Y-28800D01*
X39550Y-29291D01*
X39612Y-29354D01*
X39804Y-29354D01*
X39904Y-29354D01*
X39995Y-29316D01*
X40066Y-29245D01*
X40104Y-29154D01*
X40104Y-30600D01*
X39900Y-30600D01*
X39823Y-30615D01*
X39758Y-30658D01*
X39450Y-30967D01*
X39450Y-29291D01*
X39450Y-28800D01*
X38958Y-28800D01*
X38895Y-28862D01*
X38895Y-29154D01*
X38933Y-29245D01*
X39004Y-29316D01*
X39095Y-29354D01*
X39195Y-29354D01*
X39387Y-29354D01*
X39450Y-29291D01*
X39450Y-30967D01*
X39008Y-31408D01*
X38965Y-31473D01*
X38950Y-31550D01*
X38950Y-31816D01*
X38880Y-31845D01*
X38795Y-31929D01*
X38750Y-32040D01*
X38749Y-32149D01*
X38732Y-32149D01*
X38400Y-31817D01*
X38400Y-29274D01*
X38454Y-29220D01*
X38499Y-29109D01*
X38500Y-28990D01*
X38454Y-28880D01*
X38370Y-28795D01*
X38259Y-28750D01*
X38140Y-28749D01*
X38127Y-28755D01*
X38282Y-28599D01*
X38359Y-28600D01*
X38469Y-28554D01*
X38554Y-28470D01*
X38599Y-28359D01*
X38600Y-28240D01*
X38554Y-28130D01*
X38499Y-28074D01*
X38554Y-28020D01*
X38599Y-27909D01*
X38600Y-27790D01*
X38554Y-27680D01*
X38470Y-27595D01*
X38359Y-27550D01*
X38240Y-27549D01*
X38130Y-27595D01*
X38045Y-27679D01*
X38000Y-27790D01*
X37999Y-27867D01*
X37458Y-28408D01*
X37415Y-28473D01*
X37400Y-28550D01*
X37400Y-28850D01*
X37400Y-29350D01*
X37415Y-29426D01*
X37458Y-29491D01*
X37500Y-29532D01*
X37500Y-31067D01*
X37108Y-31458D01*
X37065Y-31523D01*
X37050Y-31600D01*
X37050Y-31850D01*
X37065Y-31926D01*
X37108Y-31991D01*
X37157Y-32040D01*
X37059Y-32000D01*
X36940Y-31999D01*
X36830Y-32045D01*
X36800Y-32075D01*
X36800Y-30097D01*
X36773Y-29964D01*
X36697Y-29850D01*
X36523Y-29676D01*
X36625Y-29500D01*
X36638Y-29401D01*
X36612Y-29305D01*
X36552Y-29226D01*
X36465Y-29176D01*
X35852Y-28822D01*
X35753Y-28809D01*
X35657Y-28835D01*
X35631Y-28855D01*
X39499Y-22150D01*
X41154Y-25018D01*
X41100Y-24995D01*
X40900Y-24995D01*
X40714Y-25072D01*
X40572Y-25213D01*
X40495Y-25399D01*
X40495Y-25599D01*
X40572Y-25785D01*
X40713Y-25927D01*
X40889Y-26000D01*
X40714Y-26072D01*
X40572Y-26213D01*
X40495Y-26399D01*
X40495Y-26599D01*
X40572Y-26785D01*
X40713Y-26927D01*
X40889Y-27000D01*
X40714Y-27072D01*
X40572Y-27213D01*
X40495Y-27399D01*
X40495Y-27599D01*
X40572Y-27785D01*
X40713Y-27927D01*
X40889Y-28000D01*
X40714Y-28072D01*
X40572Y-28213D01*
X40495Y-28399D01*
X40495Y-28599D01*
X40572Y-28785D01*
X40682Y-28895D01*
X40595Y-28895D01*
X40504Y-28933D01*
X40433Y-29004D01*
X40395Y-29095D01*
X40395Y-29387D01*
X40458Y-29450D01*
X40950Y-29450D01*
X40950Y-29442D01*
X41050Y-29442D01*
X41050Y-29450D01*
X41541Y-29450D01*
X41604Y-29387D01*
X41604Y-29095D01*
X41566Y-29004D01*
X41495Y-28933D01*
X41404Y-28895D01*
X41317Y-28895D01*
X41427Y-28786D01*
X41504Y-28600D01*
X41504Y-28400D01*
X41427Y-28214D01*
X41286Y-28072D01*
X41110Y-27999D01*
X41285Y-27927D01*
X41427Y-27786D01*
X41504Y-27600D01*
X41504Y-27400D01*
X41427Y-27214D01*
X41286Y-27072D01*
X41110Y-26999D01*
X41285Y-26927D01*
X41427Y-26786D01*
X41504Y-26600D01*
X41504Y-26400D01*
X41427Y-26214D01*
X41286Y-26072D01*
X41110Y-25999D01*
X41285Y-25927D01*
X41427Y-25786D01*
X41498Y-25614D01*
X44497Y-30812D01*
X44494Y-30815D01*
X44395Y-30739D01*
X44291Y-30760D01*
X44196Y-31112D01*
X44105Y-31203D01*
X44176Y-31274D01*
X44196Y-31254D01*
X44645Y-31374D01*
X44716Y-31294D01*
X44690Y-31146D01*
X45365Y-32317D01*
X45342Y-32299D01*
X45246Y-32273D01*
X45147Y-32286D01*
X45068Y-32332D01*
X45104Y-32246D01*
X45104Y-32046D01*
X45027Y-31860D01*
X44886Y-31718D01*
X44700Y-31641D01*
X44589Y-31641D01*
X44640Y-31575D01*
X44619Y-31471D01*
X44267Y-31376D01*
X44176Y-31285D01*
X44105Y-31356D01*
X44125Y-31376D01*
X44038Y-31701D01*
X44038Y-31315D01*
X43554Y-31185D01*
X43483Y-31265D01*
X43525Y-31502D01*
X43654Y-31705D01*
X43804Y-31820D01*
X43908Y-31799D01*
X44038Y-31315D01*
X44038Y-31701D01*
X44005Y-31825D01*
X44085Y-31896D01*
X44163Y-31882D01*
X44095Y-32045D01*
X44095Y-32245D01*
X44172Y-32431D01*
X44313Y-32573D01*
X44499Y-32650D01*
X44517Y-32650D01*
X44447Y-32690D01*
X44387Y-32769D01*
X44361Y-32865D01*
X44374Y-32964D01*
X44424Y-33050D01*
X44750Y-33614D01*
X44750Y-33950D01*
X44776Y-34083D01*
X44852Y-34197D01*
X46500Y-35844D01*
X46500Y-38355D01*
X46089Y-38765D01*
X46089Y-38090D01*
X46078Y-37857D01*
X46009Y-37691D01*
X45984Y-37683D01*
X45984Y-36904D01*
X45984Y-35904D01*
X45911Y-35725D01*
X45774Y-35589D01*
X45596Y-35515D01*
X45404Y-35515D01*
X45225Y-35588D01*
X45089Y-35725D01*
X45015Y-35903D01*
X45015Y-36095D01*
X45088Y-36274D01*
X45225Y-36410D01*
X45403Y-36484D01*
X45595Y-36484D01*
X45774Y-36411D01*
X45910Y-36274D01*
X45984Y-36096D01*
X45984Y-35904D01*
X45984Y-36904D01*
X45911Y-36725D01*
X45774Y-36589D01*
X45596Y-36515D01*
X45404Y-36515D01*
X45225Y-36588D01*
X45089Y-36725D01*
X45015Y-36903D01*
X45015Y-37095D01*
X45088Y-37274D01*
X45225Y-37410D01*
X45303Y-37443D01*
X45191Y-37490D01*
X45159Y-37588D01*
X45500Y-37929D01*
X45840Y-37588D01*
X45808Y-37490D01*
X45688Y-37446D01*
X45774Y-37411D01*
X45910Y-37274D01*
X45984Y-37096D01*
X45984Y-36904D01*
X45984Y-37683D01*
X45911Y-37659D01*
X45570Y-38000D01*
X45911Y-38340D01*
X46009Y-38308D01*
X46089Y-38090D01*
X46089Y-38765D01*
X46005Y-38850D01*
X45840Y-38850D01*
X45840Y-38411D01*
X45500Y-38070D01*
X45159Y-38411D01*
X45191Y-38509D01*
X45409Y-38589D01*
X45642Y-38578D01*
X45808Y-38509D01*
X45840Y-38411D01*
X45840Y-38850D01*
X43894Y-38850D01*
X43125Y-38080D01*
X43125Y-38065D01*
X43060Y-37909D01*
X42941Y-37789D01*
X42784Y-37725D01*
X42615Y-37724D01*
X42459Y-37789D01*
X42339Y-37908D01*
X42275Y-38065D01*
X42274Y-38234D01*
X42339Y-38390D01*
X42458Y-38510D01*
X42615Y-38574D01*
X42629Y-38574D01*
X43502Y-39447D01*
X43616Y-39523D01*
X43616Y-39523D01*
X43750Y-39550D01*
X46150Y-39550D01*
X46283Y-39523D01*
X46283Y-39523D01*
X46397Y-39447D01*
X47097Y-38747D01*
X47173Y-38633D01*
X47173Y-38633D01*
X47200Y-38500D01*
X47200Y-35700D01*
X47173Y-35566D01*
X47097Y-35452D01*
X45450Y-33805D01*
X45450Y-33507D01*
X45752Y-33333D01*
X45812Y-33254D01*
X45838Y-33158D01*
X45834Y-33130D01*
X49175Y-38920D01*
X49175Y-38920D01*
G37*
G54D19*
X49175Y-38920D02*
X49094Y-38891D01*
X48854Y-38901D01*
X48679Y-38973D01*
X48645Y-39074D01*
X49000Y-39429D01*
X49005Y-39423D01*
X49076Y-39494D01*
X49070Y-39500D01*
X49076Y-39505D01*
X49005Y-39576D01*
X49000Y-39570D01*
X48994Y-39576D01*
X48923Y-39505D01*
X48929Y-39500D01*
X48574Y-39145D01*
X48504Y-39169D01*
X48504Y-39115D01*
X48481Y-39060D01*
X48439Y-39018D01*
X48384Y-38995D01*
X48324Y-38995D01*
X47615Y-38995D01*
X47560Y-39018D01*
X47518Y-39060D01*
X47495Y-39115D01*
X47495Y-39175D01*
X47495Y-39825D01*
X45550Y-39825D01*
X45550Y-39800D01*
X44450Y-39800D01*
X44450Y-39825D01*
X39702Y-39825D01*
X39820Y-39776D01*
X39854Y-39675D01*
X39500Y-39320D01*
X39145Y-39675D01*
X39179Y-39776D01*
X39312Y-39825D01*
X37974Y-39825D01*
X37995Y-39816D01*
X38066Y-39745D01*
X38104Y-39654D01*
X38104Y-39567D01*
X38213Y-39677D01*
X38399Y-39754D01*
X38599Y-39754D01*
X38785Y-39677D01*
X38927Y-39536D01*
X38943Y-39497D01*
X38973Y-39570D01*
X39074Y-39604D01*
X39429Y-39250D01*
X39074Y-38895D01*
X38973Y-38929D01*
X38945Y-39007D01*
X38927Y-38964D01*
X38786Y-38822D01*
X38600Y-38745D01*
X38400Y-38745D01*
X38214Y-38822D01*
X38104Y-38932D01*
X38104Y-38845D01*
X38066Y-38754D01*
X37995Y-38683D01*
X37914Y-38650D01*
X39384Y-38650D01*
X39354Y-38651D01*
X39179Y-38723D01*
X39145Y-38824D01*
X39500Y-39179D01*
X39505Y-39173D01*
X39576Y-39244D01*
X39570Y-39250D01*
X39925Y-39604D01*
X40026Y-39570D01*
X40054Y-39492D01*
X40072Y-39535D01*
X40213Y-39677D01*
X40399Y-39754D01*
X40599Y-39754D01*
X40785Y-39677D01*
X40927Y-39536D01*
X41000Y-39360D01*
X41072Y-39535D01*
X41213Y-39677D01*
X41399Y-39754D01*
X41599Y-39754D01*
X41785Y-39677D01*
X41927Y-39536D01*
X42004Y-39350D01*
X42004Y-39150D01*
X41927Y-38964D01*
X41786Y-38822D01*
X41645Y-38764D01*
X41641Y-38758D01*
X40941Y-38058D01*
X40876Y-38015D01*
X40800Y-38000D01*
X36432Y-38000D01*
X36100Y-37667D01*
X36100Y-35832D01*
X38282Y-33650D01*
X38650Y-33650D01*
X38726Y-33634D01*
X38791Y-33591D01*
X39106Y-33276D01*
X39145Y-33369D01*
X39229Y-33454D01*
X39340Y-33499D01*
X39417Y-33500D01*
X39858Y-33941D01*
X39858Y-33941D01*
X39901Y-33970D01*
X39923Y-33984D01*
X39923Y-33984D01*
X40000Y-34000D01*
X41167Y-34000D01*
X41858Y-34691D01*
X41923Y-34734D01*
X42000Y-34750D01*
X43067Y-34750D01*
X43400Y-35082D01*
X43400Y-37100D01*
X43415Y-37176D01*
X43458Y-37241D01*
X44046Y-37829D01*
X44015Y-37903D01*
X44015Y-38095D01*
X44088Y-38274D01*
X44225Y-38410D01*
X44403Y-38484D01*
X44595Y-38484D01*
X44774Y-38411D01*
X44910Y-38274D01*
X44943Y-38196D01*
X44990Y-38308D01*
X45088Y-38340D01*
X45429Y-38000D01*
X45088Y-37659D01*
X44990Y-37691D01*
X44946Y-37811D01*
X44911Y-37725D01*
X44774Y-37589D01*
X44596Y-37515D01*
X44404Y-37515D01*
X44329Y-37546D01*
X43800Y-37017D01*
X43800Y-36582D01*
X44046Y-36829D01*
X44015Y-36903D01*
X44015Y-37095D01*
X44088Y-37274D01*
X44225Y-37410D01*
X44403Y-37484D01*
X44595Y-37484D01*
X44774Y-37411D01*
X44910Y-37274D01*
X44984Y-37096D01*
X44984Y-36904D01*
X44911Y-36725D01*
X44774Y-36589D01*
X44596Y-36515D01*
X44404Y-36515D01*
X44329Y-36546D01*
X44267Y-36484D01*
X44864Y-36484D01*
X44919Y-36461D01*
X44961Y-36419D01*
X44984Y-36364D01*
X44984Y-36304D01*
X44984Y-35635D01*
X44961Y-35580D01*
X44919Y-35538D01*
X44864Y-35515D01*
X44804Y-35515D01*
X44135Y-35515D01*
X44080Y-35538D01*
X44050Y-35568D01*
X44050Y-34850D01*
X44037Y-34786D01*
X44034Y-34773D01*
X44034Y-34773D01*
X43991Y-34708D01*
X43892Y-34609D01*
X43892Y-33122D01*
X43794Y-32886D01*
X43614Y-32705D01*
X43378Y-32607D01*
X43122Y-32607D01*
X42886Y-32705D01*
X42705Y-32885D01*
X42607Y-33121D01*
X42607Y-33377D01*
X42705Y-33613D01*
X42885Y-33794D01*
X43121Y-33892D01*
X43377Y-33892D01*
X43613Y-33794D01*
X43794Y-33614D01*
X43892Y-33378D01*
X43892Y-33122D01*
X43892Y-34609D01*
X43441Y-34158D01*
X43376Y-34115D01*
X43300Y-34100D01*
X42232Y-34100D01*
X41600Y-33467D01*
X41600Y-33182D01*
X42082Y-32699D01*
X42159Y-32700D01*
X42269Y-32654D01*
X42354Y-32570D01*
X42399Y-32459D01*
X42400Y-32340D01*
X42354Y-32230D01*
X42270Y-32145D01*
X42159Y-32100D01*
X42040Y-32099D01*
X41930Y-32145D01*
X41845Y-32229D01*
X41800Y-32340D01*
X41799Y-32417D01*
X41258Y-32958D01*
X41215Y-33023D01*
X41200Y-33100D01*
X41200Y-33550D01*
X41209Y-33600D01*
X40082Y-33600D01*
X39699Y-33217D01*
X39700Y-33140D01*
X39654Y-33030D01*
X39570Y-32945D01*
X39476Y-32906D01*
X39941Y-32441D01*
X39984Y-32376D01*
X40000Y-32300D01*
X40000Y-32174D01*
X40054Y-32120D01*
X40099Y-32009D01*
X40100Y-31890D01*
X40054Y-31780D01*
X39970Y-31695D01*
X39859Y-31650D01*
X39740Y-31649D01*
X39650Y-31687D01*
X39650Y-31682D01*
X40082Y-31250D01*
X43000Y-31250D01*
X43076Y-31234D01*
X43141Y-31191D01*
X43439Y-30893D01*
X43499Y-30918D01*
X43610Y-30918D01*
X43559Y-30984D01*
X43580Y-31088D01*
X43932Y-31183D01*
X44023Y-31274D01*
X44094Y-31203D01*
X44074Y-31183D01*
X44194Y-30734D01*
X44114Y-30663D01*
X44036Y-30677D01*
X44104Y-30514D01*
X44104Y-30314D01*
X44027Y-30128D01*
X43886Y-29986D01*
X43700Y-29909D01*
X43500Y-29909D01*
X43417Y-29943D01*
X43527Y-29834D01*
X43604Y-29648D01*
X43604Y-29448D01*
X43527Y-29262D01*
X43386Y-29120D01*
X43200Y-29043D01*
X43000Y-29043D01*
X42814Y-29120D01*
X42672Y-29261D01*
X42595Y-29447D01*
X42595Y-29647D01*
X42652Y-29785D01*
X42650Y-29797D01*
X42650Y-30417D01*
X42467Y-30600D01*
X41604Y-30600D01*
X41604Y-29904D01*
X41604Y-29612D01*
X41541Y-29550D01*
X41050Y-29550D01*
X41050Y-30041D01*
X41112Y-30104D01*
X41304Y-30104D01*
X41404Y-30104D01*
X41495Y-30066D01*
X41566Y-29995D01*
X41604Y-29904D01*
X41604Y-30600D01*
X40950Y-30600D01*
X40950Y-30041D01*
X40950Y-29550D01*
X40458Y-29550D01*
X40395Y-29612D01*
X40395Y-29904D01*
X40433Y-29995D01*
X40504Y-30066D01*
X40595Y-30104D01*
X40695Y-30104D01*
X40887Y-30104D01*
X40950Y-30041D01*
X40950Y-30600D01*
X40108Y-30600D01*
X40108Y-27844D01*
X40098Y-27604D01*
X40026Y-27429D01*
X40004Y-27422D01*
X40004Y-26650D01*
X39927Y-26464D01*
X39786Y-26322D01*
X39610Y-26249D01*
X39785Y-26177D01*
X39927Y-26036D01*
X40004Y-25850D01*
X40004Y-25650D01*
X39927Y-25464D01*
X39786Y-25322D01*
X39610Y-25249D01*
X39785Y-25177D01*
X39927Y-25036D01*
X40004Y-24850D01*
X40004Y-24650D01*
X39927Y-24464D01*
X39786Y-24322D01*
X39610Y-24249D01*
X39785Y-24177D01*
X39927Y-24036D01*
X40004Y-23850D01*
X40004Y-23650D01*
X39927Y-23464D01*
X39786Y-23322D01*
X39600Y-23245D01*
X39400Y-23245D01*
X39214Y-23322D01*
X39072Y-23463D01*
X38995Y-23649D01*
X38995Y-23849D01*
X39072Y-24035D01*
X39213Y-24177D01*
X39389Y-24250D01*
X39214Y-24322D01*
X39072Y-24463D01*
X38995Y-24649D01*
X38995Y-24849D01*
X39072Y-25035D01*
X39213Y-25177D01*
X39389Y-25250D01*
X39214Y-25322D01*
X39072Y-25463D01*
X38995Y-25649D01*
X38995Y-25849D01*
X39072Y-26035D01*
X39213Y-26177D01*
X39389Y-26250D01*
X39214Y-26322D01*
X39072Y-26463D01*
X38995Y-26649D01*
X38995Y-26849D01*
X39072Y-27035D01*
X39213Y-27177D01*
X39252Y-27193D01*
X39179Y-27223D01*
X39145Y-27324D01*
X39500Y-27679D01*
X39854Y-27324D01*
X39820Y-27223D01*
X39742Y-27195D01*
X39785Y-27177D01*
X39927Y-27036D01*
X40004Y-26850D01*
X40004Y-26650D01*
X40004Y-27422D01*
X39925Y-27395D01*
X39570Y-27750D01*
X39576Y-27755D01*
X39505Y-27826D01*
X39500Y-27820D01*
X39494Y-27826D01*
X39429Y-27761D01*
X39423Y-27755D01*
X39429Y-27750D01*
X39074Y-27395D01*
X38973Y-27429D01*
X38891Y-27655D01*
X38901Y-27895D01*
X38973Y-28070D01*
X39074Y-28104D01*
X39029Y-28149D01*
X39046Y-28166D01*
X39004Y-28183D01*
X38933Y-28254D01*
X38895Y-28345D01*
X38895Y-28637D01*
X38958Y-28700D01*
X39450Y-28700D01*
X39450Y-28692D01*
X39550Y-28692D01*
X39550Y-28700D01*
X40041Y-28700D01*
X40104Y-28637D01*
X40104Y-28345D01*
X40066Y-28254D01*
X39995Y-28183D01*
X39953Y-28166D01*
X39970Y-28149D01*
X39925Y-28104D01*
X40026Y-28070D01*
X40108Y-27844D01*
X40108Y-30600D01*
X40104Y-30600D01*
X40104Y-29154D01*
X40104Y-28862D01*
X40041Y-28800D01*
X39550Y-28800D01*
X39550Y-29291D01*
X39612Y-29354D01*
X39804Y-29354D01*
X39904Y-29354D01*
X39995Y-29316D01*
X40066Y-29245D01*
X40104Y-29154D01*
X40104Y-30600D01*
X39900Y-30600D01*
X39823Y-30615D01*
X39758Y-30658D01*
X39450Y-30967D01*
X39450Y-29291D01*
X39450Y-28800D01*
X38958Y-28800D01*
X38895Y-28862D01*
X38895Y-29154D01*
X38933Y-29245D01*
X39004Y-29316D01*
X39095Y-29354D01*
X39195Y-29354D01*
X39387Y-29354D01*
X39450Y-29291D01*
X39450Y-30967D01*
X39008Y-31408D01*
X38965Y-31473D01*
X38950Y-31550D01*
X38950Y-31816D01*
X38880Y-31845D01*
X38795Y-31929D01*
X38750Y-32040D01*
X38749Y-32149D01*
X38732Y-32149D01*
X38400Y-31817D01*
X38400Y-29274D01*
X38454Y-29220D01*
X38499Y-29109D01*
X38500Y-28990D01*
X38454Y-28880D01*
X38370Y-28795D01*
X38259Y-28750D01*
X38140Y-28749D01*
X38127Y-28755D01*
X38282Y-28599D01*
X38359Y-28600D01*
X38469Y-28554D01*
X38554Y-28470D01*
X38599Y-28359D01*
X38600Y-28240D01*
X38554Y-28130D01*
X38499Y-28074D01*
X38554Y-28020D01*
X38599Y-27909D01*
X38600Y-27790D01*
X38554Y-27680D01*
X38470Y-27595D01*
X38359Y-27550D01*
X38240Y-27549D01*
X38130Y-27595D01*
X38045Y-27679D01*
X38000Y-27790D01*
X37999Y-27867D01*
X37458Y-28408D01*
X37415Y-28473D01*
X37400Y-28550D01*
X37400Y-28850D01*
X37400Y-29350D01*
X37415Y-29426D01*
X37458Y-29491D01*
X37500Y-29532D01*
X37500Y-31067D01*
X37108Y-31458D01*
X37065Y-31523D01*
X37050Y-31600D01*
X37050Y-31850D01*
X37065Y-31926D01*
X37108Y-31991D01*
X37157Y-32040D01*
X37059Y-32000D01*
X36940Y-31999D01*
X36830Y-32045D01*
X36800Y-32075D01*
X36800Y-30097D01*
X36773Y-29964D01*
X36697Y-29850D01*
X36523Y-29676D01*
X36625Y-29500D01*
X36638Y-29401D01*
X36612Y-29305D01*
X36552Y-29226D01*
X36465Y-29176D01*
X35852Y-28822D01*
X35753Y-28809D01*
X35657Y-28835D01*
X35631Y-28855D01*
X39499Y-22150D01*
X41154Y-25018D01*
X41100Y-24995D01*
X40900Y-24995D01*
X40714Y-25072D01*
X40572Y-25213D01*
X40495Y-25399D01*
X40495Y-25599D01*
X40572Y-25785D01*
X40713Y-25927D01*
X40889Y-26000D01*
X40714Y-26072D01*
X40572Y-26213D01*
X40495Y-26399D01*
X40495Y-26599D01*
X40572Y-26785D01*
X40713Y-26927D01*
X40889Y-27000D01*
X40714Y-27072D01*
X40572Y-27213D01*
X40495Y-27399D01*
X40495Y-27599D01*
X40572Y-27785D01*
X40713Y-27927D01*
X40889Y-28000D01*
X40714Y-28072D01*
X40572Y-28213D01*
X40495Y-28399D01*
X40495Y-28599D01*
X40572Y-28785D01*
X40682Y-28895D01*
X40595Y-28895D01*
X40504Y-28933D01*
X40433Y-29004D01*
X40395Y-29095D01*
X40395Y-29387D01*
X40458Y-29450D01*
X40950Y-29450D01*
X40950Y-29442D01*
X41050Y-29442D01*
X41050Y-29450D01*
X41541Y-29450D01*
X41604Y-29387D01*
X41604Y-29095D01*
X41566Y-29004D01*
X41495Y-28933D01*
X41404Y-28895D01*
X41317Y-28895D01*
X41427Y-28786D01*
X41504Y-28600D01*
X41504Y-28400D01*
X41427Y-28214D01*
X41286Y-28072D01*
X41110Y-27999D01*
X41285Y-27927D01*
X41427Y-27786D01*
X41504Y-27600D01*
X41504Y-27400D01*
X41427Y-27214D01*
X41286Y-27072D01*
X41110Y-26999D01*
X41285Y-26927D01*
X41427Y-26786D01*
X41504Y-26600D01*
X41504Y-26400D01*
X41427Y-26214D01*
X41286Y-26072D01*
X41110Y-25999D01*
X41285Y-25927D01*
X41427Y-25786D01*
X41498Y-25614D01*
X44497Y-30812D01*
X44494Y-30815D01*
X44395Y-30739D01*
X44291Y-30760D01*
X44196Y-31112D01*
X44105Y-31203D01*
X44176Y-31274D01*
X44196Y-31254D01*
X44645Y-31374D01*
X44716Y-31294D01*
X44690Y-31146D01*
X45365Y-32317D01*
X45342Y-32299D01*
X45246Y-32273D01*
X45147Y-32286D01*
X45068Y-32332D01*
X45104Y-32246D01*
X45104Y-32046D01*
X45027Y-31860D01*
X44886Y-31718D01*
X44700Y-31641D01*
X44589Y-31641D01*
X44640Y-31575D01*
X44619Y-31471D01*
X44267Y-31376D01*
X44176Y-31285D01*
X44105Y-31356D01*
X44125Y-31376D01*
X44038Y-31701D01*
X44038Y-31315D01*
X43554Y-31185D01*
X43483Y-31265D01*
X43525Y-31502D01*
X43654Y-31705D01*
X43804Y-31820D01*
X43908Y-31799D01*
X44038Y-31315D01*
X44038Y-31701D01*
X44005Y-31825D01*
X44085Y-31896D01*
X44163Y-31882D01*
X44095Y-32045D01*
X44095Y-32245D01*
X44172Y-32431D01*
X44313Y-32573D01*
X44499Y-32650D01*
X44517Y-32650D01*
X44447Y-32690D01*
X44387Y-32769D01*
X44361Y-32865D01*
X44374Y-32964D01*
X44424Y-33050D01*
X44750Y-33614D01*
X44750Y-33950D01*
X44776Y-34083D01*
X44852Y-34197D01*
X46500Y-35844D01*
X46500Y-38355D01*
X46089Y-38765D01*
X46089Y-38090D01*
X46078Y-37857D01*
X46009Y-37691D01*
X45984Y-37683D01*
X45984Y-36904D01*
X45984Y-35904D01*
X45911Y-35725D01*
X45774Y-35589D01*
X45596Y-35515D01*
X45404Y-35515D01*
X45225Y-35588D01*
X45089Y-35725D01*
X45015Y-35903D01*
X45015Y-36095D01*
X45088Y-36274D01*
X45225Y-36410D01*
X45403Y-36484D01*
X45595Y-36484D01*
X45774Y-36411D01*
X45910Y-36274D01*
X45984Y-36096D01*
X45984Y-35904D01*
X45984Y-36904D01*
X45911Y-36725D01*
X45774Y-36589D01*
X45596Y-36515D01*
X45404Y-36515D01*
X45225Y-36588D01*
X45089Y-36725D01*
X45015Y-36903D01*
X45015Y-37095D01*
X45088Y-37274D01*
X45225Y-37410D01*
X45303Y-37443D01*
X45191Y-37490D01*
X45159Y-37588D01*
X45500Y-37929D01*
X45840Y-37588D01*
X45808Y-37490D01*
X45688Y-37446D01*
X45774Y-37411D01*
X45910Y-37274D01*
X45984Y-37096D01*
X45984Y-36904D01*
X45984Y-37683D01*
X45911Y-37659D01*
X45570Y-38000D01*
X45911Y-38340D01*
X46009Y-38308D01*
X46089Y-38090D01*
X46089Y-38765D01*
X46005Y-38850D01*
X45840Y-38850D01*
X45840Y-38411D01*
X45500Y-38070D01*
X45159Y-38411D01*
X45191Y-38509D01*
X45409Y-38589D01*
X45642Y-38578D01*
X45808Y-38509D01*
X45840Y-38411D01*
X45840Y-38850D01*
X43894Y-38850D01*
X43125Y-38080D01*
X43125Y-38065D01*
X43060Y-37909D01*
X42941Y-37789D01*
X42784Y-37725D01*
X42615Y-37724D01*
X42459Y-37789D01*
X42339Y-37908D01*
X42275Y-38065D01*
X42274Y-38234D01*
X42339Y-38390D01*
X42458Y-38510D01*
X42615Y-38574D01*
X42629Y-38574D01*
X43502Y-39447D01*
X43616Y-39523D01*
X43616Y-39523D01*
X43750Y-39550D01*
X46150Y-39550D01*
X46283Y-39523D01*
X46283Y-39523D01*
X46397Y-39447D01*
X47097Y-38747D01*
X47173Y-38633D01*
X47173Y-38633D01*
X47200Y-38500D01*
X47200Y-35700D01*
X47173Y-35566D01*
X47097Y-35452D01*
X45450Y-33805D01*
X45450Y-33507D01*
X45752Y-33333D01*
X45812Y-33254D01*
X45838Y-33158D01*
X45834Y-33130D01*
X49175Y-38920D01*
G54D10*
G36*
X38825Y-49825D02*
X38642Y-49825D01*
X38642Y-48872D01*
X38544Y-48636D01*
X38364Y-48455D01*
X38128Y-48357D01*
X37872Y-48357D01*
X37636Y-48455D01*
X37455Y-48635D01*
X37357Y-48871D01*
X37357Y-49127D01*
X37455Y-49363D01*
X37635Y-49544D01*
X37871Y-49642D01*
X38127Y-49642D01*
X38363Y-49544D01*
X38544Y-49364D01*
X38642Y-49128D01*
X38642Y-48872D01*
X38642Y-49825D01*
X34550Y-49825D01*
X34550Y-49800D01*
X34263Y-49800D01*
X34320Y-49776D01*
X34354Y-49675D01*
X34000Y-49320D01*
X33645Y-49675D01*
X33679Y-49776D01*
X33744Y-49800D01*
X33450Y-49800D01*
X33450Y-49825D01*
X32474Y-49825D01*
X32495Y-49816D01*
X32566Y-49745D01*
X32604Y-49654D01*
X32604Y-49567D01*
X32713Y-49677D01*
X32899Y-49754D01*
X33099Y-49754D01*
X33285Y-49677D01*
X33427Y-49536D01*
X33443Y-49497D01*
X33473Y-49570D01*
X33574Y-49604D01*
X33929Y-49250D01*
X33574Y-48895D01*
X33473Y-48929D01*
X33445Y-49007D01*
X33427Y-48964D01*
X33286Y-48822D01*
X33200Y-48786D01*
X33200Y-47332D01*
X34832Y-45700D01*
X35275Y-45700D01*
X35329Y-45754D01*
X35440Y-45799D01*
X35559Y-45800D01*
X35669Y-45754D01*
X35754Y-45670D01*
X35799Y-45559D01*
X35800Y-45500D01*
X35800Y-48786D01*
X35714Y-48822D01*
X35572Y-48963D01*
X35499Y-49139D01*
X35427Y-48964D01*
X35286Y-48822D01*
X35100Y-48745D01*
X34900Y-48745D01*
X34714Y-48822D01*
X34572Y-48963D01*
X34556Y-49002D01*
X34526Y-48929D01*
X34425Y-48895D01*
X34354Y-48966D01*
X34354Y-48824D01*
X34320Y-48723D01*
X34094Y-48641D01*
X33854Y-48651D01*
X33679Y-48723D01*
X33645Y-48824D01*
X34000Y-49179D01*
X34354Y-48824D01*
X34354Y-48966D01*
X34070Y-49250D01*
X34425Y-49604D01*
X34526Y-49570D01*
X34554Y-49492D01*
X34572Y-49535D01*
X34713Y-49677D01*
X34899Y-49754D01*
X35099Y-49754D01*
X35285Y-49677D01*
X35427Y-49536D01*
X35500Y-49360D01*
X35572Y-49535D01*
X35713Y-49677D01*
X35899Y-49754D01*
X36099Y-49754D01*
X36285Y-49677D01*
X36427Y-49536D01*
X36504Y-49350D01*
X36504Y-49150D01*
X36427Y-48964D01*
X36286Y-48822D01*
X36200Y-48786D01*
X36200Y-46559D01*
X36245Y-46669D01*
X36329Y-46754D01*
X36440Y-46799D01*
X36559Y-46800D01*
X36669Y-46754D01*
X36754Y-46670D01*
X36799Y-46559D01*
X36800Y-46440D01*
X36754Y-46330D01*
X36670Y-46245D01*
X36559Y-46200D01*
X36482Y-46199D01*
X36450Y-46167D01*
X36450Y-43582D01*
X36891Y-43141D01*
X36934Y-43076D01*
X36934Y-43076D01*
X36937Y-43063D01*
X36949Y-43000D01*
X36950Y-43000D01*
X36950Y-42474D01*
X37004Y-42420D01*
X37049Y-42309D01*
X37050Y-42190D01*
X37004Y-42080D01*
X36920Y-41995D01*
X36809Y-41950D01*
X36690Y-41949D01*
X36580Y-41995D01*
X36495Y-42079D01*
X36450Y-42190D01*
X36449Y-42309D01*
X36495Y-42419D01*
X36550Y-42474D01*
X36550Y-42690D01*
X36504Y-42580D01*
X36420Y-42495D01*
X36309Y-42450D01*
X36190Y-42449D01*
X36080Y-42495D01*
X35995Y-42579D01*
X35950Y-42690D01*
X35950Y-42749D01*
X35950Y-42582D01*
X36141Y-42391D01*
X36141Y-42391D01*
X36184Y-42326D01*
X36200Y-42250D01*
X36200Y-42213D01*
X36285Y-42177D01*
X36427Y-42036D01*
X36504Y-41850D01*
X36504Y-41650D01*
X36427Y-41464D01*
X36286Y-41322D01*
X36100Y-41245D01*
X35900Y-41245D01*
X35714Y-41322D01*
X35572Y-41463D01*
X35499Y-41639D01*
X35427Y-41464D01*
X35286Y-41322D01*
X35100Y-41245D01*
X34900Y-41245D01*
X34714Y-41322D01*
X34572Y-41463D01*
X34556Y-41502D01*
X34526Y-41429D01*
X34425Y-41395D01*
X34070Y-41750D01*
X34425Y-42104D01*
X34526Y-42070D01*
X34554Y-41992D01*
X34572Y-42035D01*
X34713Y-42177D01*
X34899Y-42254D01*
X35099Y-42254D01*
X35285Y-42177D01*
X35427Y-42036D01*
X35500Y-41860D01*
X35572Y-42035D01*
X35713Y-42177D01*
X35767Y-42199D01*
X35608Y-42358D01*
X35565Y-42423D01*
X35550Y-42500D01*
X35550Y-44417D01*
X34917Y-45050D01*
X34500Y-45050D01*
X34423Y-45065D01*
X34358Y-45108D01*
X34354Y-45112D01*
X34354Y-42175D01*
X34000Y-41820D01*
X33645Y-42175D01*
X33679Y-42276D01*
X33905Y-42358D01*
X34145Y-42348D01*
X34320Y-42276D01*
X34354Y-42175D01*
X34354Y-45112D01*
X33167Y-46300D01*
X32832Y-46300D01*
X31641Y-45108D01*
X31576Y-45065D01*
X31500Y-45050D01*
X30642Y-45050D01*
X30642Y-41872D01*
X30544Y-41636D01*
X30364Y-41455D01*
X30128Y-41357D01*
X29872Y-41357D01*
X29636Y-41455D01*
X29455Y-41635D01*
X29357Y-41871D01*
X29357Y-42127D01*
X29455Y-42363D01*
X29635Y-42544D01*
X29871Y-42642D01*
X30127Y-42642D01*
X30363Y-42544D01*
X30544Y-42364D01*
X30642Y-42128D01*
X30642Y-41872D01*
X30642Y-45050D01*
X30332Y-45050D01*
X30141Y-44858D01*
X30077Y-44815D01*
X30077Y-44096D01*
X30027Y-43976D01*
X29935Y-43884D01*
X29815Y-43834D01*
X29685Y-43834D01*
X29564Y-43883D01*
X29472Y-43975D01*
X29422Y-44096D01*
X29422Y-44226D01*
X29472Y-44346D01*
X29564Y-44438D01*
X29684Y-44488D01*
X29814Y-44488D01*
X29935Y-44438D01*
X30027Y-44346D01*
X30077Y-44226D01*
X30077Y-44096D01*
X30077Y-44815D01*
X30076Y-44815D01*
X30000Y-44800D01*
X29750Y-44800D01*
X29673Y-44815D01*
X29608Y-44858D01*
X29358Y-45108D01*
X29315Y-45173D01*
X29300Y-45250D01*
X29300Y-45275D01*
X29245Y-45329D01*
X29200Y-45440D01*
X29199Y-45559D01*
X29245Y-45669D01*
X29329Y-45754D01*
X29440Y-45799D01*
X29559Y-45800D01*
X29669Y-45754D01*
X29750Y-45674D01*
X29829Y-45754D01*
X29940Y-45799D01*
X30059Y-45800D01*
X30169Y-45754D01*
X30224Y-45700D01*
X31167Y-45700D01*
X32800Y-47332D01*
X32800Y-48786D01*
X32714Y-48822D01*
X32604Y-48932D01*
X32604Y-48845D01*
X32566Y-48754D01*
X32495Y-48683D01*
X32404Y-48645D01*
X32304Y-48645D01*
X31595Y-48645D01*
X31504Y-48683D01*
X31433Y-48754D01*
X31395Y-48845D01*
X31395Y-48945D01*
X31395Y-49654D01*
X31433Y-49745D01*
X31504Y-49816D01*
X31525Y-49825D01*
X30077Y-49825D01*
X30077Y-46773D01*
X30027Y-46653D01*
X29935Y-46561D01*
X29815Y-46511D01*
X29685Y-46511D01*
X29564Y-46561D01*
X29472Y-46653D01*
X29422Y-46773D01*
X29422Y-46903D01*
X29472Y-47023D01*
X29564Y-47115D01*
X29684Y-47165D01*
X29814Y-47165D01*
X29935Y-47116D01*
X30027Y-47024D01*
X30077Y-46903D01*
X30077Y-46773D01*
X30077Y-49825D01*
X29175Y-49825D01*
X29175Y-41175D01*
X31525Y-41175D01*
X31504Y-41183D01*
X31433Y-41254D01*
X31395Y-41345D01*
X31395Y-41445D01*
X31395Y-42154D01*
X31433Y-42245D01*
X31504Y-42316D01*
X31595Y-42354D01*
X31695Y-42354D01*
X32404Y-42354D01*
X32495Y-42316D01*
X32566Y-42245D01*
X32604Y-42154D01*
X32604Y-42067D01*
X32713Y-42177D01*
X32800Y-42213D01*
X32800Y-42417D01*
X32667Y-42550D01*
X31750Y-42550D01*
X31673Y-42565D01*
X31608Y-42608D01*
X31017Y-43200D01*
X30940Y-43199D01*
X30830Y-43245D01*
X30745Y-43329D01*
X30700Y-43440D01*
X30699Y-43559D01*
X30745Y-43669D01*
X30829Y-43754D01*
X30940Y-43799D01*
X31059Y-43800D01*
X31169Y-43754D01*
X31254Y-43670D01*
X31299Y-43559D01*
X31300Y-43482D01*
X31832Y-42950D01*
X32750Y-42950D01*
X32826Y-42934D01*
X32891Y-42891D01*
X33141Y-42641D01*
X33141Y-42641D01*
X33184Y-42576D01*
X33200Y-42500D01*
X33200Y-42213D01*
X33285Y-42177D01*
X33427Y-42036D01*
X33443Y-41997D01*
X33473Y-42070D01*
X33574Y-42104D01*
X33929Y-41750D01*
X33574Y-41395D01*
X33473Y-41429D01*
X33445Y-41507D01*
X33427Y-41464D01*
X33286Y-41322D01*
X33100Y-41245D01*
X32900Y-41245D01*
X32714Y-41322D01*
X32604Y-41432D01*
X32604Y-41345D01*
X32566Y-41254D01*
X32495Y-41183D01*
X32474Y-41175D01*
X33450Y-41175D01*
X33450Y-41200D01*
X33736Y-41200D01*
X33679Y-41223D01*
X33645Y-41324D01*
X34000Y-41679D01*
X34354Y-41324D01*
X34320Y-41223D01*
X34255Y-41200D01*
X34550Y-41200D01*
X34550Y-41175D01*
X38825Y-41175D01*
X38825Y-44950D01*
X38800Y-44950D01*
X38800Y-46050D01*
X38825Y-46050D01*
X38825Y-49825D01*
X38825Y-49825D01*
G37*
G54D19*
X38825Y-49825D02*
X38642Y-49825D01*
X38642Y-48872D01*
X38544Y-48636D01*
X38364Y-48455D01*
X38128Y-48357D01*
X37872Y-48357D01*
X37636Y-48455D01*
X37455Y-48635D01*
X37357Y-48871D01*
X37357Y-49127D01*
X37455Y-49363D01*
X37635Y-49544D01*
X37871Y-49642D01*
X38127Y-49642D01*
X38363Y-49544D01*
X38544Y-49364D01*
X38642Y-49128D01*
X38642Y-48872D01*
X38642Y-49825D01*
X34550Y-49825D01*
X34550Y-49800D01*
X34263Y-49800D01*
X34320Y-49776D01*
X34354Y-49675D01*
X34000Y-49320D01*
X33645Y-49675D01*
X33679Y-49776D01*
X33744Y-49800D01*
X33450Y-49800D01*
X33450Y-49825D01*
X32474Y-49825D01*
X32495Y-49816D01*
X32566Y-49745D01*
X32604Y-49654D01*
X32604Y-49567D01*
X32713Y-49677D01*
X32899Y-49754D01*
X33099Y-49754D01*
X33285Y-49677D01*
X33427Y-49536D01*
X33443Y-49497D01*
X33473Y-49570D01*
X33574Y-49604D01*
X33929Y-49250D01*
X33574Y-48895D01*
X33473Y-48929D01*
X33445Y-49007D01*
X33427Y-48964D01*
X33286Y-48822D01*
X33200Y-48786D01*
X33200Y-47332D01*
X34832Y-45700D01*
X35275Y-45700D01*
X35329Y-45754D01*
X35440Y-45799D01*
X35559Y-45800D01*
X35669Y-45754D01*
X35754Y-45670D01*
X35799Y-45559D01*
X35800Y-45500D01*
X35800Y-48786D01*
X35714Y-48822D01*
X35572Y-48963D01*
X35499Y-49139D01*
X35427Y-48964D01*
X35286Y-48822D01*
X35100Y-48745D01*
X34900Y-48745D01*
X34714Y-48822D01*
X34572Y-48963D01*
X34556Y-49002D01*
X34526Y-48929D01*
X34425Y-48895D01*
X34354Y-48966D01*
X34354Y-48824D01*
X34320Y-48723D01*
X34094Y-48641D01*
X33854Y-48651D01*
X33679Y-48723D01*
X33645Y-48824D01*
X34000Y-49179D01*
X34354Y-48824D01*
X34354Y-48966D01*
X34070Y-49250D01*
X34425Y-49604D01*
X34526Y-49570D01*
X34554Y-49492D01*
X34572Y-49535D01*
X34713Y-49677D01*
X34899Y-49754D01*
X35099Y-49754D01*
X35285Y-49677D01*
X35427Y-49536D01*
X35500Y-49360D01*
X35572Y-49535D01*
X35713Y-49677D01*
X35899Y-49754D01*
X36099Y-49754D01*
X36285Y-49677D01*
X36427Y-49536D01*
X36504Y-49350D01*
X36504Y-49150D01*
X36427Y-48964D01*
X36286Y-48822D01*
X36200Y-48786D01*
X36200Y-46559D01*
X36245Y-46669D01*
X36329Y-46754D01*
X36440Y-46799D01*
X36559Y-46800D01*
X36669Y-46754D01*
X36754Y-46670D01*
X36799Y-46559D01*
X36800Y-46440D01*
X36754Y-46330D01*
X36670Y-46245D01*
X36559Y-46200D01*
X36482Y-46199D01*
X36450Y-46167D01*
X36450Y-43582D01*
X36891Y-43141D01*
X36934Y-43076D01*
X36934Y-43076D01*
X36937Y-43063D01*
X36949Y-43000D01*
X36950Y-43000D01*
X36950Y-42474D01*
X37004Y-42420D01*
X37049Y-42309D01*
X37050Y-42190D01*
X37004Y-42080D01*
X36920Y-41995D01*
X36809Y-41950D01*
X36690Y-41949D01*
X36580Y-41995D01*
X36495Y-42079D01*
X36450Y-42190D01*
X36449Y-42309D01*
X36495Y-42419D01*
X36550Y-42474D01*
X36550Y-42690D01*
X36504Y-42580D01*
X36420Y-42495D01*
X36309Y-42450D01*
X36190Y-42449D01*
X36080Y-42495D01*
X35995Y-42579D01*
X35950Y-42690D01*
X35950Y-42749D01*
X35950Y-42582D01*
X36141Y-42391D01*
X36141Y-42391D01*
X36184Y-42326D01*
X36200Y-42250D01*
X36200Y-42213D01*
X36285Y-42177D01*
X36427Y-42036D01*
X36504Y-41850D01*
X36504Y-41650D01*
X36427Y-41464D01*
X36286Y-41322D01*
X36100Y-41245D01*
X35900Y-41245D01*
X35714Y-41322D01*
X35572Y-41463D01*
X35499Y-41639D01*
X35427Y-41464D01*
X35286Y-41322D01*
X35100Y-41245D01*
X34900Y-41245D01*
X34714Y-41322D01*
X34572Y-41463D01*
X34556Y-41502D01*
X34526Y-41429D01*
X34425Y-41395D01*
X34070Y-41750D01*
X34425Y-42104D01*
X34526Y-42070D01*
X34554Y-41992D01*
X34572Y-42035D01*
X34713Y-42177D01*
X34899Y-42254D01*
X35099Y-42254D01*
X35285Y-42177D01*
X35427Y-42036D01*
X35500Y-41860D01*
X35572Y-42035D01*
X35713Y-42177D01*
X35767Y-42199D01*
X35608Y-42358D01*
X35565Y-42423D01*
X35550Y-42500D01*
X35550Y-44417D01*
X34917Y-45050D01*
X34500Y-45050D01*
X34423Y-45065D01*
X34358Y-45108D01*
X34354Y-45112D01*
X34354Y-42175D01*
X34000Y-41820D01*
X33645Y-42175D01*
X33679Y-42276D01*
X33905Y-42358D01*
X34145Y-42348D01*
X34320Y-42276D01*
X34354Y-42175D01*
X34354Y-45112D01*
X33167Y-46300D01*
X32832Y-46300D01*
X31641Y-45108D01*
X31576Y-45065D01*
X31500Y-45050D01*
X30642Y-45050D01*
X30642Y-41872D01*
X30544Y-41636D01*
X30364Y-41455D01*
X30128Y-41357D01*
X29872Y-41357D01*
X29636Y-41455D01*
X29455Y-41635D01*
X29357Y-41871D01*
X29357Y-42127D01*
X29455Y-42363D01*
X29635Y-42544D01*
X29871Y-42642D01*
X30127Y-42642D01*
X30363Y-42544D01*
X30544Y-42364D01*
X30642Y-42128D01*
X30642Y-41872D01*
X30642Y-45050D01*
X30332Y-45050D01*
X30141Y-44858D01*
X30077Y-44815D01*
X30077Y-44096D01*
X30027Y-43976D01*
X29935Y-43884D01*
X29815Y-43834D01*
X29685Y-43834D01*
X29564Y-43883D01*
X29472Y-43975D01*
X29422Y-44096D01*
X29422Y-44226D01*
X29472Y-44346D01*
X29564Y-44438D01*
X29684Y-44488D01*
X29814Y-44488D01*
X29935Y-44438D01*
X30027Y-44346D01*
X30077Y-44226D01*
X30077Y-44096D01*
X30077Y-44815D01*
X30076Y-44815D01*
X30000Y-44800D01*
X29750Y-44800D01*
X29673Y-44815D01*
X29608Y-44858D01*
X29358Y-45108D01*
X29315Y-45173D01*
X29300Y-45250D01*
X29300Y-45275D01*
X29245Y-45329D01*
X29200Y-45440D01*
X29199Y-45559D01*
X29245Y-45669D01*
X29329Y-45754D01*
X29440Y-45799D01*
X29559Y-45800D01*
X29669Y-45754D01*
X29750Y-45674D01*
X29829Y-45754D01*
X29940Y-45799D01*
X30059Y-45800D01*
X30169Y-45754D01*
X30224Y-45700D01*
X31167Y-45700D01*
X32800Y-47332D01*
X32800Y-48786D01*
X32714Y-48822D01*
X32604Y-48932D01*
X32604Y-48845D01*
X32566Y-48754D01*
X32495Y-48683D01*
X32404Y-48645D01*
X32304Y-48645D01*
X31595Y-48645D01*
X31504Y-48683D01*
X31433Y-48754D01*
X31395Y-48845D01*
X31395Y-48945D01*
X31395Y-49654D01*
X31433Y-49745D01*
X31504Y-49816D01*
X31525Y-49825D01*
X30077Y-49825D01*
X30077Y-46773D01*
X30027Y-46653D01*
X29935Y-46561D01*
X29815Y-46511D01*
X29685Y-46511D01*
X29564Y-46561D01*
X29472Y-46653D01*
X29422Y-46773D01*
X29422Y-46903D01*
X29472Y-47023D01*
X29564Y-47115D01*
X29684Y-47165D01*
X29814Y-47165D01*
X29935Y-47116D01*
X30027Y-47024D01*
X30077Y-46903D01*
X30077Y-46773D01*
X30077Y-49825D01*
X29175Y-49825D01*
X29175Y-41175D01*
X31525Y-41175D01*
X31504Y-41183D01*
X31433Y-41254D01*
X31395Y-41345D01*
X31395Y-41445D01*
X31395Y-42154D01*
X31433Y-42245D01*
X31504Y-42316D01*
X31595Y-42354D01*
X31695Y-42354D01*
X32404Y-42354D01*
X32495Y-42316D01*
X32566Y-42245D01*
X32604Y-42154D01*
X32604Y-42067D01*
X32713Y-42177D01*
X32800Y-42213D01*
X32800Y-42417D01*
X32667Y-42550D01*
X31750Y-42550D01*
X31673Y-42565D01*
X31608Y-42608D01*
X31017Y-43200D01*
X30940Y-43199D01*
X30830Y-43245D01*
X30745Y-43329D01*
X30700Y-43440D01*
X30699Y-43559D01*
X30745Y-43669D01*
X30829Y-43754D01*
X30940Y-43799D01*
X31059Y-43800D01*
X31169Y-43754D01*
X31254Y-43670D01*
X31299Y-43559D01*
X31300Y-43482D01*
X31832Y-42950D01*
X32750Y-42950D01*
X32826Y-42934D01*
X32891Y-42891D01*
X33141Y-42641D01*
X33141Y-42641D01*
X33184Y-42576D01*
X33200Y-42500D01*
X33200Y-42213D01*
X33285Y-42177D01*
X33427Y-42036D01*
X33443Y-41997D01*
X33473Y-42070D01*
X33574Y-42104D01*
X33929Y-41750D01*
X33574Y-41395D01*
X33473Y-41429D01*
X33445Y-41507D01*
X33427Y-41464D01*
X33286Y-41322D01*
X33100Y-41245D01*
X32900Y-41245D01*
X32714Y-41322D01*
X32604Y-41432D01*
X32604Y-41345D01*
X32566Y-41254D01*
X32495Y-41183D01*
X32474Y-41175D01*
X33450Y-41175D01*
X33450Y-41200D01*
X33736Y-41200D01*
X33679Y-41223D01*
X33645Y-41324D01*
X34000Y-41679D01*
X34354Y-41324D01*
X34320Y-41223D01*
X34255Y-41200D01*
X34550Y-41200D01*
X34550Y-41175D01*
X38825Y-41175D01*
X38825Y-44950D01*
X38800Y-44950D01*
X38800Y-46050D01*
X38825Y-46050D01*
X38825Y-49825D01*
G54D10*
G36*
X38825Y-69825D02*
X38642Y-69825D01*
X38642Y-68872D01*
X38544Y-68636D01*
X38364Y-68455D01*
X38128Y-68357D01*
X37872Y-68357D01*
X37636Y-68455D01*
X37455Y-68635D01*
X37357Y-68871D01*
X37357Y-69127D01*
X37455Y-69363D01*
X37635Y-69544D01*
X37871Y-69642D01*
X38127Y-69642D01*
X38363Y-69544D01*
X38544Y-69364D01*
X38642Y-69128D01*
X38642Y-68872D01*
X38642Y-69825D01*
X34202Y-69825D01*
X34320Y-69776D01*
X34354Y-69675D01*
X34000Y-69320D01*
X33645Y-69675D01*
X33679Y-69776D01*
X33812Y-69825D01*
X32474Y-69825D01*
X32495Y-69816D01*
X32566Y-69745D01*
X32604Y-69654D01*
X32604Y-69567D01*
X32713Y-69677D01*
X32899Y-69754D01*
X33099Y-69754D01*
X33285Y-69677D01*
X33427Y-69536D01*
X33443Y-69497D01*
X33473Y-69570D01*
X33574Y-69604D01*
X33929Y-69250D01*
X33574Y-68895D01*
X33473Y-68929D01*
X33445Y-69007D01*
X33427Y-68964D01*
X33286Y-68822D01*
X33200Y-68786D01*
X33200Y-67332D01*
X34832Y-65700D01*
X35275Y-65700D01*
X35329Y-65754D01*
X35440Y-65799D01*
X35559Y-65800D01*
X35669Y-65754D01*
X35754Y-65670D01*
X35799Y-65559D01*
X35800Y-65500D01*
X35800Y-68786D01*
X35714Y-68822D01*
X35572Y-68963D01*
X35499Y-69139D01*
X35427Y-68964D01*
X35286Y-68822D01*
X35100Y-68745D01*
X34900Y-68745D01*
X34714Y-68822D01*
X34572Y-68963D01*
X34556Y-69002D01*
X34526Y-68929D01*
X34425Y-68895D01*
X34354Y-68966D01*
X34354Y-68824D01*
X34320Y-68723D01*
X34094Y-68641D01*
X33854Y-68651D01*
X33679Y-68723D01*
X33645Y-68824D01*
X34000Y-69179D01*
X34354Y-68824D01*
X34354Y-68966D01*
X34070Y-69250D01*
X34425Y-69604D01*
X34526Y-69570D01*
X34554Y-69492D01*
X34572Y-69535D01*
X34713Y-69677D01*
X34899Y-69754D01*
X35099Y-69754D01*
X35285Y-69677D01*
X35427Y-69536D01*
X35500Y-69360D01*
X35572Y-69535D01*
X35713Y-69677D01*
X35899Y-69754D01*
X36099Y-69754D01*
X36285Y-69677D01*
X36427Y-69536D01*
X36504Y-69350D01*
X36504Y-69150D01*
X36427Y-68964D01*
X36286Y-68822D01*
X36200Y-68786D01*
X36200Y-66559D01*
X36245Y-66669D01*
X36329Y-66754D01*
X36440Y-66799D01*
X36559Y-66800D01*
X36669Y-66754D01*
X36754Y-66670D01*
X36799Y-66559D01*
X36800Y-66440D01*
X36754Y-66330D01*
X36670Y-66245D01*
X36559Y-66200D01*
X36482Y-66199D01*
X36450Y-66167D01*
X36450Y-63582D01*
X36891Y-63141D01*
X36934Y-63076D01*
X36934Y-63076D01*
X36937Y-63063D01*
X36949Y-63000D01*
X36950Y-63000D01*
X36950Y-62474D01*
X37004Y-62420D01*
X37049Y-62309D01*
X37050Y-62190D01*
X37004Y-62080D01*
X36920Y-61995D01*
X36809Y-61950D01*
X36690Y-61949D01*
X36580Y-61995D01*
X36495Y-62079D01*
X36450Y-62190D01*
X36449Y-62309D01*
X36495Y-62419D01*
X36550Y-62474D01*
X36550Y-62690D01*
X36504Y-62580D01*
X36420Y-62495D01*
X36309Y-62450D01*
X36190Y-62449D01*
X36080Y-62495D01*
X35995Y-62579D01*
X35950Y-62690D01*
X35950Y-62749D01*
X35950Y-62582D01*
X36141Y-62391D01*
X36141Y-62391D01*
X36184Y-62326D01*
X36200Y-62250D01*
X36200Y-62213D01*
X36285Y-62177D01*
X36427Y-62036D01*
X36504Y-61850D01*
X36504Y-61650D01*
X36427Y-61464D01*
X36286Y-61322D01*
X36100Y-61245D01*
X35900Y-61245D01*
X35714Y-61322D01*
X35572Y-61463D01*
X35499Y-61639D01*
X35427Y-61464D01*
X35286Y-61322D01*
X35100Y-61245D01*
X34900Y-61245D01*
X34714Y-61322D01*
X34572Y-61463D01*
X34556Y-61502D01*
X34526Y-61429D01*
X34425Y-61395D01*
X34070Y-61750D01*
X34425Y-62104D01*
X34526Y-62070D01*
X34554Y-61992D01*
X34572Y-62035D01*
X34713Y-62177D01*
X34899Y-62254D01*
X35099Y-62254D01*
X35285Y-62177D01*
X35427Y-62036D01*
X35500Y-61860D01*
X35572Y-62035D01*
X35713Y-62177D01*
X35767Y-62199D01*
X35608Y-62358D01*
X35565Y-62423D01*
X35550Y-62500D01*
X35550Y-64417D01*
X34917Y-65050D01*
X34500Y-65050D01*
X34423Y-65065D01*
X34358Y-65108D01*
X34354Y-65112D01*
X34354Y-62175D01*
X34000Y-61820D01*
X33645Y-62175D01*
X33679Y-62276D01*
X33905Y-62358D01*
X34145Y-62348D01*
X34320Y-62276D01*
X34354Y-62175D01*
X34354Y-65112D01*
X33167Y-66300D01*
X32832Y-66300D01*
X31641Y-65108D01*
X31576Y-65065D01*
X31500Y-65050D01*
X30642Y-65050D01*
X30642Y-61872D01*
X30544Y-61636D01*
X30364Y-61455D01*
X30128Y-61357D01*
X29872Y-61357D01*
X29636Y-61455D01*
X29455Y-61635D01*
X29357Y-61871D01*
X29357Y-62127D01*
X29455Y-62363D01*
X29635Y-62544D01*
X29871Y-62642D01*
X30127Y-62642D01*
X30363Y-62544D01*
X30544Y-62364D01*
X30642Y-62128D01*
X30642Y-61872D01*
X30642Y-65050D01*
X30332Y-65050D01*
X30141Y-64858D01*
X30077Y-64815D01*
X30077Y-64096D01*
X30027Y-63976D01*
X29935Y-63884D01*
X29815Y-63834D01*
X29685Y-63834D01*
X29564Y-63883D01*
X29472Y-63975D01*
X29422Y-64096D01*
X29422Y-64226D01*
X29472Y-64346D01*
X29564Y-64438D01*
X29684Y-64488D01*
X29814Y-64488D01*
X29935Y-64438D01*
X30027Y-64346D01*
X30077Y-64226D01*
X30077Y-64096D01*
X30077Y-64815D01*
X30076Y-64815D01*
X30000Y-64800D01*
X29750Y-64800D01*
X29673Y-64815D01*
X29608Y-64858D01*
X29358Y-65108D01*
X29315Y-65173D01*
X29300Y-65250D01*
X29300Y-65275D01*
X29245Y-65329D01*
X29200Y-65440D01*
X29199Y-65559D01*
X29245Y-65669D01*
X29329Y-65754D01*
X29440Y-65799D01*
X29559Y-65800D01*
X29669Y-65754D01*
X29750Y-65674D01*
X29829Y-65754D01*
X29940Y-65799D01*
X30059Y-65800D01*
X30169Y-65754D01*
X30224Y-65700D01*
X31167Y-65700D01*
X32800Y-67332D01*
X32800Y-68786D01*
X32714Y-68822D01*
X32604Y-68932D01*
X32604Y-68845D01*
X32566Y-68754D01*
X32495Y-68683D01*
X32404Y-68645D01*
X32304Y-68645D01*
X31595Y-68645D01*
X31504Y-68683D01*
X31433Y-68754D01*
X31395Y-68845D01*
X31395Y-68945D01*
X31395Y-69654D01*
X31433Y-69745D01*
X31504Y-69816D01*
X31525Y-69825D01*
X30077Y-69825D01*
X30077Y-66773D01*
X30027Y-66653D01*
X29935Y-66561D01*
X29815Y-66511D01*
X29685Y-66511D01*
X29564Y-66561D01*
X29472Y-66653D01*
X29422Y-66773D01*
X29422Y-66903D01*
X29472Y-67023D01*
X29564Y-67115D01*
X29684Y-67165D01*
X29814Y-67165D01*
X29935Y-67116D01*
X30027Y-67024D01*
X30077Y-66903D01*
X30077Y-66773D01*
X30077Y-69825D01*
X29175Y-69825D01*
X29175Y-61175D01*
X31525Y-61175D01*
X31504Y-61183D01*
X31433Y-61254D01*
X31395Y-61345D01*
X31395Y-61445D01*
X31395Y-62154D01*
X31433Y-62245D01*
X31504Y-62316D01*
X31595Y-62354D01*
X31695Y-62354D01*
X32404Y-62354D01*
X32495Y-62316D01*
X32566Y-62245D01*
X32604Y-62154D01*
X32604Y-62067D01*
X32713Y-62177D01*
X32800Y-62213D01*
X32800Y-62417D01*
X32667Y-62550D01*
X31750Y-62550D01*
X31673Y-62565D01*
X31608Y-62608D01*
X31017Y-63200D01*
X30940Y-63199D01*
X30830Y-63245D01*
X30745Y-63329D01*
X30700Y-63440D01*
X30699Y-63559D01*
X30745Y-63669D01*
X30829Y-63754D01*
X30940Y-63799D01*
X31059Y-63800D01*
X31169Y-63754D01*
X31254Y-63670D01*
X31299Y-63559D01*
X31300Y-63482D01*
X31832Y-62950D01*
X32750Y-62950D01*
X32826Y-62934D01*
X32891Y-62891D01*
X33141Y-62641D01*
X33141Y-62641D01*
X33184Y-62576D01*
X33200Y-62500D01*
X33200Y-62213D01*
X33285Y-62177D01*
X33427Y-62036D01*
X33443Y-61997D01*
X33473Y-62070D01*
X33574Y-62104D01*
X33929Y-61750D01*
X33574Y-61395D01*
X33473Y-61429D01*
X33445Y-61507D01*
X33427Y-61464D01*
X33286Y-61322D01*
X33100Y-61245D01*
X32900Y-61245D01*
X32714Y-61322D01*
X32604Y-61432D01*
X32604Y-61345D01*
X32566Y-61254D01*
X32495Y-61183D01*
X32474Y-61175D01*
X33450Y-61175D01*
X33450Y-61200D01*
X33736Y-61200D01*
X33679Y-61223D01*
X33645Y-61324D01*
X34000Y-61679D01*
X34354Y-61324D01*
X34320Y-61223D01*
X34255Y-61200D01*
X34550Y-61200D01*
X34550Y-61175D01*
X38825Y-61175D01*
X38825Y-64950D01*
X38800Y-64950D01*
X38800Y-66050D01*
X38825Y-66050D01*
X38825Y-69825D01*
X38825Y-69825D01*
G37*
G54D19*
X38825Y-69825D02*
X38642Y-69825D01*
X38642Y-68872D01*
X38544Y-68636D01*
X38364Y-68455D01*
X38128Y-68357D01*
X37872Y-68357D01*
X37636Y-68455D01*
X37455Y-68635D01*
X37357Y-68871D01*
X37357Y-69127D01*
X37455Y-69363D01*
X37635Y-69544D01*
X37871Y-69642D01*
X38127Y-69642D01*
X38363Y-69544D01*
X38544Y-69364D01*
X38642Y-69128D01*
X38642Y-68872D01*
X38642Y-69825D01*
X34202Y-69825D01*
X34320Y-69776D01*
X34354Y-69675D01*
X34000Y-69320D01*
X33645Y-69675D01*
X33679Y-69776D01*
X33812Y-69825D01*
X32474Y-69825D01*
X32495Y-69816D01*
X32566Y-69745D01*
X32604Y-69654D01*
X32604Y-69567D01*
X32713Y-69677D01*
X32899Y-69754D01*
X33099Y-69754D01*
X33285Y-69677D01*
X33427Y-69536D01*
X33443Y-69497D01*
X33473Y-69570D01*
X33574Y-69604D01*
X33929Y-69250D01*
X33574Y-68895D01*
X33473Y-68929D01*
X33445Y-69007D01*
X33427Y-68964D01*
X33286Y-68822D01*
X33200Y-68786D01*
X33200Y-67332D01*
X34832Y-65700D01*
X35275Y-65700D01*
X35329Y-65754D01*
X35440Y-65799D01*
X35559Y-65800D01*
X35669Y-65754D01*
X35754Y-65670D01*
X35799Y-65559D01*
X35800Y-65500D01*
X35800Y-68786D01*
X35714Y-68822D01*
X35572Y-68963D01*
X35499Y-69139D01*
X35427Y-68964D01*
X35286Y-68822D01*
X35100Y-68745D01*
X34900Y-68745D01*
X34714Y-68822D01*
X34572Y-68963D01*
X34556Y-69002D01*
X34526Y-68929D01*
X34425Y-68895D01*
X34354Y-68966D01*
X34354Y-68824D01*
X34320Y-68723D01*
X34094Y-68641D01*
X33854Y-68651D01*
X33679Y-68723D01*
X33645Y-68824D01*
X34000Y-69179D01*
X34354Y-68824D01*
X34354Y-68966D01*
X34070Y-69250D01*
X34425Y-69604D01*
X34526Y-69570D01*
X34554Y-69492D01*
X34572Y-69535D01*
X34713Y-69677D01*
X34899Y-69754D01*
X35099Y-69754D01*
X35285Y-69677D01*
X35427Y-69536D01*
X35500Y-69360D01*
X35572Y-69535D01*
X35713Y-69677D01*
X35899Y-69754D01*
X36099Y-69754D01*
X36285Y-69677D01*
X36427Y-69536D01*
X36504Y-69350D01*
X36504Y-69150D01*
X36427Y-68964D01*
X36286Y-68822D01*
X36200Y-68786D01*
X36200Y-66559D01*
X36245Y-66669D01*
X36329Y-66754D01*
X36440Y-66799D01*
X36559Y-66800D01*
X36669Y-66754D01*
X36754Y-66670D01*
X36799Y-66559D01*
X36800Y-66440D01*
X36754Y-66330D01*
X36670Y-66245D01*
X36559Y-66200D01*
X36482Y-66199D01*
X36450Y-66167D01*
X36450Y-63582D01*
X36891Y-63141D01*
X36934Y-63076D01*
X36934Y-63076D01*
X36937Y-63063D01*
X36949Y-63000D01*
X36950Y-63000D01*
X36950Y-62474D01*
X37004Y-62420D01*
X37049Y-62309D01*
X37050Y-62190D01*
X37004Y-62080D01*
X36920Y-61995D01*
X36809Y-61950D01*
X36690Y-61949D01*
X36580Y-61995D01*
X36495Y-62079D01*
X36450Y-62190D01*
X36449Y-62309D01*
X36495Y-62419D01*
X36550Y-62474D01*
X36550Y-62690D01*
X36504Y-62580D01*
X36420Y-62495D01*
X36309Y-62450D01*
X36190Y-62449D01*
X36080Y-62495D01*
X35995Y-62579D01*
X35950Y-62690D01*
X35950Y-62749D01*
X35950Y-62582D01*
X36141Y-62391D01*
X36141Y-62391D01*
X36184Y-62326D01*
X36200Y-62250D01*
X36200Y-62213D01*
X36285Y-62177D01*
X36427Y-62036D01*
X36504Y-61850D01*
X36504Y-61650D01*
X36427Y-61464D01*
X36286Y-61322D01*
X36100Y-61245D01*
X35900Y-61245D01*
X35714Y-61322D01*
X35572Y-61463D01*
X35499Y-61639D01*
X35427Y-61464D01*
X35286Y-61322D01*
X35100Y-61245D01*
X34900Y-61245D01*
X34714Y-61322D01*
X34572Y-61463D01*
X34556Y-61502D01*
X34526Y-61429D01*
X34425Y-61395D01*
X34070Y-61750D01*
X34425Y-62104D01*
X34526Y-62070D01*
X34554Y-61992D01*
X34572Y-62035D01*
X34713Y-62177D01*
X34899Y-62254D01*
X35099Y-62254D01*
X35285Y-62177D01*
X35427Y-62036D01*
X35500Y-61860D01*
X35572Y-62035D01*
X35713Y-62177D01*
X35767Y-62199D01*
X35608Y-62358D01*
X35565Y-62423D01*
X35550Y-62500D01*
X35550Y-64417D01*
X34917Y-65050D01*
X34500Y-65050D01*
X34423Y-65065D01*
X34358Y-65108D01*
X34354Y-65112D01*
X34354Y-62175D01*
X34000Y-61820D01*
X33645Y-62175D01*
X33679Y-62276D01*
X33905Y-62358D01*
X34145Y-62348D01*
X34320Y-62276D01*
X34354Y-62175D01*
X34354Y-65112D01*
X33167Y-66300D01*
X32832Y-66300D01*
X31641Y-65108D01*
X31576Y-65065D01*
X31500Y-65050D01*
X30642Y-65050D01*
X30642Y-61872D01*
X30544Y-61636D01*
X30364Y-61455D01*
X30128Y-61357D01*
X29872Y-61357D01*
X29636Y-61455D01*
X29455Y-61635D01*
X29357Y-61871D01*
X29357Y-62127D01*
X29455Y-62363D01*
X29635Y-62544D01*
X29871Y-62642D01*
X30127Y-62642D01*
X30363Y-62544D01*
X30544Y-62364D01*
X30642Y-62128D01*
X30642Y-61872D01*
X30642Y-65050D01*
X30332Y-65050D01*
X30141Y-64858D01*
X30077Y-64815D01*
X30077Y-64096D01*
X30027Y-63976D01*
X29935Y-63884D01*
X29815Y-63834D01*
X29685Y-63834D01*
X29564Y-63883D01*
X29472Y-63975D01*
X29422Y-64096D01*
X29422Y-64226D01*
X29472Y-64346D01*
X29564Y-64438D01*
X29684Y-64488D01*
X29814Y-64488D01*
X29935Y-64438D01*
X30027Y-64346D01*
X30077Y-64226D01*
X30077Y-64096D01*
X30077Y-64815D01*
X30076Y-64815D01*
X30000Y-64800D01*
X29750Y-64800D01*
X29673Y-64815D01*
X29608Y-64858D01*
X29358Y-65108D01*
X29315Y-65173D01*
X29300Y-65250D01*
X29300Y-65275D01*
X29245Y-65329D01*
X29200Y-65440D01*
X29199Y-65559D01*
X29245Y-65669D01*
X29329Y-65754D01*
X29440Y-65799D01*
X29559Y-65800D01*
X29669Y-65754D01*
X29750Y-65674D01*
X29829Y-65754D01*
X29940Y-65799D01*
X30059Y-65800D01*
X30169Y-65754D01*
X30224Y-65700D01*
X31167Y-65700D01*
X32800Y-67332D01*
X32800Y-68786D01*
X32714Y-68822D01*
X32604Y-68932D01*
X32604Y-68845D01*
X32566Y-68754D01*
X32495Y-68683D01*
X32404Y-68645D01*
X32304Y-68645D01*
X31595Y-68645D01*
X31504Y-68683D01*
X31433Y-68754D01*
X31395Y-68845D01*
X31395Y-68945D01*
X31395Y-69654D01*
X31433Y-69745D01*
X31504Y-69816D01*
X31525Y-69825D01*
X30077Y-69825D01*
X30077Y-66773D01*
X30027Y-66653D01*
X29935Y-66561D01*
X29815Y-66511D01*
X29685Y-66511D01*
X29564Y-66561D01*
X29472Y-66653D01*
X29422Y-66773D01*
X29422Y-66903D01*
X29472Y-67023D01*
X29564Y-67115D01*
X29684Y-67165D01*
X29814Y-67165D01*
X29935Y-67116D01*
X30027Y-67024D01*
X30077Y-66903D01*
X30077Y-66773D01*
X30077Y-69825D01*
X29175Y-69825D01*
X29175Y-61175D01*
X31525Y-61175D01*
X31504Y-61183D01*
X31433Y-61254D01*
X31395Y-61345D01*
X31395Y-61445D01*
X31395Y-62154D01*
X31433Y-62245D01*
X31504Y-62316D01*
X31595Y-62354D01*
X31695Y-62354D01*
X32404Y-62354D01*
X32495Y-62316D01*
X32566Y-62245D01*
X32604Y-62154D01*
X32604Y-62067D01*
X32713Y-62177D01*
X32800Y-62213D01*
X32800Y-62417D01*
X32667Y-62550D01*
X31750Y-62550D01*
X31673Y-62565D01*
X31608Y-62608D01*
X31017Y-63200D01*
X30940Y-63199D01*
X30830Y-63245D01*
X30745Y-63329D01*
X30700Y-63440D01*
X30699Y-63559D01*
X30745Y-63669D01*
X30829Y-63754D01*
X30940Y-63799D01*
X31059Y-63800D01*
X31169Y-63754D01*
X31254Y-63670D01*
X31299Y-63559D01*
X31300Y-63482D01*
X31832Y-62950D01*
X32750Y-62950D01*
X32826Y-62934D01*
X32891Y-62891D01*
X33141Y-62641D01*
X33141Y-62641D01*
X33184Y-62576D01*
X33200Y-62500D01*
X33200Y-62213D01*
X33285Y-62177D01*
X33427Y-62036D01*
X33443Y-61997D01*
X33473Y-62070D01*
X33574Y-62104D01*
X33929Y-61750D01*
X33574Y-61395D01*
X33473Y-61429D01*
X33445Y-61507D01*
X33427Y-61464D01*
X33286Y-61322D01*
X33100Y-61245D01*
X32900Y-61245D01*
X32714Y-61322D01*
X32604Y-61432D01*
X32604Y-61345D01*
X32566Y-61254D01*
X32495Y-61183D01*
X32474Y-61175D01*
X33450Y-61175D01*
X33450Y-61200D01*
X33736Y-61200D01*
X33679Y-61223D01*
X33645Y-61324D01*
X34000Y-61679D01*
X34354Y-61324D01*
X34320Y-61223D01*
X34255Y-61200D01*
X34550Y-61200D01*
X34550Y-61175D01*
X38825Y-61175D01*
X38825Y-64950D01*
X38800Y-64950D01*
X38800Y-66050D01*
X38825Y-66050D01*
X38825Y-69825D01*
G54D10*
G36*
X38825Y-59825D02*
X38642Y-59825D01*
X38642Y-58872D01*
X38544Y-58636D01*
X38364Y-58455D01*
X38128Y-58357D01*
X37872Y-58357D01*
X37636Y-58455D01*
X37455Y-58635D01*
X37357Y-58871D01*
X37357Y-59127D01*
X37455Y-59363D01*
X37635Y-59544D01*
X37871Y-59642D01*
X38127Y-59642D01*
X38363Y-59544D01*
X38544Y-59364D01*
X38642Y-59128D01*
X38642Y-58872D01*
X38642Y-59825D01*
X34550Y-59825D01*
X34550Y-59800D01*
X34263Y-59800D01*
X34320Y-59776D01*
X34354Y-59675D01*
X34000Y-59320D01*
X33645Y-59675D01*
X33679Y-59776D01*
X33744Y-59800D01*
X33450Y-59800D01*
X33450Y-59825D01*
X32474Y-59825D01*
X32495Y-59816D01*
X32566Y-59745D01*
X32604Y-59654D01*
X32604Y-59567D01*
X32713Y-59677D01*
X32899Y-59754D01*
X33099Y-59754D01*
X33285Y-59677D01*
X33427Y-59536D01*
X33443Y-59497D01*
X33473Y-59570D01*
X33574Y-59604D01*
X33929Y-59250D01*
X33574Y-58895D01*
X33473Y-58929D01*
X33445Y-59007D01*
X33427Y-58964D01*
X33286Y-58822D01*
X33200Y-58786D01*
X33200Y-57332D01*
X34832Y-55700D01*
X35275Y-55700D01*
X35329Y-55754D01*
X35440Y-55799D01*
X35559Y-55800D01*
X35669Y-55754D01*
X35754Y-55670D01*
X35799Y-55559D01*
X35800Y-55500D01*
X35800Y-58786D01*
X35714Y-58822D01*
X35572Y-58963D01*
X35499Y-59139D01*
X35427Y-58964D01*
X35286Y-58822D01*
X35100Y-58745D01*
X34900Y-58745D01*
X34714Y-58822D01*
X34572Y-58963D01*
X34556Y-59002D01*
X34526Y-58929D01*
X34425Y-58895D01*
X34354Y-58966D01*
X34354Y-58824D01*
X34320Y-58723D01*
X34094Y-58641D01*
X33854Y-58651D01*
X33679Y-58723D01*
X33645Y-58824D01*
X34000Y-59179D01*
X34354Y-58824D01*
X34354Y-58966D01*
X34070Y-59250D01*
X34425Y-59604D01*
X34526Y-59570D01*
X34554Y-59492D01*
X34572Y-59535D01*
X34713Y-59677D01*
X34899Y-59754D01*
X35099Y-59754D01*
X35285Y-59677D01*
X35427Y-59536D01*
X35500Y-59360D01*
X35572Y-59535D01*
X35713Y-59677D01*
X35899Y-59754D01*
X36099Y-59754D01*
X36285Y-59677D01*
X36427Y-59536D01*
X36504Y-59350D01*
X36504Y-59150D01*
X36427Y-58964D01*
X36286Y-58822D01*
X36200Y-58786D01*
X36200Y-56559D01*
X36245Y-56669D01*
X36329Y-56754D01*
X36440Y-56799D01*
X36559Y-56800D01*
X36669Y-56754D01*
X36754Y-56670D01*
X36799Y-56559D01*
X36800Y-56440D01*
X36754Y-56330D01*
X36670Y-56245D01*
X36559Y-56200D01*
X36482Y-56199D01*
X36450Y-56167D01*
X36450Y-53582D01*
X36891Y-53141D01*
X36934Y-53076D01*
X36934Y-53076D01*
X36937Y-53063D01*
X36949Y-53000D01*
X36950Y-53000D01*
X36950Y-52474D01*
X37004Y-52420D01*
X37049Y-52309D01*
X37050Y-52190D01*
X37004Y-52080D01*
X36920Y-51995D01*
X36809Y-51950D01*
X36690Y-51949D01*
X36580Y-51995D01*
X36495Y-52079D01*
X36450Y-52190D01*
X36449Y-52309D01*
X36495Y-52419D01*
X36550Y-52474D01*
X36550Y-52690D01*
X36504Y-52580D01*
X36420Y-52495D01*
X36309Y-52450D01*
X36190Y-52449D01*
X36080Y-52495D01*
X35995Y-52579D01*
X35950Y-52690D01*
X35950Y-52749D01*
X35950Y-52582D01*
X36141Y-52391D01*
X36141Y-52391D01*
X36184Y-52326D01*
X36200Y-52250D01*
X36200Y-52213D01*
X36285Y-52177D01*
X36427Y-52036D01*
X36504Y-51850D01*
X36504Y-51650D01*
X36427Y-51464D01*
X36286Y-51322D01*
X36100Y-51245D01*
X35900Y-51245D01*
X35714Y-51322D01*
X35572Y-51463D01*
X35499Y-51639D01*
X35427Y-51464D01*
X35286Y-51322D01*
X35100Y-51245D01*
X34900Y-51245D01*
X34714Y-51322D01*
X34572Y-51463D01*
X34556Y-51502D01*
X34526Y-51429D01*
X34425Y-51395D01*
X34070Y-51750D01*
X34425Y-52104D01*
X34526Y-52070D01*
X34554Y-51992D01*
X34572Y-52035D01*
X34713Y-52177D01*
X34899Y-52254D01*
X35099Y-52254D01*
X35285Y-52177D01*
X35427Y-52036D01*
X35500Y-51860D01*
X35572Y-52035D01*
X35713Y-52177D01*
X35767Y-52199D01*
X35608Y-52358D01*
X35565Y-52423D01*
X35550Y-52500D01*
X35550Y-54417D01*
X34917Y-55050D01*
X34500Y-55050D01*
X34423Y-55065D01*
X34358Y-55108D01*
X34354Y-55112D01*
X34354Y-52175D01*
X34000Y-51820D01*
X33645Y-52175D01*
X33679Y-52276D01*
X33905Y-52358D01*
X34145Y-52348D01*
X34320Y-52276D01*
X34354Y-52175D01*
X34354Y-55112D01*
X33167Y-56300D01*
X32832Y-56300D01*
X31641Y-55108D01*
X31576Y-55065D01*
X31500Y-55050D01*
X30642Y-55050D01*
X30642Y-51872D01*
X30544Y-51636D01*
X30364Y-51455D01*
X30128Y-51357D01*
X29872Y-51357D01*
X29636Y-51455D01*
X29455Y-51635D01*
X29357Y-51871D01*
X29357Y-52127D01*
X29455Y-52363D01*
X29635Y-52544D01*
X29871Y-52642D01*
X30127Y-52642D01*
X30363Y-52544D01*
X30544Y-52364D01*
X30642Y-52128D01*
X30642Y-51872D01*
X30642Y-55050D01*
X30332Y-55050D01*
X30141Y-54858D01*
X30077Y-54815D01*
X30077Y-54096D01*
X30027Y-53976D01*
X29935Y-53884D01*
X29815Y-53834D01*
X29685Y-53834D01*
X29564Y-53883D01*
X29472Y-53975D01*
X29422Y-54096D01*
X29422Y-54226D01*
X29472Y-54346D01*
X29564Y-54438D01*
X29684Y-54488D01*
X29814Y-54488D01*
X29935Y-54438D01*
X30027Y-54346D01*
X30077Y-54226D01*
X30077Y-54096D01*
X30077Y-54815D01*
X30076Y-54815D01*
X30000Y-54800D01*
X29750Y-54800D01*
X29673Y-54815D01*
X29608Y-54858D01*
X29358Y-55108D01*
X29315Y-55173D01*
X29300Y-55250D01*
X29300Y-55275D01*
X29245Y-55329D01*
X29200Y-55440D01*
X29199Y-55559D01*
X29245Y-55669D01*
X29329Y-55754D01*
X29440Y-55799D01*
X29559Y-55800D01*
X29669Y-55754D01*
X29750Y-55674D01*
X29829Y-55754D01*
X29940Y-55799D01*
X30059Y-55800D01*
X30169Y-55754D01*
X30224Y-55700D01*
X31167Y-55700D01*
X32800Y-57332D01*
X32800Y-58786D01*
X32714Y-58822D01*
X32604Y-58932D01*
X32604Y-58845D01*
X32566Y-58754D01*
X32495Y-58683D01*
X32404Y-58645D01*
X32304Y-58645D01*
X31595Y-58645D01*
X31504Y-58683D01*
X31433Y-58754D01*
X31395Y-58845D01*
X31395Y-58945D01*
X31395Y-59654D01*
X31433Y-59745D01*
X31504Y-59816D01*
X31525Y-59825D01*
X30077Y-59825D01*
X30077Y-56773D01*
X30027Y-56653D01*
X29935Y-56561D01*
X29815Y-56511D01*
X29685Y-56511D01*
X29564Y-56561D01*
X29472Y-56653D01*
X29422Y-56773D01*
X29422Y-56903D01*
X29472Y-57023D01*
X29564Y-57115D01*
X29684Y-57165D01*
X29814Y-57165D01*
X29935Y-57116D01*
X30027Y-57024D01*
X30077Y-56903D01*
X30077Y-56773D01*
X30077Y-59825D01*
X29175Y-59825D01*
X29175Y-51175D01*
X31525Y-51175D01*
X31504Y-51183D01*
X31433Y-51254D01*
X31395Y-51345D01*
X31395Y-51445D01*
X31395Y-52154D01*
X31433Y-52245D01*
X31504Y-52316D01*
X31595Y-52354D01*
X31695Y-52354D01*
X32404Y-52354D01*
X32495Y-52316D01*
X32566Y-52245D01*
X32604Y-52154D01*
X32604Y-52067D01*
X32713Y-52177D01*
X32800Y-52213D01*
X32800Y-52417D01*
X32667Y-52550D01*
X31750Y-52550D01*
X31673Y-52565D01*
X31608Y-52608D01*
X31017Y-53200D01*
X30940Y-53199D01*
X30830Y-53245D01*
X30745Y-53329D01*
X30700Y-53440D01*
X30699Y-53559D01*
X30745Y-53669D01*
X30829Y-53754D01*
X30940Y-53799D01*
X31059Y-53800D01*
X31169Y-53754D01*
X31254Y-53670D01*
X31299Y-53559D01*
X31300Y-53482D01*
X31832Y-52950D01*
X32750Y-52950D01*
X32826Y-52934D01*
X32891Y-52891D01*
X33141Y-52641D01*
X33141Y-52641D01*
X33184Y-52576D01*
X33200Y-52500D01*
X33200Y-52213D01*
X33285Y-52177D01*
X33427Y-52036D01*
X33443Y-51997D01*
X33473Y-52070D01*
X33574Y-52104D01*
X33929Y-51750D01*
X33574Y-51395D01*
X33473Y-51429D01*
X33445Y-51507D01*
X33427Y-51464D01*
X33286Y-51322D01*
X33100Y-51245D01*
X32900Y-51245D01*
X32714Y-51322D01*
X32604Y-51432D01*
X32604Y-51345D01*
X32566Y-51254D01*
X32495Y-51183D01*
X32474Y-51175D01*
X33450Y-51175D01*
X33450Y-51200D01*
X33736Y-51200D01*
X33679Y-51223D01*
X33645Y-51324D01*
X34000Y-51679D01*
X34354Y-51324D01*
X34320Y-51223D01*
X34255Y-51200D01*
X34550Y-51200D01*
X34550Y-51175D01*
X38825Y-51175D01*
X38825Y-54950D01*
X38800Y-54950D01*
X38800Y-56050D01*
X38825Y-56050D01*
X38825Y-59825D01*
X38825Y-59825D01*
G37*
G54D19*
X38825Y-59825D02*
X38642Y-59825D01*
X38642Y-58872D01*
X38544Y-58636D01*
X38364Y-58455D01*
X38128Y-58357D01*
X37872Y-58357D01*
X37636Y-58455D01*
X37455Y-58635D01*
X37357Y-58871D01*
X37357Y-59127D01*
X37455Y-59363D01*
X37635Y-59544D01*
X37871Y-59642D01*
X38127Y-59642D01*
X38363Y-59544D01*
X38544Y-59364D01*
X38642Y-59128D01*
X38642Y-58872D01*
X38642Y-59825D01*
X34550Y-59825D01*
X34550Y-59800D01*
X34263Y-59800D01*
X34320Y-59776D01*
X34354Y-59675D01*
X34000Y-59320D01*
X33645Y-59675D01*
X33679Y-59776D01*
X33744Y-59800D01*
X33450Y-59800D01*
X33450Y-59825D01*
X32474Y-59825D01*
X32495Y-59816D01*
X32566Y-59745D01*
X32604Y-59654D01*
X32604Y-59567D01*
X32713Y-59677D01*
X32899Y-59754D01*
X33099Y-59754D01*
X33285Y-59677D01*
X33427Y-59536D01*
X33443Y-59497D01*
X33473Y-59570D01*
X33574Y-59604D01*
X33929Y-59250D01*
X33574Y-58895D01*
X33473Y-58929D01*
X33445Y-59007D01*
X33427Y-58964D01*
X33286Y-58822D01*
X33200Y-58786D01*
X33200Y-57332D01*
X34832Y-55700D01*
X35275Y-55700D01*
X35329Y-55754D01*
X35440Y-55799D01*
X35559Y-55800D01*
X35669Y-55754D01*
X35754Y-55670D01*
X35799Y-55559D01*
X35800Y-55500D01*
X35800Y-58786D01*
X35714Y-58822D01*
X35572Y-58963D01*
X35499Y-59139D01*
X35427Y-58964D01*
X35286Y-58822D01*
X35100Y-58745D01*
X34900Y-58745D01*
X34714Y-58822D01*
X34572Y-58963D01*
X34556Y-59002D01*
X34526Y-58929D01*
X34425Y-58895D01*
X34354Y-58966D01*
X34354Y-58824D01*
X34320Y-58723D01*
X34094Y-58641D01*
X33854Y-58651D01*
X33679Y-58723D01*
X33645Y-58824D01*
X34000Y-59179D01*
X34354Y-58824D01*
X34354Y-58966D01*
X34070Y-59250D01*
X34425Y-59604D01*
X34526Y-59570D01*
X34554Y-59492D01*
X34572Y-59535D01*
X34713Y-59677D01*
X34899Y-59754D01*
X35099Y-59754D01*
X35285Y-59677D01*
X35427Y-59536D01*
X35500Y-59360D01*
X35572Y-59535D01*
X35713Y-59677D01*
X35899Y-59754D01*
X36099Y-59754D01*
X36285Y-59677D01*
X36427Y-59536D01*
X36504Y-59350D01*
X36504Y-59150D01*
X36427Y-58964D01*
X36286Y-58822D01*
X36200Y-58786D01*
X36200Y-56559D01*
X36245Y-56669D01*
X36329Y-56754D01*
X36440Y-56799D01*
X36559Y-56800D01*
X36669Y-56754D01*
X36754Y-56670D01*
X36799Y-56559D01*
X36800Y-56440D01*
X36754Y-56330D01*
X36670Y-56245D01*
X36559Y-56200D01*
X36482Y-56199D01*
X36450Y-56167D01*
X36450Y-53582D01*
X36891Y-53141D01*
X36934Y-53076D01*
X36934Y-53076D01*
X36937Y-53063D01*
X36949Y-53000D01*
X36950Y-53000D01*
X36950Y-52474D01*
X37004Y-52420D01*
X37049Y-52309D01*
X37050Y-52190D01*
X37004Y-52080D01*
X36920Y-51995D01*
X36809Y-51950D01*
X36690Y-51949D01*
X36580Y-51995D01*
X36495Y-52079D01*
X36450Y-52190D01*
X36449Y-52309D01*
X36495Y-52419D01*
X36550Y-52474D01*
X36550Y-52690D01*
X36504Y-52580D01*
X36420Y-52495D01*
X36309Y-52450D01*
X36190Y-52449D01*
X36080Y-52495D01*
X35995Y-52579D01*
X35950Y-52690D01*
X35950Y-52749D01*
X35950Y-52582D01*
X36141Y-52391D01*
X36141Y-52391D01*
X36184Y-52326D01*
X36200Y-52250D01*
X36200Y-52213D01*
X36285Y-52177D01*
X36427Y-52036D01*
X36504Y-51850D01*
X36504Y-51650D01*
X36427Y-51464D01*
X36286Y-51322D01*
X36100Y-51245D01*
X35900Y-51245D01*
X35714Y-51322D01*
X35572Y-51463D01*
X35499Y-51639D01*
X35427Y-51464D01*
X35286Y-51322D01*
X35100Y-51245D01*
X34900Y-51245D01*
X34714Y-51322D01*
X34572Y-51463D01*
X34556Y-51502D01*
X34526Y-51429D01*
X34425Y-51395D01*
X34070Y-51750D01*
X34425Y-52104D01*
X34526Y-52070D01*
X34554Y-51992D01*
X34572Y-52035D01*
X34713Y-52177D01*
X34899Y-52254D01*
X35099Y-52254D01*
X35285Y-52177D01*
X35427Y-52036D01*
X35500Y-51860D01*
X35572Y-52035D01*
X35713Y-52177D01*
X35767Y-52199D01*
X35608Y-52358D01*
X35565Y-52423D01*
X35550Y-52500D01*
X35550Y-54417D01*
X34917Y-55050D01*
X34500Y-55050D01*
X34423Y-55065D01*
X34358Y-55108D01*
X34354Y-55112D01*
X34354Y-52175D01*
X34000Y-51820D01*
X33645Y-52175D01*
X33679Y-52276D01*
X33905Y-52358D01*
X34145Y-52348D01*
X34320Y-52276D01*
X34354Y-52175D01*
X34354Y-55112D01*
X33167Y-56300D01*
X32832Y-56300D01*
X31641Y-55108D01*
X31576Y-55065D01*
X31500Y-55050D01*
X30642Y-55050D01*
X30642Y-51872D01*
X30544Y-51636D01*
X30364Y-51455D01*
X30128Y-51357D01*
X29872Y-51357D01*
X29636Y-51455D01*
X29455Y-51635D01*
X29357Y-51871D01*
X29357Y-52127D01*
X29455Y-52363D01*
X29635Y-52544D01*
X29871Y-52642D01*
X30127Y-52642D01*
X30363Y-52544D01*
X30544Y-52364D01*
X30642Y-52128D01*
X30642Y-51872D01*
X30642Y-55050D01*
X30332Y-55050D01*
X30141Y-54858D01*
X30077Y-54815D01*
X30077Y-54096D01*
X30027Y-53976D01*
X29935Y-53884D01*
X29815Y-53834D01*
X29685Y-53834D01*
X29564Y-53883D01*
X29472Y-53975D01*
X29422Y-54096D01*
X29422Y-54226D01*
X29472Y-54346D01*
X29564Y-54438D01*
X29684Y-54488D01*
X29814Y-54488D01*
X29935Y-54438D01*
X30027Y-54346D01*
X30077Y-54226D01*
X30077Y-54096D01*
X30077Y-54815D01*
X30076Y-54815D01*
X30000Y-54800D01*
X29750Y-54800D01*
X29673Y-54815D01*
X29608Y-54858D01*
X29358Y-55108D01*
X29315Y-55173D01*
X29300Y-55250D01*
X29300Y-55275D01*
X29245Y-55329D01*
X29200Y-55440D01*
X29199Y-55559D01*
X29245Y-55669D01*
X29329Y-55754D01*
X29440Y-55799D01*
X29559Y-55800D01*
X29669Y-55754D01*
X29750Y-55674D01*
X29829Y-55754D01*
X29940Y-55799D01*
X30059Y-55800D01*
X30169Y-55754D01*
X30224Y-55700D01*
X31167Y-55700D01*
X32800Y-57332D01*
X32800Y-58786D01*
X32714Y-58822D01*
X32604Y-58932D01*
X32604Y-58845D01*
X32566Y-58754D01*
X32495Y-58683D01*
X32404Y-58645D01*
X32304Y-58645D01*
X31595Y-58645D01*
X31504Y-58683D01*
X31433Y-58754D01*
X31395Y-58845D01*
X31395Y-58945D01*
X31395Y-59654D01*
X31433Y-59745D01*
X31504Y-59816D01*
X31525Y-59825D01*
X30077Y-59825D01*
X30077Y-56773D01*
X30027Y-56653D01*
X29935Y-56561D01*
X29815Y-56511D01*
X29685Y-56511D01*
X29564Y-56561D01*
X29472Y-56653D01*
X29422Y-56773D01*
X29422Y-56903D01*
X29472Y-57023D01*
X29564Y-57115D01*
X29684Y-57165D01*
X29814Y-57165D01*
X29935Y-57116D01*
X30027Y-57024D01*
X30077Y-56903D01*
X30077Y-56773D01*
X30077Y-59825D01*
X29175Y-59825D01*
X29175Y-51175D01*
X31525Y-51175D01*
X31504Y-51183D01*
X31433Y-51254D01*
X31395Y-51345D01*
X31395Y-51445D01*
X31395Y-52154D01*
X31433Y-52245D01*
X31504Y-52316D01*
X31595Y-52354D01*
X31695Y-52354D01*
X32404Y-52354D01*
X32495Y-52316D01*
X32566Y-52245D01*
X32604Y-52154D01*
X32604Y-52067D01*
X32713Y-52177D01*
X32800Y-52213D01*
X32800Y-52417D01*
X32667Y-52550D01*
X31750Y-52550D01*
X31673Y-52565D01*
X31608Y-52608D01*
X31017Y-53200D01*
X30940Y-53199D01*
X30830Y-53245D01*
X30745Y-53329D01*
X30700Y-53440D01*
X30699Y-53559D01*
X30745Y-53669D01*
X30829Y-53754D01*
X30940Y-53799D01*
X31059Y-53800D01*
X31169Y-53754D01*
X31254Y-53670D01*
X31299Y-53559D01*
X31300Y-53482D01*
X31832Y-52950D01*
X32750Y-52950D01*
X32826Y-52934D01*
X32891Y-52891D01*
X33141Y-52641D01*
X33141Y-52641D01*
X33184Y-52576D01*
X33200Y-52500D01*
X33200Y-52213D01*
X33285Y-52177D01*
X33427Y-52036D01*
X33443Y-51997D01*
X33473Y-52070D01*
X33574Y-52104D01*
X33929Y-51750D01*
X33574Y-51395D01*
X33473Y-51429D01*
X33445Y-51507D01*
X33427Y-51464D01*
X33286Y-51322D01*
X33100Y-51245D01*
X32900Y-51245D01*
X32714Y-51322D01*
X32604Y-51432D01*
X32604Y-51345D01*
X32566Y-51254D01*
X32495Y-51183D01*
X32474Y-51175D01*
X33450Y-51175D01*
X33450Y-51200D01*
X33736Y-51200D01*
X33679Y-51223D01*
X33645Y-51324D01*
X34000Y-51679D01*
X34354Y-51324D01*
X34320Y-51223D01*
X34255Y-51200D01*
X34550Y-51200D01*
X34550Y-51175D01*
X38825Y-51175D01*
X38825Y-54950D01*
X38800Y-54950D01*
X38800Y-56050D01*
X38825Y-56050D01*
X38825Y-59825D01*
G54D10*
G36*
X43800Y-68786D02*
X43714Y-68822D01*
X43604Y-68932D01*
X43604Y-68845D01*
X43566Y-68754D01*
X43495Y-68683D01*
X43404Y-68645D01*
X43304Y-68645D01*
X42595Y-68645D01*
X42504Y-68683D01*
X42433Y-68754D01*
X42395Y-68845D01*
X42395Y-68945D01*
X42395Y-69654D01*
X42433Y-69745D01*
X42504Y-69816D01*
X42525Y-69825D01*
X41077Y-69825D01*
X41077Y-66773D01*
X41027Y-66653D01*
X40935Y-66561D01*
X40815Y-66511D01*
X40685Y-66511D01*
X40564Y-66561D01*
X40472Y-66653D01*
X40422Y-66773D01*
X40422Y-66903D01*
X40472Y-67023D01*
X40564Y-67115D01*
X40684Y-67165D01*
X40814Y-67165D01*
X40935Y-67116D01*
X41027Y-67024D01*
X41077Y-66903D01*
X41077Y-66773D01*
X41077Y-69825D01*
X40175Y-69825D01*
X40175Y-66050D01*
X40200Y-66050D01*
X40200Y-65559D01*
X40245Y-65669D01*
X40329Y-65754D01*
X40440Y-65799D01*
X40559Y-65800D01*
X40669Y-65754D01*
X40750Y-65674D01*
X40829Y-65754D01*
X40940Y-65799D01*
X41059Y-65800D01*
X41169Y-65754D01*
X41224Y-65700D01*
X42167Y-65700D01*
X43800Y-67332D01*
X43800Y-68786D01*
X43800Y-68786D01*
G37*
G54D19*
X43800Y-68786D02*
X43714Y-68822D01*
X43604Y-68932D01*
X43604Y-68845D01*
X43566Y-68754D01*
X43495Y-68683D01*
X43404Y-68645D01*
X43304Y-68645D01*
X42595Y-68645D01*
X42504Y-68683D01*
X42433Y-68754D01*
X42395Y-68845D01*
X42395Y-68945D01*
X42395Y-69654D01*
X42433Y-69745D01*
X42504Y-69816D01*
X42525Y-69825D01*
X41077Y-69825D01*
X41077Y-66773D01*
X41027Y-66653D01*
X40935Y-66561D01*
X40815Y-66511D01*
X40685Y-66511D01*
X40564Y-66561D01*
X40472Y-66653D01*
X40422Y-66773D01*
X40422Y-66903D01*
X40472Y-67023D01*
X40564Y-67115D01*
X40684Y-67165D01*
X40814Y-67165D01*
X40935Y-67116D01*
X41027Y-67024D01*
X41077Y-66903D01*
X41077Y-66773D01*
X41077Y-69825D01*
X40175Y-69825D01*
X40175Y-66050D01*
X40200Y-66050D01*
X40200Y-65559D01*
X40245Y-65669D01*
X40329Y-65754D01*
X40440Y-65799D01*
X40559Y-65800D01*
X40669Y-65754D01*
X40750Y-65674D01*
X40829Y-65754D01*
X40940Y-65799D01*
X41059Y-65800D01*
X41169Y-65754D01*
X41224Y-65700D01*
X42167Y-65700D01*
X43800Y-67332D01*
X43800Y-68786D01*
G54D10*
G36*
X49825Y-69825D02*
X49642Y-69825D01*
X49642Y-68872D01*
X49544Y-68636D01*
X49364Y-68455D01*
X49128Y-68357D01*
X48872Y-68357D01*
X48636Y-68455D01*
X48455Y-68635D01*
X48357Y-68871D01*
X48357Y-69127D01*
X48455Y-69363D01*
X48635Y-69544D01*
X48871Y-69642D01*
X49127Y-69642D01*
X49363Y-69544D01*
X49544Y-69364D01*
X49642Y-69128D01*
X49642Y-68872D01*
X49642Y-69825D01*
X45202Y-69825D01*
X45320Y-69776D01*
X45354Y-69675D01*
X45000Y-69320D01*
X44645Y-69675D01*
X44679Y-69776D01*
X44812Y-69825D01*
X43474Y-69825D01*
X43495Y-69816D01*
X43566Y-69745D01*
X43604Y-69654D01*
X43604Y-69567D01*
X43713Y-69677D01*
X43899Y-69754D01*
X44099Y-69754D01*
X44285Y-69677D01*
X44427Y-69536D01*
X44443Y-69497D01*
X44473Y-69570D01*
X44574Y-69604D01*
X44929Y-69250D01*
X44574Y-68895D01*
X44473Y-68929D01*
X44445Y-69007D01*
X44427Y-68964D01*
X44286Y-68822D01*
X44200Y-68786D01*
X44200Y-67332D01*
X45832Y-65700D01*
X46275Y-65700D01*
X46329Y-65754D01*
X46440Y-65799D01*
X46559Y-65800D01*
X46669Y-65754D01*
X46754Y-65670D01*
X46799Y-65559D01*
X46800Y-65500D01*
X46800Y-68786D01*
X46714Y-68822D01*
X46572Y-68963D01*
X46499Y-69139D01*
X46427Y-68964D01*
X46286Y-68822D01*
X46100Y-68745D01*
X45900Y-68745D01*
X45714Y-68822D01*
X45572Y-68963D01*
X45556Y-69002D01*
X45526Y-68929D01*
X45425Y-68895D01*
X45354Y-68966D01*
X45354Y-68824D01*
X45320Y-68723D01*
X45094Y-68641D01*
X44854Y-68651D01*
X44679Y-68723D01*
X44645Y-68824D01*
X45000Y-69179D01*
X45354Y-68824D01*
X45354Y-68966D01*
X45070Y-69250D01*
X45425Y-69604D01*
X45526Y-69570D01*
X45554Y-69492D01*
X45572Y-69535D01*
X45713Y-69677D01*
X45899Y-69754D01*
X46099Y-69754D01*
X46285Y-69677D01*
X46427Y-69536D01*
X46500Y-69360D01*
X46572Y-69535D01*
X46713Y-69677D01*
X46899Y-69754D01*
X47099Y-69754D01*
X47285Y-69677D01*
X47427Y-69536D01*
X47504Y-69350D01*
X47504Y-69150D01*
X47427Y-68964D01*
X47286Y-68822D01*
X47200Y-68786D01*
X47200Y-66559D01*
X47245Y-66669D01*
X47329Y-66754D01*
X47440Y-66799D01*
X47559Y-66800D01*
X47669Y-66754D01*
X47754Y-66670D01*
X47799Y-66559D01*
X47800Y-66440D01*
X47754Y-66330D01*
X47670Y-66245D01*
X47559Y-66200D01*
X47482Y-66199D01*
X47450Y-66167D01*
X47450Y-63582D01*
X47891Y-63141D01*
X47934Y-63076D01*
X47934Y-63076D01*
X47937Y-63063D01*
X47949Y-63000D01*
X47950Y-63000D01*
X47950Y-62474D01*
X48004Y-62420D01*
X48049Y-62309D01*
X48050Y-62190D01*
X48004Y-62080D01*
X47920Y-61995D01*
X47809Y-61950D01*
X47690Y-61949D01*
X47580Y-61995D01*
X47495Y-62079D01*
X47450Y-62190D01*
X47449Y-62309D01*
X47495Y-62419D01*
X47550Y-62474D01*
X47550Y-62690D01*
X47504Y-62580D01*
X47420Y-62495D01*
X47309Y-62450D01*
X47190Y-62449D01*
X47080Y-62495D01*
X46995Y-62579D01*
X46950Y-62690D01*
X46950Y-62749D01*
X46950Y-62582D01*
X47141Y-62391D01*
X47141Y-62391D01*
X47184Y-62326D01*
X47200Y-62250D01*
X47200Y-62213D01*
X47285Y-62177D01*
X47427Y-62036D01*
X47504Y-61850D01*
X47504Y-61650D01*
X47427Y-61464D01*
X47286Y-61322D01*
X47100Y-61245D01*
X46900Y-61245D01*
X46714Y-61322D01*
X46572Y-61463D01*
X46499Y-61639D01*
X46427Y-61464D01*
X46286Y-61322D01*
X46100Y-61245D01*
X45900Y-61245D01*
X45714Y-61322D01*
X45572Y-61463D01*
X45556Y-61502D01*
X45526Y-61429D01*
X45425Y-61395D01*
X45070Y-61750D01*
X45425Y-62104D01*
X45526Y-62070D01*
X45554Y-61992D01*
X45572Y-62035D01*
X45713Y-62177D01*
X45899Y-62254D01*
X46099Y-62254D01*
X46285Y-62177D01*
X46427Y-62036D01*
X46500Y-61860D01*
X46572Y-62035D01*
X46713Y-62177D01*
X46767Y-62199D01*
X46608Y-62358D01*
X46565Y-62423D01*
X46550Y-62500D01*
X46550Y-64417D01*
X45917Y-65050D01*
X45500Y-65050D01*
X45423Y-65065D01*
X45358Y-65108D01*
X45354Y-65112D01*
X45354Y-62175D01*
X45000Y-61820D01*
X44645Y-62175D01*
X44679Y-62276D01*
X44905Y-62358D01*
X45145Y-62348D01*
X45320Y-62276D01*
X45354Y-62175D01*
X45354Y-65112D01*
X44167Y-66300D01*
X43832Y-66300D01*
X42641Y-65108D01*
X42576Y-65065D01*
X42500Y-65050D01*
X41642Y-65050D01*
X41642Y-61872D01*
X41544Y-61636D01*
X41364Y-61455D01*
X41128Y-61357D01*
X40872Y-61357D01*
X40636Y-61455D01*
X40455Y-61635D01*
X40357Y-61871D01*
X40357Y-62127D01*
X40455Y-62363D01*
X40635Y-62544D01*
X40871Y-62642D01*
X41127Y-62642D01*
X41363Y-62544D01*
X41544Y-62364D01*
X41642Y-62128D01*
X41642Y-61872D01*
X41642Y-65050D01*
X41332Y-65050D01*
X41141Y-64858D01*
X41077Y-64815D01*
X41077Y-64096D01*
X41027Y-63976D01*
X40935Y-63884D01*
X40815Y-63834D01*
X40685Y-63834D01*
X40564Y-63883D01*
X40472Y-63975D01*
X40422Y-64096D01*
X40422Y-64226D01*
X40472Y-64346D01*
X40564Y-64438D01*
X40684Y-64488D01*
X40814Y-64488D01*
X40935Y-64438D01*
X41027Y-64346D01*
X41077Y-64226D01*
X41077Y-64096D01*
X41077Y-64815D01*
X41076Y-64815D01*
X41000Y-64800D01*
X40750Y-64800D01*
X40673Y-64815D01*
X40608Y-64858D01*
X40358Y-65108D01*
X40315Y-65173D01*
X40300Y-65250D01*
X40300Y-65275D01*
X40245Y-65329D01*
X40200Y-65440D01*
X40200Y-65499D01*
X40200Y-64950D01*
X40175Y-64950D01*
X40175Y-61175D01*
X42525Y-61175D01*
X42504Y-61183D01*
X42433Y-61254D01*
X42395Y-61345D01*
X42395Y-61445D01*
X42395Y-62154D01*
X42433Y-62245D01*
X42504Y-62316D01*
X42595Y-62354D01*
X42695Y-62354D01*
X43404Y-62354D01*
X43495Y-62316D01*
X43566Y-62245D01*
X43604Y-62154D01*
X43604Y-62067D01*
X43713Y-62177D01*
X43800Y-62213D01*
X43800Y-62417D01*
X43667Y-62550D01*
X42750Y-62550D01*
X42673Y-62565D01*
X42608Y-62608D01*
X42017Y-63200D01*
X41940Y-63199D01*
X41830Y-63245D01*
X41745Y-63329D01*
X41700Y-63440D01*
X41699Y-63559D01*
X41745Y-63669D01*
X41829Y-63754D01*
X41940Y-63799D01*
X42059Y-63800D01*
X42169Y-63754D01*
X42254Y-63670D01*
X42299Y-63559D01*
X42300Y-63482D01*
X42832Y-62950D01*
X43750Y-62950D01*
X43826Y-62934D01*
X43891Y-62891D01*
X44141Y-62641D01*
X44141Y-62641D01*
X44184Y-62576D01*
X44200Y-62500D01*
X44200Y-62213D01*
X44285Y-62177D01*
X44427Y-62036D01*
X44443Y-61997D01*
X44473Y-62070D01*
X44574Y-62104D01*
X44929Y-61750D01*
X44574Y-61395D01*
X44473Y-61429D01*
X44445Y-61507D01*
X44427Y-61464D01*
X44286Y-61322D01*
X44100Y-61245D01*
X43900Y-61245D01*
X43714Y-61322D01*
X43604Y-61432D01*
X43604Y-61345D01*
X43566Y-61254D01*
X43495Y-61183D01*
X43474Y-61175D01*
X44450Y-61175D01*
X44450Y-61200D01*
X44736Y-61200D01*
X44679Y-61223D01*
X44645Y-61324D01*
X45000Y-61679D01*
X45354Y-61324D01*
X45320Y-61223D01*
X45255Y-61200D01*
X45550Y-61200D01*
X45550Y-61175D01*
X49825Y-61175D01*
X49825Y-69825D01*
X49825Y-69825D01*
G37*
G54D19*
X49825Y-69825D02*
X49642Y-69825D01*
X49642Y-68872D01*
X49544Y-68636D01*
X49364Y-68455D01*
X49128Y-68357D01*
X48872Y-68357D01*
X48636Y-68455D01*
X48455Y-68635D01*
X48357Y-68871D01*
X48357Y-69127D01*
X48455Y-69363D01*
X48635Y-69544D01*
X48871Y-69642D01*
X49127Y-69642D01*
X49363Y-69544D01*
X49544Y-69364D01*
X49642Y-69128D01*
X49642Y-68872D01*
X49642Y-69825D01*
X45202Y-69825D01*
X45320Y-69776D01*
X45354Y-69675D01*
X45000Y-69320D01*
X44645Y-69675D01*
X44679Y-69776D01*
X44812Y-69825D01*
X43474Y-69825D01*
X43495Y-69816D01*
X43566Y-69745D01*
X43604Y-69654D01*
X43604Y-69567D01*
X43713Y-69677D01*
X43899Y-69754D01*
X44099Y-69754D01*
X44285Y-69677D01*
X44427Y-69536D01*
X44443Y-69497D01*
X44473Y-69570D01*
X44574Y-69604D01*
X44929Y-69250D01*
X44574Y-68895D01*
X44473Y-68929D01*
X44445Y-69007D01*
X44427Y-68964D01*
X44286Y-68822D01*
X44200Y-68786D01*
X44200Y-67332D01*
X45832Y-65700D01*
X46275Y-65700D01*
X46329Y-65754D01*
X46440Y-65799D01*
X46559Y-65800D01*
X46669Y-65754D01*
X46754Y-65670D01*
X46799Y-65559D01*
X46800Y-65500D01*
X46800Y-68786D01*
X46714Y-68822D01*
X46572Y-68963D01*
X46499Y-69139D01*
X46427Y-68964D01*
X46286Y-68822D01*
X46100Y-68745D01*
X45900Y-68745D01*
X45714Y-68822D01*
X45572Y-68963D01*
X45556Y-69002D01*
X45526Y-68929D01*
X45425Y-68895D01*
X45354Y-68966D01*
X45354Y-68824D01*
X45320Y-68723D01*
X45094Y-68641D01*
X44854Y-68651D01*
X44679Y-68723D01*
X44645Y-68824D01*
X45000Y-69179D01*
X45354Y-68824D01*
X45354Y-68966D01*
X45070Y-69250D01*
X45425Y-69604D01*
X45526Y-69570D01*
X45554Y-69492D01*
X45572Y-69535D01*
X45713Y-69677D01*
X45899Y-69754D01*
X46099Y-69754D01*
X46285Y-69677D01*
X46427Y-69536D01*
X46500Y-69360D01*
X46572Y-69535D01*
X46713Y-69677D01*
X46899Y-69754D01*
X47099Y-69754D01*
X47285Y-69677D01*
X47427Y-69536D01*
X47504Y-69350D01*
X47504Y-69150D01*
X47427Y-68964D01*
X47286Y-68822D01*
X47200Y-68786D01*
X47200Y-66559D01*
X47245Y-66669D01*
X47329Y-66754D01*
X47440Y-66799D01*
X47559Y-66800D01*
X47669Y-66754D01*
X47754Y-66670D01*
X47799Y-66559D01*
X47800Y-66440D01*
X47754Y-66330D01*
X47670Y-66245D01*
X47559Y-66200D01*
X47482Y-66199D01*
X47450Y-66167D01*
X47450Y-63582D01*
X47891Y-63141D01*
X47934Y-63076D01*
X47934Y-63076D01*
X47937Y-63063D01*
X47949Y-63000D01*
X47950Y-63000D01*
X47950Y-62474D01*
X48004Y-62420D01*
X48049Y-62309D01*
X48050Y-62190D01*
X48004Y-62080D01*
X47920Y-61995D01*
X47809Y-61950D01*
X47690Y-61949D01*
X47580Y-61995D01*
X47495Y-62079D01*
X47450Y-62190D01*
X47449Y-62309D01*
X47495Y-62419D01*
X47550Y-62474D01*
X47550Y-62690D01*
X47504Y-62580D01*
X47420Y-62495D01*
X47309Y-62450D01*
X47190Y-62449D01*
X47080Y-62495D01*
X46995Y-62579D01*
X46950Y-62690D01*
X46950Y-62749D01*
X46950Y-62582D01*
X47141Y-62391D01*
X47141Y-62391D01*
X47184Y-62326D01*
X47200Y-62250D01*
X47200Y-62213D01*
X47285Y-62177D01*
X47427Y-62036D01*
X47504Y-61850D01*
X47504Y-61650D01*
X47427Y-61464D01*
X47286Y-61322D01*
X47100Y-61245D01*
X46900Y-61245D01*
X46714Y-61322D01*
X46572Y-61463D01*
X46499Y-61639D01*
X46427Y-61464D01*
X46286Y-61322D01*
X46100Y-61245D01*
X45900Y-61245D01*
X45714Y-61322D01*
X45572Y-61463D01*
X45556Y-61502D01*
X45526Y-61429D01*
X45425Y-61395D01*
X45070Y-61750D01*
X45425Y-62104D01*
X45526Y-62070D01*
X45554Y-61992D01*
X45572Y-62035D01*
X45713Y-62177D01*
X45899Y-62254D01*
X46099Y-62254D01*
X46285Y-62177D01*
X46427Y-62036D01*
X46500Y-61860D01*
X46572Y-62035D01*
X46713Y-62177D01*
X46767Y-62199D01*
X46608Y-62358D01*
X46565Y-62423D01*
X46550Y-62500D01*
X46550Y-64417D01*
X45917Y-65050D01*
X45500Y-65050D01*
X45423Y-65065D01*
X45358Y-65108D01*
X45354Y-65112D01*
X45354Y-62175D01*
X45000Y-61820D01*
X44645Y-62175D01*
X44679Y-62276D01*
X44905Y-62358D01*
X45145Y-62348D01*
X45320Y-62276D01*
X45354Y-62175D01*
X45354Y-65112D01*
X44167Y-66300D01*
X43832Y-66300D01*
X42641Y-65108D01*
X42576Y-65065D01*
X42500Y-65050D01*
X41642Y-65050D01*
X41642Y-61872D01*
X41544Y-61636D01*
X41364Y-61455D01*
X41128Y-61357D01*
X40872Y-61357D01*
X40636Y-61455D01*
X40455Y-61635D01*
X40357Y-61871D01*
X40357Y-62127D01*
X40455Y-62363D01*
X40635Y-62544D01*
X40871Y-62642D01*
X41127Y-62642D01*
X41363Y-62544D01*
X41544Y-62364D01*
X41642Y-62128D01*
X41642Y-61872D01*
X41642Y-65050D01*
X41332Y-65050D01*
X41141Y-64858D01*
X41077Y-64815D01*
X41077Y-64096D01*
X41027Y-63976D01*
X40935Y-63884D01*
X40815Y-63834D01*
X40685Y-63834D01*
X40564Y-63883D01*
X40472Y-63975D01*
X40422Y-64096D01*
X40422Y-64226D01*
X40472Y-64346D01*
X40564Y-64438D01*
X40684Y-64488D01*
X40814Y-64488D01*
X40935Y-64438D01*
X41027Y-64346D01*
X41077Y-64226D01*
X41077Y-64096D01*
X41077Y-64815D01*
X41076Y-64815D01*
X41000Y-64800D01*
X40750Y-64800D01*
X40673Y-64815D01*
X40608Y-64858D01*
X40358Y-65108D01*
X40315Y-65173D01*
X40300Y-65250D01*
X40300Y-65275D01*
X40245Y-65329D01*
X40200Y-65440D01*
X40200Y-65499D01*
X40200Y-64950D01*
X40175Y-64950D01*
X40175Y-61175D01*
X42525Y-61175D01*
X42504Y-61183D01*
X42433Y-61254D01*
X42395Y-61345D01*
X42395Y-61445D01*
X42395Y-62154D01*
X42433Y-62245D01*
X42504Y-62316D01*
X42595Y-62354D01*
X42695Y-62354D01*
X43404Y-62354D01*
X43495Y-62316D01*
X43566Y-62245D01*
X43604Y-62154D01*
X43604Y-62067D01*
X43713Y-62177D01*
X43800Y-62213D01*
X43800Y-62417D01*
X43667Y-62550D01*
X42750Y-62550D01*
X42673Y-62565D01*
X42608Y-62608D01*
X42017Y-63200D01*
X41940Y-63199D01*
X41830Y-63245D01*
X41745Y-63329D01*
X41700Y-63440D01*
X41699Y-63559D01*
X41745Y-63669D01*
X41829Y-63754D01*
X41940Y-63799D01*
X42059Y-63800D01*
X42169Y-63754D01*
X42254Y-63670D01*
X42299Y-63559D01*
X42300Y-63482D01*
X42832Y-62950D01*
X43750Y-62950D01*
X43826Y-62934D01*
X43891Y-62891D01*
X44141Y-62641D01*
X44141Y-62641D01*
X44184Y-62576D01*
X44200Y-62500D01*
X44200Y-62213D01*
X44285Y-62177D01*
X44427Y-62036D01*
X44443Y-61997D01*
X44473Y-62070D01*
X44574Y-62104D01*
X44929Y-61750D01*
X44574Y-61395D01*
X44473Y-61429D01*
X44445Y-61507D01*
X44427Y-61464D01*
X44286Y-61322D01*
X44100Y-61245D01*
X43900Y-61245D01*
X43714Y-61322D01*
X43604Y-61432D01*
X43604Y-61345D01*
X43566Y-61254D01*
X43495Y-61183D01*
X43474Y-61175D01*
X44450Y-61175D01*
X44450Y-61200D01*
X44736Y-61200D01*
X44679Y-61223D01*
X44645Y-61324D01*
X45000Y-61679D01*
X45354Y-61324D01*
X45320Y-61223D01*
X45255Y-61200D01*
X45550Y-61200D01*
X45550Y-61175D01*
X49825Y-61175D01*
X49825Y-69825D01*
G54D10*
G36*
X43800Y-58786D02*
X43714Y-58822D01*
X43604Y-58932D01*
X43604Y-58845D01*
X43566Y-58754D01*
X43495Y-58683D01*
X43404Y-58645D01*
X43304Y-58645D01*
X42595Y-58645D01*
X42504Y-58683D01*
X42433Y-58754D01*
X42395Y-58845D01*
X42395Y-58945D01*
X42395Y-59654D01*
X42433Y-59745D01*
X42504Y-59816D01*
X42525Y-59825D01*
X41077Y-59825D01*
X41077Y-56773D01*
X41027Y-56653D01*
X40935Y-56561D01*
X40815Y-56511D01*
X40685Y-56511D01*
X40564Y-56561D01*
X40472Y-56653D01*
X40422Y-56773D01*
X40422Y-56903D01*
X40472Y-57023D01*
X40564Y-57115D01*
X40684Y-57165D01*
X40814Y-57165D01*
X40935Y-57116D01*
X41027Y-57024D01*
X41077Y-56903D01*
X41077Y-56773D01*
X41077Y-59825D01*
X40175Y-59825D01*
X40175Y-56050D01*
X40200Y-56050D01*
X40200Y-55559D01*
X40245Y-55669D01*
X40329Y-55754D01*
X40440Y-55799D01*
X40559Y-55800D01*
X40669Y-55754D01*
X40750Y-55674D01*
X40829Y-55754D01*
X40940Y-55799D01*
X41059Y-55800D01*
X41169Y-55754D01*
X41224Y-55700D01*
X42167Y-55700D01*
X43800Y-57332D01*
X43800Y-58786D01*
X43800Y-58786D01*
G37*
G54D19*
X43800Y-58786D02*
X43714Y-58822D01*
X43604Y-58932D01*
X43604Y-58845D01*
X43566Y-58754D01*
X43495Y-58683D01*
X43404Y-58645D01*
X43304Y-58645D01*
X42595Y-58645D01*
X42504Y-58683D01*
X42433Y-58754D01*
X42395Y-58845D01*
X42395Y-58945D01*
X42395Y-59654D01*
X42433Y-59745D01*
X42504Y-59816D01*
X42525Y-59825D01*
X41077Y-59825D01*
X41077Y-56773D01*
X41027Y-56653D01*
X40935Y-56561D01*
X40815Y-56511D01*
X40685Y-56511D01*
X40564Y-56561D01*
X40472Y-56653D01*
X40422Y-56773D01*
X40422Y-56903D01*
X40472Y-57023D01*
X40564Y-57115D01*
X40684Y-57165D01*
X40814Y-57165D01*
X40935Y-57116D01*
X41027Y-57024D01*
X41077Y-56903D01*
X41077Y-56773D01*
X41077Y-59825D01*
X40175Y-59825D01*
X40175Y-56050D01*
X40200Y-56050D01*
X40200Y-55559D01*
X40245Y-55669D01*
X40329Y-55754D01*
X40440Y-55799D01*
X40559Y-55800D01*
X40669Y-55754D01*
X40750Y-55674D01*
X40829Y-55754D01*
X40940Y-55799D01*
X41059Y-55800D01*
X41169Y-55754D01*
X41224Y-55700D01*
X42167Y-55700D01*
X43800Y-57332D01*
X43800Y-58786D01*
G54D10*
G36*
X49825Y-59825D02*
X49642Y-59825D01*
X49642Y-58872D01*
X49544Y-58636D01*
X49364Y-58455D01*
X49128Y-58357D01*
X48872Y-58357D01*
X48636Y-58455D01*
X48455Y-58635D01*
X48357Y-58871D01*
X48357Y-59127D01*
X48455Y-59363D01*
X48635Y-59544D01*
X48871Y-59642D01*
X49127Y-59642D01*
X49363Y-59544D01*
X49544Y-59364D01*
X49642Y-59128D01*
X49642Y-58872D01*
X49642Y-59825D01*
X45550Y-59825D01*
X45550Y-59800D01*
X45263Y-59800D01*
X45320Y-59776D01*
X45354Y-59675D01*
X45000Y-59320D01*
X44645Y-59675D01*
X44679Y-59776D01*
X44744Y-59800D01*
X44450Y-59800D01*
X44450Y-59825D01*
X43474Y-59825D01*
X43495Y-59816D01*
X43566Y-59745D01*
X43604Y-59654D01*
X43604Y-59567D01*
X43713Y-59677D01*
X43899Y-59754D01*
X44099Y-59754D01*
X44285Y-59677D01*
X44427Y-59536D01*
X44443Y-59497D01*
X44473Y-59570D01*
X44574Y-59604D01*
X44929Y-59250D01*
X44574Y-58895D01*
X44473Y-58929D01*
X44445Y-59007D01*
X44427Y-58964D01*
X44286Y-58822D01*
X44200Y-58786D01*
X44200Y-57332D01*
X45832Y-55700D01*
X46275Y-55700D01*
X46329Y-55754D01*
X46440Y-55799D01*
X46559Y-55800D01*
X46669Y-55754D01*
X46754Y-55670D01*
X46799Y-55559D01*
X46800Y-55500D01*
X46800Y-58786D01*
X46714Y-58822D01*
X46572Y-58963D01*
X46499Y-59139D01*
X46427Y-58964D01*
X46286Y-58822D01*
X46100Y-58745D01*
X45900Y-58745D01*
X45714Y-58822D01*
X45572Y-58963D01*
X45556Y-59002D01*
X45526Y-58929D01*
X45425Y-58895D01*
X45354Y-58966D01*
X45354Y-58824D01*
X45320Y-58723D01*
X45094Y-58641D01*
X44854Y-58651D01*
X44679Y-58723D01*
X44645Y-58824D01*
X45000Y-59179D01*
X45354Y-58824D01*
X45354Y-58966D01*
X45070Y-59250D01*
X45425Y-59604D01*
X45526Y-59570D01*
X45554Y-59492D01*
X45572Y-59535D01*
X45713Y-59677D01*
X45899Y-59754D01*
X46099Y-59754D01*
X46285Y-59677D01*
X46427Y-59536D01*
X46500Y-59360D01*
X46572Y-59535D01*
X46713Y-59677D01*
X46899Y-59754D01*
X47099Y-59754D01*
X47285Y-59677D01*
X47427Y-59536D01*
X47504Y-59350D01*
X47504Y-59150D01*
X47427Y-58964D01*
X47286Y-58822D01*
X47200Y-58786D01*
X47200Y-56559D01*
X47245Y-56669D01*
X47329Y-56754D01*
X47440Y-56799D01*
X47559Y-56800D01*
X47669Y-56754D01*
X47754Y-56670D01*
X47799Y-56559D01*
X47800Y-56440D01*
X47754Y-56330D01*
X47670Y-56245D01*
X47559Y-56200D01*
X47482Y-56199D01*
X47450Y-56167D01*
X47450Y-53582D01*
X47891Y-53141D01*
X47934Y-53076D01*
X47934Y-53076D01*
X47937Y-53063D01*
X47949Y-53000D01*
X47950Y-53000D01*
X47950Y-52474D01*
X48004Y-52420D01*
X48049Y-52309D01*
X48050Y-52190D01*
X48004Y-52080D01*
X47920Y-51995D01*
X47809Y-51950D01*
X47690Y-51949D01*
X47580Y-51995D01*
X47495Y-52079D01*
X47450Y-52190D01*
X47449Y-52309D01*
X47495Y-52419D01*
X47550Y-52474D01*
X47550Y-52690D01*
X47504Y-52580D01*
X47420Y-52495D01*
X47309Y-52450D01*
X47190Y-52449D01*
X47080Y-52495D01*
X46995Y-52579D01*
X46950Y-52690D01*
X46950Y-52749D01*
X46950Y-52582D01*
X47141Y-52391D01*
X47141Y-52391D01*
X47184Y-52326D01*
X47200Y-52250D01*
X47200Y-52213D01*
X47285Y-52177D01*
X47427Y-52036D01*
X47504Y-51850D01*
X47504Y-51650D01*
X47427Y-51464D01*
X47286Y-51322D01*
X47100Y-51245D01*
X46900Y-51245D01*
X46714Y-51322D01*
X46572Y-51463D01*
X46499Y-51639D01*
X46427Y-51464D01*
X46286Y-51322D01*
X46100Y-51245D01*
X45900Y-51245D01*
X45714Y-51322D01*
X45572Y-51463D01*
X45556Y-51502D01*
X45526Y-51429D01*
X45425Y-51395D01*
X45070Y-51750D01*
X45425Y-52104D01*
X45526Y-52070D01*
X45554Y-51992D01*
X45572Y-52035D01*
X45713Y-52177D01*
X45899Y-52254D01*
X46099Y-52254D01*
X46285Y-52177D01*
X46427Y-52036D01*
X46500Y-51860D01*
X46572Y-52035D01*
X46713Y-52177D01*
X46767Y-52199D01*
X46608Y-52358D01*
X46565Y-52423D01*
X46550Y-52500D01*
X46550Y-54417D01*
X45917Y-55050D01*
X45500Y-55050D01*
X45423Y-55065D01*
X45358Y-55108D01*
X45354Y-55112D01*
X45354Y-52175D01*
X45000Y-51820D01*
X44645Y-52175D01*
X44679Y-52276D01*
X44905Y-52358D01*
X45145Y-52348D01*
X45320Y-52276D01*
X45354Y-52175D01*
X45354Y-55112D01*
X44167Y-56300D01*
X43832Y-56300D01*
X42641Y-55108D01*
X42576Y-55065D01*
X42500Y-55050D01*
X41642Y-55050D01*
X41642Y-51872D01*
X41544Y-51636D01*
X41364Y-51455D01*
X41128Y-51357D01*
X40872Y-51357D01*
X40636Y-51455D01*
X40455Y-51635D01*
X40357Y-51871D01*
X40357Y-52127D01*
X40455Y-52363D01*
X40635Y-52544D01*
X40871Y-52642D01*
X41127Y-52642D01*
X41363Y-52544D01*
X41544Y-52364D01*
X41642Y-52128D01*
X41642Y-51872D01*
X41642Y-55050D01*
X41332Y-55050D01*
X41141Y-54858D01*
X41077Y-54815D01*
X41077Y-54096D01*
X41027Y-53976D01*
X40935Y-53884D01*
X40815Y-53834D01*
X40685Y-53834D01*
X40564Y-53883D01*
X40472Y-53975D01*
X40422Y-54096D01*
X40422Y-54226D01*
X40472Y-54346D01*
X40564Y-54438D01*
X40684Y-54488D01*
X40814Y-54488D01*
X40935Y-54438D01*
X41027Y-54346D01*
X41077Y-54226D01*
X41077Y-54096D01*
X41077Y-54815D01*
X41076Y-54815D01*
X41000Y-54800D01*
X40750Y-54800D01*
X40673Y-54815D01*
X40608Y-54858D01*
X40358Y-55108D01*
X40315Y-55173D01*
X40300Y-55250D01*
X40300Y-55275D01*
X40245Y-55329D01*
X40200Y-55440D01*
X40200Y-55499D01*
X40200Y-54950D01*
X40175Y-54950D01*
X40175Y-51175D01*
X42525Y-51175D01*
X42504Y-51183D01*
X42433Y-51254D01*
X42395Y-51345D01*
X42395Y-51445D01*
X42395Y-52154D01*
X42433Y-52245D01*
X42504Y-52316D01*
X42595Y-52354D01*
X42695Y-52354D01*
X43404Y-52354D01*
X43495Y-52316D01*
X43566Y-52245D01*
X43604Y-52154D01*
X43604Y-52067D01*
X43713Y-52177D01*
X43800Y-52213D01*
X43800Y-52417D01*
X43667Y-52550D01*
X42750Y-52550D01*
X42673Y-52565D01*
X42608Y-52608D01*
X42017Y-53200D01*
X41940Y-53199D01*
X41830Y-53245D01*
X41745Y-53329D01*
X41700Y-53440D01*
X41699Y-53559D01*
X41745Y-53669D01*
X41829Y-53754D01*
X41940Y-53799D01*
X42059Y-53800D01*
X42169Y-53754D01*
X42254Y-53670D01*
X42299Y-53559D01*
X42300Y-53482D01*
X42832Y-52950D01*
X43750Y-52950D01*
X43826Y-52934D01*
X43891Y-52891D01*
X44141Y-52641D01*
X44141Y-52641D01*
X44184Y-52576D01*
X44200Y-52500D01*
X44200Y-52213D01*
X44285Y-52177D01*
X44427Y-52036D01*
X44443Y-51997D01*
X44473Y-52070D01*
X44574Y-52104D01*
X44929Y-51750D01*
X44574Y-51395D01*
X44473Y-51429D01*
X44445Y-51507D01*
X44427Y-51464D01*
X44286Y-51322D01*
X44100Y-51245D01*
X43900Y-51245D01*
X43714Y-51322D01*
X43604Y-51432D01*
X43604Y-51345D01*
X43566Y-51254D01*
X43495Y-51183D01*
X43474Y-51175D01*
X44450Y-51175D01*
X44450Y-51200D01*
X44736Y-51200D01*
X44679Y-51223D01*
X44645Y-51324D01*
X45000Y-51679D01*
X45354Y-51324D01*
X45320Y-51223D01*
X45255Y-51200D01*
X45550Y-51200D01*
X45550Y-51175D01*
X49825Y-51175D01*
X49825Y-59825D01*
X49825Y-59825D01*
G37*
G54D19*
X49825Y-59825D02*
X49642Y-59825D01*
X49642Y-58872D01*
X49544Y-58636D01*
X49364Y-58455D01*
X49128Y-58357D01*
X48872Y-58357D01*
X48636Y-58455D01*
X48455Y-58635D01*
X48357Y-58871D01*
X48357Y-59127D01*
X48455Y-59363D01*
X48635Y-59544D01*
X48871Y-59642D01*
X49127Y-59642D01*
X49363Y-59544D01*
X49544Y-59364D01*
X49642Y-59128D01*
X49642Y-58872D01*
X49642Y-59825D01*
X45550Y-59825D01*
X45550Y-59800D01*
X45263Y-59800D01*
X45320Y-59776D01*
X45354Y-59675D01*
X45000Y-59320D01*
X44645Y-59675D01*
X44679Y-59776D01*
X44744Y-59800D01*
X44450Y-59800D01*
X44450Y-59825D01*
X43474Y-59825D01*
X43495Y-59816D01*
X43566Y-59745D01*
X43604Y-59654D01*
X43604Y-59567D01*
X43713Y-59677D01*
X43899Y-59754D01*
X44099Y-59754D01*
X44285Y-59677D01*
X44427Y-59536D01*
X44443Y-59497D01*
X44473Y-59570D01*
X44574Y-59604D01*
X44929Y-59250D01*
X44574Y-58895D01*
X44473Y-58929D01*
X44445Y-59007D01*
X44427Y-58964D01*
X44286Y-58822D01*
X44200Y-58786D01*
X44200Y-57332D01*
X45832Y-55700D01*
X46275Y-55700D01*
X46329Y-55754D01*
X46440Y-55799D01*
X46559Y-55800D01*
X46669Y-55754D01*
X46754Y-55670D01*
X46799Y-55559D01*
X46800Y-55500D01*
X46800Y-58786D01*
X46714Y-58822D01*
X46572Y-58963D01*
X46499Y-59139D01*
X46427Y-58964D01*
X46286Y-58822D01*
X46100Y-58745D01*
X45900Y-58745D01*
X45714Y-58822D01*
X45572Y-58963D01*
X45556Y-59002D01*
X45526Y-58929D01*
X45425Y-58895D01*
X45354Y-58966D01*
X45354Y-58824D01*
X45320Y-58723D01*
X45094Y-58641D01*
X44854Y-58651D01*
X44679Y-58723D01*
X44645Y-58824D01*
X45000Y-59179D01*
X45354Y-58824D01*
X45354Y-58966D01*
X45070Y-59250D01*
X45425Y-59604D01*
X45526Y-59570D01*
X45554Y-59492D01*
X45572Y-59535D01*
X45713Y-59677D01*
X45899Y-59754D01*
X46099Y-59754D01*
X46285Y-59677D01*
X46427Y-59536D01*
X46500Y-59360D01*
X46572Y-59535D01*
X46713Y-59677D01*
X46899Y-59754D01*
X47099Y-59754D01*
X47285Y-59677D01*
X47427Y-59536D01*
X47504Y-59350D01*
X47504Y-59150D01*
X47427Y-58964D01*
X47286Y-58822D01*
X47200Y-58786D01*
X47200Y-56559D01*
X47245Y-56669D01*
X47329Y-56754D01*
X47440Y-56799D01*
X47559Y-56800D01*
X47669Y-56754D01*
X47754Y-56670D01*
X47799Y-56559D01*
X47800Y-56440D01*
X47754Y-56330D01*
X47670Y-56245D01*
X47559Y-56200D01*
X47482Y-56199D01*
X47450Y-56167D01*
X47450Y-53582D01*
X47891Y-53141D01*
X47934Y-53076D01*
X47934Y-53076D01*
X47937Y-53063D01*
X47949Y-53000D01*
X47950Y-53000D01*
X47950Y-52474D01*
X48004Y-52420D01*
X48049Y-52309D01*
X48050Y-52190D01*
X48004Y-52080D01*
X47920Y-51995D01*
X47809Y-51950D01*
X47690Y-51949D01*
X47580Y-51995D01*
X47495Y-52079D01*
X47450Y-52190D01*
X47449Y-52309D01*
X47495Y-52419D01*
X47550Y-52474D01*
X47550Y-52690D01*
X47504Y-52580D01*
X47420Y-52495D01*
X47309Y-52450D01*
X47190Y-52449D01*
X47080Y-52495D01*
X46995Y-52579D01*
X46950Y-52690D01*
X46950Y-52749D01*
X46950Y-52582D01*
X47141Y-52391D01*
X47141Y-52391D01*
X47184Y-52326D01*
X47200Y-52250D01*
X47200Y-52213D01*
X47285Y-52177D01*
X47427Y-52036D01*
X47504Y-51850D01*
X47504Y-51650D01*
X47427Y-51464D01*
X47286Y-51322D01*
X47100Y-51245D01*
X46900Y-51245D01*
X46714Y-51322D01*
X46572Y-51463D01*
X46499Y-51639D01*
X46427Y-51464D01*
X46286Y-51322D01*
X46100Y-51245D01*
X45900Y-51245D01*
X45714Y-51322D01*
X45572Y-51463D01*
X45556Y-51502D01*
X45526Y-51429D01*
X45425Y-51395D01*
X45070Y-51750D01*
X45425Y-52104D01*
X45526Y-52070D01*
X45554Y-51992D01*
X45572Y-52035D01*
X45713Y-52177D01*
X45899Y-52254D01*
X46099Y-52254D01*
X46285Y-52177D01*
X46427Y-52036D01*
X46500Y-51860D01*
X46572Y-52035D01*
X46713Y-52177D01*
X46767Y-52199D01*
X46608Y-52358D01*
X46565Y-52423D01*
X46550Y-52500D01*
X46550Y-54417D01*
X45917Y-55050D01*
X45500Y-55050D01*
X45423Y-55065D01*
X45358Y-55108D01*
X45354Y-55112D01*
X45354Y-52175D01*
X45000Y-51820D01*
X44645Y-52175D01*
X44679Y-52276D01*
X44905Y-52358D01*
X45145Y-52348D01*
X45320Y-52276D01*
X45354Y-52175D01*
X45354Y-55112D01*
X44167Y-56300D01*
X43832Y-56300D01*
X42641Y-55108D01*
X42576Y-55065D01*
X42500Y-55050D01*
X41642Y-55050D01*
X41642Y-51872D01*
X41544Y-51636D01*
X41364Y-51455D01*
X41128Y-51357D01*
X40872Y-51357D01*
X40636Y-51455D01*
X40455Y-51635D01*
X40357Y-51871D01*
X40357Y-52127D01*
X40455Y-52363D01*
X40635Y-52544D01*
X40871Y-52642D01*
X41127Y-52642D01*
X41363Y-52544D01*
X41544Y-52364D01*
X41642Y-52128D01*
X41642Y-51872D01*
X41642Y-55050D01*
X41332Y-55050D01*
X41141Y-54858D01*
X41077Y-54815D01*
X41077Y-54096D01*
X41027Y-53976D01*
X40935Y-53884D01*
X40815Y-53834D01*
X40685Y-53834D01*
X40564Y-53883D01*
X40472Y-53975D01*
X40422Y-54096D01*
X40422Y-54226D01*
X40472Y-54346D01*
X40564Y-54438D01*
X40684Y-54488D01*
X40814Y-54488D01*
X40935Y-54438D01*
X41027Y-54346D01*
X41077Y-54226D01*
X41077Y-54096D01*
X41077Y-54815D01*
X41076Y-54815D01*
X41000Y-54800D01*
X40750Y-54800D01*
X40673Y-54815D01*
X40608Y-54858D01*
X40358Y-55108D01*
X40315Y-55173D01*
X40300Y-55250D01*
X40300Y-55275D01*
X40245Y-55329D01*
X40200Y-55440D01*
X40200Y-55499D01*
X40200Y-54950D01*
X40175Y-54950D01*
X40175Y-51175D01*
X42525Y-51175D01*
X42504Y-51183D01*
X42433Y-51254D01*
X42395Y-51345D01*
X42395Y-51445D01*
X42395Y-52154D01*
X42433Y-52245D01*
X42504Y-52316D01*
X42595Y-52354D01*
X42695Y-52354D01*
X43404Y-52354D01*
X43495Y-52316D01*
X43566Y-52245D01*
X43604Y-52154D01*
X43604Y-52067D01*
X43713Y-52177D01*
X43800Y-52213D01*
X43800Y-52417D01*
X43667Y-52550D01*
X42750Y-52550D01*
X42673Y-52565D01*
X42608Y-52608D01*
X42017Y-53200D01*
X41940Y-53199D01*
X41830Y-53245D01*
X41745Y-53329D01*
X41700Y-53440D01*
X41699Y-53559D01*
X41745Y-53669D01*
X41829Y-53754D01*
X41940Y-53799D01*
X42059Y-53800D01*
X42169Y-53754D01*
X42254Y-53670D01*
X42299Y-53559D01*
X42300Y-53482D01*
X42832Y-52950D01*
X43750Y-52950D01*
X43826Y-52934D01*
X43891Y-52891D01*
X44141Y-52641D01*
X44141Y-52641D01*
X44184Y-52576D01*
X44200Y-52500D01*
X44200Y-52213D01*
X44285Y-52177D01*
X44427Y-52036D01*
X44443Y-51997D01*
X44473Y-52070D01*
X44574Y-52104D01*
X44929Y-51750D01*
X44574Y-51395D01*
X44473Y-51429D01*
X44445Y-51507D01*
X44427Y-51464D01*
X44286Y-51322D01*
X44100Y-51245D01*
X43900Y-51245D01*
X43714Y-51322D01*
X43604Y-51432D01*
X43604Y-51345D01*
X43566Y-51254D01*
X43495Y-51183D01*
X43474Y-51175D01*
X44450Y-51175D01*
X44450Y-51200D01*
X44736Y-51200D01*
X44679Y-51223D01*
X44645Y-51324D01*
X45000Y-51679D01*
X45354Y-51324D01*
X45320Y-51223D01*
X45255Y-51200D01*
X45550Y-51200D01*
X45550Y-51175D01*
X49825Y-51175D01*
X49825Y-59825D01*
G54D10*
G36*
X43800Y-48786D02*
X43714Y-48822D01*
X43604Y-48932D01*
X43604Y-48845D01*
X43566Y-48754D01*
X43495Y-48683D01*
X43404Y-48645D01*
X43304Y-48645D01*
X42595Y-48645D01*
X42504Y-48683D01*
X42433Y-48754D01*
X42395Y-48845D01*
X42395Y-48945D01*
X42395Y-49654D01*
X42433Y-49745D01*
X42504Y-49816D01*
X42525Y-49825D01*
X41077Y-49825D01*
X41077Y-46773D01*
X41027Y-46653D01*
X40935Y-46561D01*
X40815Y-46511D01*
X40685Y-46511D01*
X40564Y-46561D01*
X40472Y-46653D01*
X40422Y-46773D01*
X40422Y-46903D01*
X40472Y-47023D01*
X40564Y-47115D01*
X40684Y-47165D01*
X40814Y-47165D01*
X40935Y-47116D01*
X41027Y-47024D01*
X41077Y-46903D01*
X41077Y-46773D01*
X41077Y-49825D01*
X40175Y-49825D01*
X40175Y-46050D01*
X40200Y-46050D01*
X40200Y-45559D01*
X40245Y-45669D01*
X40329Y-45754D01*
X40440Y-45799D01*
X40559Y-45800D01*
X40669Y-45754D01*
X40750Y-45674D01*
X40829Y-45754D01*
X40940Y-45799D01*
X41059Y-45800D01*
X41169Y-45754D01*
X41224Y-45700D01*
X42167Y-45700D01*
X43800Y-47332D01*
X43800Y-48786D01*
X43800Y-48786D01*
G37*
G54D19*
X43800Y-48786D02*
X43714Y-48822D01*
X43604Y-48932D01*
X43604Y-48845D01*
X43566Y-48754D01*
X43495Y-48683D01*
X43404Y-48645D01*
X43304Y-48645D01*
X42595Y-48645D01*
X42504Y-48683D01*
X42433Y-48754D01*
X42395Y-48845D01*
X42395Y-48945D01*
X42395Y-49654D01*
X42433Y-49745D01*
X42504Y-49816D01*
X42525Y-49825D01*
X41077Y-49825D01*
X41077Y-46773D01*
X41027Y-46653D01*
X40935Y-46561D01*
X40815Y-46511D01*
X40685Y-46511D01*
X40564Y-46561D01*
X40472Y-46653D01*
X40422Y-46773D01*
X40422Y-46903D01*
X40472Y-47023D01*
X40564Y-47115D01*
X40684Y-47165D01*
X40814Y-47165D01*
X40935Y-47116D01*
X41027Y-47024D01*
X41077Y-46903D01*
X41077Y-46773D01*
X41077Y-49825D01*
X40175Y-49825D01*
X40175Y-46050D01*
X40200Y-46050D01*
X40200Y-45559D01*
X40245Y-45669D01*
X40329Y-45754D01*
X40440Y-45799D01*
X40559Y-45800D01*
X40669Y-45754D01*
X40750Y-45674D01*
X40829Y-45754D01*
X40940Y-45799D01*
X41059Y-45800D01*
X41169Y-45754D01*
X41224Y-45700D01*
X42167Y-45700D01*
X43800Y-47332D01*
X43800Y-48786D01*
G54D10*
G36*
X49825Y-49825D02*
X49642Y-49825D01*
X49642Y-48872D01*
X49544Y-48636D01*
X49364Y-48455D01*
X49128Y-48357D01*
X48872Y-48357D01*
X48636Y-48455D01*
X48455Y-48635D01*
X48357Y-48871D01*
X48357Y-49127D01*
X48455Y-49363D01*
X48635Y-49544D01*
X48871Y-49642D01*
X49127Y-49642D01*
X49363Y-49544D01*
X49544Y-49364D01*
X49642Y-49128D01*
X49642Y-48872D01*
X49642Y-49825D01*
X45550Y-49825D01*
X45550Y-49800D01*
X45263Y-49800D01*
X45320Y-49776D01*
X45354Y-49675D01*
X45000Y-49320D01*
X44645Y-49675D01*
X44679Y-49776D01*
X44744Y-49800D01*
X44450Y-49800D01*
X44450Y-49825D01*
X43474Y-49825D01*
X43495Y-49816D01*
X43566Y-49745D01*
X43604Y-49654D01*
X43604Y-49567D01*
X43713Y-49677D01*
X43899Y-49754D01*
X44099Y-49754D01*
X44285Y-49677D01*
X44427Y-49536D01*
X44443Y-49497D01*
X44473Y-49570D01*
X44574Y-49604D01*
X44929Y-49250D01*
X44574Y-48895D01*
X44473Y-48929D01*
X44445Y-49007D01*
X44427Y-48964D01*
X44286Y-48822D01*
X44200Y-48786D01*
X44200Y-47332D01*
X45832Y-45700D01*
X46275Y-45700D01*
X46329Y-45754D01*
X46440Y-45799D01*
X46559Y-45800D01*
X46669Y-45754D01*
X46754Y-45670D01*
X46799Y-45559D01*
X46800Y-45500D01*
X46800Y-48786D01*
X46714Y-48822D01*
X46572Y-48963D01*
X46499Y-49139D01*
X46427Y-48964D01*
X46286Y-48822D01*
X46100Y-48745D01*
X45900Y-48745D01*
X45714Y-48822D01*
X45572Y-48963D01*
X45556Y-49002D01*
X45526Y-48929D01*
X45425Y-48895D01*
X45354Y-48966D01*
X45354Y-48824D01*
X45320Y-48723D01*
X45094Y-48641D01*
X44854Y-48651D01*
X44679Y-48723D01*
X44645Y-48824D01*
X45000Y-49179D01*
X45354Y-48824D01*
X45354Y-48966D01*
X45070Y-49250D01*
X45425Y-49604D01*
X45526Y-49570D01*
X45554Y-49492D01*
X45572Y-49535D01*
X45713Y-49677D01*
X45899Y-49754D01*
X46099Y-49754D01*
X46285Y-49677D01*
X46427Y-49536D01*
X46500Y-49360D01*
X46572Y-49535D01*
X46713Y-49677D01*
X46899Y-49754D01*
X47099Y-49754D01*
X47285Y-49677D01*
X47427Y-49536D01*
X47504Y-49350D01*
X47504Y-49150D01*
X47427Y-48964D01*
X47286Y-48822D01*
X47200Y-48786D01*
X47200Y-46559D01*
X47245Y-46669D01*
X47329Y-46754D01*
X47440Y-46799D01*
X47559Y-46800D01*
X47669Y-46754D01*
X47754Y-46670D01*
X47799Y-46559D01*
X47800Y-46440D01*
X47754Y-46330D01*
X47670Y-46245D01*
X47559Y-46200D01*
X47482Y-46199D01*
X47450Y-46167D01*
X47450Y-43582D01*
X47891Y-43141D01*
X47934Y-43076D01*
X47934Y-43076D01*
X47937Y-43063D01*
X47949Y-43000D01*
X47950Y-43000D01*
X47950Y-42474D01*
X48004Y-42420D01*
X48049Y-42309D01*
X48050Y-42190D01*
X48004Y-42080D01*
X47920Y-41995D01*
X47809Y-41950D01*
X47690Y-41949D01*
X47580Y-41995D01*
X47495Y-42079D01*
X47450Y-42190D01*
X47449Y-42309D01*
X47495Y-42419D01*
X47550Y-42474D01*
X47550Y-42690D01*
X47504Y-42580D01*
X47420Y-42495D01*
X47309Y-42450D01*
X47190Y-42449D01*
X47080Y-42495D01*
X46995Y-42579D01*
X46950Y-42690D01*
X46950Y-42749D01*
X46950Y-42582D01*
X47141Y-42391D01*
X47141Y-42391D01*
X47184Y-42326D01*
X47200Y-42250D01*
X47200Y-42213D01*
X47285Y-42177D01*
X47427Y-42036D01*
X47504Y-41850D01*
X47504Y-41650D01*
X47427Y-41464D01*
X47286Y-41322D01*
X47100Y-41245D01*
X46900Y-41245D01*
X46714Y-41322D01*
X46572Y-41463D01*
X46499Y-41639D01*
X46427Y-41464D01*
X46286Y-41322D01*
X46100Y-41245D01*
X45900Y-41245D01*
X45714Y-41322D01*
X45572Y-41463D01*
X45556Y-41502D01*
X45526Y-41429D01*
X45425Y-41395D01*
X45070Y-41750D01*
X45425Y-42104D01*
X45526Y-42070D01*
X45554Y-41992D01*
X45572Y-42035D01*
X45713Y-42177D01*
X45899Y-42254D01*
X46099Y-42254D01*
X46285Y-42177D01*
X46427Y-42036D01*
X46500Y-41860D01*
X46572Y-42035D01*
X46713Y-42177D01*
X46767Y-42199D01*
X46608Y-42358D01*
X46565Y-42423D01*
X46550Y-42500D01*
X46550Y-44417D01*
X45917Y-45050D01*
X45500Y-45050D01*
X45423Y-45065D01*
X45358Y-45108D01*
X45354Y-45112D01*
X45354Y-42175D01*
X45000Y-41820D01*
X44645Y-42175D01*
X44679Y-42276D01*
X44905Y-42358D01*
X45145Y-42348D01*
X45320Y-42276D01*
X45354Y-42175D01*
X45354Y-45112D01*
X44167Y-46300D01*
X43832Y-46300D01*
X42641Y-45108D01*
X42576Y-45065D01*
X42500Y-45050D01*
X41642Y-45050D01*
X41642Y-41872D01*
X41544Y-41636D01*
X41364Y-41455D01*
X41128Y-41357D01*
X40872Y-41357D01*
X40636Y-41455D01*
X40455Y-41635D01*
X40357Y-41871D01*
X40357Y-42127D01*
X40455Y-42363D01*
X40635Y-42544D01*
X40871Y-42642D01*
X41127Y-42642D01*
X41363Y-42544D01*
X41544Y-42364D01*
X41642Y-42128D01*
X41642Y-41872D01*
X41642Y-45050D01*
X41332Y-45050D01*
X41141Y-44858D01*
X41077Y-44815D01*
X41077Y-44096D01*
X41027Y-43976D01*
X40935Y-43884D01*
X40815Y-43834D01*
X40685Y-43834D01*
X40564Y-43883D01*
X40472Y-43975D01*
X40422Y-44096D01*
X40422Y-44226D01*
X40472Y-44346D01*
X40564Y-44438D01*
X40684Y-44488D01*
X40814Y-44488D01*
X40935Y-44438D01*
X41027Y-44346D01*
X41077Y-44226D01*
X41077Y-44096D01*
X41077Y-44815D01*
X41076Y-44815D01*
X41000Y-44800D01*
X40750Y-44800D01*
X40673Y-44815D01*
X40608Y-44858D01*
X40358Y-45108D01*
X40315Y-45173D01*
X40300Y-45250D01*
X40300Y-45275D01*
X40245Y-45329D01*
X40200Y-45440D01*
X40200Y-45499D01*
X40200Y-44950D01*
X40175Y-44950D01*
X40175Y-41175D01*
X42525Y-41175D01*
X42504Y-41183D01*
X42433Y-41254D01*
X42395Y-41345D01*
X42395Y-41445D01*
X42395Y-42154D01*
X42433Y-42245D01*
X42504Y-42316D01*
X42595Y-42354D01*
X42695Y-42354D01*
X43404Y-42354D01*
X43495Y-42316D01*
X43566Y-42245D01*
X43604Y-42154D01*
X43604Y-42067D01*
X43713Y-42177D01*
X43800Y-42213D01*
X43800Y-42417D01*
X43667Y-42550D01*
X42750Y-42550D01*
X42673Y-42565D01*
X42608Y-42608D01*
X42017Y-43200D01*
X41940Y-43199D01*
X41830Y-43245D01*
X41745Y-43329D01*
X41700Y-43440D01*
X41699Y-43559D01*
X41745Y-43669D01*
X41829Y-43754D01*
X41940Y-43799D01*
X42059Y-43800D01*
X42169Y-43754D01*
X42254Y-43670D01*
X42299Y-43559D01*
X42300Y-43482D01*
X42832Y-42950D01*
X43750Y-42950D01*
X43826Y-42934D01*
X43891Y-42891D01*
X44141Y-42641D01*
X44141Y-42641D01*
X44184Y-42576D01*
X44200Y-42500D01*
X44200Y-42213D01*
X44285Y-42177D01*
X44427Y-42036D01*
X44443Y-41997D01*
X44473Y-42070D01*
X44574Y-42104D01*
X44929Y-41750D01*
X44574Y-41395D01*
X44473Y-41429D01*
X44445Y-41507D01*
X44427Y-41464D01*
X44286Y-41322D01*
X44100Y-41245D01*
X43900Y-41245D01*
X43714Y-41322D01*
X43604Y-41432D01*
X43604Y-41345D01*
X43566Y-41254D01*
X43495Y-41183D01*
X43474Y-41175D01*
X44450Y-41175D01*
X44450Y-41200D01*
X44736Y-41200D01*
X44679Y-41223D01*
X44645Y-41324D01*
X45000Y-41679D01*
X45354Y-41324D01*
X45320Y-41223D01*
X45255Y-41200D01*
X45550Y-41200D01*
X45550Y-41175D01*
X49825Y-41175D01*
X49825Y-49825D01*
X49825Y-49825D01*
G37*
G54D19*
X49825Y-49825D02*
X49642Y-49825D01*
X49642Y-48872D01*
X49544Y-48636D01*
X49364Y-48455D01*
X49128Y-48357D01*
X48872Y-48357D01*
X48636Y-48455D01*
X48455Y-48635D01*
X48357Y-48871D01*
X48357Y-49127D01*
X48455Y-49363D01*
X48635Y-49544D01*
X48871Y-49642D01*
X49127Y-49642D01*
X49363Y-49544D01*
X49544Y-49364D01*
X49642Y-49128D01*
X49642Y-48872D01*
X49642Y-49825D01*
X45550Y-49825D01*
X45550Y-49800D01*
X45263Y-49800D01*
X45320Y-49776D01*
X45354Y-49675D01*
X45000Y-49320D01*
X44645Y-49675D01*
X44679Y-49776D01*
X44744Y-49800D01*
X44450Y-49800D01*
X44450Y-49825D01*
X43474Y-49825D01*
X43495Y-49816D01*
X43566Y-49745D01*
X43604Y-49654D01*
X43604Y-49567D01*
X43713Y-49677D01*
X43899Y-49754D01*
X44099Y-49754D01*
X44285Y-49677D01*
X44427Y-49536D01*
X44443Y-49497D01*
X44473Y-49570D01*
X44574Y-49604D01*
X44929Y-49250D01*
X44574Y-48895D01*
X44473Y-48929D01*
X44445Y-49007D01*
X44427Y-48964D01*
X44286Y-48822D01*
X44200Y-48786D01*
X44200Y-47332D01*
X45832Y-45700D01*
X46275Y-45700D01*
X46329Y-45754D01*
X46440Y-45799D01*
X46559Y-45800D01*
X46669Y-45754D01*
X46754Y-45670D01*
X46799Y-45559D01*
X46800Y-45500D01*
X46800Y-48786D01*
X46714Y-48822D01*
X46572Y-48963D01*
X46499Y-49139D01*
X46427Y-48964D01*
X46286Y-48822D01*
X46100Y-48745D01*
X45900Y-48745D01*
X45714Y-48822D01*
X45572Y-48963D01*
X45556Y-49002D01*
X45526Y-48929D01*
X45425Y-48895D01*
X45354Y-48966D01*
X45354Y-48824D01*
X45320Y-48723D01*
X45094Y-48641D01*
X44854Y-48651D01*
X44679Y-48723D01*
X44645Y-48824D01*
X45000Y-49179D01*
X45354Y-48824D01*
X45354Y-48966D01*
X45070Y-49250D01*
X45425Y-49604D01*
X45526Y-49570D01*
X45554Y-49492D01*
X45572Y-49535D01*
X45713Y-49677D01*
X45899Y-49754D01*
X46099Y-49754D01*
X46285Y-49677D01*
X46427Y-49536D01*
X46500Y-49360D01*
X46572Y-49535D01*
X46713Y-49677D01*
X46899Y-49754D01*
X47099Y-49754D01*
X47285Y-49677D01*
X47427Y-49536D01*
X47504Y-49350D01*
X47504Y-49150D01*
X47427Y-48964D01*
X47286Y-48822D01*
X47200Y-48786D01*
X47200Y-46559D01*
X47245Y-46669D01*
X47329Y-46754D01*
X47440Y-46799D01*
X47559Y-46800D01*
X47669Y-46754D01*
X47754Y-46670D01*
X47799Y-46559D01*
X47800Y-46440D01*
X47754Y-46330D01*
X47670Y-46245D01*
X47559Y-46200D01*
X47482Y-46199D01*
X47450Y-46167D01*
X47450Y-43582D01*
X47891Y-43141D01*
X47934Y-43076D01*
X47934Y-43076D01*
X47937Y-43063D01*
X47949Y-43000D01*
X47950Y-43000D01*
X47950Y-42474D01*
X48004Y-42420D01*
X48049Y-42309D01*
X48050Y-42190D01*
X48004Y-42080D01*
X47920Y-41995D01*
X47809Y-41950D01*
X47690Y-41949D01*
X47580Y-41995D01*
X47495Y-42079D01*
X47450Y-42190D01*
X47449Y-42309D01*
X47495Y-42419D01*
X47550Y-42474D01*
X47550Y-42690D01*
X47504Y-42580D01*
X47420Y-42495D01*
X47309Y-42450D01*
X47190Y-42449D01*
X47080Y-42495D01*
X46995Y-42579D01*
X46950Y-42690D01*
X46950Y-42749D01*
X46950Y-42582D01*
X47141Y-42391D01*
X47141Y-42391D01*
X47184Y-42326D01*
X47200Y-42250D01*
X47200Y-42213D01*
X47285Y-42177D01*
X47427Y-42036D01*
X47504Y-41850D01*
X47504Y-41650D01*
X47427Y-41464D01*
X47286Y-41322D01*
X47100Y-41245D01*
X46900Y-41245D01*
X46714Y-41322D01*
X46572Y-41463D01*
X46499Y-41639D01*
X46427Y-41464D01*
X46286Y-41322D01*
X46100Y-41245D01*
X45900Y-41245D01*
X45714Y-41322D01*
X45572Y-41463D01*
X45556Y-41502D01*
X45526Y-41429D01*
X45425Y-41395D01*
X45070Y-41750D01*
X45425Y-42104D01*
X45526Y-42070D01*
X45554Y-41992D01*
X45572Y-42035D01*
X45713Y-42177D01*
X45899Y-42254D01*
X46099Y-42254D01*
X46285Y-42177D01*
X46427Y-42036D01*
X46500Y-41860D01*
X46572Y-42035D01*
X46713Y-42177D01*
X46767Y-42199D01*
X46608Y-42358D01*
X46565Y-42423D01*
X46550Y-42500D01*
X46550Y-44417D01*
X45917Y-45050D01*
X45500Y-45050D01*
X45423Y-45065D01*
X45358Y-45108D01*
X45354Y-45112D01*
X45354Y-42175D01*
X45000Y-41820D01*
X44645Y-42175D01*
X44679Y-42276D01*
X44905Y-42358D01*
X45145Y-42348D01*
X45320Y-42276D01*
X45354Y-42175D01*
X45354Y-45112D01*
X44167Y-46300D01*
X43832Y-46300D01*
X42641Y-45108D01*
X42576Y-45065D01*
X42500Y-45050D01*
X41642Y-45050D01*
X41642Y-41872D01*
X41544Y-41636D01*
X41364Y-41455D01*
X41128Y-41357D01*
X40872Y-41357D01*
X40636Y-41455D01*
X40455Y-41635D01*
X40357Y-41871D01*
X40357Y-42127D01*
X40455Y-42363D01*
X40635Y-42544D01*
X40871Y-42642D01*
X41127Y-42642D01*
X41363Y-42544D01*
X41544Y-42364D01*
X41642Y-42128D01*
X41642Y-41872D01*
X41642Y-45050D01*
X41332Y-45050D01*
X41141Y-44858D01*
X41077Y-44815D01*
X41077Y-44096D01*
X41027Y-43976D01*
X40935Y-43884D01*
X40815Y-43834D01*
X40685Y-43834D01*
X40564Y-43883D01*
X40472Y-43975D01*
X40422Y-44096D01*
X40422Y-44226D01*
X40472Y-44346D01*
X40564Y-44438D01*
X40684Y-44488D01*
X40814Y-44488D01*
X40935Y-44438D01*
X41027Y-44346D01*
X41077Y-44226D01*
X41077Y-44096D01*
X41077Y-44815D01*
X41076Y-44815D01*
X41000Y-44800D01*
X40750Y-44800D01*
X40673Y-44815D01*
X40608Y-44858D01*
X40358Y-45108D01*
X40315Y-45173D01*
X40300Y-45250D01*
X40300Y-45275D01*
X40245Y-45329D01*
X40200Y-45440D01*
X40200Y-45499D01*
X40200Y-44950D01*
X40175Y-44950D01*
X40175Y-41175D01*
X42525Y-41175D01*
X42504Y-41183D01*
X42433Y-41254D01*
X42395Y-41345D01*
X42395Y-41445D01*
X42395Y-42154D01*
X42433Y-42245D01*
X42504Y-42316D01*
X42595Y-42354D01*
X42695Y-42354D01*
X43404Y-42354D01*
X43495Y-42316D01*
X43566Y-42245D01*
X43604Y-42154D01*
X43604Y-42067D01*
X43713Y-42177D01*
X43800Y-42213D01*
X43800Y-42417D01*
X43667Y-42550D01*
X42750Y-42550D01*
X42673Y-42565D01*
X42608Y-42608D01*
X42017Y-43200D01*
X41940Y-43199D01*
X41830Y-43245D01*
X41745Y-43329D01*
X41700Y-43440D01*
X41699Y-43559D01*
X41745Y-43669D01*
X41829Y-43754D01*
X41940Y-43799D01*
X42059Y-43800D01*
X42169Y-43754D01*
X42254Y-43670D01*
X42299Y-43559D01*
X42300Y-43482D01*
X42832Y-42950D01*
X43750Y-42950D01*
X43826Y-42934D01*
X43891Y-42891D01*
X44141Y-42641D01*
X44141Y-42641D01*
X44184Y-42576D01*
X44200Y-42500D01*
X44200Y-42213D01*
X44285Y-42177D01*
X44427Y-42036D01*
X44443Y-41997D01*
X44473Y-42070D01*
X44574Y-42104D01*
X44929Y-41750D01*
X44574Y-41395D01*
X44473Y-41429D01*
X44445Y-41507D01*
X44427Y-41464D01*
X44286Y-41322D01*
X44100Y-41245D01*
X43900Y-41245D01*
X43714Y-41322D01*
X43604Y-41432D01*
X43604Y-41345D01*
X43566Y-41254D01*
X43495Y-41183D01*
X43474Y-41175D01*
X44450Y-41175D01*
X44450Y-41200D01*
X44736Y-41200D01*
X44679Y-41223D01*
X44645Y-41324D01*
X45000Y-41679D01*
X45354Y-41324D01*
X45320Y-41223D01*
X45255Y-41200D01*
X45550Y-41200D01*
X45550Y-41175D01*
X49825Y-41175D01*
X49825Y-49825D01*
M02*
