%FSLAX34Y34*%
G04 Gerber Fmt 3.4, Leading zero omitted, Abs format*
G04 (created by PCBNEW (2014-03-19 BZR 4756)-product) date Mon 16 Jun 2014 02:55:52 PM CDT*
%MOIN*%
G01*
G70*
G90*
G04 APERTURE LIST*
%ADD10C,0.006000*%
%ADD11R,0.039370X0.059055*%
%ADD12R,0.027559X0.027559*%
%ADD13R,0.070866X0.062992*%
%ADD14R,0.125984X0.062992*%
%ADD15R,0.025591X0.041732*%
%ADD16R,0.086614X0.047244*%
%ADD17R,0.086614X0.137795*%
%ADD18R,0.013800X0.055100*%
%ADD19R,0.100488X0.080803*%
%ADD20R,0.053244X0.053244*%
%ADD21R,0.053244X0.033559*%
%ADD22R,0.033559X0.053244*%
%ADD23R,0.070866X0.070866*%
%ADD24C,0.070866*%
%ADD25R,0.066929X0.066929*%
%ADD26C,0.066929*%
%ADD27R,0.039370X0.039370*%
%ADD28R,0.039370X0.086614*%
%ADD29R,0.062992X0.070866*%
%ADD30R,0.027559X0.051181*%
%ADD31R,0.090551X0.090551*%
%ADD32R,0.236220X0.078740*%
%ADD33R,0.078740X0.043307*%
%ADD34R,0.031496X0.031496*%
%ADD35R,0.078740X0.078740*%
%ADD36R,0.031591X0.023717*%
%ADD37C,0.102362*%
%ADD38C,0.086614*%
%ADD39C,0.106299*%
%ADD40C,0.059055*%
%ADD41R,0.098425X0.118110*%
%ADD42R,0.039370X0.037402*%
%ADD43R,0.045276X0.070866*%
%ADD44R,0.035433X0.039370*%
%ADD45C,0.010000*%
G04 APERTURE END LIST*
G54D10*
G54D11*
X50277Y-37350D03*
X47522Y-37350D03*
G54D12*
X79324Y-49500D03*
X79875Y-49500D03*
X83224Y-50700D03*
X83775Y-50700D03*
G54D10*
G36*
X84673Y-52660D02*
X84912Y-52523D01*
X85050Y-52761D01*
X84811Y-52899D01*
X84673Y-52660D01*
X84673Y-52660D01*
G37*
G36*
X84949Y-53138D02*
X85188Y-53000D01*
X85326Y-53239D01*
X85087Y-53376D01*
X84949Y-53138D01*
X84949Y-53138D01*
G37*
G36*
X84776Y-52239D02*
X84537Y-52376D01*
X84399Y-52138D01*
X84638Y-52000D01*
X84776Y-52239D01*
X84776Y-52239D01*
G37*
G36*
X84500Y-51761D02*
X84261Y-51899D01*
X84123Y-51660D01*
X84362Y-51523D01*
X84500Y-51761D01*
X84500Y-51761D01*
G37*
G54D13*
X82900Y-49801D03*
X82900Y-48698D03*
G54D10*
G36*
X80276Y-46289D02*
X80037Y-46426D01*
X79899Y-46188D01*
X80138Y-46050D01*
X80276Y-46289D01*
X80276Y-46289D01*
G37*
G36*
X80000Y-45811D02*
X79761Y-45949D01*
X79623Y-45710D01*
X79862Y-45573D01*
X80000Y-45811D01*
X80000Y-45811D01*
G37*
G36*
X74326Y-44722D02*
X74939Y-45077D01*
X74624Y-45622D01*
X74011Y-45268D01*
X74326Y-44722D01*
X74326Y-44722D01*
G37*
G36*
X73775Y-45677D02*
X74388Y-46031D01*
X74073Y-46577D01*
X73460Y-46222D01*
X73775Y-45677D01*
X73775Y-45677D01*
G37*
G54D12*
X80350Y-52774D03*
X80350Y-53325D03*
X72924Y-53300D03*
X73475Y-53300D03*
X80350Y-52125D03*
X80350Y-51574D03*
G54D14*
X74984Y-48250D03*
X73015Y-48250D03*
G54D13*
X79200Y-47448D03*
X79200Y-48551D03*
G54D12*
X52324Y-37350D03*
X52875Y-37350D03*
X54150Y-38525D03*
X54150Y-37974D03*
X54724Y-38550D03*
X55275Y-38550D03*
X58500Y-48474D03*
X58500Y-49025D03*
X58500Y-49724D03*
X58500Y-50275D03*
G54D13*
X84150Y-49801D03*
X84150Y-48698D03*
G54D15*
X81024Y-47716D03*
X80650Y-47716D03*
X80275Y-47716D03*
X80275Y-48583D03*
X81024Y-48583D03*
G54D16*
X75929Y-45094D03*
X75929Y-46000D03*
X75929Y-46905D03*
G54D17*
X78370Y-46000D03*
G54D18*
X80854Y-53282D03*
X81110Y-53282D03*
X81366Y-53282D03*
X81622Y-53282D03*
X81878Y-53282D03*
X82134Y-53282D03*
X82390Y-53282D03*
X82646Y-53282D03*
X82646Y-51018D03*
X82390Y-51018D03*
X82134Y-51018D03*
X81878Y-51018D03*
X81622Y-51018D03*
X81366Y-51018D03*
X81110Y-51018D03*
X80854Y-51018D03*
G54D19*
X54403Y-46832D03*
X54403Y-48250D03*
X54403Y-49667D03*
X56096Y-46832D03*
X56096Y-48250D03*
X56096Y-49667D03*
G54D20*
X52946Y-51104D03*
X57553Y-51104D03*
X57553Y-45395D03*
X52946Y-45395D03*
G54D21*
X52946Y-46124D03*
X52946Y-46596D03*
X52946Y-47068D03*
X52946Y-47541D03*
X52946Y-48013D03*
X52946Y-48486D03*
X52946Y-48958D03*
X52946Y-49431D03*
X52946Y-49903D03*
X52946Y-50375D03*
G54D22*
X53596Y-51104D03*
X54068Y-51104D03*
X54541Y-51104D03*
X55013Y-51104D03*
X55486Y-51104D03*
X55958Y-51104D03*
X56431Y-51104D03*
X56903Y-51104D03*
G54D21*
X57553Y-50375D03*
X57553Y-49903D03*
X57553Y-49431D03*
X57553Y-48958D03*
X57553Y-48486D03*
X57553Y-48013D03*
X57553Y-47541D03*
X57553Y-47068D03*
X57553Y-46596D03*
X57553Y-46124D03*
G54D22*
X56903Y-45395D03*
X56431Y-45395D03*
X55958Y-45395D03*
X55486Y-45395D03*
X55013Y-45395D03*
X54541Y-45395D03*
X54068Y-45395D03*
X53596Y-45395D03*
G54D10*
G36*
X85750Y-52238D02*
X85829Y-52374D01*
X85351Y-52650D01*
X85273Y-52514D01*
X85750Y-52238D01*
X85750Y-52238D01*
G37*
G36*
X85622Y-52016D02*
X85701Y-52153D01*
X85223Y-52428D01*
X85145Y-52292D01*
X85622Y-52016D01*
X85622Y-52016D01*
G37*
G36*
X85494Y-51795D02*
X85573Y-51931D01*
X85096Y-52207D01*
X85017Y-52070D01*
X85494Y-51795D01*
X85494Y-51795D01*
G37*
G36*
X85366Y-51573D02*
X85445Y-51709D01*
X84968Y-51985D01*
X84889Y-51849D01*
X85366Y-51573D01*
X85366Y-51573D01*
G37*
G36*
X85238Y-51351D02*
X85317Y-51488D01*
X84840Y-51763D01*
X84761Y-51627D01*
X85238Y-51351D01*
X85238Y-51351D01*
G37*
G36*
X87102Y-52139D02*
X87555Y-52923D01*
X86907Y-53297D01*
X86454Y-52513D01*
X87102Y-52139D01*
X87102Y-52139D01*
G37*
G36*
X85626Y-49582D02*
X86079Y-50366D01*
X85431Y-50740D01*
X84978Y-49956D01*
X85626Y-49582D01*
X85626Y-49582D01*
G37*
G36*
X86187Y-50554D02*
X86541Y-51167D01*
X85893Y-51541D01*
X85539Y-50928D01*
X86187Y-50554D01*
X86187Y-50554D01*
G37*
G36*
X86640Y-51338D02*
X86994Y-51952D01*
X86346Y-52326D01*
X85992Y-51712D01*
X86640Y-51338D01*
X86640Y-51338D01*
G37*
G54D23*
X82500Y-54250D03*
G54D24*
X83500Y-54250D03*
X84500Y-54250D03*
X86500Y-54250D03*
X87500Y-54250D03*
X85500Y-54250D03*
G54D23*
X61500Y-49000D03*
G54D24*
X61500Y-50000D03*
X61500Y-51000D03*
X61500Y-53000D03*
X61500Y-52000D03*
G54D23*
X71500Y-53000D03*
G54D24*
X70500Y-53000D03*
G54D23*
X71500Y-54250D03*
G54D24*
X70500Y-54250D03*
G54D25*
X63500Y-51000D03*
G54D26*
X64500Y-51000D03*
X63500Y-52000D03*
X64500Y-52000D03*
X63500Y-53000D03*
X64500Y-53000D03*
G54D27*
X56550Y-38090D03*
G54D28*
X55959Y-37500D03*
X57140Y-37500D03*
G54D27*
X51781Y-48000D03*
X50718Y-48000D03*
X51250Y-48000D03*
G54D12*
X51700Y-37374D03*
X51700Y-37925D03*
X53500Y-37374D03*
X53500Y-37925D03*
X81125Y-54000D03*
X80574Y-54000D03*
X81875Y-49600D03*
X81324Y-49600D03*
G54D15*
X75225Y-54383D03*
X75600Y-53516D03*
X75974Y-54383D03*
G54D12*
X79875Y-50150D03*
X79324Y-50150D03*
X83775Y-52950D03*
X83224Y-52950D03*
X83775Y-52350D03*
X83224Y-52350D03*
X74074Y-53300D03*
X74625Y-53300D03*
X72275Y-50150D03*
X71724Y-50150D03*
X72275Y-49500D03*
X71724Y-49500D03*
X75250Y-51675D03*
X75250Y-51124D03*
X80574Y-54650D03*
X81125Y-54650D03*
X81324Y-50300D03*
X81875Y-50300D03*
X63775Y-49500D03*
X63224Y-49500D03*
X56474Y-44500D03*
X57025Y-44500D03*
X58500Y-45974D03*
X58500Y-46525D03*
G54D26*
X51250Y-46000D03*
X51250Y-47000D03*
X59500Y-47750D03*
X51250Y-49000D03*
X51250Y-50000D03*
X62500Y-49000D03*
X62500Y-50000D03*
X62500Y-51000D03*
X62500Y-52000D03*
X62500Y-53000D03*
G54D14*
X76965Y-53550D03*
X78934Y-53550D03*
G54D29*
X74301Y-54250D03*
X73198Y-54250D03*
G54D12*
X75250Y-52274D03*
X75250Y-52825D03*
X75250Y-49974D03*
X75250Y-50525D03*
X72275Y-50800D03*
X71724Y-50800D03*
G54D29*
X72051Y-51800D03*
X70948Y-51800D03*
G54D30*
X73000Y-52332D03*
X73500Y-52332D03*
X74000Y-52332D03*
X74500Y-52332D03*
X74500Y-50167D03*
X74000Y-50167D03*
X73500Y-50167D03*
X73000Y-50167D03*
G54D31*
X73750Y-51250D03*
G54D32*
X77250Y-49603D03*
X77250Y-51296D03*
G54D33*
X75394Y-44100D03*
G54D34*
X76142Y-44100D03*
G54D35*
X82073Y-47500D03*
X83726Y-47500D03*
X76423Y-48300D03*
X78076Y-48300D03*
G54D33*
X77244Y-44100D03*
G54D34*
X77992Y-44100D03*
G54D36*
X78944Y-50766D03*
X78944Y-51022D03*
X78944Y-51277D03*
X78944Y-51533D03*
X79555Y-51533D03*
X79555Y-51277D03*
X79555Y-51022D03*
X79555Y-50766D03*
G54D37*
X79590Y-42272D03*
X78409Y-40227D03*
X77397Y-42175D03*
G54D38*
X53161Y-54396D03*
X54538Y-54396D03*
X53161Y-41403D03*
G54D39*
X52196Y-52388D03*
X52196Y-43411D03*
X55503Y-52860D03*
X55503Y-42939D03*
G54D38*
X57661Y-54396D03*
X59038Y-54396D03*
X57661Y-41403D03*
G54D39*
X56696Y-52388D03*
X56696Y-43411D03*
X60003Y-52860D03*
X60003Y-42939D03*
G54D38*
X48661Y-54396D03*
X50038Y-54396D03*
X48661Y-41403D03*
G54D39*
X47696Y-52388D03*
X47696Y-43411D03*
X51003Y-52860D03*
X51003Y-42939D03*
G54D40*
X80553Y-45092D03*
X80946Y-45774D03*
G54D24*
X61750Y-45515D03*
X61750Y-47484D03*
G54D10*
G36*
X70088Y-42631D02*
X70227Y-42770D01*
X69809Y-43188D01*
X69670Y-43048D01*
X70088Y-42631D01*
X70088Y-42631D01*
G37*
G36*
X69865Y-42408D02*
X70004Y-42547D01*
X69586Y-42965D01*
X69447Y-42826D01*
X69865Y-42408D01*
X69865Y-42408D01*
G37*
G36*
X69642Y-42185D02*
X69781Y-42324D01*
X69364Y-42742D01*
X69224Y-42603D01*
X69642Y-42185D01*
X69642Y-42185D01*
G37*
G36*
X69419Y-41962D02*
X69559Y-42102D01*
X69141Y-42520D01*
X69001Y-42380D01*
X69419Y-41962D01*
X69419Y-41962D01*
G37*
G36*
X69197Y-41740D02*
X69337Y-41880D01*
X68919Y-42298D01*
X68779Y-42158D01*
X69197Y-41740D01*
X69197Y-41740D01*
G37*
G36*
X68975Y-41518D02*
X69114Y-41657D01*
X68696Y-42075D01*
X68557Y-41935D01*
X68975Y-41518D01*
X68975Y-41518D01*
G37*
G36*
X68752Y-41295D02*
X68891Y-41434D01*
X68473Y-41852D01*
X68334Y-41713D01*
X68752Y-41295D01*
X68752Y-41295D01*
G37*
G36*
X68529Y-41072D02*
X68668Y-41211D01*
X68251Y-41629D01*
X68111Y-41490D01*
X68529Y-41072D01*
X68529Y-41072D01*
G37*
G36*
X67331Y-41211D02*
X67470Y-41072D01*
X67888Y-41490D01*
X67748Y-41629D01*
X67331Y-41211D01*
X67331Y-41211D01*
G37*
G36*
X67108Y-41434D02*
X67247Y-41295D01*
X67665Y-41713D01*
X67526Y-41852D01*
X67108Y-41434D01*
X67108Y-41434D01*
G37*
G36*
X66885Y-41657D02*
X67024Y-41518D01*
X67442Y-41935D01*
X67303Y-42075D01*
X66885Y-41657D01*
X66885Y-41657D01*
G37*
G36*
X66662Y-41880D02*
X66802Y-41740D01*
X67220Y-42158D01*
X67080Y-42298D01*
X66662Y-41880D01*
X66662Y-41880D01*
G37*
G36*
X66440Y-42102D02*
X66580Y-41962D01*
X66998Y-42380D01*
X66858Y-42520D01*
X66440Y-42102D01*
X66440Y-42102D01*
G37*
G36*
X66218Y-42324D02*
X66357Y-42185D01*
X66775Y-42603D01*
X66635Y-42742D01*
X66218Y-42324D01*
X66218Y-42324D01*
G37*
G36*
X65995Y-42547D02*
X66134Y-42408D01*
X66552Y-42826D01*
X66413Y-42965D01*
X65995Y-42547D01*
X65995Y-42547D01*
G37*
G36*
X65772Y-42770D02*
X65911Y-42631D01*
X66329Y-43048D01*
X66190Y-43188D01*
X65772Y-42770D01*
X65772Y-42770D01*
G37*
G36*
X65911Y-43968D02*
X65772Y-43829D01*
X66190Y-43411D01*
X66329Y-43551D01*
X65911Y-43968D01*
X65911Y-43968D01*
G37*
G36*
X66134Y-44191D02*
X65995Y-44052D01*
X66413Y-43634D01*
X66552Y-43773D01*
X66134Y-44191D01*
X66134Y-44191D01*
G37*
G36*
X66357Y-44414D02*
X66218Y-44275D01*
X66635Y-43857D01*
X66775Y-43996D01*
X66357Y-44414D01*
X66357Y-44414D01*
G37*
G36*
X66580Y-44637D02*
X66440Y-44497D01*
X66858Y-44079D01*
X66998Y-44219D01*
X66580Y-44637D01*
X66580Y-44637D01*
G37*
G36*
X66802Y-44859D02*
X66662Y-44719D01*
X67080Y-44301D01*
X67220Y-44441D01*
X66802Y-44859D01*
X66802Y-44859D01*
G37*
G36*
X67024Y-45081D02*
X66885Y-44942D01*
X67303Y-44524D01*
X67442Y-44664D01*
X67024Y-45081D01*
X67024Y-45081D01*
G37*
G36*
X67247Y-45304D02*
X67108Y-45165D01*
X67526Y-44747D01*
X67665Y-44886D01*
X67247Y-45304D01*
X67247Y-45304D01*
G37*
G36*
X67470Y-45527D02*
X67331Y-45388D01*
X67748Y-44970D01*
X67888Y-45109D01*
X67470Y-45527D01*
X67470Y-45527D01*
G37*
G36*
X68668Y-45388D02*
X68529Y-45527D01*
X68111Y-45109D01*
X68251Y-44970D01*
X68668Y-45388D01*
X68668Y-45388D01*
G37*
G36*
X68891Y-45165D02*
X68752Y-45304D01*
X68334Y-44886D01*
X68473Y-44747D01*
X68891Y-45165D01*
X68891Y-45165D01*
G37*
G36*
X69114Y-44942D02*
X68975Y-45081D01*
X68557Y-44664D01*
X68696Y-44524D01*
X69114Y-44942D01*
X69114Y-44942D01*
G37*
G36*
X69337Y-44719D02*
X69197Y-44859D01*
X68779Y-44441D01*
X68919Y-44301D01*
X69337Y-44719D01*
X69337Y-44719D01*
G37*
G36*
X69559Y-44497D02*
X69419Y-44637D01*
X69001Y-44219D01*
X69141Y-44079D01*
X69559Y-44497D01*
X69559Y-44497D01*
G37*
G36*
X69781Y-44275D02*
X69642Y-44414D01*
X69224Y-43996D01*
X69364Y-43857D01*
X69781Y-44275D01*
X69781Y-44275D01*
G37*
G36*
X70004Y-44052D02*
X69865Y-44191D01*
X69447Y-43773D01*
X69586Y-43634D01*
X70004Y-44052D01*
X70004Y-44052D01*
G37*
G36*
X70227Y-43829D02*
X70088Y-43968D01*
X69670Y-43551D01*
X69809Y-43411D01*
X70227Y-43829D01*
X70227Y-43829D01*
G37*
G36*
X74142Y-40104D02*
X74476Y-40438D01*
X73864Y-41050D01*
X73530Y-40716D01*
X74142Y-40104D01*
X74142Y-40104D01*
G37*
G36*
X73502Y-39463D02*
X73836Y-39797D01*
X73223Y-40410D01*
X72889Y-40076D01*
X73502Y-39463D01*
X73502Y-39463D01*
G37*
G36*
X72861Y-38823D02*
X73195Y-39157D01*
X72583Y-39769D01*
X72249Y-39435D01*
X72861Y-38823D01*
X72861Y-38823D01*
G37*
G36*
X71456Y-40869D02*
X72430Y-41843D01*
X71817Y-42456D01*
X70843Y-41482D01*
X71456Y-40869D01*
X71456Y-40869D01*
G37*
G54D23*
X75000Y-38800D03*
G54D24*
X76000Y-38800D03*
G54D25*
X62000Y-40800D03*
G54D26*
X61000Y-40800D03*
X62000Y-39800D03*
X61000Y-39800D03*
X62000Y-38800D03*
X61000Y-38800D03*
G54D23*
X64000Y-37550D03*
G54D24*
X63000Y-37550D03*
X62000Y-37550D03*
X60000Y-37550D03*
X59000Y-37550D03*
X61000Y-37550D03*
G54D23*
X70000Y-37550D03*
G54D24*
X69000Y-37550D03*
X68000Y-37550D03*
X66000Y-37550D03*
X67000Y-37550D03*
G54D10*
G36*
X71729Y-47736D02*
X71115Y-47381D01*
X71470Y-46768D01*
X72084Y-47122D01*
X71729Y-47736D01*
X71729Y-47736D01*
G37*
G54D24*
X72100Y-46386D03*
X72600Y-45520D03*
X73600Y-43787D03*
X73100Y-44653D03*
G54D10*
G36*
X61915Y-43658D02*
X62529Y-43303D01*
X62884Y-43917D01*
X62270Y-44271D01*
X61915Y-43658D01*
X61915Y-43658D01*
G37*
G54D24*
X62900Y-44653D03*
X63400Y-45520D03*
X64400Y-47252D03*
X63900Y-46386D03*
G54D23*
X64000Y-42800D03*
G54D24*
X64000Y-41800D03*
X64000Y-40800D03*
X64000Y-38800D03*
X64000Y-39800D03*
G54D23*
X68500Y-47050D03*
G54D24*
X67500Y-47050D03*
G54D23*
X75000Y-37550D03*
G54D24*
X76000Y-37550D03*
G54D41*
X69279Y-39250D03*
X66720Y-39250D03*
G54D27*
X71244Y-38800D03*
X71755Y-38800D03*
G54D10*
G36*
X69884Y-41994D02*
X69605Y-41715D01*
X69870Y-41451D01*
X70148Y-41729D01*
X69884Y-41994D01*
X69884Y-41994D01*
G37*
G36*
X70329Y-41548D02*
X70051Y-41270D01*
X70315Y-41005D01*
X70594Y-41284D01*
X70329Y-41548D01*
X70329Y-41548D01*
G37*
G54D42*
X65750Y-39964D03*
X65750Y-39335D03*
X70250Y-39964D03*
X70250Y-39335D03*
G54D10*
G36*
X69384Y-41494D02*
X69105Y-41215D01*
X69370Y-40951D01*
X69648Y-41229D01*
X69384Y-41494D01*
X69384Y-41494D01*
G37*
G36*
X69829Y-41048D02*
X69551Y-40770D01*
X69815Y-40505D01*
X70094Y-40784D01*
X69829Y-41048D01*
X69829Y-41048D01*
G37*
G36*
X65055Y-45634D02*
X65334Y-45355D01*
X65598Y-45620D01*
X65320Y-45898D01*
X65055Y-45634D01*
X65055Y-45634D01*
G37*
G36*
X65501Y-46079D02*
X65779Y-45801D01*
X66044Y-46065D01*
X65765Y-46344D01*
X65501Y-46079D01*
X65501Y-46079D01*
G37*
G36*
X66644Y-45515D02*
X66365Y-45794D01*
X66101Y-45529D01*
X66379Y-45251D01*
X66644Y-45515D01*
X66644Y-45515D01*
G37*
G36*
X66198Y-45070D02*
X65920Y-45348D01*
X65655Y-45084D01*
X65934Y-44805D01*
X66198Y-45070D01*
X66198Y-45070D01*
G37*
G54D43*
X73090Y-37550D03*
X71909Y-37550D03*
G54D10*
G36*
X74172Y-42628D02*
X73671Y-42127D01*
X73991Y-41806D01*
X74493Y-42308D01*
X74172Y-42628D01*
X74172Y-42628D01*
G37*
G36*
X75008Y-41793D02*
X74506Y-41291D01*
X74827Y-40971D01*
X75328Y-41472D01*
X75008Y-41793D01*
X75008Y-41793D01*
G37*
G54D42*
X59500Y-39114D03*
X59500Y-38485D03*
G54D44*
X64935Y-48050D03*
X65564Y-48050D03*
X72814Y-43300D03*
X72185Y-43300D03*
X65564Y-38550D03*
X64935Y-38550D03*
X65435Y-41550D03*
X66064Y-41550D03*
X68314Y-48300D03*
X67685Y-48300D03*
X65435Y-40800D03*
X66064Y-40800D03*
X68314Y-49050D03*
X67685Y-49050D03*
G54D10*
G36*
X51250Y-39650D02*
X47050Y-39650D01*
X47050Y-36850D01*
X51250Y-36850D01*
X51250Y-39650D01*
X51250Y-39650D01*
G37*
G54D45*
X51250Y-39650D02*
X47050Y-39650D01*
X47050Y-36850D01*
X51250Y-36850D01*
X51250Y-39650D01*
M02*
