M48
;DRILL file {Pcbnew (2014-03-19 BZR 4756)-product} date Mon 16 Jun 2014 02:55:31 PM CDT
;FORMAT={2:4/ absolute / inch / keep zeros}
FMAT,2
INCH,TZ
T1C0.015
T2C0.031
T3C0.035
T4C0.039
T5C0.047
T6C0.063
T7C0.067
%
G90
G05
M72
T1
X047500Y-040000
X048000Y-040000
X048500Y-040000
X049000Y-040000
X049500Y-040000
X050000Y-040000
X050500Y-040000
X051000Y-040000
X051500Y-038500
X051500Y-039000
X051500Y-039500
X051500Y-040000
X052000Y-038500
X052250Y-048000
X052250Y-049000
X052500Y-038000
X053000Y-038000
X053500Y-038500
X053500Y-039000
X053500Y-039500
X053500Y-040000
X053500Y-040500
X053500Y-042000
X053500Y-042500
X053500Y-043000
X053500Y-043500
X053500Y-044000
X053500Y-044500
X053750Y-046000
X053750Y-047500
X053750Y-049000
X053750Y-050500
X053900Y-053650
X054500Y-039000
X054500Y-039500
X054500Y-040000
X054500Y-040500
X054500Y-041000
X054500Y-041500
X054500Y-042000
X054500Y-042500
X054500Y-043000
X054500Y-043500
X054500Y-044000
X054500Y-044500
X054750Y-037500
X054950Y-051800
X055000Y-038000
X055000Y-039000
X055250Y-046000
X055250Y-047500
X055250Y-049000
X055250Y-050500
X055500Y-037500
X055500Y-038000
X055500Y-039000
X055500Y-051800
X056000Y-039000
X056500Y-039000
X056750Y-046000
X056750Y-047500
X056750Y-049000
X056750Y-050500
X057000Y-038500
X057500Y-038000
X058050Y-052100
X059450Y-051450
X059850Y-050950
X059950Y-039800
X060100Y-047400
X060200Y-050150
X060600Y-051250
X063000Y-038450
X063200Y-039950
X064300Y-044550
X064500Y-054250
X064850Y-042750
X064950Y-046050
X065000Y-039850
X065150Y-042050
X065250Y-042450
X065650Y-042200
X065650Y-046550
X065700Y-040350
X066250Y-040150
X066400Y-048550
X066500Y-038050
X066550Y-040500
X066800Y-043650
X066900Y-049100
X067000Y-040500
X067200Y-045700
X067500Y-042400
X068300Y-043850
X068680Y-042390
X069000Y-043050
X069200Y-045600
X069250Y-038250
X069300Y-043500
X069500Y-040350
X069700Y-045650
X069800Y-044850
X070050Y-045950
X070200Y-043350
X070200Y-044300
X070500Y-043800
X070750Y-045950
X070850Y-040200
X071200Y-045450
X071600Y-038150
X071700Y-044100
X071850Y-042950
X072050Y-043775
X072350Y-051150
X073050Y-051250
X073050Y-051700
X073250Y-047500
X073500Y-046750
X073600Y-049650
X073850Y-039350
X074200Y-053700
X074450Y-050800
X074450Y-051250
X074450Y-051700
X074550Y-048800
X074800Y-054000
X074950Y-048750
X075250Y-045100
X075550Y-054500
X075650Y-052950
X076650Y-044400
X077100Y-044450
X078700Y-050400
X078750Y-048150
X078850Y-049050
X079500Y-052650
X080100Y-054150
X080400Y-051000
X080600Y-047050
X080850Y-052050
X081250Y-052700
X081350Y-046750
X081400Y-051600
X081550Y-052400
X082100Y-048600
X082350Y-051600
X082450Y-050500
X083000Y-051200
X083100Y-053500
X083400Y-051550
X084100Y-051250
X086100Y-052800
T2
X080553Y-045092
X080947Y-045774
T3
X051250Y-046000
X051250Y-047000
X051250Y-049000
X051250Y-050000
X059000Y-037550
X059500Y-047750
X060000Y-037550
X061000Y-037550
X061000Y-038800
X061000Y-039800
X061000Y-040800
X061500Y-049000
X061500Y-050000
X061500Y-051000
X061500Y-052000
X061500Y-053000
X062000Y-037550
X062000Y-038800
X062000Y-039800
X062000Y-040800
X062400Y-043788
X062500Y-049000
X062500Y-050000
X062500Y-051000
X062500Y-052000
X062500Y-053000
X062900Y-044654
X063000Y-037550
X063400Y-045520
X063500Y-051000
X063500Y-052000
X063500Y-053000
X063900Y-046386
X064000Y-037550
X064000Y-038800
X064000Y-039800
X064000Y-040800
X064000Y-041800
X064000Y-042800
X064400Y-047252
X064500Y-051000
X064500Y-052000
X064500Y-053000
X066000Y-037550
X067000Y-037550
X067500Y-047050
X068000Y-037550
X068500Y-047050
X069000Y-037550
X070000Y-037550
X070500Y-053000
X070500Y-054250
X071500Y-053000
X071500Y-054250
X071600Y-047252
X072100Y-046386
X072600Y-045520
X073100Y-044654
X073600Y-043788
X075000Y-037550
X075000Y-038800
X076000Y-037550
X076000Y-038800
X082500Y-054250
X083500Y-054250
X084500Y-054250
X085500Y-054250
X086500Y-054250
X087500Y-054250
T4
X061750Y-045516
X061750Y-047484
T5
X048661Y-041404
X048661Y-054396
X050039Y-054396
X053161Y-041404
X053161Y-054396
X054539Y-054396
X057661Y-041404
X057661Y-054396
X059039Y-054396
T6
X077398Y-042175
X078409Y-040227
X079591Y-042273
T7
X047696Y-043412
X047696Y-052388
X051004Y-042939
X051004Y-052861
X052196Y-043412
X052196Y-052388
X055504Y-042939
X055504Y-052861
X056696Y-043412
X056696Y-052388
X060004Y-042939
X060004Y-052861
T0
M30
