%FSLAX34Y34*%
G04 Gerber Fmt 3.4, Leading zero omitted, Abs format*
G04 (created by PCBNEW (2014-03-19 BZR 4756)-product) date Mon 16 Jun 2014 02:55:52 PM CDT*
%MOIN*%
G01*
G70*
G90*
G04 APERTURE LIST*
%ADD10C,0.006000*%
%ADD11R,0.070866X0.070866*%
%ADD12C,0.070866*%
%ADD13R,0.066929X0.066929*%
%ADD14C,0.066929*%
%ADD15C,0.102362*%
%ADD16C,0.086614*%
%ADD17C,0.106299*%
%ADD18C,0.059055*%
%ADD19C,0.030000*%
%ADD20C,0.040000*%
%ADD21C,0.010000*%
%ADD22C,0.008000*%
%ADD23C,0.012000*%
G04 APERTURE END LIST*
G54D10*
G54D11*
X82500Y-54250D03*
G54D12*
X83500Y-54250D03*
X84500Y-54250D03*
X86500Y-54250D03*
X87500Y-54250D03*
X85500Y-54250D03*
G54D11*
X61500Y-49000D03*
G54D12*
X61500Y-50000D03*
X61500Y-51000D03*
X61500Y-53000D03*
X61500Y-52000D03*
G54D11*
X71500Y-53000D03*
G54D12*
X70500Y-53000D03*
G54D11*
X71500Y-54250D03*
G54D12*
X70500Y-54250D03*
G54D13*
X63500Y-51000D03*
G54D14*
X64500Y-51000D03*
X63500Y-52000D03*
X64500Y-52000D03*
X63500Y-53000D03*
X64500Y-53000D03*
X51250Y-46000D03*
X51250Y-47000D03*
X59500Y-47750D03*
X51250Y-49000D03*
X51250Y-50000D03*
X62500Y-49000D03*
X62500Y-50000D03*
X62500Y-51000D03*
X62500Y-52000D03*
X62500Y-53000D03*
G54D15*
X79590Y-42272D03*
X78409Y-40227D03*
X77397Y-42175D03*
G54D16*
X53161Y-54396D03*
X54538Y-54396D03*
X53161Y-41403D03*
G54D17*
X52196Y-52388D03*
X52196Y-43411D03*
X55503Y-52860D03*
X55503Y-42939D03*
G54D16*
X57661Y-54396D03*
X59038Y-54396D03*
X57661Y-41403D03*
G54D17*
X56696Y-52388D03*
X56696Y-43411D03*
X60003Y-52860D03*
X60003Y-42939D03*
G54D16*
X48661Y-54396D03*
X50038Y-54396D03*
X48661Y-41403D03*
G54D17*
X47696Y-52388D03*
X47696Y-43411D03*
X51003Y-52860D03*
X51003Y-42939D03*
G54D18*
X80553Y-45092D03*
X80946Y-45774D03*
G54D12*
X61750Y-45515D03*
X61750Y-47484D03*
G54D11*
X75000Y-38800D03*
G54D12*
X76000Y-38800D03*
G54D13*
X62000Y-40800D03*
G54D14*
X61000Y-40800D03*
X62000Y-39800D03*
X61000Y-39800D03*
X62000Y-38800D03*
X61000Y-38800D03*
G54D11*
X64000Y-37550D03*
G54D12*
X63000Y-37550D03*
X62000Y-37550D03*
X60000Y-37550D03*
X59000Y-37550D03*
X61000Y-37550D03*
G54D11*
X70000Y-37550D03*
G54D12*
X69000Y-37550D03*
X68000Y-37550D03*
X66000Y-37550D03*
X67000Y-37550D03*
G54D10*
G36*
X71729Y-47736D02*
X71115Y-47381D01*
X71470Y-46768D01*
X72084Y-47122D01*
X71729Y-47736D01*
X71729Y-47736D01*
G37*
G54D12*
X72100Y-46386D03*
X72600Y-45520D03*
X73600Y-43787D03*
X73100Y-44653D03*
G54D10*
G36*
X61915Y-43658D02*
X62529Y-43303D01*
X62884Y-43917D01*
X62270Y-44271D01*
X61915Y-43658D01*
X61915Y-43658D01*
G37*
G54D12*
X62900Y-44653D03*
X63400Y-45520D03*
X64400Y-47252D03*
X63900Y-46386D03*
G54D11*
X64000Y-42800D03*
G54D12*
X64000Y-41800D03*
X64000Y-40800D03*
X64000Y-38800D03*
X64000Y-39800D03*
G54D11*
X68500Y-47050D03*
G54D12*
X67500Y-47050D03*
G54D11*
X75000Y-37550D03*
G54D12*
X76000Y-37550D03*
G54D19*
X66900Y-49100D03*
X64950Y-46050D03*
X69500Y-40350D03*
X66550Y-40500D03*
X60100Y-47400D03*
X60200Y-50150D03*
X65700Y-40350D03*
X66500Y-38050D03*
X63200Y-39950D03*
X59950Y-39800D03*
X70750Y-45950D03*
X71200Y-45450D03*
X69250Y-38250D03*
X73850Y-39350D03*
X71600Y-38150D03*
X69000Y-43050D03*
X71850Y-42950D03*
X65650Y-46550D03*
X66400Y-48550D03*
X70850Y-40200D03*
X68680Y-42390D03*
X54950Y-51800D03*
X55500Y-51800D03*
X60600Y-51250D03*
X59450Y-51450D03*
X69800Y-44850D03*
X75550Y-54500D03*
X53900Y-53650D03*
X59850Y-50950D03*
X58050Y-52100D03*
X70500Y-43800D03*
X66250Y-40150D03*
X81400Y-51600D03*
X67000Y-40500D03*
X71700Y-44100D03*
X67500Y-42400D03*
X65650Y-42200D03*
X64300Y-44550D03*
X82450Y-50500D03*
X66800Y-43650D03*
X83400Y-51550D03*
X83000Y-51200D03*
X81250Y-52700D03*
X82350Y-51600D03*
X69700Y-45650D03*
X74550Y-48800D03*
X74950Y-48750D03*
X77100Y-44450D03*
X76650Y-44400D03*
X70050Y-45950D03*
X82100Y-48600D03*
X80850Y-52050D03*
X81550Y-52400D03*
X68300Y-43850D03*
X65150Y-42050D03*
X64500Y-54250D03*
X54750Y-37500D03*
X55000Y-38000D03*
X55500Y-38000D03*
X55500Y-37500D03*
X53750Y-46000D03*
X55250Y-46000D03*
X56750Y-46000D03*
X56750Y-47500D03*
X55250Y-47500D03*
X53750Y-47500D03*
X53750Y-49000D03*
X55250Y-49000D03*
X56750Y-49000D03*
X56750Y-50500D03*
X55250Y-50500D03*
X53750Y-50500D03*
X79500Y-52650D03*
X78750Y-48150D03*
X78850Y-49050D03*
X75250Y-45100D03*
X86100Y-52800D03*
X84100Y-51250D03*
X80400Y-51000D03*
X73250Y-47500D03*
X75650Y-52950D03*
X74450Y-50800D03*
X74450Y-51250D03*
X74450Y-51700D03*
X73050Y-51700D03*
X73050Y-51250D03*
X73500Y-46750D03*
X81350Y-46750D03*
X80600Y-47050D03*
X53500Y-44500D03*
X53500Y-44000D03*
X53500Y-43500D03*
X53500Y-43000D03*
X53500Y-42500D03*
X53500Y-42000D03*
X53500Y-40500D03*
X53500Y-40000D03*
X53500Y-39500D03*
X53500Y-39000D03*
X53500Y-38500D03*
X53000Y-38000D03*
X52500Y-38000D03*
X52000Y-38500D03*
X51500Y-38500D03*
X51500Y-39000D03*
X51500Y-39500D03*
X51500Y-40000D03*
X51000Y-40000D03*
X50500Y-40000D03*
X50000Y-40000D03*
X49500Y-40000D03*
X49000Y-40000D03*
X48500Y-40000D03*
X48000Y-40000D03*
X47500Y-40000D03*
X55000Y-39000D03*
X55500Y-39000D03*
X56000Y-39000D03*
X56500Y-39000D03*
X57000Y-38500D03*
X57500Y-38000D03*
X54500Y-39000D03*
X54500Y-39500D03*
X54500Y-40000D03*
X54500Y-40500D03*
X54500Y-41000D03*
X54500Y-41500D03*
X54500Y-42000D03*
X54500Y-42500D03*
X54500Y-43000D03*
X54500Y-43500D03*
X54500Y-44000D03*
X54500Y-44500D03*
X72050Y-43775D03*
X67200Y-45700D03*
X69200Y-45600D03*
X69300Y-43500D03*
X63000Y-38450D03*
X65000Y-39850D03*
X65250Y-42450D03*
X70200Y-44300D03*
X64850Y-42750D03*
X72350Y-51150D03*
X73600Y-49650D03*
X70200Y-43350D03*
X83100Y-53500D03*
X80100Y-54150D03*
X52250Y-48000D03*
X52250Y-49000D03*
X74800Y-54000D03*
X74200Y-53700D03*
G54D20*
X78700Y-50400D03*
G54D21*
X61500Y-38750D02*
X61500Y-39150D01*
X60500Y-40300D02*
X61000Y-40800D01*
X60500Y-39500D02*
X60500Y-40300D01*
X60700Y-39300D02*
X60500Y-39500D01*
X61350Y-39300D02*
X60700Y-39300D01*
X61500Y-39150D02*
X61350Y-39300D01*
X69000Y-37550D02*
X69000Y-37650D01*
X69000Y-37650D02*
X68650Y-38000D01*
X69050Y-38600D02*
X69400Y-38600D01*
X68650Y-38200D02*
X69050Y-38600D01*
X68650Y-38000D02*
X68650Y-38200D01*
X64950Y-46050D02*
X64950Y-46450D01*
X64950Y-46450D02*
X66900Y-48400D01*
X66900Y-48400D02*
X66900Y-49100D01*
X69000Y-37550D02*
X69000Y-37400D01*
X62000Y-37550D02*
X62000Y-37750D01*
X62000Y-37750D02*
X61500Y-38250D01*
X61500Y-38250D02*
X61500Y-38750D01*
X69700Y-40200D02*
X69650Y-40200D01*
X69650Y-40200D02*
X69500Y-40350D01*
X66550Y-40400D02*
X66550Y-40500D01*
X66800Y-40150D02*
X66550Y-40400D01*
X67150Y-40150D02*
X66800Y-40150D01*
X67200Y-40200D02*
X67150Y-40150D01*
X69700Y-40200D02*
X67200Y-40200D01*
X69900Y-40000D02*
X69700Y-40200D01*
X69900Y-39100D02*
X69900Y-40000D01*
X69400Y-38600D02*
X69900Y-39100D01*
G54D22*
X60100Y-50050D02*
X60100Y-47400D01*
X60200Y-50150D02*
X60100Y-50050D01*
X59950Y-52000D02*
X61500Y-52000D01*
X54538Y-54396D02*
X56303Y-54396D01*
X56303Y-54396D02*
X58300Y-52400D01*
X59250Y-52000D02*
X58800Y-51550D01*
X58800Y-51550D02*
X58500Y-51550D01*
X58500Y-51550D02*
X58350Y-51700D01*
X58350Y-51700D02*
X58350Y-52350D01*
X58350Y-52350D02*
X58300Y-52400D01*
X59950Y-52000D02*
X59250Y-52000D01*
G54D21*
X65700Y-40350D02*
X65700Y-38600D01*
X66250Y-38050D02*
X66500Y-38050D01*
X65700Y-38600D02*
X66250Y-38050D01*
X63200Y-39250D02*
X63200Y-39950D01*
X62550Y-38600D02*
X63200Y-39250D01*
X62550Y-38050D02*
X62550Y-38600D01*
X63000Y-37600D02*
X62550Y-38050D01*
X63000Y-37550D02*
X63000Y-37600D01*
X70750Y-45900D02*
X70750Y-45950D01*
X71200Y-45450D02*
X70750Y-45900D01*
G54D22*
X61750Y-47484D02*
X61750Y-48750D01*
X61750Y-48750D02*
X61500Y-49000D01*
X55000Y-51800D02*
X55300Y-51500D01*
X55300Y-51500D02*
X55800Y-51500D01*
X58300Y-51150D02*
X59200Y-51150D01*
X59200Y-51150D02*
X59750Y-50600D01*
X59750Y-50600D02*
X60250Y-50600D01*
X60250Y-50600D02*
X60850Y-50000D01*
X60850Y-50000D02*
X60850Y-49650D01*
X60850Y-49650D02*
X61500Y-49000D01*
X54950Y-51800D02*
X55000Y-51800D01*
X57950Y-51500D02*
X58300Y-51150D01*
X55800Y-51500D02*
X57950Y-51500D01*
X56210Y-51800D02*
X56310Y-51700D01*
X55500Y-51800D02*
X56000Y-51800D01*
X56000Y-51800D02*
X56210Y-51800D01*
X56700Y-51700D02*
X56310Y-51700D01*
X64000Y-51500D02*
X64500Y-52000D01*
X61000Y-51500D02*
X64000Y-51500D01*
X60700Y-51800D02*
X61000Y-51500D01*
X59300Y-51800D02*
X60700Y-51800D01*
X58750Y-51350D02*
X58850Y-51350D01*
X58850Y-51350D02*
X59300Y-51800D01*
X58400Y-51350D02*
X58150Y-51600D01*
X58750Y-51350D02*
X58400Y-51350D01*
X58050Y-51700D02*
X58150Y-51600D01*
X56700Y-51700D02*
X58050Y-51700D01*
X59650Y-51250D02*
X60600Y-51250D01*
X59450Y-51450D02*
X59650Y-51250D01*
G54D21*
X65400Y-43400D02*
X66500Y-43400D01*
X67050Y-44400D02*
X67650Y-45000D01*
X67650Y-45000D02*
X69650Y-45000D01*
X69650Y-45000D02*
X69800Y-44850D01*
X67050Y-43900D02*
X67050Y-44400D01*
X67150Y-43800D02*
X67050Y-43900D01*
X67150Y-43550D02*
X67150Y-43800D01*
X66900Y-43300D02*
X67150Y-43550D01*
X66600Y-43300D02*
X66900Y-43300D01*
X66500Y-43400D02*
X66600Y-43300D01*
X62000Y-38800D02*
X62150Y-38800D01*
X62150Y-38800D02*
X62700Y-39350D01*
X63600Y-43400D02*
X65400Y-43400D01*
X62250Y-42050D02*
X63600Y-43400D01*
X62250Y-41550D02*
X62250Y-42050D01*
X62700Y-41100D02*
X62250Y-41550D01*
X62700Y-39350D02*
X62700Y-41100D01*
G54D22*
X75550Y-54500D02*
X75550Y-54250D01*
X77650Y-44213D02*
X79590Y-42272D01*
X77650Y-45900D02*
X77650Y-44213D01*
X76500Y-47050D02*
X77650Y-45900D01*
X76500Y-48500D02*
X76500Y-47050D01*
X75650Y-49350D02*
X76500Y-48500D01*
X74800Y-49350D02*
X75650Y-49350D01*
X74300Y-49850D02*
X74800Y-49350D01*
X73900Y-49850D02*
X74300Y-49850D01*
X72700Y-51050D02*
X73900Y-49850D01*
X72700Y-51500D02*
X72700Y-51050D01*
X72400Y-51800D02*
X72700Y-51500D01*
X72400Y-53250D02*
X72400Y-51800D01*
X72650Y-53500D02*
X72400Y-53250D01*
X73100Y-53500D02*
X72650Y-53500D01*
X73450Y-53150D02*
X73100Y-53500D01*
X75200Y-53150D02*
X73450Y-53150D01*
X75350Y-53300D02*
X75200Y-53150D01*
X75350Y-54050D02*
X75350Y-53300D01*
X75550Y-54250D02*
X75350Y-54050D01*
X61350Y-50850D02*
X61500Y-51000D01*
X59950Y-50850D02*
X61350Y-50850D01*
X59850Y-50950D02*
X59950Y-50850D01*
X54700Y-53650D02*
X55250Y-54200D01*
X55250Y-54200D02*
X56250Y-54200D01*
X56250Y-54200D02*
X58050Y-52400D01*
X58050Y-52400D02*
X58050Y-52100D01*
X53900Y-53650D02*
X54700Y-53650D01*
G54D21*
X69800Y-44500D02*
X69950Y-44500D01*
X70550Y-43850D02*
X70500Y-43800D01*
X70550Y-44400D02*
X70550Y-43850D01*
X70300Y-44650D02*
X70550Y-44400D01*
X70100Y-44650D02*
X70300Y-44650D01*
X69950Y-44500D02*
X70100Y-44650D01*
X66000Y-43150D02*
X66450Y-43150D01*
X64350Y-43150D02*
X66000Y-43150D01*
X67750Y-44750D02*
X67300Y-44300D01*
X69450Y-44750D02*
X67750Y-44750D01*
X69700Y-44500D02*
X69450Y-44750D01*
X69800Y-44500D02*
X69700Y-44500D01*
X67300Y-44050D02*
X67300Y-44300D01*
X67400Y-43950D02*
X67300Y-44050D01*
X67400Y-43500D02*
X67400Y-43950D01*
X66950Y-43050D02*
X67400Y-43500D01*
X66550Y-43050D02*
X66950Y-43050D01*
X66450Y-43150D02*
X66550Y-43050D01*
X64350Y-43150D02*
X64000Y-42800D01*
X66250Y-40150D02*
X66250Y-38550D01*
X67000Y-38150D02*
X67000Y-37550D01*
X66750Y-38400D02*
X67000Y-38150D01*
X66400Y-38400D02*
X66750Y-38400D01*
X66250Y-38550D02*
X66400Y-38400D01*
X67000Y-37550D02*
X66750Y-37550D01*
G54D22*
X81400Y-51600D02*
X81400Y-51300D01*
X82750Y-52150D02*
X83500Y-52900D01*
X82750Y-51400D02*
X82750Y-52150D01*
X82400Y-51050D02*
X82750Y-51400D01*
X81650Y-51050D02*
X82400Y-51050D01*
X81400Y-51300D02*
X81650Y-51050D01*
X83500Y-52900D02*
X83500Y-54250D01*
G54D21*
X67000Y-40500D02*
X68900Y-40500D01*
X68900Y-40500D02*
X68950Y-40550D01*
X68950Y-40550D02*
X69000Y-40600D01*
X69000Y-40600D02*
X69500Y-41100D01*
X71700Y-43300D02*
X69500Y-41100D01*
X71700Y-44100D02*
X71700Y-43300D01*
X67500Y-42400D02*
X67400Y-42300D01*
X67400Y-42300D02*
X66050Y-42300D01*
X66050Y-42300D02*
X65950Y-42200D01*
X65950Y-42200D02*
X65650Y-42200D01*
X64300Y-44550D02*
X64200Y-44650D01*
X64200Y-44650D02*
X64200Y-46086D01*
X64200Y-46086D02*
X63900Y-46386D01*
G54D22*
X87500Y-54250D02*
X86550Y-53300D01*
X86550Y-53300D02*
X86050Y-53300D01*
X83750Y-51450D02*
X83150Y-50850D01*
X83750Y-52200D02*
X83750Y-51450D01*
X84100Y-52550D02*
X83750Y-52200D01*
X84100Y-52850D02*
X84100Y-52550D01*
X84450Y-53200D02*
X84100Y-52850D01*
X85950Y-53200D02*
X84450Y-53200D01*
X86050Y-53300D02*
X85950Y-53200D01*
X83150Y-50850D02*
X82800Y-50850D01*
X82800Y-50850D02*
X83150Y-50850D01*
X82450Y-50500D02*
X82800Y-50850D01*
G54D21*
X61000Y-39800D02*
X61100Y-39800D01*
X61100Y-39800D02*
X61500Y-40200D01*
X61500Y-41700D02*
X61700Y-41900D01*
X61500Y-40200D02*
X61500Y-41700D01*
X65100Y-43650D02*
X66800Y-43650D01*
X61000Y-39800D02*
X60850Y-39800D01*
X61700Y-41900D02*
X63450Y-43650D01*
X63450Y-43650D02*
X65100Y-43650D01*
G54D22*
X83400Y-51550D02*
X83400Y-52150D01*
X85650Y-53400D02*
X86500Y-54250D01*
X84250Y-53400D02*
X85650Y-53400D01*
X83900Y-53050D02*
X84250Y-53400D01*
X83900Y-52650D02*
X83900Y-53050D01*
X83400Y-52150D02*
X83900Y-52650D01*
X86500Y-54150D02*
X86500Y-54250D01*
X85500Y-54250D02*
X84850Y-53600D01*
X83000Y-52100D02*
X83000Y-51200D01*
X83700Y-52800D02*
X83000Y-52100D01*
X83700Y-53250D02*
X83700Y-52800D01*
X84050Y-53600D02*
X83700Y-53250D01*
X84850Y-53600D02*
X84050Y-53600D01*
X82000Y-52700D02*
X81250Y-52700D01*
X82300Y-52400D02*
X82000Y-52700D01*
X82300Y-51650D02*
X82300Y-52400D01*
X82350Y-51600D02*
X82300Y-51650D01*
G54D21*
X71100Y-43850D02*
X71100Y-44450D01*
X71100Y-44450D02*
X70350Y-45200D01*
X70350Y-45200D02*
X70300Y-45200D01*
X69850Y-45650D02*
X69700Y-45650D01*
X70300Y-45200D02*
X69850Y-45650D01*
X64000Y-39800D02*
X64000Y-39900D01*
X64000Y-39900D02*
X64650Y-40550D01*
X66050Y-41100D02*
X66150Y-41200D01*
X64900Y-41100D02*
X66050Y-41100D01*
X64650Y-40850D02*
X64900Y-41100D01*
X64650Y-40550D02*
X64650Y-40850D01*
X66800Y-41200D02*
X68900Y-41200D01*
X68900Y-41200D02*
X69100Y-41400D01*
X66800Y-41200D02*
X66150Y-41200D01*
X69100Y-41400D02*
X69300Y-41600D01*
X64000Y-39800D02*
X64100Y-39800D01*
X69300Y-41600D02*
X71100Y-43400D01*
X71100Y-43400D02*
X71100Y-43850D01*
G54D22*
X74550Y-48800D02*
X74900Y-48800D01*
X74900Y-48800D02*
X74950Y-48750D01*
G54D21*
X71350Y-44050D02*
X71350Y-44500D01*
X71350Y-44500D02*
X70050Y-45800D01*
X70050Y-45800D02*
X70050Y-45950D01*
X70050Y-45800D02*
X70050Y-45950D01*
X64650Y-39750D02*
X64650Y-40200D01*
X65300Y-40850D02*
X66150Y-40850D01*
X64650Y-40200D02*
X65300Y-40850D01*
X66750Y-40950D02*
X69000Y-40950D01*
X69000Y-40950D02*
X69200Y-41150D01*
X66250Y-40950D02*
X66150Y-40850D01*
X66750Y-40950D02*
X66250Y-40950D01*
X69200Y-41150D02*
X69400Y-41350D01*
X69400Y-41350D02*
X71350Y-43300D01*
X71350Y-43300D02*
X71350Y-44050D01*
X64000Y-38800D02*
X64650Y-39450D01*
X64650Y-39450D02*
X64650Y-39750D01*
G54D22*
X80850Y-49850D02*
X80850Y-52050D01*
X82100Y-48600D02*
X80850Y-49850D01*
X80850Y-52050D02*
X81200Y-52400D01*
X81200Y-52400D02*
X81550Y-52400D01*
G54D21*
X68300Y-43300D02*
X68300Y-43850D01*
X67850Y-42850D02*
X68300Y-43300D01*
X67850Y-42200D02*
X67850Y-42850D01*
X67600Y-41950D02*
X67850Y-42200D01*
X65900Y-41950D02*
X67600Y-41950D01*
X65800Y-41850D02*
X65900Y-41950D01*
X65350Y-41850D02*
X65800Y-41850D01*
X65150Y-42050D02*
X65350Y-41850D01*
G54D22*
X54750Y-37750D02*
X54750Y-37500D01*
X55000Y-38000D02*
X54750Y-37750D01*
X55500Y-37500D02*
X55500Y-38000D01*
X53750Y-46000D02*
X55250Y-46000D01*
X56750Y-46000D02*
X56750Y-47500D01*
X55250Y-47500D02*
X53750Y-47500D01*
X53750Y-49000D02*
X55250Y-49000D01*
X56750Y-49000D02*
X56750Y-50500D01*
X55250Y-50500D02*
X53750Y-50500D01*
X53500Y-44500D02*
X53500Y-44000D01*
X53500Y-43500D02*
X53500Y-43000D01*
X53500Y-42500D02*
X53500Y-42000D01*
X53500Y-40500D02*
X53500Y-40000D01*
X53500Y-39500D02*
X53500Y-39000D01*
X53500Y-38500D02*
X53000Y-38000D01*
X52500Y-38000D02*
X52000Y-38500D01*
X51500Y-38500D02*
X51500Y-39000D01*
X51500Y-39500D02*
X51500Y-40000D01*
X51000Y-40000D02*
X50500Y-40000D01*
X50000Y-40000D02*
X49500Y-40000D01*
X49000Y-40000D02*
X48500Y-40000D01*
X48000Y-40000D02*
X47500Y-40000D01*
X55000Y-39000D02*
X55500Y-39000D01*
X56000Y-39000D02*
X56500Y-39000D01*
X57000Y-38500D02*
X57500Y-38000D01*
X54500Y-39500D02*
X54500Y-39000D01*
X54500Y-40500D02*
X54500Y-40000D01*
X54500Y-41500D02*
X54500Y-41000D01*
X54500Y-42500D02*
X54500Y-42000D01*
X54500Y-43500D02*
X54500Y-43000D01*
X54500Y-44500D02*
X54500Y-44000D01*
G54D21*
X71700Y-44450D02*
X71000Y-45150D01*
X70400Y-45750D02*
X70400Y-45900D01*
X71000Y-45150D02*
X70400Y-45750D01*
X70050Y-46300D02*
X70150Y-46300D01*
X70400Y-46050D02*
X70400Y-45900D01*
X70150Y-46300D02*
X70400Y-46050D01*
X72050Y-43775D02*
X72050Y-44200D01*
X72050Y-44200D02*
X71800Y-44450D01*
X71800Y-44450D02*
X71700Y-44450D01*
X69900Y-46300D02*
X70050Y-46300D01*
X69550Y-45950D02*
X69900Y-46300D01*
X69050Y-45950D02*
X69550Y-45950D01*
X68400Y-45300D02*
X69050Y-45950D01*
X67600Y-45300D02*
X68400Y-45300D01*
X67200Y-45700D02*
X67600Y-45300D01*
X69650Y-45300D02*
X69800Y-45300D01*
X70800Y-44000D02*
X70850Y-43950D01*
X70800Y-44450D02*
X70800Y-44000D01*
X70350Y-44900D02*
X70800Y-44450D01*
X70200Y-44900D02*
X70350Y-44900D01*
X69800Y-45300D02*
X70200Y-44900D01*
X69200Y-45600D02*
X69500Y-45300D01*
X69500Y-45300D02*
X69650Y-45300D01*
X64000Y-40800D02*
X64000Y-40850D01*
X64000Y-40850D02*
X64500Y-41350D01*
X64500Y-41350D02*
X65950Y-41350D01*
X65950Y-41350D02*
X66000Y-41400D01*
X66900Y-41450D02*
X68750Y-41450D01*
X68750Y-41450D02*
X68900Y-41600D01*
X68900Y-41600D02*
X69150Y-41850D01*
X66900Y-41450D02*
X66050Y-41450D01*
X66050Y-41450D02*
X66000Y-41400D01*
X69150Y-41850D02*
X70850Y-43550D01*
X70850Y-43550D02*
X70850Y-43950D01*
X66000Y-41400D02*
X65950Y-41350D01*
X68550Y-44250D02*
X68100Y-44250D01*
X69300Y-43500D02*
X68550Y-44250D01*
X63250Y-38200D02*
X63400Y-38200D01*
X63000Y-38450D02*
X63250Y-38200D01*
X63400Y-38200D02*
X64200Y-38200D01*
X64200Y-38200D02*
X64550Y-38550D01*
X64550Y-38550D02*
X64550Y-39000D01*
X64550Y-39000D02*
X65000Y-39450D01*
X65000Y-39450D02*
X65000Y-39850D01*
X65250Y-42450D02*
X65350Y-42550D01*
X65350Y-42550D02*
X67150Y-42550D01*
X67150Y-42550D02*
X67900Y-43300D01*
X67900Y-43300D02*
X67900Y-44050D01*
X67900Y-44050D02*
X68100Y-44250D01*
X70200Y-44300D02*
X70150Y-44250D01*
X70150Y-44250D02*
X69600Y-44250D01*
X69600Y-44250D02*
X69350Y-44500D01*
X69350Y-44500D02*
X67950Y-44500D01*
X67950Y-44500D02*
X67650Y-44200D01*
X67650Y-44200D02*
X67650Y-43400D01*
X67650Y-43400D02*
X67050Y-42800D01*
X67050Y-42800D02*
X64900Y-42800D01*
X64900Y-42800D02*
X64850Y-42750D01*
G54D22*
X72350Y-51150D02*
X72350Y-50900D01*
X72350Y-50900D02*
X73600Y-49650D01*
G54D21*
X64000Y-41800D02*
X64850Y-41800D01*
X65050Y-41600D02*
X65850Y-41600D01*
X64850Y-41800D02*
X65050Y-41600D01*
X67000Y-41700D02*
X68550Y-41700D01*
X69600Y-42750D02*
X70200Y-43350D01*
X65950Y-41700D02*
X65850Y-41600D01*
X67000Y-41700D02*
X65950Y-41700D01*
X68750Y-41900D02*
X69600Y-42750D01*
X68550Y-41700D02*
X68750Y-41900D01*
G54D22*
X83000Y-53400D02*
X83100Y-53500D01*
X80850Y-53400D02*
X83000Y-53400D01*
X80100Y-54150D02*
X80850Y-53400D01*
X52250Y-49000D02*
X52250Y-48000D01*
X57661Y-54396D02*
X57661Y-54088D01*
X57661Y-54088D02*
X58000Y-53750D01*
X65250Y-51500D02*
X64750Y-51000D01*
X65250Y-53750D02*
X65250Y-51500D01*
X58000Y-53750D02*
X65250Y-53750D01*
X64750Y-51000D02*
X64500Y-51000D01*
X49050Y-53750D02*
X50350Y-53750D01*
X48661Y-54138D02*
X49050Y-53750D01*
X48661Y-54396D02*
X48661Y-54138D01*
X50996Y-54396D02*
X50350Y-53750D01*
X53161Y-54396D02*
X50996Y-54396D01*
G54D23*
X80946Y-48153D02*
X78700Y-50400D01*
X80946Y-45774D02*
X80946Y-48153D01*
G54D10*
G36*
X88523Y-54725D02*
X87879Y-54725D01*
X88012Y-54592D01*
X88104Y-54370D01*
X88104Y-54130D01*
X88012Y-53908D01*
X87842Y-53737D01*
X87620Y-53645D01*
X87380Y-53645D01*
X87327Y-53667D01*
X86755Y-53094D01*
X86660Y-53032D01*
X86550Y-53010D01*
X86170Y-53010D01*
X86155Y-52994D01*
X86060Y-52932D01*
X85950Y-52910D01*
X84570Y-52910D01*
X84390Y-52729D01*
X84390Y-52550D01*
X84367Y-52439D01*
X84367Y-52439D01*
X84305Y-52344D01*
X84040Y-52079D01*
X84040Y-51450D01*
X84017Y-51339D01*
X83955Y-51244D01*
X83355Y-50644D01*
X83260Y-50582D01*
X83150Y-50560D01*
X82920Y-50560D01*
X82850Y-50489D01*
X82850Y-50420D01*
X82789Y-50273D01*
X82676Y-50161D01*
X82529Y-50100D01*
X82370Y-50099D01*
X82223Y-50160D01*
X82111Y-50273D01*
X82050Y-50420D01*
X82049Y-50579D01*
X82110Y-50726D01*
X82144Y-50760D01*
X81650Y-50760D01*
X81539Y-50782D01*
X81444Y-50844D01*
X81194Y-51094D01*
X81140Y-51177D01*
X81140Y-49970D01*
X82110Y-49000D01*
X82179Y-49000D01*
X82326Y-48939D01*
X82438Y-48826D01*
X82499Y-48679D01*
X82500Y-48520D01*
X82439Y-48373D01*
X82326Y-48261D01*
X82179Y-48200D01*
X82020Y-48199D01*
X81873Y-48260D01*
X81761Y-48373D01*
X81700Y-48520D01*
X81700Y-48589D01*
X81492Y-48797D01*
X81492Y-45666D01*
X81409Y-45465D01*
X81256Y-45312D01*
X81055Y-45228D01*
X81006Y-45228D01*
X81006Y-45114D01*
X80980Y-44939D01*
X80889Y-44787D01*
X80760Y-44688D01*
X80684Y-44697D01*
X80636Y-44877D01*
X80636Y-44684D01*
X80575Y-44638D01*
X80400Y-44664D01*
X80248Y-44755D01*
X80149Y-44884D01*
X80157Y-44960D01*
X80535Y-45061D01*
X80636Y-44684D01*
X80636Y-44877D01*
X80583Y-45074D01*
X80961Y-45175D01*
X81006Y-45114D01*
X81006Y-45228D01*
X80948Y-45228D01*
X80948Y-45223D01*
X80636Y-45140D01*
X80593Y-45097D01*
X80558Y-45133D01*
X80565Y-45140D01*
X80522Y-45302D01*
X80522Y-45109D01*
X80144Y-45008D01*
X80099Y-45069D01*
X80125Y-45244D01*
X80216Y-45396D01*
X80345Y-45496D01*
X80421Y-45487D01*
X80522Y-45109D01*
X80522Y-45302D01*
X80469Y-45500D01*
X80469Y-45500D01*
X80401Y-45665D01*
X80401Y-45882D01*
X80484Y-46082D01*
X80636Y-46235D01*
X80636Y-48024D01*
X78711Y-49950D01*
X78610Y-49949D01*
X78445Y-50018D01*
X78318Y-50144D01*
X78250Y-50310D01*
X78249Y-50489D01*
X78318Y-50654D01*
X78444Y-50781D01*
X78610Y-50849D01*
X78789Y-50850D01*
X78954Y-50781D01*
X79081Y-50655D01*
X79149Y-50489D01*
X79150Y-50388D01*
X81165Y-48372D01*
X81233Y-48271D01*
X81256Y-48153D01*
X81256Y-46235D01*
X81408Y-46083D01*
X81491Y-45882D01*
X81492Y-45666D01*
X81492Y-48797D01*
X80644Y-49644D01*
X80582Y-49739D01*
X80560Y-49850D01*
X80560Y-51774D01*
X80511Y-51823D01*
X80450Y-51970D01*
X80449Y-52129D01*
X80510Y-52276D01*
X80623Y-52388D01*
X80770Y-52449D01*
X80839Y-52449D01*
X80896Y-52507D01*
X80850Y-52620D01*
X80849Y-52779D01*
X80910Y-52926D01*
X81023Y-53038D01*
X81170Y-53099D01*
X81329Y-53100D01*
X81476Y-53039D01*
X81525Y-52990D01*
X82000Y-52990D01*
X82110Y-52967D01*
X82205Y-52905D01*
X82505Y-52605D01*
X82567Y-52510D01*
X82567Y-52510D01*
X82589Y-52400D01*
X83210Y-53020D01*
X83210Y-53112D01*
X83179Y-53100D01*
X83020Y-53099D01*
X82996Y-53110D01*
X80850Y-53110D01*
X80739Y-53132D01*
X80644Y-53194D01*
X80089Y-53749D01*
X80020Y-53749D01*
X79873Y-53810D01*
X79761Y-53923D01*
X79700Y-54070D01*
X79699Y-54229D01*
X79760Y-54376D01*
X79873Y-54488D01*
X80020Y-54549D01*
X80179Y-54550D01*
X80326Y-54489D01*
X80438Y-54376D01*
X80499Y-54229D01*
X80499Y-54160D01*
X80970Y-53690D01*
X82745Y-53690D01*
X82760Y-53726D01*
X82780Y-53745D01*
X82562Y-53745D01*
X82525Y-53783D01*
X82525Y-54225D01*
X82532Y-54225D01*
X82532Y-54275D01*
X82525Y-54275D01*
X82525Y-54282D01*
X82475Y-54282D01*
X82475Y-54275D01*
X82475Y-54225D01*
X82475Y-53783D01*
X82437Y-53745D01*
X82115Y-53745D01*
X82060Y-53768D01*
X82018Y-53810D01*
X81995Y-53865D01*
X81995Y-53925D01*
X81995Y-54187D01*
X82033Y-54225D01*
X82475Y-54225D01*
X82475Y-54275D01*
X82033Y-54275D01*
X81995Y-54312D01*
X81995Y-54574D01*
X81995Y-54634D01*
X82018Y-54689D01*
X82054Y-54725D01*
X77850Y-54725D01*
X75889Y-54725D01*
X75949Y-54579D01*
X75950Y-54420D01*
X75889Y-54273D01*
X75833Y-54217D01*
X75817Y-54139D01*
X75755Y-54044D01*
X75640Y-53929D01*
X75640Y-53300D01*
X75617Y-53189D01*
X75555Y-53094D01*
X75405Y-52944D01*
X75310Y-52882D01*
X75200Y-52860D01*
X73450Y-52860D01*
X73339Y-52882D01*
X73244Y-52944D01*
X72979Y-53210D01*
X72770Y-53210D01*
X72690Y-53129D01*
X72690Y-51920D01*
X72905Y-51705D01*
X72967Y-51610D01*
X72967Y-51610D01*
X72990Y-51500D01*
X72990Y-51170D01*
X74020Y-50140D01*
X74300Y-50140D01*
X74410Y-50117D01*
X74505Y-50055D01*
X74920Y-49640D01*
X75650Y-49640D01*
X75760Y-49617D01*
X75855Y-49555D01*
X76705Y-48705D01*
X76767Y-48610D01*
X76790Y-48500D01*
X76790Y-47170D01*
X77850Y-46110D01*
X77855Y-46105D01*
X77917Y-46010D01*
X77917Y-46010D01*
X77940Y-45900D01*
X77940Y-44333D01*
X79297Y-42976D01*
X79438Y-43034D01*
X79741Y-43034D01*
X80021Y-42919D01*
X80236Y-42704D01*
X80352Y-42425D01*
X80352Y-42121D01*
X80236Y-41841D01*
X80022Y-41627D01*
X79742Y-41511D01*
X79439Y-41510D01*
X79159Y-41626D01*
X79082Y-41703D01*
X79082Y-40272D01*
X79048Y-40011D01*
X78917Y-39783D01*
X78709Y-39622D01*
X78706Y-39621D01*
X78598Y-39618D01*
X78550Y-39798D01*
X78550Y-39605D01*
X78455Y-39553D01*
X78193Y-39587D01*
X77965Y-39718D01*
X77804Y-39927D01*
X77803Y-39930D01*
X77800Y-40038D01*
X78391Y-40196D01*
X78550Y-39605D01*
X78550Y-39798D01*
X78440Y-40209D01*
X79031Y-40367D01*
X79082Y-40272D01*
X79082Y-41703D01*
X79018Y-41767D01*
X79018Y-40416D01*
X78427Y-40257D01*
X78378Y-40437D01*
X78378Y-40244D01*
X77787Y-40086D01*
X77736Y-40181D01*
X77770Y-40442D01*
X77901Y-40670D01*
X78109Y-40831D01*
X78112Y-40832D01*
X78220Y-40835D01*
X78378Y-40244D01*
X78378Y-40437D01*
X78268Y-40848D01*
X78363Y-40900D01*
X78624Y-40866D01*
X78853Y-40735D01*
X79013Y-40526D01*
X79015Y-40524D01*
X79018Y-40416D01*
X79018Y-41767D01*
X78945Y-41840D01*
X78828Y-42120D01*
X78828Y-42423D01*
X78887Y-42565D01*
X78070Y-43382D01*
X78070Y-42220D01*
X78036Y-41959D01*
X77905Y-41731D01*
X77697Y-41570D01*
X77694Y-41569D01*
X77586Y-41566D01*
X77538Y-41746D01*
X77538Y-41553D01*
X77443Y-41501D01*
X77182Y-41535D01*
X76953Y-41666D01*
X76792Y-41875D01*
X76791Y-41878D01*
X76788Y-41986D01*
X77379Y-42144D01*
X77538Y-41553D01*
X77538Y-41746D01*
X77428Y-42157D01*
X78019Y-42315D01*
X78070Y-42220D01*
X78070Y-43382D01*
X78006Y-43447D01*
X78006Y-42364D01*
X77415Y-42205D01*
X77366Y-42386D01*
X77366Y-42192D01*
X76775Y-42034D01*
X76724Y-42129D01*
X76758Y-42390D01*
X76889Y-42618D01*
X77097Y-42779D01*
X77100Y-42781D01*
X77208Y-42783D01*
X77366Y-42192D01*
X77366Y-42386D01*
X77256Y-42796D01*
X77351Y-42848D01*
X77612Y-42814D01*
X77841Y-42683D01*
X78002Y-42474D01*
X78003Y-42472D01*
X78006Y-42364D01*
X78006Y-43447D01*
X77653Y-43800D01*
X75950Y-43800D01*
X75950Y-45432D01*
X73566Y-48361D01*
X72365Y-49062D01*
X71303Y-50529D01*
X70900Y-52444D01*
X70900Y-52585D01*
X70895Y-52595D01*
X70895Y-52695D01*
X70895Y-52701D01*
X70854Y-52681D01*
X70818Y-52716D01*
X70818Y-52645D01*
X70781Y-52569D01*
X70595Y-52494D01*
X70394Y-52496D01*
X70218Y-52569D01*
X70181Y-52645D01*
X70500Y-52964D01*
X70818Y-52645D01*
X70818Y-52716D01*
X70535Y-53000D01*
X70854Y-53318D01*
X70895Y-53298D01*
X70895Y-53404D01*
X70900Y-53414D01*
X70900Y-53835D01*
X70895Y-53845D01*
X70895Y-53945D01*
X70895Y-53951D01*
X70854Y-53931D01*
X70818Y-53966D01*
X70818Y-53895D01*
X70818Y-53354D01*
X70500Y-53035D01*
X70464Y-53070D01*
X70464Y-53000D01*
X70145Y-52681D01*
X70069Y-52718D01*
X69994Y-52904D01*
X69996Y-53105D01*
X70069Y-53281D01*
X70145Y-53318D01*
X70464Y-53000D01*
X70464Y-53070D01*
X70181Y-53354D01*
X70218Y-53430D01*
X70404Y-53505D01*
X70605Y-53503D01*
X70781Y-53430D01*
X70818Y-53354D01*
X70818Y-53895D01*
X70781Y-53819D01*
X70595Y-53744D01*
X70394Y-53746D01*
X70218Y-53819D01*
X70181Y-53895D01*
X70500Y-54214D01*
X70818Y-53895D01*
X70818Y-53966D01*
X70535Y-54250D01*
X70854Y-54568D01*
X70895Y-54548D01*
X70895Y-54654D01*
X70900Y-54664D01*
X70900Y-54725D01*
X70673Y-54725D01*
X70781Y-54680D01*
X70818Y-54604D01*
X70500Y-54285D01*
X70464Y-54320D01*
X70464Y-54250D01*
X70145Y-53931D01*
X70069Y-53968D01*
X69994Y-54154D01*
X69996Y-54355D01*
X70069Y-54531D01*
X70145Y-54568D01*
X70464Y-54250D01*
X70464Y-54320D01*
X70181Y-54604D01*
X70218Y-54680D01*
X70329Y-54725D01*
X68476Y-54725D01*
X78499Y-37350D01*
X88523Y-54725D01*
X88523Y-54725D01*
G37*
G54D21*
X88523Y-54725D02*
X87879Y-54725D01*
X88012Y-54592D01*
X88104Y-54370D01*
X88104Y-54130D01*
X88012Y-53908D01*
X87842Y-53737D01*
X87620Y-53645D01*
X87380Y-53645D01*
X87327Y-53667D01*
X86755Y-53094D01*
X86660Y-53032D01*
X86550Y-53010D01*
X86170Y-53010D01*
X86155Y-52994D01*
X86060Y-52932D01*
X85950Y-52910D01*
X84570Y-52910D01*
X84390Y-52729D01*
X84390Y-52550D01*
X84367Y-52439D01*
X84367Y-52439D01*
X84305Y-52344D01*
X84040Y-52079D01*
X84040Y-51450D01*
X84017Y-51339D01*
X83955Y-51244D01*
X83355Y-50644D01*
X83260Y-50582D01*
X83150Y-50560D01*
X82920Y-50560D01*
X82850Y-50489D01*
X82850Y-50420D01*
X82789Y-50273D01*
X82676Y-50161D01*
X82529Y-50100D01*
X82370Y-50099D01*
X82223Y-50160D01*
X82111Y-50273D01*
X82050Y-50420D01*
X82049Y-50579D01*
X82110Y-50726D01*
X82144Y-50760D01*
X81650Y-50760D01*
X81539Y-50782D01*
X81444Y-50844D01*
X81194Y-51094D01*
X81140Y-51177D01*
X81140Y-49970D01*
X82110Y-49000D01*
X82179Y-49000D01*
X82326Y-48939D01*
X82438Y-48826D01*
X82499Y-48679D01*
X82500Y-48520D01*
X82439Y-48373D01*
X82326Y-48261D01*
X82179Y-48200D01*
X82020Y-48199D01*
X81873Y-48260D01*
X81761Y-48373D01*
X81700Y-48520D01*
X81700Y-48589D01*
X81492Y-48797D01*
X81492Y-45666D01*
X81409Y-45465D01*
X81256Y-45312D01*
X81055Y-45228D01*
X81006Y-45228D01*
X81006Y-45114D01*
X80980Y-44939D01*
X80889Y-44787D01*
X80760Y-44688D01*
X80684Y-44697D01*
X80636Y-44877D01*
X80636Y-44684D01*
X80575Y-44638D01*
X80400Y-44664D01*
X80248Y-44755D01*
X80149Y-44884D01*
X80157Y-44960D01*
X80535Y-45061D01*
X80636Y-44684D01*
X80636Y-44877D01*
X80583Y-45074D01*
X80961Y-45175D01*
X81006Y-45114D01*
X81006Y-45228D01*
X80948Y-45228D01*
X80948Y-45223D01*
X80636Y-45140D01*
X80593Y-45097D01*
X80558Y-45133D01*
X80565Y-45140D01*
X80522Y-45302D01*
X80522Y-45109D01*
X80144Y-45008D01*
X80099Y-45069D01*
X80125Y-45244D01*
X80216Y-45396D01*
X80345Y-45496D01*
X80421Y-45487D01*
X80522Y-45109D01*
X80522Y-45302D01*
X80469Y-45500D01*
X80469Y-45500D01*
X80401Y-45665D01*
X80401Y-45882D01*
X80484Y-46082D01*
X80636Y-46235D01*
X80636Y-48024D01*
X78711Y-49950D01*
X78610Y-49949D01*
X78445Y-50018D01*
X78318Y-50144D01*
X78250Y-50310D01*
X78249Y-50489D01*
X78318Y-50654D01*
X78444Y-50781D01*
X78610Y-50849D01*
X78789Y-50850D01*
X78954Y-50781D01*
X79081Y-50655D01*
X79149Y-50489D01*
X79150Y-50388D01*
X81165Y-48372D01*
X81233Y-48271D01*
X81256Y-48153D01*
X81256Y-46235D01*
X81408Y-46083D01*
X81491Y-45882D01*
X81492Y-45666D01*
X81492Y-48797D01*
X80644Y-49644D01*
X80582Y-49739D01*
X80560Y-49850D01*
X80560Y-51774D01*
X80511Y-51823D01*
X80450Y-51970D01*
X80449Y-52129D01*
X80510Y-52276D01*
X80623Y-52388D01*
X80770Y-52449D01*
X80839Y-52449D01*
X80896Y-52507D01*
X80850Y-52620D01*
X80849Y-52779D01*
X80910Y-52926D01*
X81023Y-53038D01*
X81170Y-53099D01*
X81329Y-53100D01*
X81476Y-53039D01*
X81525Y-52990D01*
X82000Y-52990D01*
X82110Y-52967D01*
X82205Y-52905D01*
X82505Y-52605D01*
X82567Y-52510D01*
X82567Y-52510D01*
X82589Y-52400D01*
X83210Y-53020D01*
X83210Y-53112D01*
X83179Y-53100D01*
X83020Y-53099D01*
X82996Y-53110D01*
X80850Y-53110D01*
X80739Y-53132D01*
X80644Y-53194D01*
X80089Y-53749D01*
X80020Y-53749D01*
X79873Y-53810D01*
X79761Y-53923D01*
X79700Y-54070D01*
X79699Y-54229D01*
X79760Y-54376D01*
X79873Y-54488D01*
X80020Y-54549D01*
X80179Y-54550D01*
X80326Y-54489D01*
X80438Y-54376D01*
X80499Y-54229D01*
X80499Y-54160D01*
X80970Y-53690D01*
X82745Y-53690D01*
X82760Y-53726D01*
X82780Y-53745D01*
X82562Y-53745D01*
X82525Y-53783D01*
X82525Y-54225D01*
X82532Y-54225D01*
X82532Y-54275D01*
X82525Y-54275D01*
X82525Y-54282D01*
X82475Y-54282D01*
X82475Y-54275D01*
X82475Y-54225D01*
X82475Y-53783D01*
X82437Y-53745D01*
X82115Y-53745D01*
X82060Y-53768D01*
X82018Y-53810D01*
X81995Y-53865D01*
X81995Y-53925D01*
X81995Y-54187D01*
X82033Y-54225D01*
X82475Y-54225D01*
X82475Y-54275D01*
X82033Y-54275D01*
X81995Y-54312D01*
X81995Y-54574D01*
X81995Y-54634D01*
X82018Y-54689D01*
X82054Y-54725D01*
X77850Y-54725D01*
X75889Y-54725D01*
X75949Y-54579D01*
X75950Y-54420D01*
X75889Y-54273D01*
X75833Y-54217D01*
X75817Y-54139D01*
X75755Y-54044D01*
X75640Y-53929D01*
X75640Y-53300D01*
X75617Y-53189D01*
X75555Y-53094D01*
X75405Y-52944D01*
X75310Y-52882D01*
X75200Y-52860D01*
X73450Y-52860D01*
X73339Y-52882D01*
X73244Y-52944D01*
X72979Y-53210D01*
X72770Y-53210D01*
X72690Y-53129D01*
X72690Y-51920D01*
X72905Y-51705D01*
X72967Y-51610D01*
X72967Y-51610D01*
X72990Y-51500D01*
X72990Y-51170D01*
X74020Y-50140D01*
X74300Y-50140D01*
X74410Y-50117D01*
X74505Y-50055D01*
X74920Y-49640D01*
X75650Y-49640D01*
X75760Y-49617D01*
X75855Y-49555D01*
X76705Y-48705D01*
X76767Y-48610D01*
X76790Y-48500D01*
X76790Y-47170D01*
X77850Y-46110D01*
X77855Y-46105D01*
X77917Y-46010D01*
X77917Y-46010D01*
X77940Y-45900D01*
X77940Y-44333D01*
X79297Y-42976D01*
X79438Y-43034D01*
X79741Y-43034D01*
X80021Y-42919D01*
X80236Y-42704D01*
X80352Y-42425D01*
X80352Y-42121D01*
X80236Y-41841D01*
X80022Y-41627D01*
X79742Y-41511D01*
X79439Y-41510D01*
X79159Y-41626D01*
X79082Y-41703D01*
X79082Y-40272D01*
X79048Y-40011D01*
X78917Y-39783D01*
X78709Y-39622D01*
X78706Y-39621D01*
X78598Y-39618D01*
X78550Y-39798D01*
X78550Y-39605D01*
X78455Y-39553D01*
X78193Y-39587D01*
X77965Y-39718D01*
X77804Y-39927D01*
X77803Y-39930D01*
X77800Y-40038D01*
X78391Y-40196D01*
X78550Y-39605D01*
X78550Y-39798D01*
X78440Y-40209D01*
X79031Y-40367D01*
X79082Y-40272D01*
X79082Y-41703D01*
X79018Y-41767D01*
X79018Y-40416D01*
X78427Y-40257D01*
X78378Y-40437D01*
X78378Y-40244D01*
X77787Y-40086D01*
X77736Y-40181D01*
X77770Y-40442D01*
X77901Y-40670D01*
X78109Y-40831D01*
X78112Y-40832D01*
X78220Y-40835D01*
X78378Y-40244D01*
X78378Y-40437D01*
X78268Y-40848D01*
X78363Y-40900D01*
X78624Y-40866D01*
X78853Y-40735D01*
X79013Y-40526D01*
X79015Y-40524D01*
X79018Y-40416D01*
X79018Y-41767D01*
X78945Y-41840D01*
X78828Y-42120D01*
X78828Y-42423D01*
X78887Y-42565D01*
X78070Y-43382D01*
X78070Y-42220D01*
X78036Y-41959D01*
X77905Y-41731D01*
X77697Y-41570D01*
X77694Y-41569D01*
X77586Y-41566D01*
X77538Y-41746D01*
X77538Y-41553D01*
X77443Y-41501D01*
X77182Y-41535D01*
X76953Y-41666D01*
X76792Y-41875D01*
X76791Y-41878D01*
X76788Y-41986D01*
X77379Y-42144D01*
X77538Y-41553D01*
X77538Y-41746D01*
X77428Y-42157D01*
X78019Y-42315D01*
X78070Y-42220D01*
X78070Y-43382D01*
X78006Y-43447D01*
X78006Y-42364D01*
X77415Y-42205D01*
X77366Y-42386D01*
X77366Y-42192D01*
X76775Y-42034D01*
X76724Y-42129D01*
X76758Y-42390D01*
X76889Y-42618D01*
X77097Y-42779D01*
X77100Y-42781D01*
X77208Y-42783D01*
X77366Y-42192D01*
X77366Y-42386D01*
X77256Y-42796D01*
X77351Y-42848D01*
X77612Y-42814D01*
X77841Y-42683D01*
X78002Y-42474D01*
X78003Y-42472D01*
X78006Y-42364D01*
X78006Y-43447D01*
X77653Y-43800D01*
X75950Y-43800D01*
X75950Y-45432D01*
X73566Y-48361D01*
X72365Y-49062D01*
X71303Y-50529D01*
X70900Y-52444D01*
X70900Y-52585D01*
X70895Y-52595D01*
X70895Y-52695D01*
X70895Y-52701D01*
X70854Y-52681D01*
X70818Y-52716D01*
X70818Y-52645D01*
X70781Y-52569D01*
X70595Y-52494D01*
X70394Y-52496D01*
X70218Y-52569D01*
X70181Y-52645D01*
X70500Y-52964D01*
X70818Y-52645D01*
X70818Y-52716D01*
X70535Y-53000D01*
X70854Y-53318D01*
X70895Y-53298D01*
X70895Y-53404D01*
X70900Y-53414D01*
X70900Y-53835D01*
X70895Y-53845D01*
X70895Y-53945D01*
X70895Y-53951D01*
X70854Y-53931D01*
X70818Y-53966D01*
X70818Y-53895D01*
X70818Y-53354D01*
X70500Y-53035D01*
X70464Y-53070D01*
X70464Y-53000D01*
X70145Y-52681D01*
X70069Y-52718D01*
X69994Y-52904D01*
X69996Y-53105D01*
X70069Y-53281D01*
X70145Y-53318D01*
X70464Y-53000D01*
X70464Y-53070D01*
X70181Y-53354D01*
X70218Y-53430D01*
X70404Y-53505D01*
X70605Y-53503D01*
X70781Y-53430D01*
X70818Y-53354D01*
X70818Y-53895D01*
X70781Y-53819D01*
X70595Y-53744D01*
X70394Y-53746D01*
X70218Y-53819D01*
X70181Y-53895D01*
X70500Y-54214D01*
X70818Y-53895D01*
X70818Y-53966D01*
X70535Y-54250D01*
X70854Y-54568D01*
X70895Y-54548D01*
X70895Y-54654D01*
X70900Y-54664D01*
X70900Y-54725D01*
X70673Y-54725D01*
X70781Y-54680D01*
X70818Y-54604D01*
X70500Y-54285D01*
X70464Y-54320D01*
X70464Y-54250D01*
X70145Y-53931D01*
X70069Y-53968D01*
X69994Y-54154D01*
X69996Y-54355D01*
X70069Y-54531D01*
X70145Y-54568D01*
X70464Y-54250D01*
X70464Y-54320D01*
X70181Y-54604D01*
X70218Y-54680D01*
X70329Y-54725D01*
X68476Y-54725D01*
X78499Y-37350D01*
X88523Y-54725D01*
G54D10*
G36*
X77300Y-45679D02*
X76102Y-46876D01*
X76000Y-47690D01*
X75757Y-48613D01*
X73981Y-49353D01*
X73797Y-49422D01*
X73770Y-49395D01*
X73659Y-49350D01*
X73540Y-49349D01*
X73430Y-49395D01*
X73345Y-49479D01*
X73300Y-49590D01*
X73300Y-49609D01*
X73174Y-49656D01*
X72507Y-50220D01*
X72351Y-50629D01*
X72215Y-50765D01*
X72174Y-50827D01*
X72160Y-50900D01*
X72160Y-50915D01*
X72095Y-50979D01*
X72050Y-51090D01*
X72049Y-51209D01*
X72094Y-51317D01*
X71800Y-52644D01*
X71800Y-53300D01*
X71200Y-53300D01*
X71200Y-52655D01*
X71646Y-50571D01*
X72583Y-49339D01*
X73931Y-48639D01*
X76500Y-45667D01*
X76451Y-44247D01*
X77300Y-44202D01*
X77300Y-45679D01*
X77300Y-45679D01*
G37*
G54D21*
X77300Y-45679D02*
X76102Y-46876D01*
X76000Y-47690D01*
X75757Y-48613D01*
X73981Y-49353D01*
X73797Y-49422D01*
X73770Y-49395D01*
X73659Y-49350D01*
X73540Y-49349D01*
X73430Y-49395D01*
X73345Y-49479D01*
X73300Y-49590D01*
X73300Y-49609D01*
X73174Y-49656D01*
X72507Y-50220D01*
X72351Y-50629D01*
X72215Y-50765D01*
X72174Y-50827D01*
X72160Y-50900D01*
X72160Y-50915D01*
X72095Y-50979D01*
X72050Y-51090D01*
X72049Y-51209D01*
X72094Y-51317D01*
X71800Y-52644D01*
X71800Y-53300D01*
X71200Y-53300D01*
X71200Y-52655D01*
X71646Y-50571D01*
X72583Y-49339D01*
X73931Y-48639D01*
X76500Y-45667D01*
X76451Y-44247D01*
X77300Y-44202D01*
X77300Y-45679D01*
G54D10*
G36*
X74900Y-54550D02*
X71250Y-54550D01*
X71250Y-53950D01*
X73369Y-53950D01*
X73819Y-53550D01*
X74900Y-53550D01*
X74900Y-54550D01*
X74900Y-54550D01*
G37*
G54D21*
X74900Y-54550D02*
X71250Y-54550D01*
X71250Y-53950D01*
X73369Y-53950D01*
X73819Y-53550D01*
X74900Y-53550D01*
X74900Y-54550D01*
G54D10*
G36*
X64960Y-53460D02*
X64658Y-53460D01*
X64769Y-53413D01*
X64804Y-53340D01*
X64500Y-53035D01*
X64195Y-53340D01*
X64230Y-53413D01*
X64344Y-53460D01*
X63866Y-53460D01*
X63995Y-53331D01*
X64053Y-53191D01*
X64086Y-53269D01*
X64159Y-53304D01*
X64464Y-53000D01*
X64159Y-52695D01*
X64086Y-52730D01*
X64054Y-52809D01*
X63995Y-52669D01*
X63831Y-52504D01*
X63820Y-52500D01*
X63830Y-52495D01*
X63995Y-52331D01*
X63999Y-52320D01*
X64004Y-52330D01*
X64168Y-52495D01*
X64308Y-52553D01*
X64230Y-52586D01*
X64195Y-52659D01*
X64500Y-52964D01*
X64804Y-52659D01*
X64769Y-52586D01*
X64690Y-52554D01*
X64830Y-52495D01*
X64960Y-52366D01*
X64960Y-52841D01*
X64913Y-52730D01*
X64840Y-52695D01*
X64535Y-53000D01*
X64840Y-53304D01*
X64913Y-53269D01*
X64960Y-53155D01*
X64960Y-53460D01*
X64960Y-53460D01*
G37*
G54D21*
X64960Y-53460D02*
X64658Y-53460D01*
X64769Y-53413D01*
X64804Y-53340D01*
X64500Y-53035D01*
X64195Y-53340D01*
X64230Y-53413D01*
X64344Y-53460D01*
X63866Y-53460D01*
X63995Y-53331D01*
X64053Y-53191D01*
X64086Y-53269D01*
X64159Y-53304D01*
X64464Y-53000D01*
X64159Y-52695D01*
X64086Y-52730D01*
X64054Y-52809D01*
X63995Y-52669D01*
X63831Y-52504D01*
X63820Y-52500D01*
X63830Y-52495D01*
X63995Y-52331D01*
X63999Y-52320D01*
X64004Y-52330D01*
X64168Y-52495D01*
X64308Y-52553D01*
X64230Y-52586D01*
X64195Y-52659D01*
X64500Y-52964D01*
X64804Y-52659D01*
X64769Y-52586D01*
X64690Y-52554D01*
X64830Y-52495D01*
X64960Y-52366D01*
X64960Y-52841D01*
X64913Y-52730D01*
X64840Y-52695D01*
X64535Y-53000D01*
X64840Y-53304D01*
X64913Y-53269D01*
X64960Y-53155D01*
X64960Y-53460D01*
G54D10*
G36*
X67523Y-54725D02*
X59642Y-54725D01*
X59721Y-54532D01*
X59722Y-54260D01*
X59630Y-54040D01*
X65250Y-54040D01*
X65360Y-54017D01*
X65455Y-53955D01*
X65517Y-53860D01*
X65540Y-53750D01*
X65540Y-51500D01*
X65517Y-51389D01*
X65455Y-51294D01*
X65084Y-50924D01*
X65084Y-50884D01*
X64995Y-50669D01*
X64831Y-50504D01*
X64616Y-50415D01*
X64384Y-50415D01*
X64169Y-50504D01*
X64076Y-50596D01*
X64046Y-50523D01*
X63976Y-50453D01*
X63884Y-50415D01*
X63784Y-50415D01*
X63115Y-50415D01*
X63023Y-50453D01*
X62953Y-50523D01*
X62923Y-50596D01*
X62831Y-50504D01*
X62820Y-50500D01*
X62830Y-50495D01*
X62995Y-50331D01*
X63084Y-50116D01*
X63084Y-49884D01*
X62995Y-49669D01*
X62831Y-49504D01*
X62820Y-49500D01*
X62830Y-49495D01*
X62995Y-49331D01*
X63084Y-49116D01*
X63084Y-48884D01*
X62995Y-48669D01*
X62831Y-48504D01*
X62616Y-48415D01*
X62384Y-48415D01*
X62169Y-48504D01*
X62096Y-48576D01*
X62066Y-48504D01*
X62040Y-48477D01*
X62040Y-48018D01*
X62091Y-47996D01*
X62262Y-47827D01*
X62354Y-47604D01*
X62354Y-47364D01*
X62262Y-47142D01*
X62092Y-46972D01*
X62068Y-46962D01*
X62068Y-45870D01*
X61750Y-45551D01*
X61714Y-45586D01*
X61714Y-45515D01*
X61395Y-45196D01*
X61319Y-45234D01*
X61244Y-45420D01*
X61246Y-45620D01*
X61319Y-45797D01*
X61395Y-45834D01*
X61714Y-45515D01*
X61714Y-45586D01*
X61431Y-45870D01*
X61468Y-45945D01*
X61654Y-46020D01*
X61855Y-46019D01*
X62031Y-45945D01*
X62068Y-45870D01*
X62068Y-46962D01*
X61870Y-46880D01*
X61630Y-46879D01*
X61408Y-46971D01*
X61237Y-47141D01*
X61145Y-47363D01*
X61145Y-47603D01*
X61237Y-47826D01*
X61407Y-47996D01*
X61460Y-48018D01*
X61460Y-48395D01*
X61095Y-48395D01*
X61004Y-48433D01*
X60933Y-48504D01*
X60895Y-48595D01*
X60895Y-48695D01*
X60895Y-49194D01*
X60644Y-49444D01*
X60582Y-49539D01*
X60560Y-49650D01*
X60560Y-49879D01*
X60527Y-49912D01*
X60426Y-49811D01*
X60390Y-49795D01*
X60390Y-47675D01*
X60438Y-47626D01*
X60499Y-47479D01*
X60500Y-47320D01*
X60439Y-47173D01*
X60326Y-47061D01*
X60179Y-47000D01*
X60020Y-46999D01*
X59873Y-47060D01*
X59761Y-47173D01*
X59742Y-47217D01*
X59616Y-47165D01*
X59384Y-47165D01*
X59169Y-47254D01*
X59004Y-47418D01*
X58915Y-47633D01*
X58915Y-47865D01*
X59004Y-48080D01*
X59168Y-48245D01*
X59383Y-48334D01*
X59615Y-48334D01*
X59810Y-48254D01*
X59810Y-50046D01*
X59800Y-50070D01*
X59799Y-50229D01*
X59833Y-50310D01*
X59750Y-50310D01*
X59639Y-50332D01*
X59544Y-50394D01*
X59079Y-50860D01*
X58300Y-50860D01*
X58244Y-50871D01*
X58244Y-41518D01*
X58243Y-41286D01*
X58156Y-41075D01*
X58072Y-41028D01*
X58036Y-41063D01*
X58036Y-40992D01*
X57989Y-40908D01*
X57775Y-40820D01*
X57543Y-40821D01*
X57332Y-40908D01*
X57285Y-40992D01*
X57661Y-41368D01*
X58036Y-40992D01*
X58036Y-41063D01*
X57696Y-41403D01*
X58072Y-41779D01*
X58156Y-41732D01*
X58244Y-41518D01*
X58244Y-50871D01*
X58189Y-50882D01*
X58094Y-50944D01*
X58036Y-51003D01*
X58036Y-41815D01*
X57661Y-41439D01*
X57625Y-41474D01*
X57625Y-41403D01*
X57249Y-41028D01*
X57165Y-41075D01*
X57077Y-41289D01*
X57078Y-41521D01*
X57165Y-41732D01*
X57249Y-41779D01*
X57625Y-41403D01*
X57625Y-41474D01*
X57285Y-41815D01*
X57332Y-41899D01*
X57546Y-41987D01*
X57778Y-41986D01*
X57989Y-41899D01*
X58036Y-41815D01*
X58036Y-51003D01*
X57829Y-51210D01*
X57478Y-51210D01*
X57478Y-43257D01*
X57359Y-42969D01*
X57139Y-42749D01*
X56852Y-42630D01*
X56541Y-42630D01*
X56268Y-42743D01*
X56166Y-42497D01*
X55946Y-42277D01*
X55659Y-42158D01*
X55348Y-42157D01*
X55061Y-42276D01*
X54841Y-42496D01*
X54722Y-42783D01*
X54721Y-43094D01*
X54840Y-43381D01*
X55060Y-43601D01*
X55347Y-43720D01*
X55658Y-43721D01*
X55931Y-43607D01*
X56033Y-43853D01*
X56253Y-44073D01*
X56540Y-44193D01*
X56851Y-44193D01*
X57138Y-44074D01*
X57358Y-43855D01*
X57477Y-43567D01*
X57478Y-43257D01*
X57478Y-51210D01*
X55800Y-51210D01*
X55300Y-51210D01*
X55189Y-51232D01*
X55094Y-51294D01*
X54989Y-51400D01*
X54870Y-51399D01*
X54723Y-51460D01*
X54611Y-51573D01*
X54550Y-51720D01*
X54549Y-51879D01*
X54610Y-52026D01*
X54723Y-52138D01*
X54870Y-52199D01*
X55029Y-52200D01*
X55176Y-52139D01*
X55224Y-52090D01*
X55252Y-52118D01*
X55061Y-52197D01*
X54841Y-52417D01*
X54722Y-52704D01*
X54721Y-53015D01*
X54840Y-53302D01*
X55060Y-53522D01*
X55347Y-53641D01*
X55658Y-53642D01*
X55945Y-53523D01*
X56165Y-53303D01*
X56268Y-53056D01*
X56540Y-53169D01*
X56851Y-53169D01*
X56883Y-53156D01*
X56129Y-53910D01*
X55370Y-53910D01*
X54905Y-53444D01*
X54810Y-53382D01*
X54700Y-53360D01*
X54175Y-53360D01*
X54126Y-53311D01*
X53979Y-53250D01*
X53820Y-53249D01*
X53744Y-53281D01*
X53744Y-41518D01*
X53743Y-41286D01*
X53656Y-41075D01*
X53572Y-41028D01*
X53536Y-41063D01*
X53536Y-40992D01*
X53489Y-40908D01*
X53275Y-40820D01*
X53043Y-40821D01*
X52832Y-40908D01*
X52785Y-40992D01*
X53161Y-41368D01*
X53536Y-40992D01*
X53536Y-41063D01*
X53196Y-41403D01*
X53572Y-41779D01*
X53656Y-41732D01*
X53744Y-41518D01*
X53744Y-53281D01*
X53673Y-53310D01*
X53561Y-53423D01*
X53536Y-53481D01*
X53536Y-41815D01*
X53161Y-41439D01*
X53125Y-41474D01*
X53125Y-41403D01*
X52749Y-41028D01*
X52665Y-41075D01*
X52577Y-41289D01*
X52578Y-41521D01*
X52665Y-41732D01*
X52749Y-41779D01*
X53125Y-41403D01*
X53125Y-41474D01*
X52785Y-41815D01*
X52832Y-41899D01*
X53046Y-41987D01*
X53278Y-41986D01*
X53489Y-41899D01*
X53536Y-41815D01*
X53536Y-53481D01*
X53500Y-53570D01*
X53499Y-53729D01*
X53533Y-53811D01*
X53297Y-53713D01*
X53025Y-53712D01*
X52978Y-53732D01*
X52978Y-52233D01*
X52978Y-43257D01*
X52859Y-42969D01*
X52639Y-42749D01*
X52352Y-42630D01*
X52041Y-42630D01*
X51768Y-42743D01*
X51666Y-42497D01*
X51446Y-42277D01*
X51159Y-42158D01*
X50848Y-42157D01*
X50561Y-42276D01*
X50341Y-42496D01*
X50222Y-42783D01*
X50221Y-43094D01*
X50340Y-43381D01*
X50560Y-43601D01*
X50847Y-43720D01*
X51158Y-43721D01*
X51431Y-43607D01*
X51533Y-43853D01*
X51753Y-44073D01*
X52040Y-44193D01*
X52351Y-44193D01*
X52638Y-44074D01*
X52858Y-43855D01*
X52977Y-43567D01*
X52978Y-43257D01*
X52978Y-52233D01*
X52859Y-51946D01*
X52650Y-51736D01*
X52650Y-48920D01*
X52589Y-48773D01*
X52540Y-48724D01*
X52540Y-48275D01*
X52588Y-48226D01*
X52649Y-48079D01*
X52650Y-47920D01*
X52589Y-47773D01*
X52476Y-47661D01*
X52329Y-47600D01*
X52170Y-47599D01*
X52023Y-47660D01*
X51911Y-47773D01*
X51850Y-47920D01*
X51849Y-48079D01*
X51910Y-48226D01*
X51960Y-48275D01*
X51960Y-48724D01*
X51911Y-48773D01*
X51850Y-48920D01*
X51849Y-49079D01*
X51910Y-49226D01*
X52023Y-49338D01*
X52170Y-49399D01*
X52329Y-49400D01*
X52476Y-49339D01*
X52588Y-49226D01*
X52649Y-49079D01*
X52650Y-48920D01*
X52650Y-51736D01*
X52639Y-51726D01*
X52352Y-51606D01*
X52041Y-51606D01*
X51834Y-51692D01*
X51834Y-49884D01*
X51745Y-49669D01*
X51581Y-49504D01*
X51570Y-49500D01*
X51580Y-49495D01*
X51745Y-49331D01*
X51834Y-49116D01*
X51834Y-48884D01*
X51834Y-46884D01*
X51745Y-46669D01*
X51581Y-46504D01*
X51570Y-46500D01*
X51580Y-46495D01*
X51745Y-46331D01*
X51834Y-46116D01*
X51834Y-45884D01*
X51745Y-45669D01*
X51581Y-45504D01*
X51366Y-45415D01*
X51134Y-45415D01*
X50919Y-45504D01*
X50754Y-45668D01*
X50665Y-45883D01*
X50665Y-46115D01*
X50754Y-46330D01*
X50918Y-46495D01*
X50929Y-46499D01*
X50919Y-46504D01*
X50754Y-46668D01*
X50665Y-46883D01*
X50665Y-47115D01*
X50754Y-47330D01*
X50918Y-47495D01*
X51133Y-47584D01*
X51365Y-47584D01*
X51580Y-47495D01*
X51745Y-47331D01*
X51834Y-47116D01*
X51834Y-46884D01*
X51834Y-48884D01*
X51745Y-48669D01*
X51581Y-48504D01*
X51366Y-48415D01*
X51134Y-48415D01*
X50919Y-48504D01*
X50754Y-48668D01*
X50665Y-48883D01*
X50665Y-49115D01*
X50754Y-49330D01*
X50918Y-49495D01*
X50929Y-49499D01*
X50919Y-49504D01*
X50754Y-49668D01*
X50665Y-49883D01*
X50665Y-50115D01*
X50754Y-50330D01*
X50918Y-50495D01*
X51133Y-50584D01*
X51365Y-50584D01*
X51580Y-50495D01*
X51745Y-50331D01*
X51834Y-50116D01*
X51834Y-49884D01*
X51834Y-51692D01*
X51754Y-51725D01*
X51534Y-51944D01*
X51431Y-52192D01*
X51159Y-52079D01*
X50848Y-52078D01*
X50561Y-52197D01*
X50341Y-52417D01*
X50222Y-52704D01*
X50221Y-53015D01*
X50340Y-53302D01*
X50560Y-53522D01*
X50847Y-53641D01*
X51158Y-53642D01*
X51445Y-53523D01*
X51665Y-53303D01*
X51768Y-53056D01*
X52040Y-53169D01*
X52351Y-53169D01*
X52638Y-53051D01*
X52858Y-52831D01*
X52977Y-52544D01*
X52978Y-52233D01*
X52978Y-53732D01*
X52774Y-53816D01*
X52582Y-54008D01*
X52541Y-54106D01*
X51116Y-54106D01*
X50555Y-53544D01*
X50460Y-53482D01*
X50350Y-53460D01*
X49244Y-53460D01*
X49244Y-41518D01*
X49243Y-41286D01*
X49156Y-41075D01*
X49072Y-41028D01*
X49036Y-41063D01*
X49036Y-40992D01*
X48989Y-40908D01*
X48775Y-40820D01*
X48543Y-40821D01*
X48332Y-40908D01*
X48285Y-40992D01*
X48661Y-41368D01*
X49036Y-40992D01*
X49036Y-41063D01*
X48696Y-41403D01*
X49072Y-41779D01*
X49156Y-41732D01*
X49244Y-41518D01*
X49244Y-53460D01*
X49050Y-53460D01*
X49036Y-53462D01*
X49036Y-41815D01*
X48661Y-41439D01*
X48625Y-41474D01*
X48625Y-41403D01*
X48249Y-41028D01*
X48165Y-41075D01*
X48077Y-41289D01*
X48078Y-41521D01*
X48165Y-41732D01*
X48249Y-41779D01*
X48625Y-41403D01*
X48625Y-41474D01*
X48285Y-41815D01*
X48332Y-41899D01*
X48546Y-41987D01*
X48778Y-41986D01*
X48989Y-41899D01*
X49036Y-41815D01*
X49036Y-53462D01*
X48939Y-53482D01*
X48844Y-53544D01*
X48676Y-53713D01*
X48525Y-53712D01*
X48274Y-53816D01*
X48082Y-54008D01*
X47978Y-54259D01*
X47977Y-54531D01*
X48057Y-54725D01*
X47275Y-54725D01*
X47275Y-53059D01*
X47540Y-53169D01*
X47851Y-53169D01*
X48138Y-53051D01*
X48358Y-52831D01*
X48477Y-52544D01*
X48478Y-52233D01*
X48359Y-51946D01*
X48139Y-51726D01*
X47852Y-51606D01*
X47541Y-51606D01*
X47275Y-51716D01*
X47275Y-44082D01*
X47540Y-44193D01*
X47851Y-44193D01*
X48138Y-44074D01*
X48358Y-43855D01*
X48477Y-43567D01*
X48478Y-43257D01*
X48359Y-42969D01*
X48139Y-42749D01*
X47852Y-42630D01*
X47541Y-42630D01*
X47275Y-42740D01*
X47275Y-39900D01*
X51500Y-39900D01*
X51500Y-37075D01*
X57341Y-37075D01*
X60309Y-42220D01*
X60159Y-42158D01*
X59848Y-42157D01*
X59561Y-42276D01*
X59341Y-42496D01*
X59222Y-42783D01*
X59221Y-43094D01*
X59340Y-43381D01*
X59560Y-43601D01*
X59847Y-43720D01*
X60158Y-43721D01*
X60445Y-43602D01*
X60665Y-43382D01*
X60784Y-43095D01*
X60784Y-43044D01*
X61941Y-45049D01*
X61845Y-45010D01*
X61644Y-45012D01*
X61468Y-45085D01*
X61431Y-45161D01*
X61750Y-45480D01*
X61755Y-45474D01*
X61790Y-45510D01*
X61785Y-45515D01*
X62104Y-45834D01*
X62180Y-45797D01*
X62255Y-45611D01*
X62255Y-45592D01*
X67523Y-54725D01*
X67523Y-54725D01*
G37*
G54D21*
X67523Y-54725D02*
X59642Y-54725D01*
X59721Y-54532D01*
X59722Y-54260D01*
X59630Y-54040D01*
X65250Y-54040D01*
X65360Y-54017D01*
X65455Y-53955D01*
X65517Y-53860D01*
X65540Y-53750D01*
X65540Y-51500D01*
X65517Y-51389D01*
X65455Y-51294D01*
X65084Y-50924D01*
X65084Y-50884D01*
X64995Y-50669D01*
X64831Y-50504D01*
X64616Y-50415D01*
X64384Y-50415D01*
X64169Y-50504D01*
X64076Y-50596D01*
X64046Y-50523D01*
X63976Y-50453D01*
X63884Y-50415D01*
X63784Y-50415D01*
X63115Y-50415D01*
X63023Y-50453D01*
X62953Y-50523D01*
X62923Y-50596D01*
X62831Y-50504D01*
X62820Y-50500D01*
X62830Y-50495D01*
X62995Y-50331D01*
X63084Y-50116D01*
X63084Y-49884D01*
X62995Y-49669D01*
X62831Y-49504D01*
X62820Y-49500D01*
X62830Y-49495D01*
X62995Y-49331D01*
X63084Y-49116D01*
X63084Y-48884D01*
X62995Y-48669D01*
X62831Y-48504D01*
X62616Y-48415D01*
X62384Y-48415D01*
X62169Y-48504D01*
X62096Y-48576D01*
X62066Y-48504D01*
X62040Y-48477D01*
X62040Y-48018D01*
X62091Y-47996D01*
X62262Y-47827D01*
X62354Y-47604D01*
X62354Y-47364D01*
X62262Y-47142D01*
X62092Y-46972D01*
X62068Y-46962D01*
X62068Y-45870D01*
X61750Y-45551D01*
X61714Y-45586D01*
X61714Y-45515D01*
X61395Y-45196D01*
X61319Y-45234D01*
X61244Y-45420D01*
X61246Y-45620D01*
X61319Y-45797D01*
X61395Y-45834D01*
X61714Y-45515D01*
X61714Y-45586D01*
X61431Y-45870D01*
X61468Y-45945D01*
X61654Y-46020D01*
X61855Y-46019D01*
X62031Y-45945D01*
X62068Y-45870D01*
X62068Y-46962D01*
X61870Y-46880D01*
X61630Y-46879D01*
X61408Y-46971D01*
X61237Y-47141D01*
X61145Y-47363D01*
X61145Y-47603D01*
X61237Y-47826D01*
X61407Y-47996D01*
X61460Y-48018D01*
X61460Y-48395D01*
X61095Y-48395D01*
X61004Y-48433D01*
X60933Y-48504D01*
X60895Y-48595D01*
X60895Y-48695D01*
X60895Y-49194D01*
X60644Y-49444D01*
X60582Y-49539D01*
X60560Y-49650D01*
X60560Y-49879D01*
X60527Y-49912D01*
X60426Y-49811D01*
X60390Y-49795D01*
X60390Y-47675D01*
X60438Y-47626D01*
X60499Y-47479D01*
X60500Y-47320D01*
X60439Y-47173D01*
X60326Y-47061D01*
X60179Y-47000D01*
X60020Y-46999D01*
X59873Y-47060D01*
X59761Y-47173D01*
X59742Y-47217D01*
X59616Y-47165D01*
X59384Y-47165D01*
X59169Y-47254D01*
X59004Y-47418D01*
X58915Y-47633D01*
X58915Y-47865D01*
X59004Y-48080D01*
X59168Y-48245D01*
X59383Y-48334D01*
X59615Y-48334D01*
X59810Y-48254D01*
X59810Y-50046D01*
X59800Y-50070D01*
X59799Y-50229D01*
X59833Y-50310D01*
X59750Y-50310D01*
X59639Y-50332D01*
X59544Y-50394D01*
X59079Y-50860D01*
X58300Y-50860D01*
X58244Y-50871D01*
X58244Y-41518D01*
X58243Y-41286D01*
X58156Y-41075D01*
X58072Y-41028D01*
X58036Y-41063D01*
X58036Y-40992D01*
X57989Y-40908D01*
X57775Y-40820D01*
X57543Y-40821D01*
X57332Y-40908D01*
X57285Y-40992D01*
X57661Y-41368D01*
X58036Y-40992D01*
X58036Y-41063D01*
X57696Y-41403D01*
X58072Y-41779D01*
X58156Y-41732D01*
X58244Y-41518D01*
X58244Y-50871D01*
X58189Y-50882D01*
X58094Y-50944D01*
X58036Y-51003D01*
X58036Y-41815D01*
X57661Y-41439D01*
X57625Y-41474D01*
X57625Y-41403D01*
X57249Y-41028D01*
X57165Y-41075D01*
X57077Y-41289D01*
X57078Y-41521D01*
X57165Y-41732D01*
X57249Y-41779D01*
X57625Y-41403D01*
X57625Y-41474D01*
X57285Y-41815D01*
X57332Y-41899D01*
X57546Y-41987D01*
X57778Y-41986D01*
X57989Y-41899D01*
X58036Y-41815D01*
X58036Y-51003D01*
X57829Y-51210D01*
X57478Y-51210D01*
X57478Y-43257D01*
X57359Y-42969D01*
X57139Y-42749D01*
X56852Y-42630D01*
X56541Y-42630D01*
X56268Y-42743D01*
X56166Y-42497D01*
X55946Y-42277D01*
X55659Y-42158D01*
X55348Y-42157D01*
X55061Y-42276D01*
X54841Y-42496D01*
X54722Y-42783D01*
X54721Y-43094D01*
X54840Y-43381D01*
X55060Y-43601D01*
X55347Y-43720D01*
X55658Y-43721D01*
X55931Y-43607D01*
X56033Y-43853D01*
X56253Y-44073D01*
X56540Y-44193D01*
X56851Y-44193D01*
X57138Y-44074D01*
X57358Y-43855D01*
X57477Y-43567D01*
X57478Y-43257D01*
X57478Y-51210D01*
X55800Y-51210D01*
X55300Y-51210D01*
X55189Y-51232D01*
X55094Y-51294D01*
X54989Y-51400D01*
X54870Y-51399D01*
X54723Y-51460D01*
X54611Y-51573D01*
X54550Y-51720D01*
X54549Y-51879D01*
X54610Y-52026D01*
X54723Y-52138D01*
X54870Y-52199D01*
X55029Y-52200D01*
X55176Y-52139D01*
X55224Y-52090D01*
X55252Y-52118D01*
X55061Y-52197D01*
X54841Y-52417D01*
X54722Y-52704D01*
X54721Y-53015D01*
X54840Y-53302D01*
X55060Y-53522D01*
X55347Y-53641D01*
X55658Y-53642D01*
X55945Y-53523D01*
X56165Y-53303D01*
X56268Y-53056D01*
X56540Y-53169D01*
X56851Y-53169D01*
X56883Y-53156D01*
X56129Y-53910D01*
X55370Y-53910D01*
X54905Y-53444D01*
X54810Y-53382D01*
X54700Y-53360D01*
X54175Y-53360D01*
X54126Y-53311D01*
X53979Y-53250D01*
X53820Y-53249D01*
X53744Y-53281D01*
X53744Y-41518D01*
X53743Y-41286D01*
X53656Y-41075D01*
X53572Y-41028D01*
X53536Y-41063D01*
X53536Y-40992D01*
X53489Y-40908D01*
X53275Y-40820D01*
X53043Y-40821D01*
X52832Y-40908D01*
X52785Y-40992D01*
X53161Y-41368D01*
X53536Y-40992D01*
X53536Y-41063D01*
X53196Y-41403D01*
X53572Y-41779D01*
X53656Y-41732D01*
X53744Y-41518D01*
X53744Y-53281D01*
X53673Y-53310D01*
X53561Y-53423D01*
X53536Y-53481D01*
X53536Y-41815D01*
X53161Y-41439D01*
X53125Y-41474D01*
X53125Y-41403D01*
X52749Y-41028D01*
X52665Y-41075D01*
X52577Y-41289D01*
X52578Y-41521D01*
X52665Y-41732D01*
X52749Y-41779D01*
X53125Y-41403D01*
X53125Y-41474D01*
X52785Y-41815D01*
X52832Y-41899D01*
X53046Y-41987D01*
X53278Y-41986D01*
X53489Y-41899D01*
X53536Y-41815D01*
X53536Y-53481D01*
X53500Y-53570D01*
X53499Y-53729D01*
X53533Y-53811D01*
X53297Y-53713D01*
X53025Y-53712D01*
X52978Y-53732D01*
X52978Y-52233D01*
X52978Y-43257D01*
X52859Y-42969D01*
X52639Y-42749D01*
X52352Y-42630D01*
X52041Y-42630D01*
X51768Y-42743D01*
X51666Y-42497D01*
X51446Y-42277D01*
X51159Y-42158D01*
X50848Y-42157D01*
X50561Y-42276D01*
X50341Y-42496D01*
X50222Y-42783D01*
X50221Y-43094D01*
X50340Y-43381D01*
X50560Y-43601D01*
X50847Y-43720D01*
X51158Y-43721D01*
X51431Y-43607D01*
X51533Y-43853D01*
X51753Y-44073D01*
X52040Y-44193D01*
X52351Y-44193D01*
X52638Y-44074D01*
X52858Y-43855D01*
X52977Y-43567D01*
X52978Y-43257D01*
X52978Y-52233D01*
X52859Y-51946D01*
X52650Y-51736D01*
X52650Y-48920D01*
X52589Y-48773D01*
X52540Y-48724D01*
X52540Y-48275D01*
X52588Y-48226D01*
X52649Y-48079D01*
X52650Y-47920D01*
X52589Y-47773D01*
X52476Y-47661D01*
X52329Y-47600D01*
X52170Y-47599D01*
X52023Y-47660D01*
X51911Y-47773D01*
X51850Y-47920D01*
X51849Y-48079D01*
X51910Y-48226D01*
X51960Y-48275D01*
X51960Y-48724D01*
X51911Y-48773D01*
X51850Y-48920D01*
X51849Y-49079D01*
X51910Y-49226D01*
X52023Y-49338D01*
X52170Y-49399D01*
X52329Y-49400D01*
X52476Y-49339D01*
X52588Y-49226D01*
X52649Y-49079D01*
X52650Y-48920D01*
X52650Y-51736D01*
X52639Y-51726D01*
X52352Y-51606D01*
X52041Y-51606D01*
X51834Y-51692D01*
X51834Y-49884D01*
X51745Y-49669D01*
X51581Y-49504D01*
X51570Y-49500D01*
X51580Y-49495D01*
X51745Y-49331D01*
X51834Y-49116D01*
X51834Y-48884D01*
X51834Y-46884D01*
X51745Y-46669D01*
X51581Y-46504D01*
X51570Y-46500D01*
X51580Y-46495D01*
X51745Y-46331D01*
X51834Y-46116D01*
X51834Y-45884D01*
X51745Y-45669D01*
X51581Y-45504D01*
X51366Y-45415D01*
X51134Y-45415D01*
X50919Y-45504D01*
X50754Y-45668D01*
X50665Y-45883D01*
X50665Y-46115D01*
X50754Y-46330D01*
X50918Y-46495D01*
X50929Y-46499D01*
X50919Y-46504D01*
X50754Y-46668D01*
X50665Y-46883D01*
X50665Y-47115D01*
X50754Y-47330D01*
X50918Y-47495D01*
X51133Y-47584D01*
X51365Y-47584D01*
X51580Y-47495D01*
X51745Y-47331D01*
X51834Y-47116D01*
X51834Y-46884D01*
X51834Y-48884D01*
X51745Y-48669D01*
X51581Y-48504D01*
X51366Y-48415D01*
X51134Y-48415D01*
X50919Y-48504D01*
X50754Y-48668D01*
X50665Y-48883D01*
X50665Y-49115D01*
X50754Y-49330D01*
X50918Y-49495D01*
X50929Y-49499D01*
X50919Y-49504D01*
X50754Y-49668D01*
X50665Y-49883D01*
X50665Y-50115D01*
X50754Y-50330D01*
X50918Y-50495D01*
X51133Y-50584D01*
X51365Y-50584D01*
X51580Y-50495D01*
X51745Y-50331D01*
X51834Y-50116D01*
X51834Y-49884D01*
X51834Y-51692D01*
X51754Y-51725D01*
X51534Y-51944D01*
X51431Y-52192D01*
X51159Y-52079D01*
X50848Y-52078D01*
X50561Y-52197D01*
X50341Y-52417D01*
X50222Y-52704D01*
X50221Y-53015D01*
X50340Y-53302D01*
X50560Y-53522D01*
X50847Y-53641D01*
X51158Y-53642D01*
X51445Y-53523D01*
X51665Y-53303D01*
X51768Y-53056D01*
X52040Y-53169D01*
X52351Y-53169D01*
X52638Y-53051D01*
X52858Y-52831D01*
X52977Y-52544D01*
X52978Y-52233D01*
X52978Y-53732D01*
X52774Y-53816D01*
X52582Y-54008D01*
X52541Y-54106D01*
X51116Y-54106D01*
X50555Y-53544D01*
X50460Y-53482D01*
X50350Y-53460D01*
X49244Y-53460D01*
X49244Y-41518D01*
X49243Y-41286D01*
X49156Y-41075D01*
X49072Y-41028D01*
X49036Y-41063D01*
X49036Y-40992D01*
X48989Y-40908D01*
X48775Y-40820D01*
X48543Y-40821D01*
X48332Y-40908D01*
X48285Y-40992D01*
X48661Y-41368D01*
X49036Y-40992D01*
X49036Y-41063D01*
X48696Y-41403D01*
X49072Y-41779D01*
X49156Y-41732D01*
X49244Y-41518D01*
X49244Y-53460D01*
X49050Y-53460D01*
X49036Y-53462D01*
X49036Y-41815D01*
X48661Y-41439D01*
X48625Y-41474D01*
X48625Y-41403D01*
X48249Y-41028D01*
X48165Y-41075D01*
X48077Y-41289D01*
X48078Y-41521D01*
X48165Y-41732D01*
X48249Y-41779D01*
X48625Y-41403D01*
X48625Y-41474D01*
X48285Y-41815D01*
X48332Y-41899D01*
X48546Y-41987D01*
X48778Y-41986D01*
X48989Y-41899D01*
X49036Y-41815D01*
X49036Y-53462D01*
X48939Y-53482D01*
X48844Y-53544D01*
X48676Y-53713D01*
X48525Y-53712D01*
X48274Y-53816D01*
X48082Y-54008D01*
X47978Y-54259D01*
X47977Y-54531D01*
X48057Y-54725D01*
X47275Y-54725D01*
X47275Y-53059D01*
X47540Y-53169D01*
X47851Y-53169D01*
X48138Y-53051D01*
X48358Y-52831D01*
X48477Y-52544D01*
X48478Y-52233D01*
X48359Y-51946D01*
X48139Y-51726D01*
X47852Y-51606D01*
X47541Y-51606D01*
X47275Y-51716D01*
X47275Y-44082D01*
X47540Y-44193D01*
X47851Y-44193D01*
X48138Y-44074D01*
X48358Y-43855D01*
X48477Y-43567D01*
X48478Y-43257D01*
X48359Y-42969D01*
X48139Y-42749D01*
X47852Y-42630D01*
X47541Y-42630D01*
X47275Y-42740D01*
X47275Y-39900D01*
X51500Y-39900D01*
X51500Y-37075D01*
X57341Y-37075D01*
X60309Y-42220D01*
X60159Y-42158D01*
X59848Y-42157D01*
X59561Y-42276D01*
X59341Y-42496D01*
X59222Y-42783D01*
X59221Y-43094D01*
X59340Y-43381D01*
X59560Y-43601D01*
X59847Y-43720D01*
X60158Y-43721D01*
X60445Y-43602D01*
X60665Y-43382D01*
X60784Y-43095D01*
X60784Y-43044D01*
X61941Y-45049D01*
X61845Y-45010D01*
X61644Y-45012D01*
X61468Y-45085D01*
X61431Y-45161D01*
X61750Y-45480D01*
X61755Y-45474D01*
X61790Y-45510D01*
X61785Y-45515D01*
X62104Y-45834D01*
X62180Y-45797D01*
X62255Y-45611D01*
X62255Y-45592D01*
X67523Y-54725D01*
G54D10*
G36*
X62350Y-43509D02*
X62997Y-43622D01*
X63237Y-43862D01*
X63335Y-43927D01*
X63450Y-43950D01*
X65100Y-43950D01*
X66534Y-43950D01*
X66573Y-43988D01*
X66720Y-44049D01*
X66750Y-44049D01*
X66750Y-44400D01*
X66772Y-44514D01*
X66837Y-44612D01*
X66837Y-44612D01*
X67350Y-45125D01*
X67175Y-45299D01*
X67120Y-45299D01*
X66973Y-45360D01*
X66861Y-45473D01*
X66800Y-45620D01*
X66799Y-45779D01*
X66860Y-45926D01*
X66973Y-46038D01*
X67120Y-46099D01*
X67279Y-46100D01*
X67426Y-46039D01*
X67538Y-45926D01*
X67599Y-45779D01*
X67599Y-45724D01*
X67724Y-45600D01*
X68011Y-45600D01*
X68168Y-45843D01*
X68653Y-45977D01*
X68837Y-46162D01*
X68935Y-46227D01*
X69050Y-46250D01*
X69425Y-46250D01*
X69687Y-46512D01*
X69785Y-46577D01*
X69900Y-46600D01*
X70050Y-46600D01*
X70150Y-46600D01*
X70264Y-46577D01*
X70303Y-46551D01*
X70362Y-46512D01*
X70408Y-46465D01*
X70926Y-46609D01*
X71319Y-45833D01*
X71426Y-45789D01*
X71538Y-45676D01*
X71599Y-45529D01*
X71600Y-45370D01*
X71579Y-45320D01*
X71875Y-44734D01*
X71914Y-44727D01*
X71953Y-44701D01*
X72012Y-44662D01*
X72262Y-44412D01*
X72327Y-44314D01*
X72350Y-44200D01*
X72350Y-44040D01*
X72388Y-44001D01*
X72449Y-43854D01*
X72450Y-43695D01*
X72428Y-43644D01*
X74720Y-39122D01*
X73590Y-38711D01*
X73286Y-37698D01*
X71526Y-37749D01*
X71520Y-37749D01*
X71520Y-37750D01*
X69839Y-37798D01*
X69712Y-37250D01*
X70350Y-37250D01*
X73619Y-37150D01*
X74268Y-38500D01*
X74650Y-38500D01*
X75300Y-38500D01*
X75300Y-39137D01*
X73091Y-43441D01*
X73087Y-43445D01*
X73080Y-43462D01*
X72705Y-44193D01*
X72587Y-44311D01*
X72495Y-44533D01*
X72495Y-44602D01*
X72296Y-44991D01*
X72258Y-45007D01*
X72087Y-45177D01*
X71995Y-45399D01*
X71995Y-45577D01*
X71866Y-45828D01*
X71758Y-45873D01*
X71587Y-46043D01*
X71495Y-46265D01*
X71495Y-46505D01*
X71506Y-46531D01*
X71385Y-46766D01*
X71981Y-47164D01*
X71676Y-47644D01*
X69104Y-47114D01*
X69104Y-46645D01*
X69066Y-46554D01*
X68995Y-46483D01*
X68904Y-46445D01*
X68804Y-46445D01*
X68095Y-46445D01*
X68004Y-46483D01*
X67933Y-46554D01*
X67911Y-46607D01*
X67842Y-46537D01*
X67620Y-46445D01*
X67380Y-46445D01*
X67158Y-46537D01*
X67011Y-46683D01*
X66640Y-46607D01*
X66039Y-44251D01*
X64524Y-44210D01*
X64379Y-44150D01*
X64220Y-44149D01*
X64102Y-44198D01*
X63277Y-44176D01*
X63242Y-44141D01*
X63020Y-44049D01*
X62780Y-44049D01*
X62558Y-44141D01*
X62542Y-44156D01*
X62350Y-44151D01*
X62350Y-43509D01*
X62350Y-43509D01*
G37*
G54D21*
X62350Y-43509D02*
X62997Y-43622D01*
X63237Y-43862D01*
X63335Y-43927D01*
X63450Y-43950D01*
X65100Y-43950D01*
X66534Y-43950D01*
X66573Y-43988D01*
X66720Y-44049D01*
X66750Y-44049D01*
X66750Y-44400D01*
X66772Y-44514D01*
X66837Y-44612D01*
X66837Y-44612D01*
X67350Y-45125D01*
X67175Y-45299D01*
X67120Y-45299D01*
X66973Y-45360D01*
X66861Y-45473D01*
X66800Y-45620D01*
X66799Y-45779D01*
X66860Y-45926D01*
X66973Y-46038D01*
X67120Y-46099D01*
X67279Y-46100D01*
X67426Y-46039D01*
X67538Y-45926D01*
X67599Y-45779D01*
X67599Y-45724D01*
X67724Y-45600D01*
X68011Y-45600D01*
X68168Y-45843D01*
X68653Y-45977D01*
X68837Y-46162D01*
X68935Y-46227D01*
X69050Y-46250D01*
X69425Y-46250D01*
X69687Y-46512D01*
X69785Y-46577D01*
X69900Y-46600D01*
X70050Y-46600D01*
X70150Y-46600D01*
X70264Y-46577D01*
X70303Y-46551D01*
X70362Y-46512D01*
X70408Y-46465D01*
X70926Y-46609D01*
X71319Y-45833D01*
X71426Y-45789D01*
X71538Y-45676D01*
X71599Y-45529D01*
X71600Y-45370D01*
X71579Y-45320D01*
X71875Y-44734D01*
X71914Y-44727D01*
X71953Y-44701D01*
X72012Y-44662D01*
X72262Y-44412D01*
X72327Y-44314D01*
X72350Y-44200D01*
X72350Y-44040D01*
X72388Y-44001D01*
X72449Y-43854D01*
X72450Y-43695D01*
X72428Y-43644D01*
X74720Y-39122D01*
X73590Y-38711D01*
X73286Y-37698D01*
X71526Y-37749D01*
X71520Y-37749D01*
X71520Y-37750D01*
X69839Y-37798D01*
X69712Y-37250D01*
X70350Y-37250D01*
X73619Y-37150D01*
X74268Y-38500D01*
X74650Y-38500D01*
X75300Y-38500D01*
X75300Y-39137D01*
X73091Y-43441D01*
X73087Y-43445D01*
X73080Y-43462D01*
X72705Y-44193D01*
X72587Y-44311D01*
X72495Y-44533D01*
X72495Y-44602D01*
X72296Y-44991D01*
X72258Y-45007D01*
X72087Y-45177D01*
X71995Y-45399D01*
X71995Y-45577D01*
X71866Y-45828D01*
X71758Y-45873D01*
X71587Y-46043D01*
X71495Y-46265D01*
X71495Y-46505D01*
X71506Y-46531D01*
X71385Y-46766D01*
X71981Y-47164D01*
X71676Y-47644D01*
X69104Y-47114D01*
X69104Y-46645D01*
X69066Y-46554D01*
X68995Y-46483D01*
X68904Y-46445D01*
X68804Y-46445D01*
X68095Y-46445D01*
X68004Y-46483D01*
X67933Y-46554D01*
X67911Y-46607D01*
X67842Y-46537D01*
X67620Y-46445D01*
X67380Y-46445D01*
X67158Y-46537D01*
X67011Y-46683D01*
X66640Y-46607D01*
X66039Y-44251D01*
X64524Y-44210D01*
X64379Y-44150D01*
X64220Y-44149D01*
X64102Y-44198D01*
X63277Y-44176D01*
X63242Y-44141D01*
X63020Y-44049D01*
X62780Y-44049D01*
X62558Y-44141D01*
X62542Y-44156D01*
X62350Y-44151D01*
X62350Y-43509D01*
G54D10*
G36*
X73735Y-43190D02*
X75800Y-39061D01*
X75800Y-38000D01*
X75585Y-38000D01*
X75604Y-37954D01*
X75604Y-37854D01*
X75604Y-37145D01*
X75574Y-37075D01*
X78023Y-37075D01*
X74204Y-43695D01*
X74204Y-43668D01*
X74112Y-43446D01*
X73942Y-43275D01*
X73735Y-43190D01*
X73735Y-43190D01*
G37*
G54D21*
X73735Y-43190D02*
X75800Y-39061D01*
X75800Y-38000D01*
X75585Y-38000D01*
X75604Y-37954D01*
X75604Y-37854D01*
X75604Y-37145D01*
X75574Y-37075D01*
X78023Y-37075D01*
X74204Y-43695D01*
X74204Y-43668D01*
X74112Y-43446D01*
X73942Y-43275D01*
X73735Y-43190D01*
G54D10*
G36*
X72402Y-45857D02*
X72751Y-45159D01*
X72757Y-45166D01*
X72979Y-45258D01*
X73219Y-45258D01*
X73328Y-45213D01*
X72704Y-46295D01*
X72704Y-46266D01*
X72612Y-46044D01*
X72442Y-45873D01*
X72402Y-45857D01*
X72402Y-45857D01*
G37*
G54D21*
X72402Y-45857D02*
X72751Y-45159D01*
X72757Y-45166D01*
X72979Y-45258D01*
X73219Y-45258D01*
X73328Y-45213D01*
X72704Y-46295D01*
X72704Y-46266D01*
X72612Y-46044D01*
X72442Y-45873D01*
X72402Y-45857D01*
G54D10*
G36*
X70700Y-45874D02*
X70871Y-45703D01*
X70724Y-45990D01*
X70700Y-45982D01*
X70700Y-45900D01*
X70700Y-45874D01*
X70700Y-45874D01*
G37*
G54D21*
X70700Y-45874D02*
X70871Y-45703D01*
X70724Y-45990D01*
X70700Y-45982D01*
X70700Y-45900D01*
X70700Y-45874D01*
G54D10*
G36*
X69028Y-38154D02*
X69119Y-38154D01*
X69200Y-38121D01*
X69200Y-38151D01*
X69569Y-38143D01*
X69595Y-38154D01*
X69695Y-38154D01*
X70404Y-38154D01*
X70477Y-38123D01*
X71600Y-38100D01*
X72914Y-38100D01*
X73261Y-39091D01*
X74127Y-39331D01*
X72061Y-43375D01*
X72000Y-43374D01*
X72000Y-43300D01*
X71977Y-43185D01*
X71912Y-43087D01*
X69712Y-40887D01*
X69712Y-40887D01*
X69712Y-40887D01*
X69574Y-40750D01*
X69579Y-40750D01*
X69726Y-40689D01*
X69838Y-40576D01*
X69899Y-40429D01*
X69899Y-40420D01*
X69912Y-40412D01*
X70112Y-40212D01*
X70177Y-40114D01*
X70200Y-40000D01*
X70200Y-39100D01*
X70177Y-38985D01*
X70112Y-38887D01*
X69612Y-38387D01*
X69612Y-38387D01*
X69514Y-38322D01*
X69400Y-38300D01*
X69174Y-38300D01*
X69028Y-38154D01*
X69028Y-38154D01*
G37*
G54D21*
X69028Y-38154D02*
X69119Y-38154D01*
X69200Y-38121D01*
X69200Y-38151D01*
X69569Y-38143D01*
X69595Y-38154D01*
X69695Y-38154D01*
X70404Y-38154D01*
X70477Y-38123D01*
X71600Y-38100D01*
X72914Y-38100D01*
X73261Y-39091D01*
X74127Y-39331D01*
X72061Y-43375D01*
X72000Y-43374D01*
X72000Y-43300D01*
X71977Y-43185D01*
X71912Y-43087D01*
X69712Y-40887D01*
X69712Y-40887D01*
X69712Y-40887D01*
X69574Y-40750D01*
X69579Y-40750D01*
X69726Y-40689D01*
X69838Y-40576D01*
X69899Y-40429D01*
X69899Y-40420D01*
X69912Y-40412D01*
X70112Y-40212D01*
X70177Y-40114D01*
X70200Y-40000D01*
X70200Y-39100D01*
X70177Y-38985D01*
X70112Y-38887D01*
X69612Y-38387D01*
X69612Y-38387D01*
X69514Y-38322D01*
X69400Y-38300D01*
X69174Y-38300D01*
X69028Y-38154D01*
G54D10*
G36*
X68070Y-42000D02*
X68425Y-42000D01*
X68537Y-42112D01*
X69387Y-42962D01*
X69387Y-42962D01*
X69387Y-42962D01*
X69799Y-43374D01*
X69799Y-43429D01*
X69860Y-43576D01*
X69973Y-43688D01*
X70100Y-43741D01*
X70099Y-43879D01*
X70110Y-43904D01*
X69999Y-43950D01*
X69600Y-43950D01*
X69600Y-43950D01*
X69485Y-43972D01*
X69485Y-43972D01*
X69387Y-44037D01*
X69225Y-44200D01*
X69024Y-44200D01*
X69324Y-43900D01*
X69379Y-43900D01*
X69526Y-43839D01*
X69638Y-43726D01*
X69699Y-43579D01*
X69700Y-43420D01*
X69639Y-43273D01*
X69526Y-43161D01*
X69379Y-43100D01*
X69220Y-43099D01*
X69073Y-43160D01*
X68961Y-43273D01*
X68900Y-43420D01*
X68900Y-43475D01*
X68672Y-43703D01*
X68639Y-43623D01*
X68600Y-43584D01*
X68600Y-43300D01*
X68577Y-43185D01*
X68512Y-43087D01*
X68150Y-42725D01*
X68150Y-42200D01*
X68127Y-42085D01*
X68070Y-42000D01*
X68070Y-42000D01*
G37*
G54D21*
X68070Y-42000D02*
X68425Y-42000D01*
X68537Y-42112D01*
X69387Y-42962D01*
X69387Y-42962D01*
X69387Y-42962D01*
X69799Y-43374D01*
X69799Y-43429D01*
X69860Y-43576D01*
X69973Y-43688D01*
X70100Y-43741D01*
X70099Y-43879D01*
X70110Y-43904D01*
X69999Y-43950D01*
X69600Y-43950D01*
X69600Y-43950D01*
X69485Y-43972D01*
X69485Y-43972D01*
X69387Y-44037D01*
X69225Y-44200D01*
X69024Y-44200D01*
X69324Y-43900D01*
X69379Y-43900D01*
X69526Y-43839D01*
X69638Y-43726D01*
X69699Y-43579D01*
X69700Y-43420D01*
X69639Y-43273D01*
X69526Y-43161D01*
X69379Y-43100D01*
X69220Y-43099D01*
X69073Y-43160D01*
X68961Y-43273D01*
X68900Y-43420D01*
X68900Y-43475D01*
X68672Y-43703D01*
X68639Y-43623D01*
X68600Y-43584D01*
X68600Y-43300D01*
X68577Y-43185D01*
X68512Y-43087D01*
X68150Y-42725D01*
X68150Y-42200D01*
X68127Y-42085D01*
X68070Y-42000D01*
G54D10*
G36*
X66550Y-38700D02*
X66750Y-38700D01*
X66864Y-38677D01*
X66903Y-38651D01*
X66962Y-38612D01*
X67212Y-38362D01*
X67277Y-38264D01*
X67300Y-38150D01*
X67300Y-38079D01*
X67341Y-38062D01*
X67512Y-37892D01*
X67604Y-37670D01*
X67604Y-37430D01*
X67512Y-37208D01*
X67379Y-37075D01*
X68620Y-37075D01*
X68487Y-37207D01*
X68395Y-37429D01*
X68395Y-37669D01*
X68442Y-37783D01*
X68437Y-37787D01*
X68372Y-37885D01*
X68372Y-37885D01*
X68350Y-38000D01*
X68350Y-38200D01*
X68372Y-38314D01*
X68372Y-38314D01*
X68437Y-38412D01*
X68837Y-38812D01*
X68935Y-38877D01*
X69050Y-38900D01*
X69275Y-38900D01*
X69600Y-39224D01*
X69600Y-39875D01*
X69575Y-39900D01*
X67305Y-39900D01*
X67264Y-39872D01*
X67150Y-39850D01*
X66800Y-39850D01*
X66800Y-39850D01*
X66685Y-39872D01*
X66685Y-39872D01*
X66593Y-39934D01*
X66589Y-39923D01*
X66550Y-39884D01*
X66550Y-38700D01*
X66550Y-38700D01*
G37*
G54D21*
X66550Y-38700D02*
X66750Y-38700D01*
X66864Y-38677D01*
X66903Y-38651D01*
X66962Y-38612D01*
X67212Y-38362D01*
X67277Y-38264D01*
X67300Y-38150D01*
X67300Y-38079D01*
X67341Y-38062D01*
X67512Y-37892D01*
X67604Y-37670D01*
X67604Y-37430D01*
X67512Y-37208D01*
X67379Y-37075D01*
X68620Y-37075D01*
X68487Y-37207D01*
X68395Y-37429D01*
X68395Y-37669D01*
X68442Y-37783D01*
X68437Y-37787D01*
X68372Y-37885D01*
X68372Y-37885D01*
X68350Y-38000D01*
X68350Y-38200D01*
X68372Y-38314D01*
X68372Y-38314D01*
X68437Y-38412D01*
X68837Y-38812D01*
X68935Y-38877D01*
X69050Y-38900D01*
X69275Y-38900D01*
X69600Y-39224D01*
X69600Y-39875D01*
X69575Y-39900D01*
X67305Y-39900D01*
X67264Y-39872D01*
X67150Y-39850D01*
X66800Y-39850D01*
X66800Y-39850D01*
X66685Y-39872D01*
X66685Y-39872D01*
X66593Y-39934D01*
X66589Y-39923D01*
X66550Y-39884D01*
X66550Y-38700D01*
G54D10*
G36*
X64169Y-47810D02*
X64279Y-47856D01*
X64519Y-47856D01*
X64741Y-47764D01*
X64912Y-47594D01*
X65004Y-47372D01*
X65004Y-47132D01*
X64912Y-46910D01*
X64742Y-46740D01*
X64520Y-46647D01*
X64445Y-46647D01*
X64504Y-46506D01*
X64504Y-46266D01*
X64477Y-46200D01*
X64477Y-46200D01*
X64500Y-46086D01*
X64500Y-44900D01*
X64526Y-44889D01*
X64549Y-44865D01*
X64549Y-46129D01*
X64610Y-46276D01*
X64650Y-46315D01*
X64650Y-46450D01*
X64672Y-46564D01*
X64672Y-46564D01*
X64698Y-46603D01*
X64737Y-46662D01*
X66600Y-48524D01*
X66600Y-48834D01*
X66561Y-48873D01*
X66500Y-49020D01*
X66499Y-49179D01*
X66560Y-49326D01*
X66673Y-49438D01*
X66820Y-49499D01*
X66979Y-49500D01*
X67126Y-49439D01*
X67238Y-49326D01*
X67299Y-49179D01*
X67300Y-49020D01*
X67239Y-48873D01*
X67200Y-48834D01*
X67200Y-48400D01*
X67177Y-48285D01*
X67112Y-48187D01*
X65250Y-46325D01*
X65250Y-46315D01*
X65288Y-46276D01*
X65349Y-46129D01*
X65350Y-45970D01*
X65289Y-45823D01*
X65176Y-45711D01*
X65029Y-45650D01*
X64870Y-45649D01*
X64723Y-45710D01*
X64611Y-45823D01*
X64550Y-45970D01*
X64549Y-46129D01*
X64549Y-44865D01*
X64638Y-44776D01*
X64699Y-44629D01*
X64699Y-44600D01*
X65709Y-44600D01*
X66204Y-46825D01*
X66475Y-47096D01*
X66896Y-47172D01*
X66987Y-47391D01*
X67157Y-47562D01*
X67379Y-47654D01*
X67619Y-47654D01*
X67841Y-47562D01*
X67911Y-47492D01*
X67933Y-47545D01*
X68004Y-47616D01*
X68095Y-47654D01*
X68195Y-47654D01*
X68904Y-47654D01*
X68995Y-47616D01*
X69048Y-47564D01*
X71694Y-48045D01*
X68000Y-54449D01*
X64169Y-47810D01*
X64169Y-47810D01*
G37*
G54D21*
X64169Y-47810D02*
X64279Y-47856D01*
X64519Y-47856D01*
X64741Y-47764D01*
X64912Y-47594D01*
X65004Y-47372D01*
X65004Y-47132D01*
X64912Y-46910D01*
X64742Y-46740D01*
X64520Y-46647D01*
X64445Y-46647D01*
X64504Y-46506D01*
X64504Y-46266D01*
X64477Y-46200D01*
X64477Y-46200D01*
X64500Y-46086D01*
X64500Y-44900D01*
X64526Y-44889D01*
X64549Y-44865D01*
X64549Y-46129D01*
X64610Y-46276D01*
X64650Y-46315D01*
X64650Y-46450D01*
X64672Y-46564D01*
X64672Y-46564D01*
X64698Y-46603D01*
X64737Y-46662D01*
X66600Y-48524D01*
X66600Y-48834D01*
X66561Y-48873D01*
X66500Y-49020D01*
X66499Y-49179D01*
X66560Y-49326D01*
X66673Y-49438D01*
X66820Y-49499D01*
X66979Y-49500D01*
X67126Y-49439D01*
X67238Y-49326D01*
X67299Y-49179D01*
X67300Y-49020D01*
X67239Y-48873D01*
X67200Y-48834D01*
X67200Y-48400D01*
X67177Y-48285D01*
X67112Y-48187D01*
X65250Y-46325D01*
X65250Y-46315D01*
X65288Y-46276D01*
X65349Y-46129D01*
X65350Y-45970D01*
X65289Y-45823D01*
X65176Y-45711D01*
X65029Y-45650D01*
X64870Y-45649D01*
X64723Y-45710D01*
X64611Y-45823D01*
X64550Y-45970D01*
X64549Y-46129D01*
X64549Y-44865D01*
X64638Y-44776D01*
X64699Y-44629D01*
X64699Y-44600D01*
X65709Y-44600D01*
X66204Y-46825D01*
X66475Y-47096D01*
X66896Y-47172D01*
X66987Y-47391D01*
X67157Y-47562D01*
X67379Y-47654D01*
X67619Y-47654D01*
X67841Y-47562D01*
X67911Y-47492D01*
X67933Y-47545D01*
X68004Y-47616D01*
X68095Y-47654D01*
X68195Y-47654D01*
X68904Y-47654D01*
X68995Y-47616D01*
X69048Y-47564D01*
X71694Y-48045D01*
X68000Y-54449D01*
X64169Y-47810D01*
G54D10*
G36*
X62671Y-45213D02*
X62779Y-45258D01*
X63019Y-45258D01*
X63241Y-45166D01*
X63412Y-44996D01*
X63504Y-44774D01*
X63504Y-44600D01*
X63899Y-44600D01*
X63899Y-44629D01*
X63902Y-44636D01*
X63902Y-44636D01*
X63900Y-44650D01*
X63900Y-44650D01*
X63900Y-45781D01*
X63780Y-45781D01*
X63558Y-45873D01*
X63387Y-46043D01*
X63295Y-46265D01*
X63295Y-46295D01*
X62671Y-45213D01*
X62671Y-45213D01*
G37*
G54D21*
X62671Y-45213D02*
X62779Y-45258D01*
X63019Y-45258D01*
X63241Y-45166D01*
X63412Y-44996D01*
X63504Y-44774D01*
X63504Y-44600D01*
X63899Y-44600D01*
X63899Y-44629D01*
X63902Y-44636D01*
X63902Y-44636D01*
X63900Y-44650D01*
X63900Y-44650D01*
X63900Y-45781D01*
X63780Y-45781D01*
X63558Y-45873D01*
X63387Y-46043D01*
X63295Y-46265D01*
X63295Y-46295D01*
X62671Y-45213D01*
G54D10*
G36*
X61958Y-38215D02*
X62019Y-38154D01*
X62119Y-38154D01*
X62341Y-38062D01*
X62512Y-37892D01*
X62604Y-37670D01*
X62604Y-37430D01*
X62512Y-37208D01*
X62379Y-37075D01*
X65620Y-37075D01*
X65487Y-37207D01*
X65395Y-37429D01*
X65395Y-37669D01*
X65487Y-37891D01*
X65657Y-38062D01*
X65879Y-38154D01*
X66119Y-38154D01*
X66341Y-38062D01*
X66500Y-37904D01*
X66657Y-38062D01*
X66661Y-38063D01*
X66625Y-38100D01*
X66400Y-38100D01*
X66400Y-38100D01*
X66285Y-38122D01*
X66285Y-38122D01*
X66187Y-38187D01*
X66037Y-38337D01*
X66037Y-38337D01*
X65972Y-38435D01*
X65950Y-38550D01*
X65950Y-38550D01*
X65950Y-39884D01*
X65911Y-39923D01*
X65850Y-40070D01*
X65849Y-40229D01*
X65910Y-40376D01*
X66023Y-40488D01*
X66149Y-40541D01*
X66149Y-40550D01*
X65424Y-40550D01*
X65111Y-40236D01*
X65226Y-40189D01*
X65338Y-40076D01*
X65399Y-39929D01*
X65400Y-39770D01*
X65339Y-39623D01*
X65300Y-39584D01*
X65300Y-39450D01*
X65277Y-39335D01*
X65212Y-39237D01*
X64850Y-38875D01*
X64850Y-38550D01*
X64827Y-38435D01*
X64762Y-38337D01*
X64412Y-37987D01*
X64314Y-37922D01*
X64314Y-37922D01*
X64200Y-37900D01*
X63400Y-37900D01*
X63250Y-37900D01*
X63250Y-37900D01*
X63135Y-37922D01*
X63135Y-37922D01*
X63037Y-37987D01*
X62975Y-38049D01*
X62920Y-38049D01*
X62773Y-38110D01*
X62661Y-38223D01*
X62600Y-38370D01*
X62599Y-38529D01*
X62660Y-38676D01*
X62773Y-38788D01*
X62920Y-38849D01*
X63079Y-38850D01*
X63226Y-38789D01*
X63338Y-38676D01*
X63399Y-38529D01*
X63399Y-38500D01*
X63400Y-38500D01*
X63470Y-38500D01*
X63395Y-38679D01*
X63395Y-38919D01*
X63487Y-39141D01*
X63645Y-39300D01*
X63487Y-39457D01*
X63395Y-39679D01*
X63395Y-39919D01*
X63487Y-40141D01*
X63645Y-40300D01*
X63487Y-40457D01*
X63395Y-40679D01*
X63395Y-40919D01*
X63487Y-41141D01*
X63645Y-41300D01*
X63487Y-41457D01*
X63395Y-41679D01*
X63395Y-41919D01*
X63487Y-42141D01*
X63557Y-42211D01*
X63504Y-42233D01*
X63433Y-42304D01*
X63395Y-42395D01*
X63395Y-42495D01*
X63395Y-42771D01*
X62550Y-41925D01*
X62550Y-41674D01*
X62912Y-41312D01*
X62977Y-41214D01*
X63000Y-41100D01*
X63000Y-39350D01*
X62977Y-39235D01*
X62912Y-39137D01*
X62584Y-38810D01*
X62584Y-38684D01*
X62495Y-38469D01*
X62331Y-38304D01*
X62116Y-38215D01*
X61958Y-38215D01*
X61958Y-38215D01*
G37*
G54D21*
X61958Y-38215D02*
X62019Y-38154D01*
X62119Y-38154D01*
X62341Y-38062D01*
X62512Y-37892D01*
X62604Y-37670D01*
X62604Y-37430D01*
X62512Y-37208D01*
X62379Y-37075D01*
X65620Y-37075D01*
X65487Y-37207D01*
X65395Y-37429D01*
X65395Y-37669D01*
X65487Y-37891D01*
X65657Y-38062D01*
X65879Y-38154D01*
X66119Y-38154D01*
X66341Y-38062D01*
X66500Y-37904D01*
X66657Y-38062D01*
X66661Y-38063D01*
X66625Y-38100D01*
X66400Y-38100D01*
X66400Y-38100D01*
X66285Y-38122D01*
X66285Y-38122D01*
X66187Y-38187D01*
X66037Y-38337D01*
X66037Y-38337D01*
X65972Y-38435D01*
X65950Y-38550D01*
X65950Y-38550D01*
X65950Y-39884D01*
X65911Y-39923D01*
X65850Y-40070D01*
X65849Y-40229D01*
X65910Y-40376D01*
X66023Y-40488D01*
X66149Y-40541D01*
X66149Y-40550D01*
X65424Y-40550D01*
X65111Y-40236D01*
X65226Y-40189D01*
X65338Y-40076D01*
X65399Y-39929D01*
X65400Y-39770D01*
X65339Y-39623D01*
X65300Y-39584D01*
X65300Y-39450D01*
X65277Y-39335D01*
X65212Y-39237D01*
X64850Y-38875D01*
X64850Y-38550D01*
X64827Y-38435D01*
X64762Y-38337D01*
X64412Y-37987D01*
X64314Y-37922D01*
X64314Y-37922D01*
X64200Y-37900D01*
X63400Y-37900D01*
X63250Y-37900D01*
X63250Y-37900D01*
X63135Y-37922D01*
X63135Y-37922D01*
X63037Y-37987D01*
X62975Y-38049D01*
X62920Y-38049D01*
X62773Y-38110D01*
X62661Y-38223D01*
X62600Y-38370D01*
X62599Y-38529D01*
X62660Y-38676D01*
X62773Y-38788D01*
X62920Y-38849D01*
X63079Y-38850D01*
X63226Y-38789D01*
X63338Y-38676D01*
X63399Y-38529D01*
X63399Y-38500D01*
X63400Y-38500D01*
X63470Y-38500D01*
X63395Y-38679D01*
X63395Y-38919D01*
X63487Y-39141D01*
X63645Y-39300D01*
X63487Y-39457D01*
X63395Y-39679D01*
X63395Y-39919D01*
X63487Y-40141D01*
X63645Y-40300D01*
X63487Y-40457D01*
X63395Y-40679D01*
X63395Y-40919D01*
X63487Y-41141D01*
X63645Y-41300D01*
X63487Y-41457D01*
X63395Y-41679D01*
X63395Y-41919D01*
X63487Y-42141D01*
X63557Y-42211D01*
X63504Y-42233D01*
X63433Y-42304D01*
X63395Y-42395D01*
X63395Y-42495D01*
X63395Y-42771D01*
X62550Y-41925D01*
X62550Y-41674D01*
X62912Y-41312D01*
X62977Y-41214D01*
X63000Y-41100D01*
X63000Y-39350D01*
X62977Y-39235D01*
X62912Y-39137D01*
X62584Y-38810D01*
X62584Y-38684D01*
X62495Y-38469D01*
X62331Y-38304D01*
X62116Y-38215D01*
X61958Y-38215D01*
G54D10*
G36*
X57976Y-37075D02*
X58620Y-37075D01*
X58487Y-37207D01*
X58395Y-37429D01*
X58395Y-37669D01*
X58487Y-37891D01*
X58657Y-38062D01*
X58879Y-38154D01*
X59119Y-38154D01*
X59341Y-38062D01*
X59500Y-37904D01*
X59657Y-38062D01*
X59879Y-38154D01*
X60119Y-38154D01*
X60341Y-38062D01*
X60500Y-37904D01*
X60657Y-38062D01*
X60879Y-38154D01*
X61119Y-38154D01*
X61244Y-38102D01*
X61222Y-38135D01*
X61200Y-38250D01*
X61200Y-38250D01*
X61200Y-38750D01*
X61200Y-39000D01*
X60700Y-39000D01*
X60700Y-39000D01*
X60585Y-39022D01*
X60585Y-39022D01*
X60487Y-39087D01*
X60287Y-39287D01*
X60287Y-39287D01*
X60222Y-39385D01*
X60200Y-39500D01*
X60200Y-39500D01*
X60200Y-40300D01*
X60222Y-40414D01*
X60287Y-40512D01*
X60287Y-40512D01*
X60428Y-40652D01*
X60415Y-40683D01*
X60415Y-40915D01*
X60504Y-41130D01*
X60668Y-41295D01*
X60883Y-41384D01*
X61115Y-41384D01*
X61200Y-41349D01*
X61200Y-41700D01*
X61222Y-41814D01*
X61287Y-41912D01*
X61287Y-41912D01*
X61487Y-42112D01*
X61487Y-42112D01*
X61487Y-42112D01*
X62405Y-43030D01*
X62242Y-42997D01*
X61691Y-43273D01*
X61742Y-43474D01*
X61699Y-43529D01*
X57976Y-37075D01*
X57976Y-37075D01*
G37*
G54D21*
X57976Y-37075D02*
X58620Y-37075D01*
X58487Y-37207D01*
X58395Y-37429D01*
X58395Y-37669D01*
X58487Y-37891D01*
X58657Y-38062D01*
X58879Y-38154D01*
X59119Y-38154D01*
X59341Y-38062D01*
X59500Y-37904D01*
X59657Y-38062D01*
X59879Y-38154D01*
X60119Y-38154D01*
X60341Y-38062D01*
X60500Y-37904D01*
X60657Y-38062D01*
X60879Y-38154D01*
X61119Y-38154D01*
X61244Y-38102D01*
X61222Y-38135D01*
X61200Y-38250D01*
X61200Y-38250D01*
X61200Y-38750D01*
X61200Y-39000D01*
X60700Y-39000D01*
X60700Y-39000D01*
X60585Y-39022D01*
X60585Y-39022D01*
X60487Y-39087D01*
X60287Y-39287D01*
X60287Y-39287D01*
X60222Y-39385D01*
X60200Y-39500D01*
X60200Y-39500D01*
X60200Y-40300D01*
X60222Y-40414D01*
X60287Y-40512D01*
X60287Y-40512D01*
X60428Y-40652D01*
X60415Y-40683D01*
X60415Y-40915D01*
X60504Y-41130D01*
X60668Y-41295D01*
X60883Y-41384D01*
X61115Y-41384D01*
X61200Y-41349D01*
X61200Y-41700D01*
X61222Y-41814D01*
X61287Y-41912D01*
X61287Y-41912D01*
X61487Y-42112D01*
X61487Y-42112D01*
X61487Y-42112D01*
X62405Y-43030D01*
X62242Y-42997D01*
X61691Y-43273D01*
X61742Y-43474D01*
X61699Y-43529D01*
X57976Y-37075D01*
M02*
