%FSLAX34Y34*%
G04 Gerber Fmt 3.4, Leading zero omitted, Abs format*
G04 (created by PCBNEW (2014-03-19 BZR 4756)-product) date Mon 16 Jun 2014 02:55:52 PM CDT*
%MOIN*%
G01*
G70*
G90*
G04 APERTURE LIST*
%ADD10C,0.006000*%
%ADD11R,0.070866X0.070866*%
%ADD12C,0.070866*%
%ADD13R,0.066929X0.066929*%
%ADD14C,0.066929*%
%ADD15C,0.102362*%
%ADD16C,0.086614*%
%ADD17C,0.106299*%
%ADD18C,0.059055*%
%ADD19C,0.010000*%
G04 APERTURE END LIST*
G54D10*
G54D11*
X82500Y-54250D03*
G54D12*
X83500Y-54250D03*
X84500Y-54250D03*
X86500Y-54250D03*
X87500Y-54250D03*
X85500Y-54250D03*
G54D11*
X61500Y-49000D03*
G54D12*
X61500Y-50000D03*
X61500Y-51000D03*
X61500Y-53000D03*
X61500Y-52000D03*
G54D11*
X71500Y-53000D03*
G54D12*
X70500Y-53000D03*
G54D11*
X71500Y-54250D03*
G54D12*
X70500Y-54250D03*
G54D13*
X63500Y-51000D03*
G54D14*
X64500Y-51000D03*
X63500Y-52000D03*
X64500Y-52000D03*
X63500Y-53000D03*
X64500Y-53000D03*
X51250Y-46000D03*
X51250Y-47000D03*
X59500Y-47750D03*
X51250Y-49000D03*
X51250Y-50000D03*
X62500Y-49000D03*
X62500Y-50000D03*
X62500Y-51000D03*
X62500Y-52000D03*
X62500Y-53000D03*
G54D15*
X79590Y-42272D03*
X78409Y-40227D03*
X77397Y-42175D03*
G54D16*
X53161Y-54396D03*
X54538Y-54396D03*
X53161Y-41403D03*
G54D17*
X52196Y-52388D03*
X52196Y-43411D03*
X55503Y-52860D03*
X55503Y-42939D03*
G54D16*
X57661Y-54396D03*
X59038Y-54396D03*
X57661Y-41403D03*
G54D17*
X56696Y-52388D03*
X56696Y-43411D03*
X60003Y-52860D03*
X60003Y-42939D03*
G54D16*
X48661Y-54396D03*
X50038Y-54396D03*
X48661Y-41403D03*
G54D17*
X47696Y-52388D03*
X47696Y-43411D03*
X51003Y-52860D03*
X51003Y-42939D03*
G54D18*
X80553Y-45092D03*
X80946Y-45774D03*
G54D12*
X61750Y-45515D03*
X61750Y-47484D03*
G54D11*
X75000Y-38800D03*
G54D12*
X76000Y-38800D03*
G54D13*
X62000Y-40800D03*
G54D14*
X61000Y-40800D03*
X62000Y-39800D03*
X61000Y-39800D03*
X62000Y-38800D03*
X61000Y-38800D03*
G54D11*
X64000Y-37550D03*
G54D12*
X63000Y-37550D03*
X62000Y-37550D03*
X60000Y-37550D03*
X59000Y-37550D03*
X61000Y-37550D03*
G54D11*
X70000Y-37550D03*
G54D12*
X69000Y-37550D03*
X68000Y-37550D03*
X66000Y-37550D03*
X67000Y-37550D03*
G54D10*
G36*
X71729Y-47736D02*
X71115Y-47381D01*
X71470Y-46768D01*
X72084Y-47122D01*
X71729Y-47736D01*
X71729Y-47736D01*
G37*
G54D12*
X72100Y-46386D03*
X72600Y-45520D03*
X73600Y-43787D03*
X73100Y-44653D03*
G54D10*
G36*
X61915Y-43658D02*
X62529Y-43303D01*
X62884Y-43917D01*
X62270Y-44271D01*
X61915Y-43658D01*
X61915Y-43658D01*
G37*
G54D12*
X62900Y-44653D03*
X63400Y-45520D03*
X64400Y-47252D03*
X63900Y-46386D03*
G54D11*
X64000Y-42800D03*
G54D12*
X64000Y-41800D03*
X64000Y-40800D03*
X64000Y-38800D03*
X64000Y-39800D03*
G54D11*
X68500Y-47050D03*
G54D12*
X67500Y-47050D03*
G54D11*
X75000Y-37550D03*
G54D12*
X76000Y-37550D03*
G54D10*
G36*
X51250Y-39650D02*
X47050Y-39650D01*
X47050Y-36850D01*
X51250Y-36850D01*
X51250Y-39650D01*
X51250Y-39650D01*
G37*
G54D19*
X51250Y-39650D02*
X47050Y-39650D01*
X47050Y-36850D01*
X51250Y-36850D01*
X51250Y-39650D01*
M02*
