%FSLAX34Y34*%
G04 Gerber Fmt 3.4, Leading zero omitted, Abs format*
G04 (created by PCBNEW (2014-03-19 BZR 4756)-product) date Mon 16 Jun 2014 02:55:52 PM CDT*
%MOIN*%
G01*
G70*
G90*
G04 APERTURE LIST*
%ADD10C,0.006000*%
%ADD11R,0.039370X0.059055*%
%ADD12R,0.027559X0.027559*%
%ADD13R,0.070866X0.062992*%
%ADD14R,0.125984X0.062992*%
%ADD15R,0.025591X0.041732*%
%ADD16R,0.086614X0.047244*%
%ADD17R,0.086614X0.137795*%
%ADD18R,0.013800X0.055100*%
%ADD19R,0.094488X0.074803*%
%ADD20R,0.047244X0.047244*%
%ADD21R,0.047244X0.027559*%
%ADD22R,0.027559X0.047244*%
%ADD23R,0.070866X0.070866*%
%ADD24C,0.070866*%
%ADD25R,0.066929X0.066929*%
%ADD26C,0.066929*%
%ADD27R,0.039370X0.039370*%
%ADD28R,0.039370X0.086614*%
%ADD29R,0.062992X0.070866*%
%ADD30R,0.027559X0.051181*%
%ADD31R,0.090551X0.090551*%
%ADD32R,0.236220X0.078740*%
%ADD33R,0.078740X0.043307*%
%ADD34R,0.031496X0.031496*%
%ADD35R,0.078740X0.078740*%
%ADD36R,0.025591X0.017717*%
%ADD37C,0.102362*%
%ADD38C,0.086614*%
%ADD39C,0.106299*%
%ADD40C,0.059055*%
%ADD41R,0.098425X0.118110*%
%ADD42R,0.039370X0.037402*%
%ADD43R,0.045276X0.070866*%
%ADD44R,0.035433X0.039370*%
%ADD45C,0.030000*%
%ADD46C,0.040000*%
%ADD47C,0.008000*%
%ADD48C,0.010000*%
%ADD49C,0.035000*%
%ADD50C,0.012000*%
%ADD51C,0.040000*%
G04 APERTURE END LIST*
G54D10*
G54D11*
X50277Y-37350D03*
X47522Y-37350D03*
G54D12*
X79324Y-49500D03*
X79875Y-49500D03*
X83224Y-50700D03*
X83775Y-50700D03*
G54D10*
G36*
X84673Y-52660D02*
X84912Y-52523D01*
X85050Y-52761D01*
X84811Y-52899D01*
X84673Y-52660D01*
X84673Y-52660D01*
G37*
G36*
X84949Y-53138D02*
X85188Y-53000D01*
X85326Y-53239D01*
X85087Y-53376D01*
X84949Y-53138D01*
X84949Y-53138D01*
G37*
G36*
X84776Y-52239D02*
X84537Y-52376D01*
X84399Y-52138D01*
X84638Y-52000D01*
X84776Y-52239D01*
X84776Y-52239D01*
G37*
G36*
X84500Y-51761D02*
X84261Y-51899D01*
X84123Y-51660D01*
X84362Y-51523D01*
X84500Y-51761D01*
X84500Y-51761D01*
G37*
G54D13*
X82900Y-49801D03*
X82900Y-48698D03*
G54D10*
G36*
X80276Y-46289D02*
X80037Y-46426D01*
X79899Y-46188D01*
X80138Y-46050D01*
X80276Y-46289D01*
X80276Y-46289D01*
G37*
G36*
X80000Y-45811D02*
X79761Y-45949D01*
X79623Y-45710D01*
X79862Y-45573D01*
X80000Y-45811D01*
X80000Y-45811D01*
G37*
G36*
X74326Y-44722D02*
X74939Y-45077D01*
X74624Y-45622D01*
X74011Y-45268D01*
X74326Y-44722D01*
X74326Y-44722D01*
G37*
G36*
X73775Y-45677D02*
X74388Y-46031D01*
X74073Y-46577D01*
X73460Y-46222D01*
X73775Y-45677D01*
X73775Y-45677D01*
G37*
G54D12*
X80350Y-52774D03*
X80350Y-53325D03*
X72924Y-53300D03*
X73475Y-53300D03*
X80350Y-52125D03*
X80350Y-51574D03*
G54D14*
X74984Y-48250D03*
X73015Y-48250D03*
G54D13*
X79200Y-47448D03*
X79200Y-48551D03*
G54D12*
X52324Y-37350D03*
X52875Y-37350D03*
X54150Y-38525D03*
X54150Y-37974D03*
X54724Y-38550D03*
X55275Y-38550D03*
X58500Y-48474D03*
X58500Y-49025D03*
X58500Y-49724D03*
X58500Y-50275D03*
G54D13*
X84150Y-49801D03*
X84150Y-48698D03*
G54D15*
X81024Y-47716D03*
X80650Y-47716D03*
X80275Y-47716D03*
X80275Y-48583D03*
X81024Y-48583D03*
G54D16*
X75929Y-45094D03*
X75929Y-46000D03*
X75929Y-46905D03*
G54D17*
X78370Y-46000D03*
G54D18*
X80854Y-53282D03*
X81110Y-53282D03*
X81366Y-53282D03*
X81622Y-53282D03*
X81878Y-53282D03*
X82134Y-53282D03*
X82390Y-53282D03*
X82646Y-53282D03*
X82646Y-51018D03*
X82390Y-51018D03*
X82134Y-51018D03*
X81878Y-51018D03*
X81622Y-51018D03*
X81366Y-51018D03*
X81110Y-51018D03*
X80854Y-51018D03*
G54D19*
X54403Y-46832D03*
X54403Y-48250D03*
X54403Y-49667D03*
X56096Y-46832D03*
X56096Y-48250D03*
X56096Y-49667D03*
G54D20*
X52946Y-51104D03*
X57553Y-51104D03*
X57553Y-45395D03*
X52946Y-45395D03*
G54D21*
X52946Y-46124D03*
X52946Y-46596D03*
X52946Y-47068D03*
X52946Y-47541D03*
X52946Y-48013D03*
X52946Y-48486D03*
X52946Y-48958D03*
X52946Y-49431D03*
X52946Y-49903D03*
X52946Y-50375D03*
G54D22*
X53596Y-51104D03*
X54068Y-51104D03*
X54541Y-51104D03*
X55013Y-51104D03*
X55486Y-51104D03*
X55958Y-51104D03*
X56431Y-51104D03*
X56903Y-51104D03*
G54D21*
X57553Y-50375D03*
X57553Y-49903D03*
X57553Y-49431D03*
X57553Y-48958D03*
X57553Y-48486D03*
X57553Y-48013D03*
X57553Y-47541D03*
X57553Y-47068D03*
X57553Y-46596D03*
X57553Y-46124D03*
G54D22*
X56903Y-45395D03*
X56431Y-45395D03*
X55958Y-45395D03*
X55486Y-45395D03*
X55013Y-45395D03*
X54541Y-45395D03*
X54068Y-45395D03*
X53596Y-45395D03*
G54D10*
G36*
X85750Y-52238D02*
X85829Y-52374D01*
X85351Y-52650D01*
X85273Y-52514D01*
X85750Y-52238D01*
X85750Y-52238D01*
G37*
G36*
X85622Y-52016D02*
X85701Y-52153D01*
X85223Y-52428D01*
X85145Y-52292D01*
X85622Y-52016D01*
X85622Y-52016D01*
G37*
G36*
X85494Y-51795D02*
X85573Y-51931D01*
X85096Y-52207D01*
X85017Y-52070D01*
X85494Y-51795D01*
X85494Y-51795D01*
G37*
G36*
X85366Y-51573D02*
X85445Y-51709D01*
X84968Y-51985D01*
X84889Y-51849D01*
X85366Y-51573D01*
X85366Y-51573D01*
G37*
G36*
X85238Y-51351D02*
X85317Y-51488D01*
X84840Y-51763D01*
X84761Y-51627D01*
X85238Y-51351D01*
X85238Y-51351D01*
G37*
G36*
X87102Y-52139D02*
X87555Y-52923D01*
X86907Y-53297D01*
X86454Y-52513D01*
X87102Y-52139D01*
X87102Y-52139D01*
G37*
G36*
X85626Y-49582D02*
X86079Y-50366D01*
X85431Y-50740D01*
X84978Y-49956D01*
X85626Y-49582D01*
X85626Y-49582D01*
G37*
G36*
X86187Y-50554D02*
X86541Y-51167D01*
X85893Y-51541D01*
X85539Y-50928D01*
X86187Y-50554D01*
X86187Y-50554D01*
G37*
G36*
X86640Y-51338D02*
X86994Y-51952D01*
X86346Y-52326D01*
X85992Y-51712D01*
X86640Y-51338D01*
X86640Y-51338D01*
G37*
G54D23*
X82500Y-54250D03*
G54D24*
X83500Y-54250D03*
X84500Y-54250D03*
X86500Y-54250D03*
X87500Y-54250D03*
X85500Y-54250D03*
G54D23*
X61500Y-49000D03*
G54D24*
X61500Y-50000D03*
X61500Y-51000D03*
X61500Y-53000D03*
X61500Y-52000D03*
G54D23*
X71500Y-53000D03*
G54D24*
X70500Y-53000D03*
G54D23*
X71500Y-54250D03*
G54D24*
X70500Y-54250D03*
G54D25*
X63500Y-51000D03*
G54D26*
X64500Y-51000D03*
X63500Y-52000D03*
X64500Y-52000D03*
X63500Y-53000D03*
X64500Y-53000D03*
G54D27*
X56550Y-38090D03*
G54D28*
X55959Y-37500D03*
X57140Y-37500D03*
G54D27*
X51781Y-48000D03*
X50718Y-48000D03*
X51250Y-48000D03*
G54D12*
X51700Y-37374D03*
X51700Y-37925D03*
X53500Y-37374D03*
X53500Y-37925D03*
X81125Y-54000D03*
X80574Y-54000D03*
X81875Y-49600D03*
X81324Y-49600D03*
G54D15*
X75225Y-54383D03*
X75600Y-53516D03*
X75974Y-54383D03*
G54D12*
X79875Y-50150D03*
X79324Y-50150D03*
X83775Y-52950D03*
X83224Y-52950D03*
X83775Y-52350D03*
X83224Y-52350D03*
X74074Y-53300D03*
X74625Y-53300D03*
X72275Y-50150D03*
X71724Y-50150D03*
X72275Y-49500D03*
X71724Y-49500D03*
X75250Y-51675D03*
X75250Y-51124D03*
X80574Y-54650D03*
X81125Y-54650D03*
X81324Y-50300D03*
X81875Y-50300D03*
X63775Y-49500D03*
X63224Y-49500D03*
X56474Y-44500D03*
X57025Y-44500D03*
X58500Y-45974D03*
X58500Y-46525D03*
G54D26*
X51250Y-46000D03*
X51250Y-47000D03*
X59500Y-47750D03*
X51250Y-49000D03*
X51250Y-50000D03*
X62500Y-49000D03*
X62500Y-50000D03*
X62500Y-51000D03*
X62500Y-52000D03*
X62500Y-53000D03*
G54D14*
X76965Y-53550D03*
X78934Y-53550D03*
G54D29*
X74301Y-54250D03*
X73198Y-54250D03*
G54D12*
X75250Y-52274D03*
X75250Y-52825D03*
X75250Y-49974D03*
X75250Y-50525D03*
X72275Y-50800D03*
X71724Y-50800D03*
G54D29*
X72051Y-51800D03*
X70948Y-51800D03*
G54D30*
X73000Y-52332D03*
X73500Y-52332D03*
X74000Y-52332D03*
X74500Y-52332D03*
X74500Y-50167D03*
X74000Y-50167D03*
X73500Y-50167D03*
X73000Y-50167D03*
G54D31*
X73750Y-51250D03*
G54D32*
X77250Y-49603D03*
X77250Y-51296D03*
G54D33*
X75394Y-44100D03*
G54D34*
X76142Y-44100D03*
G54D35*
X82073Y-47500D03*
X83726Y-47500D03*
X76423Y-48300D03*
X78076Y-48300D03*
G54D33*
X77244Y-44100D03*
G54D34*
X77992Y-44100D03*
G54D36*
X78944Y-50766D03*
X78944Y-51022D03*
X78944Y-51277D03*
X78944Y-51533D03*
X79555Y-51533D03*
X79555Y-51277D03*
X79555Y-51022D03*
X79555Y-50766D03*
G54D37*
X79590Y-42272D03*
X78409Y-40227D03*
X77397Y-42175D03*
G54D38*
X53161Y-54396D03*
X54538Y-54396D03*
X53161Y-41403D03*
G54D39*
X52196Y-52388D03*
X52196Y-43411D03*
X55503Y-52860D03*
X55503Y-42939D03*
G54D38*
X57661Y-54396D03*
X59038Y-54396D03*
X57661Y-41403D03*
G54D39*
X56696Y-52388D03*
X56696Y-43411D03*
X60003Y-52860D03*
X60003Y-42939D03*
G54D38*
X48661Y-54396D03*
X50038Y-54396D03*
X48661Y-41403D03*
G54D39*
X47696Y-52388D03*
X47696Y-43411D03*
X51003Y-52860D03*
X51003Y-42939D03*
G54D40*
X80553Y-45092D03*
X80946Y-45774D03*
G54D24*
X61750Y-45515D03*
X61750Y-47484D03*
G54D10*
G36*
X70088Y-42631D02*
X70227Y-42770D01*
X69809Y-43188D01*
X69670Y-43048D01*
X70088Y-42631D01*
X70088Y-42631D01*
G37*
G36*
X69865Y-42408D02*
X70004Y-42547D01*
X69586Y-42965D01*
X69447Y-42826D01*
X69865Y-42408D01*
X69865Y-42408D01*
G37*
G36*
X69642Y-42185D02*
X69781Y-42324D01*
X69364Y-42742D01*
X69224Y-42603D01*
X69642Y-42185D01*
X69642Y-42185D01*
G37*
G36*
X69419Y-41962D02*
X69559Y-42102D01*
X69141Y-42520D01*
X69001Y-42380D01*
X69419Y-41962D01*
X69419Y-41962D01*
G37*
G36*
X69197Y-41740D02*
X69337Y-41880D01*
X68919Y-42298D01*
X68779Y-42158D01*
X69197Y-41740D01*
X69197Y-41740D01*
G37*
G36*
X68975Y-41518D02*
X69114Y-41657D01*
X68696Y-42075D01*
X68557Y-41935D01*
X68975Y-41518D01*
X68975Y-41518D01*
G37*
G36*
X68752Y-41295D02*
X68891Y-41434D01*
X68473Y-41852D01*
X68334Y-41713D01*
X68752Y-41295D01*
X68752Y-41295D01*
G37*
G36*
X68529Y-41072D02*
X68668Y-41211D01*
X68251Y-41629D01*
X68111Y-41490D01*
X68529Y-41072D01*
X68529Y-41072D01*
G37*
G36*
X67331Y-41211D02*
X67470Y-41072D01*
X67888Y-41490D01*
X67748Y-41629D01*
X67331Y-41211D01*
X67331Y-41211D01*
G37*
G36*
X67108Y-41434D02*
X67247Y-41295D01*
X67665Y-41713D01*
X67526Y-41852D01*
X67108Y-41434D01*
X67108Y-41434D01*
G37*
G36*
X66885Y-41657D02*
X67024Y-41518D01*
X67442Y-41935D01*
X67303Y-42075D01*
X66885Y-41657D01*
X66885Y-41657D01*
G37*
G36*
X66662Y-41880D02*
X66802Y-41740D01*
X67220Y-42158D01*
X67080Y-42298D01*
X66662Y-41880D01*
X66662Y-41880D01*
G37*
G36*
X66440Y-42102D02*
X66580Y-41962D01*
X66998Y-42380D01*
X66858Y-42520D01*
X66440Y-42102D01*
X66440Y-42102D01*
G37*
G36*
X66218Y-42324D02*
X66357Y-42185D01*
X66775Y-42603D01*
X66635Y-42742D01*
X66218Y-42324D01*
X66218Y-42324D01*
G37*
G36*
X65995Y-42547D02*
X66134Y-42408D01*
X66552Y-42826D01*
X66413Y-42965D01*
X65995Y-42547D01*
X65995Y-42547D01*
G37*
G36*
X65772Y-42770D02*
X65911Y-42631D01*
X66329Y-43048D01*
X66190Y-43188D01*
X65772Y-42770D01*
X65772Y-42770D01*
G37*
G36*
X65911Y-43968D02*
X65772Y-43829D01*
X66190Y-43411D01*
X66329Y-43551D01*
X65911Y-43968D01*
X65911Y-43968D01*
G37*
G36*
X66134Y-44191D02*
X65995Y-44052D01*
X66413Y-43634D01*
X66552Y-43773D01*
X66134Y-44191D01*
X66134Y-44191D01*
G37*
G36*
X66357Y-44414D02*
X66218Y-44275D01*
X66635Y-43857D01*
X66775Y-43996D01*
X66357Y-44414D01*
X66357Y-44414D01*
G37*
G36*
X66580Y-44637D02*
X66440Y-44497D01*
X66858Y-44079D01*
X66998Y-44219D01*
X66580Y-44637D01*
X66580Y-44637D01*
G37*
G36*
X66802Y-44859D02*
X66662Y-44719D01*
X67080Y-44301D01*
X67220Y-44441D01*
X66802Y-44859D01*
X66802Y-44859D01*
G37*
G36*
X67024Y-45081D02*
X66885Y-44942D01*
X67303Y-44524D01*
X67442Y-44664D01*
X67024Y-45081D01*
X67024Y-45081D01*
G37*
G36*
X67247Y-45304D02*
X67108Y-45165D01*
X67526Y-44747D01*
X67665Y-44886D01*
X67247Y-45304D01*
X67247Y-45304D01*
G37*
G36*
X67470Y-45527D02*
X67331Y-45388D01*
X67748Y-44970D01*
X67888Y-45109D01*
X67470Y-45527D01*
X67470Y-45527D01*
G37*
G36*
X68668Y-45388D02*
X68529Y-45527D01*
X68111Y-45109D01*
X68251Y-44970D01*
X68668Y-45388D01*
X68668Y-45388D01*
G37*
G36*
X68891Y-45165D02*
X68752Y-45304D01*
X68334Y-44886D01*
X68473Y-44747D01*
X68891Y-45165D01*
X68891Y-45165D01*
G37*
G36*
X69114Y-44942D02*
X68975Y-45081D01*
X68557Y-44664D01*
X68696Y-44524D01*
X69114Y-44942D01*
X69114Y-44942D01*
G37*
G36*
X69337Y-44719D02*
X69197Y-44859D01*
X68779Y-44441D01*
X68919Y-44301D01*
X69337Y-44719D01*
X69337Y-44719D01*
G37*
G36*
X69559Y-44497D02*
X69419Y-44637D01*
X69001Y-44219D01*
X69141Y-44079D01*
X69559Y-44497D01*
X69559Y-44497D01*
G37*
G36*
X69781Y-44275D02*
X69642Y-44414D01*
X69224Y-43996D01*
X69364Y-43857D01*
X69781Y-44275D01*
X69781Y-44275D01*
G37*
G36*
X70004Y-44052D02*
X69865Y-44191D01*
X69447Y-43773D01*
X69586Y-43634D01*
X70004Y-44052D01*
X70004Y-44052D01*
G37*
G36*
X70227Y-43829D02*
X70088Y-43968D01*
X69670Y-43551D01*
X69809Y-43411D01*
X70227Y-43829D01*
X70227Y-43829D01*
G37*
G36*
X74142Y-40104D02*
X74476Y-40438D01*
X73864Y-41050D01*
X73530Y-40716D01*
X74142Y-40104D01*
X74142Y-40104D01*
G37*
G36*
X73502Y-39463D02*
X73836Y-39797D01*
X73223Y-40410D01*
X72889Y-40076D01*
X73502Y-39463D01*
X73502Y-39463D01*
G37*
G36*
X72861Y-38823D02*
X73195Y-39157D01*
X72583Y-39769D01*
X72249Y-39435D01*
X72861Y-38823D01*
X72861Y-38823D01*
G37*
G36*
X71456Y-40869D02*
X72430Y-41843D01*
X71817Y-42456D01*
X70843Y-41482D01*
X71456Y-40869D01*
X71456Y-40869D01*
G37*
G54D23*
X75000Y-38800D03*
G54D24*
X76000Y-38800D03*
G54D25*
X62000Y-40800D03*
G54D26*
X61000Y-40800D03*
X62000Y-39800D03*
X61000Y-39800D03*
X62000Y-38800D03*
X61000Y-38800D03*
G54D23*
X64000Y-37550D03*
G54D24*
X63000Y-37550D03*
X62000Y-37550D03*
X60000Y-37550D03*
X59000Y-37550D03*
X61000Y-37550D03*
G54D23*
X70000Y-37550D03*
G54D24*
X69000Y-37550D03*
X68000Y-37550D03*
X66000Y-37550D03*
X67000Y-37550D03*
G54D10*
G36*
X71729Y-47736D02*
X71115Y-47381D01*
X71470Y-46768D01*
X72084Y-47122D01*
X71729Y-47736D01*
X71729Y-47736D01*
G37*
G54D24*
X72100Y-46386D03*
X72600Y-45520D03*
X73600Y-43787D03*
X73100Y-44653D03*
G54D10*
G36*
X61915Y-43658D02*
X62529Y-43303D01*
X62884Y-43917D01*
X62270Y-44271D01*
X61915Y-43658D01*
X61915Y-43658D01*
G37*
G54D24*
X62900Y-44653D03*
X63400Y-45520D03*
X64400Y-47252D03*
X63900Y-46386D03*
G54D23*
X64000Y-42800D03*
G54D24*
X64000Y-41800D03*
X64000Y-40800D03*
X64000Y-38800D03*
X64000Y-39800D03*
G54D23*
X68500Y-47050D03*
G54D24*
X67500Y-47050D03*
G54D23*
X75000Y-37550D03*
G54D24*
X76000Y-37550D03*
G54D41*
X69279Y-39250D03*
X66720Y-39250D03*
G54D27*
X71244Y-38800D03*
X71755Y-38800D03*
G54D10*
G36*
X69884Y-41994D02*
X69605Y-41715D01*
X69870Y-41451D01*
X70148Y-41729D01*
X69884Y-41994D01*
X69884Y-41994D01*
G37*
G36*
X70329Y-41548D02*
X70051Y-41270D01*
X70315Y-41005D01*
X70594Y-41284D01*
X70329Y-41548D01*
X70329Y-41548D01*
G37*
G54D42*
X65750Y-39964D03*
X65750Y-39335D03*
X70250Y-39964D03*
X70250Y-39335D03*
G54D10*
G36*
X69384Y-41494D02*
X69105Y-41215D01*
X69370Y-40951D01*
X69648Y-41229D01*
X69384Y-41494D01*
X69384Y-41494D01*
G37*
G36*
X69829Y-41048D02*
X69551Y-40770D01*
X69815Y-40505D01*
X70094Y-40784D01*
X69829Y-41048D01*
X69829Y-41048D01*
G37*
G36*
X65055Y-45634D02*
X65334Y-45355D01*
X65598Y-45620D01*
X65320Y-45898D01*
X65055Y-45634D01*
X65055Y-45634D01*
G37*
G36*
X65501Y-46079D02*
X65779Y-45801D01*
X66044Y-46065D01*
X65765Y-46344D01*
X65501Y-46079D01*
X65501Y-46079D01*
G37*
G36*
X66644Y-45515D02*
X66365Y-45794D01*
X66101Y-45529D01*
X66379Y-45251D01*
X66644Y-45515D01*
X66644Y-45515D01*
G37*
G36*
X66198Y-45070D02*
X65920Y-45348D01*
X65655Y-45084D01*
X65934Y-44805D01*
X66198Y-45070D01*
X66198Y-45070D01*
G37*
G54D43*
X73090Y-37550D03*
X71909Y-37550D03*
G54D10*
G36*
X74172Y-42628D02*
X73671Y-42127D01*
X73991Y-41806D01*
X74493Y-42308D01*
X74172Y-42628D01*
X74172Y-42628D01*
G37*
G36*
X75008Y-41793D02*
X74506Y-41291D01*
X74827Y-40971D01*
X75328Y-41472D01*
X75008Y-41793D01*
X75008Y-41793D01*
G37*
G54D42*
X59500Y-39114D03*
X59500Y-38485D03*
G54D44*
X64935Y-48050D03*
X65564Y-48050D03*
X72814Y-43300D03*
X72185Y-43300D03*
X65564Y-38550D03*
X64935Y-38550D03*
X65435Y-41550D03*
X66064Y-41550D03*
X68314Y-48300D03*
X67685Y-48300D03*
X65435Y-40800D03*
X66064Y-40800D03*
X68314Y-49050D03*
X67685Y-49050D03*
G54D45*
X66900Y-49100D03*
X64950Y-46050D03*
X69500Y-40350D03*
X66550Y-40500D03*
X60100Y-47400D03*
X60200Y-50150D03*
X65700Y-40350D03*
X66500Y-38050D03*
X63200Y-39950D03*
X59950Y-39800D03*
X70750Y-45950D03*
X71200Y-45450D03*
X69250Y-38250D03*
X73850Y-39350D03*
X71600Y-38150D03*
X69000Y-43050D03*
X71850Y-42950D03*
X65650Y-46550D03*
X66400Y-48550D03*
X70850Y-40200D03*
X68680Y-42390D03*
X54950Y-51800D03*
X55500Y-51800D03*
X60600Y-51250D03*
X59450Y-51450D03*
X69800Y-44850D03*
X75550Y-54500D03*
X53900Y-53650D03*
X59850Y-50950D03*
X58050Y-52100D03*
X70500Y-43800D03*
X66250Y-40150D03*
X81400Y-51600D03*
X67000Y-40500D03*
X71700Y-44100D03*
X67500Y-42400D03*
X65650Y-42200D03*
X64300Y-44550D03*
X82450Y-50500D03*
X66800Y-43650D03*
X83400Y-51550D03*
X83000Y-51200D03*
X81250Y-52700D03*
X82350Y-51600D03*
X69700Y-45650D03*
X74550Y-48800D03*
X74950Y-48750D03*
X77100Y-44450D03*
X76650Y-44400D03*
X70050Y-45950D03*
X82100Y-48600D03*
X80850Y-52050D03*
X81550Y-52400D03*
X68300Y-43850D03*
X65150Y-42050D03*
X64500Y-54250D03*
X54750Y-37500D03*
X55000Y-38000D03*
X55500Y-38000D03*
X55500Y-37500D03*
X53750Y-46000D03*
X55250Y-46000D03*
X56750Y-46000D03*
X56750Y-47500D03*
X55250Y-47500D03*
X53750Y-47500D03*
X53750Y-49000D03*
X55250Y-49000D03*
X56750Y-49000D03*
X56750Y-50500D03*
X55250Y-50500D03*
X53750Y-50500D03*
X79500Y-52650D03*
X78750Y-48150D03*
X78850Y-49050D03*
X75250Y-45100D03*
X86100Y-52800D03*
X84100Y-51250D03*
X80400Y-51000D03*
X73250Y-47500D03*
X75650Y-52950D03*
X74450Y-50800D03*
X74450Y-51250D03*
X74450Y-51700D03*
X73050Y-51700D03*
X73050Y-51250D03*
X73500Y-46750D03*
X81350Y-46750D03*
X80600Y-47050D03*
X53500Y-44500D03*
X53500Y-44000D03*
X53500Y-43500D03*
X53500Y-43000D03*
X53500Y-42500D03*
X53500Y-42000D03*
X53500Y-40500D03*
X53500Y-40000D03*
X53500Y-39500D03*
X53500Y-39000D03*
X53500Y-38500D03*
X53000Y-38000D03*
X52500Y-38000D03*
X52000Y-38500D03*
X51500Y-38500D03*
X51500Y-39000D03*
X51500Y-39500D03*
X51500Y-40000D03*
X51000Y-40000D03*
X50500Y-40000D03*
X50000Y-40000D03*
X49500Y-40000D03*
X49000Y-40000D03*
X48500Y-40000D03*
X48000Y-40000D03*
X47500Y-40000D03*
X55000Y-39000D03*
X55500Y-39000D03*
X56000Y-39000D03*
X56500Y-39000D03*
X57000Y-38500D03*
X57500Y-38000D03*
X54500Y-39000D03*
X54500Y-39500D03*
X54500Y-40000D03*
X54500Y-40500D03*
X54500Y-41000D03*
X54500Y-41500D03*
X54500Y-42000D03*
X54500Y-42500D03*
X54500Y-43000D03*
X54500Y-43500D03*
X54500Y-44000D03*
X54500Y-44500D03*
X72050Y-43775D03*
X67200Y-45700D03*
X69200Y-45600D03*
X69300Y-43500D03*
X63000Y-38450D03*
X65000Y-39850D03*
X65250Y-42450D03*
X70200Y-44300D03*
X64850Y-42750D03*
X72350Y-51150D03*
X73600Y-49650D03*
X70200Y-43350D03*
X83100Y-53500D03*
X80100Y-54150D03*
X52250Y-48000D03*
X52250Y-49000D03*
X74800Y-54000D03*
X74200Y-53700D03*
G54D46*
X78700Y-50400D03*
G54D47*
X80275Y-48583D02*
X80275Y-48575D01*
X79324Y-49500D02*
X79324Y-49425D01*
X79555Y-51533D02*
X79555Y-51277D01*
X81024Y-47716D02*
X81333Y-47716D01*
X81550Y-47500D02*
X82073Y-47500D01*
X81333Y-47716D02*
X81550Y-47500D01*
X82006Y-47566D02*
X82073Y-47500D01*
X79037Y-47186D02*
X79024Y-47200D01*
G54D48*
X70850Y-43900D02*
X70850Y-44200D01*
X67350Y-49550D02*
X66900Y-49100D01*
X68600Y-49550D02*
X67350Y-49550D01*
X69100Y-49050D02*
X68600Y-49550D01*
X69100Y-48050D02*
X69100Y-49050D01*
X69400Y-47750D02*
X69100Y-48050D01*
X69400Y-46550D02*
X69400Y-47750D01*
X69600Y-46350D02*
X69400Y-46550D01*
X70250Y-46350D02*
X69600Y-46350D01*
X70400Y-46200D02*
X70250Y-46350D01*
X70400Y-44650D02*
X70400Y-46200D01*
X70850Y-44200D02*
X70400Y-44650D01*
X65327Y-45672D02*
X64950Y-46050D01*
X64025Y-45375D02*
X65075Y-45375D01*
X65075Y-45375D02*
X65327Y-45627D01*
X69150Y-40995D02*
X69377Y-41222D01*
X69150Y-40700D02*
X69150Y-40995D01*
X69500Y-40350D02*
X69150Y-40700D01*
X66250Y-40800D02*
X66064Y-40800D01*
X66550Y-40500D02*
X66250Y-40800D01*
X62900Y-44653D02*
X63303Y-44653D01*
X63303Y-44653D02*
X64025Y-45375D01*
X65327Y-45627D02*
X65327Y-45672D01*
X66950Y-49050D02*
X67685Y-49050D01*
X66900Y-49100D02*
X66950Y-49050D01*
X72100Y-46386D02*
X71636Y-46386D01*
X71636Y-46386D02*
X70850Y-45600D01*
X70850Y-42450D02*
X71636Y-41663D01*
X70850Y-45600D02*
X70850Y-43900D01*
X70850Y-43900D02*
X70850Y-42450D01*
X62900Y-43400D02*
X62900Y-42600D01*
X62900Y-44200D02*
X63100Y-44000D01*
X63100Y-44000D02*
X63100Y-43600D01*
X63100Y-43600D02*
X62900Y-43400D01*
X61000Y-41400D02*
X61000Y-40800D01*
X62900Y-44653D02*
X62900Y-44200D01*
X62900Y-42600D02*
X62000Y-41700D01*
X62000Y-41700D02*
X61300Y-41700D01*
X61300Y-41700D02*
X61000Y-41400D01*
X62900Y-44653D02*
X62900Y-44500D01*
X61000Y-40850D02*
X61000Y-40800D01*
X63003Y-44550D02*
X62900Y-44653D01*
X69280Y-42241D02*
X69258Y-42241D01*
X69258Y-42241D02*
X68750Y-42750D01*
X68300Y-42332D02*
X68835Y-41796D01*
X68300Y-42450D02*
X68300Y-42332D01*
X68600Y-42750D02*
X68300Y-42450D01*
X68750Y-42750D02*
X68600Y-42750D01*
X66273Y-43913D02*
X66273Y-43926D01*
X66273Y-43926D02*
X65950Y-44250D01*
X65950Y-44250D02*
X65700Y-44250D01*
X65700Y-44250D02*
X65100Y-44850D01*
X65100Y-44850D02*
X65100Y-45400D01*
X65100Y-45400D02*
X65327Y-45627D01*
X69280Y-42241D02*
X69308Y-42241D01*
X69308Y-42241D02*
X69827Y-41722D01*
X69827Y-41722D02*
X69877Y-41722D01*
X68835Y-41796D02*
X68835Y-41764D01*
X68835Y-41764D02*
X69377Y-41222D01*
G54D47*
X60200Y-50850D02*
X60200Y-50150D01*
X57553Y-47068D02*
X59768Y-47068D01*
X61500Y-52000D02*
X62500Y-52000D01*
X60200Y-50900D02*
X60200Y-50850D01*
X60100Y-47400D02*
X59768Y-47068D01*
X60900Y-52000D02*
X60200Y-51300D01*
X60200Y-51300D02*
X60200Y-50900D01*
X61500Y-52000D02*
X60900Y-52000D01*
G54D48*
X65750Y-40300D02*
X65700Y-40350D01*
X65750Y-39964D02*
X65750Y-40300D01*
X63200Y-39950D02*
X63200Y-39650D01*
X60450Y-40300D02*
X59950Y-39800D01*
X61200Y-40300D02*
X60450Y-40300D01*
X61500Y-40000D02*
X61200Y-40300D01*
X61500Y-39500D02*
X61500Y-40000D01*
X61700Y-39300D02*
X61500Y-39500D01*
X62850Y-39300D02*
X61700Y-39300D01*
X63200Y-39650D02*
X62850Y-39300D01*
X72600Y-45520D02*
X71270Y-45520D01*
X71270Y-45520D02*
X71200Y-45450D01*
X68000Y-37550D02*
X68000Y-37850D01*
X68000Y-37850D02*
X68400Y-38250D01*
X68400Y-38250D02*
X69250Y-38250D01*
X74003Y-40577D02*
X74003Y-40296D01*
X74003Y-40296D02*
X74150Y-40150D01*
X74150Y-40150D02*
X74150Y-39650D01*
X74150Y-39650D02*
X73850Y-39350D01*
X71909Y-37550D02*
X71909Y-37840D01*
X71909Y-37840D02*
X71600Y-38150D01*
X66941Y-44580D02*
X66941Y-44558D01*
X66941Y-44558D02*
X68300Y-43200D01*
X69000Y-43000D02*
X69000Y-43050D01*
X69503Y-42496D02*
X69000Y-43000D01*
X68850Y-43200D02*
X69000Y-43050D01*
X68300Y-43200D02*
X68850Y-43200D01*
X72185Y-43300D02*
X72185Y-43285D01*
X72185Y-43285D02*
X71850Y-42950D01*
X69503Y-42464D02*
X69503Y-42496D01*
X65772Y-46072D02*
X65772Y-46427D01*
X65772Y-46427D02*
X65650Y-46550D01*
X67685Y-48300D02*
X66650Y-48300D01*
X66650Y-48300D02*
X66400Y-48550D01*
X70250Y-39964D02*
X70614Y-39964D01*
X70614Y-39964D02*
X70850Y-40200D01*
X69058Y-42019D02*
X69050Y-42019D01*
X69050Y-42019D02*
X68680Y-42390D01*
X66941Y-44580D02*
X66919Y-44580D01*
X66919Y-44580D02*
X66600Y-44900D01*
X66600Y-44900D02*
X66600Y-45295D01*
X66600Y-45295D02*
X66372Y-45522D01*
X70000Y-40954D02*
X70322Y-41277D01*
X69058Y-42019D02*
X69080Y-42019D01*
X69080Y-42019D02*
X70000Y-41100D01*
X70000Y-41100D02*
X70000Y-40954D01*
X70000Y-40954D02*
X69822Y-40777D01*
G54D47*
X63224Y-49500D02*
X63000Y-49500D01*
X63000Y-49500D02*
X62500Y-49000D01*
X55013Y-51104D02*
X55013Y-51736D01*
X55013Y-51736D02*
X54950Y-51800D01*
X61500Y-49000D02*
X62500Y-49000D01*
X62500Y-49000D02*
X62525Y-48974D01*
G54D48*
X68390Y-41351D02*
X68101Y-41351D01*
X67650Y-40250D02*
X67550Y-40150D01*
X67650Y-40900D02*
X67650Y-40250D01*
X68101Y-41351D02*
X67650Y-40900D01*
X66720Y-39250D02*
X66720Y-39320D01*
X66720Y-39320D02*
X67550Y-40150D01*
X65750Y-39335D02*
X66635Y-39335D01*
X66635Y-39335D02*
X66720Y-39250D01*
X68390Y-41351D02*
X68390Y-41309D01*
G54D47*
X54541Y-51104D02*
X54541Y-53091D01*
X64000Y-51500D02*
X63500Y-51000D01*
X64000Y-52400D02*
X64000Y-51500D01*
X63900Y-52500D02*
X64000Y-52400D01*
X61200Y-52500D02*
X63900Y-52500D01*
X55000Y-53550D02*
X55250Y-53550D01*
X54541Y-53091D02*
X55000Y-53550D01*
X55950Y-53550D02*
X56350Y-53150D01*
X56350Y-53150D02*
X57100Y-53150D01*
X57100Y-53150D02*
X57600Y-52650D01*
X57600Y-52650D02*
X59000Y-52650D01*
X59000Y-52650D02*
X59900Y-51750D01*
X59900Y-51750D02*
X60350Y-51750D01*
X60350Y-51750D02*
X61100Y-52500D01*
X61100Y-52500D02*
X61200Y-52500D01*
X55250Y-53550D02*
X55950Y-53550D01*
G54D48*
X70250Y-39335D02*
X69364Y-39335D01*
X69364Y-39335D02*
X69279Y-39250D01*
X68613Y-41573D02*
X68613Y-41536D01*
X68613Y-41536D02*
X68850Y-41300D01*
X68850Y-41300D02*
X68850Y-40550D01*
X68850Y-40550D02*
X69279Y-40120D01*
X69279Y-40120D02*
X69279Y-39250D01*
G54D47*
X55486Y-51104D02*
X55486Y-51786D01*
X55486Y-51786D02*
X55500Y-51800D01*
G54D48*
X66719Y-44358D02*
X66719Y-44380D01*
X66719Y-44380D02*
X66022Y-45077D01*
X66022Y-45077D02*
X65927Y-45077D01*
G54D47*
X56431Y-51104D02*
X56431Y-51531D01*
X63000Y-51500D02*
X63500Y-52000D01*
X60850Y-51500D02*
X63000Y-51500D01*
X60600Y-51250D02*
X60850Y-51500D01*
X56600Y-51700D02*
X57050Y-51700D01*
X56431Y-51531D02*
X56600Y-51700D01*
X57100Y-51700D02*
X57550Y-52150D01*
X57050Y-51700D02*
X57100Y-51700D01*
X59450Y-51900D02*
X58900Y-52450D01*
X58900Y-52450D02*
X57850Y-52450D01*
X57850Y-52450D02*
X57550Y-52150D01*
X59450Y-51450D02*
X59450Y-51900D01*
G54D48*
X73090Y-37809D02*
X73090Y-37550D01*
G54D47*
X54068Y-51104D02*
X54068Y-52350D01*
X61500Y-53000D02*
X62500Y-53000D01*
X54068Y-52868D02*
X54950Y-53750D01*
X54950Y-53750D02*
X56000Y-53750D01*
X54068Y-52350D02*
X54068Y-52868D01*
X60450Y-52150D02*
X59750Y-52150D01*
X59750Y-52150D02*
X59050Y-52850D01*
X59050Y-52850D02*
X57700Y-52850D01*
X57700Y-52850D02*
X57200Y-53350D01*
X57200Y-53350D02*
X56400Y-53350D01*
X56400Y-53350D02*
X56000Y-53750D01*
X61300Y-53000D02*
X60450Y-52150D01*
X61500Y-53000D02*
X61300Y-53000D01*
X57350Y-53800D02*
X57950Y-53800D01*
X58546Y-54396D02*
X59038Y-54396D01*
X57950Y-53800D02*
X58546Y-54396D01*
X57200Y-53650D02*
X57350Y-53800D01*
X57200Y-53350D02*
X57200Y-53650D01*
G54D48*
X62000Y-38800D02*
X61700Y-38800D01*
X61700Y-38800D02*
X61200Y-39300D01*
X69800Y-44850D02*
X69308Y-44358D01*
X69308Y-44358D02*
X69280Y-44358D01*
X62000Y-38800D02*
X62000Y-38900D01*
X61200Y-39300D02*
X59685Y-39300D01*
X59685Y-39300D02*
X59500Y-39114D01*
G54D47*
X75225Y-54383D02*
X75433Y-54383D01*
X75433Y-54383D02*
X75550Y-54500D01*
X79590Y-42272D02*
X78977Y-42272D01*
X76742Y-43500D02*
X76142Y-44100D01*
X77750Y-43500D02*
X76742Y-43500D01*
X78977Y-42272D02*
X77750Y-43500D01*
X79590Y-42272D02*
X79590Y-42501D01*
X79590Y-42501D02*
X77992Y-44100D01*
G54D48*
X59000Y-37550D02*
X59000Y-37700D01*
X59000Y-37700D02*
X59500Y-38200D01*
X59500Y-38200D02*
X59500Y-38485D01*
G54D47*
X61500Y-51000D02*
X62500Y-51000D01*
X50038Y-54396D02*
X51653Y-54396D01*
X52400Y-53650D02*
X53900Y-53650D01*
X51653Y-54396D02*
X52400Y-53650D01*
X59100Y-51900D02*
X59100Y-51800D01*
X58750Y-52250D02*
X59100Y-51900D01*
X58250Y-52250D02*
X58750Y-52250D01*
X58100Y-52100D02*
X58250Y-52250D01*
X59500Y-50950D02*
X59850Y-50950D01*
X59100Y-51350D02*
X59500Y-50950D01*
X59100Y-51800D02*
X59100Y-51350D01*
X58050Y-52100D02*
X58100Y-52100D01*
G54D48*
X70500Y-43800D02*
X70100Y-43800D01*
X69948Y-43690D02*
X69990Y-43690D01*
X69990Y-43690D02*
X70100Y-43800D01*
G54D47*
X61500Y-50000D02*
X62500Y-50000D01*
G54D48*
X67400Y-40700D02*
X67400Y-40400D01*
X67150Y-40150D02*
X66250Y-40150D01*
X67400Y-40400D02*
X67150Y-40150D01*
X67609Y-41309D02*
X67400Y-41100D01*
X67400Y-40700D02*
X67400Y-41100D01*
X67609Y-41351D02*
X67609Y-41309D01*
X67609Y-41309D02*
X67609Y-41351D01*
G54D47*
X81366Y-51018D02*
X81366Y-51566D01*
X81366Y-51566D02*
X81400Y-51600D01*
G54D48*
X67000Y-40650D02*
X67000Y-40500D01*
X67386Y-41573D02*
X67386Y-41536D01*
X67386Y-41536D02*
X67000Y-41150D01*
X67000Y-41150D02*
X67000Y-40650D01*
X67386Y-41573D02*
X67373Y-41573D01*
X72600Y-44100D02*
X73100Y-44600D01*
X71700Y-44100D02*
X72600Y-44100D01*
X73100Y-44600D02*
X73100Y-44653D01*
G54D47*
X81500Y-52100D02*
X81700Y-52100D01*
X83024Y-52750D02*
X83224Y-52950D01*
X82350Y-52750D02*
X83024Y-52750D01*
X81700Y-52100D02*
X82350Y-52750D01*
X80854Y-53282D02*
X80854Y-52496D01*
X81250Y-52100D02*
X81500Y-52100D01*
X80854Y-52496D02*
X81250Y-52100D01*
X83224Y-52950D02*
X83200Y-52950D01*
G54D48*
X67164Y-41796D02*
X67196Y-41796D01*
X67196Y-41796D02*
X67500Y-42100D01*
X67500Y-42100D02*
X67500Y-42400D01*
X65650Y-42200D02*
X65650Y-42500D01*
X65650Y-42500D02*
X65400Y-42750D01*
X65400Y-42750D02*
X65400Y-43450D01*
X65400Y-43450D02*
X64300Y-44550D01*
G54D47*
X81400Y-51900D02*
X81850Y-51900D01*
X82300Y-52350D02*
X83224Y-52350D01*
X81850Y-51900D02*
X82300Y-52350D01*
X81350Y-51900D02*
X81400Y-51900D01*
X81150Y-51900D02*
X80854Y-51604D01*
X81350Y-51900D02*
X81150Y-51900D01*
X80854Y-51604D02*
X80854Y-51018D01*
G54D48*
X66064Y-41550D02*
X66472Y-41550D01*
X66472Y-41550D02*
X66941Y-42019D01*
G54D47*
X82390Y-51018D02*
X82390Y-50560D01*
X82390Y-50560D02*
X82450Y-50500D01*
G54D48*
X66550Y-42962D02*
X66273Y-42686D01*
X66550Y-43400D02*
X66550Y-42962D01*
X66800Y-43650D02*
X66550Y-43400D01*
G54D47*
X81878Y-51018D02*
X81878Y-51578D01*
X82900Y-52050D02*
X83400Y-51550D01*
X82350Y-52050D02*
X82900Y-52050D01*
X81878Y-51578D02*
X82350Y-52050D01*
G54D48*
X64200Y-44900D02*
X64450Y-44900D01*
X64450Y-44900D02*
X64600Y-44750D01*
X63450Y-43000D02*
X63450Y-43250D01*
X63450Y-43250D02*
X63600Y-43400D01*
X66051Y-43198D02*
X66051Y-42909D01*
X64600Y-44650D02*
X66051Y-43198D01*
X64600Y-44750D02*
X64600Y-44650D01*
X63600Y-44300D02*
X64200Y-44900D01*
X63600Y-43400D02*
X63600Y-44300D01*
X63450Y-42250D02*
X63150Y-41950D01*
X63450Y-43000D02*
X63450Y-42250D01*
X63150Y-41950D02*
X62000Y-40800D01*
G54D47*
X82646Y-51018D02*
X82818Y-51018D01*
X82818Y-51018D02*
X83000Y-51200D01*
G54D48*
X64150Y-45150D02*
X64500Y-45150D01*
X64850Y-44800D02*
X64850Y-44750D01*
X64500Y-45150D02*
X64850Y-44800D01*
X63200Y-43250D02*
X63200Y-43350D01*
X63200Y-43350D02*
X63350Y-43500D01*
X64850Y-44750D02*
X64850Y-44750D01*
X64850Y-44750D02*
X64950Y-44650D01*
X65450Y-44150D02*
X65600Y-44000D01*
X65600Y-44000D02*
X65741Y-44000D01*
X65741Y-44000D02*
X66051Y-43690D01*
X65450Y-44150D02*
X64950Y-44650D01*
X63350Y-44350D02*
X64150Y-45150D01*
X63350Y-43500D02*
X63350Y-44350D01*
X66051Y-43690D02*
X66009Y-43690D01*
X63200Y-43250D02*
X63200Y-42450D01*
X63200Y-42450D02*
X62200Y-41450D01*
X62200Y-41450D02*
X61600Y-41450D01*
X61600Y-41450D02*
X61500Y-41350D01*
X61500Y-41350D02*
X61500Y-40300D01*
X61500Y-40300D02*
X62000Y-39800D01*
G54D47*
X82134Y-51018D02*
X82134Y-51384D01*
X81110Y-52840D02*
X81110Y-53282D01*
X81250Y-52700D02*
X81110Y-52840D01*
X82134Y-51384D02*
X82350Y-51600D01*
X80350Y-52774D02*
X80524Y-52774D01*
X80650Y-52900D02*
X80650Y-53700D01*
X80524Y-52774D02*
X80650Y-52900D01*
X81050Y-53700D02*
X81300Y-53700D01*
X81366Y-53634D02*
X81366Y-53282D01*
X81300Y-53700D02*
X81366Y-53634D01*
X81110Y-53282D02*
X81110Y-53640D01*
X81110Y-53640D02*
X81050Y-53700D01*
X80574Y-53775D02*
X80574Y-54000D01*
X80650Y-53700D02*
X80574Y-53775D01*
X81050Y-53700D02*
X80650Y-53700D01*
X82134Y-51018D02*
X82134Y-50416D01*
X81324Y-49325D02*
X81324Y-49600D01*
X81450Y-49200D02*
X81324Y-49325D01*
X82150Y-49200D02*
X81450Y-49200D01*
X82250Y-49300D02*
X82150Y-49200D01*
X82250Y-50300D02*
X82250Y-49300D01*
X82134Y-50416D02*
X82250Y-50300D01*
G54D48*
X69700Y-45650D02*
X68853Y-44803D01*
X68853Y-44803D02*
X68835Y-44803D01*
G54D47*
X74550Y-48800D02*
X72050Y-48800D01*
X71724Y-49125D02*
X71724Y-49500D01*
X72050Y-48800D02*
X71724Y-49125D01*
X74750Y-48800D02*
X74550Y-48800D01*
X77244Y-44100D02*
X77244Y-44305D01*
X77244Y-44305D02*
X77100Y-44450D01*
X77244Y-44100D02*
X76950Y-44100D01*
X76950Y-44100D02*
X76650Y-44400D01*
X74984Y-48250D02*
X75250Y-48250D01*
X76900Y-44100D02*
X77244Y-44100D01*
X72051Y-51750D02*
X72300Y-51750D01*
X74984Y-48565D02*
X74984Y-48250D01*
X74750Y-48800D02*
X74984Y-48565D01*
X75034Y-48300D02*
X74984Y-48250D01*
G54D48*
X70025Y-45925D02*
X70025Y-45425D01*
X70050Y-45950D02*
X70025Y-45925D01*
X69777Y-45300D02*
X69058Y-44580D01*
X70025Y-45425D02*
X69900Y-45300D01*
X69900Y-45300D02*
X69777Y-45300D01*
G54D47*
X83726Y-47500D02*
X83800Y-47500D01*
X83800Y-47500D02*
X84150Y-47850D01*
X84150Y-47850D02*
X84150Y-48698D01*
X82900Y-48698D02*
X82198Y-48698D01*
X82198Y-48698D02*
X82100Y-48600D01*
X80350Y-52125D02*
X80774Y-52125D01*
X80774Y-52125D02*
X80850Y-52050D01*
X81622Y-52472D02*
X81622Y-53282D01*
X81550Y-52400D02*
X81622Y-52472D01*
X84150Y-48698D02*
X82900Y-48698D01*
G54D48*
X65564Y-38550D02*
X65564Y-38735D01*
X65564Y-38735D02*
X65350Y-38950D01*
X67800Y-44612D02*
X67386Y-45026D01*
X67800Y-44350D02*
X67800Y-44612D01*
X68300Y-43850D02*
X67800Y-44350D01*
X65050Y-41950D02*
X65150Y-42050D01*
X65050Y-40300D02*
X65050Y-41950D01*
X65350Y-40000D02*
X65050Y-40300D01*
X65350Y-38950D02*
X65350Y-40000D01*
X66000Y-37550D02*
X66000Y-38350D01*
X65800Y-38550D02*
X65564Y-38550D01*
X66000Y-38350D02*
X65800Y-38550D01*
G54D47*
X64500Y-53000D02*
X64500Y-54250D01*
X55959Y-37500D02*
X55500Y-37500D01*
X55500Y-38000D02*
X55000Y-38000D01*
X54403Y-46832D02*
X54403Y-46653D01*
X54403Y-46653D02*
X53750Y-46000D01*
X55250Y-46000D02*
X56750Y-46000D01*
X56750Y-47500D02*
X55250Y-47500D01*
X53750Y-47500D02*
X53750Y-49000D01*
X55250Y-49000D02*
X56750Y-49000D01*
X56750Y-50500D02*
X55250Y-50500D01*
X57553Y-48958D02*
X58433Y-48958D01*
X58433Y-48958D02*
X58500Y-49025D01*
X57553Y-49903D02*
X58320Y-49903D01*
X58320Y-49903D02*
X58500Y-49724D01*
X78934Y-53550D02*
X78934Y-53215D01*
X78934Y-53215D02*
X79500Y-52650D01*
X79200Y-48551D02*
X79151Y-48551D01*
X79151Y-48551D02*
X78750Y-48150D01*
X79200Y-48551D02*
X79200Y-48700D01*
X79200Y-48700D02*
X78850Y-49050D01*
X75929Y-45094D02*
X75255Y-45094D01*
X75255Y-45094D02*
X75250Y-45100D01*
X85137Y-53188D02*
X85261Y-53188D01*
X85261Y-53188D02*
X85650Y-52800D01*
X85650Y-52800D02*
X86100Y-52800D01*
X84312Y-51711D02*
X84312Y-51462D01*
X84312Y-51462D02*
X84100Y-51250D01*
X81622Y-51018D02*
X81622Y-50572D01*
X80350Y-51050D02*
X80400Y-51000D01*
X80350Y-51050D02*
X80350Y-51574D01*
X80600Y-50800D02*
X80400Y-51000D01*
X80600Y-50350D02*
X80600Y-50800D01*
X81000Y-49950D02*
X80600Y-50350D01*
X81550Y-49950D02*
X81000Y-49950D01*
X81600Y-50000D02*
X81550Y-49950D01*
X81600Y-50550D02*
X81600Y-50000D01*
X81622Y-50572D02*
X81600Y-50550D01*
X73015Y-48250D02*
X73015Y-47734D01*
X73015Y-47734D02*
X73250Y-47500D01*
X75250Y-52825D02*
X75525Y-52825D01*
X75525Y-52825D02*
X75650Y-52950D01*
X78934Y-53550D02*
X79200Y-53550D01*
X73750Y-51250D02*
X74000Y-51250D01*
X74000Y-51250D02*
X74450Y-50800D01*
X73750Y-51250D02*
X74450Y-51250D01*
X74000Y-51250D02*
X74450Y-51700D01*
X73750Y-51250D02*
X73500Y-51250D01*
X73500Y-51250D02*
X73050Y-51700D01*
X73750Y-51250D02*
X73050Y-51250D01*
X78934Y-53550D02*
X80125Y-53550D01*
X80125Y-53550D02*
X80350Y-53325D01*
X81878Y-53282D02*
X81878Y-53628D01*
X81878Y-53628D02*
X82500Y-54250D01*
X82900Y-49801D02*
X82601Y-49801D01*
X84312Y-51711D02*
X84235Y-51711D01*
X84235Y-51711D02*
X83224Y-50700D01*
X82900Y-49801D02*
X82900Y-50375D01*
X82900Y-50375D02*
X83224Y-50700D01*
X85039Y-51557D02*
X84465Y-51557D01*
X84465Y-51557D02*
X84312Y-51711D01*
X73198Y-54250D02*
X73198Y-54398D01*
X73198Y-54398D02*
X73600Y-54800D01*
X75974Y-54675D02*
X75974Y-54383D01*
X75850Y-54800D02*
X75974Y-54675D01*
X73600Y-54800D02*
X75850Y-54800D01*
X72924Y-53300D02*
X72924Y-52408D01*
X72924Y-52408D02*
X73000Y-52332D01*
X70500Y-53000D02*
X70500Y-52248D01*
X70500Y-52248D02*
X70948Y-51800D01*
X70500Y-53000D02*
X70500Y-53300D01*
X75974Y-54383D02*
X78101Y-54383D01*
X78101Y-54383D02*
X78934Y-53550D01*
X75250Y-49974D02*
X74692Y-49974D01*
X74692Y-49974D02*
X74500Y-50167D01*
X70948Y-51750D02*
X70948Y-51901D01*
X71350Y-50700D02*
X71350Y-50800D01*
X70948Y-51201D02*
X70948Y-51750D01*
X71350Y-50800D02*
X70948Y-51201D01*
X71724Y-50150D02*
X71450Y-50150D01*
X71450Y-50800D02*
X71724Y-50800D01*
X71350Y-50700D02*
X71450Y-50800D01*
X71350Y-50250D02*
X71350Y-50700D01*
X71450Y-50150D02*
X71350Y-50250D01*
X73198Y-54250D02*
X73198Y-53898D01*
X73198Y-53898D02*
X72924Y-53624D01*
X72924Y-53624D02*
X72924Y-53300D01*
X73000Y-53224D02*
X72924Y-53300D01*
X79883Y-45761D02*
X80553Y-45092D01*
X79812Y-45761D02*
X79883Y-45761D01*
X73924Y-46325D02*
X73500Y-46750D01*
X73924Y-46127D02*
X73924Y-46325D01*
X81050Y-47050D02*
X81350Y-46750D01*
X80650Y-47716D02*
X80650Y-47100D01*
X80650Y-47100D02*
X80600Y-47050D01*
X80600Y-47050D02*
X81050Y-47050D01*
X53596Y-44596D02*
X53500Y-44500D01*
X53500Y-44000D02*
X53500Y-43500D01*
X53500Y-43000D02*
X53500Y-42500D01*
X53596Y-45395D02*
X53596Y-44596D01*
X53161Y-40838D02*
X53500Y-40500D01*
X53500Y-40000D02*
X53500Y-39500D01*
X53500Y-39000D02*
X53500Y-38500D01*
X53000Y-38000D02*
X52500Y-38000D01*
X52000Y-38500D02*
X51500Y-38500D01*
X51500Y-39000D02*
X51500Y-39500D01*
X51500Y-40000D02*
X51000Y-40000D01*
X50500Y-40000D02*
X50000Y-40000D01*
X49500Y-40000D02*
X49000Y-40000D01*
X48500Y-40000D02*
X48000Y-40000D01*
X53161Y-41403D02*
X53161Y-40838D01*
X55500Y-39000D02*
X56000Y-39000D01*
X56500Y-39000D02*
X57000Y-38500D01*
X54541Y-45395D02*
X54541Y-44541D01*
X54500Y-40000D02*
X54500Y-39500D01*
X54500Y-41000D02*
X54500Y-40500D01*
X54500Y-42000D02*
X54500Y-41500D01*
X54500Y-43000D02*
X54500Y-42500D01*
X54500Y-44000D02*
X54500Y-43500D01*
X54541Y-44541D02*
X54500Y-44500D01*
X54500Y-39000D02*
X55000Y-39000D01*
G54D48*
X72050Y-43775D02*
X73587Y-43775D01*
X73587Y-43775D02*
X73600Y-43787D01*
X67609Y-45248D02*
X67609Y-45290D01*
X67609Y-45290D02*
X67200Y-45700D01*
X72814Y-43300D02*
X73112Y-43300D01*
X73112Y-43300D02*
X73600Y-43787D01*
G54D49*
X51700Y-37374D02*
X50302Y-37374D01*
G54D47*
X50302Y-37374D02*
X50277Y-37350D01*
G54D49*
X52324Y-37350D02*
X51724Y-37350D01*
G54D47*
X51724Y-37350D02*
X51700Y-37374D01*
G54D48*
X68390Y-45248D02*
X68390Y-45840D01*
X66302Y-47252D02*
X64400Y-47252D01*
X66800Y-47750D02*
X66302Y-47252D01*
X68950Y-47750D02*
X66800Y-47750D01*
X69100Y-47600D02*
X68950Y-47750D01*
X69100Y-46550D02*
X69100Y-47600D01*
X68390Y-45840D02*
X69100Y-46550D01*
X64935Y-48050D02*
X64600Y-48050D01*
X64400Y-47850D02*
X64400Y-47252D01*
X64600Y-48050D02*
X64400Y-47850D01*
G54D47*
X75250Y-52274D02*
X75250Y-51675D01*
X74500Y-52332D02*
X75191Y-52332D01*
X75191Y-52332D02*
X75250Y-52274D01*
G54D48*
X69200Y-45600D02*
X68626Y-45026D01*
X68626Y-45026D02*
X68613Y-45026D01*
G54D49*
X53500Y-37374D02*
X52900Y-37374D01*
G54D47*
X52900Y-37374D02*
X52875Y-37350D01*
G54D49*
X54150Y-37974D02*
X54150Y-37650D01*
X53874Y-37374D02*
X53500Y-37374D01*
X54150Y-37650D02*
X53874Y-37374D01*
G54D48*
X69503Y-44135D02*
X69503Y-44103D01*
X69503Y-44103D02*
X69250Y-43850D01*
X69250Y-43550D02*
X69300Y-43500D01*
X69250Y-43850D02*
X69250Y-43550D01*
X61000Y-37550D02*
X61000Y-37650D01*
X61000Y-37650D02*
X61449Y-38099D01*
X62649Y-38099D02*
X63000Y-38450D01*
X61449Y-38099D02*
X62649Y-38099D01*
X65000Y-39850D02*
X64800Y-40049D01*
X64800Y-40049D02*
X64800Y-42250D01*
X64800Y-42250D02*
X65000Y-42450D01*
X65000Y-42450D02*
X65250Y-42450D01*
X69503Y-44135D02*
X69485Y-44135D01*
G54D49*
X54068Y-45395D02*
X54068Y-44818D01*
X54000Y-38675D02*
X54150Y-38525D01*
X54000Y-44750D02*
X54000Y-38675D01*
X54068Y-44818D02*
X54000Y-44750D01*
X54150Y-38525D02*
X54700Y-38525D01*
G54D47*
X54700Y-38525D02*
X54724Y-38550D01*
X54068Y-38606D02*
X54150Y-38525D01*
G54D48*
X70200Y-44300D02*
X70112Y-44300D01*
X70112Y-44300D02*
X69726Y-43913D01*
X62050Y-38300D02*
X62400Y-38300D01*
X63550Y-38400D02*
X63550Y-38300D01*
X63100Y-38850D02*
X63550Y-38400D01*
X62950Y-38850D02*
X63100Y-38850D01*
X62400Y-38300D02*
X62950Y-38850D01*
X60000Y-37550D02*
X60000Y-37750D01*
X60000Y-37750D02*
X60550Y-38300D01*
X63550Y-38300D02*
X63650Y-38200D01*
X69763Y-43913D02*
X70100Y-44300D01*
X70100Y-44300D02*
X70200Y-44300D01*
X64850Y-42750D02*
X64600Y-42500D01*
X64600Y-42500D02*
X64600Y-39050D01*
X64600Y-39050D02*
X64550Y-39000D01*
X64550Y-39000D02*
X64550Y-38550D01*
X64550Y-38550D02*
X64200Y-38200D01*
X64200Y-38200D02*
X63650Y-38200D01*
X60550Y-38300D02*
X62050Y-38300D01*
X69726Y-43913D02*
X69763Y-43913D01*
G54D49*
X55275Y-38550D02*
X56450Y-38550D01*
X56550Y-38450D02*
X56550Y-38090D01*
X56450Y-38550D02*
X56550Y-38450D01*
G54D48*
X65435Y-40800D02*
X65435Y-41550D01*
G54D47*
X75250Y-51124D02*
X75250Y-50525D01*
G54D48*
X68314Y-48300D02*
X68650Y-48300D01*
X68700Y-49050D02*
X68314Y-49050D01*
X68850Y-48900D02*
X68700Y-49050D01*
X68850Y-48500D02*
X68850Y-48900D01*
X68650Y-48300D02*
X68850Y-48500D01*
G54D47*
X72275Y-50800D02*
X72275Y-51075D01*
X72275Y-51075D02*
X72350Y-51150D01*
X73500Y-50167D02*
X73500Y-49750D01*
X73500Y-49750D02*
X73600Y-49650D01*
X72275Y-50924D02*
X72275Y-50800D01*
G54D50*
X84900Y-50700D02*
X84900Y-50551D01*
X84900Y-50551D02*
X84150Y-49801D01*
X85551Y-52444D02*
X85755Y-52444D01*
X84900Y-50700D02*
X83775Y-50700D01*
X85650Y-51450D02*
X84900Y-50700D01*
X85650Y-51750D02*
X85650Y-51450D01*
X85900Y-52000D02*
X85650Y-51750D01*
X85900Y-52300D02*
X85900Y-52000D01*
X85755Y-52444D02*
X85900Y-52300D01*
G54D47*
X84862Y-52711D02*
X84588Y-52711D01*
X84350Y-52950D02*
X83775Y-52950D01*
X84588Y-52711D02*
X84350Y-52950D01*
X85423Y-52222D02*
X85327Y-52222D01*
X85327Y-52222D02*
X84862Y-52687D01*
X84862Y-52687D02*
X84862Y-52711D01*
X84587Y-52188D02*
X84461Y-52188D01*
X84461Y-52188D02*
X84300Y-52350D01*
X84300Y-52350D02*
X83775Y-52350D01*
X85295Y-52001D02*
X85198Y-52001D01*
X85198Y-52001D02*
X85000Y-52200D01*
X85000Y-52200D02*
X84599Y-52200D01*
X84599Y-52200D02*
X84587Y-52188D01*
G54D48*
X66496Y-44135D02*
X66496Y-44153D01*
X66496Y-44153D02*
X66150Y-44500D01*
X66150Y-44500D02*
X65800Y-44500D01*
X65800Y-44500D02*
X65400Y-44900D01*
X65400Y-44900D02*
X65400Y-45150D01*
X65400Y-45150D02*
X66350Y-46100D01*
X66350Y-46100D02*
X66700Y-46100D01*
X66700Y-46100D02*
X67500Y-46900D01*
X67500Y-46900D02*
X67500Y-47050D01*
G54D47*
X77250Y-49603D02*
X77496Y-49603D01*
X77496Y-49603D02*
X78076Y-49023D01*
X78076Y-49023D02*
X78076Y-48300D01*
X77096Y-49450D02*
X77250Y-49603D01*
G54D48*
X67164Y-44803D02*
X67146Y-44803D01*
X67146Y-44803D02*
X66850Y-45100D01*
X66850Y-45100D02*
X66850Y-45950D01*
X66850Y-45950D02*
X67250Y-46350D01*
X67250Y-46350D02*
X68100Y-46350D01*
X68100Y-46350D02*
X68500Y-46750D01*
X68500Y-46750D02*
X68500Y-47050D01*
G54D47*
X75600Y-53516D02*
X74842Y-53516D01*
X74842Y-53516D02*
X74625Y-53300D01*
X74625Y-53300D02*
X74625Y-53175D01*
X74625Y-53175D02*
X74400Y-52950D01*
X74400Y-52950D02*
X74200Y-52950D01*
X74200Y-52950D02*
X74000Y-52750D01*
X74000Y-52750D02*
X74000Y-52332D01*
X74000Y-50167D02*
X74000Y-50500D01*
X72725Y-50600D02*
X72275Y-50150D01*
X73900Y-50600D02*
X72725Y-50600D01*
X74000Y-50500D02*
X73900Y-50600D01*
X72275Y-50150D02*
X72275Y-49500D01*
G54D48*
X70200Y-43350D02*
X70200Y-43050D01*
X70200Y-43050D02*
X70059Y-42909D01*
X70059Y-42909D02*
X69948Y-42909D01*
G54D47*
X80574Y-54650D02*
X80300Y-54650D01*
X82134Y-53584D02*
X82134Y-53282D01*
X82300Y-53750D02*
X82134Y-53584D01*
X82850Y-53750D02*
X82300Y-53750D01*
X83100Y-53500D02*
X82850Y-53750D01*
X80100Y-54450D02*
X80100Y-54150D01*
X80300Y-54650D02*
X80100Y-54450D01*
X81110Y-51018D02*
X81110Y-50514D01*
X81110Y-50514D02*
X81324Y-50300D01*
X52946Y-46596D02*
X51846Y-46596D01*
X51846Y-46596D02*
X51250Y-46000D01*
X57553Y-48013D02*
X59236Y-48013D01*
X59236Y-48013D02*
X59500Y-47750D01*
X57553Y-46596D02*
X58429Y-46596D01*
X58429Y-46596D02*
X58500Y-46525D01*
X57553Y-46124D02*
X58125Y-46124D01*
X58275Y-45974D02*
X58500Y-45974D01*
X58125Y-46124D02*
X58275Y-45974D01*
X56903Y-45395D02*
X56903Y-44846D01*
X57025Y-44724D02*
X57025Y-44500D01*
X56903Y-44846D02*
X57025Y-44724D01*
X56431Y-45395D02*
X56431Y-44543D01*
X56431Y-44543D02*
X56474Y-44500D01*
X52946Y-47541D02*
X51791Y-47541D01*
X51791Y-47541D02*
X51250Y-47000D01*
X51781Y-48000D02*
X51250Y-48000D01*
X52946Y-48013D02*
X52263Y-48013D01*
X52263Y-48013D02*
X52250Y-48000D01*
X52946Y-48958D02*
X52291Y-48958D01*
X52250Y-48000D02*
X51781Y-48000D01*
X52291Y-48958D02*
X52250Y-49000D01*
X52946Y-48486D02*
X52263Y-48486D01*
X51750Y-49000D02*
X51250Y-49000D01*
X52263Y-48486D02*
X51750Y-49000D01*
X52946Y-49431D02*
X51818Y-49431D01*
X51818Y-49431D02*
X51250Y-50000D01*
X81125Y-54000D02*
X81125Y-54650D01*
X81875Y-50300D02*
X81875Y-49600D01*
G54D51*
X63775Y-49500D02*
X63775Y-49775D01*
X63775Y-49775D02*
X64500Y-50500D01*
X64500Y-50500D02*
X64500Y-51000D01*
X63775Y-49500D02*
X63775Y-49025D01*
X60525Y-48474D02*
X60750Y-48250D01*
X60750Y-48250D02*
X63000Y-48250D01*
X63000Y-48250D02*
X63775Y-49025D01*
X60525Y-48474D02*
X59000Y-48474D01*
X58500Y-50275D02*
X59024Y-50275D01*
X59024Y-48474D02*
X59000Y-48474D01*
X59000Y-48474D02*
X57564Y-48474D01*
X59250Y-48700D02*
X59024Y-48474D01*
X59250Y-50050D02*
X59250Y-48700D01*
X59024Y-50275D02*
X59250Y-50050D01*
X57564Y-48474D02*
X57553Y-48486D01*
X57553Y-50375D02*
X58399Y-50375D01*
X58399Y-50375D02*
X58500Y-50275D01*
G54D47*
X58399Y-50375D02*
X58500Y-50275D01*
X58488Y-48486D02*
X58500Y-48474D01*
X64500Y-51000D02*
X64500Y-50800D01*
X53553Y-54396D02*
X53161Y-54396D01*
X55346Y-54396D02*
X54750Y-53800D01*
X54750Y-53800D02*
X54150Y-53800D01*
X54150Y-53800D02*
X53553Y-54396D01*
X57661Y-54396D02*
X55346Y-54396D01*
X74301Y-54250D02*
X74550Y-54250D01*
X74550Y-54250D02*
X74800Y-54000D01*
X74301Y-54250D02*
X74251Y-53751D01*
X74251Y-53751D02*
X74200Y-53700D01*
X74301Y-54250D02*
X74500Y-54250D01*
X78944Y-51533D02*
X77487Y-51533D01*
X77487Y-51533D02*
X77250Y-51296D01*
X78944Y-51533D02*
X78944Y-51277D01*
X79555Y-51022D02*
X79377Y-51022D01*
X79122Y-51277D02*
X78944Y-51277D01*
X79377Y-51022D02*
X79122Y-51277D01*
X77250Y-51296D02*
X78253Y-51296D01*
X76853Y-51296D02*
X77250Y-51296D01*
X77015Y-51530D02*
X77250Y-51296D01*
X74074Y-53300D02*
X73475Y-53300D01*
X73475Y-53300D02*
X73475Y-52357D01*
X73475Y-52357D02*
X73500Y-52332D01*
X75394Y-44100D02*
X75394Y-44254D01*
G54D50*
X78944Y-51022D02*
X78944Y-50766D01*
X80275Y-46424D02*
X80275Y-47716D01*
X80925Y-45774D02*
X80275Y-46424D01*
X80946Y-45774D02*
X80925Y-45774D01*
X80273Y-46424D02*
X80087Y-46238D01*
X80275Y-46424D02*
X80273Y-46424D01*
X78944Y-50644D02*
X78700Y-50400D01*
X78944Y-50766D02*
X78944Y-50644D01*
G54D10*
G36*
X75750Y-53058D02*
X75678Y-53058D01*
X75422Y-53058D01*
X75330Y-53096D01*
X75260Y-53166D01*
X75235Y-53226D01*
X75013Y-53226D01*
X75013Y-53112D01*
X74975Y-53020D01*
X74904Y-52950D01*
X74813Y-52912D01*
X74772Y-52912D01*
X74750Y-52889D01*
X74750Y-52812D01*
X74779Y-52800D01*
X74849Y-52730D01*
X74887Y-52638D01*
X74887Y-52622D01*
X74969Y-52622D01*
X74970Y-52624D01*
X75062Y-52662D01*
X75161Y-52662D01*
X75437Y-52662D01*
X75529Y-52624D01*
X75599Y-52553D01*
X75637Y-52461D01*
X75637Y-52362D01*
X75637Y-52086D01*
X75599Y-51995D01*
X75579Y-51975D01*
X75599Y-51954D01*
X75637Y-51863D01*
X75637Y-51763D01*
X75637Y-51488D01*
X75601Y-51400D01*
X75637Y-51311D01*
X75637Y-51212D01*
X75637Y-50936D01*
X75599Y-50845D01*
X75579Y-50825D01*
X75599Y-50804D01*
X75637Y-50713D01*
X75637Y-50613D01*
X75637Y-50338D01*
X75599Y-50246D01*
X75529Y-50175D01*
X75437Y-50137D01*
X75338Y-50137D01*
X75062Y-50137D01*
X74970Y-50175D01*
X74900Y-50246D01*
X74862Y-50338D01*
X74862Y-50437D01*
X74862Y-50713D01*
X74900Y-50804D01*
X74920Y-50824D01*
X74900Y-50845D01*
X74862Y-50936D01*
X74862Y-51036D01*
X74862Y-51311D01*
X74898Y-51399D01*
X74862Y-51488D01*
X74862Y-51587D01*
X74862Y-51863D01*
X74900Y-51954D01*
X74920Y-51974D01*
X74900Y-51995D01*
X74887Y-52026D01*
X74849Y-51935D01*
X74779Y-51864D01*
X74750Y-51852D01*
X74750Y-51850D01*
X74743Y-51850D01*
X74687Y-51826D01*
X74588Y-51826D01*
X74312Y-51826D01*
X74256Y-51850D01*
X74243Y-51850D01*
X74187Y-51826D01*
X74088Y-51826D01*
X73812Y-51826D01*
X73756Y-51850D01*
X73743Y-51850D01*
X73687Y-51826D01*
X73588Y-51826D01*
X73312Y-51826D01*
X73256Y-51850D01*
X73150Y-51850D01*
X73150Y-51935D01*
X73112Y-52027D01*
X73112Y-52126D01*
X73112Y-52638D01*
X73150Y-52729D01*
X73150Y-52996D01*
X73125Y-53020D01*
X73087Y-53112D01*
X73087Y-53211D01*
X73087Y-53487D01*
X73125Y-53579D01*
X73150Y-53603D01*
X73150Y-53633D01*
X73650Y-53833D01*
X73650Y-54725D01*
X72600Y-54725D01*
X72074Y-54725D01*
X72104Y-54654D01*
X72104Y-54554D01*
X72104Y-53845D01*
X72066Y-53754D01*
X71995Y-53683D01*
X71904Y-53645D01*
X71804Y-53645D01*
X71095Y-53645D01*
X71004Y-53683D01*
X70933Y-53754D01*
X70895Y-53845D01*
X70895Y-53945D01*
X70895Y-54654D01*
X70925Y-54725D01*
X68476Y-54725D01*
X71259Y-49900D01*
X71913Y-49900D01*
X71887Y-49962D01*
X71887Y-50061D01*
X71887Y-50337D01*
X71925Y-50429D01*
X71950Y-50453D01*
X71950Y-50496D01*
X71925Y-50520D01*
X71887Y-50612D01*
X71887Y-50711D01*
X71887Y-50987D01*
X71925Y-51079D01*
X71950Y-51103D01*
X71949Y-51195D01*
X71686Y-51195D01*
X71676Y-51200D01*
X71450Y-51200D01*
X71450Y-52217D01*
X70900Y-52467D01*
X70900Y-52585D01*
X70895Y-52595D01*
X70895Y-52695D01*
X70895Y-53404D01*
X70900Y-53414D01*
X70900Y-53600D01*
X71085Y-53600D01*
X71095Y-53604D01*
X71195Y-53604D01*
X71904Y-53604D01*
X71914Y-53600D01*
X72150Y-53600D01*
X72150Y-52819D01*
X72600Y-52319D01*
X72600Y-52243D01*
X72616Y-52204D01*
X72616Y-52104D01*
X72616Y-51449D01*
X72688Y-51376D01*
X72749Y-51229D01*
X72750Y-51070D01*
X72689Y-50923D01*
X72663Y-50897D01*
X72663Y-50888D01*
X72663Y-50877D01*
X72725Y-50890D01*
X73900Y-50890D01*
X74010Y-50867D01*
X74105Y-50805D01*
X74205Y-50705D01*
X74241Y-50651D01*
X74279Y-50635D01*
X74349Y-50564D01*
X74387Y-50472D01*
X74387Y-50373D01*
X74387Y-50227D01*
X75061Y-49900D01*
X75433Y-49900D01*
X75750Y-50125D01*
X75750Y-53058D01*
X75750Y-53058D01*
G37*
G54D48*
X75750Y-53058D02*
X75678Y-53058D01*
X75422Y-53058D01*
X75330Y-53096D01*
X75260Y-53166D01*
X75235Y-53226D01*
X75013Y-53226D01*
X75013Y-53112D01*
X74975Y-53020D01*
X74904Y-52950D01*
X74813Y-52912D01*
X74772Y-52912D01*
X74750Y-52889D01*
X74750Y-52812D01*
X74779Y-52800D01*
X74849Y-52730D01*
X74887Y-52638D01*
X74887Y-52622D01*
X74969Y-52622D01*
X74970Y-52624D01*
X75062Y-52662D01*
X75161Y-52662D01*
X75437Y-52662D01*
X75529Y-52624D01*
X75599Y-52553D01*
X75637Y-52461D01*
X75637Y-52362D01*
X75637Y-52086D01*
X75599Y-51995D01*
X75579Y-51975D01*
X75599Y-51954D01*
X75637Y-51863D01*
X75637Y-51763D01*
X75637Y-51488D01*
X75601Y-51400D01*
X75637Y-51311D01*
X75637Y-51212D01*
X75637Y-50936D01*
X75599Y-50845D01*
X75579Y-50825D01*
X75599Y-50804D01*
X75637Y-50713D01*
X75637Y-50613D01*
X75637Y-50338D01*
X75599Y-50246D01*
X75529Y-50175D01*
X75437Y-50137D01*
X75338Y-50137D01*
X75062Y-50137D01*
X74970Y-50175D01*
X74900Y-50246D01*
X74862Y-50338D01*
X74862Y-50437D01*
X74862Y-50713D01*
X74900Y-50804D01*
X74920Y-50824D01*
X74900Y-50845D01*
X74862Y-50936D01*
X74862Y-51036D01*
X74862Y-51311D01*
X74898Y-51399D01*
X74862Y-51488D01*
X74862Y-51587D01*
X74862Y-51863D01*
X74900Y-51954D01*
X74920Y-51974D01*
X74900Y-51995D01*
X74887Y-52026D01*
X74849Y-51935D01*
X74779Y-51864D01*
X74750Y-51852D01*
X74750Y-51850D01*
X74743Y-51850D01*
X74687Y-51826D01*
X74588Y-51826D01*
X74312Y-51826D01*
X74256Y-51850D01*
X74243Y-51850D01*
X74187Y-51826D01*
X74088Y-51826D01*
X73812Y-51826D01*
X73756Y-51850D01*
X73743Y-51850D01*
X73687Y-51826D01*
X73588Y-51826D01*
X73312Y-51826D01*
X73256Y-51850D01*
X73150Y-51850D01*
X73150Y-51935D01*
X73112Y-52027D01*
X73112Y-52126D01*
X73112Y-52638D01*
X73150Y-52729D01*
X73150Y-52996D01*
X73125Y-53020D01*
X73087Y-53112D01*
X73087Y-53211D01*
X73087Y-53487D01*
X73125Y-53579D01*
X73150Y-53603D01*
X73150Y-53633D01*
X73650Y-53833D01*
X73650Y-54725D01*
X72600Y-54725D01*
X72074Y-54725D01*
X72104Y-54654D01*
X72104Y-54554D01*
X72104Y-53845D01*
X72066Y-53754D01*
X71995Y-53683D01*
X71904Y-53645D01*
X71804Y-53645D01*
X71095Y-53645D01*
X71004Y-53683D01*
X70933Y-53754D01*
X70895Y-53845D01*
X70895Y-53945D01*
X70895Y-54654D01*
X70925Y-54725D01*
X68476Y-54725D01*
X71259Y-49900D01*
X71913Y-49900D01*
X71887Y-49962D01*
X71887Y-50061D01*
X71887Y-50337D01*
X71925Y-50429D01*
X71950Y-50453D01*
X71950Y-50496D01*
X71925Y-50520D01*
X71887Y-50612D01*
X71887Y-50711D01*
X71887Y-50987D01*
X71925Y-51079D01*
X71950Y-51103D01*
X71949Y-51195D01*
X71686Y-51195D01*
X71676Y-51200D01*
X71450Y-51200D01*
X71450Y-52217D01*
X70900Y-52467D01*
X70900Y-52585D01*
X70895Y-52595D01*
X70895Y-52695D01*
X70895Y-53404D01*
X70900Y-53414D01*
X70900Y-53600D01*
X71085Y-53600D01*
X71095Y-53604D01*
X71195Y-53604D01*
X71904Y-53604D01*
X71914Y-53600D01*
X72150Y-53600D01*
X72150Y-52819D01*
X72600Y-52319D01*
X72600Y-52243D01*
X72616Y-52204D01*
X72616Y-52104D01*
X72616Y-51449D01*
X72688Y-51376D01*
X72749Y-51229D01*
X72750Y-51070D01*
X72689Y-50923D01*
X72663Y-50897D01*
X72663Y-50888D01*
X72663Y-50877D01*
X72725Y-50890D01*
X73900Y-50890D01*
X74010Y-50867D01*
X74105Y-50805D01*
X74205Y-50705D01*
X74241Y-50651D01*
X74279Y-50635D01*
X74349Y-50564D01*
X74387Y-50472D01*
X74387Y-50373D01*
X74387Y-50227D01*
X75061Y-49900D01*
X75433Y-49900D01*
X75750Y-50125D01*
X75750Y-53058D01*
G54D10*
G36*
X76400Y-47656D02*
X75979Y-47656D01*
X75887Y-47694D01*
X75832Y-47750D01*
X75782Y-47750D01*
X75755Y-47723D01*
X75663Y-47685D01*
X75564Y-47685D01*
X74304Y-47685D01*
X74212Y-47723D01*
X74185Y-47750D01*
X74059Y-47750D01*
X73909Y-48500D01*
X72067Y-48500D01*
X73787Y-45519D01*
X74110Y-45980D01*
X75327Y-47400D01*
X76400Y-47400D01*
X76400Y-47656D01*
X76400Y-47656D01*
G37*
G54D48*
X76400Y-47656D02*
X75979Y-47656D01*
X75887Y-47694D01*
X75832Y-47750D01*
X75782Y-47750D01*
X75755Y-47723D01*
X75663Y-47685D01*
X75564Y-47685D01*
X74304Y-47685D01*
X74212Y-47723D01*
X74185Y-47750D01*
X74059Y-47750D01*
X73909Y-48500D01*
X72067Y-48500D01*
X73787Y-45519D01*
X74110Y-45980D01*
X75327Y-47400D01*
X76400Y-47400D01*
X76400Y-47656D01*
G54D10*
G36*
X80360Y-53584D02*
X80324Y-53638D01*
X80295Y-53650D01*
X80224Y-53720D01*
X80207Y-53761D01*
X80179Y-53750D01*
X80020Y-53749D01*
X79873Y-53810D01*
X79761Y-53923D01*
X79700Y-54070D01*
X79699Y-54229D01*
X79760Y-54376D01*
X79810Y-54425D01*
X79810Y-54450D01*
X79832Y-54560D01*
X79894Y-54655D01*
X79964Y-54725D01*
X75950Y-54725D01*
X75950Y-54500D01*
X75950Y-54420D01*
X75950Y-54420D01*
X75950Y-54296D01*
X77901Y-54150D01*
X78050Y-54150D01*
X78050Y-53369D01*
X79373Y-51948D01*
X79977Y-51901D01*
X79962Y-51938D01*
X79962Y-52037D01*
X79962Y-52313D01*
X80000Y-52404D01*
X80045Y-52450D01*
X80000Y-52495D01*
X79962Y-52586D01*
X79962Y-52686D01*
X79962Y-52961D01*
X80000Y-53053D01*
X80070Y-53124D01*
X80162Y-53162D01*
X80261Y-53162D01*
X80360Y-53162D01*
X80360Y-53584D01*
X80360Y-53584D01*
G37*
G54D48*
X80360Y-53584D02*
X80324Y-53638D01*
X80295Y-53650D01*
X80224Y-53720D01*
X80207Y-53761D01*
X80179Y-53750D01*
X80020Y-53749D01*
X79873Y-53810D01*
X79761Y-53923D01*
X79700Y-54070D01*
X79699Y-54229D01*
X79760Y-54376D01*
X79810Y-54425D01*
X79810Y-54450D01*
X79832Y-54560D01*
X79894Y-54655D01*
X79964Y-54725D01*
X75950Y-54725D01*
X75950Y-54500D01*
X75950Y-54420D01*
X75950Y-54420D01*
X75950Y-54296D01*
X77901Y-54150D01*
X78050Y-54150D01*
X78050Y-53369D01*
X79373Y-51948D01*
X79977Y-51901D01*
X79962Y-51938D01*
X79962Y-52037D01*
X79962Y-52313D01*
X80000Y-52404D01*
X80045Y-52450D01*
X80000Y-52495D01*
X79962Y-52586D01*
X79962Y-52686D01*
X79962Y-52961D01*
X80000Y-53053D01*
X80070Y-53124D01*
X80162Y-53162D01*
X80261Y-53162D01*
X80360Y-53162D01*
X80360Y-53584D01*
G54D10*
G36*
X81045Y-49950D02*
X81045Y-49950D01*
X80974Y-50020D01*
X80936Y-50112D01*
X80936Y-50211D01*
X80936Y-50277D01*
X80904Y-50309D01*
X80842Y-50403D01*
X80824Y-50492D01*
X80735Y-50492D01*
X80643Y-50530D01*
X80573Y-50600D01*
X80535Y-50692D01*
X80535Y-50792D01*
X80535Y-51343D01*
X80564Y-51413D01*
X80564Y-51604D01*
X80586Y-51714D01*
X80599Y-51734D01*
X80579Y-51755D01*
X80537Y-51737D01*
X80438Y-51737D01*
X80182Y-51737D01*
X80300Y-51620D01*
X80300Y-50620D01*
X79750Y-50320D01*
X79750Y-49400D01*
X80453Y-49400D01*
X80968Y-49335D01*
X80936Y-49412D01*
X80936Y-49511D01*
X80936Y-49787D01*
X80974Y-49879D01*
X81045Y-49949D01*
X81045Y-49950D01*
X81045Y-49950D01*
G37*
G54D48*
X81045Y-49950D02*
X81045Y-49950D01*
X80974Y-50020D01*
X80936Y-50112D01*
X80936Y-50211D01*
X80936Y-50277D01*
X80904Y-50309D01*
X80842Y-50403D01*
X80824Y-50492D01*
X80735Y-50492D01*
X80643Y-50530D01*
X80573Y-50600D01*
X80535Y-50692D01*
X80535Y-50792D01*
X80535Y-51343D01*
X80564Y-51413D01*
X80564Y-51604D01*
X80586Y-51714D01*
X80599Y-51734D01*
X80579Y-51755D01*
X80537Y-51737D01*
X80438Y-51737D01*
X80182Y-51737D01*
X80300Y-51620D01*
X80300Y-50620D01*
X79750Y-50320D01*
X79750Y-49400D01*
X80453Y-49400D01*
X80968Y-49335D01*
X80936Y-49412D01*
X80936Y-49511D01*
X80936Y-49787D01*
X80974Y-49879D01*
X81045Y-49949D01*
X81045Y-49950D01*
G54D10*
G36*
X83120Y-54725D02*
X81513Y-54725D01*
X81513Y-54462D01*
X81475Y-54370D01*
X81429Y-54324D01*
X81475Y-54279D01*
X81513Y-54187D01*
X81513Y-54088D01*
X81513Y-53896D01*
X81571Y-53839D01*
X81592Y-53807D01*
X81602Y-53807D01*
X81740Y-53807D01*
X81832Y-53769D01*
X81878Y-53724D01*
X81900Y-53746D01*
X81928Y-53789D01*
X82094Y-53955D01*
X82189Y-54017D01*
X82300Y-54040D01*
X82850Y-54040D01*
X82940Y-54022D01*
X82895Y-54129D01*
X82895Y-54369D01*
X82987Y-54591D01*
X83120Y-54725D01*
X83120Y-54725D01*
G37*
G54D48*
X83120Y-54725D02*
X81513Y-54725D01*
X81513Y-54462D01*
X81475Y-54370D01*
X81429Y-54324D01*
X81475Y-54279D01*
X81513Y-54187D01*
X81513Y-54088D01*
X81513Y-53896D01*
X81571Y-53839D01*
X81592Y-53807D01*
X81602Y-53807D01*
X81740Y-53807D01*
X81832Y-53769D01*
X81878Y-53724D01*
X81900Y-53746D01*
X81928Y-53789D01*
X82094Y-53955D01*
X82189Y-54017D01*
X82300Y-54040D01*
X82850Y-54040D01*
X82940Y-54022D01*
X82895Y-54129D01*
X82895Y-54369D01*
X82987Y-54591D01*
X83120Y-54725D01*
G54D10*
G36*
X83980Y-46850D02*
X81582Y-46850D01*
X81063Y-47258D01*
X80846Y-47258D01*
X80754Y-47296D01*
X80684Y-47366D01*
X80649Y-47449D01*
X80615Y-47366D01*
X80585Y-47336D01*
X80585Y-46552D01*
X80824Y-46313D01*
X80837Y-46319D01*
X81054Y-46319D01*
X81255Y-46236D01*
X81408Y-46083D01*
X81491Y-45882D01*
X81492Y-45666D01*
X81409Y-45465D01*
X81256Y-45312D01*
X81055Y-45228D01*
X80838Y-45228D01*
X80638Y-45311D01*
X80484Y-45464D01*
X80401Y-45665D01*
X80401Y-45860D01*
X80347Y-45913D01*
X80329Y-45882D01*
X80250Y-45821D01*
X80154Y-45796D01*
X80056Y-45809D01*
X79970Y-45858D01*
X79944Y-45873D01*
X79570Y-45500D01*
X79053Y-45500D01*
X79053Y-45261D01*
X79015Y-45169D01*
X78945Y-45099D01*
X78853Y-45061D01*
X78753Y-45061D01*
X77887Y-45061D01*
X77795Y-45099D01*
X77725Y-45169D01*
X77687Y-45261D01*
X77687Y-45360D01*
X77687Y-45500D01*
X75464Y-45500D01*
X75111Y-45279D01*
X75181Y-45158D01*
X75194Y-45060D01*
X75177Y-44996D01*
X75193Y-44933D01*
X75812Y-44600D01*
X76299Y-44600D01*
X76310Y-44626D01*
X76423Y-44738D01*
X76570Y-44799D01*
X76729Y-44800D01*
X76838Y-44754D01*
X76873Y-44788D01*
X77020Y-44849D01*
X77179Y-44850D01*
X77326Y-44789D01*
X77438Y-44676D01*
X77470Y-44600D01*
X78370Y-44600D01*
X80241Y-42779D01*
X80453Y-42303D01*
X80291Y-41764D01*
X80028Y-41633D01*
X80022Y-41627D01*
X79987Y-41612D01*
X79655Y-41446D01*
X79068Y-41606D01*
X78861Y-41918D01*
X77629Y-43150D01*
X76577Y-43150D01*
X76127Y-43650D01*
X75877Y-43650D01*
X75850Y-43638D01*
X75850Y-43602D01*
X74921Y-43553D01*
X78499Y-37350D01*
X83980Y-46850D01*
X83980Y-46850D01*
G37*
G54D48*
X83980Y-46850D02*
X81582Y-46850D01*
X81063Y-47258D01*
X80846Y-47258D01*
X80754Y-47296D01*
X80684Y-47366D01*
X80649Y-47449D01*
X80615Y-47366D01*
X80585Y-47336D01*
X80585Y-46552D01*
X80824Y-46313D01*
X80837Y-46319D01*
X81054Y-46319D01*
X81255Y-46236D01*
X81408Y-46083D01*
X81491Y-45882D01*
X81492Y-45666D01*
X81409Y-45465D01*
X81256Y-45312D01*
X81055Y-45228D01*
X80838Y-45228D01*
X80638Y-45311D01*
X80484Y-45464D01*
X80401Y-45665D01*
X80401Y-45860D01*
X80347Y-45913D01*
X80329Y-45882D01*
X80250Y-45821D01*
X80154Y-45796D01*
X80056Y-45809D01*
X79970Y-45858D01*
X79944Y-45873D01*
X79570Y-45500D01*
X79053Y-45500D01*
X79053Y-45261D01*
X79015Y-45169D01*
X78945Y-45099D01*
X78853Y-45061D01*
X78753Y-45061D01*
X77887Y-45061D01*
X77795Y-45099D01*
X77725Y-45169D01*
X77687Y-45261D01*
X77687Y-45360D01*
X77687Y-45500D01*
X75464Y-45500D01*
X75111Y-45279D01*
X75181Y-45158D01*
X75194Y-45060D01*
X75177Y-44996D01*
X75193Y-44933D01*
X75812Y-44600D01*
X76299Y-44600D01*
X76310Y-44626D01*
X76423Y-44738D01*
X76570Y-44799D01*
X76729Y-44800D01*
X76838Y-44754D01*
X76873Y-44788D01*
X77020Y-44849D01*
X77179Y-44850D01*
X77326Y-44789D01*
X77438Y-44676D01*
X77470Y-44600D01*
X78370Y-44600D01*
X80241Y-42779D01*
X80453Y-42303D01*
X80291Y-41764D01*
X80028Y-41633D01*
X80022Y-41627D01*
X79987Y-41612D01*
X79655Y-41446D01*
X79068Y-41606D01*
X78861Y-41918D01*
X77629Y-43150D01*
X76577Y-43150D01*
X76127Y-43650D01*
X75877Y-43650D01*
X75850Y-43638D01*
X75850Y-43602D01*
X74921Y-43553D01*
X78499Y-37350D01*
X83980Y-46850D01*
G54D10*
G36*
X85163Y-51402D02*
X84721Y-51657D01*
X84660Y-51736D01*
X84657Y-51746D01*
X84654Y-51746D01*
X84556Y-51759D01*
X84470Y-51808D01*
X84231Y-51946D01*
X84170Y-52025D01*
X84161Y-52060D01*
X84114Y-52060D01*
X84054Y-52000D01*
X83963Y-51962D01*
X83863Y-51962D01*
X83588Y-51962D01*
X83500Y-51998D01*
X83411Y-51962D01*
X83397Y-51962D01*
X83410Y-51950D01*
X83479Y-51950D01*
X83626Y-51889D01*
X83738Y-51776D01*
X83799Y-51629D01*
X83800Y-51470D01*
X83739Y-51323D01*
X83626Y-51211D01*
X83479Y-51150D01*
X83400Y-51149D01*
X83400Y-51120D01*
X83339Y-50973D01*
X83226Y-50861D01*
X83079Y-50800D01*
X83003Y-50800D01*
X82965Y-50774D01*
X82965Y-50692D01*
X82926Y-50600D01*
X82856Y-50530D01*
X82849Y-50527D01*
X82850Y-50420D01*
X82789Y-50273D01*
X82676Y-50161D01*
X82540Y-50104D01*
X82540Y-49300D01*
X83628Y-49300D01*
X83583Y-49344D01*
X83545Y-49436D01*
X83545Y-49535D01*
X83545Y-50165D01*
X83583Y-50257D01*
X83638Y-50312D01*
X83588Y-50312D01*
X83496Y-50350D01*
X83425Y-50420D01*
X83387Y-50512D01*
X83387Y-50611D01*
X83387Y-50887D01*
X83425Y-50979D01*
X83496Y-51049D01*
X83588Y-51087D01*
X83687Y-51087D01*
X83963Y-51087D01*
X84054Y-51049D01*
X84094Y-51010D01*
X84771Y-51010D01*
X85163Y-51402D01*
X85163Y-51402D01*
G37*
G54D48*
X85163Y-51402D02*
X84721Y-51657D01*
X84660Y-51736D01*
X84657Y-51746D01*
X84654Y-51746D01*
X84556Y-51759D01*
X84470Y-51808D01*
X84231Y-51946D01*
X84170Y-52025D01*
X84161Y-52060D01*
X84114Y-52060D01*
X84054Y-52000D01*
X83963Y-51962D01*
X83863Y-51962D01*
X83588Y-51962D01*
X83500Y-51998D01*
X83411Y-51962D01*
X83397Y-51962D01*
X83410Y-51950D01*
X83479Y-51950D01*
X83626Y-51889D01*
X83738Y-51776D01*
X83799Y-51629D01*
X83800Y-51470D01*
X83739Y-51323D01*
X83626Y-51211D01*
X83479Y-51150D01*
X83400Y-51149D01*
X83400Y-51120D01*
X83339Y-50973D01*
X83226Y-50861D01*
X83079Y-50800D01*
X83003Y-50800D01*
X82965Y-50774D01*
X82965Y-50692D01*
X82926Y-50600D01*
X82856Y-50530D01*
X82849Y-50527D01*
X82850Y-50420D01*
X82789Y-50273D01*
X82676Y-50161D01*
X82540Y-50104D01*
X82540Y-49300D01*
X83628Y-49300D01*
X83583Y-49344D01*
X83545Y-49436D01*
X83545Y-49535D01*
X83545Y-50165D01*
X83583Y-50257D01*
X83638Y-50312D01*
X83588Y-50312D01*
X83496Y-50350D01*
X83425Y-50420D01*
X83387Y-50512D01*
X83387Y-50611D01*
X83387Y-50887D01*
X83425Y-50979D01*
X83496Y-51049D01*
X83588Y-51087D01*
X83687Y-51087D01*
X83963Y-51087D01*
X84054Y-51049D01*
X84094Y-51010D01*
X84771Y-51010D01*
X85163Y-51402D01*
G54D10*
G36*
X88523Y-54725D02*
X87879Y-54725D01*
X88012Y-54592D01*
X88104Y-54370D01*
X88104Y-54130D01*
X88012Y-53908D01*
X87842Y-53737D01*
X87620Y-53645D01*
X87380Y-53645D01*
X87158Y-53737D01*
X86999Y-53895D01*
X86842Y-53737D01*
X86620Y-53645D01*
X86380Y-53645D01*
X86158Y-53737D01*
X85999Y-53895D01*
X85842Y-53737D01*
X85620Y-53645D01*
X85380Y-53645D01*
X85158Y-53737D01*
X84999Y-53895D01*
X84842Y-53737D01*
X84620Y-53645D01*
X84380Y-53645D01*
X84158Y-53737D01*
X83999Y-53895D01*
X83842Y-53737D01*
X83620Y-53645D01*
X83472Y-53645D01*
X83499Y-53579D01*
X83500Y-53420D01*
X83457Y-53318D01*
X83499Y-53301D01*
X83588Y-53337D01*
X83687Y-53337D01*
X83963Y-53337D01*
X84054Y-53299D01*
X84114Y-53240D01*
X84350Y-53240D01*
X84460Y-53217D01*
X84555Y-53155D01*
X84632Y-53077D01*
X84699Y-53128D01*
X84795Y-53153D01*
X84893Y-53140D01*
X84979Y-53091D01*
X85218Y-52953D01*
X85269Y-52887D01*
X85335Y-52904D01*
X85433Y-52891D01*
X85519Y-52842D01*
X85671Y-52754D01*
X85755Y-52754D01*
X85874Y-52730D01*
X85974Y-52663D01*
X86119Y-52519D01*
X86146Y-52478D01*
X86155Y-52494D01*
X86205Y-52532D01*
X86213Y-52595D01*
X86263Y-52681D01*
X86716Y-53465D01*
X86794Y-53526D01*
X86891Y-53552D01*
X86989Y-53539D01*
X87075Y-53489D01*
X87627Y-53171D01*
X88523Y-54725D01*
X88523Y-54725D01*
G37*
G54D48*
X88523Y-54725D02*
X87879Y-54725D01*
X88012Y-54592D01*
X88104Y-54370D01*
X88104Y-54130D01*
X88012Y-53908D01*
X87842Y-53737D01*
X87620Y-53645D01*
X87380Y-53645D01*
X87158Y-53737D01*
X86999Y-53895D01*
X86842Y-53737D01*
X86620Y-53645D01*
X86380Y-53645D01*
X86158Y-53737D01*
X85999Y-53895D01*
X85842Y-53737D01*
X85620Y-53645D01*
X85380Y-53645D01*
X85158Y-53737D01*
X84999Y-53895D01*
X84842Y-53737D01*
X84620Y-53645D01*
X84380Y-53645D01*
X84158Y-53737D01*
X83999Y-53895D01*
X83842Y-53737D01*
X83620Y-53645D01*
X83472Y-53645D01*
X83499Y-53579D01*
X83500Y-53420D01*
X83457Y-53318D01*
X83499Y-53301D01*
X83588Y-53337D01*
X83687Y-53337D01*
X83963Y-53337D01*
X84054Y-53299D01*
X84114Y-53240D01*
X84350Y-53240D01*
X84460Y-53217D01*
X84555Y-53155D01*
X84632Y-53077D01*
X84699Y-53128D01*
X84795Y-53153D01*
X84893Y-53140D01*
X84979Y-53091D01*
X85218Y-52953D01*
X85269Y-52887D01*
X85335Y-52904D01*
X85433Y-52891D01*
X85519Y-52842D01*
X85671Y-52754D01*
X85755Y-52754D01*
X85874Y-52730D01*
X85974Y-52663D01*
X86119Y-52519D01*
X86146Y-52478D01*
X86155Y-52494D01*
X86205Y-52532D01*
X86213Y-52595D01*
X86263Y-52681D01*
X86716Y-53465D01*
X86794Y-53526D01*
X86891Y-53552D01*
X86989Y-53539D01*
X87075Y-53489D01*
X87627Y-53171D01*
X88523Y-54725D01*
G54D10*
G36*
X79450Y-51039D02*
X79397Y-51039D01*
X79342Y-51062D01*
X79300Y-51104D01*
X79277Y-51159D01*
X79277Y-51219D01*
X79277Y-51357D01*
X79110Y-51618D01*
X77550Y-53179D01*
X77550Y-53853D01*
X75646Y-54000D01*
X75330Y-54024D01*
X75324Y-54024D01*
X75068Y-54024D01*
X75013Y-54047D01*
X75011Y-54048D01*
X74974Y-54051D01*
X74575Y-54550D01*
X74050Y-54550D01*
X74050Y-53669D01*
X73450Y-53369D01*
X73450Y-52150D01*
X73554Y-52150D01*
X73602Y-52675D01*
X73928Y-52947D01*
X74065Y-53084D01*
X74065Y-53084D01*
X74127Y-53125D01*
X74147Y-53129D01*
X74200Y-53173D01*
X74200Y-53470D01*
X74529Y-53800D01*
X74900Y-53800D01*
X75340Y-53800D01*
X75344Y-53810D01*
X75387Y-53852D01*
X75442Y-53875D01*
X75501Y-53875D01*
X75757Y-53875D01*
X75812Y-53852D01*
X75855Y-53810D01*
X75869Y-53776D01*
X76099Y-53684D01*
X76149Y-50950D01*
X78666Y-50950D01*
X78666Y-50963D01*
X78666Y-51140D01*
X78689Y-51195D01*
X78731Y-51237D01*
X78787Y-51260D01*
X78846Y-51260D01*
X79102Y-51260D01*
X79157Y-51237D01*
X79199Y-51195D01*
X79222Y-51140D01*
X79222Y-51080D01*
X79222Y-50969D01*
X79343Y-51000D01*
X79385Y-51000D01*
X79397Y-51004D01*
X79450Y-51004D01*
X79450Y-51039D01*
X79450Y-51039D01*
G37*
G54D48*
X79450Y-51039D02*
X79397Y-51039D01*
X79342Y-51062D01*
X79300Y-51104D01*
X79277Y-51159D01*
X79277Y-51219D01*
X79277Y-51357D01*
X79110Y-51618D01*
X77550Y-53179D01*
X77550Y-53853D01*
X75646Y-54000D01*
X75330Y-54024D01*
X75324Y-54024D01*
X75068Y-54024D01*
X75013Y-54047D01*
X75011Y-54048D01*
X74974Y-54051D01*
X74575Y-54550D01*
X74050Y-54550D01*
X74050Y-53669D01*
X73450Y-53369D01*
X73450Y-52150D01*
X73554Y-52150D01*
X73602Y-52675D01*
X73928Y-52947D01*
X74065Y-53084D01*
X74065Y-53084D01*
X74127Y-53125D01*
X74147Y-53129D01*
X74200Y-53173D01*
X74200Y-53470D01*
X74529Y-53800D01*
X74900Y-53800D01*
X75340Y-53800D01*
X75344Y-53810D01*
X75387Y-53852D01*
X75442Y-53875D01*
X75501Y-53875D01*
X75757Y-53875D01*
X75812Y-53852D01*
X75855Y-53810D01*
X75869Y-53776D01*
X76099Y-53684D01*
X76149Y-50950D01*
X78666Y-50950D01*
X78666Y-50963D01*
X78666Y-51140D01*
X78689Y-51195D01*
X78731Y-51237D01*
X78787Y-51260D01*
X78846Y-51260D01*
X79102Y-51260D01*
X79157Y-51237D01*
X79199Y-51195D01*
X79222Y-51140D01*
X79222Y-51080D01*
X79222Y-50969D01*
X79343Y-51000D01*
X79385Y-51000D01*
X79397Y-51004D01*
X79450Y-51004D01*
X79450Y-51039D01*
G54D10*
G36*
X78350Y-49950D02*
X76115Y-49950D01*
X75513Y-49548D01*
X74939Y-49600D01*
X74641Y-49700D01*
X73899Y-49700D01*
X73900Y-49590D01*
X73854Y-49480D01*
X73770Y-49395D01*
X73659Y-49350D01*
X73540Y-49349D01*
X73430Y-49395D01*
X73345Y-49479D01*
X73300Y-49590D01*
X73299Y-49700D01*
X73206Y-49700D01*
X73106Y-50400D01*
X72893Y-50400D01*
X72800Y-49746D01*
X72800Y-49150D01*
X75693Y-49150D01*
X76101Y-49252D01*
X77800Y-48686D01*
X77800Y-48058D01*
X78350Y-48142D01*
X78350Y-49950D01*
X78350Y-49950D01*
G37*
G54D48*
X78350Y-49950D02*
X76115Y-49950D01*
X75513Y-49548D01*
X74939Y-49600D01*
X74641Y-49700D01*
X73899Y-49700D01*
X73900Y-49590D01*
X73854Y-49480D01*
X73770Y-49395D01*
X73659Y-49350D01*
X73540Y-49349D01*
X73430Y-49395D01*
X73345Y-49479D01*
X73300Y-49590D01*
X73299Y-49700D01*
X73206Y-49700D01*
X73106Y-50400D01*
X72893Y-50400D01*
X72800Y-49746D01*
X72800Y-49150D01*
X75693Y-49150D01*
X76101Y-49252D01*
X77800Y-48686D01*
X77800Y-48058D01*
X78350Y-48142D01*
X78350Y-49950D01*
G54D10*
G36*
X76650Y-48650D02*
X75983Y-48650D01*
X75633Y-48900D01*
X74300Y-48900D01*
X74300Y-48754D01*
X74440Y-48050D01*
X76650Y-48050D01*
X76650Y-48650D01*
X76650Y-48650D01*
G37*
G54D48*
X76650Y-48650D02*
X75983Y-48650D01*
X75633Y-48900D01*
X74300Y-48900D01*
X74300Y-48754D01*
X74440Y-48050D01*
X76650Y-48050D01*
X76650Y-48650D01*
G54D10*
G36*
X72300Y-52129D02*
X71800Y-52629D01*
X71800Y-53300D01*
X71200Y-53300D01*
X71200Y-52682D01*
X71632Y-52490D01*
X71794Y-52273D01*
X71850Y-52108D01*
X71850Y-51500D01*
X72300Y-51500D01*
X72300Y-52129D01*
X72300Y-52129D01*
G37*
G54D48*
X72300Y-52129D02*
X71800Y-52629D01*
X71800Y-53300D01*
X71200Y-53300D01*
X71200Y-52682D01*
X71632Y-52490D01*
X71794Y-52273D01*
X71850Y-52108D01*
X71850Y-51500D01*
X72300Y-51500D01*
X72300Y-52129D01*
G54D10*
G36*
X82300Y-47876D02*
X81176Y-48804D01*
X80093Y-49100D01*
X79579Y-49100D01*
X79400Y-49279D01*
X79400Y-50361D01*
X79512Y-50587D01*
X80000Y-50830D01*
X80000Y-51429D01*
X79879Y-51550D01*
X79519Y-51550D01*
X79590Y-51335D01*
X79809Y-51226D01*
X79802Y-51202D01*
X79810Y-51195D01*
X79833Y-51140D01*
X79833Y-51080D01*
X79833Y-50903D01*
X79810Y-50848D01*
X79768Y-50806D01*
X79712Y-50783D01*
X79653Y-50783D01*
X79554Y-50783D01*
X79374Y-50753D01*
X79050Y-50429D01*
X79050Y-50400D01*
X79050Y-50330D01*
X79050Y-50330D01*
X79050Y-49274D01*
X79104Y-49220D01*
X79122Y-49174D01*
X79349Y-49016D01*
X79584Y-49016D01*
X79639Y-48993D01*
X79681Y-48951D01*
X79704Y-48895D01*
X79704Y-48836D01*
X79704Y-48206D01*
X79681Y-48151D01*
X79639Y-48109D01*
X79584Y-48086D01*
X79550Y-48086D01*
X79550Y-47707D01*
X78855Y-47600D01*
X77086Y-47501D01*
X76789Y-46661D01*
X75550Y-46166D01*
X75550Y-45850D01*
X79427Y-45850D01*
X79752Y-46221D01*
X79754Y-46237D01*
X79761Y-46248D01*
X79951Y-46962D01*
X80057Y-47386D01*
X80020Y-47423D01*
X79998Y-47478D01*
X79998Y-47538D01*
X79998Y-47955D01*
X80020Y-48010D01*
X80063Y-48052D01*
X80118Y-48075D01*
X80177Y-48075D01*
X80229Y-48075D01*
X80260Y-48200D01*
X81039Y-48200D01*
X81194Y-47579D01*
X81716Y-47200D01*
X82300Y-47200D01*
X82300Y-47876D01*
X82300Y-47876D01*
G37*
G54D48*
X82300Y-47876D02*
X81176Y-48804D01*
X80093Y-49100D01*
X79579Y-49100D01*
X79400Y-49279D01*
X79400Y-50361D01*
X79512Y-50587D01*
X80000Y-50830D01*
X80000Y-51429D01*
X79879Y-51550D01*
X79519Y-51550D01*
X79590Y-51335D01*
X79809Y-51226D01*
X79802Y-51202D01*
X79810Y-51195D01*
X79833Y-51140D01*
X79833Y-51080D01*
X79833Y-50903D01*
X79810Y-50848D01*
X79768Y-50806D01*
X79712Y-50783D01*
X79653Y-50783D01*
X79554Y-50783D01*
X79374Y-50753D01*
X79050Y-50429D01*
X79050Y-50400D01*
X79050Y-50330D01*
X79050Y-50330D01*
X79050Y-49274D01*
X79104Y-49220D01*
X79122Y-49174D01*
X79349Y-49016D01*
X79584Y-49016D01*
X79639Y-48993D01*
X79681Y-48951D01*
X79704Y-48895D01*
X79704Y-48836D01*
X79704Y-48206D01*
X79681Y-48151D01*
X79639Y-48109D01*
X79584Y-48086D01*
X79550Y-48086D01*
X79550Y-47707D01*
X78855Y-47600D01*
X77086Y-47501D01*
X76789Y-46661D01*
X75550Y-46166D01*
X75550Y-45850D01*
X79427Y-45850D01*
X79752Y-46221D01*
X79754Y-46237D01*
X79761Y-46248D01*
X79951Y-46962D01*
X80057Y-47386D01*
X80020Y-47423D01*
X79998Y-47478D01*
X79998Y-47538D01*
X79998Y-47955D01*
X80020Y-48010D01*
X80063Y-48052D01*
X80118Y-48075D01*
X80177Y-48075D01*
X80229Y-48075D01*
X80260Y-48200D01*
X81039Y-48200D01*
X81194Y-47579D01*
X81716Y-47200D01*
X82300Y-47200D01*
X82300Y-47876D01*
G54D10*
G36*
X84970Y-48950D02*
X84500Y-48950D01*
X81615Y-48950D01*
X81531Y-48894D01*
X81929Y-48541D01*
X82374Y-48293D01*
X82835Y-48037D01*
X83378Y-47150D01*
X84118Y-47150D01*
X84970Y-48950D01*
X84970Y-48950D01*
G37*
G54D48*
X84970Y-48950D02*
X84500Y-48950D01*
X81615Y-48950D01*
X81531Y-48894D01*
X81929Y-48541D01*
X82374Y-48293D01*
X82835Y-48037D01*
X83378Y-47150D01*
X84118Y-47150D01*
X84970Y-48950D01*
G54D10*
G36*
X79996Y-42204D02*
X79905Y-42523D01*
X79615Y-42814D01*
X78130Y-44200D01*
X77787Y-44200D01*
X77787Y-43853D01*
X77764Y-43798D01*
X77722Y-43756D01*
X77667Y-43733D01*
X77607Y-43733D01*
X76820Y-43733D01*
X76765Y-43756D01*
X76723Y-43798D01*
X76700Y-43853D01*
X76700Y-43913D01*
X76700Y-44080D01*
X76681Y-44100D01*
X76590Y-44099D01*
X76480Y-44145D01*
X76425Y-44200D01*
X76050Y-44200D01*
X76050Y-44000D01*
X76274Y-44000D01*
X76674Y-43500D01*
X77770Y-43500D01*
X78986Y-42284D01*
X79326Y-41895D01*
X79547Y-41851D01*
X79865Y-41942D01*
X79996Y-42204D01*
X79996Y-42204D01*
G37*
G54D48*
X79996Y-42204D02*
X79905Y-42523D01*
X79615Y-42814D01*
X78130Y-44200D01*
X77787Y-44200D01*
X77787Y-43853D01*
X77764Y-43798D01*
X77722Y-43756D01*
X77667Y-43733D01*
X77607Y-43733D01*
X76820Y-43733D01*
X76765Y-43756D01*
X76723Y-43798D01*
X76700Y-43853D01*
X76700Y-43913D01*
X76700Y-44080D01*
X76681Y-44100D01*
X76590Y-44099D01*
X76480Y-44145D01*
X76425Y-44200D01*
X76050Y-44200D01*
X76050Y-44000D01*
X76274Y-44000D01*
X76674Y-43500D01*
X77770Y-43500D01*
X78986Y-42284D01*
X79326Y-41895D01*
X79547Y-41851D01*
X79865Y-41942D01*
X79996Y-42204D01*
G54D10*
G36*
X76300Y-47050D02*
X75524Y-47050D01*
X74160Y-45345D01*
X74741Y-44327D01*
X75025Y-43950D01*
X75700Y-43950D01*
X75700Y-44271D01*
X74961Y-44714D01*
X74748Y-45142D01*
X74804Y-45483D01*
X75105Y-45633D01*
X75254Y-46378D01*
X75732Y-46750D01*
X76300Y-46750D01*
X76300Y-47050D01*
X76300Y-47050D01*
G37*
G54D48*
X76300Y-47050D02*
X75524Y-47050D01*
X74160Y-45345D01*
X74741Y-44327D01*
X75025Y-43950D01*
X75700Y-43950D01*
X75700Y-44271D01*
X74961Y-44714D01*
X74748Y-45142D01*
X74804Y-45483D01*
X75105Y-45633D01*
X75254Y-46378D01*
X75732Y-46750D01*
X76300Y-46750D01*
X76300Y-47050D01*
G54D10*
G36*
X63995Y-48609D02*
X63318Y-47931D01*
X63172Y-47834D01*
X63000Y-47800D01*
X62273Y-47800D01*
X62354Y-47604D01*
X62354Y-47364D01*
X62262Y-47142D01*
X62092Y-46972D01*
X61870Y-46880D01*
X61630Y-46879D01*
X61408Y-46971D01*
X61237Y-47141D01*
X61145Y-47363D01*
X61145Y-47603D01*
X61226Y-47800D01*
X60750Y-47800D01*
X60577Y-47834D01*
X60431Y-47931D01*
X60339Y-48024D01*
X60019Y-48024D01*
X60084Y-47866D01*
X60084Y-47799D01*
X60179Y-47800D01*
X60326Y-47739D01*
X60438Y-47626D01*
X60499Y-47479D01*
X60500Y-47320D01*
X60439Y-47173D01*
X60326Y-47061D01*
X60179Y-47000D01*
X60110Y-47000D01*
X59973Y-46863D01*
X59879Y-46800D01*
X59768Y-46778D01*
X58860Y-46778D01*
X58887Y-46713D01*
X58887Y-46613D01*
X58887Y-46338D01*
X58851Y-46250D01*
X58887Y-46161D01*
X58887Y-46062D01*
X58887Y-45786D01*
X58849Y-45695D01*
X58779Y-45624D01*
X58687Y-45586D01*
X58588Y-45586D01*
X58312Y-45586D01*
X58220Y-45624D01*
X58150Y-45695D01*
X58138Y-45724D01*
X58070Y-45769D01*
X58005Y-45834D01*
X57990Y-45834D01*
X57930Y-45774D01*
X57839Y-45736D01*
X57739Y-45736D01*
X57268Y-45736D01*
X57291Y-45681D01*
X57291Y-45582D01*
X57291Y-45109D01*
X57253Y-45017D01*
X57197Y-44962D01*
X57230Y-44929D01*
X57275Y-44861D01*
X57304Y-44849D01*
X57375Y-44779D01*
X57413Y-44687D01*
X57413Y-44588D01*
X57413Y-44312D01*
X57375Y-44220D01*
X57304Y-44150D01*
X57213Y-44112D01*
X57113Y-44112D01*
X57047Y-44112D01*
X57138Y-44074D01*
X57358Y-43855D01*
X57477Y-43567D01*
X57478Y-43257D01*
X57359Y-42969D01*
X57139Y-42749D01*
X56852Y-42630D01*
X56541Y-42630D01*
X56268Y-42743D01*
X56166Y-42497D01*
X55946Y-42277D01*
X55659Y-42158D01*
X55348Y-42157D01*
X55061Y-42276D01*
X54841Y-42496D01*
X54722Y-42783D01*
X54721Y-43094D01*
X54840Y-43381D01*
X55060Y-43601D01*
X55347Y-43720D01*
X55658Y-43721D01*
X55931Y-43607D01*
X56033Y-43853D01*
X56253Y-44073D01*
X56345Y-44112D01*
X56286Y-44112D01*
X56195Y-44150D01*
X56124Y-44220D01*
X56086Y-44312D01*
X56086Y-44411D01*
X56086Y-44687D01*
X56124Y-44779D01*
X56141Y-44795D01*
X56141Y-44958D01*
X56081Y-45017D01*
X56043Y-45109D01*
X56043Y-45209D01*
X56043Y-45681D01*
X56081Y-45773D01*
X56151Y-45843D01*
X56243Y-45881D01*
X56343Y-45881D01*
X56618Y-45881D01*
X56667Y-45861D01*
X56716Y-45881D01*
X56815Y-45881D01*
X57089Y-45881D01*
X57066Y-45936D01*
X57066Y-46035D01*
X57066Y-46311D01*
X57087Y-46360D01*
X57066Y-46408D01*
X57066Y-46508D01*
X57066Y-46783D01*
X57087Y-46832D01*
X57066Y-46881D01*
X57066Y-46980D01*
X57066Y-47256D01*
X57104Y-47348D01*
X57175Y-47418D01*
X57267Y-47456D01*
X57366Y-47456D01*
X57839Y-47456D01*
X57930Y-47418D01*
X57990Y-47358D01*
X59064Y-47358D01*
X59004Y-47418D01*
X58915Y-47633D01*
X58915Y-47723D01*
X57990Y-47723D01*
X57930Y-47664D01*
X57839Y-47625D01*
X57739Y-47625D01*
X57267Y-47625D01*
X57175Y-47664D01*
X57104Y-47734D01*
X57066Y-47826D01*
X57066Y-47925D01*
X57066Y-48201D01*
X57087Y-48249D01*
X57066Y-48298D01*
X57066Y-48398D01*
X57066Y-48673D01*
X57104Y-48765D01*
X57175Y-48835D01*
X57267Y-48874D01*
X57339Y-48874D01*
X57380Y-48901D01*
X57553Y-48936D01*
X57612Y-48924D01*
X58800Y-48924D01*
X58800Y-49825D01*
X58500Y-49825D01*
X58327Y-49859D01*
X58242Y-49916D01*
X58220Y-49925D01*
X58220Y-49925D01*
X57553Y-49925D01*
X57380Y-49960D01*
X57339Y-49988D01*
X57267Y-49988D01*
X57175Y-50026D01*
X57104Y-50096D01*
X57066Y-50188D01*
X57066Y-50287D01*
X57066Y-50563D01*
X57104Y-50655D01*
X57175Y-50725D01*
X57267Y-50763D01*
X57339Y-50763D01*
X57380Y-50791D01*
X57553Y-50825D01*
X58399Y-50825D01*
X58571Y-50791D01*
X58670Y-50725D01*
X59024Y-50725D01*
X59196Y-50691D01*
X59342Y-50593D01*
X59568Y-50368D01*
X59665Y-50222D01*
X59700Y-50050D01*
X59700Y-48924D01*
X60525Y-48924D01*
X60697Y-48890D01*
X60843Y-48792D01*
X60895Y-48740D01*
X60895Y-49404D01*
X60933Y-49495D01*
X61004Y-49566D01*
X61057Y-49588D01*
X60987Y-49657D01*
X60895Y-49879D01*
X60895Y-50119D01*
X60987Y-50341D01*
X61145Y-50500D01*
X60987Y-50657D01*
X60895Y-50879D01*
X60895Y-50980D01*
X60826Y-50911D01*
X60679Y-50850D01*
X60520Y-50849D01*
X60490Y-50862D01*
X60490Y-50850D01*
X60490Y-50425D01*
X60538Y-50376D01*
X60599Y-50229D01*
X60600Y-50070D01*
X60539Y-49923D01*
X60426Y-49811D01*
X60279Y-49750D01*
X60120Y-49749D01*
X59973Y-49810D01*
X59861Y-49923D01*
X59800Y-50070D01*
X59799Y-50229D01*
X59860Y-50376D01*
X59910Y-50425D01*
X59910Y-50550D01*
X59770Y-50549D01*
X59623Y-50610D01*
X59574Y-50660D01*
X59500Y-50660D01*
X59389Y-50682D01*
X59294Y-50744D01*
X58894Y-51144D01*
X58832Y-51239D01*
X58810Y-51350D01*
X58810Y-51779D01*
X58629Y-51960D01*
X58424Y-51960D01*
X58389Y-51873D01*
X58276Y-51761D01*
X58129Y-51700D01*
X57970Y-51699D01*
X57823Y-51760D01*
X57711Y-51873D01*
X57702Y-51892D01*
X57305Y-51494D01*
X57210Y-51432D01*
X57100Y-51410D01*
X57050Y-51410D01*
X56810Y-51410D01*
X56818Y-51390D01*
X56818Y-51290D01*
X56818Y-50818D01*
X56780Y-50726D01*
X56710Y-50656D01*
X56618Y-50618D01*
X56519Y-50618D01*
X56243Y-50618D01*
X56151Y-50656D01*
X56081Y-50726D01*
X56043Y-50818D01*
X56043Y-50917D01*
X56043Y-51390D01*
X56081Y-51482D01*
X56143Y-51544D01*
X56163Y-51642D01*
X56226Y-51736D01*
X56234Y-51744D01*
X56034Y-51944D01*
X55931Y-52192D01*
X55749Y-52116D01*
X55838Y-52026D01*
X55899Y-51879D01*
X55900Y-51720D01*
X55839Y-51573D01*
X55791Y-51526D01*
X55835Y-51482D01*
X55874Y-51390D01*
X55874Y-51290D01*
X55874Y-50818D01*
X55835Y-50726D01*
X55765Y-50656D01*
X55673Y-50618D01*
X55574Y-50618D01*
X55298Y-50618D01*
X55250Y-50638D01*
X55201Y-50618D01*
X55101Y-50618D01*
X54826Y-50618D01*
X54777Y-50638D01*
X54728Y-50618D01*
X54629Y-50618D01*
X54353Y-50618D01*
X54305Y-50638D01*
X54256Y-50618D01*
X54156Y-50618D01*
X53881Y-50618D01*
X53789Y-50656D01*
X53719Y-50726D01*
X53681Y-50818D01*
X53681Y-50917D01*
X53681Y-51390D01*
X53719Y-51482D01*
X53778Y-51541D01*
X53778Y-52350D01*
X53778Y-52868D01*
X53800Y-52979D01*
X53863Y-53073D01*
X54082Y-53292D01*
X53979Y-53250D01*
X53820Y-53249D01*
X53673Y-53310D01*
X53624Y-53360D01*
X53433Y-53360D01*
X53433Y-49618D01*
X53433Y-49519D01*
X53433Y-49243D01*
X53412Y-49194D01*
X53433Y-49146D01*
X53433Y-49046D01*
X53433Y-48771D01*
X53412Y-48722D01*
X53433Y-48673D01*
X53433Y-48574D01*
X53433Y-48298D01*
X53412Y-48250D01*
X53433Y-48201D01*
X53433Y-48101D01*
X53433Y-47826D01*
X53412Y-47777D01*
X53433Y-47728D01*
X53433Y-47629D01*
X53433Y-47353D01*
X53412Y-47305D01*
X53433Y-47256D01*
X53433Y-47156D01*
X53433Y-46881D01*
X53412Y-46832D01*
X53433Y-46783D01*
X53433Y-46684D01*
X53433Y-46408D01*
X53395Y-46317D01*
X53324Y-46246D01*
X53232Y-46208D01*
X53133Y-46208D01*
X52978Y-46208D01*
X52978Y-43257D01*
X52859Y-42969D01*
X52639Y-42749D01*
X52352Y-42630D01*
X52041Y-42630D01*
X51768Y-42743D01*
X51666Y-42497D01*
X51446Y-42277D01*
X51159Y-42158D01*
X50848Y-42157D01*
X50561Y-42276D01*
X50341Y-42496D01*
X50222Y-42783D01*
X50221Y-43094D01*
X50340Y-43381D01*
X50560Y-43601D01*
X50847Y-43720D01*
X51158Y-43721D01*
X51431Y-43607D01*
X51533Y-43853D01*
X51753Y-44073D01*
X52040Y-44193D01*
X52351Y-44193D01*
X52638Y-44074D01*
X52858Y-43855D01*
X52977Y-43567D01*
X52978Y-43257D01*
X52978Y-46208D01*
X52660Y-46208D01*
X52569Y-46246D01*
X52509Y-46306D01*
X51966Y-46306D01*
X51817Y-46157D01*
X51834Y-46116D01*
X51834Y-45884D01*
X51745Y-45669D01*
X51581Y-45504D01*
X51366Y-45415D01*
X51134Y-45415D01*
X50919Y-45504D01*
X50754Y-45668D01*
X50665Y-45883D01*
X50665Y-46115D01*
X50754Y-46330D01*
X50918Y-46495D01*
X50929Y-46499D01*
X50919Y-46504D01*
X50754Y-46668D01*
X50665Y-46883D01*
X50665Y-47115D01*
X50754Y-47330D01*
X50918Y-47495D01*
X51057Y-47553D01*
X51003Y-47553D01*
X50911Y-47591D01*
X50841Y-47661D01*
X50803Y-47753D01*
X50803Y-47852D01*
X50803Y-48246D01*
X50841Y-48338D01*
X50911Y-48408D01*
X51003Y-48446D01*
X51057Y-48446D01*
X50919Y-48504D01*
X50754Y-48668D01*
X50665Y-48883D01*
X50665Y-49115D01*
X50754Y-49330D01*
X50918Y-49495D01*
X50929Y-49499D01*
X50919Y-49504D01*
X50754Y-49668D01*
X50665Y-49883D01*
X50665Y-50115D01*
X50754Y-50330D01*
X50918Y-50495D01*
X51133Y-50584D01*
X51365Y-50584D01*
X51580Y-50495D01*
X51745Y-50331D01*
X51834Y-50116D01*
X51834Y-49884D01*
X51817Y-49842D01*
X51939Y-49721D01*
X52509Y-49721D01*
X52569Y-49780D01*
X52660Y-49818D01*
X52760Y-49818D01*
X53232Y-49818D01*
X53324Y-49780D01*
X53395Y-49710D01*
X53433Y-49618D01*
X53433Y-53360D01*
X52978Y-53360D01*
X52978Y-52233D01*
X52859Y-51946D01*
X52639Y-51726D01*
X52352Y-51606D01*
X52041Y-51606D01*
X51754Y-51725D01*
X51534Y-51944D01*
X51431Y-52192D01*
X51159Y-52079D01*
X50848Y-52078D01*
X50561Y-52197D01*
X50341Y-52417D01*
X50222Y-52704D01*
X50221Y-53015D01*
X50340Y-53302D01*
X50560Y-53522D01*
X50847Y-53641D01*
X51158Y-53642D01*
X51445Y-53523D01*
X51665Y-53303D01*
X51768Y-53056D01*
X52040Y-53169D01*
X52351Y-53169D01*
X52638Y-53051D01*
X52858Y-52831D01*
X52977Y-52544D01*
X52978Y-52233D01*
X52978Y-53360D01*
X52400Y-53360D01*
X52289Y-53382D01*
X52194Y-53444D01*
X51533Y-54106D01*
X50658Y-54106D01*
X50618Y-54009D01*
X50426Y-53817D01*
X50175Y-53713D01*
X49903Y-53712D01*
X49652Y-53816D01*
X49460Y-54008D01*
X49356Y-54259D01*
X49355Y-54531D01*
X49435Y-54725D01*
X49264Y-54725D01*
X49343Y-54532D01*
X49344Y-54260D01*
X49240Y-54009D01*
X49048Y-53817D01*
X48797Y-53713D01*
X48525Y-53712D01*
X48274Y-53816D01*
X48082Y-54008D01*
X47978Y-54259D01*
X47977Y-54531D01*
X48057Y-54725D01*
X47275Y-54725D01*
X47275Y-53059D01*
X47540Y-53169D01*
X47851Y-53169D01*
X48138Y-53051D01*
X48358Y-52831D01*
X48477Y-52544D01*
X48478Y-52233D01*
X48359Y-51946D01*
X48139Y-51726D01*
X47852Y-51606D01*
X47541Y-51606D01*
X47275Y-51716D01*
X47275Y-44082D01*
X47540Y-44193D01*
X47851Y-44193D01*
X48138Y-44074D01*
X48358Y-43855D01*
X48477Y-43567D01*
X48478Y-43257D01*
X48359Y-42969D01*
X48139Y-42749D01*
X47852Y-42630D01*
X47541Y-42630D01*
X47275Y-42740D01*
X47275Y-39900D01*
X51500Y-39900D01*
X51500Y-37799D01*
X51700Y-37799D01*
X51822Y-37775D01*
X52324Y-37775D01*
X52487Y-37742D01*
X52494Y-37737D01*
X52511Y-37737D01*
X52599Y-37701D01*
X52688Y-37737D01*
X52693Y-37737D01*
X52737Y-37767D01*
X52900Y-37799D01*
X53500Y-37799D01*
X53698Y-37799D01*
X53725Y-37826D01*
X53725Y-37974D01*
X53757Y-38137D01*
X53762Y-38144D01*
X53762Y-38161D01*
X53798Y-38249D01*
X53780Y-38294D01*
X53699Y-38375D01*
X53607Y-38512D01*
X53575Y-38675D01*
X53575Y-44750D01*
X53607Y-44912D01*
X53643Y-44967D01*
X53643Y-45395D01*
X53676Y-45558D01*
X53681Y-45565D01*
X53681Y-45681D01*
X53719Y-45773D01*
X53789Y-45843D01*
X53881Y-45881D01*
X53980Y-45881D01*
X54256Y-45881D01*
X54348Y-45843D01*
X54418Y-45773D01*
X54456Y-45681D01*
X54456Y-45582D01*
X54456Y-45565D01*
X54461Y-45558D01*
X54493Y-45395D01*
X54493Y-44818D01*
X54461Y-44656D01*
X54425Y-44601D01*
X54425Y-38950D01*
X54700Y-38950D01*
X54764Y-38937D01*
X54911Y-38937D01*
X54999Y-38901D01*
X55088Y-38937D01*
X55105Y-38937D01*
X55112Y-38942D01*
X55275Y-38975D01*
X56450Y-38975D01*
X56612Y-38942D01*
X56750Y-38850D01*
X56850Y-38750D01*
X56942Y-38612D01*
X56975Y-38450D01*
X56975Y-38389D01*
X56996Y-38337D01*
X56996Y-38237D01*
X56996Y-37843D01*
X56958Y-37752D01*
X56888Y-37681D01*
X56796Y-37643D01*
X56697Y-37643D01*
X56303Y-37643D01*
X56211Y-37681D01*
X56141Y-37752D01*
X56103Y-37843D01*
X56103Y-37943D01*
X56103Y-38125D01*
X55275Y-38125D01*
X55112Y-38157D01*
X55105Y-38162D01*
X55088Y-38162D01*
X55000Y-38198D01*
X54911Y-38162D01*
X54906Y-38162D01*
X54862Y-38132D01*
X54700Y-38100D01*
X54549Y-38100D01*
X54575Y-37974D01*
X54575Y-37650D01*
X54542Y-37487D01*
X54450Y-37349D01*
X54450Y-37349D01*
X54176Y-37075D01*
X57341Y-37075D01*
X60309Y-42220D01*
X60159Y-42158D01*
X59848Y-42157D01*
X59561Y-42276D01*
X59341Y-42496D01*
X59222Y-42783D01*
X59221Y-43094D01*
X59340Y-43381D01*
X59560Y-43601D01*
X59847Y-43720D01*
X60158Y-43721D01*
X60445Y-43602D01*
X60665Y-43382D01*
X60784Y-43095D01*
X60784Y-43044D01*
X63995Y-48609D01*
X63995Y-48609D01*
G37*
G54D48*
X63995Y-48609D02*
X63318Y-47931D01*
X63172Y-47834D01*
X63000Y-47800D01*
X62273Y-47800D01*
X62354Y-47604D01*
X62354Y-47364D01*
X62262Y-47142D01*
X62092Y-46972D01*
X61870Y-46880D01*
X61630Y-46879D01*
X61408Y-46971D01*
X61237Y-47141D01*
X61145Y-47363D01*
X61145Y-47603D01*
X61226Y-47800D01*
X60750Y-47800D01*
X60577Y-47834D01*
X60431Y-47931D01*
X60339Y-48024D01*
X60019Y-48024D01*
X60084Y-47866D01*
X60084Y-47799D01*
X60179Y-47800D01*
X60326Y-47739D01*
X60438Y-47626D01*
X60499Y-47479D01*
X60500Y-47320D01*
X60439Y-47173D01*
X60326Y-47061D01*
X60179Y-47000D01*
X60110Y-47000D01*
X59973Y-46863D01*
X59879Y-46800D01*
X59768Y-46778D01*
X58860Y-46778D01*
X58887Y-46713D01*
X58887Y-46613D01*
X58887Y-46338D01*
X58851Y-46250D01*
X58887Y-46161D01*
X58887Y-46062D01*
X58887Y-45786D01*
X58849Y-45695D01*
X58779Y-45624D01*
X58687Y-45586D01*
X58588Y-45586D01*
X58312Y-45586D01*
X58220Y-45624D01*
X58150Y-45695D01*
X58138Y-45724D01*
X58070Y-45769D01*
X58005Y-45834D01*
X57990Y-45834D01*
X57930Y-45774D01*
X57839Y-45736D01*
X57739Y-45736D01*
X57268Y-45736D01*
X57291Y-45681D01*
X57291Y-45582D01*
X57291Y-45109D01*
X57253Y-45017D01*
X57197Y-44962D01*
X57230Y-44929D01*
X57275Y-44861D01*
X57304Y-44849D01*
X57375Y-44779D01*
X57413Y-44687D01*
X57413Y-44588D01*
X57413Y-44312D01*
X57375Y-44220D01*
X57304Y-44150D01*
X57213Y-44112D01*
X57113Y-44112D01*
X57047Y-44112D01*
X57138Y-44074D01*
X57358Y-43855D01*
X57477Y-43567D01*
X57478Y-43257D01*
X57359Y-42969D01*
X57139Y-42749D01*
X56852Y-42630D01*
X56541Y-42630D01*
X56268Y-42743D01*
X56166Y-42497D01*
X55946Y-42277D01*
X55659Y-42158D01*
X55348Y-42157D01*
X55061Y-42276D01*
X54841Y-42496D01*
X54722Y-42783D01*
X54721Y-43094D01*
X54840Y-43381D01*
X55060Y-43601D01*
X55347Y-43720D01*
X55658Y-43721D01*
X55931Y-43607D01*
X56033Y-43853D01*
X56253Y-44073D01*
X56345Y-44112D01*
X56286Y-44112D01*
X56195Y-44150D01*
X56124Y-44220D01*
X56086Y-44312D01*
X56086Y-44411D01*
X56086Y-44687D01*
X56124Y-44779D01*
X56141Y-44795D01*
X56141Y-44958D01*
X56081Y-45017D01*
X56043Y-45109D01*
X56043Y-45209D01*
X56043Y-45681D01*
X56081Y-45773D01*
X56151Y-45843D01*
X56243Y-45881D01*
X56343Y-45881D01*
X56618Y-45881D01*
X56667Y-45861D01*
X56716Y-45881D01*
X56815Y-45881D01*
X57089Y-45881D01*
X57066Y-45936D01*
X57066Y-46035D01*
X57066Y-46311D01*
X57087Y-46360D01*
X57066Y-46408D01*
X57066Y-46508D01*
X57066Y-46783D01*
X57087Y-46832D01*
X57066Y-46881D01*
X57066Y-46980D01*
X57066Y-47256D01*
X57104Y-47348D01*
X57175Y-47418D01*
X57267Y-47456D01*
X57366Y-47456D01*
X57839Y-47456D01*
X57930Y-47418D01*
X57990Y-47358D01*
X59064Y-47358D01*
X59004Y-47418D01*
X58915Y-47633D01*
X58915Y-47723D01*
X57990Y-47723D01*
X57930Y-47664D01*
X57839Y-47625D01*
X57739Y-47625D01*
X57267Y-47625D01*
X57175Y-47664D01*
X57104Y-47734D01*
X57066Y-47826D01*
X57066Y-47925D01*
X57066Y-48201D01*
X57087Y-48249D01*
X57066Y-48298D01*
X57066Y-48398D01*
X57066Y-48673D01*
X57104Y-48765D01*
X57175Y-48835D01*
X57267Y-48874D01*
X57339Y-48874D01*
X57380Y-48901D01*
X57553Y-48936D01*
X57612Y-48924D01*
X58800Y-48924D01*
X58800Y-49825D01*
X58500Y-49825D01*
X58327Y-49859D01*
X58242Y-49916D01*
X58220Y-49925D01*
X58220Y-49925D01*
X57553Y-49925D01*
X57380Y-49960D01*
X57339Y-49988D01*
X57267Y-49988D01*
X57175Y-50026D01*
X57104Y-50096D01*
X57066Y-50188D01*
X57066Y-50287D01*
X57066Y-50563D01*
X57104Y-50655D01*
X57175Y-50725D01*
X57267Y-50763D01*
X57339Y-50763D01*
X57380Y-50791D01*
X57553Y-50825D01*
X58399Y-50825D01*
X58571Y-50791D01*
X58670Y-50725D01*
X59024Y-50725D01*
X59196Y-50691D01*
X59342Y-50593D01*
X59568Y-50368D01*
X59665Y-50222D01*
X59700Y-50050D01*
X59700Y-48924D01*
X60525Y-48924D01*
X60697Y-48890D01*
X60843Y-48792D01*
X60895Y-48740D01*
X60895Y-49404D01*
X60933Y-49495D01*
X61004Y-49566D01*
X61057Y-49588D01*
X60987Y-49657D01*
X60895Y-49879D01*
X60895Y-50119D01*
X60987Y-50341D01*
X61145Y-50500D01*
X60987Y-50657D01*
X60895Y-50879D01*
X60895Y-50980D01*
X60826Y-50911D01*
X60679Y-50850D01*
X60520Y-50849D01*
X60490Y-50862D01*
X60490Y-50850D01*
X60490Y-50425D01*
X60538Y-50376D01*
X60599Y-50229D01*
X60600Y-50070D01*
X60539Y-49923D01*
X60426Y-49811D01*
X60279Y-49750D01*
X60120Y-49749D01*
X59973Y-49810D01*
X59861Y-49923D01*
X59800Y-50070D01*
X59799Y-50229D01*
X59860Y-50376D01*
X59910Y-50425D01*
X59910Y-50550D01*
X59770Y-50549D01*
X59623Y-50610D01*
X59574Y-50660D01*
X59500Y-50660D01*
X59389Y-50682D01*
X59294Y-50744D01*
X58894Y-51144D01*
X58832Y-51239D01*
X58810Y-51350D01*
X58810Y-51779D01*
X58629Y-51960D01*
X58424Y-51960D01*
X58389Y-51873D01*
X58276Y-51761D01*
X58129Y-51700D01*
X57970Y-51699D01*
X57823Y-51760D01*
X57711Y-51873D01*
X57702Y-51892D01*
X57305Y-51494D01*
X57210Y-51432D01*
X57100Y-51410D01*
X57050Y-51410D01*
X56810Y-51410D01*
X56818Y-51390D01*
X56818Y-51290D01*
X56818Y-50818D01*
X56780Y-50726D01*
X56710Y-50656D01*
X56618Y-50618D01*
X56519Y-50618D01*
X56243Y-50618D01*
X56151Y-50656D01*
X56081Y-50726D01*
X56043Y-50818D01*
X56043Y-50917D01*
X56043Y-51390D01*
X56081Y-51482D01*
X56143Y-51544D01*
X56163Y-51642D01*
X56226Y-51736D01*
X56234Y-51744D01*
X56034Y-51944D01*
X55931Y-52192D01*
X55749Y-52116D01*
X55838Y-52026D01*
X55899Y-51879D01*
X55900Y-51720D01*
X55839Y-51573D01*
X55791Y-51526D01*
X55835Y-51482D01*
X55874Y-51390D01*
X55874Y-51290D01*
X55874Y-50818D01*
X55835Y-50726D01*
X55765Y-50656D01*
X55673Y-50618D01*
X55574Y-50618D01*
X55298Y-50618D01*
X55250Y-50638D01*
X55201Y-50618D01*
X55101Y-50618D01*
X54826Y-50618D01*
X54777Y-50638D01*
X54728Y-50618D01*
X54629Y-50618D01*
X54353Y-50618D01*
X54305Y-50638D01*
X54256Y-50618D01*
X54156Y-50618D01*
X53881Y-50618D01*
X53789Y-50656D01*
X53719Y-50726D01*
X53681Y-50818D01*
X53681Y-50917D01*
X53681Y-51390D01*
X53719Y-51482D01*
X53778Y-51541D01*
X53778Y-52350D01*
X53778Y-52868D01*
X53800Y-52979D01*
X53863Y-53073D01*
X54082Y-53292D01*
X53979Y-53250D01*
X53820Y-53249D01*
X53673Y-53310D01*
X53624Y-53360D01*
X53433Y-53360D01*
X53433Y-49618D01*
X53433Y-49519D01*
X53433Y-49243D01*
X53412Y-49194D01*
X53433Y-49146D01*
X53433Y-49046D01*
X53433Y-48771D01*
X53412Y-48722D01*
X53433Y-48673D01*
X53433Y-48574D01*
X53433Y-48298D01*
X53412Y-48250D01*
X53433Y-48201D01*
X53433Y-48101D01*
X53433Y-47826D01*
X53412Y-47777D01*
X53433Y-47728D01*
X53433Y-47629D01*
X53433Y-47353D01*
X53412Y-47305D01*
X53433Y-47256D01*
X53433Y-47156D01*
X53433Y-46881D01*
X53412Y-46832D01*
X53433Y-46783D01*
X53433Y-46684D01*
X53433Y-46408D01*
X53395Y-46317D01*
X53324Y-46246D01*
X53232Y-46208D01*
X53133Y-46208D01*
X52978Y-46208D01*
X52978Y-43257D01*
X52859Y-42969D01*
X52639Y-42749D01*
X52352Y-42630D01*
X52041Y-42630D01*
X51768Y-42743D01*
X51666Y-42497D01*
X51446Y-42277D01*
X51159Y-42158D01*
X50848Y-42157D01*
X50561Y-42276D01*
X50341Y-42496D01*
X50222Y-42783D01*
X50221Y-43094D01*
X50340Y-43381D01*
X50560Y-43601D01*
X50847Y-43720D01*
X51158Y-43721D01*
X51431Y-43607D01*
X51533Y-43853D01*
X51753Y-44073D01*
X52040Y-44193D01*
X52351Y-44193D01*
X52638Y-44074D01*
X52858Y-43855D01*
X52977Y-43567D01*
X52978Y-43257D01*
X52978Y-46208D01*
X52660Y-46208D01*
X52569Y-46246D01*
X52509Y-46306D01*
X51966Y-46306D01*
X51817Y-46157D01*
X51834Y-46116D01*
X51834Y-45884D01*
X51745Y-45669D01*
X51581Y-45504D01*
X51366Y-45415D01*
X51134Y-45415D01*
X50919Y-45504D01*
X50754Y-45668D01*
X50665Y-45883D01*
X50665Y-46115D01*
X50754Y-46330D01*
X50918Y-46495D01*
X50929Y-46499D01*
X50919Y-46504D01*
X50754Y-46668D01*
X50665Y-46883D01*
X50665Y-47115D01*
X50754Y-47330D01*
X50918Y-47495D01*
X51057Y-47553D01*
X51003Y-47553D01*
X50911Y-47591D01*
X50841Y-47661D01*
X50803Y-47753D01*
X50803Y-47852D01*
X50803Y-48246D01*
X50841Y-48338D01*
X50911Y-48408D01*
X51003Y-48446D01*
X51057Y-48446D01*
X50919Y-48504D01*
X50754Y-48668D01*
X50665Y-48883D01*
X50665Y-49115D01*
X50754Y-49330D01*
X50918Y-49495D01*
X50929Y-49499D01*
X50919Y-49504D01*
X50754Y-49668D01*
X50665Y-49883D01*
X50665Y-50115D01*
X50754Y-50330D01*
X50918Y-50495D01*
X51133Y-50584D01*
X51365Y-50584D01*
X51580Y-50495D01*
X51745Y-50331D01*
X51834Y-50116D01*
X51834Y-49884D01*
X51817Y-49842D01*
X51939Y-49721D01*
X52509Y-49721D01*
X52569Y-49780D01*
X52660Y-49818D01*
X52760Y-49818D01*
X53232Y-49818D01*
X53324Y-49780D01*
X53395Y-49710D01*
X53433Y-49618D01*
X53433Y-53360D01*
X52978Y-53360D01*
X52978Y-52233D01*
X52859Y-51946D01*
X52639Y-51726D01*
X52352Y-51606D01*
X52041Y-51606D01*
X51754Y-51725D01*
X51534Y-51944D01*
X51431Y-52192D01*
X51159Y-52079D01*
X50848Y-52078D01*
X50561Y-52197D01*
X50341Y-52417D01*
X50222Y-52704D01*
X50221Y-53015D01*
X50340Y-53302D01*
X50560Y-53522D01*
X50847Y-53641D01*
X51158Y-53642D01*
X51445Y-53523D01*
X51665Y-53303D01*
X51768Y-53056D01*
X52040Y-53169D01*
X52351Y-53169D01*
X52638Y-53051D01*
X52858Y-52831D01*
X52977Y-52544D01*
X52978Y-52233D01*
X52978Y-53360D01*
X52400Y-53360D01*
X52289Y-53382D01*
X52194Y-53444D01*
X51533Y-54106D01*
X50658Y-54106D01*
X50618Y-54009D01*
X50426Y-53817D01*
X50175Y-53713D01*
X49903Y-53712D01*
X49652Y-53816D01*
X49460Y-54008D01*
X49356Y-54259D01*
X49355Y-54531D01*
X49435Y-54725D01*
X49264Y-54725D01*
X49343Y-54532D01*
X49344Y-54260D01*
X49240Y-54009D01*
X49048Y-53817D01*
X48797Y-53713D01*
X48525Y-53712D01*
X48274Y-53816D01*
X48082Y-54008D01*
X47978Y-54259D01*
X47977Y-54531D01*
X48057Y-54725D01*
X47275Y-54725D01*
X47275Y-53059D01*
X47540Y-53169D01*
X47851Y-53169D01*
X48138Y-53051D01*
X48358Y-52831D01*
X48477Y-52544D01*
X48478Y-52233D01*
X48359Y-51946D01*
X48139Y-51726D01*
X47852Y-51606D01*
X47541Y-51606D01*
X47275Y-51716D01*
X47275Y-44082D01*
X47540Y-44193D01*
X47851Y-44193D01*
X48138Y-44074D01*
X48358Y-43855D01*
X48477Y-43567D01*
X48478Y-43257D01*
X48359Y-42969D01*
X48139Y-42749D01*
X47852Y-42630D01*
X47541Y-42630D01*
X47275Y-42740D01*
X47275Y-39900D01*
X51500Y-39900D01*
X51500Y-37799D01*
X51700Y-37799D01*
X51822Y-37775D01*
X52324Y-37775D01*
X52487Y-37742D01*
X52494Y-37737D01*
X52511Y-37737D01*
X52599Y-37701D01*
X52688Y-37737D01*
X52693Y-37737D01*
X52737Y-37767D01*
X52900Y-37799D01*
X53500Y-37799D01*
X53698Y-37799D01*
X53725Y-37826D01*
X53725Y-37974D01*
X53757Y-38137D01*
X53762Y-38144D01*
X53762Y-38161D01*
X53798Y-38249D01*
X53780Y-38294D01*
X53699Y-38375D01*
X53607Y-38512D01*
X53575Y-38675D01*
X53575Y-44750D01*
X53607Y-44912D01*
X53643Y-44967D01*
X53643Y-45395D01*
X53676Y-45558D01*
X53681Y-45565D01*
X53681Y-45681D01*
X53719Y-45773D01*
X53789Y-45843D01*
X53881Y-45881D01*
X53980Y-45881D01*
X54256Y-45881D01*
X54348Y-45843D01*
X54418Y-45773D01*
X54456Y-45681D01*
X54456Y-45582D01*
X54456Y-45565D01*
X54461Y-45558D01*
X54493Y-45395D01*
X54493Y-44818D01*
X54461Y-44656D01*
X54425Y-44601D01*
X54425Y-38950D01*
X54700Y-38950D01*
X54764Y-38937D01*
X54911Y-38937D01*
X54999Y-38901D01*
X55088Y-38937D01*
X55105Y-38937D01*
X55112Y-38942D01*
X55275Y-38975D01*
X56450Y-38975D01*
X56612Y-38942D01*
X56750Y-38850D01*
X56850Y-38750D01*
X56942Y-38612D01*
X56975Y-38450D01*
X56975Y-38389D01*
X56996Y-38337D01*
X56996Y-38237D01*
X56996Y-37843D01*
X56958Y-37752D01*
X56888Y-37681D01*
X56796Y-37643D01*
X56697Y-37643D01*
X56303Y-37643D01*
X56211Y-37681D01*
X56141Y-37752D01*
X56103Y-37843D01*
X56103Y-37943D01*
X56103Y-38125D01*
X55275Y-38125D01*
X55112Y-38157D01*
X55105Y-38162D01*
X55088Y-38162D01*
X55000Y-38198D01*
X54911Y-38162D01*
X54906Y-38162D01*
X54862Y-38132D01*
X54700Y-38100D01*
X54549Y-38100D01*
X54575Y-37974D01*
X54575Y-37650D01*
X54542Y-37487D01*
X54450Y-37349D01*
X54450Y-37349D01*
X54176Y-37075D01*
X57341Y-37075D01*
X60309Y-42220D01*
X60159Y-42158D01*
X59848Y-42157D01*
X59561Y-42276D01*
X59341Y-42496D01*
X59222Y-42783D01*
X59221Y-43094D01*
X59340Y-43381D01*
X59560Y-43601D01*
X59847Y-43720D01*
X60158Y-43721D01*
X60445Y-43602D01*
X60665Y-43382D01*
X60784Y-43095D01*
X60784Y-43044D01*
X63995Y-48609D01*
G54D10*
G36*
X67523Y-54725D02*
X59642Y-54725D01*
X59721Y-54532D01*
X59722Y-54260D01*
X59618Y-54009D01*
X59426Y-53817D01*
X59175Y-53713D01*
X58903Y-53712D01*
X58652Y-53816D01*
X58514Y-53954D01*
X58155Y-53594D01*
X58060Y-53532D01*
X57950Y-53510D01*
X57490Y-53510D01*
X57490Y-53470D01*
X57820Y-53140D01*
X59050Y-53140D01*
X59160Y-53117D01*
X59241Y-53063D01*
X59340Y-53302D01*
X59560Y-53522D01*
X59847Y-53641D01*
X60158Y-53642D01*
X60445Y-53523D01*
X60665Y-53303D01*
X60784Y-53016D01*
X60785Y-52895D01*
X60895Y-53005D01*
X60895Y-53119D01*
X60987Y-53341D01*
X61157Y-53512D01*
X61379Y-53604D01*
X61619Y-53604D01*
X61841Y-53512D01*
X62012Y-53342D01*
X62013Y-53339D01*
X62168Y-53495D01*
X62383Y-53584D01*
X62615Y-53584D01*
X62830Y-53495D01*
X62995Y-53331D01*
X62999Y-53320D01*
X63004Y-53330D01*
X63168Y-53495D01*
X63383Y-53584D01*
X63615Y-53584D01*
X63830Y-53495D01*
X63995Y-53331D01*
X64084Y-53116D01*
X64084Y-52884D01*
X64031Y-52754D01*
X64105Y-52705D01*
X64205Y-52605D01*
X64254Y-52531D01*
X64383Y-52584D01*
X64615Y-52584D01*
X64830Y-52495D01*
X64995Y-52331D01*
X65084Y-52116D01*
X65084Y-51884D01*
X64995Y-51669D01*
X64831Y-51504D01*
X64820Y-51500D01*
X64830Y-51495D01*
X64995Y-51331D01*
X65084Y-51116D01*
X65084Y-50884D01*
X64995Y-50669D01*
X64950Y-50623D01*
X64950Y-50500D01*
X64915Y-50327D01*
X64818Y-50181D01*
X64225Y-49589D01*
X64225Y-49025D01*
X64220Y-48998D01*
X67523Y-54725D01*
X67523Y-54725D01*
G37*
G54D48*
X67523Y-54725D02*
X59642Y-54725D01*
X59721Y-54532D01*
X59722Y-54260D01*
X59618Y-54009D01*
X59426Y-53817D01*
X59175Y-53713D01*
X58903Y-53712D01*
X58652Y-53816D01*
X58514Y-53954D01*
X58155Y-53594D01*
X58060Y-53532D01*
X57950Y-53510D01*
X57490Y-53510D01*
X57490Y-53470D01*
X57820Y-53140D01*
X59050Y-53140D01*
X59160Y-53117D01*
X59241Y-53063D01*
X59340Y-53302D01*
X59560Y-53522D01*
X59847Y-53641D01*
X60158Y-53642D01*
X60445Y-53523D01*
X60665Y-53303D01*
X60784Y-53016D01*
X60785Y-52895D01*
X60895Y-53005D01*
X60895Y-53119D01*
X60987Y-53341D01*
X61157Y-53512D01*
X61379Y-53604D01*
X61619Y-53604D01*
X61841Y-53512D01*
X62012Y-53342D01*
X62013Y-53339D01*
X62168Y-53495D01*
X62383Y-53584D01*
X62615Y-53584D01*
X62830Y-53495D01*
X62995Y-53331D01*
X62999Y-53320D01*
X63004Y-53330D01*
X63168Y-53495D01*
X63383Y-53584D01*
X63615Y-53584D01*
X63830Y-53495D01*
X63995Y-53331D01*
X64084Y-53116D01*
X64084Y-52884D01*
X64031Y-52754D01*
X64105Y-52705D01*
X64205Y-52605D01*
X64254Y-52531D01*
X64383Y-52584D01*
X64615Y-52584D01*
X64830Y-52495D01*
X64995Y-52331D01*
X65084Y-52116D01*
X65084Y-51884D01*
X64995Y-51669D01*
X64831Y-51504D01*
X64820Y-51500D01*
X64830Y-51495D01*
X64995Y-51331D01*
X65084Y-51116D01*
X65084Y-50884D01*
X64995Y-50669D01*
X64950Y-50623D01*
X64950Y-50500D01*
X64915Y-50327D01*
X64818Y-50181D01*
X64225Y-49589D01*
X64225Y-49025D01*
X64220Y-48998D01*
X67523Y-54725D01*
G54D10*
G36*
X71690Y-38650D02*
X71966Y-38650D01*
X73000Y-37875D01*
X73000Y-37300D01*
X75200Y-37300D01*
X75200Y-37759D01*
X73973Y-38004D01*
X72547Y-39676D01*
X72282Y-39411D01*
X71690Y-39002D01*
X71690Y-38947D01*
X71690Y-38650D01*
X71690Y-38650D01*
G37*
G54D48*
X71690Y-38650D02*
X71966Y-38650D01*
X73000Y-37875D01*
X73000Y-37300D01*
X75200Y-37300D01*
X75200Y-37759D01*
X73973Y-38004D01*
X72547Y-39676D01*
X72282Y-39411D01*
X71690Y-39002D01*
X71690Y-38947D01*
X71690Y-38650D01*
G54D10*
G36*
X69747Y-41776D02*
X69936Y-41587D01*
X70137Y-41754D01*
X70173Y-41745D01*
X70188Y-41760D01*
X70279Y-41798D01*
X70379Y-41798D01*
X70471Y-41760D01*
X70541Y-41690D01*
X70600Y-41631D01*
X70926Y-41544D01*
X71481Y-40939D01*
X72980Y-40090D01*
X73300Y-39770D01*
X73529Y-40000D01*
X73189Y-40340D01*
X73312Y-40587D01*
X73280Y-40666D01*
X73280Y-40766D01*
X73318Y-40858D01*
X73388Y-40928D01*
X73578Y-41118D01*
X73958Y-41879D01*
X74379Y-42300D01*
X74130Y-42548D01*
X71857Y-42400D01*
X69925Y-41954D01*
X69747Y-41776D01*
X69747Y-41776D01*
G37*
G54D48*
X69747Y-41776D02*
X69936Y-41587D01*
X70137Y-41754D01*
X70173Y-41745D01*
X70188Y-41760D01*
X70279Y-41798D01*
X70379Y-41798D01*
X70471Y-41760D01*
X70541Y-41690D01*
X70600Y-41631D01*
X70926Y-41544D01*
X71481Y-40939D01*
X72980Y-40090D01*
X73300Y-39770D01*
X73529Y-40000D01*
X73189Y-40340D01*
X73312Y-40587D01*
X73280Y-40666D01*
X73280Y-40766D01*
X73318Y-40858D01*
X73388Y-40928D01*
X73578Y-41118D01*
X73958Y-41879D01*
X74379Y-42300D01*
X74130Y-42548D01*
X71857Y-42400D01*
X69925Y-41954D01*
X69747Y-41776D01*
G54D10*
G36*
X69750Y-37250D02*
X70275Y-37250D01*
X71309Y-38612D01*
X71309Y-38652D01*
X71309Y-38912D01*
X71064Y-38947D01*
X69750Y-37876D01*
X69750Y-37250D01*
X69750Y-37250D01*
G37*
G54D48*
X69750Y-37250D02*
X70275Y-37250D01*
X71309Y-38612D01*
X71309Y-38652D01*
X71309Y-38912D01*
X71064Y-38947D01*
X69750Y-37876D01*
X69750Y-37250D01*
G54D10*
G36*
X73218Y-42997D02*
X74268Y-43102D01*
X74807Y-42563D01*
X74740Y-42363D01*
X74743Y-42357D01*
X74743Y-42258D01*
X74704Y-42166D01*
X74659Y-42121D01*
X74543Y-41772D01*
X74047Y-41276D01*
X73888Y-40099D01*
X74048Y-39939D01*
X74086Y-39847D01*
X74086Y-39748D01*
X74048Y-39656D01*
X73977Y-39585D01*
X73778Y-39386D01*
X73706Y-39205D01*
X74280Y-38344D01*
X74429Y-38315D01*
X74395Y-38395D01*
X74395Y-38495D01*
X74395Y-39204D01*
X74433Y-39295D01*
X74504Y-39366D01*
X74595Y-39404D01*
X74695Y-39404D01*
X75404Y-39404D01*
X75495Y-39366D01*
X75566Y-39295D01*
X75604Y-39204D01*
X75604Y-39104D01*
X75604Y-38395D01*
X75566Y-38304D01*
X75495Y-38233D01*
X75404Y-38195D01*
X75304Y-38195D01*
X75026Y-38195D01*
X75233Y-38154D01*
X75404Y-38154D01*
X75495Y-38116D01*
X75514Y-38098D01*
X75550Y-38090D01*
X75550Y-38062D01*
X75566Y-38045D01*
X75604Y-37954D01*
X75604Y-37854D01*
X75604Y-37145D01*
X75574Y-37075D01*
X78023Y-37075D01*
X74204Y-43695D01*
X74204Y-43668D01*
X74112Y-43446D01*
X73942Y-43275D01*
X73720Y-43183D01*
X73480Y-43183D01*
X73437Y-43201D01*
X73324Y-43087D01*
X73230Y-43025D01*
X73230Y-43025D01*
X73218Y-42997D01*
X73218Y-42997D01*
G37*
G54D48*
X73218Y-42997D02*
X74268Y-43102D01*
X74807Y-42563D01*
X74740Y-42363D01*
X74743Y-42357D01*
X74743Y-42258D01*
X74704Y-42166D01*
X74659Y-42121D01*
X74543Y-41772D01*
X74047Y-41276D01*
X73888Y-40099D01*
X74048Y-39939D01*
X74086Y-39847D01*
X74086Y-39748D01*
X74048Y-39656D01*
X73977Y-39585D01*
X73778Y-39386D01*
X73706Y-39205D01*
X74280Y-38344D01*
X74429Y-38315D01*
X74395Y-38395D01*
X74395Y-38495D01*
X74395Y-39204D01*
X74433Y-39295D01*
X74504Y-39366D01*
X74595Y-39404D01*
X74695Y-39404D01*
X75404Y-39404D01*
X75495Y-39366D01*
X75566Y-39295D01*
X75604Y-39204D01*
X75604Y-39104D01*
X75604Y-38395D01*
X75566Y-38304D01*
X75495Y-38233D01*
X75404Y-38195D01*
X75304Y-38195D01*
X75026Y-38195D01*
X75233Y-38154D01*
X75404Y-38154D01*
X75495Y-38116D01*
X75514Y-38098D01*
X75550Y-38090D01*
X75550Y-38062D01*
X75566Y-38045D01*
X75604Y-37954D01*
X75604Y-37854D01*
X75604Y-37145D01*
X75574Y-37075D01*
X78023Y-37075D01*
X74204Y-43695D01*
X74204Y-43668D01*
X74112Y-43446D01*
X73942Y-43275D01*
X73720Y-43183D01*
X73480Y-43183D01*
X73437Y-43201D01*
X73324Y-43087D01*
X73230Y-43025D01*
X73230Y-43025D01*
X73218Y-42997D01*
G54D10*
G36*
X71150Y-42701D02*
X71741Y-42849D01*
X72465Y-42921D01*
X72425Y-42961D01*
X72387Y-43053D01*
X72387Y-43152D01*
X72387Y-43475D01*
X72315Y-43475D01*
X72276Y-43436D01*
X72129Y-43375D01*
X71970Y-43374D01*
X71823Y-43435D01*
X71711Y-43548D01*
X71650Y-43695D01*
X71650Y-43699D01*
X71620Y-43699D01*
X71473Y-43760D01*
X71361Y-43873D01*
X71300Y-44020D01*
X71299Y-44179D01*
X71360Y-44326D01*
X71473Y-44438D01*
X71620Y-44499D01*
X71779Y-44500D01*
X71926Y-44439D01*
X71965Y-44400D01*
X72475Y-44400D01*
X72528Y-44453D01*
X72495Y-44533D01*
X72495Y-44773D01*
X72587Y-44995D01*
X72757Y-45166D01*
X72979Y-45258D01*
X73219Y-45258D01*
X73328Y-45213D01*
X72704Y-46295D01*
X72704Y-46266D01*
X72612Y-46044D01*
X72442Y-45873D01*
X72220Y-45781D01*
X71980Y-45781D01*
X71758Y-45873D01*
X71652Y-45978D01*
X71150Y-45475D01*
X71150Y-44200D01*
X71150Y-43900D01*
X71150Y-42701D01*
X71150Y-42701D01*
G37*
G54D48*
X71150Y-42701D02*
X71741Y-42849D01*
X72465Y-42921D01*
X72425Y-42961D01*
X72387Y-43053D01*
X72387Y-43152D01*
X72387Y-43475D01*
X72315Y-43475D01*
X72276Y-43436D01*
X72129Y-43375D01*
X71970Y-43374D01*
X71823Y-43435D01*
X71711Y-43548D01*
X71650Y-43695D01*
X71650Y-43699D01*
X71620Y-43699D01*
X71473Y-43760D01*
X71361Y-43873D01*
X71300Y-44020D01*
X71299Y-44179D01*
X71360Y-44326D01*
X71473Y-44438D01*
X71620Y-44499D01*
X71779Y-44500D01*
X71926Y-44439D01*
X71965Y-44400D01*
X72475Y-44400D01*
X72528Y-44453D01*
X72495Y-44533D01*
X72495Y-44773D01*
X72587Y-44995D01*
X72757Y-45166D01*
X72979Y-45258D01*
X73219Y-45258D01*
X73328Y-45213D01*
X72704Y-46295D01*
X72704Y-46266D01*
X72612Y-46044D01*
X72442Y-45873D01*
X72220Y-45781D01*
X71980Y-45781D01*
X71758Y-45873D01*
X71652Y-45978D01*
X71150Y-45475D01*
X71150Y-44200D01*
X71150Y-43900D01*
X71150Y-42701D01*
G54D10*
G36*
X70574Y-37075D02*
X72450Y-37075D01*
X72450Y-37773D01*
X71734Y-38250D01*
X71523Y-38250D01*
X70604Y-37147D01*
X70604Y-37145D01*
X70574Y-37075D01*
X70574Y-37075D01*
G37*
G54D48*
X70574Y-37075D02*
X72450Y-37075D01*
X72450Y-37773D01*
X71734Y-38250D01*
X71523Y-38250D01*
X70604Y-37147D01*
X70604Y-37145D01*
X70574Y-37075D01*
G54D10*
G36*
X69523Y-40750D02*
X69524Y-40750D01*
X69579Y-40750D01*
X69726Y-40689D01*
X69838Y-40576D01*
X69899Y-40429D01*
X69900Y-40270D01*
X69839Y-40123D01*
X69806Y-40090D01*
X69821Y-40090D01*
X69913Y-40052D01*
X69983Y-39982D01*
X70021Y-39890D01*
X70021Y-39790D01*
X70021Y-39772D01*
X70102Y-39772D01*
X70496Y-39772D01*
X70588Y-39733D01*
X70658Y-39663D01*
X70696Y-39571D01*
X70696Y-39472D01*
X70696Y-39321D01*
X70732Y-39350D01*
X71479Y-39350D01*
X72165Y-40036D01*
X71220Y-40508D01*
X70479Y-41250D01*
X70022Y-41250D01*
X70011Y-41239D01*
X70008Y-41238D01*
X69861Y-41091D01*
X69860Y-41088D01*
X69790Y-41017D01*
X69523Y-40750D01*
X69523Y-40750D01*
G37*
G54D48*
X69523Y-40750D02*
X69524Y-40750D01*
X69579Y-40750D01*
X69726Y-40689D01*
X69838Y-40576D01*
X69899Y-40429D01*
X69900Y-40270D01*
X69839Y-40123D01*
X69806Y-40090D01*
X69821Y-40090D01*
X69913Y-40052D01*
X69983Y-39982D01*
X70021Y-39890D01*
X70021Y-39790D01*
X70021Y-39772D01*
X70102Y-39772D01*
X70496Y-39772D01*
X70588Y-39733D01*
X70658Y-39663D01*
X70696Y-39571D01*
X70696Y-39472D01*
X70696Y-39321D01*
X70732Y-39350D01*
X71479Y-39350D01*
X72165Y-40036D01*
X71220Y-40508D01*
X70479Y-41250D01*
X70022Y-41250D01*
X70011Y-41239D01*
X70008Y-41238D01*
X69861Y-41091D01*
X69860Y-41088D01*
X69790Y-41017D01*
X69523Y-40750D01*
G54D10*
G36*
X68665Y-42391D02*
X68731Y-42325D01*
X68746Y-42325D01*
X68753Y-42322D01*
X68675Y-42400D01*
X68665Y-42391D01*
X68665Y-42391D01*
G37*
G54D48*
X68665Y-42391D02*
X68731Y-42325D01*
X68746Y-42325D01*
X68753Y-42322D01*
X68675Y-42400D01*
X68665Y-42391D01*
G54D10*
G36*
X66836Y-42895D02*
X66847Y-42884D01*
X66987Y-42745D01*
X66991Y-42735D01*
X67000Y-42732D01*
X67070Y-42661D01*
X67144Y-42587D01*
X67160Y-42626D01*
X67273Y-42738D01*
X67420Y-42799D01*
X67579Y-42800D01*
X67726Y-42739D01*
X67838Y-42626D01*
X67899Y-42479D01*
X67900Y-42320D01*
X67839Y-42173D01*
X67800Y-42134D01*
X67800Y-42100D01*
X67777Y-41985D01*
X67765Y-41967D01*
X67877Y-41854D01*
X67881Y-41845D01*
X67890Y-41841D01*
X67960Y-41771D01*
X68000Y-41732D01*
X68109Y-41841D01*
X68118Y-41845D01*
X68122Y-41854D01*
X68192Y-41925D01*
X68237Y-41970D01*
X68087Y-42120D01*
X68022Y-42217D01*
X68022Y-42217D01*
X68000Y-42332D01*
X68000Y-42450D01*
X68022Y-42564D01*
X68022Y-42564D01*
X68048Y-42603D01*
X68087Y-42662D01*
X68387Y-42962D01*
X68485Y-43027D01*
X68600Y-43050D01*
X68750Y-43050D01*
X68864Y-43027D01*
X68962Y-42962D01*
X69154Y-42770D01*
X69190Y-42770D01*
X69202Y-42765D01*
X69197Y-42776D01*
X69197Y-42875D01*
X69235Y-42967D01*
X69305Y-43038D01*
X69367Y-43100D01*
X69220Y-43099D01*
X69073Y-43160D01*
X68961Y-43273D01*
X68900Y-43420D01*
X68899Y-43579D01*
X68950Y-43700D01*
X68950Y-43850D01*
X68961Y-43906D01*
X68929Y-43938D01*
X68790Y-44077D01*
X68786Y-44086D01*
X68777Y-44090D01*
X68707Y-44160D01*
X68567Y-44299D01*
X68564Y-44308D01*
X68554Y-44312D01*
X68484Y-44383D01*
X68345Y-44522D01*
X68341Y-44531D01*
X68332Y-44535D01*
X68261Y-44605D01*
X68122Y-44745D01*
X68118Y-44754D01*
X68109Y-44758D01*
X68039Y-44828D01*
X68000Y-44867D01*
X67984Y-44852D01*
X68012Y-44825D01*
X68077Y-44727D01*
X68100Y-44612D01*
X68100Y-44474D01*
X68324Y-44250D01*
X68379Y-44250D01*
X68526Y-44189D01*
X68638Y-44076D01*
X68699Y-43929D01*
X68700Y-43770D01*
X68639Y-43623D01*
X68526Y-43511D01*
X68379Y-43450D01*
X68220Y-43449D01*
X68073Y-43510D01*
X67961Y-43623D01*
X67900Y-43770D01*
X67900Y-43825D01*
X67587Y-44137D01*
X67587Y-44137D01*
X67522Y-44235D01*
X67500Y-44350D01*
X67500Y-44350D01*
X67500Y-44367D01*
X67445Y-44312D01*
X67353Y-44274D01*
X67253Y-44274D01*
X67243Y-44278D01*
X67248Y-44268D01*
X67248Y-44169D01*
X67209Y-44077D01*
X67139Y-44007D01*
X67074Y-43941D01*
X67138Y-43876D01*
X67199Y-43729D01*
X67200Y-43570D01*
X67139Y-43423D01*
X67026Y-43311D01*
X66879Y-43250D01*
X66850Y-43250D01*
X66850Y-42962D01*
X66836Y-42895D01*
X66836Y-42895D01*
G37*
G54D48*
X66836Y-42895D02*
X66847Y-42884D01*
X66987Y-42745D01*
X66991Y-42735D01*
X67000Y-42732D01*
X67070Y-42661D01*
X67144Y-42587D01*
X67160Y-42626D01*
X67273Y-42738D01*
X67420Y-42799D01*
X67579Y-42800D01*
X67726Y-42739D01*
X67838Y-42626D01*
X67899Y-42479D01*
X67900Y-42320D01*
X67839Y-42173D01*
X67800Y-42134D01*
X67800Y-42100D01*
X67777Y-41985D01*
X67765Y-41967D01*
X67877Y-41854D01*
X67881Y-41845D01*
X67890Y-41841D01*
X67960Y-41771D01*
X68000Y-41732D01*
X68109Y-41841D01*
X68118Y-41845D01*
X68122Y-41854D01*
X68192Y-41925D01*
X68237Y-41970D01*
X68087Y-42120D01*
X68022Y-42217D01*
X68022Y-42217D01*
X68000Y-42332D01*
X68000Y-42450D01*
X68022Y-42564D01*
X68022Y-42564D01*
X68048Y-42603D01*
X68087Y-42662D01*
X68387Y-42962D01*
X68485Y-43027D01*
X68600Y-43050D01*
X68750Y-43050D01*
X68864Y-43027D01*
X68962Y-42962D01*
X69154Y-42770D01*
X69190Y-42770D01*
X69202Y-42765D01*
X69197Y-42776D01*
X69197Y-42875D01*
X69235Y-42967D01*
X69305Y-43038D01*
X69367Y-43100D01*
X69220Y-43099D01*
X69073Y-43160D01*
X68961Y-43273D01*
X68900Y-43420D01*
X68899Y-43579D01*
X68950Y-43700D01*
X68950Y-43850D01*
X68961Y-43906D01*
X68929Y-43938D01*
X68790Y-44077D01*
X68786Y-44086D01*
X68777Y-44090D01*
X68707Y-44160D01*
X68567Y-44299D01*
X68564Y-44308D01*
X68554Y-44312D01*
X68484Y-44383D01*
X68345Y-44522D01*
X68341Y-44531D01*
X68332Y-44535D01*
X68261Y-44605D01*
X68122Y-44745D01*
X68118Y-44754D01*
X68109Y-44758D01*
X68039Y-44828D01*
X68000Y-44867D01*
X67984Y-44852D01*
X68012Y-44825D01*
X68077Y-44727D01*
X68100Y-44612D01*
X68100Y-44474D01*
X68324Y-44250D01*
X68379Y-44250D01*
X68526Y-44189D01*
X68638Y-44076D01*
X68699Y-43929D01*
X68700Y-43770D01*
X68639Y-43623D01*
X68526Y-43511D01*
X68379Y-43450D01*
X68220Y-43449D01*
X68073Y-43510D01*
X67961Y-43623D01*
X67900Y-43770D01*
X67900Y-43825D01*
X67587Y-44137D01*
X67587Y-44137D01*
X67522Y-44235D01*
X67500Y-44350D01*
X67500Y-44350D01*
X67500Y-44367D01*
X67445Y-44312D01*
X67353Y-44274D01*
X67253Y-44274D01*
X67243Y-44278D01*
X67248Y-44268D01*
X67248Y-44169D01*
X67209Y-44077D01*
X67139Y-44007D01*
X67074Y-43941D01*
X67138Y-43876D01*
X67199Y-43729D01*
X67200Y-43570D01*
X67139Y-43423D01*
X67026Y-43311D01*
X66879Y-43250D01*
X66850Y-43250D01*
X66850Y-42962D01*
X66836Y-42895D01*
G54D10*
G36*
X66288Y-38409D02*
X66300Y-38350D01*
X66300Y-38079D01*
X66341Y-38062D01*
X66500Y-37904D01*
X66657Y-38062D01*
X66879Y-38154D01*
X67119Y-38154D01*
X67341Y-38062D01*
X67512Y-37892D01*
X67604Y-37670D01*
X67604Y-37430D01*
X67512Y-37208D01*
X67379Y-37075D01*
X68620Y-37075D01*
X68487Y-37207D01*
X68395Y-37429D01*
X68395Y-37669D01*
X68487Y-37891D01*
X68657Y-38062D01*
X68879Y-38154D01*
X69119Y-38154D01*
X69328Y-38068D01*
X69460Y-38332D01*
X69556Y-38409D01*
X68737Y-38409D01*
X68645Y-38447D01*
X68575Y-38517D01*
X68537Y-38609D01*
X68537Y-38709D01*
X68537Y-39890D01*
X68575Y-39982D01*
X68645Y-40052D01*
X68737Y-40090D01*
X68837Y-40090D01*
X68885Y-40090D01*
X68637Y-40337D01*
X68572Y-40435D01*
X68572Y-40435D01*
X68550Y-40550D01*
X68550Y-40550D01*
X68550Y-40822D01*
X68479Y-40822D01*
X68388Y-40860D01*
X68317Y-40931D01*
X68211Y-41037D01*
X67950Y-40775D01*
X67950Y-40250D01*
X67927Y-40135D01*
X67862Y-40037D01*
X67762Y-39937D01*
X67762Y-39937D01*
X67762Y-39937D01*
X67462Y-39638D01*
X67462Y-38609D01*
X67424Y-38517D01*
X67354Y-38447D01*
X67262Y-38409D01*
X67162Y-38409D01*
X66288Y-38409D01*
X66288Y-38409D01*
G37*
G54D48*
X66288Y-38409D02*
X66300Y-38350D01*
X66300Y-38079D01*
X66341Y-38062D01*
X66500Y-37904D01*
X66657Y-38062D01*
X66879Y-38154D01*
X67119Y-38154D01*
X67341Y-38062D01*
X67512Y-37892D01*
X67604Y-37670D01*
X67604Y-37430D01*
X67512Y-37208D01*
X67379Y-37075D01*
X68620Y-37075D01*
X68487Y-37207D01*
X68395Y-37429D01*
X68395Y-37669D01*
X68487Y-37891D01*
X68657Y-38062D01*
X68879Y-38154D01*
X69119Y-38154D01*
X69328Y-38068D01*
X69460Y-38332D01*
X69556Y-38409D01*
X68737Y-38409D01*
X68645Y-38447D01*
X68575Y-38517D01*
X68537Y-38609D01*
X68537Y-38709D01*
X68537Y-39890D01*
X68575Y-39982D01*
X68645Y-40052D01*
X68737Y-40090D01*
X68837Y-40090D01*
X68885Y-40090D01*
X68637Y-40337D01*
X68572Y-40435D01*
X68572Y-40435D01*
X68550Y-40550D01*
X68550Y-40550D01*
X68550Y-40822D01*
X68479Y-40822D01*
X68388Y-40860D01*
X68317Y-40931D01*
X68211Y-41037D01*
X67950Y-40775D01*
X67950Y-40250D01*
X67927Y-40135D01*
X67862Y-40037D01*
X67762Y-39937D01*
X67762Y-39937D01*
X67762Y-39937D01*
X67462Y-39638D01*
X67462Y-38609D01*
X67424Y-38517D01*
X67354Y-38447D01*
X67262Y-38409D01*
X67162Y-38409D01*
X66288Y-38409D01*
G54D10*
G36*
X66148Y-45474D02*
X66410Y-45211D01*
X66448Y-45120D01*
X66448Y-45075D01*
X66638Y-44885D01*
X66637Y-44888D01*
X66637Y-44888D01*
X66572Y-44985D01*
X66550Y-45100D01*
X66550Y-45100D01*
X66550Y-45800D01*
X66474Y-45800D01*
X66148Y-45474D01*
X66148Y-45474D01*
G37*
G54D48*
X66148Y-45474D02*
X66410Y-45211D01*
X66448Y-45120D01*
X66448Y-45075D01*
X66638Y-44885D01*
X66637Y-44888D01*
X66637Y-44888D01*
X66572Y-44985D01*
X66550Y-45100D01*
X66550Y-45100D01*
X66550Y-45800D01*
X66474Y-45800D01*
X66148Y-45474D01*
G54D10*
G36*
X65421Y-40353D02*
X65562Y-40212D01*
X65627Y-40114D01*
X65650Y-40000D01*
X65650Y-39772D01*
X65978Y-39772D01*
X65978Y-39855D01*
X65911Y-39923D01*
X65850Y-40070D01*
X65849Y-40229D01*
X65901Y-40353D01*
X65838Y-40353D01*
X65750Y-40389D01*
X65661Y-40353D01*
X65562Y-40353D01*
X65421Y-40353D01*
X65421Y-40353D01*
G37*
G54D48*
X65421Y-40353D02*
X65562Y-40212D01*
X65627Y-40114D01*
X65650Y-40000D01*
X65650Y-39772D01*
X65978Y-39772D01*
X65978Y-39855D01*
X65911Y-39923D01*
X65850Y-40070D01*
X65849Y-40229D01*
X65901Y-40353D01*
X65838Y-40353D01*
X65750Y-40389D01*
X65661Y-40353D01*
X65562Y-40353D01*
X65421Y-40353D01*
G54D10*
G36*
X64456Y-48308D02*
X64485Y-48327D01*
X64523Y-48334D01*
X64545Y-48388D01*
X64616Y-48458D01*
X64708Y-48496D01*
X64807Y-48496D01*
X65161Y-48496D01*
X65253Y-48458D01*
X65324Y-48388D01*
X65362Y-48296D01*
X65362Y-48197D01*
X65362Y-47803D01*
X65324Y-47711D01*
X65253Y-47641D01*
X65161Y-47603D01*
X65062Y-47603D01*
X64903Y-47603D01*
X64912Y-47594D01*
X64929Y-47552D01*
X66177Y-47552D01*
X66587Y-47962D01*
X66685Y-48027D01*
X66800Y-48050D01*
X67889Y-48050D01*
X67887Y-48053D01*
X67887Y-48152D01*
X67887Y-48546D01*
X67911Y-48603D01*
X67812Y-48603D01*
X67458Y-48603D01*
X67366Y-48641D01*
X67295Y-48711D01*
X67280Y-48750D01*
X67100Y-48750D01*
X66979Y-48700D01*
X66820Y-48699D01*
X66673Y-48760D01*
X66561Y-48873D01*
X66500Y-49020D01*
X66499Y-49179D01*
X66560Y-49326D01*
X66673Y-49438D01*
X66820Y-49499D01*
X66875Y-49499D01*
X67137Y-49762D01*
X67235Y-49827D01*
X67350Y-49850D01*
X68600Y-49850D01*
X68714Y-49827D01*
X68812Y-49762D01*
X69312Y-49262D01*
X69377Y-49164D01*
X69400Y-49050D01*
X69400Y-48174D01*
X69612Y-47962D01*
X69677Y-47864D01*
X69700Y-47750D01*
X69700Y-46674D01*
X69724Y-46650D01*
X70250Y-46650D01*
X70364Y-46627D01*
X70462Y-46562D01*
X70612Y-46412D01*
X70677Y-46314D01*
X70700Y-46200D01*
X70700Y-45874D01*
X71363Y-46537D01*
X71357Y-46539D01*
X71278Y-46599D01*
X71228Y-46686D01*
X70874Y-47299D01*
X70861Y-47398D01*
X70887Y-47494D01*
X70947Y-47573D01*
X71034Y-47623D01*
X71647Y-47977D01*
X71727Y-47987D01*
X68000Y-54449D01*
X64456Y-48308D01*
X64456Y-48308D01*
G37*
G54D48*
X64456Y-48308D02*
X64485Y-48327D01*
X64523Y-48334D01*
X64545Y-48388D01*
X64616Y-48458D01*
X64708Y-48496D01*
X64807Y-48496D01*
X65161Y-48496D01*
X65253Y-48458D01*
X65324Y-48388D01*
X65362Y-48296D01*
X65362Y-48197D01*
X65362Y-47803D01*
X65324Y-47711D01*
X65253Y-47641D01*
X65161Y-47603D01*
X65062Y-47603D01*
X64903Y-47603D01*
X64912Y-47594D01*
X64929Y-47552D01*
X66177Y-47552D01*
X66587Y-47962D01*
X66685Y-48027D01*
X66800Y-48050D01*
X67889Y-48050D01*
X67887Y-48053D01*
X67887Y-48152D01*
X67887Y-48546D01*
X67911Y-48603D01*
X67812Y-48603D01*
X67458Y-48603D01*
X67366Y-48641D01*
X67295Y-48711D01*
X67280Y-48750D01*
X67100Y-48750D01*
X66979Y-48700D01*
X66820Y-48699D01*
X66673Y-48760D01*
X66561Y-48873D01*
X66500Y-49020D01*
X66499Y-49179D01*
X66560Y-49326D01*
X66673Y-49438D01*
X66820Y-49499D01*
X66875Y-49499D01*
X67137Y-49762D01*
X67235Y-49827D01*
X67350Y-49850D01*
X68600Y-49850D01*
X68714Y-49827D01*
X68812Y-49762D01*
X69312Y-49262D01*
X69377Y-49164D01*
X69400Y-49050D01*
X69400Y-48174D01*
X69612Y-47962D01*
X69677Y-47864D01*
X69700Y-47750D01*
X69700Y-46674D01*
X69724Y-46650D01*
X70250Y-46650D01*
X70364Y-46627D01*
X70462Y-46562D01*
X70612Y-46412D01*
X70677Y-46314D01*
X70700Y-46200D01*
X70700Y-45874D01*
X71363Y-46537D01*
X71357Y-46539D01*
X71278Y-46599D01*
X71228Y-46686D01*
X70874Y-47299D01*
X70861Y-47398D01*
X70887Y-47494D01*
X70947Y-47573D01*
X71034Y-47623D01*
X71647Y-47977D01*
X71727Y-47987D01*
X68000Y-54449D01*
X64456Y-48308D01*
G54D10*
G36*
X62671Y-45213D02*
X62779Y-45258D01*
X63019Y-45258D01*
X63241Y-45166D01*
X63317Y-45091D01*
X63812Y-45587D01*
X63910Y-45652D01*
X64025Y-45675D01*
X64805Y-45675D01*
X64805Y-45676D01*
X64723Y-45710D01*
X64611Y-45823D01*
X64550Y-45970D01*
X64549Y-46129D01*
X64610Y-46276D01*
X64723Y-46388D01*
X64870Y-46449D01*
X65029Y-46450D01*
X65176Y-46389D01*
X65288Y-46276D01*
X65342Y-46148D01*
X65370Y-46148D01*
X65461Y-46110D01*
X65532Y-46040D01*
X65699Y-45873D01*
X66137Y-46312D01*
X66235Y-46377D01*
X66350Y-46400D01*
X66575Y-46400D01*
X66957Y-46781D01*
X66895Y-46929D01*
X66895Y-47169D01*
X66987Y-47391D01*
X67045Y-47450D01*
X66924Y-47450D01*
X66514Y-47039D01*
X66416Y-46974D01*
X66416Y-46974D01*
X66302Y-46952D01*
X64929Y-46952D01*
X64912Y-46910D01*
X64742Y-46740D01*
X64520Y-46647D01*
X64445Y-46647D01*
X64504Y-46506D01*
X64504Y-46266D01*
X64412Y-46044D01*
X64242Y-45873D01*
X64020Y-45781D01*
X63780Y-45781D01*
X63558Y-45873D01*
X63387Y-46043D01*
X63295Y-46265D01*
X63295Y-46295D01*
X62671Y-45213D01*
X62671Y-45213D01*
G37*
G54D48*
X62671Y-45213D02*
X62779Y-45258D01*
X63019Y-45258D01*
X63241Y-45166D01*
X63317Y-45091D01*
X63812Y-45587D01*
X63910Y-45652D01*
X64025Y-45675D01*
X64805Y-45675D01*
X64805Y-45676D01*
X64723Y-45710D01*
X64611Y-45823D01*
X64550Y-45970D01*
X64549Y-46129D01*
X64610Y-46276D01*
X64723Y-46388D01*
X64870Y-46449D01*
X65029Y-46450D01*
X65176Y-46389D01*
X65288Y-46276D01*
X65342Y-46148D01*
X65370Y-46148D01*
X65461Y-46110D01*
X65532Y-46040D01*
X65699Y-45873D01*
X66137Y-46312D01*
X66235Y-46377D01*
X66350Y-46400D01*
X66575Y-46400D01*
X66957Y-46781D01*
X66895Y-46929D01*
X66895Y-47169D01*
X66987Y-47391D01*
X67045Y-47450D01*
X66924Y-47450D01*
X66514Y-47039D01*
X66416Y-46974D01*
X66416Y-46974D01*
X66302Y-46952D01*
X64929Y-46952D01*
X64912Y-46910D01*
X64742Y-46740D01*
X64520Y-46647D01*
X64445Y-46647D01*
X64504Y-46506D01*
X64504Y-46266D01*
X64412Y-46044D01*
X64242Y-45873D01*
X64020Y-45781D01*
X63780Y-45781D01*
X63558Y-45873D01*
X63387Y-46043D01*
X63295Y-46265D01*
X63295Y-46295D01*
X62671Y-45213D01*
G54D10*
G36*
X62379Y-37075D02*
X65620Y-37075D01*
X65487Y-37207D01*
X65395Y-37429D01*
X65395Y-37669D01*
X65487Y-37891D01*
X65657Y-38062D01*
X65700Y-38079D01*
X65700Y-38103D01*
X65692Y-38103D01*
X65338Y-38103D01*
X65246Y-38141D01*
X65175Y-38211D01*
X65137Y-38303D01*
X65137Y-38402D01*
X65137Y-38737D01*
X65137Y-38737D01*
X65098Y-38796D01*
X65072Y-38835D01*
X65072Y-38835D01*
X65050Y-38950D01*
X65050Y-39450D01*
X64920Y-39449D01*
X64900Y-39458D01*
X64900Y-39050D01*
X64877Y-38935D01*
X64850Y-38894D01*
X64850Y-38550D01*
X64827Y-38435D01*
X64762Y-38337D01*
X64412Y-37987D01*
X64314Y-37922D01*
X64314Y-37922D01*
X64200Y-37900D01*
X63650Y-37900D01*
X63650Y-37900D01*
X63535Y-37922D01*
X63535Y-37922D01*
X63437Y-37987D01*
X63337Y-38087D01*
X63337Y-38087D01*
X63284Y-38168D01*
X63226Y-38111D01*
X63079Y-38050D01*
X63024Y-38050D01*
X62862Y-37887D01*
X62803Y-37848D01*
X62764Y-37822D01*
X62764Y-37822D01*
X62649Y-37799D01*
X62550Y-37799D01*
X62604Y-37670D01*
X62604Y-37430D01*
X62512Y-37208D01*
X62379Y-37075D01*
X62379Y-37075D01*
G37*
G54D48*
X62379Y-37075D02*
X65620Y-37075D01*
X65487Y-37207D01*
X65395Y-37429D01*
X65395Y-37669D01*
X65487Y-37891D01*
X65657Y-38062D01*
X65700Y-38079D01*
X65700Y-38103D01*
X65692Y-38103D01*
X65338Y-38103D01*
X65246Y-38141D01*
X65175Y-38211D01*
X65137Y-38303D01*
X65137Y-38402D01*
X65137Y-38737D01*
X65137Y-38737D01*
X65098Y-38796D01*
X65072Y-38835D01*
X65072Y-38835D01*
X65050Y-38950D01*
X65050Y-39450D01*
X64920Y-39449D01*
X64900Y-39458D01*
X64900Y-39050D01*
X64877Y-38935D01*
X64850Y-38894D01*
X64850Y-38550D01*
X64827Y-38435D01*
X64762Y-38337D01*
X64412Y-37987D01*
X64314Y-37922D01*
X64314Y-37922D01*
X64200Y-37900D01*
X63650Y-37900D01*
X63650Y-37900D01*
X63535Y-37922D01*
X63535Y-37922D01*
X63437Y-37987D01*
X63337Y-38087D01*
X63337Y-38087D01*
X63284Y-38168D01*
X63226Y-38111D01*
X63079Y-38050D01*
X63024Y-38050D01*
X62862Y-37887D01*
X62803Y-37848D01*
X62764Y-37822D01*
X62764Y-37822D01*
X62649Y-37799D01*
X62550Y-37799D01*
X62604Y-37670D01*
X62604Y-37430D01*
X62512Y-37208D01*
X62379Y-37075D01*
G54D10*
G36*
X62320Y-39300D02*
X62330Y-39295D01*
X62495Y-39131D01*
X62584Y-38916D01*
X62584Y-38908D01*
X62737Y-39062D01*
X62835Y-39127D01*
X62950Y-39150D01*
X63100Y-39150D01*
X63214Y-39127D01*
X63312Y-39062D01*
X63412Y-38961D01*
X63487Y-39141D01*
X63645Y-39300D01*
X63487Y-39457D01*
X63395Y-39679D01*
X63395Y-39919D01*
X63487Y-40141D01*
X63645Y-40300D01*
X63487Y-40457D01*
X63395Y-40679D01*
X63395Y-40919D01*
X63487Y-41141D01*
X63645Y-41300D01*
X63487Y-41457D01*
X63395Y-41679D01*
X63395Y-41771D01*
X63362Y-41737D01*
X63362Y-41737D01*
X62584Y-40960D01*
X62584Y-40415D01*
X62546Y-40323D01*
X62476Y-40253D01*
X62403Y-40223D01*
X62495Y-40131D01*
X62584Y-39916D01*
X62584Y-39684D01*
X62495Y-39469D01*
X62331Y-39304D01*
X62320Y-39300D01*
X62320Y-39300D01*
G37*
G54D48*
X62320Y-39300D02*
X62330Y-39295D01*
X62495Y-39131D01*
X62584Y-38916D01*
X62584Y-38908D01*
X62737Y-39062D01*
X62835Y-39127D01*
X62950Y-39150D01*
X63100Y-39150D01*
X63214Y-39127D01*
X63312Y-39062D01*
X63412Y-38961D01*
X63487Y-39141D01*
X63645Y-39300D01*
X63487Y-39457D01*
X63395Y-39679D01*
X63395Y-39919D01*
X63487Y-40141D01*
X63645Y-40300D01*
X63487Y-40457D01*
X63395Y-40679D01*
X63395Y-40919D01*
X63487Y-41141D01*
X63645Y-41300D01*
X63487Y-41457D01*
X63395Y-41679D01*
X63395Y-41771D01*
X63362Y-41737D01*
X63362Y-41737D01*
X62584Y-40960D01*
X62584Y-40415D01*
X62546Y-40323D01*
X62476Y-40253D01*
X62403Y-40223D01*
X62495Y-40131D01*
X62584Y-39916D01*
X62584Y-39684D01*
X62495Y-39469D01*
X62331Y-39304D01*
X62320Y-39300D01*
G54D10*
G36*
X59906Y-38154D02*
X59980Y-38154D01*
X60337Y-38512D01*
X60435Y-38577D01*
X60550Y-38600D01*
X61450Y-38600D01*
X61431Y-38644D01*
X61075Y-39000D01*
X59946Y-39000D01*
X59946Y-38878D01*
X59914Y-38800D01*
X59946Y-38721D01*
X59946Y-38622D01*
X59946Y-38248D01*
X59908Y-38156D01*
X59906Y-38154D01*
X59906Y-38154D01*
G37*
G54D48*
X59906Y-38154D02*
X59980Y-38154D01*
X60337Y-38512D01*
X60435Y-38577D01*
X60550Y-38600D01*
X61450Y-38600D01*
X61431Y-38644D01*
X61075Y-39000D01*
X59946Y-39000D01*
X59946Y-38878D01*
X59914Y-38800D01*
X59946Y-38721D01*
X59946Y-38622D01*
X59946Y-38248D01*
X59908Y-38156D01*
X59906Y-38154D01*
G54D10*
G36*
X59405Y-39551D02*
X59532Y-39551D01*
X59570Y-39577D01*
X59685Y-39600D01*
X60450Y-39600D01*
X60415Y-39683D01*
X60415Y-39915D01*
X60504Y-40130D01*
X60668Y-40295D01*
X60679Y-40299D01*
X60669Y-40304D01*
X60504Y-40468D01*
X60415Y-40683D01*
X60415Y-40915D01*
X60504Y-41130D01*
X60668Y-41295D01*
X60700Y-41308D01*
X60700Y-41400D01*
X60722Y-41514D01*
X60722Y-41514D01*
X60748Y-41553D01*
X60787Y-41612D01*
X61087Y-41912D01*
X61185Y-41977D01*
X61300Y-42000D01*
X61875Y-42000D01*
X62600Y-42724D01*
X62600Y-43063D01*
X62546Y-43049D01*
X62447Y-43062D01*
X62361Y-43112D01*
X61747Y-43466D01*
X61699Y-43529D01*
X59405Y-39551D01*
X59405Y-39551D01*
G37*
G54D48*
X59405Y-39551D02*
X59532Y-39551D01*
X59570Y-39577D01*
X59685Y-39600D01*
X60450Y-39600D01*
X60415Y-39683D01*
X60415Y-39915D01*
X60504Y-40130D01*
X60668Y-40295D01*
X60679Y-40299D01*
X60669Y-40304D01*
X60504Y-40468D01*
X60415Y-40683D01*
X60415Y-40915D01*
X60504Y-41130D01*
X60668Y-41295D01*
X60700Y-41308D01*
X60700Y-41400D01*
X60722Y-41514D01*
X60722Y-41514D01*
X60748Y-41553D01*
X60787Y-41612D01*
X61087Y-41912D01*
X61185Y-41977D01*
X61300Y-42000D01*
X61875Y-42000D01*
X62600Y-42724D01*
X62600Y-43063D01*
X62546Y-43049D01*
X62447Y-43062D01*
X62361Y-43112D01*
X61747Y-43466D01*
X61699Y-43529D01*
X59405Y-39551D01*
M02*
