%FSLAX34Y34*%
G04 Gerber Fmt 3.4, Leading zero omitted, Abs format*
G04 (created by PCBNEW (2014-02-03 BZR 4657)-product) date Wed 05 Mar 2014 09:35:53 PM CST*
%MOIN*%
G01*
G70*
G90*
G04 APERTURE LIST*
%ADD10C,0.006000*%
%ADD11C,0.098425*%
%ADD12R,0.029622X0.067024*%
%ADD13C,0.035433*%
%ADD14R,0.098425X0.047244*%
%ADD15R,0.027559X0.027559*%
%ADD16R,0.070866X0.070866*%
%ADD17C,0.070866*%
%ADD18R,0.106300X0.066900*%
%ADD19R,0.106300X0.051200*%
%ADD20R,0.062992X0.070866*%
%ADD21R,0.086614X0.047244*%
%ADD22R,0.086614X0.137795*%
%ADD23R,0.066929X0.066929*%
%ADD24C,0.066929*%
%ADD25R,0.220472X0.082677*%
G04 APERTURE END LIST*
G54D10*
G54D11*
X30000Y-50000D03*
X38500Y-57000D03*
G54D12*
X38750Y-52437D03*
X38250Y-52437D03*
X37750Y-52437D03*
X37250Y-52437D03*
X37250Y-54562D03*
X37750Y-54562D03*
X38250Y-54562D03*
X38750Y-54562D03*
G54D13*
X30000Y-54838D03*
X30000Y-52161D03*
G54D14*
X31082Y-52515D03*
X31082Y-53500D03*
X31082Y-54484D03*
G54D15*
X38275Y-49750D03*
X37724Y-49750D03*
X38100Y-55324D03*
X38100Y-55875D03*
G54D16*
X32250Y-49750D03*
G54D17*
X33250Y-49750D03*
X34250Y-49750D03*
X36250Y-49750D03*
X35250Y-49750D03*
G54D18*
X35333Y-55778D03*
G54D19*
X35333Y-55000D03*
G54D18*
X35333Y-54222D03*
X33167Y-54222D03*
G54D19*
X33167Y-55000D03*
G54D18*
X33167Y-55778D03*
X35333Y-52778D03*
G54D19*
X35333Y-52000D03*
G54D18*
X35333Y-51222D03*
X33167Y-51222D03*
G54D19*
X33167Y-52000D03*
G54D18*
X33167Y-52778D03*
G54D16*
X32250Y-57250D03*
G54D17*
X33250Y-57250D03*
X34250Y-57250D03*
X36250Y-57250D03*
X35250Y-57250D03*
G54D15*
X30775Y-57250D03*
X30224Y-57250D03*
X38750Y-55875D03*
X38750Y-55324D03*
X49250Y-55875D03*
X49250Y-55324D03*
X41275Y-57250D03*
X40724Y-57250D03*
G54D16*
X42750Y-57250D03*
G54D17*
X43750Y-57250D03*
X44750Y-57250D03*
X46750Y-57250D03*
X45750Y-57250D03*
G54D18*
X45833Y-52778D03*
G54D19*
X45833Y-52000D03*
G54D18*
X45833Y-51222D03*
X43667Y-51222D03*
G54D19*
X43667Y-52000D03*
G54D18*
X43667Y-52778D03*
X45833Y-55778D03*
G54D19*
X45833Y-55000D03*
G54D18*
X45833Y-54222D03*
X43667Y-54222D03*
G54D19*
X43667Y-55000D03*
G54D18*
X43667Y-55778D03*
G54D16*
X42750Y-49750D03*
G54D17*
X43750Y-49750D03*
X44750Y-49750D03*
X46750Y-49750D03*
X45750Y-49750D03*
G54D15*
X48600Y-55324D03*
X48600Y-55875D03*
X48775Y-49750D03*
X48224Y-49750D03*
G54D13*
X40500Y-54838D03*
X40500Y-52161D03*
G54D14*
X41582Y-52515D03*
X41582Y-53500D03*
X41582Y-54484D03*
G54D12*
X49250Y-52437D03*
X48750Y-52437D03*
X48250Y-52437D03*
X47750Y-52437D03*
X47750Y-54562D03*
X48250Y-54562D03*
X48750Y-54562D03*
X49250Y-54562D03*
G54D11*
X49000Y-57000D03*
X40500Y-50000D03*
X30000Y-59000D03*
X38500Y-66000D03*
G54D12*
X38750Y-61437D03*
X38250Y-61437D03*
X37750Y-61437D03*
X37250Y-61437D03*
X37250Y-63562D03*
X37750Y-63562D03*
X38250Y-63562D03*
X38750Y-63562D03*
G54D13*
X30000Y-63838D03*
X30000Y-61161D03*
G54D14*
X31082Y-61515D03*
X31082Y-62500D03*
X31082Y-63484D03*
G54D15*
X38275Y-58750D03*
X37724Y-58750D03*
X38100Y-64324D03*
X38100Y-64875D03*
G54D16*
X32250Y-58750D03*
G54D17*
X33250Y-58750D03*
X34250Y-58750D03*
X36250Y-58750D03*
X35250Y-58750D03*
G54D18*
X35333Y-64778D03*
G54D19*
X35333Y-64000D03*
G54D18*
X35333Y-63222D03*
X33167Y-63222D03*
G54D19*
X33167Y-64000D03*
G54D18*
X33167Y-64778D03*
X35333Y-61778D03*
G54D19*
X35333Y-61000D03*
G54D18*
X35333Y-60222D03*
X33167Y-60222D03*
G54D19*
X33167Y-61000D03*
G54D18*
X33167Y-61778D03*
G54D16*
X32250Y-66250D03*
G54D17*
X33250Y-66250D03*
X34250Y-66250D03*
X36250Y-66250D03*
X35250Y-66250D03*
G54D15*
X30775Y-66250D03*
X30224Y-66250D03*
X38750Y-64875D03*
X38750Y-64324D03*
X49250Y-64875D03*
X49250Y-64324D03*
X41275Y-66250D03*
X40724Y-66250D03*
G54D16*
X42750Y-66250D03*
G54D17*
X43750Y-66250D03*
X44750Y-66250D03*
X46750Y-66250D03*
X45750Y-66250D03*
G54D18*
X45833Y-61778D03*
G54D19*
X45833Y-61000D03*
G54D18*
X45833Y-60222D03*
X43667Y-60222D03*
G54D19*
X43667Y-61000D03*
G54D18*
X43667Y-61778D03*
X45833Y-64778D03*
G54D19*
X45833Y-64000D03*
G54D18*
X45833Y-63222D03*
X43667Y-63222D03*
G54D19*
X43667Y-64000D03*
G54D18*
X43667Y-64778D03*
G54D16*
X42750Y-58750D03*
G54D17*
X43750Y-58750D03*
X44750Y-58750D03*
X46750Y-58750D03*
X45750Y-58750D03*
G54D15*
X48600Y-64324D03*
X48600Y-64875D03*
X48775Y-58750D03*
X48224Y-58750D03*
G54D13*
X40500Y-63838D03*
X40500Y-61161D03*
G54D14*
X41582Y-61515D03*
X41582Y-62500D03*
X41582Y-63484D03*
G54D12*
X49250Y-61437D03*
X48750Y-61437D03*
X48250Y-61437D03*
X47750Y-61437D03*
X47750Y-63562D03*
X48250Y-63562D03*
X48750Y-63562D03*
X49250Y-63562D03*
G54D11*
X49000Y-66000D03*
X40500Y-59000D03*
X40500Y-41000D03*
X49000Y-48000D03*
G54D12*
X49250Y-43437D03*
X48750Y-43437D03*
X48250Y-43437D03*
X47750Y-43437D03*
X47750Y-45562D03*
X48250Y-45562D03*
X48750Y-45562D03*
X49250Y-45562D03*
G54D13*
X40500Y-45838D03*
X40500Y-43161D03*
G54D14*
X41582Y-43515D03*
X41582Y-44500D03*
X41582Y-45484D03*
G54D15*
X48775Y-40750D03*
X48224Y-40750D03*
X48600Y-46324D03*
X48600Y-46875D03*
G54D16*
X42750Y-40750D03*
G54D17*
X43750Y-40750D03*
X44750Y-40750D03*
X46750Y-40750D03*
X45750Y-40750D03*
G54D18*
X45833Y-46778D03*
G54D19*
X45833Y-46000D03*
G54D18*
X45833Y-45222D03*
X43667Y-45222D03*
G54D19*
X43667Y-46000D03*
G54D18*
X43667Y-46778D03*
X45833Y-43778D03*
G54D19*
X45833Y-43000D03*
G54D18*
X45833Y-42222D03*
X43667Y-42222D03*
G54D19*
X43667Y-43000D03*
G54D18*
X43667Y-43778D03*
G54D16*
X42750Y-48250D03*
G54D17*
X43750Y-48250D03*
X44750Y-48250D03*
X46750Y-48250D03*
X45750Y-48250D03*
G54D15*
X41275Y-48250D03*
X40724Y-48250D03*
X49250Y-46875D03*
X49250Y-46324D03*
X36775Y-35500D03*
X36224Y-35500D03*
X41275Y-35500D03*
X40724Y-35500D03*
X37724Y-35500D03*
X38275Y-35500D03*
X36775Y-34500D03*
X36224Y-34500D03*
G54D10*
G36*
X42055Y-31889D02*
X41860Y-31694D01*
X42055Y-31500D01*
X42250Y-31694D01*
X42055Y-31889D01*
X42055Y-31889D01*
G37*
G36*
X42444Y-31500D02*
X42250Y-31305D01*
X42444Y-31110D01*
X42639Y-31305D01*
X42444Y-31500D01*
X42444Y-31500D01*
G37*
G36*
X41944Y-30610D02*
X42139Y-30805D01*
X41944Y-31000D01*
X41750Y-30805D01*
X41944Y-30610D01*
X41944Y-30610D01*
G37*
G36*
X41555Y-31000D02*
X41750Y-31194D01*
X41555Y-31389D01*
X41360Y-31194D01*
X41555Y-31000D01*
X41555Y-31000D01*
G37*
G54D20*
X34051Y-39250D03*
X32948Y-39250D03*
X34051Y-35250D03*
X32948Y-35250D03*
G54D15*
X38250Y-25775D03*
X38250Y-25224D03*
X38750Y-46875D03*
X38750Y-46324D03*
X30775Y-48250D03*
X30224Y-48250D03*
G54D10*
G36*
X37411Y-33668D02*
X37272Y-33529D01*
X37690Y-33111D01*
X37829Y-33251D01*
X37411Y-33668D01*
X37411Y-33668D01*
G37*
G36*
X37634Y-33891D02*
X37495Y-33752D01*
X37913Y-33334D01*
X38052Y-33473D01*
X37634Y-33891D01*
X37634Y-33891D01*
G37*
G36*
X37857Y-34114D02*
X37718Y-33975D01*
X38135Y-33557D01*
X38275Y-33696D01*
X37857Y-34114D01*
X37857Y-34114D01*
G37*
G36*
X38080Y-34337D02*
X37940Y-34197D01*
X38358Y-33779D01*
X38498Y-33919D01*
X38080Y-34337D01*
X38080Y-34337D01*
G37*
G36*
X38302Y-34559D02*
X38162Y-34419D01*
X38580Y-34001D01*
X38720Y-34141D01*
X38302Y-34559D01*
X38302Y-34559D01*
G37*
G36*
X38524Y-34781D02*
X38385Y-34642D01*
X38803Y-34224D01*
X38942Y-34364D01*
X38524Y-34781D01*
X38524Y-34781D01*
G37*
G36*
X38747Y-35004D02*
X38608Y-34865D01*
X39026Y-34447D01*
X39165Y-34586D01*
X38747Y-35004D01*
X38747Y-35004D01*
G37*
G36*
X38970Y-35227D02*
X38831Y-35088D01*
X39248Y-34670D01*
X39388Y-34809D01*
X38970Y-35227D01*
X38970Y-35227D01*
G37*
G36*
X40168Y-35088D02*
X40029Y-35227D01*
X39611Y-34809D01*
X39751Y-34670D01*
X40168Y-35088D01*
X40168Y-35088D01*
G37*
G36*
X40391Y-34865D02*
X40252Y-35004D01*
X39834Y-34586D01*
X39973Y-34447D01*
X40391Y-34865D01*
X40391Y-34865D01*
G37*
G36*
X40614Y-34642D02*
X40475Y-34781D01*
X40057Y-34364D01*
X40196Y-34224D01*
X40614Y-34642D01*
X40614Y-34642D01*
G37*
G36*
X40837Y-34419D02*
X40697Y-34559D01*
X40279Y-34141D01*
X40419Y-34001D01*
X40837Y-34419D01*
X40837Y-34419D01*
G37*
G36*
X41059Y-34197D02*
X40919Y-34337D01*
X40501Y-33919D01*
X40641Y-33779D01*
X41059Y-34197D01*
X41059Y-34197D01*
G37*
G36*
X41281Y-33975D02*
X41142Y-34114D01*
X40724Y-33696D01*
X40864Y-33557D01*
X41281Y-33975D01*
X41281Y-33975D01*
G37*
G36*
X41504Y-33752D02*
X41365Y-33891D01*
X40947Y-33473D01*
X41086Y-33334D01*
X41504Y-33752D01*
X41504Y-33752D01*
G37*
G36*
X41727Y-33529D02*
X41588Y-33668D01*
X41170Y-33251D01*
X41309Y-33111D01*
X41727Y-33529D01*
X41727Y-33529D01*
G37*
G36*
X41588Y-32331D02*
X41727Y-32470D01*
X41309Y-32888D01*
X41170Y-32748D01*
X41588Y-32331D01*
X41588Y-32331D01*
G37*
G36*
X41365Y-32108D02*
X41504Y-32247D01*
X41086Y-32665D01*
X40947Y-32526D01*
X41365Y-32108D01*
X41365Y-32108D01*
G37*
G36*
X41142Y-31885D02*
X41281Y-32024D01*
X40864Y-32442D01*
X40724Y-32303D01*
X41142Y-31885D01*
X41142Y-31885D01*
G37*
G36*
X40919Y-31662D02*
X41059Y-31802D01*
X40641Y-32220D01*
X40501Y-32080D01*
X40919Y-31662D01*
X40919Y-31662D01*
G37*
G36*
X40697Y-31440D02*
X40837Y-31580D01*
X40419Y-31998D01*
X40279Y-31858D01*
X40697Y-31440D01*
X40697Y-31440D01*
G37*
G36*
X40475Y-31218D02*
X40614Y-31357D01*
X40196Y-31775D01*
X40057Y-31635D01*
X40475Y-31218D01*
X40475Y-31218D01*
G37*
G36*
X40252Y-30995D02*
X40391Y-31134D01*
X39973Y-31552D01*
X39834Y-31413D01*
X40252Y-30995D01*
X40252Y-30995D01*
G37*
G36*
X40029Y-30772D02*
X40168Y-30911D01*
X39751Y-31329D01*
X39611Y-31190D01*
X40029Y-30772D01*
X40029Y-30772D01*
G37*
G36*
X38831Y-30911D02*
X38970Y-30772D01*
X39388Y-31190D01*
X39248Y-31329D01*
X38831Y-30911D01*
X38831Y-30911D01*
G37*
G36*
X38608Y-31134D02*
X38747Y-30995D01*
X39165Y-31413D01*
X39026Y-31552D01*
X38608Y-31134D01*
X38608Y-31134D01*
G37*
G36*
X38385Y-31357D02*
X38524Y-31218D01*
X38942Y-31635D01*
X38803Y-31775D01*
X38385Y-31357D01*
X38385Y-31357D01*
G37*
G36*
X38162Y-31580D02*
X38302Y-31440D01*
X38720Y-31858D01*
X38580Y-31998D01*
X38162Y-31580D01*
X38162Y-31580D01*
G37*
G36*
X37940Y-31802D02*
X38080Y-31662D01*
X38498Y-32080D01*
X38358Y-32220D01*
X37940Y-31802D01*
X37940Y-31802D01*
G37*
G36*
X37718Y-32024D02*
X37857Y-31885D01*
X38275Y-32303D01*
X38135Y-32442D01*
X37718Y-32024D01*
X37718Y-32024D01*
G37*
G36*
X37495Y-32247D02*
X37634Y-32108D01*
X38052Y-32526D01*
X37913Y-32665D01*
X37495Y-32247D01*
X37495Y-32247D01*
G37*
G36*
X37272Y-32470D02*
X37411Y-32331D01*
X37829Y-32748D01*
X37690Y-32888D01*
X37272Y-32470D01*
X37272Y-32470D01*
G37*
G54D21*
X32279Y-36344D03*
X32279Y-37250D03*
X32279Y-38155D03*
G54D22*
X34720Y-37250D03*
G54D16*
X48000Y-39500D03*
G54D17*
X49000Y-39500D03*
G54D16*
X32250Y-48250D03*
G54D17*
X33250Y-48250D03*
X34250Y-48250D03*
X36250Y-48250D03*
X35250Y-48250D03*
G54D18*
X35333Y-43778D03*
G54D19*
X35333Y-43000D03*
G54D18*
X35333Y-42222D03*
X33167Y-42222D03*
G54D19*
X33167Y-43000D03*
G54D18*
X33167Y-43778D03*
X35333Y-46778D03*
G54D19*
X35333Y-46000D03*
G54D18*
X35333Y-45222D03*
X33167Y-45222D03*
G54D19*
X33167Y-46000D03*
G54D18*
X33167Y-46778D03*
G54D15*
X43025Y-35500D03*
X42474Y-35500D03*
X47224Y-37500D03*
X47775Y-37500D03*
G54D16*
X30000Y-39500D03*
G54D17*
X31000Y-39500D03*
G54D23*
X44500Y-36000D03*
G54D24*
X45500Y-36000D03*
X44500Y-37000D03*
X45500Y-37000D03*
X44500Y-38000D03*
X45500Y-38000D03*
G54D16*
X39500Y-28750D03*
G54D17*
X39500Y-27750D03*
X39500Y-26750D03*
X39500Y-24750D03*
X39500Y-23750D03*
X39500Y-25750D03*
G54D16*
X37500Y-39250D03*
G54D17*
X38500Y-39250D03*
X39500Y-39250D03*
X41500Y-39250D03*
X40500Y-39250D03*
G54D10*
G36*
X35770Y-29063D02*
X36384Y-29418D01*
X36029Y-30031D01*
X35415Y-29677D01*
X35770Y-29063D01*
X35770Y-29063D01*
G37*
G54D17*
X35400Y-30413D03*
X34900Y-31280D03*
X33900Y-33012D03*
X34400Y-32146D03*
G54D10*
G36*
X45584Y-33141D02*
X44970Y-33496D01*
X44615Y-32882D01*
X45229Y-32528D01*
X45584Y-33141D01*
X45584Y-33141D01*
G37*
G54D17*
X44600Y-32146D03*
X44100Y-31280D03*
X43100Y-29547D03*
X43600Y-30413D03*
G54D16*
X32250Y-40750D03*
G54D17*
X33250Y-40750D03*
X34250Y-40750D03*
X36250Y-40750D03*
X35250Y-40750D03*
G54D15*
X37025Y-31750D03*
X36474Y-31750D03*
X37775Y-31000D03*
X37224Y-31000D03*
X38525Y-30250D03*
X37974Y-30250D03*
X38100Y-46324D03*
X38100Y-46875D03*
X38275Y-40750D03*
X37724Y-40750D03*
X43025Y-34750D03*
X42474Y-34750D03*
X47224Y-38250D03*
X47775Y-38250D03*
G54D13*
X30000Y-45838D03*
X30000Y-43161D03*
G54D14*
X31082Y-43515D03*
X31082Y-44500D03*
X31082Y-45484D03*
G54D25*
X37629Y-37000D03*
X41370Y-37000D03*
G54D12*
X38750Y-43437D03*
X38250Y-43437D03*
X37750Y-43437D03*
X37250Y-43437D03*
X37250Y-45562D03*
X37750Y-45562D03*
X38250Y-45562D03*
X38750Y-45562D03*
G54D16*
X41000Y-29500D03*
G54D17*
X41000Y-28500D03*
X41000Y-27500D03*
X41000Y-25500D03*
X41000Y-26500D03*
G54D11*
X35750Y-33250D03*
X43250Y-33250D03*
X38500Y-48000D03*
X30000Y-41000D03*
M02*
