%FSLAX34Y34*%
G04 Gerber Fmt 3.4, Leading zero omitted, Abs format*
G04 (created by PCBNEW (2014-02-03 BZR 4657)-product) date Thu 13 Mar 2014 03:57:06 PM CDT*
%MOIN*%
G01*
G70*
G90*
G04 APERTURE LIST*
%ADD10C,0.006000*%
%ADD11C,0.098425*%
%ADD12R,0.029622X0.067024*%
%ADD13R,0.027559X0.027559*%
%ADD14R,0.070866X0.070866*%
%ADD15C,0.070866*%
%ADD16R,0.106300X0.066900*%
%ADD17R,0.106300X0.051200*%
%ADD18C,0.015000*%
%ADD19C,0.035433*%
%ADD20R,0.098425X0.047244*%
%ADD21R,0.062992X0.070866*%
%ADD22R,0.086614X0.047244*%
%ADD23R,0.086614X0.137795*%
%ADD24R,0.066929X0.066929*%
%ADD25C,0.066929*%
%ADD26R,0.220472X0.082677*%
G04 APERTURE END LIST*
G54D10*
G54D11*
X41000Y-42000D03*
X49000Y-49000D03*
G54D12*
X49500Y-44437D03*
X49000Y-44437D03*
X48500Y-44437D03*
X48000Y-44437D03*
X48000Y-46562D03*
X48500Y-46562D03*
X49000Y-46562D03*
X49500Y-46562D03*
G54D13*
X49025Y-41750D03*
X48474Y-41750D03*
X48850Y-47324D03*
X48850Y-47875D03*
G54D14*
X43000Y-41750D03*
G54D15*
X44000Y-41750D03*
X45000Y-41750D03*
X47000Y-41750D03*
X46000Y-41750D03*
G54D16*
X46083Y-47778D03*
G54D17*
X46083Y-47000D03*
G54D16*
X46083Y-46222D03*
X43917Y-46222D03*
G54D17*
X43917Y-47000D03*
G54D16*
X43917Y-47778D03*
X46083Y-44778D03*
G54D17*
X46083Y-44000D03*
G54D16*
X46083Y-43222D03*
X43917Y-43222D03*
G54D17*
X43917Y-44000D03*
G54D16*
X43917Y-44778D03*
G54D14*
X43000Y-49250D03*
G54D15*
X44000Y-49250D03*
X45000Y-49250D03*
X47000Y-49250D03*
X46000Y-49250D03*
G54D13*
X41525Y-49250D03*
X40974Y-49250D03*
X49500Y-47875D03*
X49500Y-47324D03*
X49500Y-57875D03*
X49500Y-57324D03*
X41525Y-59250D03*
X40974Y-59250D03*
G54D14*
X43000Y-59250D03*
G54D15*
X44000Y-59250D03*
X45000Y-59250D03*
X47000Y-59250D03*
X46000Y-59250D03*
G54D16*
X46083Y-54778D03*
G54D17*
X46083Y-54000D03*
G54D16*
X46083Y-53222D03*
X43917Y-53222D03*
G54D17*
X43917Y-54000D03*
G54D16*
X43917Y-54778D03*
X46083Y-57778D03*
G54D17*
X46083Y-57000D03*
G54D16*
X46083Y-56222D03*
X43917Y-56222D03*
G54D17*
X43917Y-57000D03*
G54D16*
X43917Y-57778D03*
G54D14*
X43000Y-51750D03*
G54D15*
X44000Y-51750D03*
X45000Y-51750D03*
X47000Y-51750D03*
X46000Y-51750D03*
G54D13*
X48850Y-57324D03*
X48850Y-57875D03*
X49025Y-51750D03*
X48474Y-51750D03*
G54D12*
X49500Y-54437D03*
X49000Y-54437D03*
X48500Y-54437D03*
X48000Y-54437D03*
X48000Y-56562D03*
X48500Y-56562D03*
X49000Y-56562D03*
X49500Y-56562D03*
G54D11*
X49000Y-59000D03*
X41000Y-52000D03*
X41000Y-62000D03*
X49000Y-69000D03*
G54D12*
X49500Y-64437D03*
X49000Y-64437D03*
X48500Y-64437D03*
X48000Y-64437D03*
X48000Y-66562D03*
X48500Y-66562D03*
X49000Y-66562D03*
X49500Y-66562D03*
G54D13*
X49025Y-61750D03*
X48474Y-61750D03*
X48850Y-67324D03*
X48850Y-67875D03*
G54D14*
X43000Y-61750D03*
G54D15*
X44000Y-61750D03*
X45000Y-61750D03*
X47000Y-61750D03*
X46000Y-61750D03*
G54D16*
X46083Y-67778D03*
G54D17*
X46083Y-67000D03*
G54D16*
X46083Y-66222D03*
X43917Y-66222D03*
G54D17*
X43917Y-67000D03*
G54D16*
X43917Y-67778D03*
X46083Y-64778D03*
G54D17*
X46083Y-64000D03*
G54D16*
X46083Y-63222D03*
X43917Y-63222D03*
G54D17*
X43917Y-64000D03*
G54D16*
X43917Y-64778D03*
G54D14*
X43000Y-69250D03*
G54D15*
X44000Y-69250D03*
X45000Y-69250D03*
X47000Y-69250D03*
X46000Y-69250D03*
G54D13*
X41525Y-69250D03*
X40974Y-69250D03*
X49500Y-67875D03*
X49500Y-67324D03*
G54D18*
X45000Y-60500D03*
X45300Y-60500D03*
X44700Y-60500D03*
X44700Y-50500D03*
X45300Y-50500D03*
X45000Y-50500D03*
G54D19*
X40750Y-56838D03*
X40750Y-54161D03*
G54D20*
X41832Y-54515D03*
X41832Y-55500D03*
X41832Y-56484D03*
G54D19*
X40750Y-66838D03*
X40750Y-64161D03*
G54D20*
X41832Y-64515D03*
X41832Y-65500D03*
X41832Y-66484D03*
G54D18*
X33700Y-60500D03*
X34300Y-60500D03*
X34000Y-60500D03*
G54D13*
X38500Y-67875D03*
X38500Y-67324D03*
X30525Y-69250D03*
X29974Y-69250D03*
G54D14*
X32000Y-69250D03*
G54D15*
X33000Y-69250D03*
X34000Y-69250D03*
X36000Y-69250D03*
X35000Y-69250D03*
G54D16*
X35083Y-64778D03*
G54D17*
X35083Y-64000D03*
G54D16*
X35083Y-63222D03*
X32917Y-63222D03*
G54D17*
X32917Y-64000D03*
G54D16*
X32917Y-64778D03*
X35083Y-67778D03*
G54D17*
X35083Y-67000D03*
G54D16*
X35083Y-66222D03*
X32917Y-66222D03*
G54D17*
X32917Y-67000D03*
G54D16*
X32917Y-67778D03*
G54D14*
X32000Y-61750D03*
G54D15*
X33000Y-61750D03*
X34000Y-61750D03*
X36000Y-61750D03*
X35000Y-61750D03*
G54D13*
X37850Y-67324D03*
X37850Y-67875D03*
X38025Y-61750D03*
X37474Y-61750D03*
G54D19*
X29750Y-66838D03*
X29750Y-64161D03*
G54D20*
X30832Y-64515D03*
X30832Y-65500D03*
X30832Y-66484D03*
G54D12*
X38500Y-64437D03*
X38000Y-64437D03*
X37500Y-64437D03*
X37000Y-64437D03*
X37000Y-66562D03*
X37500Y-66562D03*
X38000Y-66562D03*
X38500Y-66562D03*
G54D11*
X38000Y-69000D03*
X30000Y-62000D03*
X30000Y-52000D03*
X38000Y-59000D03*
G54D12*
X38500Y-54437D03*
X38000Y-54437D03*
X37500Y-54437D03*
X37000Y-54437D03*
X37000Y-56562D03*
X37500Y-56562D03*
X38000Y-56562D03*
X38500Y-56562D03*
G54D19*
X29750Y-56838D03*
X29750Y-54161D03*
G54D20*
X30832Y-54515D03*
X30832Y-55500D03*
X30832Y-56484D03*
G54D13*
X38025Y-51750D03*
X37474Y-51750D03*
X37850Y-57324D03*
X37850Y-57875D03*
G54D14*
X32000Y-51750D03*
G54D15*
X33000Y-51750D03*
X34000Y-51750D03*
X36000Y-51750D03*
X35000Y-51750D03*
G54D16*
X35083Y-57778D03*
G54D17*
X35083Y-57000D03*
G54D16*
X35083Y-56222D03*
X32917Y-56222D03*
G54D17*
X32917Y-57000D03*
G54D16*
X32917Y-57778D03*
X35083Y-54778D03*
G54D17*
X35083Y-54000D03*
G54D16*
X35083Y-53222D03*
X32917Y-53222D03*
G54D17*
X32917Y-54000D03*
G54D16*
X32917Y-54778D03*
G54D14*
X32000Y-59250D03*
G54D15*
X33000Y-59250D03*
X34000Y-59250D03*
X36000Y-59250D03*
X35000Y-59250D03*
G54D13*
X30525Y-59250D03*
X29974Y-59250D03*
X38500Y-57875D03*
X38500Y-57324D03*
G54D18*
X39500Y-55200D03*
X39500Y-55500D03*
X39500Y-55800D03*
X39500Y-65200D03*
X39500Y-65500D03*
X39500Y-65800D03*
G54D19*
X40750Y-46838D03*
X40750Y-44161D03*
G54D20*
X41832Y-44515D03*
X41832Y-45500D03*
X41832Y-46484D03*
G54D18*
X34000Y-50500D03*
X34300Y-50500D03*
X33700Y-50500D03*
G54D13*
X36775Y-35500D03*
X36224Y-35500D03*
X41275Y-35500D03*
X40724Y-35500D03*
X37724Y-35500D03*
X38275Y-35500D03*
X36775Y-34500D03*
X36224Y-34500D03*
G54D10*
G36*
X42055Y-31889D02*
X41860Y-31694D01*
X42055Y-31500D01*
X42250Y-31694D01*
X42055Y-31889D01*
X42055Y-31889D01*
G37*
G36*
X42444Y-31500D02*
X42250Y-31305D01*
X42444Y-31110D01*
X42639Y-31305D01*
X42444Y-31500D01*
X42444Y-31500D01*
G37*
G36*
X41944Y-30610D02*
X42139Y-30805D01*
X41944Y-31000D01*
X41750Y-30805D01*
X41944Y-30610D01*
X41944Y-30610D01*
G37*
G36*
X41555Y-31000D02*
X41750Y-31194D01*
X41555Y-31389D01*
X41360Y-31194D01*
X41555Y-31000D01*
X41555Y-31000D01*
G37*
G54D21*
X34051Y-39250D03*
X32948Y-39250D03*
X34051Y-35250D03*
X32948Y-35250D03*
G54D13*
X38250Y-25775D03*
X38250Y-25224D03*
X38500Y-47875D03*
X38500Y-47324D03*
X30525Y-49250D03*
X29974Y-49250D03*
G54D10*
G36*
X37411Y-33668D02*
X37272Y-33529D01*
X37690Y-33111D01*
X37829Y-33251D01*
X37411Y-33668D01*
X37411Y-33668D01*
G37*
G36*
X37634Y-33891D02*
X37495Y-33752D01*
X37913Y-33334D01*
X38052Y-33473D01*
X37634Y-33891D01*
X37634Y-33891D01*
G37*
G36*
X37857Y-34114D02*
X37718Y-33975D01*
X38135Y-33557D01*
X38275Y-33696D01*
X37857Y-34114D01*
X37857Y-34114D01*
G37*
G36*
X38080Y-34337D02*
X37940Y-34197D01*
X38358Y-33779D01*
X38498Y-33919D01*
X38080Y-34337D01*
X38080Y-34337D01*
G37*
G36*
X38302Y-34559D02*
X38162Y-34419D01*
X38580Y-34001D01*
X38720Y-34141D01*
X38302Y-34559D01*
X38302Y-34559D01*
G37*
G36*
X38524Y-34781D02*
X38385Y-34642D01*
X38803Y-34224D01*
X38942Y-34364D01*
X38524Y-34781D01*
X38524Y-34781D01*
G37*
G36*
X38747Y-35004D02*
X38608Y-34865D01*
X39026Y-34447D01*
X39165Y-34586D01*
X38747Y-35004D01*
X38747Y-35004D01*
G37*
G36*
X38970Y-35227D02*
X38831Y-35088D01*
X39248Y-34670D01*
X39388Y-34809D01*
X38970Y-35227D01*
X38970Y-35227D01*
G37*
G36*
X40168Y-35088D02*
X40029Y-35227D01*
X39611Y-34809D01*
X39751Y-34670D01*
X40168Y-35088D01*
X40168Y-35088D01*
G37*
G36*
X40391Y-34865D02*
X40252Y-35004D01*
X39834Y-34586D01*
X39973Y-34447D01*
X40391Y-34865D01*
X40391Y-34865D01*
G37*
G36*
X40614Y-34642D02*
X40475Y-34781D01*
X40057Y-34364D01*
X40196Y-34224D01*
X40614Y-34642D01*
X40614Y-34642D01*
G37*
G36*
X40837Y-34419D02*
X40697Y-34559D01*
X40279Y-34141D01*
X40419Y-34001D01*
X40837Y-34419D01*
X40837Y-34419D01*
G37*
G36*
X41059Y-34197D02*
X40919Y-34337D01*
X40501Y-33919D01*
X40641Y-33779D01*
X41059Y-34197D01*
X41059Y-34197D01*
G37*
G36*
X41281Y-33975D02*
X41142Y-34114D01*
X40724Y-33696D01*
X40864Y-33557D01*
X41281Y-33975D01*
X41281Y-33975D01*
G37*
G36*
X41504Y-33752D02*
X41365Y-33891D01*
X40947Y-33473D01*
X41086Y-33334D01*
X41504Y-33752D01*
X41504Y-33752D01*
G37*
G36*
X41727Y-33529D02*
X41588Y-33668D01*
X41170Y-33251D01*
X41309Y-33111D01*
X41727Y-33529D01*
X41727Y-33529D01*
G37*
G36*
X41588Y-32331D02*
X41727Y-32470D01*
X41309Y-32888D01*
X41170Y-32748D01*
X41588Y-32331D01*
X41588Y-32331D01*
G37*
G36*
X41365Y-32108D02*
X41504Y-32247D01*
X41086Y-32665D01*
X40947Y-32526D01*
X41365Y-32108D01*
X41365Y-32108D01*
G37*
G36*
X41142Y-31885D02*
X41281Y-32024D01*
X40864Y-32442D01*
X40724Y-32303D01*
X41142Y-31885D01*
X41142Y-31885D01*
G37*
G36*
X40919Y-31662D02*
X41059Y-31802D01*
X40641Y-32220D01*
X40501Y-32080D01*
X40919Y-31662D01*
X40919Y-31662D01*
G37*
G36*
X40697Y-31440D02*
X40837Y-31580D01*
X40419Y-31998D01*
X40279Y-31858D01*
X40697Y-31440D01*
X40697Y-31440D01*
G37*
G36*
X40475Y-31218D02*
X40614Y-31357D01*
X40196Y-31775D01*
X40057Y-31635D01*
X40475Y-31218D01*
X40475Y-31218D01*
G37*
G36*
X40252Y-30995D02*
X40391Y-31134D01*
X39973Y-31552D01*
X39834Y-31413D01*
X40252Y-30995D01*
X40252Y-30995D01*
G37*
G36*
X40029Y-30772D02*
X40168Y-30911D01*
X39751Y-31329D01*
X39611Y-31190D01*
X40029Y-30772D01*
X40029Y-30772D01*
G37*
G36*
X38831Y-30911D02*
X38970Y-30772D01*
X39388Y-31190D01*
X39248Y-31329D01*
X38831Y-30911D01*
X38831Y-30911D01*
G37*
G36*
X38608Y-31134D02*
X38747Y-30995D01*
X39165Y-31413D01*
X39026Y-31552D01*
X38608Y-31134D01*
X38608Y-31134D01*
G37*
G36*
X38385Y-31357D02*
X38524Y-31218D01*
X38942Y-31635D01*
X38803Y-31775D01*
X38385Y-31357D01*
X38385Y-31357D01*
G37*
G36*
X38162Y-31580D02*
X38302Y-31440D01*
X38720Y-31858D01*
X38580Y-31998D01*
X38162Y-31580D01*
X38162Y-31580D01*
G37*
G36*
X37940Y-31802D02*
X38080Y-31662D01*
X38498Y-32080D01*
X38358Y-32220D01*
X37940Y-31802D01*
X37940Y-31802D01*
G37*
G36*
X37718Y-32024D02*
X37857Y-31885D01*
X38275Y-32303D01*
X38135Y-32442D01*
X37718Y-32024D01*
X37718Y-32024D01*
G37*
G36*
X37495Y-32247D02*
X37634Y-32108D01*
X38052Y-32526D01*
X37913Y-32665D01*
X37495Y-32247D01*
X37495Y-32247D01*
G37*
G36*
X37272Y-32470D02*
X37411Y-32331D01*
X37829Y-32748D01*
X37690Y-32888D01*
X37272Y-32470D01*
X37272Y-32470D01*
G37*
G54D22*
X32279Y-36344D03*
X32279Y-37250D03*
X32279Y-38155D03*
G54D23*
X34720Y-37250D03*
G54D14*
X48000Y-39500D03*
G54D15*
X49000Y-39500D03*
G54D14*
X32000Y-49250D03*
G54D15*
X33000Y-49250D03*
X34000Y-49250D03*
X36000Y-49250D03*
X35000Y-49250D03*
G54D16*
X35083Y-44778D03*
G54D17*
X35083Y-44000D03*
G54D16*
X35083Y-43222D03*
X32917Y-43222D03*
G54D17*
X32917Y-44000D03*
G54D16*
X32917Y-44778D03*
X35083Y-47778D03*
G54D17*
X35083Y-47000D03*
G54D16*
X35083Y-46222D03*
X32917Y-46222D03*
G54D17*
X32917Y-47000D03*
G54D16*
X32917Y-47778D03*
G54D13*
X43025Y-35500D03*
X42474Y-35500D03*
X47224Y-37500D03*
X47775Y-37500D03*
G54D14*
X30000Y-39500D03*
G54D15*
X31000Y-39500D03*
G54D24*
X44500Y-36000D03*
G54D25*
X45500Y-36000D03*
X44500Y-37000D03*
X45500Y-37000D03*
X44500Y-38000D03*
X45500Y-38000D03*
G54D14*
X39500Y-28750D03*
G54D15*
X39500Y-27750D03*
X39500Y-26750D03*
X39500Y-24750D03*
X39500Y-23750D03*
X39500Y-25750D03*
G54D14*
X37500Y-39250D03*
G54D15*
X38500Y-39250D03*
X39500Y-39250D03*
X41500Y-39250D03*
X40500Y-39250D03*
G54D10*
G36*
X35770Y-29063D02*
X36384Y-29418D01*
X36029Y-30031D01*
X35415Y-29677D01*
X35770Y-29063D01*
X35770Y-29063D01*
G37*
G54D15*
X35400Y-30413D03*
X34900Y-31280D03*
X33900Y-33012D03*
X34400Y-32146D03*
G54D10*
G36*
X45584Y-33141D02*
X44970Y-33496D01*
X44615Y-32882D01*
X45229Y-32528D01*
X45584Y-33141D01*
X45584Y-33141D01*
G37*
G54D15*
X44600Y-32146D03*
X44100Y-31280D03*
X43100Y-29547D03*
X43600Y-30413D03*
G54D14*
X32000Y-41750D03*
G54D15*
X33000Y-41750D03*
X34000Y-41750D03*
X36000Y-41750D03*
X35000Y-41750D03*
G54D13*
X37025Y-31750D03*
X36474Y-31750D03*
X37775Y-31000D03*
X37224Y-31000D03*
X38525Y-30250D03*
X37974Y-30250D03*
X37850Y-47324D03*
X37850Y-47875D03*
X38025Y-41750D03*
X37474Y-41750D03*
X43025Y-34750D03*
X42474Y-34750D03*
X47224Y-38250D03*
X47775Y-38250D03*
G54D19*
X29750Y-46838D03*
X29750Y-44161D03*
G54D20*
X30832Y-44515D03*
X30832Y-45500D03*
X30832Y-46484D03*
G54D26*
X37629Y-37000D03*
X41370Y-37000D03*
G54D12*
X38500Y-44437D03*
X38000Y-44437D03*
X37500Y-44437D03*
X37000Y-44437D03*
X37000Y-46562D03*
X37500Y-46562D03*
X38000Y-46562D03*
X38500Y-46562D03*
G54D14*
X41000Y-29500D03*
G54D15*
X41000Y-28500D03*
X41000Y-27500D03*
X41000Y-25500D03*
X41000Y-26500D03*
G54D11*
X35750Y-33250D03*
X43250Y-33250D03*
X38000Y-49000D03*
X30000Y-42000D03*
G54D18*
X33700Y-40500D03*
X34000Y-40500D03*
X34300Y-40500D03*
X45300Y-40500D03*
X45000Y-40500D03*
X44700Y-40500D03*
X39500Y-45500D03*
X39500Y-45200D03*
X39500Y-45800D03*
M02*
