%FSLAX34Y34*%
G04 Gerber Fmt 3.4, Leading zero omitted, Abs format*
G04 (created by PCBNEW (2014-02-03 BZR 4657)-product) date Wed 05 Mar 2014 09:35:53 PM CST*
%MOIN*%
G01*
G70*
G90*
G04 APERTURE LIST*
%ADD10C,0.006000*%
%ADD11C,0.008000*%
%ADD12C,0.005000*%
%ADD13C,0.007874*%
%ADD14C,0.015000*%
%ADD15C,0.098425*%
%ADD16R,0.029622X0.067024*%
%ADD17C,0.035433*%
%ADD18R,0.098425X0.047244*%
%ADD19R,0.027559X0.027559*%
%ADD20R,0.070866X0.070866*%
%ADD21C,0.070866*%
%ADD22R,0.106300X0.066900*%
%ADD23R,0.106300X0.051200*%
%ADD24R,0.062992X0.070866*%
%ADD25R,0.086614X0.047244*%
%ADD26R,0.086614X0.137795*%
%ADD27R,0.066929X0.066929*%
%ADD28C,0.066929*%
%ADD29R,0.220472X0.082677*%
G04 APERTURE END LIST*
G54D10*
G54D11*
X29507Y-50000D02*
G75*
G03X30000Y-50492I492J0D01*
G74*
G01*
X30492Y-50000D02*
G75*
G03X30000Y-49507I-492J0D01*
G74*
G01*
X29409Y-50000D02*
G75*
G03X30000Y-50590I590J0D01*
G74*
G01*
X29311Y-50000D02*
G75*
G03X30000Y-50688I688J0D01*
G74*
G01*
X30590Y-50000D02*
G75*
G03X30000Y-49409I-590J0D01*
G74*
G01*
X30688Y-50000D02*
G75*
G03X30000Y-49311I-688J0D01*
G74*
G01*
X30000Y-50000D02*
X30000Y-50787D01*
X30000Y-50000D02*
X29212Y-50000D01*
X30000Y-49212D02*
X30000Y-50000D01*
X30000Y-50000D02*
X30787Y-50000D01*
X30787Y-50000D02*
G75*
G03X30787Y-50000I-787J0D01*
G74*
G01*
X38007Y-57000D02*
G75*
G03X38500Y-57492I492J0D01*
G74*
G01*
X38992Y-57000D02*
G75*
G03X38500Y-56507I-492J0D01*
G74*
G01*
X37909Y-57000D02*
G75*
G03X38500Y-57590I590J0D01*
G74*
G01*
X37811Y-57000D02*
G75*
G03X38500Y-57688I688J0D01*
G74*
G01*
X39090Y-57000D02*
G75*
G03X38500Y-56409I-590J0D01*
G74*
G01*
X39188Y-57000D02*
G75*
G03X38500Y-56311I-688J0D01*
G74*
G01*
X38500Y-57000D02*
X38500Y-57787D01*
X38500Y-57000D02*
X37712Y-57000D01*
X38500Y-56212D02*
X38500Y-57000D01*
X38500Y-57000D02*
X39287Y-57000D01*
X39287Y-57000D02*
G75*
G03X39287Y-57000I-787J0D01*
G74*
G01*
X38984Y-53106D02*
X37015Y-53106D01*
X38984Y-52712D02*
X37015Y-52712D01*
X37015Y-52712D02*
X37015Y-54287D01*
X37015Y-54287D02*
X38984Y-54287D01*
X38984Y-54287D02*
X38984Y-52712D01*
X38904Y-51815D02*
G75*
G03X38904Y-51815I-139J0D01*
G74*
G01*
X31574Y-51925D02*
G75*
G03X31574Y-51925I-157J0D01*
G74*
G01*
X28503Y-53106D02*
X28503Y-52791D01*
X28503Y-52791D02*
X29291Y-52791D01*
X28503Y-53106D02*
X28503Y-53421D01*
X28503Y-53421D02*
X29291Y-53421D01*
X29291Y-55271D02*
X29291Y-51728D01*
X29291Y-51728D02*
X30708Y-51728D01*
X30708Y-51728D02*
X30708Y-55271D01*
X30708Y-55271D02*
X29291Y-55271D01*
X38511Y-49513D02*
X38511Y-49986D01*
X38511Y-49986D02*
X38314Y-49986D01*
X38511Y-49513D02*
X38314Y-49513D01*
X37488Y-49986D02*
X37488Y-49513D01*
X37488Y-49513D02*
X37685Y-49513D01*
X37488Y-49986D02*
X37685Y-49986D01*
X37863Y-55088D02*
X38336Y-55088D01*
X38336Y-55088D02*
X38336Y-55285D01*
X37863Y-55088D02*
X37863Y-55285D01*
X38336Y-56111D02*
X37863Y-56111D01*
X37863Y-56111D02*
X37863Y-55914D01*
X38336Y-56111D02*
X38336Y-55914D01*
X31750Y-50250D02*
X31250Y-50250D01*
X31750Y-49250D02*
X31250Y-49250D01*
X31750Y-49250D02*
X36750Y-49250D01*
X36750Y-49250D02*
X36750Y-50250D01*
X36750Y-50250D02*
X31750Y-50250D01*
X31750Y-49750D02*
G75*
G03X31250Y-49250I-500J0D01*
G74*
G01*
X31250Y-50250D02*
G75*
G03X31750Y-49750I0J500D01*
G74*
G01*
X31250Y-49250D02*
X31250Y-50250D01*
X34750Y-55000D02*
G75*
G03X34750Y-55000I-500J0D01*
G74*
G01*
X36450Y-55900D02*
G75*
G03X36450Y-55900I-200J0D01*
G74*
G01*
X35136Y-55886D02*
X33364Y-55886D01*
X33364Y-55886D02*
X33364Y-54114D01*
X33364Y-54114D02*
X35136Y-54114D01*
X35136Y-54114D02*
X35136Y-55886D01*
X34750Y-52000D02*
G75*
G03X34750Y-52000I-500J0D01*
G74*
G01*
X36450Y-52900D02*
G75*
G03X36450Y-52900I-200J0D01*
G74*
G01*
X35136Y-52886D02*
X33364Y-52886D01*
X33364Y-52886D02*
X33364Y-51114D01*
X33364Y-51114D02*
X35136Y-51114D01*
X35136Y-51114D02*
X35136Y-52886D01*
X31750Y-57750D02*
X31250Y-57750D01*
X31750Y-56750D02*
X31250Y-56750D01*
X31750Y-56750D02*
X36750Y-56750D01*
X36750Y-56750D02*
X36750Y-57750D01*
X36750Y-57750D02*
X31750Y-57750D01*
X31750Y-57250D02*
G75*
G03X31250Y-56750I-500J0D01*
G74*
G01*
X31250Y-57750D02*
G75*
G03X31750Y-57250I0J500D01*
G74*
G01*
X31250Y-56750D02*
X31250Y-57750D01*
X31011Y-57013D02*
X31011Y-57486D01*
X31011Y-57486D02*
X30814Y-57486D01*
X31011Y-57013D02*
X30814Y-57013D01*
X29988Y-57486D02*
X29988Y-57013D01*
X29988Y-57013D02*
X30185Y-57013D01*
X29988Y-57486D02*
X30185Y-57486D01*
X38986Y-56111D02*
X38513Y-56111D01*
X38513Y-56111D02*
X38513Y-55914D01*
X38986Y-56111D02*
X38986Y-55914D01*
X38513Y-55088D02*
X38986Y-55088D01*
X38986Y-55088D02*
X38986Y-55285D01*
X38513Y-55088D02*
X38513Y-55285D01*
X49486Y-56111D02*
X49013Y-56111D01*
X49013Y-56111D02*
X49013Y-55914D01*
X49486Y-56111D02*
X49486Y-55914D01*
X49013Y-55088D02*
X49486Y-55088D01*
X49486Y-55088D02*
X49486Y-55285D01*
X49013Y-55088D02*
X49013Y-55285D01*
X41511Y-57013D02*
X41511Y-57486D01*
X41511Y-57486D02*
X41314Y-57486D01*
X41511Y-57013D02*
X41314Y-57013D01*
X40488Y-57486D02*
X40488Y-57013D01*
X40488Y-57013D02*
X40685Y-57013D01*
X40488Y-57486D02*
X40685Y-57486D01*
X42250Y-57750D02*
X41750Y-57750D01*
X42250Y-56750D02*
X41750Y-56750D01*
X42250Y-56750D02*
X47250Y-56750D01*
X47250Y-56750D02*
X47250Y-57750D01*
X47250Y-57750D02*
X42250Y-57750D01*
X42250Y-57250D02*
G75*
G03X41750Y-56750I-500J0D01*
G74*
G01*
X41750Y-57750D02*
G75*
G03X42250Y-57250I0J500D01*
G74*
G01*
X41750Y-56750D02*
X41750Y-57750D01*
X45250Y-52000D02*
G75*
G03X45250Y-52000I-500J0D01*
G74*
G01*
X46950Y-52900D02*
G75*
G03X46950Y-52900I-200J0D01*
G74*
G01*
X45636Y-52886D02*
X43864Y-52886D01*
X43864Y-52886D02*
X43864Y-51114D01*
X43864Y-51114D02*
X45636Y-51114D01*
X45636Y-51114D02*
X45636Y-52886D01*
X45250Y-55000D02*
G75*
G03X45250Y-55000I-500J0D01*
G74*
G01*
X46950Y-55900D02*
G75*
G03X46950Y-55900I-200J0D01*
G74*
G01*
X45636Y-55886D02*
X43864Y-55886D01*
X43864Y-55886D02*
X43864Y-54114D01*
X43864Y-54114D02*
X45636Y-54114D01*
X45636Y-54114D02*
X45636Y-55886D01*
X42250Y-50250D02*
X41750Y-50250D01*
X42250Y-49250D02*
X41750Y-49250D01*
X42250Y-49250D02*
X47250Y-49250D01*
X47250Y-49250D02*
X47250Y-50250D01*
X47250Y-50250D02*
X42250Y-50250D01*
X42250Y-49750D02*
G75*
G03X41750Y-49250I-500J0D01*
G74*
G01*
X41750Y-50250D02*
G75*
G03X42250Y-49750I0J500D01*
G74*
G01*
X41750Y-49250D02*
X41750Y-50250D01*
X48363Y-55088D02*
X48836Y-55088D01*
X48836Y-55088D02*
X48836Y-55285D01*
X48363Y-55088D02*
X48363Y-55285D01*
X48836Y-56111D02*
X48363Y-56111D01*
X48363Y-56111D02*
X48363Y-55914D01*
X48836Y-56111D02*
X48836Y-55914D01*
X49011Y-49513D02*
X49011Y-49986D01*
X49011Y-49986D02*
X48814Y-49986D01*
X49011Y-49513D02*
X48814Y-49513D01*
X47988Y-49986D02*
X47988Y-49513D01*
X47988Y-49513D02*
X48185Y-49513D01*
X47988Y-49986D02*
X48185Y-49986D01*
X42074Y-51925D02*
G75*
G03X42074Y-51925I-157J0D01*
G74*
G01*
X39003Y-53106D02*
X39003Y-52791D01*
X39003Y-52791D02*
X39791Y-52791D01*
X39003Y-53106D02*
X39003Y-53421D01*
X39003Y-53421D02*
X39791Y-53421D01*
X39791Y-55271D02*
X39791Y-51728D01*
X39791Y-51728D02*
X41208Y-51728D01*
X41208Y-51728D02*
X41208Y-55271D01*
X41208Y-55271D02*
X39791Y-55271D01*
X49484Y-53106D02*
X47515Y-53106D01*
X49484Y-52712D02*
X47515Y-52712D01*
X47515Y-52712D02*
X47515Y-54287D01*
X47515Y-54287D02*
X49484Y-54287D01*
X49484Y-54287D02*
X49484Y-52712D01*
X49404Y-51815D02*
G75*
G03X49404Y-51815I-139J0D01*
G74*
G01*
X48507Y-57000D02*
G75*
G03X49000Y-57492I492J0D01*
G74*
G01*
X49492Y-57000D02*
G75*
G03X49000Y-56507I-492J0D01*
G74*
G01*
X48409Y-57000D02*
G75*
G03X49000Y-57590I590J0D01*
G74*
G01*
X48311Y-57000D02*
G75*
G03X49000Y-57688I688J0D01*
G74*
G01*
X49590Y-57000D02*
G75*
G03X49000Y-56409I-590J0D01*
G74*
G01*
X49688Y-57000D02*
G75*
G03X49000Y-56311I-688J0D01*
G74*
G01*
X49000Y-57000D02*
X49000Y-57787D01*
X49000Y-57000D02*
X48212Y-57000D01*
X49000Y-56212D02*
X49000Y-57000D01*
X49000Y-57000D02*
X49787Y-57000D01*
X49787Y-57000D02*
G75*
G03X49787Y-57000I-787J0D01*
G74*
G01*
X40007Y-50000D02*
G75*
G03X40500Y-50492I492J0D01*
G74*
G01*
X40992Y-50000D02*
G75*
G03X40500Y-49507I-492J0D01*
G74*
G01*
X39909Y-50000D02*
G75*
G03X40500Y-50590I590J0D01*
G74*
G01*
X39811Y-50000D02*
G75*
G03X40500Y-50688I688J0D01*
G74*
G01*
X41090Y-50000D02*
G75*
G03X40500Y-49409I-590J0D01*
G74*
G01*
X41188Y-50000D02*
G75*
G03X40500Y-49311I-688J0D01*
G74*
G01*
X40500Y-50000D02*
X40500Y-50787D01*
X40500Y-50000D02*
X39712Y-50000D01*
X40500Y-49212D02*
X40500Y-50000D01*
X40500Y-50000D02*
X41287Y-50000D01*
X41287Y-50000D02*
G75*
G03X41287Y-50000I-787J0D01*
G74*
G01*
X29507Y-59000D02*
G75*
G03X30000Y-59492I492J0D01*
G74*
G01*
X30492Y-59000D02*
G75*
G03X30000Y-58507I-492J0D01*
G74*
G01*
X29409Y-59000D02*
G75*
G03X30000Y-59590I590J0D01*
G74*
G01*
X29311Y-59000D02*
G75*
G03X30000Y-59688I688J0D01*
G74*
G01*
X30590Y-59000D02*
G75*
G03X30000Y-58409I-590J0D01*
G74*
G01*
X30688Y-59000D02*
G75*
G03X30000Y-58311I-688J0D01*
G74*
G01*
X30000Y-59000D02*
X30000Y-59787D01*
X30000Y-59000D02*
X29212Y-59000D01*
X30000Y-58212D02*
X30000Y-59000D01*
X30000Y-59000D02*
X30787Y-59000D01*
X30787Y-59000D02*
G75*
G03X30787Y-59000I-787J0D01*
G74*
G01*
X38007Y-66000D02*
G75*
G03X38500Y-66492I492J0D01*
G74*
G01*
X38992Y-66000D02*
G75*
G03X38500Y-65507I-492J0D01*
G74*
G01*
X37909Y-66000D02*
G75*
G03X38500Y-66590I590J0D01*
G74*
G01*
X37811Y-66000D02*
G75*
G03X38500Y-66688I688J0D01*
G74*
G01*
X39090Y-66000D02*
G75*
G03X38500Y-65409I-590J0D01*
G74*
G01*
X39188Y-66000D02*
G75*
G03X38500Y-65311I-688J0D01*
G74*
G01*
X38500Y-66000D02*
X38500Y-66787D01*
X38500Y-66000D02*
X37712Y-66000D01*
X38500Y-65212D02*
X38500Y-66000D01*
X38500Y-66000D02*
X39287Y-66000D01*
X39287Y-66000D02*
G75*
G03X39287Y-66000I-787J0D01*
G74*
G01*
X38984Y-62106D02*
X37015Y-62106D01*
X38984Y-61712D02*
X37015Y-61712D01*
X37015Y-61712D02*
X37015Y-63287D01*
X37015Y-63287D02*
X38984Y-63287D01*
X38984Y-63287D02*
X38984Y-61712D01*
X38904Y-60815D02*
G75*
G03X38904Y-60815I-139J0D01*
G74*
G01*
X31574Y-60925D02*
G75*
G03X31574Y-60925I-157J0D01*
G74*
G01*
X28503Y-62106D02*
X28503Y-61791D01*
X28503Y-61791D02*
X29291Y-61791D01*
X28503Y-62106D02*
X28503Y-62421D01*
X28503Y-62421D02*
X29291Y-62421D01*
X29291Y-64271D02*
X29291Y-60728D01*
X29291Y-60728D02*
X30708Y-60728D01*
X30708Y-60728D02*
X30708Y-64271D01*
X30708Y-64271D02*
X29291Y-64271D01*
X38511Y-58513D02*
X38511Y-58986D01*
X38511Y-58986D02*
X38314Y-58986D01*
X38511Y-58513D02*
X38314Y-58513D01*
X37488Y-58986D02*
X37488Y-58513D01*
X37488Y-58513D02*
X37685Y-58513D01*
X37488Y-58986D02*
X37685Y-58986D01*
X37863Y-64088D02*
X38336Y-64088D01*
X38336Y-64088D02*
X38336Y-64285D01*
X37863Y-64088D02*
X37863Y-64285D01*
X38336Y-65111D02*
X37863Y-65111D01*
X37863Y-65111D02*
X37863Y-64914D01*
X38336Y-65111D02*
X38336Y-64914D01*
X31750Y-59250D02*
X31250Y-59250D01*
X31750Y-58250D02*
X31250Y-58250D01*
X31750Y-58250D02*
X36750Y-58250D01*
X36750Y-58250D02*
X36750Y-59250D01*
X36750Y-59250D02*
X31750Y-59250D01*
X31750Y-58750D02*
G75*
G03X31250Y-58250I-500J0D01*
G74*
G01*
X31250Y-59250D02*
G75*
G03X31750Y-58750I0J500D01*
G74*
G01*
X31250Y-58250D02*
X31250Y-59250D01*
X34750Y-64000D02*
G75*
G03X34750Y-64000I-500J0D01*
G74*
G01*
X36450Y-64900D02*
G75*
G03X36450Y-64900I-200J0D01*
G74*
G01*
X35136Y-64886D02*
X33364Y-64886D01*
X33364Y-64886D02*
X33364Y-63114D01*
X33364Y-63114D02*
X35136Y-63114D01*
X35136Y-63114D02*
X35136Y-64886D01*
X34750Y-61000D02*
G75*
G03X34750Y-61000I-500J0D01*
G74*
G01*
X36450Y-61900D02*
G75*
G03X36450Y-61900I-200J0D01*
G74*
G01*
X35136Y-61886D02*
X33364Y-61886D01*
X33364Y-61886D02*
X33364Y-60114D01*
X33364Y-60114D02*
X35136Y-60114D01*
X35136Y-60114D02*
X35136Y-61886D01*
X31750Y-66750D02*
X31250Y-66750D01*
X31750Y-65750D02*
X31250Y-65750D01*
X31750Y-65750D02*
X36750Y-65750D01*
X36750Y-65750D02*
X36750Y-66750D01*
X36750Y-66750D02*
X31750Y-66750D01*
X31750Y-66250D02*
G75*
G03X31250Y-65750I-500J0D01*
G74*
G01*
X31250Y-66750D02*
G75*
G03X31750Y-66250I0J500D01*
G74*
G01*
X31250Y-65750D02*
X31250Y-66750D01*
X31011Y-66013D02*
X31011Y-66486D01*
X31011Y-66486D02*
X30814Y-66486D01*
X31011Y-66013D02*
X30814Y-66013D01*
X29988Y-66486D02*
X29988Y-66013D01*
X29988Y-66013D02*
X30185Y-66013D01*
X29988Y-66486D02*
X30185Y-66486D01*
X38986Y-65111D02*
X38513Y-65111D01*
X38513Y-65111D02*
X38513Y-64914D01*
X38986Y-65111D02*
X38986Y-64914D01*
X38513Y-64088D02*
X38986Y-64088D01*
X38986Y-64088D02*
X38986Y-64285D01*
X38513Y-64088D02*
X38513Y-64285D01*
X49486Y-65111D02*
X49013Y-65111D01*
X49013Y-65111D02*
X49013Y-64914D01*
X49486Y-65111D02*
X49486Y-64914D01*
X49013Y-64088D02*
X49486Y-64088D01*
X49486Y-64088D02*
X49486Y-64285D01*
X49013Y-64088D02*
X49013Y-64285D01*
X41511Y-66013D02*
X41511Y-66486D01*
X41511Y-66486D02*
X41314Y-66486D01*
X41511Y-66013D02*
X41314Y-66013D01*
X40488Y-66486D02*
X40488Y-66013D01*
X40488Y-66013D02*
X40685Y-66013D01*
X40488Y-66486D02*
X40685Y-66486D01*
X42250Y-66750D02*
X41750Y-66750D01*
X42250Y-65750D02*
X41750Y-65750D01*
X42250Y-65750D02*
X47250Y-65750D01*
X47250Y-65750D02*
X47250Y-66750D01*
X47250Y-66750D02*
X42250Y-66750D01*
X42250Y-66250D02*
G75*
G03X41750Y-65750I-500J0D01*
G74*
G01*
X41750Y-66750D02*
G75*
G03X42250Y-66250I0J500D01*
G74*
G01*
X41750Y-65750D02*
X41750Y-66750D01*
X45250Y-61000D02*
G75*
G03X45250Y-61000I-500J0D01*
G74*
G01*
X46950Y-61900D02*
G75*
G03X46950Y-61900I-200J0D01*
G74*
G01*
X45636Y-61886D02*
X43864Y-61886D01*
X43864Y-61886D02*
X43864Y-60114D01*
X43864Y-60114D02*
X45636Y-60114D01*
X45636Y-60114D02*
X45636Y-61886D01*
X45250Y-64000D02*
G75*
G03X45250Y-64000I-500J0D01*
G74*
G01*
X46950Y-64900D02*
G75*
G03X46950Y-64900I-200J0D01*
G74*
G01*
X45636Y-64886D02*
X43864Y-64886D01*
X43864Y-64886D02*
X43864Y-63114D01*
X43864Y-63114D02*
X45636Y-63114D01*
X45636Y-63114D02*
X45636Y-64886D01*
X42250Y-59250D02*
X41750Y-59250D01*
X42250Y-58250D02*
X41750Y-58250D01*
X42250Y-58250D02*
X47250Y-58250D01*
X47250Y-58250D02*
X47250Y-59250D01*
X47250Y-59250D02*
X42250Y-59250D01*
X42250Y-58750D02*
G75*
G03X41750Y-58250I-500J0D01*
G74*
G01*
X41750Y-59250D02*
G75*
G03X42250Y-58750I0J500D01*
G74*
G01*
X41750Y-58250D02*
X41750Y-59250D01*
X48363Y-64088D02*
X48836Y-64088D01*
X48836Y-64088D02*
X48836Y-64285D01*
X48363Y-64088D02*
X48363Y-64285D01*
X48836Y-65111D02*
X48363Y-65111D01*
X48363Y-65111D02*
X48363Y-64914D01*
X48836Y-65111D02*
X48836Y-64914D01*
X49011Y-58513D02*
X49011Y-58986D01*
X49011Y-58986D02*
X48814Y-58986D01*
X49011Y-58513D02*
X48814Y-58513D01*
X47988Y-58986D02*
X47988Y-58513D01*
X47988Y-58513D02*
X48185Y-58513D01*
X47988Y-58986D02*
X48185Y-58986D01*
X42074Y-60925D02*
G75*
G03X42074Y-60925I-157J0D01*
G74*
G01*
X39003Y-62106D02*
X39003Y-61791D01*
X39003Y-61791D02*
X39791Y-61791D01*
X39003Y-62106D02*
X39003Y-62421D01*
X39003Y-62421D02*
X39791Y-62421D01*
X39791Y-64271D02*
X39791Y-60728D01*
X39791Y-60728D02*
X41208Y-60728D01*
X41208Y-60728D02*
X41208Y-64271D01*
X41208Y-64271D02*
X39791Y-64271D01*
X49484Y-62106D02*
X47515Y-62106D01*
X49484Y-61712D02*
X47515Y-61712D01*
X47515Y-61712D02*
X47515Y-63287D01*
X47515Y-63287D02*
X49484Y-63287D01*
X49484Y-63287D02*
X49484Y-61712D01*
X49404Y-60815D02*
G75*
G03X49404Y-60815I-139J0D01*
G74*
G01*
X48507Y-66000D02*
G75*
G03X49000Y-66492I492J0D01*
G74*
G01*
X49492Y-66000D02*
G75*
G03X49000Y-65507I-492J0D01*
G74*
G01*
X48409Y-66000D02*
G75*
G03X49000Y-66590I590J0D01*
G74*
G01*
X48311Y-66000D02*
G75*
G03X49000Y-66688I688J0D01*
G74*
G01*
X49590Y-66000D02*
G75*
G03X49000Y-65409I-590J0D01*
G74*
G01*
X49688Y-66000D02*
G75*
G03X49000Y-65311I-688J0D01*
G74*
G01*
X49000Y-66000D02*
X49000Y-66787D01*
X49000Y-66000D02*
X48212Y-66000D01*
X49000Y-65212D02*
X49000Y-66000D01*
X49000Y-66000D02*
X49787Y-66000D01*
X49787Y-66000D02*
G75*
G03X49787Y-66000I-787J0D01*
G74*
G01*
X40007Y-59000D02*
G75*
G03X40500Y-59492I492J0D01*
G74*
G01*
X40992Y-59000D02*
G75*
G03X40500Y-58507I-492J0D01*
G74*
G01*
X39909Y-59000D02*
G75*
G03X40500Y-59590I590J0D01*
G74*
G01*
X39811Y-59000D02*
G75*
G03X40500Y-59688I688J0D01*
G74*
G01*
X41090Y-59000D02*
G75*
G03X40500Y-58409I-590J0D01*
G74*
G01*
X41188Y-59000D02*
G75*
G03X40500Y-58311I-688J0D01*
G74*
G01*
X40500Y-59000D02*
X40500Y-59787D01*
X40500Y-59000D02*
X39712Y-59000D01*
X40500Y-58212D02*
X40500Y-59000D01*
X40500Y-59000D02*
X41287Y-59000D01*
X41287Y-59000D02*
G75*
G03X41287Y-59000I-787J0D01*
G74*
G01*
X40007Y-41000D02*
G75*
G03X40500Y-41492I492J0D01*
G74*
G01*
X40992Y-41000D02*
G75*
G03X40500Y-40507I-492J0D01*
G74*
G01*
X39909Y-41000D02*
G75*
G03X40500Y-41590I590J0D01*
G74*
G01*
X39811Y-41000D02*
G75*
G03X40500Y-41688I688J0D01*
G74*
G01*
X41090Y-41000D02*
G75*
G03X40500Y-40409I-590J0D01*
G74*
G01*
X41188Y-41000D02*
G75*
G03X40500Y-40311I-688J0D01*
G74*
G01*
X40500Y-41000D02*
X40500Y-41787D01*
X40500Y-41000D02*
X39712Y-41000D01*
X40500Y-40212D02*
X40500Y-41000D01*
X40500Y-41000D02*
X41287Y-41000D01*
X41287Y-41000D02*
G75*
G03X41287Y-41000I-787J0D01*
G74*
G01*
X48507Y-48000D02*
G75*
G03X49000Y-48492I492J0D01*
G74*
G01*
X49492Y-48000D02*
G75*
G03X49000Y-47507I-492J0D01*
G74*
G01*
X48409Y-48000D02*
G75*
G03X49000Y-48590I590J0D01*
G74*
G01*
X48311Y-48000D02*
G75*
G03X49000Y-48688I688J0D01*
G74*
G01*
X49590Y-48000D02*
G75*
G03X49000Y-47409I-590J0D01*
G74*
G01*
X49688Y-48000D02*
G75*
G03X49000Y-47311I-688J0D01*
G74*
G01*
X49000Y-48000D02*
X49000Y-48787D01*
X49000Y-48000D02*
X48212Y-48000D01*
X49000Y-47212D02*
X49000Y-48000D01*
X49000Y-48000D02*
X49787Y-48000D01*
X49787Y-48000D02*
G75*
G03X49787Y-48000I-787J0D01*
G74*
G01*
X49484Y-44106D02*
X47515Y-44106D01*
X49484Y-43712D02*
X47515Y-43712D01*
X47515Y-43712D02*
X47515Y-45287D01*
X47515Y-45287D02*
X49484Y-45287D01*
X49484Y-45287D02*
X49484Y-43712D01*
X49404Y-42815D02*
G75*
G03X49404Y-42815I-139J0D01*
G74*
G01*
X42074Y-42925D02*
G75*
G03X42074Y-42925I-157J0D01*
G74*
G01*
X39003Y-44106D02*
X39003Y-43791D01*
X39003Y-43791D02*
X39791Y-43791D01*
X39003Y-44106D02*
X39003Y-44421D01*
X39003Y-44421D02*
X39791Y-44421D01*
X39791Y-46271D02*
X39791Y-42728D01*
X39791Y-42728D02*
X41208Y-42728D01*
X41208Y-42728D02*
X41208Y-46271D01*
X41208Y-46271D02*
X39791Y-46271D01*
X49011Y-40513D02*
X49011Y-40986D01*
X49011Y-40986D02*
X48814Y-40986D01*
X49011Y-40513D02*
X48814Y-40513D01*
X47988Y-40986D02*
X47988Y-40513D01*
X47988Y-40513D02*
X48185Y-40513D01*
X47988Y-40986D02*
X48185Y-40986D01*
X48363Y-46088D02*
X48836Y-46088D01*
X48836Y-46088D02*
X48836Y-46285D01*
X48363Y-46088D02*
X48363Y-46285D01*
X48836Y-47111D02*
X48363Y-47111D01*
X48363Y-47111D02*
X48363Y-46914D01*
X48836Y-47111D02*
X48836Y-46914D01*
X42250Y-41250D02*
X41750Y-41250D01*
X42250Y-40250D02*
X41750Y-40250D01*
X42250Y-40250D02*
X47250Y-40250D01*
X47250Y-40250D02*
X47250Y-41250D01*
X47250Y-41250D02*
X42250Y-41250D01*
X42250Y-40750D02*
G75*
G03X41750Y-40250I-500J0D01*
G74*
G01*
X41750Y-41250D02*
G75*
G03X42250Y-40750I0J500D01*
G74*
G01*
X41750Y-40250D02*
X41750Y-41250D01*
X45250Y-46000D02*
G75*
G03X45250Y-46000I-500J0D01*
G74*
G01*
X46950Y-46900D02*
G75*
G03X46950Y-46900I-200J0D01*
G74*
G01*
X45636Y-46886D02*
X43864Y-46886D01*
X43864Y-46886D02*
X43864Y-45114D01*
X43864Y-45114D02*
X45636Y-45114D01*
X45636Y-45114D02*
X45636Y-46886D01*
X45250Y-43000D02*
G75*
G03X45250Y-43000I-500J0D01*
G74*
G01*
X46950Y-43900D02*
G75*
G03X46950Y-43900I-200J0D01*
G74*
G01*
X45636Y-43886D02*
X43864Y-43886D01*
X43864Y-43886D02*
X43864Y-42114D01*
X43864Y-42114D02*
X45636Y-42114D01*
X45636Y-42114D02*
X45636Y-43886D01*
X42250Y-48750D02*
X41750Y-48750D01*
X42250Y-47750D02*
X41750Y-47750D01*
X42250Y-47750D02*
X47250Y-47750D01*
X47250Y-47750D02*
X47250Y-48750D01*
X47250Y-48750D02*
X42250Y-48750D01*
X42250Y-48250D02*
G75*
G03X41750Y-47750I-500J0D01*
G74*
G01*
X41750Y-48750D02*
G75*
G03X42250Y-48250I0J500D01*
G74*
G01*
X41750Y-47750D02*
X41750Y-48750D01*
X41511Y-48013D02*
X41511Y-48486D01*
X41511Y-48486D02*
X41314Y-48486D01*
X41511Y-48013D02*
X41314Y-48013D01*
X40488Y-48486D02*
X40488Y-48013D01*
X40488Y-48013D02*
X40685Y-48013D01*
X40488Y-48486D02*
X40685Y-48486D01*
X49486Y-47111D02*
X49013Y-47111D01*
X49013Y-47111D02*
X49013Y-46914D01*
X49486Y-47111D02*
X49486Y-46914D01*
X49013Y-46088D02*
X49486Y-46088D01*
X49486Y-46088D02*
X49486Y-46285D01*
X49013Y-46088D02*
X49013Y-46285D01*
X37011Y-35263D02*
X37011Y-35736D01*
X37011Y-35736D02*
X36814Y-35736D01*
X37011Y-35263D02*
X36814Y-35263D01*
X35988Y-35736D02*
X35988Y-35263D01*
X35988Y-35263D02*
X36185Y-35263D01*
X35988Y-35736D02*
X36185Y-35736D01*
X41511Y-35263D02*
X41511Y-35736D01*
X41511Y-35736D02*
X41314Y-35736D01*
X41511Y-35263D02*
X41314Y-35263D01*
X40488Y-35736D02*
X40488Y-35263D01*
X40488Y-35263D02*
X40685Y-35263D01*
X40488Y-35736D02*
X40685Y-35736D01*
X37488Y-35736D02*
X37488Y-35263D01*
X37488Y-35263D02*
X37685Y-35263D01*
X37488Y-35736D02*
X37685Y-35736D01*
X38511Y-35263D02*
X38511Y-35736D01*
X38511Y-35736D02*
X38314Y-35736D01*
X38511Y-35263D02*
X38314Y-35263D01*
X37011Y-34263D02*
X37011Y-34736D01*
X37011Y-34736D02*
X36814Y-34736D01*
X37011Y-34263D02*
X36814Y-34263D01*
X35988Y-34736D02*
X35988Y-34263D01*
X35988Y-34263D02*
X36185Y-34263D01*
X35988Y-34736D02*
X36185Y-34736D01*
X42055Y-32028D02*
X41721Y-31694D01*
X41721Y-31694D02*
X41860Y-31555D01*
X42055Y-32028D02*
X42194Y-31889D01*
X42444Y-30971D02*
X42778Y-31305D01*
X42778Y-31305D02*
X42639Y-31444D01*
X42444Y-30971D02*
X42305Y-31110D01*
X41944Y-30471D02*
X42278Y-30805D01*
X42278Y-30805D02*
X42139Y-30944D01*
X41944Y-30471D02*
X41805Y-30610D01*
X41555Y-31528D02*
X41221Y-31194D01*
X41221Y-31194D02*
X41360Y-31055D01*
X41555Y-31528D02*
X41694Y-31389D01*
X34523Y-38738D02*
X34523Y-39761D01*
X34523Y-39761D02*
X34129Y-39761D01*
X34523Y-38738D02*
X34129Y-38738D01*
X32476Y-39761D02*
X32476Y-38738D01*
X32476Y-38738D02*
X32870Y-38738D01*
X32476Y-39761D02*
X32870Y-39761D01*
X34523Y-34738D02*
X34523Y-35761D01*
X34523Y-35761D02*
X34129Y-35761D01*
X34523Y-34738D02*
X34129Y-34738D01*
X32476Y-35761D02*
X32476Y-34738D01*
X32476Y-34738D02*
X32870Y-34738D01*
X32476Y-35761D02*
X32870Y-35761D01*
X38486Y-26011D02*
X38013Y-26011D01*
X38013Y-26011D02*
X38013Y-25814D01*
X38486Y-26011D02*
X38486Y-25814D01*
X38013Y-24988D02*
X38486Y-24988D01*
X38486Y-24988D02*
X38486Y-25185D01*
X38013Y-24988D02*
X38013Y-25185D01*
X38986Y-47111D02*
X38513Y-47111D01*
X38513Y-47111D02*
X38513Y-46914D01*
X38986Y-47111D02*
X38986Y-46914D01*
X38513Y-46088D02*
X38986Y-46088D01*
X38986Y-46088D02*
X38986Y-46285D01*
X38513Y-46088D02*
X38513Y-46285D01*
X31011Y-48013D02*
X31011Y-48486D01*
X31011Y-48486D02*
X30814Y-48486D01*
X31011Y-48013D02*
X30814Y-48013D01*
X29988Y-48486D02*
X29988Y-48013D01*
X29988Y-48013D02*
X30185Y-48013D01*
X29988Y-48486D02*
X30185Y-48486D01*
X37281Y-33813D02*
G75*
G03X37281Y-33813I-150J0D01*
G74*
G01*
X37272Y-33278D02*
X37272Y-32721D01*
X37272Y-32721D02*
X39500Y-30494D01*
X39500Y-30494D02*
X42005Y-33000D01*
X42005Y-33000D02*
X39500Y-35505D01*
X39500Y-35505D02*
X37272Y-33278D01*
X31688Y-36344D02*
G75*
G03X31688Y-36344I-157J0D01*
G74*
G01*
X32791Y-35950D02*
X34208Y-35950D01*
X34208Y-35950D02*
X34208Y-38549D01*
X34208Y-38549D02*
X32791Y-38549D01*
X32791Y-38549D02*
X32791Y-35950D01*
X47000Y-40000D02*
X50000Y-40000D01*
X50000Y-39000D02*
X47000Y-39000D01*
X50000Y-39000D02*
X50000Y-40000D01*
X47500Y-39500D02*
G75*
G03X47000Y-39000I-500J0D01*
G74*
G01*
X47000Y-40000D02*
G75*
G03X47500Y-39500I0J500D01*
G74*
G01*
X47000Y-39000D02*
X47000Y-40000D01*
X31750Y-48750D02*
X31250Y-48750D01*
X31750Y-47750D02*
X31250Y-47750D01*
X31750Y-47750D02*
X36750Y-47750D01*
X36750Y-47750D02*
X36750Y-48750D01*
X36750Y-48750D02*
X31750Y-48750D01*
X31750Y-48250D02*
G75*
G03X31250Y-47750I-500J0D01*
G74*
G01*
X31250Y-48750D02*
G75*
G03X31750Y-48250I0J500D01*
G74*
G01*
X31250Y-47750D02*
X31250Y-48750D01*
X34750Y-43000D02*
G75*
G03X34750Y-43000I-500J0D01*
G74*
G01*
X36450Y-43900D02*
G75*
G03X36450Y-43900I-200J0D01*
G74*
G01*
X35136Y-43886D02*
X33364Y-43886D01*
X33364Y-43886D02*
X33364Y-42114D01*
X33364Y-42114D02*
X35136Y-42114D01*
X35136Y-42114D02*
X35136Y-43886D01*
X34750Y-46000D02*
G75*
G03X34750Y-46000I-500J0D01*
G74*
G01*
X36450Y-46900D02*
G75*
G03X36450Y-46900I-200J0D01*
G74*
G01*
X35136Y-46886D02*
X33364Y-46886D01*
X33364Y-46886D02*
X33364Y-45114D01*
X33364Y-45114D02*
X35136Y-45114D01*
X35136Y-45114D02*
X35136Y-46886D01*
G54D12*
X42828Y-35854D02*
X43025Y-35854D01*
X42671Y-35854D02*
X42474Y-35854D01*
X42828Y-35854D02*
X42671Y-35933D01*
X42671Y-35933D02*
X42671Y-35775D01*
X42671Y-35775D02*
X42828Y-35854D01*
X42828Y-35775D02*
X42828Y-35933D01*
G54D13*
X43261Y-35263D02*
X43261Y-35736D01*
X43261Y-35736D02*
X43064Y-35736D01*
X43261Y-35263D02*
X43064Y-35263D01*
X42238Y-35736D02*
X42238Y-35263D01*
X42238Y-35263D02*
X42435Y-35263D01*
X42238Y-35736D02*
X42435Y-35736D01*
G54D12*
X47421Y-37145D02*
X47224Y-37145D01*
X47578Y-37145D02*
X47775Y-37145D01*
X47421Y-37145D02*
X47578Y-37066D01*
X47578Y-37066D02*
X47578Y-37224D01*
X47578Y-37224D02*
X47421Y-37145D01*
X47421Y-37224D02*
X47421Y-37066D01*
G54D13*
X46988Y-37736D02*
X46988Y-37263D01*
X46988Y-37263D02*
X47185Y-37263D01*
X46988Y-37736D02*
X47185Y-37736D01*
X48011Y-37263D02*
X48011Y-37736D01*
X48011Y-37736D02*
X47814Y-37736D01*
X48011Y-37263D02*
X47814Y-37263D01*
G54D11*
X29000Y-40000D02*
X32000Y-40000D01*
X32000Y-39000D02*
X29000Y-39000D01*
X32000Y-39000D02*
X32000Y-40000D01*
X29500Y-39500D02*
G75*
G03X29000Y-39000I-500J0D01*
G74*
G01*
X29000Y-40000D02*
G75*
G03X29500Y-39500I0J500D01*
G74*
G01*
X29000Y-39000D02*
X29000Y-40000D01*
G54D14*
X44041Y-35400D02*
G75*
G03X44041Y-35400I-141J0D01*
G74*
G01*
X46000Y-35500D02*
X44000Y-35500D01*
X44000Y-35500D02*
X44000Y-38500D01*
X44000Y-38500D02*
X46000Y-38500D01*
X46000Y-38500D02*
X46000Y-35500D01*
G54D11*
X39000Y-23250D02*
X39000Y-29750D01*
X40000Y-29750D02*
X40000Y-23250D01*
X39000Y-23250D02*
X40000Y-23250D01*
X39500Y-29250D02*
G75*
G03X39000Y-29750I0J-500D01*
G74*
G01*
X40000Y-29750D02*
G75*
G03X39500Y-29250I-500J0D01*
G74*
G01*
X39000Y-29750D02*
X40000Y-29750D01*
X37000Y-39750D02*
X36500Y-39750D01*
X37000Y-38750D02*
X36500Y-38750D01*
X37000Y-38750D02*
X42000Y-38750D01*
X42000Y-38750D02*
X42000Y-39750D01*
X42000Y-39750D02*
X37000Y-39750D01*
X37000Y-39250D02*
G75*
G03X36500Y-38750I-500J0D01*
G74*
G01*
X36500Y-39750D02*
G75*
G03X37000Y-39250I0J500D01*
G74*
G01*
X36500Y-38750D02*
X36500Y-39750D01*
X35716Y-28864D02*
X35966Y-28431D01*
X36583Y-29364D02*
X36833Y-28931D01*
X36583Y-29364D02*
X34083Y-33695D01*
X34083Y-33695D02*
X33216Y-33195D01*
X33216Y-33195D02*
X35716Y-28864D01*
X36150Y-29114D02*
G75*
G03X36833Y-28931I250J433D01*
G74*
G01*
X35966Y-28431D02*
G75*
G03X36150Y-29114I433J-250D01*
G74*
G01*
X36833Y-28931D02*
X35966Y-28431D01*
X45783Y-33195D02*
X46033Y-33628D01*
X44916Y-33695D02*
X45166Y-34128D01*
X44916Y-33695D02*
X42416Y-29364D01*
X42416Y-29364D02*
X43283Y-28864D01*
X43283Y-28864D02*
X45783Y-33195D01*
X45350Y-33445D02*
G75*
G03X45166Y-34128I250J-433D01*
G74*
G01*
X46033Y-33628D02*
G75*
G03X45350Y-33445I-433J-250D01*
G74*
G01*
X45166Y-34128D02*
X46033Y-33628D01*
X31750Y-41250D02*
X31250Y-41250D01*
X31750Y-40250D02*
X31250Y-40250D01*
X31750Y-40250D02*
X36750Y-40250D01*
X36750Y-40250D02*
X36750Y-41250D01*
X36750Y-41250D02*
X31750Y-41250D01*
X31750Y-40750D02*
G75*
G03X31250Y-40250I-500J0D01*
G74*
G01*
X31250Y-41250D02*
G75*
G03X31750Y-40750I0J500D01*
G74*
G01*
X31250Y-40250D02*
X31250Y-41250D01*
X37261Y-31513D02*
X37261Y-31986D01*
X37261Y-31986D02*
X37064Y-31986D01*
X37261Y-31513D02*
X37064Y-31513D01*
X36238Y-31986D02*
X36238Y-31513D01*
X36238Y-31513D02*
X36435Y-31513D01*
X36238Y-31986D02*
X36435Y-31986D01*
X38011Y-30763D02*
X38011Y-31236D01*
X38011Y-31236D02*
X37814Y-31236D01*
X38011Y-30763D02*
X37814Y-30763D01*
X36988Y-31236D02*
X36988Y-30763D01*
X36988Y-30763D02*
X37185Y-30763D01*
X36988Y-31236D02*
X37185Y-31236D01*
X38761Y-30013D02*
X38761Y-30486D01*
X38761Y-30486D02*
X38564Y-30486D01*
X38761Y-30013D02*
X38564Y-30013D01*
X37738Y-30486D02*
X37738Y-30013D01*
X37738Y-30013D02*
X37935Y-30013D01*
X37738Y-30486D02*
X37935Y-30486D01*
X37863Y-46088D02*
X38336Y-46088D01*
X38336Y-46088D02*
X38336Y-46285D01*
X37863Y-46088D02*
X37863Y-46285D01*
X38336Y-47111D02*
X37863Y-47111D01*
X37863Y-47111D02*
X37863Y-46914D01*
X38336Y-47111D02*
X38336Y-46914D01*
X38511Y-40513D02*
X38511Y-40986D01*
X38511Y-40986D02*
X38314Y-40986D01*
X38511Y-40513D02*
X38314Y-40513D01*
X37488Y-40986D02*
X37488Y-40513D01*
X37488Y-40513D02*
X37685Y-40513D01*
X37488Y-40986D02*
X37685Y-40986D01*
X43261Y-34513D02*
X43261Y-34986D01*
X43261Y-34986D02*
X43064Y-34986D01*
X43261Y-34513D02*
X43064Y-34513D01*
X42238Y-34986D02*
X42238Y-34513D01*
X42238Y-34513D02*
X42435Y-34513D01*
X42238Y-34986D02*
X42435Y-34986D01*
X46988Y-38486D02*
X46988Y-38013D01*
X46988Y-38013D02*
X47185Y-38013D01*
X46988Y-38486D02*
X47185Y-38486D01*
X48011Y-38013D02*
X48011Y-38486D01*
X48011Y-38486D02*
X47814Y-38486D01*
X48011Y-38013D02*
X47814Y-38013D01*
X31574Y-42925D02*
G75*
G03X31574Y-42925I-157J0D01*
G74*
G01*
X28503Y-44106D02*
X28503Y-43791D01*
X28503Y-43791D02*
X29291Y-43791D01*
X28503Y-44106D02*
X28503Y-44421D01*
X28503Y-44421D02*
X29291Y-44421D01*
X29291Y-46271D02*
X29291Y-42728D01*
X29291Y-42728D02*
X30708Y-42728D01*
X30708Y-42728D02*
X30708Y-46271D01*
X30708Y-46271D02*
X29291Y-46271D01*
X37250Y-36000D02*
X41750Y-36000D01*
X41750Y-36000D02*
X41750Y-38000D01*
X41750Y-38000D02*
X37250Y-38000D01*
X37250Y-38000D02*
X37250Y-36000D01*
X40681Y-37984D02*
X38318Y-37984D01*
X38318Y-36015D02*
X40681Y-36015D01*
X38318Y-36015D02*
G75*
G03X37334Y-37000I0J-984D01*
G74*
G01*
X37334Y-37000D02*
G75*
G03X38318Y-37984I984J0D01*
G74*
G01*
X40681Y-37984D02*
G75*
G03X41665Y-37000I0J984D01*
G74*
G01*
X41665Y-37000D02*
G75*
G03X40681Y-36015I-984J0D01*
G74*
G01*
X38984Y-44106D02*
X37015Y-44106D01*
X38984Y-43712D02*
X37015Y-43712D01*
X37015Y-43712D02*
X37015Y-45287D01*
X37015Y-45287D02*
X38984Y-45287D01*
X38984Y-45287D02*
X38984Y-43712D01*
X38904Y-42815D02*
G75*
G03X38904Y-42815I-139J0D01*
G74*
G01*
X41500Y-30000D02*
X41500Y-30500D01*
X40500Y-30000D02*
X40500Y-30500D01*
X40500Y-30000D02*
X40500Y-25000D01*
X40500Y-25000D02*
X41500Y-25000D01*
X41500Y-25000D02*
X41500Y-30000D01*
X41000Y-30000D02*
G75*
G03X40500Y-30500I0J-500D01*
G74*
G01*
X41500Y-30500D02*
G75*
G03X41000Y-30000I-500J0D01*
G74*
G01*
X40500Y-30500D02*
X41500Y-30500D01*
X35257Y-33250D02*
G75*
G03X35750Y-33742I492J0D01*
G74*
G01*
X36242Y-33250D02*
G75*
G03X35750Y-32757I-492J0D01*
G74*
G01*
X35159Y-33250D02*
G75*
G03X35750Y-33840I590J0D01*
G74*
G01*
X35061Y-33250D02*
G75*
G03X35750Y-33938I688J0D01*
G74*
G01*
X36340Y-33250D02*
G75*
G03X35750Y-32659I-590J0D01*
G74*
G01*
X36438Y-33250D02*
G75*
G03X35750Y-32561I-688J0D01*
G74*
G01*
X35750Y-33250D02*
X35750Y-34037D01*
X35750Y-33250D02*
X34962Y-33250D01*
X35750Y-32462D02*
X35750Y-33250D01*
X35750Y-33250D02*
X36537Y-33250D01*
X36537Y-33250D02*
G75*
G03X36537Y-33250I-787J0D01*
G74*
G01*
X42757Y-33250D02*
G75*
G03X43250Y-33742I492J0D01*
G74*
G01*
X43742Y-33250D02*
G75*
G03X43250Y-32757I-492J0D01*
G74*
G01*
X42659Y-33250D02*
G75*
G03X43250Y-33840I590J0D01*
G74*
G01*
X42561Y-33250D02*
G75*
G03X43250Y-33938I688J0D01*
G74*
G01*
X43840Y-33250D02*
G75*
G03X43250Y-32659I-590J0D01*
G74*
G01*
X43938Y-33250D02*
G75*
G03X43250Y-32561I-688J0D01*
G74*
G01*
X43250Y-33250D02*
X43250Y-34037D01*
X43250Y-33250D02*
X42462Y-33250D01*
X43250Y-32462D02*
X43250Y-33250D01*
X43250Y-33250D02*
X44037Y-33250D01*
X44037Y-33250D02*
G75*
G03X44037Y-33250I-787J0D01*
G74*
G01*
X38007Y-48000D02*
G75*
G03X38500Y-48492I492J0D01*
G74*
G01*
X38992Y-48000D02*
G75*
G03X38500Y-47507I-492J0D01*
G74*
G01*
X37909Y-48000D02*
G75*
G03X38500Y-48590I590J0D01*
G74*
G01*
X37811Y-48000D02*
G75*
G03X38500Y-48688I688J0D01*
G74*
G01*
X39090Y-48000D02*
G75*
G03X38500Y-47409I-590J0D01*
G74*
G01*
X39188Y-48000D02*
G75*
G03X38500Y-47311I-688J0D01*
G74*
G01*
X38500Y-48000D02*
X38500Y-48787D01*
X38500Y-48000D02*
X37712Y-48000D01*
X38500Y-47212D02*
X38500Y-48000D01*
X38500Y-48000D02*
X39287Y-48000D01*
X39287Y-48000D02*
G75*
G03X39287Y-48000I-787J0D01*
G74*
G01*
X29507Y-41000D02*
G75*
G03X30000Y-41492I492J0D01*
G74*
G01*
X30492Y-41000D02*
G75*
G03X30000Y-40507I-492J0D01*
G74*
G01*
X29409Y-41000D02*
G75*
G03X30000Y-41590I590J0D01*
G74*
G01*
X29311Y-41000D02*
G75*
G03X30000Y-41688I688J0D01*
G74*
G01*
X30590Y-41000D02*
G75*
G03X30000Y-40409I-590J0D01*
G74*
G01*
X30688Y-41000D02*
G75*
G03X30000Y-40311I-688J0D01*
G74*
G01*
X30000Y-41000D02*
X30000Y-41787D01*
X30000Y-41000D02*
X29212Y-41000D01*
X30000Y-40212D02*
X30000Y-41000D01*
X30000Y-41000D02*
X30787Y-41000D01*
X30787Y-41000D02*
G75*
G03X30787Y-41000I-787J0D01*
G74*
G01*
G54D10*
X36635Y-53792D02*
X36335Y-53792D01*
X36607Y-53478D02*
X36621Y-53492D01*
X36635Y-53535D01*
X36635Y-53564D01*
X36621Y-53607D01*
X36592Y-53635D01*
X36564Y-53649D01*
X36507Y-53664D01*
X36464Y-53664D01*
X36407Y-53649D01*
X36378Y-53635D01*
X36350Y-53607D01*
X36335Y-53564D01*
X36335Y-53535D01*
X36350Y-53492D01*
X36364Y-53478D01*
X36335Y-53378D02*
X36335Y-53192D01*
X36450Y-53292D01*
X36450Y-53249D01*
X36464Y-53221D01*
X36478Y-53207D01*
X36507Y-53192D01*
X36578Y-53192D01*
X36607Y-53207D01*
X36621Y-53221D01*
X36635Y-53249D01*
X36635Y-53335D01*
X36621Y-53364D01*
X36607Y-53378D01*
X28121Y-53728D02*
X28135Y-53685D01*
X28135Y-53614D01*
X28121Y-53585D01*
X28107Y-53571D01*
X28078Y-53557D01*
X28050Y-53557D01*
X28021Y-53571D01*
X28007Y-53585D01*
X27992Y-53614D01*
X27978Y-53671D01*
X27964Y-53700D01*
X27950Y-53714D01*
X27921Y-53728D01*
X27892Y-53728D01*
X27864Y-53714D01*
X27850Y-53700D01*
X27835Y-53671D01*
X27835Y-53600D01*
X27850Y-53557D01*
X28135Y-53271D02*
X28135Y-53442D01*
X28135Y-53357D02*
X27835Y-53357D01*
X27878Y-53385D01*
X27907Y-53414D01*
X27921Y-53442D01*
X37950Y-49385D02*
X37850Y-49242D01*
X37778Y-49385D02*
X37778Y-49085D01*
X37892Y-49085D01*
X37921Y-49100D01*
X37935Y-49114D01*
X37950Y-49142D01*
X37950Y-49185D01*
X37935Y-49214D01*
X37921Y-49228D01*
X37892Y-49242D01*
X37778Y-49242D01*
X38221Y-49085D02*
X38078Y-49085D01*
X38064Y-49228D01*
X38078Y-49214D01*
X38107Y-49200D01*
X38178Y-49200D01*
X38207Y-49214D01*
X38221Y-49228D01*
X38235Y-49257D01*
X38235Y-49328D01*
X38221Y-49357D01*
X38207Y-49371D01*
X38178Y-49385D01*
X38107Y-49385D01*
X38078Y-49371D01*
X38064Y-49357D01*
X38235Y-56650D02*
X38092Y-56750D01*
X38235Y-56821D02*
X37935Y-56821D01*
X37935Y-56707D01*
X37950Y-56678D01*
X37964Y-56664D01*
X37992Y-56650D01*
X38035Y-56650D01*
X38064Y-56664D01*
X38078Y-56678D01*
X38092Y-56707D01*
X38092Y-56821D01*
X38035Y-56392D02*
X38235Y-56392D01*
X37921Y-56464D02*
X38135Y-56535D01*
X38135Y-56350D01*
X34028Y-50885D02*
X34028Y-50585D01*
X34142Y-50585D01*
X34171Y-50600D01*
X34185Y-50614D01*
X34200Y-50642D01*
X34200Y-50685D01*
X34185Y-50714D01*
X34171Y-50728D01*
X34142Y-50742D01*
X34028Y-50742D01*
X34300Y-50585D02*
X34500Y-50585D01*
X34371Y-50885D01*
X33914Y-53635D02*
X33771Y-53635D01*
X33771Y-53335D01*
X34014Y-53478D02*
X34114Y-53478D01*
X34157Y-53635D02*
X34014Y-53635D01*
X34014Y-53335D01*
X34157Y-53335D01*
X34285Y-53635D02*
X34285Y-53335D01*
X34357Y-53335D01*
X34400Y-53350D01*
X34428Y-53378D01*
X34442Y-53407D01*
X34457Y-53464D01*
X34457Y-53507D01*
X34442Y-53564D01*
X34428Y-53592D01*
X34400Y-53621D01*
X34357Y-53635D01*
X34285Y-53635D01*
X34571Y-53364D02*
X34585Y-53350D01*
X34614Y-53335D01*
X34685Y-53335D01*
X34714Y-53350D01*
X34728Y-53364D01*
X34742Y-53392D01*
X34742Y-53421D01*
X34728Y-53464D01*
X34557Y-53635D01*
X34742Y-53635D01*
X33914Y-50635D02*
X33771Y-50635D01*
X33771Y-50335D01*
X34014Y-50478D02*
X34114Y-50478D01*
X34157Y-50635D02*
X34014Y-50635D01*
X34014Y-50335D01*
X34157Y-50335D01*
X34285Y-50635D02*
X34285Y-50335D01*
X34357Y-50335D01*
X34400Y-50350D01*
X34428Y-50378D01*
X34442Y-50407D01*
X34457Y-50464D01*
X34457Y-50507D01*
X34442Y-50564D01*
X34428Y-50592D01*
X34400Y-50621D01*
X34357Y-50635D01*
X34285Y-50635D01*
X34742Y-50635D02*
X34571Y-50635D01*
X34657Y-50635D02*
X34657Y-50335D01*
X34628Y-50378D01*
X34600Y-50407D01*
X34571Y-50421D01*
X34150Y-58085D02*
X34150Y-58300D01*
X34135Y-58342D01*
X34107Y-58371D01*
X34064Y-58385D01*
X34035Y-58385D01*
X34278Y-58114D02*
X34292Y-58100D01*
X34321Y-58085D01*
X34392Y-58085D01*
X34421Y-58100D01*
X34435Y-58114D01*
X34450Y-58142D01*
X34450Y-58171D01*
X34435Y-58214D01*
X34264Y-58385D01*
X34450Y-58385D01*
X30307Y-56857D02*
X30292Y-56871D01*
X30250Y-56885D01*
X30221Y-56885D01*
X30178Y-56871D01*
X30150Y-56842D01*
X30135Y-56814D01*
X30121Y-56757D01*
X30121Y-56714D01*
X30135Y-56657D01*
X30150Y-56628D01*
X30178Y-56600D01*
X30221Y-56585D01*
X30250Y-56585D01*
X30292Y-56600D01*
X30307Y-56614D01*
X30592Y-56885D02*
X30421Y-56885D01*
X30507Y-56885D02*
X30507Y-56585D01*
X30478Y-56628D01*
X30450Y-56657D01*
X30421Y-56671D01*
X30878Y-56885D02*
X30707Y-56885D01*
X30792Y-56885D02*
X30792Y-56585D01*
X30764Y-56628D01*
X30735Y-56657D01*
X30707Y-56671D01*
X38857Y-56792D02*
X38871Y-56807D01*
X38885Y-56850D01*
X38885Y-56878D01*
X38871Y-56921D01*
X38842Y-56950D01*
X38814Y-56964D01*
X38757Y-56978D01*
X38714Y-56978D01*
X38657Y-56964D01*
X38628Y-56950D01*
X38600Y-56921D01*
X38585Y-56878D01*
X38585Y-56850D01*
X38600Y-56807D01*
X38614Y-56792D01*
X38885Y-56507D02*
X38885Y-56678D01*
X38885Y-56592D02*
X38585Y-56592D01*
X38628Y-56621D01*
X38657Y-56650D01*
X38671Y-56678D01*
X38585Y-56321D02*
X38585Y-56292D01*
X38600Y-56264D01*
X38614Y-56250D01*
X38642Y-56235D01*
X38700Y-56221D01*
X38771Y-56221D01*
X38828Y-56235D01*
X38857Y-56250D01*
X38871Y-56264D01*
X38885Y-56292D01*
X38885Y-56321D01*
X38871Y-56350D01*
X38857Y-56364D01*
X38828Y-56378D01*
X38771Y-56392D01*
X38700Y-56392D01*
X38642Y-56378D01*
X38614Y-56364D01*
X38600Y-56350D01*
X38585Y-56321D01*
X49357Y-56792D02*
X49371Y-56807D01*
X49385Y-56850D01*
X49385Y-56878D01*
X49371Y-56921D01*
X49342Y-56950D01*
X49314Y-56964D01*
X49257Y-56978D01*
X49214Y-56978D01*
X49157Y-56964D01*
X49128Y-56950D01*
X49100Y-56921D01*
X49085Y-56878D01*
X49085Y-56850D01*
X49100Y-56807D01*
X49114Y-56792D01*
X49385Y-56507D02*
X49385Y-56678D01*
X49385Y-56592D02*
X49085Y-56592D01*
X49128Y-56621D01*
X49157Y-56650D01*
X49171Y-56678D01*
X49085Y-56321D02*
X49085Y-56292D01*
X49100Y-56264D01*
X49114Y-56250D01*
X49142Y-56235D01*
X49200Y-56221D01*
X49271Y-56221D01*
X49328Y-56235D01*
X49357Y-56250D01*
X49371Y-56264D01*
X49385Y-56292D01*
X49385Y-56321D01*
X49371Y-56350D01*
X49357Y-56364D01*
X49328Y-56378D01*
X49271Y-56392D01*
X49200Y-56392D01*
X49142Y-56378D01*
X49114Y-56364D01*
X49100Y-56350D01*
X49085Y-56321D01*
X40807Y-56857D02*
X40792Y-56871D01*
X40750Y-56885D01*
X40721Y-56885D01*
X40678Y-56871D01*
X40650Y-56842D01*
X40635Y-56814D01*
X40621Y-56757D01*
X40621Y-56714D01*
X40635Y-56657D01*
X40650Y-56628D01*
X40678Y-56600D01*
X40721Y-56585D01*
X40750Y-56585D01*
X40792Y-56600D01*
X40807Y-56614D01*
X41092Y-56885D02*
X40921Y-56885D01*
X41007Y-56885D02*
X41007Y-56585D01*
X40978Y-56628D01*
X40950Y-56657D01*
X40921Y-56671D01*
X41378Y-56885D02*
X41207Y-56885D01*
X41292Y-56885D02*
X41292Y-56585D01*
X41264Y-56628D01*
X41235Y-56657D01*
X41207Y-56671D01*
X44650Y-58085D02*
X44650Y-58300D01*
X44635Y-58342D01*
X44607Y-58371D01*
X44564Y-58385D01*
X44535Y-58385D01*
X44778Y-58114D02*
X44792Y-58100D01*
X44821Y-58085D01*
X44892Y-58085D01*
X44921Y-58100D01*
X44935Y-58114D01*
X44950Y-58142D01*
X44950Y-58171D01*
X44935Y-58214D01*
X44764Y-58385D01*
X44950Y-58385D01*
X44414Y-50635D02*
X44271Y-50635D01*
X44271Y-50335D01*
X44514Y-50478D02*
X44614Y-50478D01*
X44657Y-50635D02*
X44514Y-50635D01*
X44514Y-50335D01*
X44657Y-50335D01*
X44785Y-50635D02*
X44785Y-50335D01*
X44857Y-50335D01*
X44900Y-50350D01*
X44928Y-50378D01*
X44942Y-50407D01*
X44957Y-50464D01*
X44957Y-50507D01*
X44942Y-50564D01*
X44928Y-50592D01*
X44900Y-50621D01*
X44857Y-50635D01*
X44785Y-50635D01*
X45242Y-50635D02*
X45071Y-50635D01*
X45157Y-50635D02*
X45157Y-50335D01*
X45128Y-50378D01*
X45100Y-50407D01*
X45071Y-50421D01*
X44414Y-53635D02*
X44271Y-53635D01*
X44271Y-53335D01*
X44514Y-53478D02*
X44614Y-53478D01*
X44657Y-53635D02*
X44514Y-53635D01*
X44514Y-53335D01*
X44657Y-53335D01*
X44785Y-53635D02*
X44785Y-53335D01*
X44857Y-53335D01*
X44900Y-53350D01*
X44928Y-53378D01*
X44942Y-53407D01*
X44957Y-53464D01*
X44957Y-53507D01*
X44942Y-53564D01*
X44928Y-53592D01*
X44900Y-53621D01*
X44857Y-53635D01*
X44785Y-53635D01*
X45071Y-53364D02*
X45085Y-53350D01*
X45114Y-53335D01*
X45185Y-53335D01*
X45214Y-53350D01*
X45228Y-53364D01*
X45242Y-53392D01*
X45242Y-53421D01*
X45228Y-53464D01*
X45057Y-53635D01*
X45242Y-53635D01*
X44528Y-50885D02*
X44528Y-50585D01*
X44642Y-50585D01*
X44671Y-50600D01*
X44685Y-50614D01*
X44700Y-50642D01*
X44700Y-50685D01*
X44685Y-50714D01*
X44671Y-50728D01*
X44642Y-50742D01*
X44528Y-50742D01*
X44800Y-50585D02*
X45000Y-50585D01*
X44871Y-50885D01*
X48735Y-56650D02*
X48592Y-56750D01*
X48735Y-56821D02*
X48435Y-56821D01*
X48435Y-56707D01*
X48450Y-56678D01*
X48464Y-56664D01*
X48492Y-56650D01*
X48535Y-56650D01*
X48564Y-56664D01*
X48578Y-56678D01*
X48592Y-56707D01*
X48592Y-56821D01*
X48535Y-56392D02*
X48735Y-56392D01*
X48421Y-56464D02*
X48635Y-56535D01*
X48635Y-56350D01*
X48450Y-49385D02*
X48350Y-49242D01*
X48278Y-49385D02*
X48278Y-49085D01*
X48392Y-49085D01*
X48421Y-49100D01*
X48435Y-49114D01*
X48450Y-49142D01*
X48450Y-49185D01*
X48435Y-49214D01*
X48421Y-49228D01*
X48392Y-49242D01*
X48278Y-49242D01*
X48721Y-49085D02*
X48578Y-49085D01*
X48564Y-49228D01*
X48578Y-49214D01*
X48607Y-49200D01*
X48678Y-49200D01*
X48707Y-49214D01*
X48721Y-49228D01*
X48735Y-49257D01*
X48735Y-49328D01*
X48721Y-49357D01*
X48707Y-49371D01*
X48678Y-49385D01*
X48607Y-49385D01*
X48578Y-49371D01*
X48564Y-49357D01*
X38621Y-53728D02*
X38635Y-53685D01*
X38635Y-53614D01*
X38621Y-53585D01*
X38607Y-53571D01*
X38578Y-53557D01*
X38550Y-53557D01*
X38521Y-53571D01*
X38507Y-53585D01*
X38492Y-53614D01*
X38478Y-53671D01*
X38464Y-53700D01*
X38450Y-53714D01*
X38421Y-53728D01*
X38392Y-53728D01*
X38364Y-53714D01*
X38350Y-53700D01*
X38335Y-53671D01*
X38335Y-53600D01*
X38350Y-53557D01*
X38635Y-53271D02*
X38635Y-53442D01*
X38635Y-53357D02*
X38335Y-53357D01*
X38378Y-53385D01*
X38407Y-53414D01*
X38421Y-53442D01*
X47135Y-53792D02*
X46835Y-53792D01*
X47107Y-53478D02*
X47121Y-53492D01*
X47135Y-53535D01*
X47135Y-53564D01*
X47121Y-53607D01*
X47092Y-53635D01*
X47064Y-53649D01*
X47007Y-53664D01*
X46964Y-53664D01*
X46907Y-53649D01*
X46878Y-53635D01*
X46850Y-53607D01*
X46835Y-53564D01*
X46835Y-53535D01*
X46850Y-53492D01*
X46864Y-53478D01*
X46835Y-53378D02*
X46835Y-53192D01*
X46950Y-53292D01*
X46950Y-53249D01*
X46964Y-53221D01*
X46978Y-53207D01*
X47007Y-53192D01*
X47078Y-53192D01*
X47107Y-53207D01*
X47121Y-53221D01*
X47135Y-53249D01*
X47135Y-53335D01*
X47121Y-53364D01*
X47107Y-53378D01*
X36635Y-62792D02*
X36335Y-62792D01*
X36607Y-62478D02*
X36621Y-62492D01*
X36635Y-62535D01*
X36635Y-62564D01*
X36621Y-62607D01*
X36592Y-62635D01*
X36564Y-62649D01*
X36507Y-62664D01*
X36464Y-62664D01*
X36407Y-62649D01*
X36378Y-62635D01*
X36350Y-62607D01*
X36335Y-62564D01*
X36335Y-62535D01*
X36350Y-62492D01*
X36364Y-62478D01*
X36335Y-62378D02*
X36335Y-62192D01*
X36450Y-62292D01*
X36450Y-62249D01*
X36464Y-62221D01*
X36478Y-62207D01*
X36507Y-62192D01*
X36578Y-62192D01*
X36607Y-62207D01*
X36621Y-62221D01*
X36635Y-62249D01*
X36635Y-62335D01*
X36621Y-62364D01*
X36607Y-62378D01*
X28121Y-62728D02*
X28135Y-62685D01*
X28135Y-62614D01*
X28121Y-62585D01*
X28107Y-62571D01*
X28078Y-62557D01*
X28050Y-62557D01*
X28021Y-62571D01*
X28007Y-62585D01*
X27992Y-62614D01*
X27978Y-62671D01*
X27964Y-62700D01*
X27950Y-62714D01*
X27921Y-62728D01*
X27892Y-62728D01*
X27864Y-62714D01*
X27850Y-62700D01*
X27835Y-62671D01*
X27835Y-62600D01*
X27850Y-62557D01*
X28135Y-62271D02*
X28135Y-62442D01*
X28135Y-62357D02*
X27835Y-62357D01*
X27878Y-62385D01*
X27907Y-62414D01*
X27921Y-62442D01*
X37950Y-58385D02*
X37850Y-58242D01*
X37778Y-58385D02*
X37778Y-58085D01*
X37892Y-58085D01*
X37921Y-58100D01*
X37935Y-58114D01*
X37950Y-58142D01*
X37950Y-58185D01*
X37935Y-58214D01*
X37921Y-58228D01*
X37892Y-58242D01*
X37778Y-58242D01*
X38221Y-58085D02*
X38078Y-58085D01*
X38064Y-58228D01*
X38078Y-58214D01*
X38107Y-58200D01*
X38178Y-58200D01*
X38207Y-58214D01*
X38221Y-58228D01*
X38235Y-58257D01*
X38235Y-58328D01*
X38221Y-58357D01*
X38207Y-58371D01*
X38178Y-58385D01*
X38107Y-58385D01*
X38078Y-58371D01*
X38064Y-58357D01*
X38235Y-65650D02*
X38092Y-65750D01*
X38235Y-65821D02*
X37935Y-65821D01*
X37935Y-65707D01*
X37950Y-65678D01*
X37964Y-65664D01*
X37992Y-65650D01*
X38035Y-65650D01*
X38064Y-65664D01*
X38078Y-65678D01*
X38092Y-65707D01*
X38092Y-65821D01*
X38035Y-65392D02*
X38235Y-65392D01*
X37921Y-65464D02*
X38135Y-65535D01*
X38135Y-65350D01*
X34028Y-59885D02*
X34028Y-59585D01*
X34142Y-59585D01*
X34171Y-59600D01*
X34185Y-59614D01*
X34200Y-59642D01*
X34200Y-59685D01*
X34185Y-59714D01*
X34171Y-59728D01*
X34142Y-59742D01*
X34028Y-59742D01*
X34300Y-59585D02*
X34500Y-59585D01*
X34371Y-59885D01*
X33914Y-62635D02*
X33771Y-62635D01*
X33771Y-62335D01*
X34014Y-62478D02*
X34114Y-62478D01*
X34157Y-62635D02*
X34014Y-62635D01*
X34014Y-62335D01*
X34157Y-62335D01*
X34285Y-62635D02*
X34285Y-62335D01*
X34357Y-62335D01*
X34400Y-62350D01*
X34428Y-62378D01*
X34442Y-62407D01*
X34457Y-62464D01*
X34457Y-62507D01*
X34442Y-62564D01*
X34428Y-62592D01*
X34400Y-62621D01*
X34357Y-62635D01*
X34285Y-62635D01*
X34571Y-62364D02*
X34585Y-62350D01*
X34614Y-62335D01*
X34685Y-62335D01*
X34714Y-62350D01*
X34728Y-62364D01*
X34742Y-62392D01*
X34742Y-62421D01*
X34728Y-62464D01*
X34557Y-62635D01*
X34742Y-62635D01*
X33914Y-59635D02*
X33771Y-59635D01*
X33771Y-59335D01*
X34014Y-59478D02*
X34114Y-59478D01*
X34157Y-59635D02*
X34014Y-59635D01*
X34014Y-59335D01*
X34157Y-59335D01*
X34285Y-59635D02*
X34285Y-59335D01*
X34357Y-59335D01*
X34400Y-59350D01*
X34428Y-59378D01*
X34442Y-59407D01*
X34457Y-59464D01*
X34457Y-59507D01*
X34442Y-59564D01*
X34428Y-59592D01*
X34400Y-59621D01*
X34357Y-59635D01*
X34285Y-59635D01*
X34742Y-59635D02*
X34571Y-59635D01*
X34657Y-59635D02*
X34657Y-59335D01*
X34628Y-59378D01*
X34600Y-59407D01*
X34571Y-59421D01*
X34150Y-67085D02*
X34150Y-67300D01*
X34135Y-67342D01*
X34107Y-67371D01*
X34064Y-67385D01*
X34035Y-67385D01*
X34278Y-67114D02*
X34292Y-67100D01*
X34321Y-67085D01*
X34392Y-67085D01*
X34421Y-67100D01*
X34435Y-67114D01*
X34450Y-67142D01*
X34450Y-67171D01*
X34435Y-67214D01*
X34264Y-67385D01*
X34450Y-67385D01*
X30307Y-65857D02*
X30292Y-65871D01*
X30250Y-65885D01*
X30221Y-65885D01*
X30178Y-65871D01*
X30150Y-65842D01*
X30135Y-65814D01*
X30121Y-65757D01*
X30121Y-65714D01*
X30135Y-65657D01*
X30150Y-65628D01*
X30178Y-65600D01*
X30221Y-65585D01*
X30250Y-65585D01*
X30292Y-65600D01*
X30307Y-65614D01*
X30592Y-65885D02*
X30421Y-65885D01*
X30507Y-65885D02*
X30507Y-65585D01*
X30478Y-65628D01*
X30450Y-65657D01*
X30421Y-65671D01*
X30878Y-65885D02*
X30707Y-65885D01*
X30792Y-65885D02*
X30792Y-65585D01*
X30764Y-65628D01*
X30735Y-65657D01*
X30707Y-65671D01*
X38857Y-65792D02*
X38871Y-65807D01*
X38885Y-65850D01*
X38885Y-65878D01*
X38871Y-65921D01*
X38842Y-65950D01*
X38814Y-65964D01*
X38757Y-65978D01*
X38714Y-65978D01*
X38657Y-65964D01*
X38628Y-65950D01*
X38600Y-65921D01*
X38585Y-65878D01*
X38585Y-65850D01*
X38600Y-65807D01*
X38614Y-65792D01*
X38885Y-65507D02*
X38885Y-65678D01*
X38885Y-65592D02*
X38585Y-65592D01*
X38628Y-65621D01*
X38657Y-65650D01*
X38671Y-65678D01*
X38585Y-65321D02*
X38585Y-65292D01*
X38600Y-65264D01*
X38614Y-65250D01*
X38642Y-65235D01*
X38700Y-65221D01*
X38771Y-65221D01*
X38828Y-65235D01*
X38857Y-65250D01*
X38871Y-65264D01*
X38885Y-65292D01*
X38885Y-65321D01*
X38871Y-65350D01*
X38857Y-65364D01*
X38828Y-65378D01*
X38771Y-65392D01*
X38700Y-65392D01*
X38642Y-65378D01*
X38614Y-65364D01*
X38600Y-65350D01*
X38585Y-65321D01*
X49357Y-65792D02*
X49371Y-65807D01*
X49385Y-65850D01*
X49385Y-65878D01*
X49371Y-65921D01*
X49342Y-65950D01*
X49314Y-65964D01*
X49257Y-65978D01*
X49214Y-65978D01*
X49157Y-65964D01*
X49128Y-65950D01*
X49100Y-65921D01*
X49085Y-65878D01*
X49085Y-65850D01*
X49100Y-65807D01*
X49114Y-65792D01*
X49385Y-65507D02*
X49385Y-65678D01*
X49385Y-65592D02*
X49085Y-65592D01*
X49128Y-65621D01*
X49157Y-65650D01*
X49171Y-65678D01*
X49085Y-65321D02*
X49085Y-65292D01*
X49100Y-65264D01*
X49114Y-65250D01*
X49142Y-65235D01*
X49200Y-65221D01*
X49271Y-65221D01*
X49328Y-65235D01*
X49357Y-65250D01*
X49371Y-65264D01*
X49385Y-65292D01*
X49385Y-65321D01*
X49371Y-65350D01*
X49357Y-65364D01*
X49328Y-65378D01*
X49271Y-65392D01*
X49200Y-65392D01*
X49142Y-65378D01*
X49114Y-65364D01*
X49100Y-65350D01*
X49085Y-65321D01*
X40807Y-65857D02*
X40792Y-65871D01*
X40750Y-65885D01*
X40721Y-65885D01*
X40678Y-65871D01*
X40650Y-65842D01*
X40635Y-65814D01*
X40621Y-65757D01*
X40621Y-65714D01*
X40635Y-65657D01*
X40650Y-65628D01*
X40678Y-65600D01*
X40721Y-65585D01*
X40750Y-65585D01*
X40792Y-65600D01*
X40807Y-65614D01*
X41092Y-65885D02*
X40921Y-65885D01*
X41007Y-65885D02*
X41007Y-65585D01*
X40978Y-65628D01*
X40950Y-65657D01*
X40921Y-65671D01*
X41378Y-65885D02*
X41207Y-65885D01*
X41292Y-65885D02*
X41292Y-65585D01*
X41264Y-65628D01*
X41235Y-65657D01*
X41207Y-65671D01*
X44650Y-67085D02*
X44650Y-67300D01*
X44635Y-67342D01*
X44607Y-67371D01*
X44564Y-67385D01*
X44535Y-67385D01*
X44778Y-67114D02*
X44792Y-67100D01*
X44821Y-67085D01*
X44892Y-67085D01*
X44921Y-67100D01*
X44935Y-67114D01*
X44950Y-67142D01*
X44950Y-67171D01*
X44935Y-67214D01*
X44764Y-67385D01*
X44950Y-67385D01*
X44414Y-59635D02*
X44271Y-59635D01*
X44271Y-59335D01*
X44514Y-59478D02*
X44614Y-59478D01*
X44657Y-59635D02*
X44514Y-59635D01*
X44514Y-59335D01*
X44657Y-59335D01*
X44785Y-59635D02*
X44785Y-59335D01*
X44857Y-59335D01*
X44900Y-59350D01*
X44928Y-59378D01*
X44942Y-59407D01*
X44957Y-59464D01*
X44957Y-59507D01*
X44942Y-59564D01*
X44928Y-59592D01*
X44900Y-59621D01*
X44857Y-59635D01*
X44785Y-59635D01*
X45242Y-59635D02*
X45071Y-59635D01*
X45157Y-59635D02*
X45157Y-59335D01*
X45128Y-59378D01*
X45100Y-59407D01*
X45071Y-59421D01*
X44414Y-62635D02*
X44271Y-62635D01*
X44271Y-62335D01*
X44514Y-62478D02*
X44614Y-62478D01*
X44657Y-62635D02*
X44514Y-62635D01*
X44514Y-62335D01*
X44657Y-62335D01*
X44785Y-62635D02*
X44785Y-62335D01*
X44857Y-62335D01*
X44900Y-62350D01*
X44928Y-62378D01*
X44942Y-62407D01*
X44957Y-62464D01*
X44957Y-62507D01*
X44942Y-62564D01*
X44928Y-62592D01*
X44900Y-62621D01*
X44857Y-62635D01*
X44785Y-62635D01*
X45071Y-62364D02*
X45085Y-62350D01*
X45114Y-62335D01*
X45185Y-62335D01*
X45214Y-62350D01*
X45228Y-62364D01*
X45242Y-62392D01*
X45242Y-62421D01*
X45228Y-62464D01*
X45057Y-62635D01*
X45242Y-62635D01*
X44528Y-59885D02*
X44528Y-59585D01*
X44642Y-59585D01*
X44671Y-59600D01*
X44685Y-59614D01*
X44700Y-59642D01*
X44700Y-59685D01*
X44685Y-59714D01*
X44671Y-59728D01*
X44642Y-59742D01*
X44528Y-59742D01*
X44800Y-59585D02*
X45000Y-59585D01*
X44871Y-59885D01*
X48735Y-65650D02*
X48592Y-65750D01*
X48735Y-65821D02*
X48435Y-65821D01*
X48435Y-65707D01*
X48450Y-65678D01*
X48464Y-65664D01*
X48492Y-65650D01*
X48535Y-65650D01*
X48564Y-65664D01*
X48578Y-65678D01*
X48592Y-65707D01*
X48592Y-65821D01*
X48535Y-65392D02*
X48735Y-65392D01*
X48421Y-65464D02*
X48635Y-65535D01*
X48635Y-65350D01*
X48450Y-58385D02*
X48350Y-58242D01*
X48278Y-58385D02*
X48278Y-58085D01*
X48392Y-58085D01*
X48421Y-58100D01*
X48435Y-58114D01*
X48450Y-58142D01*
X48450Y-58185D01*
X48435Y-58214D01*
X48421Y-58228D01*
X48392Y-58242D01*
X48278Y-58242D01*
X48721Y-58085D02*
X48578Y-58085D01*
X48564Y-58228D01*
X48578Y-58214D01*
X48607Y-58200D01*
X48678Y-58200D01*
X48707Y-58214D01*
X48721Y-58228D01*
X48735Y-58257D01*
X48735Y-58328D01*
X48721Y-58357D01*
X48707Y-58371D01*
X48678Y-58385D01*
X48607Y-58385D01*
X48578Y-58371D01*
X48564Y-58357D01*
X38621Y-62728D02*
X38635Y-62685D01*
X38635Y-62614D01*
X38621Y-62585D01*
X38607Y-62571D01*
X38578Y-62557D01*
X38550Y-62557D01*
X38521Y-62571D01*
X38507Y-62585D01*
X38492Y-62614D01*
X38478Y-62671D01*
X38464Y-62700D01*
X38450Y-62714D01*
X38421Y-62728D01*
X38392Y-62728D01*
X38364Y-62714D01*
X38350Y-62700D01*
X38335Y-62671D01*
X38335Y-62600D01*
X38350Y-62557D01*
X38635Y-62271D02*
X38635Y-62442D01*
X38635Y-62357D02*
X38335Y-62357D01*
X38378Y-62385D01*
X38407Y-62414D01*
X38421Y-62442D01*
X47135Y-62792D02*
X46835Y-62792D01*
X47107Y-62478D02*
X47121Y-62492D01*
X47135Y-62535D01*
X47135Y-62564D01*
X47121Y-62607D01*
X47092Y-62635D01*
X47064Y-62649D01*
X47007Y-62664D01*
X46964Y-62664D01*
X46907Y-62649D01*
X46878Y-62635D01*
X46850Y-62607D01*
X46835Y-62564D01*
X46835Y-62535D01*
X46850Y-62492D01*
X46864Y-62478D01*
X46835Y-62378D02*
X46835Y-62192D01*
X46950Y-62292D01*
X46950Y-62249D01*
X46964Y-62221D01*
X46978Y-62207D01*
X47007Y-62192D01*
X47078Y-62192D01*
X47107Y-62207D01*
X47121Y-62221D01*
X47135Y-62249D01*
X47135Y-62335D01*
X47121Y-62364D01*
X47107Y-62378D01*
X47135Y-44792D02*
X46835Y-44792D01*
X47107Y-44478D02*
X47121Y-44492D01*
X47135Y-44535D01*
X47135Y-44564D01*
X47121Y-44607D01*
X47092Y-44635D01*
X47064Y-44649D01*
X47007Y-44664D01*
X46964Y-44664D01*
X46907Y-44649D01*
X46878Y-44635D01*
X46850Y-44607D01*
X46835Y-44564D01*
X46835Y-44535D01*
X46850Y-44492D01*
X46864Y-44478D01*
X46835Y-44378D02*
X46835Y-44192D01*
X46950Y-44292D01*
X46950Y-44249D01*
X46964Y-44221D01*
X46978Y-44207D01*
X47007Y-44192D01*
X47078Y-44192D01*
X47107Y-44207D01*
X47121Y-44221D01*
X47135Y-44249D01*
X47135Y-44335D01*
X47121Y-44364D01*
X47107Y-44378D01*
X38621Y-44728D02*
X38635Y-44685D01*
X38635Y-44614D01*
X38621Y-44585D01*
X38607Y-44571D01*
X38578Y-44557D01*
X38550Y-44557D01*
X38521Y-44571D01*
X38507Y-44585D01*
X38492Y-44614D01*
X38478Y-44671D01*
X38464Y-44700D01*
X38450Y-44714D01*
X38421Y-44728D01*
X38392Y-44728D01*
X38364Y-44714D01*
X38350Y-44700D01*
X38335Y-44671D01*
X38335Y-44600D01*
X38350Y-44557D01*
X38635Y-44271D02*
X38635Y-44442D01*
X38635Y-44357D02*
X38335Y-44357D01*
X38378Y-44385D01*
X38407Y-44414D01*
X38421Y-44442D01*
X48450Y-40385D02*
X48350Y-40242D01*
X48278Y-40385D02*
X48278Y-40085D01*
X48392Y-40085D01*
X48421Y-40100D01*
X48435Y-40114D01*
X48450Y-40142D01*
X48450Y-40185D01*
X48435Y-40214D01*
X48421Y-40228D01*
X48392Y-40242D01*
X48278Y-40242D01*
X48721Y-40085D02*
X48578Y-40085D01*
X48564Y-40228D01*
X48578Y-40214D01*
X48607Y-40200D01*
X48678Y-40200D01*
X48707Y-40214D01*
X48721Y-40228D01*
X48735Y-40257D01*
X48735Y-40328D01*
X48721Y-40357D01*
X48707Y-40371D01*
X48678Y-40385D01*
X48607Y-40385D01*
X48578Y-40371D01*
X48564Y-40357D01*
X48735Y-47650D02*
X48592Y-47750D01*
X48735Y-47821D02*
X48435Y-47821D01*
X48435Y-47707D01*
X48450Y-47678D01*
X48464Y-47664D01*
X48492Y-47650D01*
X48535Y-47650D01*
X48564Y-47664D01*
X48578Y-47678D01*
X48592Y-47707D01*
X48592Y-47821D01*
X48535Y-47392D02*
X48735Y-47392D01*
X48421Y-47464D02*
X48635Y-47535D01*
X48635Y-47350D01*
X44528Y-41885D02*
X44528Y-41585D01*
X44642Y-41585D01*
X44671Y-41600D01*
X44685Y-41614D01*
X44700Y-41642D01*
X44700Y-41685D01*
X44685Y-41714D01*
X44671Y-41728D01*
X44642Y-41742D01*
X44528Y-41742D01*
X44800Y-41585D02*
X45000Y-41585D01*
X44871Y-41885D01*
X44414Y-44635D02*
X44271Y-44635D01*
X44271Y-44335D01*
X44514Y-44478D02*
X44614Y-44478D01*
X44657Y-44635D02*
X44514Y-44635D01*
X44514Y-44335D01*
X44657Y-44335D01*
X44785Y-44635D02*
X44785Y-44335D01*
X44857Y-44335D01*
X44900Y-44350D01*
X44928Y-44378D01*
X44942Y-44407D01*
X44957Y-44464D01*
X44957Y-44507D01*
X44942Y-44564D01*
X44928Y-44592D01*
X44900Y-44621D01*
X44857Y-44635D01*
X44785Y-44635D01*
X45071Y-44364D02*
X45085Y-44350D01*
X45114Y-44335D01*
X45185Y-44335D01*
X45214Y-44350D01*
X45228Y-44364D01*
X45242Y-44392D01*
X45242Y-44421D01*
X45228Y-44464D01*
X45057Y-44635D01*
X45242Y-44635D01*
X44414Y-41635D02*
X44271Y-41635D01*
X44271Y-41335D01*
X44514Y-41478D02*
X44614Y-41478D01*
X44657Y-41635D02*
X44514Y-41635D01*
X44514Y-41335D01*
X44657Y-41335D01*
X44785Y-41635D02*
X44785Y-41335D01*
X44857Y-41335D01*
X44900Y-41350D01*
X44928Y-41378D01*
X44942Y-41407D01*
X44957Y-41464D01*
X44957Y-41507D01*
X44942Y-41564D01*
X44928Y-41592D01*
X44900Y-41621D01*
X44857Y-41635D01*
X44785Y-41635D01*
X45242Y-41635D02*
X45071Y-41635D01*
X45157Y-41635D02*
X45157Y-41335D01*
X45128Y-41378D01*
X45100Y-41407D01*
X45071Y-41421D01*
X44650Y-49085D02*
X44650Y-49300D01*
X44635Y-49342D01*
X44607Y-49371D01*
X44564Y-49385D01*
X44535Y-49385D01*
X44778Y-49114D02*
X44792Y-49100D01*
X44821Y-49085D01*
X44892Y-49085D01*
X44921Y-49100D01*
X44935Y-49114D01*
X44950Y-49142D01*
X44950Y-49171D01*
X44935Y-49214D01*
X44764Y-49385D01*
X44950Y-49385D01*
X40807Y-47857D02*
X40792Y-47871D01*
X40750Y-47885D01*
X40721Y-47885D01*
X40678Y-47871D01*
X40650Y-47842D01*
X40635Y-47814D01*
X40621Y-47757D01*
X40621Y-47714D01*
X40635Y-47657D01*
X40650Y-47628D01*
X40678Y-47600D01*
X40721Y-47585D01*
X40750Y-47585D01*
X40792Y-47600D01*
X40807Y-47614D01*
X41092Y-47885D02*
X40921Y-47885D01*
X41007Y-47885D02*
X41007Y-47585D01*
X40978Y-47628D01*
X40950Y-47657D01*
X40921Y-47671D01*
X41378Y-47885D02*
X41207Y-47885D01*
X41292Y-47885D02*
X41292Y-47585D01*
X41264Y-47628D01*
X41235Y-47657D01*
X41207Y-47671D01*
X49357Y-47792D02*
X49371Y-47807D01*
X49385Y-47850D01*
X49385Y-47878D01*
X49371Y-47921D01*
X49342Y-47950D01*
X49314Y-47964D01*
X49257Y-47978D01*
X49214Y-47978D01*
X49157Y-47964D01*
X49128Y-47950D01*
X49100Y-47921D01*
X49085Y-47878D01*
X49085Y-47850D01*
X49100Y-47807D01*
X49114Y-47792D01*
X49385Y-47507D02*
X49385Y-47678D01*
X49385Y-47592D02*
X49085Y-47592D01*
X49128Y-47621D01*
X49157Y-47650D01*
X49171Y-47678D01*
X49085Y-47321D02*
X49085Y-47292D01*
X49100Y-47264D01*
X49114Y-47250D01*
X49142Y-47235D01*
X49200Y-47221D01*
X49271Y-47221D01*
X49328Y-47235D01*
X49357Y-47250D01*
X49371Y-47264D01*
X49385Y-47292D01*
X49385Y-47321D01*
X49371Y-47350D01*
X49357Y-47364D01*
X49328Y-47378D01*
X49271Y-47392D01*
X49200Y-47392D01*
X49142Y-47378D01*
X49114Y-47364D01*
X49100Y-47350D01*
X49085Y-47321D01*
X35450Y-35607D02*
X35435Y-35621D01*
X35392Y-35635D01*
X35364Y-35635D01*
X35321Y-35621D01*
X35292Y-35592D01*
X35278Y-35564D01*
X35264Y-35507D01*
X35264Y-35464D01*
X35278Y-35407D01*
X35292Y-35378D01*
X35321Y-35350D01*
X35364Y-35335D01*
X35392Y-35335D01*
X35435Y-35350D01*
X35450Y-35364D01*
X35735Y-35635D02*
X35564Y-35635D01*
X35650Y-35635D02*
X35650Y-35335D01*
X35621Y-35378D01*
X35592Y-35407D01*
X35564Y-35421D01*
X39950Y-35857D02*
X39935Y-35871D01*
X39892Y-35885D01*
X39864Y-35885D01*
X39821Y-35871D01*
X39792Y-35842D01*
X39778Y-35814D01*
X39764Y-35757D01*
X39764Y-35714D01*
X39778Y-35657D01*
X39792Y-35628D01*
X39821Y-35600D01*
X39864Y-35585D01*
X39892Y-35585D01*
X39935Y-35600D01*
X39950Y-35614D01*
X40064Y-35614D02*
X40078Y-35600D01*
X40107Y-35585D01*
X40178Y-35585D01*
X40207Y-35600D01*
X40221Y-35614D01*
X40235Y-35642D01*
X40235Y-35671D01*
X40221Y-35714D01*
X40050Y-35885D01*
X40235Y-35885D01*
X38950Y-35857D02*
X38935Y-35871D01*
X38892Y-35885D01*
X38864Y-35885D01*
X38821Y-35871D01*
X38792Y-35842D01*
X38778Y-35814D01*
X38764Y-35757D01*
X38764Y-35714D01*
X38778Y-35657D01*
X38792Y-35628D01*
X38821Y-35600D01*
X38864Y-35585D01*
X38892Y-35585D01*
X38935Y-35600D01*
X38950Y-35614D01*
X39050Y-35585D02*
X39235Y-35585D01*
X39135Y-35700D01*
X39178Y-35700D01*
X39207Y-35714D01*
X39221Y-35728D01*
X39235Y-35757D01*
X39235Y-35828D01*
X39221Y-35857D01*
X39207Y-35871D01*
X39178Y-35885D01*
X39092Y-35885D01*
X39064Y-35871D01*
X39050Y-35857D01*
X35450Y-34607D02*
X35435Y-34621D01*
X35392Y-34635D01*
X35364Y-34635D01*
X35321Y-34621D01*
X35292Y-34592D01*
X35278Y-34564D01*
X35264Y-34507D01*
X35264Y-34464D01*
X35278Y-34407D01*
X35292Y-34378D01*
X35321Y-34350D01*
X35364Y-34335D01*
X35392Y-34335D01*
X35435Y-34350D01*
X35450Y-34364D01*
X35707Y-34435D02*
X35707Y-34635D01*
X35635Y-34321D02*
X35564Y-34535D01*
X35750Y-34535D01*
X42540Y-32111D02*
X42540Y-32131D01*
X42520Y-32171D01*
X42500Y-32191D01*
X42459Y-32212D01*
X42419Y-32212D01*
X42388Y-32202D01*
X42338Y-32171D01*
X42308Y-32141D01*
X42277Y-32090D01*
X42267Y-32060D01*
X42267Y-32020D01*
X42287Y-31979D01*
X42308Y-31959D01*
X42348Y-31939D01*
X42368Y-31939D01*
X42540Y-31727D02*
X42439Y-31828D01*
X42530Y-31939D01*
X42530Y-31919D01*
X42540Y-31888D01*
X42590Y-31838D01*
X42621Y-31828D01*
X42641Y-31828D01*
X42671Y-31838D01*
X42722Y-31888D01*
X42732Y-31919D01*
X42732Y-31939D01*
X42722Y-31969D01*
X42671Y-32020D01*
X42641Y-32030D01*
X42621Y-32030D01*
X41040Y-31111D02*
X41040Y-31131D01*
X41020Y-31171D01*
X41000Y-31191D01*
X40959Y-31212D01*
X40919Y-31212D01*
X40888Y-31202D01*
X40838Y-31171D01*
X40808Y-31141D01*
X40777Y-31090D01*
X40767Y-31060D01*
X40767Y-31020D01*
X40787Y-30979D01*
X40808Y-30959D01*
X40848Y-30939D01*
X40868Y-30939D01*
X41030Y-30737D02*
X40989Y-30777D01*
X40979Y-30808D01*
X40979Y-30828D01*
X40989Y-30878D01*
X41020Y-30929D01*
X41101Y-31010D01*
X41131Y-31020D01*
X41151Y-31020D01*
X41181Y-31010D01*
X41222Y-30969D01*
X41232Y-30939D01*
X41232Y-30919D01*
X41222Y-30888D01*
X41171Y-30838D01*
X41141Y-30828D01*
X41121Y-30828D01*
X41090Y-30838D01*
X41050Y-30878D01*
X41040Y-30909D01*
X41040Y-30929D01*
X41050Y-30959D01*
X34950Y-39607D02*
X34935Y-39621D01*
X34892Y-39635D01*
X34864Y-39635D01*
X34821Y-39621D01*
X34792Y-39592D01*
X34778Y-39564D01*
X34764Y-39507D01*
X34764Y-39464D01*
X34778Y-39407D01*
X34792Y-39378D01*
X34821Y-39350D01*
X34864Y-39335D01*
X34892Y-39335D01*
X34935Y-39350D01*
X34950Y-39364D01*
X35050Y-39335D02*
X35250Y-39335D01*
X35121Y-39635D01*
X33450Y-34357D02*
X33435Y-34371D01*
X33392Y-34385D01*
X33364Y-34385D01*
X33321Y-34371D01*
X33292Y-34342D01*
X33278Y-34314D01*
X33264Y-34257D01*
X33264Y-34214D01*
X33278Y-34157D01*
X33292Y-34128D01*
X33321Y-34100D01*
X33364Y-34085D01*
X33392Y-34085D01*
X33435Y-34100D01*
X33450Y-34114D01*
X33621Y-34214D02*
X33592Y-34200D01*
X33578Y-34185D01*
X33564Y-34157D01*
X33564Y-34142D01*
X33578Y-34114D01*
X33592Y-34100D01*
X33621Y-34085D01*
X33678Y-34085D01*
X33707Y-34100D01*
X33721Y-34114D01*
X33735Y-34142D01*
X33735Y-34157D01*
X33721Y-34185D01*
X33707Y-34200D01*
X33678Y-34214D01*
X33621Y-34214D01*
X33592Y-34228D01*
X33578Y-34242D01*
X33564Y-34271D01*
X33564Y-34328D01*
X33578Y-34357D01*
X33592Y-34371D01*
X33621Y-34385D01*
X33678Y-34385D01*
X33707Y-34371D01*
X33721Y-34357D01*
X33735Y-34328D01*
X33735Y-34271D01*
X33721Y-34242D01*
X33707Y-34228D01*
X33678Y-34214D01*
X38357Y-26550D02*
X38371Y-26564D01*
X38385Y-26607D01*
X38385Y-26635D01*
X38371Y-26678D01*
X38342Y-26707D01*
X38314Y-26721D01*
X38257Y-26735D01*
X38214Y-26735D01*
X38157Y-26721D01*
X38128Y-26707D01*
X38100Y-26678D01*
X38085Y-26635D01*
X38085Y-26607D01*
X38100Y-26564D01*
X38114Y-26550D01*
X38385Y-26407D02*
X38385Y-26350D01*
X38371Y-26321D01*
X38357Y-26307D01*
X38314Y-26278D01*
X38257Y-26264D01*
X38142Y-26264D01*
X38114Y-26278D01*
X38100Y-26292D01*
X38085Y-26321D01*
X38085Y-26378D01*
X38100Y-26407D01*
X38114Y-26421D01*
X38142Y-26435D01*
X38214Y-26435D01*
X38242Y-26421D01*
X38257Y-26407D01*
X38271Y-26378D01*
X38271Y-26321D01*
X38257Y-26292D01*
X38242Y-26278D01*
X38214Y-26264D01*
X38857Y-47792D02*
X38871Y-47807D01*
X38885Y-47850D01*
X38885Y-47878D01*
X38871Y-47921D01*
X38842Y-47950D01*
X38814Y-47964D01*
X38757Y-47978D01*
X38714Y-47978D01*
X38657Y-47964D01*
X38628Y-47950D01*
X38600Y-47921D01*
X38585Y-47878D01*
X38585Y-47850D01*
X38600Y-47807D01*
X38614Y-47792D01*
X38885Y-47507D02*
X38885Y-47678D01*
X38885Y-47592D02*
X38585Y-47592D01*
X38628Y-47621D01*
X38657Y-47650D01*
X38671Y-47678D01*
X38585Y-47321D02*
X38585Y-47292D01*
X38600Y-47264D01*
X38614Y-47250D01*
X38642Y-47235D01*
X38700Y-47221D01*
X38771Y-47221D01*
X38828Y-47235D01*
X38857Y-47250D01*
X38871Y-47264D01*
X38885Y-47292D01*
X38885Y-47321D01*
X38871Y-47350D01*
X38857Y-47364D01*
X38828Y-47378D01*
X38771Y-47392D01*
X38700Y-47392D01*
X38642Y-47378D01*
X38614Y-47364D01*
X38600Y-47350D01*
X38585Y-47321D01*
X30307Y-47857D02*
X30292Y-47871D01*
X30250Y-47885D01*
X30221Y-47885D01*
X30178Y-47871D01*
X30150Y-47842D01*
X30135Y-47814D01*
X30121Y-47757D01*
X30121Y-47714D01*
X30135Y-47657D01*
X30150Y-47628D01*
X30178Y-47600D01*
X30221Y-47585D01*
X30250Y-47585D01*
X30292Y-47600D01*
X30307Y-47614D01*
X30592Y-47885D02*
X30421Y-47885D01*
X30507Y-47885D02*
X30507Y-47585D01*
X30478Y-47628D01*
X30450Y-47657D01*
X30421Y-47671D01*
X30878Y-47885D02*
X30707Y-47885D01*
X30792Y-47885D02*
X30792Y-47585D01*
X30764Y-47628D01*
X30735Y-47657D01*
X30707Y-47671D01*
X36638Y-33303D02*
X36426Y-33090D01*
X36840Y-33060D02*
X36840Y-33080D01*
X36820Y-33121D01*
X36800Y-33141D01*
X36760Y-33161D01*
X36719Y-33161D01*
X36689Y-33151D01*
X36638Y-33121D01*
X36608Y-33090D01*
X36578Y-33040D01*
X36568Y-33010D01*
X36568Y-32969D01*
X36588Y-32929D01*
X36608Y-32909D01*
X36648Y-32888D01*
X36669Y-32888D01*
X37063Y-32878D02*
X36941Y-32999D01*
X37002Y-32939D02*
X36790Y-32727D01*
X36800Y-32777D01*
X36800Y-32818D01*
X36790Y-32848D01*
X33207Y-36385D02*
X33207Y-36085D01*
X33521Y-36357D02*
X33507Y-36371D01*
X33464Y-36385D01*
X33435Y-36385D01*
X33392Y-36371D01*
X33364Y-36342D01*
X33350Y-36314D01*
X33335Y-36257D01*
X33335Y-36214D01*
X33350Y-36157D01*
X33364Y-36128D01*
X33392Y-36100D01*
X33435Y-36085D01*
X33464Y-36085D01*
X33507Y-36100D01*
X33521Y-36114D01*
X33635Y-36114D02*
X33650Y-36100D01*
X33678Y-36085D01*
X33750Y-36085D01*
X33778Y-36100D01*
X33792Y-36114D01*
X33807Y-36142D01*
X33807Y-36171D01*
X33792Y-36214D01*
X33621Y-36385D01*
X33807Y-36385D01*
X46400Y-39335D02*
X46400Y-39550D01*
X46385Y-39592D01*
X46357Y-39621D01*
X46314Y-39635D01*
X46285Y-39635D01*
X46700Y-39635D02*
X46528Y-39635D01*
X46614Y-39635D02*
X46614Y-39335D01*
X46585Y-39378D01*
X46557Y-39407D01*
X46528Y-39421D01*
X34150Y-49085D02*
X34150Y-49300D01*
X34135Y-49342D01*
X34107Y-49371D01*
X34064Y-49385D01*
X34035Y-49385D01*
X34278Y-49114D02*
X34292Y-49100D01*
X34321Y-49085D01*
X34392Y-49085D01*
X34421Y-49100D01*
X34435Y-49114D01*
X34450Y-49142D01*
X34450Y-49171D01*
X34435Y-49214D01*
X34264Y-49385D01*
X34450Y-49385D01*
X33914Y-41635D02*
X33771Y-41635D01*
X33771Y-41335D01*
X34014Y-41478D02*
X34114Y-41478D01*
X34157Y-41635D02*
X34014Y-41635D01*
X34014Y-41335D01*
X34157Y-41335D01*
X34285Y-41635D02*
X34285Y-41335D01*
X34357Y-41335D01*
X34400Y-41350D01*
X34428Y-41378D01*
X34442Y-41407D01*
X34457Y-41464D01*
X34457Y-41507D01*
X34442Y-41564D01*
X34428Y-41592D01*
X34400Y-41621D01*
X34357Y-41635D01*
X34285Y-41635D01*
X34742Y-41635D02*
X34571Y-41635D01*
X34657Y-41635D02*
X34657Y-41335D01*
X34628Y-41378D01*
X34600Y-41407D01*
X34571Y-41421D01*
X33914Y-44635D02*
X33771Y-44635D01*
X33771Y-44335D01*
X34014Y-44478D02*
X34114Y-44478D01*
X34157Y-44635D02*
X34014Y-44635D01*
X34014Y-44335D01*
X34157Y-44335D01*
X34285Y-44635D02*
X34285Y-44335D01*
X34357Y-44335D01*
X34400Y-44350D01*
X34428Y-44378D01*
X34442Y-44407D01*
X34457Y-44464D01*
X34457Y-44507D01*
X34442Y-44564D01*
X34428Y-44592D01*
X34400Y-44621D01*
X34357Y-44635D01*
X34285Y-44635D01*
X34571Y-44364D02*
X34585Y-44350D01*
X34614Y-44335D01*
X34685Y-44335D01*
X34714Y-44350D01*
X34728Y-44364D01*
X34742Y-44392D01*
X34742Y-44421D01*
X34728Y-44464D01*
X34557Y-44635D01*
X34742Y-44635D01*
X43664Y-34885D02*
X43521Y-34885D01*
X43521Y-34585D01*
X43764Y-34728D02*
X43864Y-34728D01*
X43907Y-34885D02*
X43764Y-34885D01*
X43764Y-34585D01*
X43907Y-34585D01*
X44035Y-34885D02*
X44035Y-34585D01*
X44107Y-34585D01*
X44150Y-34600D01*
X44178Y-34628D01*
X44192Y-34657D01*
X44207Y-34714D01*
X44207Y-34757D01*
X44192Y-34814D01*
X44178Y-34842D01*
X44150Y-34871D01*
X44107Y-34885D01*
X44035Y-34885D01*
X44307Y-34585D02*
X44492Y-34585D01*
X44392Y-34700D01*
X44435Y-34700D01*
X44464Y-34714D01*
X44478Y-34728D01*
X44492Y-34757D01*
X44492Y-34828D01*
X44478Y-34857D01*
X44464Y-34871D01*
X44435Y-34885D01*
X44350Y-34885D01*
X44321Y-34871D01*
X44307Y-34857D01*
X46914Y-36885D02*
X46771Y-36885D01*
X46771Y-36585D01*
X47014Y-36728D02*
X47114Y-36728D01*
X47157Y-36885D02*
X47014Y-36885D01*
X47014Y-36585D01*
X47157Y-36585D01*
X47285Y-36885D02*
X47285Y-36585D01*
X47357Y-36585D01*
X47400Y-36600D01*
X47428Y-36628D01*
X47442Y-36657D01*
X47457Y-36714D01*
X47457Y-36757D01*
X47442Y-36814D01*
X47428Y-36842D01*
X47400Y-36871D01*
X47357Y-36885D01*
X47285Y-36885D01*
X47714Y-36685D02*
X47714Y-36885D01*
X47642Y-36571D02*
X47571Y-36785D01*
X47757Y-36785D01*
X30278Y-38885D02*
X30278Y-38585D01*
X30392Y-38585D01*
X30421Y-38600D01*
X30435Y-38614D01*
X30450Y-38642D01*
X30450Y-38685D01*
X30435Y-38714D01*
X30421Y-38728D01*
X30392Y-38742D01*
X30278Y-38742D01*
X30735Y-38885D02*
X30564Y-38885D01*
X30650Y-38885D02*
X30650Y-38585D01*
X30621Y-38628D01*
X30592Y-38657D01*
X30564Y-38671D01*
X44778Y-39135D02*
X44778Y-38835D01*
X44892Y-38835D01*
X44921Y-38850D01*
X44935Y-38864D01*
X44950Y-38892D01*
X44950Y-38935D01*
X44935Y-38964D01*
X44921Y-38978D01*
X44892Y-38992D01*
X44778Y-38992D01*
X45064Y-38864D02*
X45078Y-38850D01*
X45107Y-38835D01*
X45178Y-38835D01*
X45207Y-38850D01*
X45221Y-38864D01*
X45235Y-38892D01*
X45235Y-38921D01*
X45221Y-38964D01*
X45050Y-39135D01*
X45235Y-39135D01*
X39635Y-22971D02*
X39335Y-22971D01*
X39335Y-22857D01*
X39350Y-22828D01*
X39364Y-22814D01*
X39392Y-22800D01*
X39435Y-22800D01*
X39464Y-22814D01*
X39478Y-22828D01*
X39492Y-22857D01*
X39492Y-22971D01*
X39335Y-22700D02*
X39335Y-22514D01*
X39450Y-22614D01*
X39450Y-22571D01*
X39464Y-22542D01*
X39478Y-22528D01*
X39507Y-22514D01*
X39578Y-22514D01*
X39607Y-22528D01*
X39621Y-22542D01*
X39635Y-22571D01*
X39635Y-22657D01*
X39621Y-22685D01*
X39607Y-22700D01*
X39278Y-40385D02*
X39278Y-40085D01*
X39392Y-40085D01*
X39421Y-40100D01*
X39435Y-40114D01*
X39450Y-40142D01*
X39450Y-40185D01*
X39435Y-40214D01*
X39421Y-40228D01*
X39392Y-40242D01*
X39278Y-40242D01*
X39707Y-40185D02*
X39707Y-40385D01*
X39635Y-40071D02*
X39564Y-40285D01*
X39750Y-40285D01*
X34040Y-31039D02*
X33780Y-30889D01*
X33838Y-30790D01*
X33864Y-30773D01*
X33884Y-30767D01*
X33916Y-30769D01*
X33953Y-30791D01*
X33970Y-30817D01*
X33976Y-30837D01*
X33974Y-30869D01*
X33917Y-30968D01*
X34002Y-30506D02*
X33930Y-30629D01*
X34047Y-30713D01*
X34042Y-30694D01*
X34044Y-30662D01*
X34079Y-30600D01*
X34106Y-30582D01*
X34126Y-30577D01*
X34158Y-30579D01*
X34219Y-30615D01*
X34237Y-30641D01*
X34242Y-30661D01*
X34240Y-30693D01*
X34205Y-30755D01*
X34178Y-30772D01*
X34158Y-30777D01*
X44737Y-30656D02*
X44997Y-30506D01*
X45054Y-30605D01*
X45056Y-30636D01*
X45051Y-30656D01*
X45033Y-30683D01*
X44996Y-30704D01*
X44964Y-30706D01*
X44945Y-30701D01*
X44918Y-30683D01*
X44861Y-30584D01*
X45211Y-30877D02*
X45183Y-30827D01*
X45156Y-30810D01*
X45137Y-30804D01*
X45085Y-30801D01*
X45029Y-30817D01*
X44930Y-30874D01*
X44912Y-30901D01*
X44907Y-30921D01*
X44909Y-30953D01*
X44937Y-31002D01*
X44964Y-31020D01*
X44983Y-31025D01*
X45015Y-31023D01*
X45077Y-30987D01*
X45095Y-30961D01*
X45100Y-30941D01*
X45098Y-30909D01*
X45070Y-30860D01*
X45043Y-30842D01*
X45023Y-30837D01*
X44991Y-30839D01*
X34028Y-41885D02*
X34028Y-41585D01*
X34142Y-41585D01*
X34171Y-41600D01*
X34185Y-41614D01*
X34200Y-41642D01*
X34200Y-41685D01*
X34185Y-41714D01*
X34171Y-41728D01*
X34142Y-41742D01*
X34028Y-41742D01*
X34300Y-41585D02*
X34500Y-41585D01*
X34371Y-41885D01*
X36450Y-31385D02*
X36350Y-31242D01*
X36278Y-31385D02*
X36278Y-31085D01*
X36392Y-31085D01*
X36421Y-31100D01*
X36435Y-31114D01*
X36450Y-31142D01*
X36450Y-31185D01*
X36435Y-31214D01*
X36421Y-31228D01*
X36392Y-31242D01*
X36278Y-31242D01*
X36735Y-31385D02*
X36564Y-31385D01*
X36650Y-31385D02*
X36650Y-31085D01*
X36621Y-31128D01*
X36592Y-31157D01*
X36564Y-31171D01*
X37200Y-30635D02*
X37100Y-30492D01*
X37028Y-30635D02*
X37028Y-30335D01*
X37142Y-30335D01*
X37171Y-30350D01*
X37185Y-30364D01*
X37200Y-30392D01*
X37200Y-30435D01*
X37185Y-30464D01*
X37171Y-30478D01*
X37142Y-30492D01*
X37028Y-30492D01*
X37314Y-30364D02*
X37328Y-30350D01*
X37357Y-30335D01*
X37428Y-30335D01*
X37457Y-30350D01*
X37471Y-30364D01*
X37485Y-30392D01*
X37485Y-30421D01*
X37471Y-30464D01*
X37300Y-30635D01*
X37485Y-30635D01*
X38200Y-29885D02*
X38100Y-29742D01*
X38028Y-29885D02*
X38028Y-29585D01*
X38142Y-29585D01*
X38171Y-29600D01*
X38185Y-29614D01*
X38200Y-29642D01*
X38200Y-29685D01*
X38185Y-29714D01*
X38171Y-29728D01*
X38142Y-29742D01*
X38028Y-29742D01*
X38300Y-29585D02*
X38485Y-29585D01*
X38385Y-29700D01*
X38428Y-29700D01*
X38457Y-29714D01*
X38471Y-29728D01*
X38485Y-29757D01*
X38485Y-29828D01*
X38471Y-29857D01*
X38457Y-29871D01*
X38428Y-29885D01*
X38342Y-29885D01*
X38314Y-29871D01*
X38300Y-29857D01*
X38235Y-47650D02*
X38092Y-47750D01*
X38235Y-47821D02*
X37935Y-47821D01*
X37935Y-47707D01*
X37950Y-47678D01*
X37964Y-47664D01*
X37992Y-47650D01*
X38035Y-47650D01*
X38064Y-47664D01*
X38078Y-47678D01*
X38092Y-47707D01*
X38092Y-47821D01*
X38035Y-47392D02*
X38235Y-47392D01*
X37921Y-47464D02*
X38135Y-47535D01*
X38135Y-47350D01*
X37950Y-40385D02*
X37850Y-40242D01*
X37778Y-40385D02*
X37778Y-40085D01*
X37892Y-40085D01*
X37921Y-40100D01*
X37935Y-40114D01*
X37950Y-40142D01*
X37950Y-40185D01*
X37935Y-40214D01*
X37921Y-40228D01*
X37892Y-40242D01*
X37778Y-40242D01*
X38221Y-40085D02*
X38078Y-40085D01*
X38064Y-40228D01*
X38078Y-40214D01*
X38107Y-40200D01*
X38178Y-40200D01*
X38207Y-40214D01*
X38221Y-40228D01*
X38235Y-40257D01*
X38235Y-40328D01*
X38221Y-40357D01*
X38207Y-40371D01*
X38178Y-40385D01*
X38107Y-40385D01*
X38078Y-40371D01*
X38064Y-40357D01*
X41700Y-34885D02*
X41600Y-34742D01*
X41528Y-34885D02*
X41528Y-34585D01*
X41642Y-34585D01*
X41671Y-34600D01*
X41685Y-34614D01*
X41700Y-34642D01*
X41700Y-34685D01*
X41685Y-34714D01*
X41671Y-34728D01*
X41642Y-34742D01*
X41528Y-34742D01*
X41957Y-34585D02*
X41900Y-34585D01*
X41871Y-34600D01*
X41857Y-34614D01*
X41828Y-34657D01*
X41814Y-34714D01*
X41814Y-34828D01*
X41828Y-34857D01*
X41842Y-34871D01*
X41871Y-34885D01*
X41928Y-34885D01*
X41957Y-34871D01*
X41971Y-34857D01*
X41985Y-34828D01*
X41985Y-34757D01*
X41971Y-34728D01*
X41957Y-34714D01*
X41928Y-34700D01*
X41871Y-34700D01*
X41842Y-34714D01*
X41828Y-34728D01*
X41814Y-34757D01*
X48450Y-38385D02*
X48350Y-38242D01*
X48278Y-38385D02*
X48278Y-38085D01*
X48392Y-38085D01*
X48421Y-38100D01*
X48435Y-38114D01*
X48450Y-38142D01*
X48450Y-38185D01*
X48435Y-38214D01*
X48421Y-38228D01*
X48392Y-38242D01*
X48278Y-38242D01*
X48550Y-38085D02*
X48750Y-38085D01*
X48621Y-38385D01*
X28121Y-44728D02*
X28135Y-44685D01*
X28135Y-44614D01*
X28121Y-44585D01*
X28107Y-44571D01*
X28078Y-44557D01*
X28050Y-44557D01*
X28021Y-44571D01*
X28007Y-44585D01*
X27992Y-44614D01*
X27978Y-44671D01*
X27964Y-44700D01*
X27950Y-44714D01*
X27921Y-44728D01*
X27892Y-44728D01*
X27864Y-44714D01*
X27850Y-44700D01*
X27835Y-44671D01*
X27835Y-44600D01*
X27850Y-44557D01*
X28135Y-44271D02*
X28135Y-44442D01*
X28135Y-44357D02*
X27835Y-44357D01*
X27878Y-44385D01*
X27907Y-44414D01*
X27921Y-44442D01*
X39357Y-37242D02*
X39357Y-37385D01*
X39257Y-37085D02*
X39357Y-37242D01*
X39457Y-37085D01*
X39714Y-37385D02*
X39542Y-37385D01*
X39628Y-37385D02*
X39628Y-37085D01*
X39600Y-37128D01*
X39571Y-37157D01*
X39542Y-37171D01*
X36635Y-44792D02*
X36335Y-44792D01*
X36607Y-44478D02*
X36621Y-44492D01*
X36635Y-44535D01*
X36635Y-44564D01*
X36621Y-44607D01*
X36592Y-44635D01*
X36564Y-44649D01*
X36507Y-44664D01*
X36464Y-44664D01*
X36407Y-44649D01*
X36378Y-44635D01*
X36350Y-44607D01*
X36335Y-44564D01*
X36335Y-44535D01*
X36350Y-44492D01*
X36364Y-44478D01*
X36335Y-44378D02*
X36335Y-44192D01*
X36450Y-44292D01*
X36450Y-44249D01*
X36464Y-44221D01*
X36478Y-44207D01*
X36507Y-44192D01*
X36578Y-44192D01*
X36607Y-44207D01*
X36621Y-44221D01*
X36635Y-44249D01*
X36635Y-44335D01*
X36621Y-44364D01*
X36607Y-44378D01*
X40635Y-24721D02*
X40335Y-24721D01*
X40335Y-24607D01*
X40350Y-24578D01*
X40364Y-24564D01*
X40392Y-24550D01*
X40435Y-24550D01*
X40464Y-24564D01*
X40478Y-24578D01*
X40492Y-24607D01*
X40492Y-24721D01*
X40464Y-24378D02*
X40450Y-24407D01*
X40435Y-24421D01*
X40407Y-24435D01*
X40392Y-24435D01*
X40364Y-24421D01*
X40350Y-24407D01*
X40335Y-24378D01*
X40335Y-24321D01*
X40350Y-24292D01*
X40364Y-24278D01*
X40392Y-24264D01*
X40407Y-24264D01*
X40435Y-24278D01*
X40450Y-24292D01*
X40464Y-24321D01*
X40464Y-24378D01*
X40478Y-24407D01*
X40492Y-24421D01*
X40521Y-24435D01*
X40578Y-24435D01*
X40607Y-24421D01*
X40621Y-24407D01*
X40635Y-24378D01*
X40635Y-24321D01*
X40621Y-24292D01*
X40607Y-24278D01*
X40578Y-24264D01*
X40521Y-24264D01*
X40492Y-24278D01*
X40478Y-24292D01*
X40464Y-24321D01*
%LPC*%
G54D15*
X30000Y-50000D03*
X38500Y-57000D03*
G54D16*
X38750Y-52437D03*
X38250Y-52437D03*
X37750Y-52437D03*
X37250Y-52437D03*
X37250Y-54562D03*
X37750Y-54562D03*
X38250Y-54562D03*
X38750Y-54562D03*
G54D17*
X30000Y-54838D03*
X30000Y-52161D03*
G54D18*
X31082Y-52515D03*
X31082Y-53500D03*
X31082Y-54484D03*
G54D19*
X38275Y-49750D03*
X37724Y-49750D03*
X38100Y-55324D03*
X38100Y-55875D03*
G54D20*
X32250Y-49750D03*
G54D21*
X33250Y-49750D03*
X34250Y-49750D03*
X36250Y-49750D03*
X35250Y-49750D03*
G54D22*
X35333Y-55778D03*
G54D23*
X35333Y-55000D03*
G54D22*
X35333Y-54222D03*
X33167Y-54222D03*
G54D23*
X33167Y-55000D03*
G54D22*
X33167Y-55778D03*
X35333Y-52778D03*
G54D23*
X35333Y-52000D03*
G54D22*
X35333Y-51222D03*
X33167Y-51222D03*
G54D23*
X33167Y-52000D03*
G54D22*
X33167Y-52778D03*
G54D20*
X32250Y-57250D03*
G54D21*
X33250Y-57250D03*
X34250Y-57250D03*
X36250Y-57250D03*
X35250Y-57250D03*
G54D19*
X30775Y-57250D03*
X30224Y-57250D03*
X38750Y-55875D03*
X38750Y-55324D03*
X49250Y-55875D03*
X49250Y-55324D03*
X41275Y-57250D03*
X40724Y-57250D03*
G54D20*
X42750Y-57250D03*
G54D21*
X43750Y-57250D03*
X44750Y-57250D03*
X46750Y-57250D03*
X45750Y-57250D03*
G54D22*
X45833Y-52778D03*
G54D23*
X45833Y-52000D03*
G54D22*
X45833Y-51222D03*
X43667Y-51222D03*
G54D23*
X43667Y-52000D03*
G54D22*
X43667Y-52778D03*
X45833Y-55778D03*
G54D23*
X45833Y-55000D03*
G54D22*
X45833Y-54222D03*
X43667Y-54222D03*
G54D23*
X43667Y-55000D03*
G54D22*
X43667Y-55778D03*
G54D20*
X42750Y-49750D03*
G54D21*
X43750Y-49750D03*
X44750Y-49750D03*
X46750Y-49750D03*
X45750Y-49750D03*
G54D19*
X48600Y-55324D03*
X48600Y-55875D03*
X48775Y-49750D03*
X48224Y-49750D03*
G54D17*
X40500Y-54838D03*
X40500Y-52161D03*
G54D18*
X41582Y-52515D03*
X41582Y-53500D03*
X41582Y-54484D03*
G54D16*
X49250Y-52437D03*
X48750Y-52437D03*
X48250Y-52437D03*
X47750Y-52437D03*
X47750Y-54562D03*
X48250Y-54562D03*
X48750Y-54562D03*
X49250Y-54562D03*
G54D15*
X49000Y-57000D03*
X40500Y-50000D03*
X30000Y-59000D03*
X38500Y-66000D03*
G54D16*
X38750Y-61437D03*
X38250Y-61437D03*
X37750Y-61437D03*
X37250Y-61437D03*
X37250Y-63562D03*
X37750Y-63562D03*
X38250Y-63562D03*
X38750Y-63562D03*
G54D17*
X30000Y-63838D03*
X30000Y-61161D03*
G54D18*
X31082Y-61515D03*
X31082Y-62500D03*
X31082Y-63484D03*
G54D19*
X38275Y-58750D03*
X37724Y-58750D03*
X38100Y-64324D03*
X38100Y-64875D03*
G54D20*
X32250Y-58750D03*
G54D21*
X33250Y-58750D03*
X34250Y-58750D03*
X36250Y-58750D03*
X35250Y-58750D03*
G54D22*
X35333Y-64778D03*
G54D23*
X35333Y-64000D03*
G54D22*
X35333Y-63222D03*
X33167Y-63222D03*
G54D23*
X33167Y-64000D03*
G54D22*
X33167Y-64778D03*
X35333Y-61778D03*
G54D23*
X35333Y-61000D03*
G54D22*
X35333Y-60222D03*
X33167Y-60222D03*
G54D23*
X33167Y-61000D03*
G54D22*
X33167Y-61778D03*
G54D20*
X32250Y-66250D03*
G54D21*
X33250Y-66250D03*
X34250Y-66250D03*
X36250Y-66250D03*
X35250Y-66250D03*
G54D19*
X30775Y-66250D03*
X30224Y-66250D03*
X38750Y-64875D03*
X38750Y-64324D03*
X49250Y-64875D03*
X49250Y-64324D03*
X41275Y-66250D03*
X40724Y-66250D03*
G54D20*
X42750Y-66250D03*
G54D21*
X43750Y-66250D03*
X44750Y-66250D03*
X46750Y-66250D03*
X45750Y-66250D03*
G54D22*
X45833Y-61778D03*
G54D23*
X45833Y-61000D03*
G54D22*
X45833Y-60222D03*
X43667Y-60222D03*
G54D23*
X43667Y-61000D03*
G54D22*
X43667Y-61778D03*
X45833Y-64778D03*
G54D23*
X45833Y-64000D03*
G54D22*
X45833Y-63222D03*
X43667Y-63222D03*
G54D23*
X43667Y-64000D03*
G54D22*
X43667Y-64778D03*
G54D20*
X42750Y-58750D03*
G54D21*
X43750Y-58750D03*
X44750Y-58750D03*
X46750Y-58750D03*
X45750Y-58750D03*
G54D19*
X48600Y-64324D03*
X48600Y-64875D03*
X48775Y-58750D03*
X48224Y-58750D03*
G54D17*
X40500Y-63838D03*
X40500Y-61161D03*
G54D18*
X41582Y-61515D03*
X41582Y-62500D03*
X41582Y-63484D03*
G54D16*
X49250Y-61437D03*
X48750Y-61437D03*
X48250Y-61437D03*
X47750Y-61437D03*
X47750Y-63562D03*
X48250Y-63562D03*
X48750Y-63562D03*
X49250Y-63562D03*
G54D15*
X49000Y-66000D03*
X40500Y-59000D03*
X40500Y-41000D03*
X49000Y-48000D03*
G54D16*
X49250Y-43437D03*
X48750Y-43437D03*
X48250Y-43437D03*
X47750Y-43437D03*
X47750Y-45562D03*
X48250Y-45562D03*
X48750Y-45562D03*
X49250Y-45562D03*
G54D17*
X40500Y-45838D03*
X40500Y-43161D03*
G54D18*
X41582Y-43515D03*
X41582Y-44500D03*
X41582Y-45484D03*
G54D19*
X48775Y-40750D03*
X48224Y-40750D03*
X48600Y-46324D03*
X48600Y-46875D03*
G54D20*
X42750Y-40750D03*
G54D21*
X43750Y-40750D03*
X44750Y-40750D03*
X46750Y-40750D03*
X45750Y-40750D03*
G54D22*
X45833Y-46778D03*
G54D23*
X45833Y-46000D03*
G54D22*
X45833Y-45222D03*
X43667Y-45222D03*
G54D23*
X43667Y-46000D03*
G54D22*
X43667Y-46778D03*
X45833Y-43778D03*
G54D23*
X45833Y-43000D03*
G54D22*
X45833Y-42222D03*
X43667Y-42222D03*
G54D23*
X43667Y-43000D03*
G54D22*
X43667Y-43778D03*
G54D20*
X42750Y-48250D03*
G54D21*
X43750Y-48250D03*
X44750Y-48250D03*
X46750Y-48250D03*
X45750Y-48250D03*
G54D19*
X41275Y-48250D03*
X40724Y-48250D03*
X49250Y-46875D03*
X49250Y-46324D03*
X36775Y-35500D03*
X36224Y-35500D03*
X41275Y-35500D03*
X40724Y-35500D03*
X37724Y-35500D03*
X38275Y-35500D03*
X36775Y-34500D03*
X36224Y-34500D03*
G54D10*
G36*
X42055Y-31889D02*
X41860Y-31694D01*
X42055Y-31500D01*
X42250Y-31694D01*
X42055Y-31889D01*
X42055Y-31889D01*
G37*
G36*
X42444Y-31500D02*
X42250Y-31305D01*
X42444Y-31110D01*
X42639Y-31305D01*
X42444Y-31500D01*
X42444Y-31500D01*
G37*
G36*
X41944Y-30610D02*
X42139Y-30805D01*
X41944Y-31000D01*
X41750Y-30805D01*
X41944Y-30610D01*
X41944Y-30610D01*
G37*
G36*
X41555Y-31000D02*
X41750Y-31194D01*
X41555Y-31389D01*
X41360Y-31194D01*
X41555Y-31000D01*
X41555Y-31000D01*
G37*
G54D24*
X34051Y-39250D03*
X32948Y-39250D03*
X34051Y-35250D03*
X32948Y-35250D03*
G54D19*
X38250Y-25775D03*
X38250Y-25224D03*
X38750Y-46875D03*
X38750Y-46324D03*
X30775Y-48250D03*
X30224Y-48250D03*
G54D10*
G36*
X37411Y-33668D02*
X37272Y-33529D01*
X37690Y-33111D01*
X37829Y-33251D01*
X37411Y-33668D01*
X37411Y-33668D01*
G37*
G36*
X37634Y-33891D02*
X37495Y-33752D01*
X37913Y-33334D01*
X38052Y-33473D01*
X37634Y-33891D01*
X37634Y-33891D01*
G37*
G36*
X37857Y-34114D02*
X37718Y-33975D01*
X38135Y-33557D01*
X38275Y-33696D01*
X37857Y-34114D01*
X37857Y-34114D01*
G37*
G36*
X38080Y-34337D02*
X37940Y-34197D01*
X38358Y-33779D01*
X38498Y-33919D01*
X38080Y-34337D01*
X38080Y-34337D01*
G37*
G36*
X38302Y-34559D02*
X38162Y-34419D01*
X38580Y-34001D01*
X38720Y-34141D01*
X38302Y-34559D01*
X38302Y-34559D01*
G37*
G36*
X38524Y-34781D02*
X38385Y-34642D01*
X38803Y-34224D01*
X38942Y-34364D01*
X38524Y-34781D01*
X38524Y-34781D01*
G37*
G36*
X38747Y-35004D02*
X38608Y-34865D01*
X39026Y-34447D01*
X39165Y-34586D01*
X38747Y-35004D01*
X38747Y-35004D01*
G37*
G36*
X38970Y-35227D02*
X38831Y-35088D01*
X39248Y-34670D01*
X39388Y-34809D01*
X38970Y-35227D01*
X38970Y-35227D01*
G37*
G36*
X40168Y-35088D02*
X40029Y-35227D01*
X39611Y-34809D01*
X39751Y-34670D01*
X40168Y-35088D01*
X40168Y-35088D01*
G37*
G36*
X40391Y-34865D02*
X40252Y-35004D01*
X39834Y-34586D01*
X39973Y-34447D01*
X40391Y-34865D01*
X40391Y-34865D01*
G37*
G36*
X40614Y-34642D02*
X40475Y-34781D01*
X40057Y-34364D01*
X40196Y-34224D01*
X40614Y-34642D01*
X40614Y-34642D01*
G37*
G36*
X40837Y-34419D02*
X40697Y-34559D01*
X40279Y-34141D01*
X40419Y-34001D01*
X40837Y-34419D01*
X40837Y-34419D01*
G37*
G36*
X41059Y-34197D02*
X40919Y-34337D01*
X40501Y-33919D01*
X40641Y-33779D01*
X41059Y-34197D01*
X41059Y-34197D01*
G37*
G36*
X41281Y-33975D02*
X41142Y-34114D01*
X40724Y-33696D01*
X40864Y-33557D01*
X41281Y-33975D01*
X41281Y-33975D01*
G37*
G36*
X41504Y-33752D02*
X41365Y-33891D01*
X40947Y-33473D01*
X41086Y-33334D01*
X41504Y-33752D01*
X41504Y-33752D01*
G37*
G36*
X41727Y-33529D02*
X41588Y-33668D01*
X41170Y-33251D01*
X41309Y-33111D01*
X41727Y-33529D01*
X41727Y-33529D01*
G37*
G36*
X41588Y-32331D02*
X41727Y-32470D01*
X41309Y-32888D01*
X41170Y-32748D01*
X41588Y-32331D01*
X41588Y-32331D01*
G37*
G36*
X41365Y-32108D02*
X41504Y-32247D01*
X41086Y-32665D01*
X40947Y-32526D01*
X41365Y-32108D01*
X41365Y-32108D01*
G37*
G36*
X41142Y-31885D02*
X41281Y-32024D01*
X40864Y-32442D01*
X40724Y-32303D01*
X41142Y-31885D01*
X41142Y-31885D01*
G37*
G36*
X40919Y-31662D02*
X41059Y-31802D01*
X40641Y-32220D01*
X40501Y-32080D01*
X40919Y-31662D01*
X40919Y-31662D01*
G37*
G36*
X40697Y-31440D02*
X40837Y-31580D01*
X40419Y-31998D01*
X40279Y-31858D01*
X40697Y-31440D01*
X40697Y-31440D01*
G37*
G36*
X40475Y-31218D02*
X40614Y-31357D01*
X40196Y-31775D01*
X40057Y-31635D01*
X40475Y-31218D01*
X40475Y-31218D01*
G37*
G36*
X40252Y-30995D02*
X40391Y-31134D01*
X39973Y-31552D01*
X39834Y-31413D01*
X40252Y-30995D01*
X40252Y-30995D01*
G37*
G36*
X40029Y-30772D02*
X40168Y-30911D01*
X39751Y-31329D01*
X39611Y-31190D01*
X40029Y-30772D01*
X40029Y-30772D01*
G37*
G36*
X38831Y-30911D02*
X38970Y-30772D01*
X39388Y-31190D01*
X39248Y-31329D01*
X38831Y-30911D01*
X38831Y-30911D01*
G37*
G36*
X38608Y-31134D02*
X38747Y-30995D01*
X39165Y-31413D01*
X39026Y-31552D01*
X38608Y-31134D01*
X38608Y-31134D01*
G37*
G36*
X38385Y-31357D02*
X38524Y-31218D01*
X38942Y-31635D01*
X38803Y-31775D01*
X38385Y-31357D01*
X38385Y-31357D01*
G37*
G36*
X38162Y-31580D02*
X38302Y-31440D01*
X38720Y-31858D01*
X38580Y-31998D01*
X38162Y-31580D01*
X38162Y-31580D01*
G37*
G36*
X37940Y-31802D02*
X38080Y-31662D01*
X38498Y-32080D01*
X38358Y-32220D01*
X37940Y-31802D01*
X37940Y-31802D01*
G37*
G36*
X37718Y-32024D02*
X37857Y-31885D01*
X38275Y-32303D01*
X38135Y-32442D01*
X37718Y-32024D01*
X37718Y-32024D01*
G37*
G36*
X37495Y-32247D02*
X37634Y-32108D01*
X38052Y-32526D01*
X37913Y-32665D01*
X37495Y-32247D01*
X37495Y-32247D01*
G37*
G36*
X37272Y-32470D02*
X37411Y-32331D01*
X37829Y-32748D01*
X37690Y-32888D01*
X37272Y-32470D01*
X37272Y-32470D01*
G37*
G54D25*
X32279Y-36344D03*
X32279Y-37250D03*
X32279Y-38155D03*
G54D26*
X34720Y-37250D03*
G54D20*
X48000Y-39500D03*
G54D21*
X49000Y-39500D03*
G54D20*
X32250Y-48250D03*
G54D21*
X33250Y-48250D03*
X34250Y-48250D03*
X36250Y-48250D03*
X35250Y-48250D03*
G54D22*
X35333Y-43778D03*
G54D23*
X35333Y-43000D03*
G54D22*
X35333Y-42222D03*
X33167Y-42222D03*
G54D23*
X33167Y-43000D03*
G54D22*
X33167Y-43778D03*
X35333Y-46778D03*
G54D23*
X35333Y-46000D03*
G54D22*
X35333Y-45222D03*
X33167Y-45222D03*
G54D23*
X33167Y-46000D03*
G54D22*
X33167Y-46778D03*
G54D19*
X43025Y-35500D03*
X42474Y-35500D03*
X47224Y-37500D03*
X47775Y-37500D03*
G54D20*
X30000Y-39500D03*
G54D21*
X31000Y-39500D03*
G54D27*
X44500Y-36000D03*
G54D28*
X45500Y-36000D03*
X44500Y-37000D03*
X45500Y-37000D03*
X44500Y-38000D03*
X45500Y-38000D03*
G54D20*
X39500Y-28750D03*
G54D21*
X39500Y-27750D03*
X39500Y-26750D03*
X39500Y-24750D03*
X39500Y-23750D03*
X39500Y-25750D03*
G54D20*
X37500Y-39250D03*
G54D21*
X38500Y-39250D03*
X39500Y-39250D03*
X41500Y-39250D03*
X40500Y-39250D03*
G54D10*
G36*
X35770Y-29063D02*
X36384Y-29418D01*
X36029Y-30031D01*
X35415Y-29677D01*
X35770Y-29063D01*
X35770Y-29063D01*
G37*
G54D21*
X35400Y-30413D03*
X34900Y-31280D03*
X33900Y-33012D03*
X34400Y-32146D03*
G54D10*
G36*
X45584Y-33141D02*
X44970Y-33496D01*
X44615Y-32882D01*
X45229Y-32528D01*
X45584Y-33141D01*
X45584Y-33141D01*
G37*
G54D21*
X44600Y-32146D03*
X44100Y-31280D03*
X43100Y-29547D03*
X43600Y-30413D03*
G54D20*
X32250Y-40750D03*
G54D21*
X33250Y-40750D03*
X34250Y-40750D03*
X36250Y-40750D03*
X35250Y-40750D03*
G54D19*
X37025Y-31750D03*
X36474Y-31750D03*
X37775Y-31000D03*
X37224Y-31000D03*
X38525Y-30250D03*
X37974Y-30250D03*
X38100Y-46324D03*
X38100Y-46875D03*
X38275Y-40750D03*
X37724Y-40750D03*
X43025Y-34750D03*
X42474Y-34750D03*
X47224Y-38250D03*
X47775Y-38250D03*
G54D17*
X30000Y-45838D03*
X30000Y-43161D03*
G54D18*
X31082Y-43515D03*
X31082Y-44500D03*
X31082Y-45484D03*
G54D29*
X37629Y-37000D03*
X41370Y-37000D03*
G54D16*
X38750Y-43437D03*
X38250Y-43437D03*
X37750Y-43437D03*
X37250Y-43437D03*
X37250Y-45562D03*
X37750Y-45562D03*
X38250Y-45562D03*
X38750Y-45562D03*
G54D20*
X41000Y-29500D03*
G54D21*
X41000Y-28500D03*
X41000Y-27500D03*
X41000Y-25500D03*
X41000Y-26500D03*
G54D15*
X35750Y-33250D03*
X43250Y-33250D03*
X38500Y-48000D03*
X30000Y-41000D03*
M02*
