%FSLAX34Y34*%
G04 Gerber Fmt 3.4, Leading zero omitted, Abs format*
G04 (created by PCBNEW (2014-02-03 BZR 4657)-product) date Thu 13 Mar 2014 03:57:06 PM CDT*
%MOIN*%
G01*
G70*
G90*
G04 APERTURE LIST*
%ADD10C,0.006000*%
%ADD11C,0.008000*%
%ADD12C,0.005000*%
%ADD13C,0.007874*%
%ADD14C,0.015000*%
%ADD15C,0.098425*%
%ADD16R,0.029622X0.067024*%
%ADD17R,0.027559X0.027559*%
%ADD18R,0.070866X0.070866*%
%ADD19C,0.070866*%
%ADD20R,0.106300X0.066900*%
%ADD21R,0.106300X0.051200*%
%ADD22C,0.015000*%
%ADD23C,0.035433*%
%ADD24R,0.098425X0.047244*%
%ADD25R,0.062992X0.070866*%
%ADD26R,0.086614X0.047244*%
%ADD27R,0.086614X0.137795*%
%ADD28R,0.066929X0.066929*%
%ADD29C,0.066929*%
%ADD30R,0.220472X0.082677*%
G04 APERTURE END LIST*
G54D10*
G54D11*
X44000Y-45500D02*
X44750Y-45500D01*
X44750Y-45500D02*
X44750Y-45000D01*
X44750Y-45000D02*
X45250Y-45500D01*
X45250Y-45500D02*
X44750Y-46000D01*
X44750Y-46000D02*
X44750Y-45500D01*
X45250Y-45000D02*
X45250Y-46000D01*
X45250Y-45500D02*
X46000Y-45500D01*
X45250Y-55500D02*
X46000Y-55500D01*
X45250Y-55000D02*
X45250Y-56000D01*
X44750Y-56000D02*
X44750Y-55500D01*
X45250Y-55500D02*
X44750Y-56000D01*
X44750Y-55000D02*
X45250Y-55500D01*
X44750Y-55500D02*
X44750Y-55000D01*
X44000Y-55500D02*
X44750Y-55500D01*
X44000Y-65500D02*
X44750Y-65500D01*
X44750Y-65500D02*
X44750Y-65000D01*
X44750Y-65000D02*
X45250Y-65500D01*
X45250Y-65500D02*
X44750Y-66000D01*
X44750Y-66000D02*
X44750Y-65500D01*
X45250Y-65000D02*
X45250Y-66000D01*
X45250Y-65500D02*
X46000Y-65500D01*
X34250Y-65500D02*
X35000Y-65500D01*
X34250Y-65000D02*
X34250Y-66000D01*
X33750Y-66000D02*
X33750Y-65500D01*
X34250Y-65500D02*
X33750Y-66000D01*
X33750Y-65000D02*
X34250Y-65500D01*
X33750Y-65500D02*
X33750Y-65000D01*
X33000Y-65500D02*
X33750Y-65500D01*
X33000Y-55500D02*
X33750Y-55500D01*
X33750Y-55500D02*
X33750Y-55000D01*
X33750Y-55000D02*
X34250Y-55500D01*
X34250Y-55500D02*
X33750Y-56000D01*
X33750Y-56000D02*
X33750Y-55500D01*
X34250Y-55000D02*
X34250Y-56000D01*
X34250Y-55500D02*
X35000Y-55500D01*
X34250Y-45500D02*
X35000Y-45500D01*
X34250Y-45000D02*
X34250Y-46000D01*
X33750Y-46000D02*
X33750Y-45500D01*
X34250Y-45500D02*
X33750Y-46000D01*
X33750Y-45000D02*
X34250Y-45500D01*
X33750Y-45500D02*
X33750Y-45000D01*
X33000Y-45500D02*
X33750Y-45500D01*
G54D10*
X40363Y-23886D02*
X40244Y-23970D01*
X40363Y-24029D02*
X40113Y-24029D01*
X40113Y-23934D01*
X40125Y-23910D01*
X40136Y-23898D01*
X40160Y-23886D01*
X40196Y-23886D01*
X40220Y-23898D01*
X40232Y-23910D01*
X40244Y-23934D01*
X40244Y-24029D01*
X40351Y-23791D02*
X40363Y-23755D01*
X40363Y-23696D01*
X40351Y-23672D01*
X40339Y-23660D01*
X40315Y-23648D01*
X40291Y-23648D01*
X40267Y-23660D01*
X40255Y-23672D01*
X40244Y-23696D01*
X40232Y-23744D01*
X40220Y-23767D01*
X40208Y-23779D01*
X40184Y-23791D01*
X40160Y-23791D01*
X40136Y-23779D01*
X40125Y-23767D01*
X40113Y-23744D01*
X40113Y-23684D01*
X40125Y-23648D01*
X40113Y-23577D02*
X40113Y-23434D01*
X40363Y-23505D02*
X40113Y-23505D01*
X40113Y-24940D02*
X40113Y-24797D01*
X40363Y-24869D02*
X40113Y-24869D01*
X40113Y-24738D02*
X40363Y-24571D01*
X40113Y-24571D02*
X40363Y-24738D01*
X40363Y-25791D02*
X40244Y-25875D01*
X40363Y-25934D02*
X40113Y-25934D01*
X40113Y-25839D01*
X40125Y-25815D01*
X40136Y-25803D01*
X40160Y-25791D01*
X40196Y-25791D01*
X40220Y-25803D01*
X40232Y-25815D01*
X40244Y-25839D01*
X40244Y-25934D01*
X40113Y-25708D02*
X40363Y-25541D01*
X40113Y-25541D02*
X40363Y-25708D01*
X40113Y-27083D02*
X40363Y-27000D01*
X40113Y-26916D01*
X40339Y-26690D02*
X40351Y-26702D01*
X40363Y-26738D01*
X40363Y-26761D01*
X40351Y-26797D01*
X40327Y-26821D01*
X40303Y-26833D01*
X40255Y-26845D01*
X40220Y-26845D01*
X40172Y-26833D01*
X40148Y-26821D01*
X40125Y-26797D01*
X40113Y-26761D01*
X40113Y-26738D01*
X40125Y-26702D01*
X40136Y-26690D01*
X40339Y-26440D02*
X40351Y-26452D01*
X40363Y-26488D01*
X40363Y-26511D01*
X40351Y-26547D01*
X40327Y-26571D01*
X40303Y-26583D01*
X40255Y-26595D01*
X40220Y-26595D01*
X40172Y-26583D01*
X40148Y-26571D01*
X40125Y-26547D01*
X40113Y-26511D01*
X40113Y-26488D01*
X40125Y-26452D01*
X40136Y-26440D01*
X40125Y-27940D02*
X40113Y-27964D01*
X40113Y-28000D01*
X40125Y-28035D01*
X40148Y-28059D01*
X40172Y-28071D01*
X40220Y-28083D01*
X40255Y-28083D01*
X40303Y-28071D01*
X40327Y-28059D01*
X40351Y-28035D01*
X40363Y-28000D01*
X40363Y-27976D01*
X40351Y-27940D01*
X40339Y-27928D01*
X40255Y-27928D01*
X40255Y-27976D01*
X40363Y-27821D02*
X40113Y-27821D01*
X40363Y-27678D01*
X40113Y-27678D01*
X40363Y-27559D02*
X40113Y-27559D01*
X40113Y-27500D01*
X40125Y-27464D01*
X40148Y-27440D01*
X40172Y-27428D01*
X40220Y-27416D01*
X40255Y-27416D01*
X40303Y-27428D01*
X40327Y-27440D01*
X40351Y-27464D01*
X40363Y-27500D01*
X40363Y-27559D01*
X40125Y-28940D02*
X40113Y-28964D01*
X40113Y-29000D01*
X40125Y-29035D01*
X40148Y-29059D01*
X40172Y-29071D01*
X40220Y-29083D01*
X40255Y-29083D01*
X40303Y-29071D01*
X40327Y-29059D01*
X40351Y-29035D01*
X40363Y-29000D01*
X40363Y-28976D01*
X40351Y-28940D01*
X40339Y-28928D01*
X40255Y-28928D01*
X40255Y-28976D01*
X40363Y-28821D02*
X40113Y-28821D01*
X40363Y-28678D01*
X40113Y-28678D01*
X40363Y-28559D02*
X40113Y-28559D01*
X40113Y-28500D01*
X40125Y-28464D01*
X40148Y-28440D01*
X40172Y-28428D01*
X40220Y-28416D01*
X40255Y-28416D01*
X40303Y-28428D01*
X40327Y-28440D01*
X40351Y-28464D01*
X40363Y-28500D01*
X40363Y-28559D01*
X40291Y-30351D02*
X40291Y-30232D01*
X40363Y-30375D02*
X40113Y-30291D01*
X40363Y-30208D01*
X40113Y-30160D02*
X40363Y-30077D01*
X40113Y-29994D01*
X40363Y-29767D02*
X40244Y-29851D01*
X40363Y-29910D02*
X40113Y-29910D01*
X40113Y-29815D01*
X40125Y-29791D01*
X40136Y-29779D01*
X40160Y-29767D01*
X40196Y-29767D01*
X40220Y-29779D01*
X40232Y-29791D01*
X40244Y-29815D01*
X40244Y-29910D01*
X40339Y-29660D02*
X40351Y-29648D01*
X40363Y-29660D01*
X40351Y-29672D01*
X40339Y-29660D01*
X40363Y-29660D01*
X40208Y-29660D02*
X40220Y-29648D01*
X40232Y-29660D01*
X40220Y-29672D01*
X40208Y-29660D01*
X40232Y-29660D01*
X38232Y-27303D02*
X38232Y-27386D01*
X38363Y-27386D02*
X38113Y-27386D01*
X38113Y-27267D01*
X38113Y-27208D02*
X38113Y-27065D01*
X38363Y-27136D02*
X38113Y-27136D01*
X38363Y-26982D02*
X38113Y-26982D01*
X38113Y-26922D01*
X38125Y-26886D01*
X38148Y-26863D01*
X38172Y-26851D01*
X38220Y-26839D01*
X38255Y-26839D01*
X38303Y-26851D01*
X38327Y-26863D01*
X38351Y-26886D01*
X38363Y-26922D01*
X38363Y-26982D01*
X38363Y-26732D02*
X38113Y-26732D01*
X38339Y-26613D02*
X38351Y-26601D01*
X38363Y-26613D01*
X38351Y-26625D01*
X38339Y-26613D01*
X38363Y-26613D01*
X38208Y-26613D02*
X38220Y-26601D01*
X38232Y-26613D01*
X38220Y-26625D01*
X38208Y-26613D01*
X38232Y-26613D01*
X38863Y-23886D02*
X38744Y-23970D01*
X38863Y-24029D02*
X38613Y-24029D01*
X38613Y-23934D01*
X38625Y-23910D01*
X38636Y-23898D01*
X38660Y-23886D01*
X38696Y-23886D01*
X38720Y-23898D01*
X38732Y-23910D01*
X38744Y-23934D01*
X38744Y-24029D01*
X38613Y-23815D02*
X38613Y-23672D01*
X38863Y-23744D02*
X38613Y-23744D01*
X38851Y-23601D02*
X38863Y-23565D01*
X38863Y-23505D01*
X38851Y-23482D01*
X38839Y-23470D01*
X38815Y-23458D01*
X38791Y-23458D01*
X38767Y-23470D01*
X38755Y-23482D01*
X38744Y-23505D01*
X38732Y-23553D01*
X38720Y-23577D01*
X38708Y-23589D01*
X38684Y-23601D01*
X38660Y-23601D01*
X38636Y-23589D01*
X38625Y-23577D01*
X38613Y-23553D01*
X38613Y-23494D01*
X38625Y-23458D01*
X38863Y-24791D02*
X38744Y-24875D01*
X38863Y-24934D02*
X38613Y-24934D01*
X38613Y-24839D01*
X38625Y-24815D01*
X38636Y-24803D01*
X38660Y-24791D01*
X38696Y-24791D01*
X38720Y-24803D01*
X38732Y-24815D01*
X38744Y-24839D01*
X38744Y-24934D01*
X38613Y-24708D02*
X38863Y-24541D01*
X38613Y-24541D02*
X38863Y-24708D01*
X38613Y-25940D02*
X38613Y-25797D01*
X38863Y-25869D02*
X38613Y-25869D01*
X38613Y-25738D02*
X38863Y-25571D01*
X38613Y-25571D02*
X38863Y-25738D01*
X38613Y-27083D02*
X38863Y-27000D01*
X38613Y-26916D01*
X38839Y-26690D02*
X38851Y-26702D01*
X38863Y-26738D01*
X38863Y-26761D01*
X38851Y-26797D01*
X38827Y-26821D01*
X38803Y-26833D01*
X38755Y-26845D01*
X38720Y-26845D01*
X38672Y-26833D01*
X38648Y-26821D01*
X38625Y-26797D01*
X38613Y-26761D01*
X38613Y-26738D01*
X38625Y-26702D01*
X38636Y-26690D01*
X38839Y-26440D02*
X38851Y-26452D01*
X38863Y-26488D01*
X38863Y-26511D01*
X38851Y-26547D01*
X38827Y-26571D01*
X38803Y-26583D01*
X38755Y-26595D01*
X38720Y-26595D01*
X38672Y-26583D01*
X38648Y-26571D01*
X38625Y-26547D01*
X38613Y-26511D01*
X38613Y-26488D01*
X38625Y-26452D01*
X38636Y-26440D01*
X38625Y-28940D02*
X38613Y-28964D01*
X38613Y-29000D01*
X38625Y-29035D01*
X38648Y-29059D01*
X38672Y-29071D01*
X38720Y-29083D01*
X38755Y-29083D01*
X38803Y-29071D01*
X38827Y-29059D01*
X38851Y-29035D01*
X38863Y-29000D01*
X38863Y-28976D01*
X38851Y-28940D01*
X38839Y-28928D01*
X38755Y-28928D01*
X38755Y-28976D01*
X38863Y-28821D02*
X38613Y-28821D01*
X38863Y-28678D01*
X38613Y-28678D01*
X38863Y-28559D02*
X38613Y-28559D01*
X38613Y-28500D01*
X38625Y-28464D01*
X38648Y-28440D01*
X38672Y-28428D01*
X38720Y-28416D01*
X38755Y-28416D01*
X38803Y-28428D01*
X38827Y-28440D01*
X38851Y-28464D01*
X38863Y-28500D01*
X38863Y-28559D01*
X38839Y-27886D02*
X38851Y-27898D01*
X38863Y-27934D01*
X38863Y-27958D01*
X38851Y-27994D01*
X38827Y-28017D01*
X38803Y-28029D01*
X38755Y-28041D01*
X38720Y-28041D01*
X38672Y-28029D01*
X38648Y-28017D01*
X38625Y-27994D01*
X38613Y-27958D01*
X38613Y-27934D01*
X38625Y-27898D01*
X38636Y-27886D01*
X38613Y-27815D02*
X38613Y-27672D01*
X38863Y-27744D02*
X38613Y-27744D01*
X38851Y-27601D02*
X38863Y-27565D01*
X38863Y-27505D01*
X38851Y-27482D01*
X38839Y-27470D01*
X38815Y-27458D01*
X38791Y-27458D01*
X38767Y-27470D01*
X38755Y-27482D01*
X38744Y-27505D01*
X38732Y-27553D01*
X38720Y-27577D01*
X38708Y-27589D01*
X38684Y-27601D01*
X38660Y-27601D01*
X38636Y-27589D01*
X38625Y-27577D01*
X38613Y-27553D01*
X38613Y-27494D01*
X38625Y-27458D01*
G54D11*
X31500Y-39500D02*
X32000Y-39500D01*
X47250Y-39750D02*
X47250Y-39250D01*
X47000Y-39500D02*
X47500Y-39500D01*
X40507Y-42000D02*
G75*
G03X41000Y-42492I492J0D01*
G74*
G01*
X41492Y-42000D02*
G75*
G03X41000Y-41507I-492J0D01*
G74*
G01*
X40409Y-42000D02*
G75*
G03X41000Y-42590I590J0D01*
G74*
G01*
X40311Y-42000D02*
G75*
G03X41000Y-42688I688J0D01*
G74*
G01*
X41590Y-42000D02*
G75*
G03X41000Y-41409I-590J0D01*
G74*
G01*
X41688Y-42000D02*
G75*
G03X41000Y-41311I-688J0D01*
G74*
G01*
X41000Y-42000D02*
X41000Y-42787D01*
X41000Y-42000D02*
X40212Y-42000D01*
X41000Y-41212D02*
X41000Y-42000D01*
X41000Y-42000D02*
X41787Y-42000D01*
X41787Y-42000D02*
G75*
G03X41787Y-42000I-787J0D01*
G74*
G01*
X48507Y-49000D02*
G75*
G03X49000Y-49492I492J0D01*
G74*
G01*
X49492Y-49000D02*
G75*
G03X49000Y-48507I-492J0D01*
G74*
G01*
X48409Y-49000D02*
G75*
G03X49000Y-49590I590J0D01*
G74*
G01*
X48311Y-49000D02*
G75*
G03X49000Y-49688I688J0D01*
G74*
G01*
X49590Y-49000D02*
G75*
G03X49000Y-48409I-590J0D01*
G74*
G01*
X49688Y-49000D02*
G75*
G03X49000Y-48311I-688J0D01*
G74*
G01*
X49000Y-49000D02*
X49000Y-49787D01*
X49000Y-49000D02*
X48212Y-49000D01*
X49000Y-48212D02*
X49000Y-49000D01*
X49000Y-49000D02*
X49787Y-49000D01*
X49787Y-49000D02*
G75*
G03X49787Y-49000I-787J0D01*
G74*
G01*
X49734Y-45106D02*
X47765Y-45106D01*
X49734Y-44712D02*
X47765Y-44712D01*
X47765Y-44712D02*
X47765Y-46287D01*
X47765Y-46287D02*
X49734Y-46287D01*
X49734Y-46287D02*
X49734Y-44712D01*
X49654Y-43815D02*
G75*
G03X49654Y-43815I-139J0D01*
G74*
G01*
X49261Y-41513D02*
X49261Y-41986D01*
X49261Y-41986D02*
X49064Y-41986D01*
X49261Y-41513D02*
X49064Y-41513D01*
X48238Y-41986D02*
X48238Y-41513D01*
X48238Y-41513D02*
X48435Y-41513D01*
X48238Y-41986D02*
X48435Y-41986D01*
X48613Y-47088D02*
X49086Y-47088D01*
X49086Y-47088D02*
X49086Y-47285D01*
X48613Y-47088D02*
X48613Y-47285D01*
X49086Y-48111D02*
X48613Y-48111D01*
X48613Y-48111D02*
X48613Y-47914D01*
X49086Y-48111D02*
X49086Y-47914D01*
X42500Y-42250D02*
X42000Y-42250D01*
X42500Y-41250D02*
X42000Y-41250D01*
X42500Y-41250D02*
X47500Y-41250D01*
X47500Y-41250D02*
X47500Y-42250D01*
X47500Y-42250D02*
X42500Y-42250D01*
X42500Y-41750D02*
G75*
G03X42000Y-41250I-500J0D01*
G74*
G01*
X42000Y-42250D02*
G75*
G03X42500Y-41750I0J500D01*
G74*
G01*
X42000Y-41250D02*
X42000Y-42250D01*
X45500Y-47000D02*
G75*
G03X45500Y-47000I-500J0D01*
G74*
G01*
X47200Y-47900D02*
G75*
G03X47200Y-47900I-200J0D01*
G74*
G01*
X45886Y-47886D02*
X44114Y-47886D01*
X44114Y-47886D02*
X44114Y-46114D01*
X44114Y-46114D02*
X45886Y-46114D01*
X45886Y-46114D02*
X45886Y-47886D01*
X45500Y-44000D02*
G75*
G03X45500Y-44000I-500J0D01*
G74*
G01*
X47200Y-44900D02*
G75*
G03X47200Y-44900I-200J0D01*
G74*
G01*
X45886Y-44886D02*
X44114Y-44886D01*
X44114Y-44886D02*
X44114Y-43114D01*
X44114Y-43114D02*
X45886Y-43114D01*
X45886Y-43114D02*
X45886Y-44886D01*
X42500Y-49750D02*
X42000Y-49750D01*
X42500Y-48750D02*
X42000Y-48750D01*
X42500Y-48750D02*
X47500Y-48750D01*
X47500Y-48750D02*
X47500Y-49750D01*
X47500Y-49750D02*
X42500Y-49750D01*
X42500Y-49250D02*
G75*
G03X42000Y-48750I-500J0D01*
G74*
G01*
X42000Y-49750D02*
G75*
G03X42500Y-49250I0J500D01*
G74*
G01*
X42000Y-48750D02*
X42000Y-49750D01*
X41761Y-49013D02*
X41761Y-49486D01*
X41761Y-49486D02*
X41564Y-49486D01*
X41761Y-49013D02*
X41564Y-49013D01*
X40738Y-49486D02*
X40738Y-49013D01*
X40738Y-49013D02*
X40935Y-49013D01*
X40738Y-49486D02*
X40935Y-49486D01*
X49736Y-48111D02*
X49263Y-48111D01*
X49263Y-48111D02*
X49263Y-47914D01*
X49736Y-48111D02*
X49736Y-47914D01*
X49263Y-47088D02*
X49736Y-47088D01*
X49736Y-47088D02*
X49736Y-47285D01*
X49263Y-47088D02*
X49263Y-47285D01*
X49736Y-58111D02*
X49263Y-58111D01*
X49263Y-58111D02*
X49263Y-57914D01*
X49736Y-58111D02*
X49736Y-57914D01*
X49263Y-57088D02*
X49736Y-57088D01*
X49736Y-57088D02*
X49736Y-57285D01*
X49263Y-57088D02*
X49263Y-57285D01*
X41761Y-59013D02*
X41761Y-59486D01*
X41761Y-59486D02*
X41564Y-59486D01*
X41761Y-59013D02*
X41564Y-59013D01*
X40738Y-59486D02*
X40738Y-59013D01*
X40738Y-59013D02*
X40935Y-59013D01*
X40738Y-59486D02*
X40935Y-59486D01*
X42500Y-59750D02*
X42000Y-59750D01*
X42500Y-58750D02*
X42000Y-58750D01*
X42500Y-58750D02*
X47500Y-58750D01*
X47500Y-58750D02*
X47500Y-59750D01*
X47500Y-59750D02*
X42500Y-59750D01*
X42500Y-59250D02*
G75*
G03X42000Y-58750I-500J0D01*
G74*
G01*
X42000Y-59750D02*
G75*
G03X42500Y-59250I0J500D01*
G74*
G01*
X42000Y-58750D02*
X42000Y-59750D01*
X45500Y-54000D02*
G75*
G03X45500Y-54000I-500J0D01*
G74*
G01*
X47200Y-54900D02*
G75*
G03X47200Y-54900I-200J0D01*
G74*
G01*
X45886Y-54886D02*
X44114Y-54886D01*
X44114Y-54886D02*
X44114Y-53114D01*
X44114Y-53114D02*
X45886Y-53114D01*
X45886Y-53114D02*
X45886Y-54886D01*
X45500Y-57000D02*
G75*
G03X45500Y-57000I-500J0D01*
G74*
G01*
X47200Y-57900D02*
G75*
G03X47200Y-57900I-200J0D01*
G74*
G01*
X45886Y-57886D02*
X44114Y-57886D01*
X44114Y-57886D02*
X44114Y-56114D01*
X44114Y-56114D02*
X45886Y-56114D01*
X45886Y-56114D02*
X45886Y-57886D01*
X42500Y-52250D02*
X42000Y-52250D01*
X42500Y-51250D02*
X42000Y-51250D01*
X42500Y-51250D02*
X47500Y-51250D01*
X47500Y-51250D02*
X47500Y-52250D01*
X47500Y-52250D02*
X42500Y-52250D01*
X42500Y-51750D02*
G75*
G03X42000Y-51250I-500J0D01*
G74*
G01*
X42000Y-52250D02*
G75*
G03X42500Y-51750I0J500D01*
G74*
G01*
X42000Y-51250D02*
X42000Y-52250D01*
X48613Y-57088D02*
X49086Y-57088D01*
X49086Y-57088D02*
X49086Y-57285D01*
X48613Y-57088D02*
X48613Y-57285D01*
X49086Y-58111D02*
X48613Y-58111D01*
X48613Y-58111D02*
X48613Y-57914D01*
X49086Y-58111D02*
X49086Y-57914D01*
X49261Y-51513D02*
X49261Y-51986D01*
X49261Y-51986D02*
X49064Y-51986D01*
X49261Y-51513D02*
X49064Y-51513D01*
X48238Y-51986D02*
X48238Y-51513D01*
X48238Y-51513D02*
X48435Y-51513D01*
X48238Y-51986D02*
X48435Y-51986D01*
X49734Y-55106D02*
X47765Y-55106D01*
X49734Y-54712D02*
X47765Y-54712D01*
X47765Y-54712D02*
X47765Y-56287D01*
X47765Y-56287D02*
X49734Y-56287D01*
X49734Y-56287D02*
X49734Y-54712D01*
X49654Y-53815D02*
G75*
G03X49654Y-53815I-139J0D01*
G74*
G01*
X48507Y-59000D02*
G75*
G03X49000Y-59492I492J0D01*
G74*
G01*
X49492Y-59000D02*
G75*
G03X49000Y-58507I-492J0D01*
G74*
G01*
X48409Y-59000D02*
G75*
G03X49000Y-59590I590J0D01*
G74*
G01*
X48311Y-59000D02*
G75*
G03X49000Y-59688I688J0D01*
G74*
G01*
X49590Y-59000D02*
G75*
G03X49000Y-58409I-590J0D01*
G74*
G01*
X49688Y-59000D02*
G75*
G03X49000Y-58311I-688J0D01*
G74*
G01*
X49000Y-59000D02*
X49000Y-59787D01*
X49000Y-59000D02*
X48212Y-59000D01*
X49000Y-58212D02*
X49000Y-59000D01*
X49000Y-59000D02*
X49787Y-59000D01*
X49787Y-59000D02*
G75*
G03X49787Y-59000I-787J0D01*
G74*
G01*
X40507Y-52000D02*
G75*
G03X41000Y-52492I492J0D01*
G74*
G01*
X41492Y-52000D02*
G75*
G03X41000Y-51507I-492J0D01*
G74*
G01*
X40409Y-52000D02*
G75*
G03X41000Y-52590I590J0D01*
G74*
G01*
X40311Y-52000D02*
G75*
G03X41000Y-52688I688J0D01*
G74*
G01*
X41590Y-52000D02*
G75*
G03X41000Y-51409I-590J0D01*
G74*
G01*
X41688Y-52000D02*
G75*
G03X41000Y-51311I-688J0D01*
G74*
G01*
X41000Y-52000D02*
X41000Y-52787D01*
X41000Y-52000D02*
X40212Y-52000D01*
X41000Y-51212D02*
X41000Y-52000D01*
X41000Y-52000D02*
X41787Y-52000D01*
X41787Y-52000D02*
G75*
G03X41787Y-52000I-787J0D01*
G74*
G01*
X40507Y-62000D02*
G75*
G03X41000Y-62492I492J0D01*
G74*
G01*
X41492Y-62000D02*
G75*
G03X41000Y-61507I-492J0D01*
G74*
G01*
X40409Y-62000D02*
G75*
G03X41000Y-62590I590J0D01*
G74*
G01*
X40311Y-62000D02*
G75*
G03X41000Y-62688I688J0D01*
G74*
G01*
X41590Y-62000D02*
G75*
G03X41000Y-61409I-590J0D01*
G74*
G01*
X41688Y-62000D02*
G75*
G03X41000Y-61311I-688J0D01*
G74*
G01*
X41000Y-62000D02*
X41000Y-62787D01*
X41000Y-62000D02*
X40212Y-62000D01*
X41000Y-61212D02*
X41000Y-62000D01*
X41000Y-62000D02*
X41787Y-62000D01*
X41787Y-62000D02*
G75*
G03X41787Y-62000I-787J0D01*
G74*
G01*
X48507Y-69000D02*
G75*
G03X49000Y-69492I492J0D01*
G74*
G01*
X49492Y-69000D02*
G75*
G03X49000Y-68507I-492J0D01*
G74*
G01*
X48409Y-69000D02*
G75*
G03X49000Y-69590I590J0D01*
G74*
G01*
X48311Y-69000D02*
G75*
G03X49000Y-69688I688J0D01*
G74*
G01*
X49590Y-69000D02*
G75*
G03X49000Y-68409I-590J0D01*
G74*
G01*
X49688Y-69000D02*
G75*
G03X49000Y-68311I-688J0D01*
G74*
G01*
X49000Y-69000D02*
X49000Y-69787D01*
X49000Y-69000D02*
X48212Y-69000D01*
X49000Y-68212D02*
X49000Y-69000D01*
X49000Y-69000D02*
X49787Y-69000D01*
X49787Y-69000D02*
G75*
G03X49787Y-69000I-787J0D01*
G74*
G01*
X49734Y-65106D02*
X47765Y-65106D01*
X49734Y-64712D02*
X47765Y-64712D01*
X47765Y-64712D02*
X47765Y-66287D01*
X47765Y-66287D02*
X49734Y-66287D01*
X49734Y-66287D02*
X49734Y-64712D01*
X49654Y-63815D02*
G75*
G03X49654Y-63815I-139J0D01*
G74*
G01*
X49261Y-61513D02*
X49261Y-61986D01*
X49261Y-61986D02*
X49064Y-61986D01*
X49261Y-61513D02*
X49064Y-61513D01*
X48238Y-61986D02*
X48238Y-61513D01*
X48238Y-61513D02*
X48435Y-61513D01*
X48238Y-61986D02*
X48435Y-61986D01*
X48613Y-67088D02*
X49086Y-67088D01*
X49086Y-67088D02*
X49086Y-67285D01*
X48613Y-67088D02*
X48613Y-67285D01*
X49086Y-68111D02*
X48613Y-68111D01*
X48613Y-68111D02*
X48613Y-67914D01*
X49086Y-68111D02*
X49086Y-67914D01*
X42500Y-62250D02*
X42000Y-62250D01*
X42500Y-61250D02*
X42000Y-61250D01*
X42500Y-61250D02*
X47500Y-61250D01*
X47500Y-61250D02*
X47500Y-62250D01*
X47500Y-62250D02*
X42500Y-62250D01*
X42500Y-61750D02*
G75*
G03X42000Y-61250I-500J0D01*
G74*
G01*
X42000Y-62250D02*
G75*
G03X42500Y-61750I0J500D01*
G74*
G01*
X42000Y-61250D02*
X42000Y-62250D01*
X45500Y-67000D02*
G75*
G03X45500Y-67000I-500J0D01*
G74*
G01*
X47200Y-67900D02*
G75*
G03X47200Y-67900I-200J0D01*
G74*
G01*
X45886Y-67886D02*
X44114Y-67886D01*
X44114Y-67886D02*
X44114Y-66114D01*
X44114Y-66114D02*
X45886Y-66114D01*
X45886Y-66114D02*
X45886Y-67886D01*
X45500Y-64000D02*
G75*
G03X45500Y-64000I-500J0D01*
G74*
G01*
X47200Y-64900D02*
G75*
G03X47200Y-64900I-200J0D01*
G74*
G01*
X45886Y-64886D02*
X44114Y-64886D01*
X44114Y-64886D02*
X44114Y-63114D01*
X44114Y-63114D02*
X45886Y-63114D01*
X45886Y-63114D02*
X45886Y-64886D01*
X42500Y-69750D02*
X42000Y-69750D01*
X42500Y-68750D02*
X42000Y-68750D01*
X42500Y-68750D02*
X47500Y-68750D01*
X47500Y-68750D02*
X47500Y-69750D01*
X47500Y-69750D02*
X42500Y-69750D01*
X42500Y-69250D02*
G75*
G03X42000Y-68750I-500J0D01*
G74*
G01*
X42000Y-69750D02*
G75*
G03X42500Y-69250I0J500D01*
G74*
G01*
X42000Y-68750D02*
X42000Y-69750D01*
X41761Y-69013D02*
X41761Y-69486D01*
X41761Y-69486D02*
X41564Y-69486D01*
X41761Y-69013D02*
X41564Y-69013D01*
X40738Y-69486D02*
X40738Y-69013D01*
X40738Y-69013D02*
X40935Y-69013D01*
X40738Y-69486D02*
X40935Y-69486D01*
X49736Y-68111D02*
X49263Y-68111D01*
X49263Y-68111D02*
X49263Y-67914D01*
X49736Y-68111D02*
X49736Y-67914D01*
X49263Y-67088D02*
X49736Y-67088D01*
X49736Y-67088D02*
X49736Y-67285D01*
X49263Y-67088D02*
X49263Y-67285D01*
X42324Y-53925D02*
G75*
G03X42324Y-53925I-157J0D01*
G74*
G01*
X39253Y-55106D02*
X39253Y-54791D01*
X39253Y-54791D02*
X40041Y-54791D01*
X39253Y-55106D02*
X39253Y-55421D01*
X39253Y-55421D02*
X40041Y-55421D01*
X40041Y-57271D02*
X40041Y-53728D01*
X40041Y-53728D02*
X41458Y-53728D01*
X41458Y-53728D02*
X41458Y-57271D01*
X41458Y-57271D02*
X40041Y-57271D01*
X42324Y-63925D02*
G75*
G03X42324Y-63925I-157J0D01*
G74*
G01*
X39253Y-65106D02*
X39253Y-64791D01*
X39253Y-64791D02*
X40041Y-64791D01*
X39253Y-65106D02*
X39253Y-65421D01*
X39253Y-65421D02*
X40041Y-65421D01*
X40041Y-67271D02*
X40041Y-63728D01*
X40041Y-63728D02*
X41458Y-63728D01*
X41458Y-63728D02*
X41458Y-67271D01*
X41458Y-67271D02*
X40041Y-67271D01*
X38736Y-68111D02*
X38263Y-68111D01*
X38263Y-68111D02*
X38263Y-67914D01*
X38736Y-68111D02*
X38736Y-67914D01*
X38263Y-67088D02*
X38736Y-67088D01*
X38736Y-67088D02*
X38736Y-67285D01*
X38263Y-67088D02*
X38263Y-67285D01*
X30761Y-69013D02*
X30761Y-69486D01*
X30761Y-69486D02*
X30564Y-69486D01*
X30761Y-69013D02*
X30564Y-69013D01*
X29738Y-69486D02*
X29738Y-69013D01*
X29738Y-69013D02*
X29935Y-69013D01*
X29738Y-69486D02*
X29935Y-69486D01*
X31500Y-69750D02*
X31000Y-69750D01*
X31500Y-68750D02*
X31000Y-68750D01*
X31500Y-68750D02*
X36500Y-68750D01*
X36500Y-68750D02*
X36500Y-69750D01*
X36500Y-69750D02*
X31500Y-69750D01*
X31500Y-69250D02*
G75*
G03X31000Y-68750I-500J0D01*
G74*
G01*
X31000Y-69750D02*
G75*
G03X31500Y-69250I0J500D01*
G74*
G01*
X31000Y-68750D02*
X31000Y-69750D01*
X34500Y-64000D02*
G75*
G03X34500Y-64000I-500J0D01*
G74*
G01*
X36200Y-64900D02*
G75*
G03X36200Y-64900I-200J0D01*
G74*
G01*
X34886Y-64886D02*
X33114Y-64886D01*
X33114Y-64886D02*
X33114Y-63114D01*
X33114Y-63114D02*
X34886Y-63114D01*
X34886Y-63114D02*
X34886Y-64886D01*
X34500Y-67000D02*
G75*
G03X34500Y-67000I-500J0D01*
G74*
G01*
X36200Y-67900D02*
G75*
G03X36200Y-67900I-200J0D01*
G74*
G01*
X34886Y-67886D02*
X33114Y-67886D01*
X33114Y-67886D02*
X33114Y-66114D01*
X33114Y-66114D02*
X34886Y-66114D01*
X34886Y-66114D02*
X34886Y-67886D01*
X31500Y-62250D02*
X31000Y-62250D01*
X31500Y-61250D02*
X31000Y-61250D01*
X31500Y-61250D02*
X36500Y-61250D01*
X36500Y-61250D02*
X36500Y-62250D01*
X36500Y-62250D02*
X31500Y-62250D01*
X31500Y-61750D02*
G75*
G03X31000Y-61250I-500J0D01*
G74*
G01*
X31000Y-62250D02*
G75*
G03X31500Y-61750I0J500D01*
G74*
G01*
X31000Y-61250D02*
X31000Y-62250D01*
X37613Y-67088D02*
X38086Y-67088D01*
X38086Y-67088D02*
X38086Y-67285D01*
X37613Y-67088D02*
X37613Y-67285D01*
X38086Y-68111D02*
X37613Y-68111D01*
X37613Y-68111D02*
X37613Y-67914D01*
X38086Y-68111D02*
X38086Y-67914D01*
X38261Y-61513D02*
X38261Y-61986D01*
X38261Y-61986D02*
X38064Y-61986D01*
X38261Y-61513D02*
X38064Y-61513D01*
X37238Y-61986D02*
X37238Y-61513D01*
X37238Y-61513D02*
X37435Y-61513D01*
X37238Y-61986D02*
X37435Y-61986D01*
X31324Y-63925D02*
G75*
G03X31324Y-63925I-157J0D01*
G74*
G01*
X28253Y-65106D02*
X28253Y-64791D01*
X28253Y-64791D02*
X29041Y-64791D01*
X28253Y-65106D02*
X28253Y-65421D01*
X28253Y-65421D02*
X29041Y-65421D01*
X29041Y-67271D02*
X29041Y-63728D01*
X29041Y-63728D02*
X30458Y-63728D01*
X30458Y-63728D02*
X30458Y-67271D01*
X30458Y-67271D02*
X29041Y-67271D01*
X38734Y-65106D02*
X36765Y-65106D01*
X38734Y-64712D02*
X36765Y-64712D01*
X36765Y-64712D02*
X36765Y-66287D01*
X36765Y-66287D02*
X38734Y-66287D01*
X38734Y-66287D02*
X38734Y-64712D01*
X38654Y-63815D02*
G75*
G03X38654Y-63815I-139J0D01*
G74*
G01*
X37507Y-69000D02*
G75*
G03X38000Y-69492I492J0D01*
G74*
G01*
X38492Y-69000D02*
G75*
G03X38000Y-68507I-492J0D01*
G74*
G01*
X37409Y-69000D02*
G75*
G03X38000Y-69590I590J0D01*
G74*
G01*
X37311Y-69000D02*
G75*
G03X38000Y-69688I688J0D01*
G74*
G01*
X38590Y-69000D02*
G75*
G03X38000Y-68409I-590J0D01*
G74*
G01*
X38688Y-69000D02*
G75*
G03X38000Y-68311I-688J0D01*
G74*
G01*
X38000Y-69000D02*
X38000Y-69787D01*
X38000Y-69000D02*
X37212Y-69000D01*
X38000Y-68212D02*
X38000Y-69000D01*
X38000Y-69000D02*
X38787Y-69000D01*
X38787Y-69000D02*
G75*
G03X38787Y-69000I-787J0D01*
G74*
G01*
X29507Y-62000D02*
G75*
G03X30000Y-62492I492J0D01*
G74*
G01*
X30492Y-62000D02*
G75*
G03X30000Y-61507I-492J0D01*
G74*
G01*
X29409Y-62000D02*
G75*
G03X30000Y-62590I590J0D01*
G74*
G01*
X29311Y-62000D02*
G75*
G03X30000Y-62688I688J0D01*
G74*
G01*
X30590Y-62000D02*
G75*
G03X30000Y-61409I-590J0D01*
G74*
G01*
X30688Y-62000D02*
G75*
G03X30000Y-61311I-688J0D01*
G74*
G01*
X30000Y-62000D02*
X30000Y-62787D01*
X30000Y-62000D02*
X29212Y-62000D01*
X30000Y-61212D02*
X30000Y-62000D01*
X30000Y-62000D02*
X30787Y-62000D01*
X30787Y-62000D02*
G75*
G03X30787Y-62000I-787J0D01*
G74*
G01*
X29507Y-52000D02*
G75*
G03X30000Y-52492I492J0D01*
G74*
G01*
X30492Y-52000D02*
G75*
G03X30000Y-51507I-492J0D01*
G74*
G01*
X29409Y-52000D02*
G75*
G03X30000Y-52590I590J0D01*
G74*
G01*
X29311Y-52000D02*
G75*
G03X30000Y-52688I688J0D01*
G74*
G01*
X30590Y-52000D02*
G75*
G03X30000Y-51409I-590J0D01*
G74*
G01*
X30688Y-52000D02*
G75*
G03X30000Y-51311I-688J0D01*
G74*
G01*
X30000Y-52000D02*
X30000Y-52787D01*
X30000Y-52000D02*
X29212Y-52000D01*
X30000Y-51212D02*
X30000Y-52000D01*
X30000Y-52000D02*
X30787Y-52000D01*
X30787Y-52000D02*
G75*
G03X30787Y-52000I-787J0D01*
G74*
G01*
X37507Y-59000D02*
G75*
G03X38000Y-59492I492J0D01*
G74*
G01*
X38492Y-59000D02*
G75*
G03X38000Y-58507I-492J0D01*
G74*
G01*
X37409Y-59000D02*
G75*
G03X38000Y-59590I590J0D01*
G74*
G01*
X37311Y-59000D02*
G75*
G03X38000Y-59688I688J0D01*
G74*
G01*
X38590Y-59000D02*
G75*
G03X38000Y-58409I-590J0D01*
G74*
G01*
X38688Y-59000D02*
G75*
G03X38000Y-58311I-688J0D01*
G74*
G01*
X38000Y-59000D02*
X38000Y-59787D01*
X38000Y-59000D02*
X37212Y-59000D01*
X38000Y-58212D02*
X38000Y-59000D01*
X38000Y-59000D02*
X38787Y-59000D01*
X38787Y-59000D02*
G75*
G03X38787Y-59000I-787J0D01*
G74*
G01*
X38734Y-55106D02*
X36765Y-55106D01*
X38734Y-54712D02*
X36765Y-54712D01*
X36765Y-54712D02*
X36765Y-56287D01*
X36765Y-56287D02*
X38734Y-56287D01*
X38734Y-56287D02*
X38734Y-54712D01*
X38654Y-53815D02*
G75*
G03X38654Y-53815I-139J0D01*
G74*
G01*
X31324Y-53925D02*
G75*
G03X31324Y-53925I-157J0D01*
G74*
G01*
X28253Y-55106D02*
X28253Y-54791D01*
X28253Y-54791D02*
X29041Y-54791D01*
X28253Y-55106D02*
X28253Y-55421D01*
X28253Y-55421D02*
X29041Y-55421D01*
X29041Y-57271D02*
X29041Y-53728D01*
X29041Y-53728D02*
X30458Y-53728D01*
X30458Y-53728D02*
X30458Y-57271D01*
X30458Y-57271D02*
X29041Y-57271D01*
X38261Y-51513D02*
X38261Y-51986D01*
X38261Y-51986D02*
X38064Y-51986D01*
X38261Y-51513D02*
X38064Y-51513D01*
X37238Y-51986D02*
X37238Y-51513D01*
X37238Y-51513D02*
X37435Y-51513D01*
X37238Y-51986D02*
X37435Y-51986D01*
X37613Y-57088D02*
X38086Y-57088D01*
X38086Y-57088D02*
X38086Y-57285D01*
X37613Y-57088D02*
X37613Y-57285D01*
X38086Y-58111D02*
X37613Y-58111D01*
X37613Y-58111D02*
X37613Y-57914D01*
X38086Y-58111D02*
X38086Y-57914D01*
X31500Y-52250D02*
X31000Y-52250D01*
X31500Y-51250D02*
X31000Y-51250D01*
X31500Y-51250D02*
X36500Y-51250D01*
X36500Y-51250D02*
X36500Y-52250D01*
X36500Y-52250D02*
X31500Y-52250D01*
X31500Y-51750D02*
G75*
G03X31000Y-51250I-500J0D01*
G74*
G01*
X31000Y-52250D02*
G75*
G03X31500Y-51750I0J500D01*
G74*
G01*
X31000Y-51250D02*
X31000Y-52250D01*
X34500Y-57000D02*
G75*
G03X34500Y-57000I-500J0D01*
G74*
G01*
X36200Y-57900D02*
G75*
G03X36200Y-57900I-200J0D01*
G74*
G01*
X34886Y-57886D02*
X33114Y-57886D01*
X33114Y-57886D02*
X33114Y-56114D01*
X33114Y-56114D02*
X34886Y-56114D01*
X34886Y-56114D02*
X34886Y-57886D01*
X34500Y-54000D02*
G75*
G03X34500Y-54000I-500J0D01*
G74*
G01*
X36200Y-54900D02*
G75*
G03X36200Y-54900I-200J0D01*
G74*
G01*
X34886Y-54886D02*
X33114Y-54886D01*
X33114Y-54886D02*
X33114Y-53114D01*
X33114Y-53114D02*
X34886Y-53114D01*
X34886Y-53114D02*
X34886Y-54886D01*
X31500Y-59750D02*
X31000Y-59750D01*
X31500Y-58750D02*
X31000Y-58750D01*
X31500Y-58750D02*
X36500Y-58750D01*
X36500Y-58750D02*
X36500Y-59750D01*
X36500Y-59750D02*
X31500Y-59750D01*
X31500Y-59250D02*
G75*
G03X31000Y-58750I-500J0D01*
G74*
G01*
X31000Y-59750D02*
G75*
G03X31500Y-59250I0J500D01*
G74*
G01*
X31000Y-58750D02*
X31000Y-59750D01*
X30761Y-59013D02*
X30761Y-59486D01*
X30761Y-59486D02*
X30564Y-59486D01*
X30761Y-59013D02*
X30564Y-59013D01*
X29738Y-59486D02*
X29738Y-59013D01*
X29738Y-59013D02*
X29935Y-59013D01*
X29738Y-59486D02*
X29935Y-59486D01*
X38736Y-58111D02*
X38263Y-58111D01*
X38263Y-58111D02*
X38263Y-57914D01*
X38736Y-58111D02*
X38736Y-57914D01*
X38263Y-57088D02*
X38736Y-57088D01*
X38736Y-57088D02*
X38736Y-57285D01*
X38263Y-57088D02*
X38263Y-57285D01*
X42324Y-43925D02*
G75*
G03X42324Y-43925I-157J0D01*
G74*
G01*
X39253Y-45106D02*
X39253Y-44791D01*
X39253Y-44791D02*
X40041Y-44791D01*
X39253Y-45106D02*
X39253Y-45421D01*
X39253Y-45421D02*
X40041Y-45421D01*
X40041Y-47271D02*
X40041Y-43728D01*
X40041Y-43728D02*
X41458Y-43728D01*
X41458Y-43728D02*
X41458Y-47271D01*
X41458Y-47271D02*
X40041Y-47271D01*
X37011Y-35263D02*
X37011Y-35736D01*
X37011Y-35736D02*
X36814Y-35736D01*
X37011Y-35263D02*
X36814Y-35263D01*
X35988Y-35736D02*
X35988Y-35263D01*
X35988Y-35263D02*
X36185Y-35263D01*
X35988Y-35736D02*
X36185Y-35736D01*
X41511Y-35263D02*
X41511Y-35736D01*
X41511Y-35736D02*
X41314Y-35736D01*
X41511Y-35263D02*
X41314Y-35263D01*
X40488Y-35736D02*
X40488Y-35263D01*
X40488Y-35263D02*
X40685Y-35263D01*
X40488Y-35736D02*
X40685Y-35736D01*
X37488Y-35736D02*
X37488Y-35263D01*
X37488Y-35263D02*
X37685Y-35263D01*
X37488Y-35736D02*
X37685Y-35736D01*
X38511Y-35263D02*
X38511Y-35736D01*
X38511Y-35736D02*
X38314Y-35736D01*
X38511Y-35263D02*
X38314Y-35263D01*
X37011Y-34263D02*
X37011Y-34736D01*
X37011Y-34736D02*
X36814Y-34736D01*
X37011Y-34263D02*
X36814Y-34263D01*
X35988Y-34736D02*
X35988Y-34263D01*
X35988Y-34263D02*
X36185Y-34263D01*
X35988Y-34736D02*
X36185Y-34736D01*
X42055Y-32028D02*
X41721Y-31694D01*
X41721Y-31694D02*
X41860Y-31555D01*
X42055Y-32028D02*
X42194Y-31889D01*
X42444Y-30971D02*
X42778Y-31305D01*
X42778Y-31305D02*
X42639Y-31444D01*
X42444Y-30971D02*
X42305Y-31110D01*
X41944Y-30471D02*
X42278Y-30805D01*
X42278Y-30805D02*
X42139Y-30944D01*
X41944Y-30471D02*
X41805Y-30610D01*
X41555Y-31528D02*
X41221Y-31194D01*
X41221Y-31194D02*
X41360Y-31055D01*
X41555Y-31528D02*
X41694Y-31389D01*
X34523Y-38738D02*
X34523Y-39761D01*
X34523Y-39761D02*
X34129Y-39761D01*
X34523Y-38738D02*
X34129Y-38738D01*
X32476Y-39761D02*
X32476Y-38738D01*
X32476Y-38738D02*
X32870Y-38738D01*
X32476Y-39761D02*
X32870Y-39761D01*
X34523Y-34738D02*
X34523Y-35761D01*
X34523Y-35761D02*
X34129Y-35761D01*
X34523Y-34738D02*
X34129Y-34738D01*
X32476Y-35761D02*
X32476Y-34738D01*
X32476Y-34738D02*
X32870Y-34738D01*
X32476Y-35761D02*
X32870Y-35761D01*
X38486Y-26011D02*
X38013Y-26011D01*
X38013Y-26011D02*
X38013Y-25814D01*
X38486Y-26011D02*
X38486Y-25814D01*
X38013Y-24988D02*
X38486Y-24988D01*
X38486Y-24988D02*
X38486Y-25185D01*
X38013Y-24988D02*
X38013Y-25185D01*
X38736Y-48111D02*
X38263Y-48111D01*
X38263Y-48111D02*
X38263Y-47914D01*
X38736Y-48111D02*
X38736Y-47914D01*
X38263Y-47088D02*
X38736Y-47088D01*
X38736Y-47088D02*
X38736Y-47285D01*
X38263Y-47088D02*
X38263Y-47285D01*
X30761Y-49013D02*
X30761Y-49486D01*
X30761Y-49486D02*
X30564Y-49486D01*
X30761Y-49013D02*
X30564Y-49013D01*
X29738Y-49486D02*
X29738Y-49013D01*
X29738Y-49013D02*
X29935Y-49013D01*
X29738Y-49486D02*
X29935Y-49486D01*
X37281Y-33813D02*
G75*
G03X37281Y-33813I-150J0D01*
G74*
G01*
X37272Y-33278D02*
X37272Y-32721D01*
X37272Y-32721D02*
X39500Y-30494D01*
X39500Y-30494D02*
X42005Y-33000D01*
X42005Y-33000D02*
X39500Y-35505D01*
X39500Y-35505D02*
X37272Y-33278D01*
X31688Y-36344D02*
G75*
G03X31688Y-36344I-157J0D01*
G74*
G01*
X32791Y-35950D02*
X34208Y-35950D01*
X34208Y-35950D02*
X34208Y-38549D01*
X34208Y-38549D02*
X32791Y-38549D01*
X32791Y-38549D02*
X32791Y-35950D01*
X47000Y-40000D02*
X50000Y-40000D01*
X50000Y-39000D02*
X47000Y-39000D01*
X50000Y-39000D02*
X50000Y-40000D01*
X47500Y-39500D02*
G75*
G03X47000Y-39000I-500J0D01*
G74*
G01*
X47000Y-40000D02*
G75*
G03X47500Y-39500I0J500D01*
G74*
G01*
X47000Y-39000D02*
X47000Y-40000D01*
X31500Y-49750D02*
X31000Y-49750D01*
X31500Y-48750D02*
X31000Y-48750D01*
X31500Y-48750D02*
X36500Y-48750D01*
X36500Y-48750D02*
X36500Y-49750D01*
X36500Y-49750D02*
X31500Y-49750D01*
X31500Y-49250D02*
G75*
G03X31000Y-48750I-500J0D01*
G74*
G01*
X31000Y-49750D02*
G75*
G03X31500Y-49250I0J500D01*
G74*
G01*
X31000Y-48750D02*
X31000Y-49750D01*
X34500Y-44000D02*
G75*
G03X34500Y-44000I-500J0D01*
G74*
G01*
X36200Y-44900D02*
G75*
G03X36200Y-44900I-200J0D01*
G74*
G01*
X34886Y-44886D02*
X33114Y-44886D01*
X33114Y-44886D02*
X33114Y-43114D01*
X33114Y-43114D02*
X34886Y-43114D01*
X34886Y-43114D02*
X34886Y-44886D01*
X34500Y-47000D02*
G75*
G03X34500Y-47000I-500J0D01*
G74*
G01*
X36200Y-47900D02*
G75*
G03X36200Y-47900I-200J0D01*
G74*
G01*
X34886Y-47886D02*
X33114Y-47886D01*
X33114Y-47886D02*
X33114Y-46114D01*
X33114Y-46114D02*
X34886Y-46114D01*
X34886Y-46114D02*
X34886Y-47886D01*
G54D12*
X42828Y-35854D02*
X43025Y-35854D01*
X42671Y-35854D02*
X42474Y-35854D01*
X42828Y-35854D02*
X42671Y-35933D01*
X42671Y-35933D02*
X42671Y-35775D01*
X42671Y-35775D02*
X42828Y-35854D01*
X42828Y-35775D02*
X42828Y-35933D01*
G54D13*
X43261Y-35263D02*
X43261Y-35736D01*
X43261Y-35736D02*
X43064Y-35736D01*
X43261Y-35263D02*
X43064Y-35263D01*
X42238Y-35736D02*
X42238Y-35263D01*
X42238Y-35263D02*
X42435Y-35263D01*
X42238Y-35736D02*
X42435Y-35736D01*
G54D12*
X47421Y-37145D02*
X47224Y-37145D01*
X47578Y-37145D02*
X47775Y-37145D01*
X47421Y-37145D02*
X47578Y-37066D01*
X47578Y-37066D02*
X47578Y-37224D01*
X47578Y-37224D02*
X47421Y-37145D01*
X47421Y-37224D02*
X47421Y-37066D01*
G54D13*
X46988Y-37736D02*
X46988Y-37263D01*
X46988Y-37263D02*
X47185Y-37263D01*
X46988Y-37736D02*
X47185Y-37736D01*
X48011Y-37263D02*
X48011Y-37736D01*
X48011Y-37736D02*
X47814Y-37736D01*
X48011Y-37263D02*
X47814Y-37263D01*
G54D11*
X29000Y-40000D02*
X32000Y-40000D01*
X32000Y-39000D02*
X29000Y-39000D01*
X32000Y-39000D02*
X32000Y-40000D01*
X29500Y-39500D02*
G75*
G03X29000Y-39000I-500J0D01*
G74*
G01*
X29000Y-40000D02*
G75*
G03X29500Y-39500I0J500D01*
G74*
G01*
X29000Y-39000D02*
X29000Y-40000D01*
G54D14*
X44041Y-35400D02*
G75*
G03X44041Y-35400I-141J0D01*
G74*
G01*
X46000Y-35500D02*
X44000Y-35500D01*
X44000Y-35500D02*
X44000Y-38500D01*
X44000Y-38500D02*
X46000Y-38500D01*
X46000Y-38500D02*
X46000Y-35500D01*
G54D11*
X39000Y-23250D02*
X39000Y-29750D01*
X40000Y-29750D02*
X40000Y-23250D01*
X39000Y-23250D02*
X40000Y-23250D01*
X39500Y-29250D02*
G75*
G03X39000Y-29750I0J-500D01*
G74*
G01*
X40000Y-29750D02*
G75*
G03X39500Y-29250I-500J0D01*
G74*
G01*
X39000Y-29750D02*
X40000Y-29750D01*
X37000Y-39750D02*
X36500Y-39750D01*
X37000Y-38750D02*
X36500Y-38750D01*
X37000Y-38750D02*
X42000Y-38750D01*
X42000Y-38750D02*
X42000Y-39750D01*
X42000Y-39750D02*
X37000Y-39750D01*
X37000Y-39250D02*
G75*
G03X36500Y-38750I-500J0D01*
G74*
G01*
X36500Y-39750D02*
G75*
G03X37000Y-39250I0J500D01*
G74*
G01*
X36500Y-38750D02*
X36500Y-39750D01*
X35716Y-28864D02*
X35966Y-28431D01*
X36583Y-29364D02*
X36833Y-28931D01*
X36583Y-29364D02*
X34083Y-33695D01*
X34083Y-33695D02*
X33216Y-33195D01*
X33216Y-33195D02*
X35716Y-28864D01*
X36150Y-29114D02*
G75*
G03X36833Y-28931I250J433D01*
G74*
G01*
X35966Y-28431D02*
G75*
G03X36150Y-29114I433J-250D01*
G74*
G01*
X36833Y-28931D02*
X35966Y-28431D01*
X45783Y-33195D02*
X46033Y-33628D01*
X44916Y-33695D02*
X45166Y-34128D01*
X44916Y-33695D02*
X42416Y-29364D01*
X42416Y-29364D02*
X43283Y-28864D01*
X43283Y-28864D02*
X45783Y-33195D01*
X45350Y-33445D02*
G75*
G03X45166Y-34128I250J-433D01*
G74*
G01*
X46033Y-33628D02*
G75*
G03X45350Y-33445I-433J-250D01*
G74*
G01*
X45166Y-34128D02*
X46033Y-33628D01*
X31500Y-42250D02*
X31000Y-42250D01*
X31500Y-41250D02*
X31000Y-41250D01*
X31500Y-41250D02*
X36500Y-41250D01*
X36500Y-41250D02*
X36500Y-42250D01*
X36500Y-42250D02*
X31500Y-42250D01*
X31500Y-41750D02*
G75*
G03X31000Y-41250I-500J0D01*
G74*
G01*
X31000Y-42250D02*
G75*
G03X31500Y-41750I0J500D01*
G74*
G01*
X31000Y-41250D02*
X31000Y-42250D01*
X37261Y-31513D02*
X37261Y-31986D01*
X37261Y-31986D02*
X37064Y-31986D01*
X37261Y-31513D02*
X37064Y-31513D01*
X36238Y-31986D02*
X36238Y-31513D01*
X36238Y-31513D02*
X36435Y-31513D01*
X36238Y-31986D02*
X36435Y-31986D01*
X38011Y-30763D02*
X38011Y-31236D01*
X38011Y-31236D02*
X37814Y-31236D01*
X38011Y-30763D02*
X37814Y-30763D01*
X36988Y-31236D02*
X36988Y-30763D01*
X36988Y-30763D02*
X37185Y-30763D01*
X36988Y-31236D02*
X37185Y-31236D01*
X38761Y-30013D02*
X38761Y-30486D01*
X38761Y-30486D02*
X38564Y-30486D01*
X38761Y-30013D02*
X38564Y-30013D01*
X37738Y-30486D02*
X37738Y-30013D01*
X37738Y-30013D02*
X37935Y-30013D01*
X37738Y-30486D02*
X37935Y-30486D01*
X37613Y-47088D02*
X38086Y-47088D01*
X38086Y-47088D02*
X38086Y-47285D01*
X37613Y-47088D02*
X37613Y-47285D01*
X38086Y-48111D02*
X37613Y-48111D01*
X37613Y-48111D02*
X37613Y-47914D01*
X38086Y-48111D02*
X38086Y-47914D01*
X38261Y-41513D02*
X38261Y-41986D01*
X38261Y-41986D02*
X38064Y-41986D01*
X38261Y-41513D02*
X38064Y-41513D01*
X37238Y-41986D02*
X37238Y-41513D01*
X37238Y-41513D02*
X37435Y-41513D01*
X37238Y-41986D02*
X37435Y-41986D01*
X43261Y-34513D02*
X43261Y-34986D01*
X43261Y-34986D02*
X43064Y-34986D01*
X43261Y-34513D02*
X43064Y-34513D01*
X42238Y-34986D02*
X42238Y-34513D01*
X42238Y-34513D02*
X42435Y-34513D01*
X42238Y-34986D02*
X42435Y-34986D01*
X46988Y-38486D02*
X46988Y-38013D01*
X46988Y-38013D02*
X47185Y-38013D01*
X46988Y-38486D02*
X47185Y-38486D01*
X48011Y-38013D02*
X48011Y-38486D01*
X48011Y-38486D02*
X47814Y-38486D01*
X48011Y-38013D02*
X47814Y-38013D01*
X31324Y-43925D02*
G75*
G03X31324Y-43925I-157J0D01*
G74*
G01*
X28253Y-45106D02*
X28253Y-44791D01*
X28253Y-44791D02*
X29041Y-44791D01*
X28253Y-45106D02*
X28253Y-45421D01*
X28253Y-45421D02*
X29041Y-45421D01*
X29041Y-47271D02*
X29041Y-43728D01*
X29041Y-43728D02*
X30458Y-43728D01*
X30458Y-43728D02*
X30458Y-47271D01*
X30458Y-47271D02*
X29041Y-47271D01*
X37250Y-36000D02*
X41750Y-36000D01*
X41750Y-36000D02*
X41750Y-38000D01*
X41750Y-38000D02*
X37250Y-38000D01*
X37250Y-38000D02*
X37250Y-36000D01*
X40681Y-37984D02*
X38318Y-37984D01*
X38318Y-36015D02*
X40681Y-36015D01*
X38318Y-36015D02*
G75*
G03X37334Y-37000I0J-984D01*
G74*
G01*
X37334Y-37000D02*
G75*
G03X38318Y-37984I984J0D01*
G74*
G01*
X40681Y-37984D02*
G75*
G03X41665Y-37000I0J984D01*
G74*
G01*
X41665Y-37000D02*
G75*
G03X40681Y-36015I-984J0D01*
G74*
G01*
X38734Y-45106D02*
X36765Y-45106D01*
X38734Y-44712D02*
X36765Y-44712D01*
X36765Y-44712D02*
X36765Y-46287D01*
X36765Y-46287D02*
X38734Y-46287D01*
X38734Y-46287D02*
X38734Y-44712D01*
X38654Y-43815D02*
G75*
G03X38654Y-43815I-139J0D01*
G74*
G01*
X41500Y-30000D02*
X41500Y-30500D01*
X40500Y-30000D02*
X40500Y-30500D01*
X40500Y-30000D02*
X40500Y-25000D01*
X40500Y-25000D02*
X41500Y-25000D01*
X41500Y-25000D02*
X41500Y-30000D01*
X41000Y-30000D02*
G75*
G03X40500Y-30500I0J-500D01*
G74*
G01*
X41500Y-30500D02*
G75*
G03X41000Y-30000I-500J0D01*
G74*
G01*
X40500Y-30500D02*
X41500Y-30500D01*
X35257Y-33250D02*
G75*
G03X35750Y-33742I492J0D01*
G74*
G01*
X36242Y-33250D02*
G75*
G03X35750Y-32757I-492J0D01*
G74*
G01*
X35159Y-33250D02*
G75*
G03X35750Y-33840I590J0D01*
G74*
G01*
X35061Y-33250D02*
G75*
G03X35750Y-33938I688J0D01*
G74*
G01*
X36340Y-33250D02*
G75*
G03X35750Y-32659I-590J0D01*
G74*
G01*
X36438Y-33250D02*
G75*
G03X35750Y-32561I-688J0D01*
G74*
G01*
X35750Y-33250D02*
X35750Y-34037D01*
X35750Y-33250D02*
X34962Y-33250D01*
X35750Y-32462D02*
X35750Y-33250D01*
X35750Y-33250D02*
X36537Y-33250D01*
X36537Y-33250D02*
G75*
G03X36537Y-33250I-787J0D01*
G74*
G01*
X42757Y-33250D02*
G75*
G03X43250Y-33742I492J0D01*
G74*
G01*
X43742Y-33250D02*
G75*
G03X43250Y-32757I-492J0D01*
G74*
G01*
X42659Y-33250D02*
G75*
G03X43250Y-33840I590J0D01*
G74*
G01*
X42561Y-33250D02*
G75*
G03X43250Y-33938I688J0D01*
G74*
G01*
X43840Y-33250D02*
G75*
G03X43250Y-32659I-590J0D01*
G74*
G01*
X43938Y-33250D02*
G75*
G03X43250Y-32561I-688J0D01*
G74*
G01*
X43250Y-33250D02*
X43250Y-34037D01*
X43250Y-33250D02*
X42462Y-33250D01*
X43250Y-32462D02*
X43250Y-33250D01*
X43250Y-33250D02*
X44037Y-33250D01*
X44037Y-33250D02*
G75*
G03X44037Y-33250I-787J0D01*
G74*
G01*
X37507Y-49000D02*
G75*
G03X38000Y-49492I492J0D01*
G74*
G01*
X38492Y-49000D02*
G75*
G03X38000Y-48507I-492J0D01*
G74*
G01*
X37409Y-49000D02*
G75*
G03X38000Y-49590I590J0D01*
G74*
G01*
X37311Y-49000D02*
G75*
G03X38000Y-49688I688J0D01*
G74*
G01*
X38590Y-49000D02*
G75*
G03X38000Y-48409I-590J0D01*
G74*
G01*
X38688Y-49000D02*
G75*
G03X38000Y-48311I-688J0D01*
G74*
G01*
X38000Y-49000D02*
X38000Y-49787D01*
X38000Y-49000D02*
X37212Y-49000D01*
X38000Y-48212D02*
X38000Y-49000D01*
X38000Y-49000D02*
X38787Y-49000D01*
X38787Y-49000D02*
G75*
G03X38787Y-49000I-787J0D01*
G74*
G01*
X29507Y-42000D02*
G75*
G03X30000Y-42492I492J0D01*
G74*
G01*
X30492Y-42000D02*
G75*
G03X30000Y-41507I-492J0D01*
G74*
G01*
X29409Y-42000D02*
G75*
G03X30000Y-42590I590J0D01*
G74*
G01*
X29311Y-42000D02*
G75*
G03X30000Y-42688I688J0D01*
G74*
G01*
X30590Y-42000D02*
G75*
G03X30000Y-41409I-590J0D01*
G74*
G01*
X30688Y-42000D02*
G75*
G03X30000Y-41311I-688J0D01*
G74*
G01*
X30000Y-42000D02*
X30000Y-42787D01*
X30000Y-42000D02*
X29212Y-42000D01*
X30000Y-41212D02*
X30000Y-42000D01*
X30000Y-42000D02*
X30787Y-42000D01*
X30787Y-42000D02*
G75*
G03X30787Y-42000I-787J0D01*
G74*
G01*
G54D10*
X47635Y-45792D02*
X47335Y-45792D01*
X47607Y-45478D02*
X47621Y-45492D01*
X47635Y-45535D01*
X47635Y-45564D01*
X47621Y-45607D01*
X47592Y-45635D01*
X47564Y-45649D01*
X47507Y-45664D01*
X47464Y-45664D01*
X47407Y-45649D01*
X47378Y-45635D01*
X47350Y-45607D01*
X47335Y-45564D01*
X47335Y-45535D01*
X47350Y-45492D01*
X47364Y-45478D01*
X47335Y-45378D02*
X47335Y-45192D01*
X47450Y-45292D01*
X47450Y-45249D01*
X47464Y-45221D01*
X47478Y-45207D01*
X47507Y-45192D01*
X47578Y-45192D01*
X47607Y-45207D01*
X47621Y-45221D01*
X47635Y-45249D01*
X47635Y-45335D01*
X47621Y-45364D01*
X47607Y-45378D01*
X47821Y-45335D02*
X47992Y-45335D01*
X47907Y-45635D02*
X47907Y-45335D01*
X48235Y-45635D02*
X48092Y-45635D01*
X48092Y-45335D01*
X48507Y-45607D02*
X48492Y-45621D01*
X48450Y-45635D01*
X48421Y-45635D01*
X48378Y-45621D01*
X48350Y-45592D01*
X48335Y-45564D01*
X48321Y-45507D01*
X48321Y-45464D01*
X48335Y-45407D01*
X48350Y-45378D01*
X48378Y-45350D01*
X48421Y-45335D01*
X48450Y-45335D01*
X48492Y-45350D01*
X48507Y-45364D01*
X48778Y-45335D02*
X48635Y-45335D01*
X48621Y-45478D01*
X48635Y-45464D01*
X48664Y-45450D01*
X48735Y-45450D01*
X48764Y-45464D01*
X48778Y-45478D01*
X48792Y-45507D01*
X48792Y-45578D01*
X48778Y-45607D01*
X48764Y-45621D01*
X48735Y-45635D01*
X48664Y-45635D01*
X48635Y-45621D01*
X48621Y-45607D01*
X48935Y-45635D02*
X48992Y-45635D01*
X49021Y-45621D01*
X49035Y-45607D01*
X49064Y-45564D01*
X49078Y-45507D01*
X49078Y-45392D01*
X49064Y-45364D01*
X49050Y-45350D01*
X49021Y-45335D01*
X48964Y-45335D01*
X48935Y-45350D01*
X48921Y-45364D01*
X48907Y-45392D01*
X48907Y-45464D01*
X48921Y-45492D01*
X48935Y-45507D01*
X48964Y-45521D01*
X49021Y-45521D01*
X49050Y-45507D01*
X49064Y-45492D01*
X49078Y-45464D01*
X49178Y-45335D02*
X49378Y-45335D01*
X49250Y-45635D01*
X49464Y-45335D02*
X49649Y-45335D01*
X49549Y-45450D01*
X49592Y-45450D01*
X49621Y-45464D01*
X49635Y-45478D01*
X49649Y-45507D01*
X49649Y-45578D01*
X49635Y-45607D01*
X49621Y-45621D01*
X49592Y-45635D01*
X49507Y-45635D01*
X49478Y-45621D01*
X49464Y-45607D01*
X48700Y-42385D02*
X48600Y-42242D01*
X48528Y-42385D02*
X48528Y-42085D01*
X48642Y-42085D01*
X48671Y-42100D01*
X48685Y-42114D01*
X48700Y-42142D01*
X48700Y-42185D01*
X48685Y-42214D01*
X48671Y-42228D01*
X48642Y-42242D01*
X48528Y-42242D01*
X48971Y-42085D02*
X48828Y-42085D01*
X48814Y-42228D01*
X48828Y-42214D01*
X48857Y-42200D01*
X48928Y-42200D01*
X48957Y-42214D01*
X48971Y-42228D01*
X48985Y-42257D01*
X48985Y-42328D01*
X48971Y-42357D01*
X48957Y-42371D01*
X48928Y-42385D01*
X48857Y-42385D01*
X48828Y-42371D01*
X48814Y-42357D01*
X48542Y-42885D02*
X48371Y-42885D01*
X48457Y-42885D02*
X48457Y-42585D01*
X48428Y-42628D01*
X48400Y-42657D01*
X48371Y-42671D01*
X48671Y-42885D02*
X48671Y-42585D01*
X48700Y-42771D02*
X48785Y-42885D01*
X48785Y-42685D02*
X48671Y-42800D01*
X48900Y-42885D02*
X48971Y-42885D01*
X48971Y-42828D01*
X48942Y-42814D01*
X48914Y-42785D01*
X48900Y-42742D01*
X48900Y-42671D01*
X48914Y-42628D01*
X48942Y-42600D01*
X48985Y-42585D01*
X49042Y-42585D01*
X49085Y-42600D01*
X49114Y-42628D01*
X49128Y-42671D01*
X49128Y-42742D01*
X49114Y-42785D01*
X49085Y-42814D01*
X49057Y-42828D01*
X49057Y-42885D01*
X49128Y-42885D01*
X47185Y-47300D02*
X47042Y-47400D01*
X47185Y-47471D02*
X46885Y-47471D01*
X46885Y-47357D01*
X46900Y-47328D01*
X46914Y-47314D01*
X46942Y-47300D01*
X46985Y-47300D01*
X47014Y-47314D01*
X47028Y-47328D01*
X47042Y-47357D01*
X47042Y-47471D01*
X46985Y-47042D02*
X47185Y-47042D01*
X46871Y-47114D02*
X47085Y-47185D01*
X47085Y-47000D01*
X47764Y-47978D02*
X47750Y-47964D01*
X47735Y-47935D01*
X47735Y-47864D01*
X47750Y-47835D01*
X47764Y-47821D01*
X47792Y-47807D01*
X47821Y-47807D01*
X47864Y-47821D01*
X48035Y-47992D01*
X48035Y-47807D01*
X48035Y-47678D02*
X47735Y-47678D01*
X47921Y-47650D02*
X48035Y-47564D01*
X47835Y-47564D02*
X47950Y-47678D01*
X48035Y-47450D02*
X48035Y-47378D01*
X47978Y-47378D01*
X47964Y-47407D01*
X47935Y-47435D01*
X47892Y-47450D01*
X47821Y-47450D01*
X47778Y-47435D01*
X47750Y-47407D01*
X47735Y-47364D01*
X47735Y-47307D01*
X47750Y-47264D01*
X47778Y-47235D01*
X47821Y-47221D01*
X47892Y-47221D01*
X47935Y-47235D01*
X47964Y-47264D01*
X47978Y-47292D01*
X48035Y-47292D01*
X48035Y-47221D01*
X42028Y-42885D02*
X42028Y-42585D01*
X42142Y-42585D01*
X42171Y-42600D01*
X42185Y-42614D01*
X42200Y-42642D01*
X42200Y-42685D01*
X42185Y-42714D01*
X42171Y-42728D01*
X42142Y-42742D01*
X42028Y-42742D01*
X42300Y-42585D02*
X42500Y-42585D01*
X42371Y-42885D01*
X43578Y-42635D02*
X43435Y-42635D01*
X43435Y-42335D01*
X43678Y-42478D02*
X43778Y-42478D01*
X43821Y-42635D02*
X43678Y-42635D01*
X43678Y-42335D01*
X43821Y-42335D01*
X43950Y-42635D02*
X43950Y-42335D01*
X44021Y-42335D01*
X44064Y-42350D01*
X44092Y-42378D01*
X44107Y-42407D01*
X44121Y-42464D01*
X44121Y-42507D01*
X44107Y-42564D01*
X44092Y-42592D01*
X44064Y-42621D01*
X44021Y-42635D01*
X43950Y-42635D01*
X44178Y-42664D02*
X44407Y-42664D01*
X44650Y-42607D02*
X44635Y-42621D01*
X44592Y-42635D01*
X44564Y-42635D01*
X44521Y-42621D01*
X44492Y-42592D01*
X44478Y-42564D01*
X44464Y-42507D01*
X44464Y-42464D01*
X44478Y-42407D01*
X44492Y-42378D01*
X44521Y-42350D01*
X44564Y-42335D01*
X44592Y-42335D01*
X44635Y-42350D01*
X44650Y-42364D01*
X44764Y-42550D02*
X44907Y-42550D01*
X44735Y-42635D02*
X44835Y-42335D01*
X44935Y-42635D01*
X45207Y-42635D02*
X45107Y-42492D01*
X45035Y-42635D02*
X45035Y-42335D01*
X45150Y-42335D01*
X45178Y-42350D01*
X45192Y-42364D01*
X45207Y-42392D01*
X45207Y-42435D01*
X45192Y-42464D01*
X45178Y-42478D01*
X45150Y-42492D01*
X45035Y-42492D01*
X45335Y-42635D02*
X45335Y-42335D01*
X45407Y-42335D01*
X45450Y-42350D01*
X45478Y-42378D01*
X45492Y-42407D01*
X45507Y-42464D01*
X45507Y-42507D01*
X45492Y-42564D01*
X45478Y-42592D01*
X45450Y-42621D01*
X45407Y-42635D01*
X45335Y-42635D01*
X45564Y-42664D02*
X45792Y-42664D01*
X45821Y-42335D02*
X45992Y-42335D01*
X45907Y-42635D02*
X45907Y-42335D01*
X46149Y-42335D02*
X46207Y-42335D01*
X46235Y-42350D01*
X46264Y-42378D01*
X46278Y-42435D01*
X46278Y-42535D01*
X46264Y-42592D01*
X46235Y-42621D01*
X46207Y-42635D01*
X46149Y-42635D01*
X46121Y-42621D01*
X46092Y-42592D01*
X46078Y-42535D01*
X46078Y-42435D01*
X46092Y-42378D01*
X46121Y-42350D01*
X46149Y-42335D01*
X46407Y-42635D02*
X46407Y-42335D01*
X46521Y-42335D01*
X46550Y-42350D01*
X46564Y-42364D01*
X46578Y-42392D01*
X46578Y-42435D01*
X46564Y-42464D01*
X46550Y-42478D01*
X46521Y-42492D01*
X46407Y-42492D01*
X44664Y-47135D02*
X44521Y-47135D01*
X44521Y-46835D01*
X44764Y-46978D02*
X44864Y-46978D01*
X44907Y-47135D02*
X44764Y-47135D01*
X44764Y-46835D01*
X44907Y-46835D01*
X45035Y-47135D02*
X45035Y-46835D01*
X45107Y-46835D01*
X45150Y-46850D01*
X45178Y-46878D01*
X45192Y-46907D01*
X45207Y-46964D01*
X45207Y-47007D01*
X45192Y-47064D01*
X45178Y-47092D01*
X45150Y-47121D01*
X45107Y-47135D01*
X45035Y-47135D01*
X45321Y-46864D02*
X45335Y-46850D01*
X45364Y-46835D01*
X45435Y-46835D01*
X45464Y-46850D01*
X45478Y-46864D01*
X45492Y-46892D01*
X45492Y-46921D01*
X45478Y-46964D01*
X45307Y-47135D01*
X45492Y-47135D01*
X44664Y-44135D02*
X44521Y-44135D01*
X44521Y-43835D01*
X44764Y-43978D02*
X44864Y-43978D01*
X44907Y-44135D02*
X44764Y-44135D01*
X44764Y-43835D01*
X44907Y-43835D01*
X45035Y-44135D02*
X45035Y-43835D01*
X45107Y-43835D01*
X45150Y-43850D01*
X45178Y-43878D01*
X45192Y-43907D01*
X45207Y-43964D01*
X45207Y-44007D01*
X45192Y-44064D01*
X45178Y-44092D01*
X45150Y-44121D01*
X45107Y-44135D01*
X45035Y-44135D01*
X45492Y-44135D02*
X45321Y-44135D01*
X45407Y-44135D02*
X45407Y-43835D01*
X45378Y-43878D01*
X45350Y-43907D01*
X45321Y-43921D01*
X42150Y-48335D02*
X42150Y-48550D01*
X42135Y-48592D01*
X42107Y-48621D01*
X42064Y-48635D01*
X42035Y-48635D01*
X42278Y-48364D02*
X42292Y-48350D01*
X42321Y-48335D01*
X42392Y-48335D01*
X42421Y-48350D01*
X42435Y-48364D01*
X42450Y-48392D01*
X42450Y-48421D01*
X42435Y-48464D01*
X42264Y-48635D01*
X42450Y-48635D01*
X43135Y-48635D02*
X42992Y-48635D01*
X42992Y-48335D01*
X43235Y-48478D02*
X43335Y-48478D01*
X43378Y-48635D02*
X43235Y-48635D01*
X43235Y-48335D01*
X43378Y-48335D01*
X43507Y-48635D02*
X43507Y-48335D01*
X43578Y-48335D01*
X43621Y-48350D01*
X43650Y-48378D01*
X43664Y-48407D01*
X43678Y-48464D01*
X43678Y-48507D01*
X43664Y-48564D01*
X43650Y-48592D01*
X43621Y-48621D01*
X43578Y-48635D01*
X43507Y-48635D01*
X43735Y-48664D02*
X43964Y-48664D01*
X44207Y-48607D02*
X44192Y-48621D01*
X44150Y-48635D01*
X44121Y-48635D01*
X44078Y-48621D01*
X44050Y-48592D01*
X44035Y-48564D01*
X44021Y-48507D01*
X44021Y-48464D01*
X44035Y-48407D01*
X44050Y-48378D01*
X44078Y-48350D01*
X44121Y-48335D01*
X44150Y-48335D01*
X44192Y-48350D01*
X44207Y-48364D01*
X44321Y-48550D02*
X44464Y-48550D01*
X44292Y-48635D02*
X44392Y-48335D01*
X44492Y-48635D01*
X44764Y-48635D02*
X44664Y-48492D01*
X44592Y-48635D02*
X44592Y-48335D01*
X44707Y-48335D01*
X44735Y-48350D01*
X44750Y-48364D01*
X44764Y-48392D01*
X44764Y-48435D01*
X44750Y-48464D01*
X44735Y-48478D01*
X44707Y-48492D01*
X44592Y-48492D01*
X44892Y-48635D02*
X44892Y-48335D01*
X44964Y-48335D01*
X45007Y-48350D01*
X45035Y-48378D01*
X45050Y-48407D01*
X45064Y-48464D01*
X45064Y-48507D01*
X45050Y-48564D01*
X45035Y-48592D01*
X45007Y-48621D01*
X44964Y-48635D01*
X44892Y-48635D01*
X45121Y-48664D02*
X45350Y-48664D01*
X45521Y-48478D02*
X45564Y-48492D01*
X45578Y-48507D01*
X45592Y-48535D01*
X45592Y-48578D01*
X45578Y-48607D01*
X45564Y-48621D01*
X45535Y-48635D01*
X45421Y-48635D01*
X45421Y-48335D01*
X45521Y-48335D01*
X45550Y-48350D01*
X45564Y-48364D01*
X45578Y-48392D01*
X45578Y-48421D01*
X45564Y-48450D01*
X45550Y-48464D01*
X45521Y-48478D01*
X45421Y-48478D01*
X45778Y-48335D02*
X45835Y-48335D01*
X45864Y-48350D01*
X45892Y-48378D01*
X45907Y-48435D01*
X45907Y-48535D01*
X45892Y-48592D01*
X45864Y-48621D01*
X45835Y-48635D01*
X45778Y-48635D01*
X45750Y-48621D01*
X45721Y-48592D01*
X45707Y-48535D01*
X45707Y-48435D01*
X45721Y-48378D01*
X45750Y-48350D01*
X45778Y-48335D01*
X45992Y-48335D02*
X46164Y-48335D01*
X46078Y-48635D02*
X46078Y-48335D01*
X46221Y-48335D02*
X46392Y-48335D01*
X46307Y-48635D02*
X46307Y-48335D01*
X46549Y-48335D02*
X46607Y-48335D01*
X46635Y-48350D01*
X46664Y-48378D01*
X46678Y-48435D01*
X46678Y-48535D01*
X46664Y-48592D01*
X46635Y-48621D01*
X46607Y-48635D01*
X46549Y-48635D01*
X46521Y-48621D01*
X46492Y-48592D01*
X46478Y-48535D01*
X46478Y-48435D01*
X46492Y-48378D01*
X46521Y-48350D01*
X46549Y-48335D01*
X46807Y-48635D02*
X46807Y-48335D01*
X46907Y-48550D01*
X47007Y-48335D01*
X47007Y-48635D01*
X41057Y-48357D02*
X41042Y-48371D01*
X41000Y-48385D01*
X40971Y-48385D01*
X40928Y-48371D01*
X40900Y-48342D01*
X40885Y-48314D01*
X40871Y-48257D01*
X40871Y-48214D01*
X40885Y-48157D01*
X40900Y-48128D01*
X40928Y-48100D01*
X40971Y-48085D01*
X41000Y-48085D01*
X41042Y-48100D01*
X41057Y-48114D01*
X41342Y-48385D02*
X41171Y-48385D01*
X41257Y-48385D02*
X41257Y-48085D01*
X41228Y-48128D01*
X41200Y-48157D01*
X41171Y-48171D01*
X41628Y-48385D02*
X41457Y-48385D01*
X41542Y-48385D02*
X41542Y-48085D01*
X41514Y-48128D01*
X41485Y-48157D01*
X41457Y-48171D01*
X40757Y-48585D02*
X40785Y-48585D01*
X40814Y-48600D01*
X40828Y-48614D01*
X40842Y-48642D01*
X40857Y-48700D01*
X40857Y-48771D01*
X40842Y-48828D01*
X40828Y-48857D01*
X40814Y-48871D01*
X40785Y-48885D01*
X40757Y-48885D01*
X40728Y-48871D01*
X40714Y-48857D01*
X40700Y-48828D01*
X40685Y-48771D01*
X40685Y-48700D01*
X40700Y-48642D01*
X40714Y-48614D01*
X40728Y-48600D01*
X40757Y-48585D01*
X40985Y-48857D02*
X41000Y-48871D01*
X40985Y-48885D01*
X40971Y-48871D01*
X40985Y-48857D01*
X40985Y-48885D01*
X41285Y-48885D02*
X41114Y-48885D01*
X41200Y-48885D02*
X41200Y-48585D01*
X41171Y-48628D01*
X41142Y-48657D01*
X41114Y-48671D01*
X41542Y-48685D02*
X41542Y-48885D01*
X41414Y-48685D02*
X41414Y-48842D01*
X41428Y-48871D01*
X41457Y-48885D01*
X41500Y-48885D01*
X41528Y-48871D01*
X41542Y-48857D01*
X41785Y-48728D02*
X41685Y-48728D01*
X41685Y-48885D02*
X41685Y-48585D01*
X41828Y-48585D01*
X47607Y-47442D02*
X47621Y-47457D01*
X47635Y-47500D01*
X47635Y-47528D01*
X47621Y-47571D01*
X47592Y-47600D01*
X47564Y-47614D01*
X47507Y-47628D01*
X47464Y-47628D01*
X47407Y-47614D01*
X47378Y-47600D01*
X47350Y-47571D01*
X47335Y-47528D01*
X47335Y-47500D01*
X47350Y-47457D01*
X47364Y-47442D01*
X47635Y-47157D02*
X47635Y-47328D01*
X47635Y-47242D02*
X47335Y-47242D01*
X47378Y-47271D01*
X47407Y-47300D01*
X47421Y-47328D01*
X47335Y-46971D02*
X47335Y-46942D01*
X47350Y-46914D01*
X47364Y-46900D01*
X47392Y-46885D01*
X47450Y-46871D01*
X47521Y-46871D01*
X47578Y-46885D01*
X47607Y-46900D01*
X47621Y-46914D01*
X47635Y-46942D01*
X47635Y-46971D01*
X47621Y-47000D01*
X47607Y-47014D01*
X47578Y-47028D01*
X47521Y-47042D01*
X47450Y-47042D01*
X47392Y-47028D01*
X47364Y-47014D01*
X47350Y-47000D01*
X47335Y-46971D01*
X48185Y-48092D02*
X48185Y-48064D01*
X48200Y-48035D01*
X48214Y-48021D01*
X48242Y-48007D01*
X48300Y-47992D01*
X48371Y-47992D01*
X48428Y-48007D01*
X48457Y-48021D01*
X48471Y-48035D01*
X48485Y-48064D01*
X48485Y-48092D01*
X48471Y-48121D01*
X48457Y-48135D01*
X48428Y-48149D01*
X48371Y-48164D01*
X48300Y-48164D01*
X48242Y-48149D01*
X48214Y-48135D01*
X48200Y-48121D01*
X48185Y-48092D01*
X48457Y-47864D02*
X48471Y-47850D01*
X48485Y-47864D01*
X48471Y-47878D01*
X48457Y-47864D01*
X48485Y-47864D01*
X48485Y-47564D02*
X48485Y-47735D01*
X48485Y-47650D02*
X48185Y-47650D01*
X48228Y-47678D01*
X48257Y-47707D01*
X48271Y-47735D01*
X48285Y-47307D02*
X48485Y-47307D01*
X48285Y-47435D02*
X48442Y-47435D01*
X48471Y-47421D01*
X48485Y-47392D01*
X48485Y-47350D01*
X48471Y-47321D01*
X48457Y-47307D01*
X48328Y-47064D02*
X48328Y-47164D01*
X48485Y-47164D02*
X48185Y-47164D01*
X48185Y-47021D01*
X47607Y-57442D02*
X47621Y-57457D01*
X47635Y-57500D01*
X47635Y-57528D01*
X47621Y-57571D01*
X47592Y-57600D01*
X47564Y-57614D01*
X47507Y-57628D01*
X47464Y-57628D01*
X47407Y-57614D01*
X47378Y-57600D01*
X47350Y-57571D01*
X47335Y-57528D01*
X47335Y-57500D01*
X47350Y-57457D01*
X47364Y-57442D01*
X47635Y-57157D02*
X47635Y-57328D01*
X47635Y-57242D02*
X47335Y-57242D01*
X47378Y-57271D01*
X47407Y-57300D01*
X47421Y-57328D01*
X47335Y-56971D02*
X47335Y-56942D01*
X47350Y-56914D01*
X47364Y-56900D01*
X47392Y-56885D01*
X47450Y-56871D01*
X47521Y-56871D01*
X47578Y-56885D01*
X47607Y-56900D01*
X47621Y-56914D01*
X47635Y-56942D01*
X47635Y-56971D01*
X47621Y-57000D01*
X47607Y-57014D01*
X47578Y-57028D01*
X47521Y-57042D01*
X47450Y-57042D01*
X47392Y-57028D01*
X47364Y-57014D01*
X47350Y-57000D01*
X47335Y-56971D01*
X48185Y-58092D02*
X48185Y-58064D01*
X48200Y-58035D01*
X48214Y-58021D01*
X48242Y-58007D01*
X48300Y-57992D01*
X48371Y-57992D01*
X48428Y-58007D01*
X48457Y-58021D01*
X48471Y-58035D01*
X48485Y-58064D01*
X48485Y-58092D01*
X48471Y-58121D01*
X48457Y-58135D01*
X48428Y-58149D01*
X48371Y-58164D01*
X48300Y-58164D01*
X48242Y-58149D01*
X48214Y-58135D01*
X48200Y-58121D01*
X48185Y-58092D01*
X48457Y-57864D02*
X48471Y-57850D01*
X48485Y-57864D01*
X48471Y-57878D01*
X48457Y-57864D01*
X48485Y-57864D01*
X48485Y-57564D02*
X48485Y-57735D01*
X48485Y-57650D02*
X48185Y-57650D01*
X48228Y-57678D01*
X48257Y-57707D01*
X48271Y-57735D01*
X48285Y-57307D02*
X48485Y-57307D01*
X48285Y-57435D02*
X48442Y-57435D01*
X48471Y-57421D01*
X48485Y-57392D01*
X48485Y-57350D01*
X48471Y-57321D01*
X48457Y-57307D01*
X48328Y-57064D02*
X48328Y-57164D01*
X48485Y-57164D02*
X48185Y-57164D01*
X48185Y-57021D01*
X41057Y-58357D02*
X41042Y-58371D01*
X41000Y-58385D01*
X40971Y-58385D01*
X40928Y-58371D01*
X40900Y-58342D01*
X40885Y-58314D01*
X40871Y-58257D01*
X40871Y-58214D01*
X40885Y-58157D01*
X40900Y-58128D01*
X40928Y-58100D01*
X40971Y-58085D01*
X41000Y-58085D01*
X41042Y-58100D01*
X41057Y-58114D01*
X41342Y-58385D02*
X41171Y-58385D01*
X41257Y-58385D02*
X41257Y-58085D01*
X41228Y-58128D01*
X41200Y-58157D01*
X41171Y-58171D01*
X41628Y-58385D02*
X41457Y-58385D01*
X41542Y-58385D02*
X41542Y-58085D01*
X41514Y-58128D01*
X41485Y-58157D01*
X41457Y-58171D01*
X40757Y-58585D02*
X40785Y-58585D01*
X40814Y-58600D01*
X40828Y-58614D01*
X40842Y-58642D01*
X40857Y-58700D01*
X40857Y-58771D01*
X40842Y-58828D01*
X40828Y-58857D01*
X40814Y-58871D01*
X40785Y-58885D01*
X40757Y-58885D01*
X40728Y-58871D01*
X40714Y-58857D01*
X40700Y-58828D01*
X40685Y-58771D01*
X40685Y-58700D01*
X40700Y-58642D01*
X40714Y-58614D01*
X40728Y-58600D01*
X40757Y-58585D01*
X40985Y-58857D02*
X41000Y-58871D01*
X40985Y-58885D01*
X40971Y-58871D01*
X40985Y-58857D01*
X40985Y-58885D01*
X41285Y-58885D02*
X41114Y-58885D01*
X41200Y-58885D02*
X41200Y-58585D01*
X41171Y-58628D01*
X41142Y-58657D01*
X41114Y-58671D01*
X41542Y-58685D02*
X41542Y-58885D01*
X41414Y-58685D02*
X41414Y-58842D01*
X41428Y-58871D01*
X41457Y-58885D01*
X41500Y-58885D01*
X41528Y-58871D01*
X41542Y-58857D01*
X41785Y-58728D02*
X41685Y-58728D01*
X41685Y-58885D02*
X41685Y-58585D01*
X41828Y-58585D01*
X42150Y-58335D02*
X42150Y-58550D01*
X42135Y-58592D01*
X42107Y-58621D01*
X42064Y-58635D01*
X42035Y-58635D01*
X42278Y-58364D02*
X42292Y-58350D01*
X42321Y-58335D01*
X42392Y-58335D01*
X42421Y-58350D01*
X42435Y-58364D01*
X42450Y-58392D01*
X42450Y-58421D01*
X42435Y-58464D01*
X42264Y-58635D01*
X42450Y-58635D01*
X43135Y-58635D02*
X42992Y-58635D01*
X42992Y-58335D01*
X43235Y-58478D02*
X43335Y-58478D01*
X43378Y-58635D02*
X43235Y-58635D01*
X43235Y-58335D01*
X43378Y-58335D01*
X43507Y-58635D02*
X43507Y-58335D01*
X43578Y-58335D01*
X43621Y-58350D01*
X43650Y-58378D01*
X43664Y-58407D01*
X43678Y-58464D01*
X43678Y-58507D01*
X43664Y-58564D01*
X43650Y-58592D01*
X43621Y-58621D01*
X43578Y-58635D01*
X43507Y-58635D01*
X43735Y-58664D02*
X43964Y-58664D01*
X44207Y-58607D02*
X44192Y-58621D01*
X44150Y-58635D01*
X44121Y-58635D01*
X44078Y-58621D01*
X44050Y-58592D01*
X44035Y-58564D01*
X44021Y-58507D01*
X44021Y-58464D01*
X44035Y-58407D01*
X44050Y-58378D01*
X44078Y-58350D01*
X44121Y-58335D01*
X44150Y-58335D01*
X44192Y-58350D01*
X44207Y-58364D01*
X44321Y-58550D02*
X44464Y-58550D01*
X44292Y-58635D02*
X44392Y-58335D01*
X44492Y-58635D01*
X44764Y-58635D02*
X44664Y-58492D01*
X44592Y-58635D02*
X44592Y-58335D01*
X44707Y-58335D01*
X44735Y-58350D01*
X44750Y-58364D01*
X44764Y-58392D01*
X44764Y-58435D01*
X44750Y-58464D01*
X44735Y-58478D01*
X44707Y-58492D01*
X44592Y-58492D01*
X44892Y-58635D02*
X44892Y-58335D01*
X44964Y-58335D01*
X45007Y-58350D01*
X45035Y-58378D01*
X45050Y-58407D01*
X45064Y-58464D01*
X45064Y-58507D01*
X45050Y-58564D01*
X45035Y-58592D01*
X45007Y-58621D01*
X44964Y-58635D01*
X44892Y-58635D01*
X45121Y-58664D02*
X45350Y-58664D01*
X45521Y-58478D02*
X45564Y-58492D01*
X45578Y-58507D01*
X45592Y-58535D01*
X45592Y-58578D01*
X45578Y-58607D01*
X45564Y-58621D01*
X45535Y-58635D01*
X45421Y-58635D01*
X45421Y-58335D01*
X45521Y-58335D01*
X45550Y-58350D01*
X45564Y-58364D01*
X45578Y-58392D01*
X45578Y-58421D01*
X45564Y-58450D01*
X45550Y-58464D01*
X45521Y-58478D01*
X45421Y-58478D01*
X45778Y-58335D02*
X45835Y-58335D01*
X45864Y-58350D01*
X45892Y-58378D01*
X45907Y-58435D01*
X45907Y-58535D01*
X45892Y-58592D01*
X45864Y-58621D01*
X45835Y-58635D01*
X45778Y-58635D01*
X45750Y-58621D01*
X45721Y-58592D01*
X45707Y-58535D01*
X45707Y-58435D01*
X45721Y-58378D01*
X45750Y-58350D01*
X45778Y-58335D01*
X45992Y-58335D02*
X46164Y-58335D01*
X46078Y-58635D02*
X46078Y-58335D01*
X46221Y-58335D02*
X46392Y-58335D01*
X46307Y-58635D02*
X46307Y-58335D01*
X46549Y-58335D02*
X46607Y-58335D01*
X46635Y-58350D01*
X46664Y-58378D01*
X46678Y-58435D01*
X46678Y-58535D01*
X46664Y-58592D01*
X46635Y-58621D01*
X46607Y-58635D01*
X46549Y-58635D01*
X46521Y-58621D01*
X46492Y-58592D01*
X46478Y-58535D01*
X46478Y-58435D01*
X46492Y-58378D01*
X46521Y-58350D01*
X46549Y-58335D01*
X46807Y-58635D02*
X46807Y-58335D01*
X46907Y-58550D01*
X47007Y-58335D01*
X47007Y-58635D01*
X44664Y-54135D02*
X44521Y-54135D01*
X44521Y-53835D01*
X44764Y-53978D02*
X44864Y-53978D01*
X44907Y-54135D02*
X44764Y-54135D01*
X44764Y-53835D01*
X44907Y-53835D01*
X45035Y-54135D02*
X45035Y-53835D01*
X45107Y-53835D01*
X45150Y-53850D01*
X45178Y-53878D01*
X45192Y-53907D01*
X45207Y-53964D01*
X45207Y-54007D01*
X45192Y-54064D01*
X45178Y-54092D01*
X45150Y-54121D01*
X45107Y-54135D01*
X45035Y-54135D01*
X45492Y-54135D02*
X45321Y-54135D01*
X45407Y-54135D02*
X45407Y-53835D01*
X45378Y-53878D01*
X45350Y-53907D01*
X45321Y-53921D01*
X44664Y-57135D02*
X44521Y-57135D01*
X44521Y-56835D01*
X44764Y-56978D02*
X44864Y-56978D01*
X44907Y-57135D02*
X44764Y-57135D01*
X44764Y-56835D01*
X44907Y-56835D01*
X45035Y-57135D02*
X45035Y-56835D01*
X45107Y-56835D01*
X45150Y-56850D01*
X45178Y-56878D01*
X45192Y-56907D01*
X45207Y-56964D01*
X45207Y-57007D01*
X45192Y-57064D01*
X45178Y-57092D01*
X45150Y-57121D01*
X45107Y-57135D01*
X45035Y-57135D01*
X45321Y-56864D02*
X45335Y-56850D01*
X45364Y-56835D01*
X45435Y-56835D01*
X45464Y-56850D01*
X45478Y-56864D01*
X45492Y-56892D01*
X45492Y-56921D01*
X45478Y-56964D01*
X45307Y-57135D01*
X45492Y-57135D01*
X42028Y-52885D02*
X42028Y-52585D01*
X42142Y-52585D01*
X42171Y-52600D01*
X42185Y-52614D01*
X42200Y-52642D01*
X42200Y-52685D01*
X42185Y-52714D01*
X42171Y-52728D01*
X42142Y-52742D01*
X42028Y-52742D01*
X42300Y-52585D02*
X42500Y-52585D01*
X42371Y-52885D01*
X43578Y-52635D02*
X43435Y-52635D01*
X43435Y-52335D01*
X43678Y-52478D02*
X43778Y-52478D01*
X43821Y-52635D02*
X43678Y-52635D01*
X43678Y-52335D01*
X43821Y-52335D01*
X43950Y-52635D02*
X43950Y-52335D01*
X44021Y-52335D01*
X44064Y-52350D01*
X44092Y-52378D01*
X44107Y-52407D01*
X44121Y-52464D01*
X44121Y-52507D01*
X44107Y-52564D01*
X44092Y-52592D01*
X44064Y-52621D01*
X44021Y-52635D01*
X43950Y-52635D01*
X44178Y-52664D02*
X44407Y-52664D01*
X44650Y-52607D02*
X44635Y-52621D01*
X44592Y-52635D01*
X44564Y-52635D01*
X44521Y-52621D01*
X44492Y-52592D01*
X44478Y-52564D01*
X44464Y-52507D01*
X44464Y-52464D01*
X44478Y-52407D01*
X44492Y-52378D01*
X44521Y-52350D01*
X44564Y-52335D01*
X44592Y-52335D01*
X44635Y-52350D01*
X44650Y-52364D01*
X44764Y-52550D02*
X44907Y-52550D01*
X44735Y-52635D02*
X44835Y-52335D01*
X44935Y-52635D01*
X45207Y-52635D02*
X45107Y-52492D01*
X45035Y-52635D02*
X45035Y-52335D01*
X45150Y-52335D01*
X45178Y-52350D01*
X45192Y-52364D01*
X45207Y-52392D01*
X45207Y-52435D01*
X45192Y-52464D01*
X45178Y-52478D01*
X45150Y-52492D01*
X45035Y-52492D01*
X45335Y-52635D02*
X45335Y-52335D01*
X45407Y-52335D01*
X45450Y-52350D01*
X45478Y-52378D01*
X45492Y-52407D01*
X45507Y-52464D01*
X45507Y-52507D01*
X45492Y-52564D01*
X45478Y-52592D01*
X45450Y-52621D01*
X45407Y-52635D01*
X45335Y-52635D01*
X45564Y-52664D02*
X45792Y-52664D01*
X45821Y-52335D02*
X45992Y-52335D01*
X45907Y-52635D02*
X45907Y-52335D01*
X46149Y-52335D02*
X46207Y-52335D01*
X46235Y-52350D01*
X46264Y-52378D01*
X46278Y-52435D01*
X46278Y-52535D01*
X46264Y-52592D01*
X46235Y-52621D01*
X46207Y-52635D01*
X46149Y-52635D01*
X46121Y-52621D01*
X46092Y-52592D01*
X46078Y-52535D01*
X46078Y-52435D01*
X46092Y-52378D01*
X46121Y-52350D01*
X46149Y-52335D01*
X46407Y-52635D02*
X46407Y-52335D01*
X46521Y-52335D01*
X46550Y-52350D01*
X46564Y-52364D01*
X46578Y-52392D01*
X46578Y-52435D01*
X46564Y-52464D01*
X46550Y-52478D01*
X46521Y-52492D01*
X46407Y-52492D01*
X47185Y-57300D02*
X47042Y-57400D01*
X47185Y-57471D02*
X46885Y-57471D01*
X46885Y-57357D01*
X46900Y-57328D01*
X46914Y-57314D01*
X46942Y-57300D01*
X46985Y-57300D01*
X47014Y-57314D01*
X47028Y-57328D01*
X47042Y-57357D01*
X47042Y-57471D01*
X46985Y-57042D02*
X47185Y-57042D01*
X46871Y-57114D02*
X47085Y-57185D01*
X47085Y-57000D01*
X47764Y-57978D02*
X47750Y-57964D01*
X47735Y-57935D01*
X47735Y-57864D01*
X47750Y-57835D01*
X47764Y-57821D01*
X47792Y-57807D01*
X47821Y-57807D01*
X47864Y-57821D01*
X48035Y-57992D01*
X48035Y-57807D01*
X48035Y-57678D02*
X47735Y-57678D01*
X47921Y-57650D02*
X48035Y-57564D01*
X47835Y-57564D02*
X47950Y-57678D01*
X48035Y-57450D02*
X48035Y-57378D01*
X47978Y-57378D01*
X47964Y-57407D01*
X47935Y-57435D01*
X47892Y-57450D01*
X47821Y-57450D01*
X47778Y-57435D01*
X47750Y-57407D01*
X47735Y-57364D01*
X47735Y-57307D01*
X47750Y-57264D01*
X47778Y-57235D01*
X47821Y-57221D01*
X47892Y-57221D01*
X47935Y-57235D01*
X47964Y-57264D01*
X47978Y-57292D01*
X48035Y-57292D01*
X48035Y-57221D01*
X48700Y-52385D02*
X48600Y-52242D01*
X48528Y-52385D02*
X48528Y-52085D01*
X48642Y-52085D01*
X48671Y-52100D01*
X48685Y-52114D01*
X48700Y-52142D01*
X48700Y-52185D01*
X48685Y-52214D01*
X48671Y-52228D01*
X48642Y-52242D01*
X48528Y-52242D01*
X48971Y-52085D02*
X48828Y-52085D01*
X48814Y-52228D01*
X48828Y-52214D01*
X48857Y-52200D01*
X48928Y-52200D01*
X48957Y-52214D01*
X48971Y-52228D01*
X48985Y-52257D01*
X48985Y-52328D01*
X48971Y-52357D01*
X48957Y-52371D01*
X48928Y-52385D01*
X48857Y-52385D01*
X48828Y-52371D01*
X48814Y-52357D01*
X48542Y-52885D02*
X48371Y-52885D01*
X48457Y-52885D02*
X48457Y-52585D01*
X48428Y-52628D01*
X48400Y-52657D01*
X48371Y-52671D01*
X48671Y-52885D02*
X48671Y-52585D01*
X48700Y-52771D02*
X48785Y-52885D01*
X48785Y-52685D02*
X48671Y-52800D01*
X48900Y-52885D02*
X48971Y-52885D01*
X48971Y-52828D01*
X48942Y-52814D01*
X48914Y-52785D01*
X48900Y-52742D01*
X48900Y-52671D01*
X48914Y-52628D01*
X48942Y-52600D01*
X48985Y-52585D01*
X49042Y-52585D01*
X49085Y-52600D01*
X49114Y-52628D01*
X49128Y-52671D01*
X49128Y-52742D01*
X49114Y-52785D01*
X49085Y-52814D01*
X49057Y-52828D01*
X49057Y-52885D01*
X49128Y-52885D01*
X47635Y-55792D02*
X47335Y-55792D01*
X47607Y-55478D02*
X47621Y-55492D01*
X47635Y-55535D01*
X47635Y-55564D01*
X47621Y-55607D01*
X47592Y-55635D01*
X47564Y-55649D01*
X47507Y-55664D01*
X47464Y-55664D01*
X47407Y-55649D01*
X47378Y-55635D01*
X47350Y-55607D01*
X47335Y-55564D01*
X47335Y-55535D01*
X47350Y-55492D01*
X47364Y-55478D01*
X47335Y-55378D02*
X47335Y-55192D01*
X47450Y-55292D01*
X47450Y-55249D01*
X47464Y-55221D01*
X47478Y-55207D01*
X47507Y-55192D01*
X47578Y-55192D01*
X47607Y-55207D01*
X47621Y-55221D01*
X47635Y-55249D01*
X47635Y-55335D01*
X47621Y-55364D01*
X47607Y-55378D01*
X47821Y-55335D02*
X47992Y-55335D01*
X47907Y-55635D02*
X47907Y-55335D01*
X48235Y-55635D02*
X48092Y-55635D01*
X48092Y-55335D01*
X48507Y-55607D02*
X48492Y-55621D01*
X48450Y-55635D01*
X48421Y-55635D01*
X48378Y-55621D01*
X48350Y-55592D01*
X48335Y-55564D01*
X48321Y-55507D01*
X48321Y-55464D01*
X48335Y-55407D01*
X48350Y-55378D01*
X48378Y-55350D01*
X48421Y-55335D01*
X48450Y-55335D01*
X48492Y-55350D01*
X48507Y-55364D01*
X48778Y-55335D02*
X48635Y-55335D01*
X48621Y-55478D01*
X48635Y-55464D01*
X48664Y-55450D01*
X48735Y-55450D01*
X48764Y-55464D01*
X48778Y-55478D01*
X48792Y-55507D01*
X48792Y-55578D01*
X48778Y-55607D01*
X48764Y-55621D01*
X48735Y-55635D01*
X48664Y-55635D01*
X48635Y-55621D01*
X48621Y-55607D01*
X48935Y-55635D02*
X48992Y-55635D01*
X49021Y-55621D01*
X49035Y-55607D01*
X49064Y-55564D01*
X49078Y-55507D01*
X49078Y-55392D01*
X49064Y-55364D01*
X49050Y-55350D01*
X49021Y-55335D01*
X48964Y-55335D01*
X48935Y-55350D01*
X48921Y-55364D01*
X48907Y-55392D01*
X48907Y-55464D01*
X48921Y-55492D01*
X48935Y-55507D01*
X48964Y-55521D01*
X49021Y-55521D01*
X49050Y-55507D01*
X49064Y-55492D01*
X49078Y-55464D01*
X49178Y-55335D02*
X49378Y-55335D01*
X49250Y-55635D01*
X49464Y-55335D02*
X49649Y-55335D01*
X49549Y-55450D01*
X49592Y-55450D01*
X49621Y-55464D01*
X49635Y-55478D01*
X49649Y-55507D01*
X49649Y-55578D01*
X49635Y-55607D01*
X49621Y-55621D01*
X49592Y-55635D01*
X49507Y-55635D01*
X49478Y-55621D01*
X49464Y-55607D01*
X47635Y-65792D02*
X47335Y-65792D01*
X47607Y-65478D02*
X47621Y-65492D01*
X47635Y-65535D01*
X47635Y-65564D01*
X47621Y-65607D01*
X47592Y-65635D01*
X47564Y-65649D01*
X47507Y-65664D01*
X47464Y-65664D01*
X47407Y-65649D01*
X47378Y-65635D01*
X47350Y-65607D01*
X47335Y-65564D01*
X47335Y-65535D01*
X47350Y-65492D01*
X47364Y-65478D01*
X47335Y-65378D02*
X47335Y-65192D01*
X47450Y-65292D01*
X47450Y-65249D01*
X47464Y-65221D01*
X47478Y-65207D01*
X47507Y-65192D01*
X47578Y-65192D01*
X47607Y-65207D01*
X47621Y-65221D01*
X47635Y-65249D01*
X47635Y-65335D01*
X47621Y-65364D01*
X47607Y-65378D01*
X47821Y-65335D02*
X47992Y-65335D01*
X47907Y-65635D02*
X47907Y-65335D01*
X48235Y-65635D02*
X48092Y-65635D01*
X48092Y-65335D01*
X48507Y-65607D02*
X48492Y-65621D01*
X48450Y-65635D01*
X48421Y-65635D01*
X48378Y-65621D01*
X48350Y-65592D01*
X48335Y-65564D01*
X48321Y-65507D01*
X48321Y-65464D01*
X48335Y-65407D01*
X48350Y-65378D01*
X48378Y-65350D01*
X48421Y-65335D01*
X48450Y-65335D01*
X48492Y-65350D01*
X48507Y-65364D01*
X48778Y-65335D02*
X48635Y-65335D01*
X48621Y-65478D01*
X48635Y-65464D01*
X48664Y-65450D01*
X48735Y-65450D01*
X48764Y-65464D01*
X48778Y-65478D01*
X48792Y-65507D01*
X48792Y-65578D01*
X48778Y-65607D01*
X48764Y-65621D01*
X48735Y-65635D01*
X48664Y-65635D01*
X48635Y-65621D01*
X48621Y-65607D01*
X48935Y-65635D02*
X48992Y-65635D01*
X49021Y-65621D01*
X49035Y-65607D01*
X49064Y-65564D01*
X49078Y-65507D01*
X49078Y-65392D01*
X49064Y-65364D01*
X49050Y-65350D01*
X49021Y-65335D01*
X48964Y-65335D01*
X48935Y-65350D01*
X48921Y-65364D01*
X48907Y-65392D01*
X48907Y-65464D01*
X48921Y-65492D01*
X48935Y-65507D01*
X48964Y-65521D01*
X49021Y-65521D01*
X49050Y-65507D01*
X49064Y-65492D01*
X49078Y-65464D01*
X49178Y-65335D02*
X49378Y-65335D01*
X49250Y-65635D01*
X49464Y-65335D02*
X49649Y-65335D01*
X49549Y-65450D01*
X49592Y-65450D01*
X49621Y-65464D01*
X49635Y-65478D01*
X49649Y-65507D01*
X49649Y-65578D01*
X49635Y-65607D01*
X49621Y-65621D01*
X49592Y-65635D01*
X49507Y-65635D01*
X49478Y-65621D01*
X49464Y-65607D01*
X48700Y-62385D02*
X48600Y-62242D01*
X48528Y-62385D02*
X48528Y-62085D01*
X48642Y-62085D01*
X48671Y-62100D01*
X48685Y-62114D01*
X48700Y-62142D01*
X48700Y-62185D01*
X48685Y-62214D01*
X48671Y-62228D01*
X48642Y-62242D01*
X48528Y-62242D01*
X48971Y-62085D02*
X48828Y-62085D01*
X48814Y-62228D01*
X48828Y-62214D01*
X48857Y-62200D01*
X48928Y-62200D01*
X48957Y-62214D01*
X48971Y-62228D01*
X48985Y-62257D01*
X48985Y-62328D01*
X48971Y-62357D01*
X48957Y-62371D01*
X48928Y-62385D01*
X48857Y-62385D01*
X48828Y-62371D01*
X48814Y-62357D01*
X48542Y-62885D02*
X48371Y-62885D01*
X48457Y-62885D02*
X48457Y-62585D01*
X48428Y-62628D01*
X48400Y-62657D01*
X48371Y-62671D01*
X48671Y-62885D02*
X48671Y-62585D01*
X48700Y-62771D02*
X48785Y-62885D01*
X48785Y-62685D02*
X48671Y-62800D01*
X48900Y-62885D02*
X48971Y-62885D01*
X48971Y-62828D01*
X48942Y-62814D01*
X48914Y-62785D01*
X48900Y-62742D01*
X48900Y-62671D01*
X48914Y-62628D01*
X48942Y-62600D01*
X48985Y-62585D01*
X49042Y-62585D01*
X49085Y-62600D01*
X49114Y-62628D01*
X49128Y-62671D01*
X49128Y-62742D01*
X49114Y-62785D01*
X49085Y-62814D01*
X49057Y-62828D01*
X49057Y-62885D01*
X49128Y-62885D01*
X47185Y-67300D02*
X47042Y-67400D01*
X47185Y-67471D02*
X46885Y-67471D01*
X46885Y-67357D01*
X46900Y-67328D01*
X46914Y-67314D01*
X46942Y-67300D01*
X46985Y-67300D01*
X47014Y-67314D01*
X47028Y-67328D01*
X47042Y-67357D01*
X47042Y-67471D01*
X46985Y-67042D02*
X47185Y-67042D01*
X46871Y-67114D02*
X47085Y-67185D01*
X47085Y-67000D01*
X47764Y-67978D02*
X47750Y-67964D01*
X47735Y-67935D01*
X47735Y-67864D01*
X47750Y-67835D01*
X47764Y-67821D01*
X47792Y-67807D01*
X47821Y-67807D01*
X47864Y-67821D01*
X48035Y-67992D01*
X48035Y-67807D01*
X48035Y-67678D02*
X47735Y-67678D01*
X47921Y-67650D02*
X48035Y-67564D01*
X47835Y-67564D02*
X47950Y-67678D01*
X48035Y-67450D02*
X48035Y-67378D01*
X47978Y-67378D01*
X47964Y-67407D01*
X47935Y-67435D01*
X47892Y-67450D01*
X47821Y-67450D01*
X47778Y-67435D01*
X47750Y-67407D01*
X47735Y-67364D01*
X47735Y-67307D01*
X47750Y-67264D01*
X47778Y-67235D01*
X47821Y-67221D01*
X47892Y-67221D01*
X47935Y-67235D01*
X47964Y-67264D01*
X47978Y-67292D01*
X48035Y-67292D01*
X48035Y-67221D01*
X42028Y-62885D02*
X42028Y-62585D01*
X42142Y-62585D01*
X42171Y-62600D01*
X42185Y-62614D01*
X42200Y-62642D01*
X42200Y-62685D01*
X42185Y-62714D01*
X42171Y-62728D01*
X42142Y-62742D01*
X42028Y-62742D01*
X42300Y-62585D02*
X42500Y-62585D01*
X42371Y-62885D01*
X43578Y-62635D02*
X43435Y-62635D01*
X43435Y-62335D01*
X43678Y-62478D02*
X43778Y-62478D01*
X43821Y-62635D02*
X43678Y-62635D01*
X43678Y-62335D01*
X43821Y-62335D01*
X43950Y-62635D02*
X43950Y-62335D01*
X44021Y-62335D01*
X44064Y-62350D01*
X44092Y-62378D01*
X44107Y-62407D01*
X44121Y-62464D01*
X44121Y-62507D01*
X44107Y-62564D01*
X44092Y-62592D01*
X44064Y-62621D01*
X44021Y-62635D01*
X43950Y-62635D01*
X44178Y-62664D02*
X44407Y-62664D01*
X44650Y-62607D02*
X44635Y-62621D01*
X44592Y-62635D01*
X44564Y-62635D01*
X44521Y-62621D01*
X44492Y-62592D01*
X44478Y-62564D01*
X44464Y-62507D01*
X44464Y-62464D01*
X44478Y-62407D01*
X44492Y-62378D01*
X44521Y-62350D01*
X44564Y-62335D01*
X44592Y-62335D01*
X44635Y-62350D01*
X44650Y-62364D01*
X44764Y-62550D02*
X44907Y-62550D01*
X44735Y-62635D02*
X44835Y-62335D01*
X44935Y-62635D01*
X45207Y-62635D02*
X45107Y-62492D01*
X45035Y-62635D02*
X45035Y-62335D01*
X45150Y-62335D01*
X45178Y-62350D01*
X45192Y-62364D01*
X45207Y-62392D01*
X45207Y-62435D01*
X45192Y-62464D01*
X45178Y-62478D01*
X45150Y-62492D01*
X45035Y-62492D01*
X45335Y-62635D02*
X45335Y-62335D01*
X45407Y-62335D01*
X45450Y-62350D01*
X45478Y-62378D01*
X45492Y-62407D01*
X45507Y-62464D01*
X45507Y-62507D01*
X45492Y-62564D01*
X45478Y-62592D01*
X45450Y-62621D01*
X45407Y-62635D01*
X45335Y-62635D01*
X45564Y-62664D02*
X45792Y-62664D01*
X45821Y-62335D02*
X45992Y-62335D01*
X45907Y-62635D02*
X45907Y-62335D01*
X46149Y-62335D02*
X46207Y-62335D01*
X46235Y-62350D01*
X46264Y-62378D01*
X46278Y-62435D01*
X46278Y-62535D01*
X46264Y-62592D01*
X46235Y-62621D01*
X46207Y-62635D01*
X46149Y-62635D01*
X46121Y-62621D01*
X46092Y-62592D01*
X46078Y-62535D01*
X46078Y-62435D01*
X46092Y-62378D01*
X46121Y-62350D01*
X46149Y-62335D01*
X46407Y-62635D02*
X46407Y-62335D01*
X46521Y-62335D01*
X46550Y-62350D01*
X46564Y-62364D01*
X46578Y-62392D01*
X46578Y-62435D01*
X46564Y-62464D01*
X46550Y-62478D01*
X46521Y-62492D01*
X46407Y-62492D01*
X44664Y-67135D02*
X44521Y-67135D01*
X44521Y-66835D01*
X44764Y-66978D02*
X44864Y-66978D01*
X44907Y-67135D02*
X44764Y-67135D01*
X44764Y-66835D01*
X44907Y-66835D01*
X45035Y-67135D02*
X45035Y-66835D01*
X45107Y-66835D01*
X45150Y-66850D01*
X45178Y-66878D01*
X45192Y-66907D01*
X45207Y-66964D01*
X45207Y-67007D01*
X45192Y-67064D01*
X45178Y-67092D01*
X45150Y-67121D01*
X45107Y-67135D01*
X45035Y-67135D01*
X45321Y-66864D02*
X45335Y-66850D01*
X45364Y-66835D01*
X45435Y-66835D01*
X45464Y-66850D01*
X45478Y-66864D01*
X45492Y-66892D01*
X45492Y-66921D01*
X45478Y-66964D01*
X45307Y-67135D01*
X45492Y-67135D01*
X44664Y-64135D02*
X44521Y-64135D01*
X44521Y-63835D01*
X44764Y-63978D02*
X44864Y-63978D01*
X44907Y-64135D02*
X44764Y-64135D01*
X44764Y-63835D01*
X44907Y-63835D01*
X45035Y-64135D02*
X45035Y-63835D01*
X45107Y-63835D01*
X45150Y-63850D01*
X45178Y-63878D01*
X45192Y-63907D01*
X45207Y-63964D01*
X45207Y-64007D01*
X45192Y-64064D01*
X45178Y-64092D01*
X45150Y-64121D01*
X45107Y-64135D01*
X45035Y-64135D01*
X45492Y-64135D02*
X45321Y-64135D01*
X45407Y-64135D02*
X45407Y-63835D01*
X45378Y-63878D01*
X45350Y-63907D01*
X45321Y-63921D01*
X42150Y-68335D02*
X42150Y-68550D01*
X42135Y-68592D01*
X42107Y-68621D01*
X42064Y-68635D01*
X42035Y-68635D01*
X42278Y-68364D02*
X42292Y-68350D01*
X42321Y-68335D01*
X42392Y-68335D01*
X42421Y-68350D01*
X42435Y-68364D01*
X42450Y-68392D01*
X42450Y-68421D01*
X42435Y-68464D01*
X42264Y-68635D01*
X42450Y-68635D01*
X43135Y-68635D02*
X42992Y-68635D01*
X42992Y-68335D01*
X43235Y-68478D02*
X43335Y-68478D01*
X43378Y-68635D02*
X43235Y-68635D01*
X43235Y-68335D01*
X43378Y-68335D01*
X43507Y-68635D02*
X43507Y-68335D01*
X43578Y-68335D01*
X43621Y-68350D01*
X43650Y-68378D01*
X43664Y-68407D01*
X43678Y-68464D01*
X43678Y-68507D01*
X43664Y-68564D01*
X43650Y-68592D01*
X43621Y-68621D01*
X43578Y-68635D01*
X43507Y-68635D01*
X43735Y-68664D02*
X43964Y-68664D01*
X44207Y-68607D02*
X44192Y-68621D01*
X44150Y-68635D01*
X44121Y-68635D01*
X44078Y-68621D01*
X44050Y-68592D01*
X44035Y-68564D01*
X44021Y-68507D01*
X44021Y-68464D01*
X44035Y-68407D01*
X44050Y-68378D01*
X44078Y-68350D01*
X44121Y-68335D01*
X44150Y-68335D01*
X44192Y-68350D01*
X44207Y-68364D01*
X44321Y-68550D02*
X44464Y-68550D01*
X44292Y-68635D02*
X44392Y-68335D01*
X44492Y-68635D01*
X44764Y-68635D02*
X44664Y-68492D01*
X44592Y-68635D02*
X44592Y-68335D01*
X44707Y-68335D01*
X44735Y-68350D01*
X44750Y-68364D01*
X44764Y-68392D01*
X44764Y-68435D01*
X44750Y-68464D01*
X44735Y-68478D01*
X44707Y-68492D01*
X44592Y-68492D01*
X44892Y-68635D02*
X44892Y-68335D01*
X44964Y-68335D01*
X45007Y-68350D01*
X45035Y-68378D01*
X45050Y-68407D01*
X45064Y-68464D01*
X45064Y-68507D01*
X45050Y-68564D01*
X45035Y-68592D01*
X45007Y-68621D01*
X44964Y-68635D01*
X44892Y-68635D01*
X45121Y-68664D02*
X45350Y-68664D01*
X45521Y-68478D02*
X45564Y-68492D01*
X45578Y-68507D01*
X45592Y-68535D01*
X45592Y-68578D01*
X45578Y-68607D01*
X45564Y-68621D01*
X45535Y-68635D01*
X45421Y-68635D01*
X45421Y-68335D01*
X45521Y-68335D01*
X45550Y-68350D01*
X45564Y-68364D01*
X45578Y-68392D01*
X45578Y-68421D01*
X45564Y-68450D01*
X45550Y-68464D01*
X45521Y-68478D01*
X45421Y-68478D01*
X45778Y-68335D02*
X45835Y-68335D01*
X45864Y-68350D01*
X45892Y-68378D01*
X45907Y-68435D01*
X45907Y-68535D01*
X45892Y-68592D01*
X45864Y-68621D01*
X45835Y-68635D01*
X45778Y-68635D01*
X45750Y-68621D01*
X45721Y-68592D01*
X45707Y-68535D01*
X45707Y-68435D01*
X45721Y-68378D01*
X45750Y-68350D01*
X45778Y-68335D01*
X45992Y-68335D02*
X46164Y-68335D01*
X46078Y-68635D02*
X46078Y-68335D01*
X46221Y-68335D02*
X46392Y-68335D01*
X46307Y-68635D02*
X46307Y-68335D01*
X46549Y-68335D02*
X46607Y-68335D01*
X46635Y-68350D01*
X46664Y-68378D01*
X46678Y-68435D01*
X46678Y-68535D01*
X46664Y-68592D01*
X46635Y-68621D01*
X46607Y-68635D01*
X46549Y-68635D01*
X46521Y-68621D01*
X46492Y-68592D01*
X46478Y-68535D01*
X46478Y-68435D01*
X46492Y-68378D01*
X46521Y-68350D01*
X46549Y-68335D01*
X46807Y-68635D02*
X46807Y-68335D01*
X46907Y-68550D01*
X47007Y-68335D01*
X47007Y-68635D01*
X41057Y-68357D02*
X41042Y-68371D01*
X41000Y-68385D01*
X40971Y-68385D01*
X40928Y-68371D01*
X40900Y-68342D01*
X40885Y-68314D01*
X40871Y-68257D01*
X40871Y-68214D01*
X40885Y-68157D01*
X40900Y-68128D01*
X40928Y-68100D01*
X40971Y-68085D01*
X41000Y-68085D01*
X41042Y-68100D01*
X41057Y-68114D01*
X41342Y-68385D02*
X41171Y-68385D01*
X41257Y-68385D02*
X41257Y-68085D01*
X41228Y-68128D01*
X41200Y-68157D01*
X41171Y-68171D01*
X41628Y-68385D02*
X41457Y-68385D01*
X41542Y-68385D02*
X41542Y-68085D01*
X41514Y-68128D01*
X41485Y-68157D01*
X41457Y-68171D01*
X40757Y-68585D02*
X40785Y-68585D01*
X40814Y-68600D01*
X40828Y-68614D01*
X40842Y-68642D01*
X40857Y-68700D01*
X40857Y-68771D01*
X40842Y-68828D01*
X40828Y-68857D01*
X40814Y-68871D01*
X40785Y-68885D01*
X40757Y-68885D01*
X40728Y-68871D01*
X40714Y-68857D01*
X40700Y-68828D01*
X40685Y-68771D01*
X40685Y-68700D01*
X40700Y-68642D01*
X40714Y-68614D01*
X40728Y-68600D01*
X40757Y-68585D01*
X40985Y-68857D02*
X41000Y-68871D01*
X40985Y-68885D01*
X40971Y-68871D01*
X40985Y-68857D01*
X40985Y-68885D01*
X41285Y-68885D02*
X41114Y-68885D01*
X41200Y-68885D02*
X41200Y-68585D01*
X41171Y-68628D01*
X41142Y-68657D01*
X41114Y-68671D01*
X41542Y-68685D02*
X41542Y-68885D01*
X41414Y-68685D02*
X41414Y-68842D01*
X41428Y-68871D01*
X41457Y-68885D01*
X41500Y-68885D01*
X41528Y-68871D01*
X41542Y-68857D01*
X41785Y-68728D02*
X41685Y-68728D01*
X41685Y-68885D02*
X41685Y-68585D01*
X41828Y-68585D01*
X47607Y-67442D02*
X47621Y-67457D01*
X47635Y-67500D01*
X47635Y-67528D01*
X47621Y-67571D01*
X47592Y-67600D01*
X47564Y-67614D01*
X47507Y-67628D01*
X47464Y-67628D01*
X47407Y-67614D01*
X47378Y-67600D01*
X47350Y-67571D01*
X47335Y-67528D01*
X47335Y-67500D01*
X47350Y-67457D01*
X47364Y-67442D01*
X47635Y-67157D02*
X47635Y-67328D01*
X47635Y-67242D02*
X47335Y-67242D01*
X47378Y-67271D01*
X47407Y-67300D01*
X47421Y-67328D01*
X47335Y-66971D02*
X47335Y-66942D01*
X47350Y-66914D01*
X47364Y-66900D01*
X47392Y-66885D01*
X47450Y-66871D01*
X47521Y-66871D01*
X47578Y-66885D01*
X47607Y-66900D01*
X47621Y-66914D01*
X47635Y-66942D01*
X47635Y-66971D01*
X47621Y-67000D01*
X47607Y-67014D01*
X47578Y-67028D01*
X47521Y-67042D01*
X47450Y-67042D01*
X47392Y-67028D01*
X47364Y-67014D01*
X47350Y-67000D01*
X47335Y-66971D01*
X48185Y-68092D02*
X48185Y-68064D01*
X48200Y-68035D01*
X48214Y-68021D01*
X48242Y-68007D01*
X48300Y-67992D01*
X48371Y-67992D01*
X48428Y-68007D01*
X48457Y-68021D01*
X48471Y-68035D01*
X48485Y-68064D01*
X48485Y-68092D01*
X48471Y-68121D01*
X48457Y-68135D01*
X48428Y-68149D01*
X48371Y-68164D01*
X48300Y-68164D01*
X48242Y-68149D01*
X48214Y-68135D01*
X48200Y-68121D01*
X48185Y-68092D01*
X48457Y-67864D02*
X48471Y-67850D01*
X48485Y-67864D01*
X48471Y-67878D01*
X48457Y-67864D01*
X48485Y-67864D01*
X48485Y-67564D02*
X48485Y-67735D01*
X48485Y-67650D02*
X48185Y-67650D01*
X48228Y-67678D01*
X48257Y-67707D01*
X48271Y-67735D01*
X48285Y-67307D02*
X48485Y-67307D01*
X48285Y-67435D02*
X48442Y-67435D01*
X48471Y-67421D01*
X48485Y-67392D01*
X48485Y-67350D01*
X48471Y-67321D01*
X48457Y-67307D01*
X48328Y-67064D02*
X48328Y-67164D01*
X48485Y-67164D02*
X48185Y-67164D01*
X48185Y-67021D01*
X40371Y-56478D02*
X40385Y-56435D01*
X40385Y-56364D01*
X40371Y-56335D01*
X40357Y-56321D01*
X40328Y-56307D01*
X40300Y-56307D01*
X40271Y-56321D01*
X40257Y-56335D01*
X40242Y-56364D01*
X40228Y-56421D01*
X40214Y-56450D01*
X40200Y-56464D01*
X40171Y-56478D01*
X40142Y-56478D01*
X40114Y-56464D01*
X40100Y-56450D01*
X40085Y-56421D01*
X40085Y-56350D01*
X40100Y-56307D01*
X40385Y-56021D02*
X40385Y-56192D01*
X40385Y-56107D02*
X40085Y-56107D01*
X40128Y-56135D01*
X40157Y-56164D01*
X40171Y-56192D01*
X41607Y-57085D02*
X41778Y-57085D01*
X41692Y-57385D02*
X41692Y-57085D01*
X41935Y-57085D02*
X41992Y-57085D01*
X42021Y-57100D01*
X42050Y-57128D01*
X42064Y-57185D01*
X42064Y-57285D01*
X42050Y-57342D01*
X42021Y-57371D01*
X41992Y-57385D01*
X41935Y-57385D01*
X41907Y-57371D01*
X41878Y-57342D01*
X41864Y-57285D01*
X41864Y-57185D01*
X41878Y-57128D01*
X41907Y-57100D01*
X41935Y-57085D01*
X42192Y-57385D02*
X42192Y-57085D01*
X42307Y-57085D01*
X42335Y-57100D01*
X42350Y-57114D01*
X42364Y-57142D01*
X42364Y-57185D01*
X42350Y-57214D01*
X42335Y-57228D01*
X42307Y-57242D01*
X42192Y-57242D01*
X40371Y-66478D02*
X40385Y-66435D01*
X40385Y-66364D01*
X40371Y-66335D01*
X40357Y-66321D01*
X40328Y-66307D01*
X40300Y-66307D01*
X40271Y-66321D01*
X40257Y-66335D01*
X40242Y-66364D01*
X40228Y-66421D01*
X40214Y-66450D01*
X40200Y-66464D01*
X40171Y-66478D01*
X40142Y-66478D01*
X40114Y-66464D01*
X40100Y-66450D01*
X40085Y-66421D01*
X40085Y-66350D01*
X40100Y-66307D01*
X40385Y-66021D02*
X40385Y-66192D01*
X40385Y-66107D02*
X40085Y-66107D01*
X40128Y-66135D01*
X40157Y-66164D01*
X40171Y-66192D01*
X41607Y-67085D02*
X41778Y-67085D01*
X41692Y-67385D02*
X41692Y-67085D01*
X41935Y-67085D02*
X41992Y-67085D01*
X42021Y-67100D01*
X42050Y-67128D01*
X42064Y-67185D01*
X42064Y-67285D01*
X42050Y-67342D01*
X42021Y-67371D01*
X41992Y-67385D01*
X41935Y-67385D01*
X41907Y-67371D01*
X41878Y-67342D01*
X41864Y-67285D01*
X41864Y-67185D01*
X41878Y-67128D01*
X41907Y-67100D01*
X41935Y-67085D01*
X42192Y-67385D02*
X42192Y-67085D01*
X42307Y-67085D01*
X42335Y-67100D01*
X42350Y-67114D01*
X42364Y-67142D01*
X42364Y-67185D01*
X42350Y-67214D01*
X42335Y-67228D01*
X42307Y-67242D01*
X42192Y-67242D01*
X36607Y-67442D02*
X36621Y-67457D01*
X36635Y-67500D01*
X36635Y-67528D01*
X36621Y-67571D01*
X36592Y-67600D01*
X36564Y-67614D01*
X36507Y-67628D01*
X36464Y-67628D01*
X36407Y-67614D01*
X36378Y-67600D01*
X36350Y-67571D01*
X36335Y-67528D01*
X36335Y-67500D01*
X36350Y-67457D01*
X36364Y-67442D01*
X36635Y-67157D02*
X36635Y-67328D01*
X36635Y-67242D02*
X36335Y-67242D01*
X36378Y-67271D01*
X36407Y-67300D01*
X36421Y-67328D01*
X36335Y-66971D02*
X36335Y-66942D01*
X36350Y-66914D01*
X36364Y-66900D01*
X36392Y-66885D01*
X36450Y-66871D01*
X36521Y-66871D01*
X36578Y-66885D01*
X36607Y-66900D01*
X36621Y-66914D01*
X36635Y-66942D01*
X36635Y-66971D01*
X36621Y-67000D01*
X36607Y-67014D01*
X36578Y-67028D01*
X36521Y-67042D01*
X36450Y-67042D01*
X36392Y-67028D01*
X36364Y-67014D01*
X36350Y-67000D01*
X36335Y-66971D01*
X37185Y-68092D02*
X37185Y-68064D01*
X37200Y-68035D01*
X37214Y-68021D01*
X37242Y-68007D01*
X37300Y-67992D01*
X37371Y-67992D01*
X37428Y-68007D01*
X37457Y-68021D01*
X37471Y-68035D01*
X37485Y-68064D01*
X37485Y-68092D01*
X37471Y-68121D01*
X37457Y-68135D01*
X37428Y-68149D01*
X37371Y-68164D01*
X37300Y-68164D01*
X37242Y-68149D01*
X37214Y-68135D01*
X37200Y-68121D01*
X37185Y-68092D01*
X37457Y-67864D02*
X37471Y-67850D01*
X37485Y-67864D01*
X37471Y-67878D01*
X37457Y-67864D01*
X37485Y-67864D01*
X37485Y-67564D02*
X37485Y-67735D01*
X37485Y-67650D02*
X37185Y-67650D01*
X37228Y-67678D01*
X37257Y-67707D01*
X37271Y-67735D01*
X37285Y-67307D02*
X37485Y-67307D01*
X37285Y-67435D02*
X37442Y-67435D01*
X37471Y-67421D01*
X37485Y-67392D01*
X37485Y-67350D01*
X37471Y-67321D01*
X37457Y-67307D01*
X37328Y-67064D02*
X37328Y-67164D01*
X37485Y-67164D02*
X37185Y-67164D01*
X37185Y-67021D01*
X30057Y-68357D02*
X30042Y-68371D01*
X30000Y-68385D01*
X29971Y-68385D01*
X29928Y-68371D01*
X29900Y-68342D01*
X29885Y-68314D01*
X29871Y-68257D01*
X29871Y-68214D01*
X29885Y-68157D01*
X29900Y-68128D01*
X29928Y-68100D01*
X29971Y-68085D01*
X30000Y-68085D01*
X30042Y-68100D01*
X30057Y-68114D01*
X30342Y-68385D02*
X30171Y-68385D01*
X30257Y-68385D02*
X30257Y-68085D01*
X30228Y-68128D01*
X30200Y-68157D01*
X30171Y-68171D01*
X30628Y-68385D02*
X30457Y-68385D01*
X30542Y-68385D02*
X30542Y-68085D01*
X30514Y-68128D01*
X30485Y-68157D01*
X30457Y-68171D01*
X29757Y-68585D02*
X29785Y-68585D01*
X29814Y-68600D01*
X29828Y-68614D01*
X29842Y-68642D01*
X29857Y-68700D01*
X29857Y-68771D01*
X29842Y-68828D01*
X29828Y-68857D01*
X29814Y-68871D01*
X29785Y-68885D01*
X29757Y-68885D01*
X29728Y-68871D01*
X29714Y-68857D01*
X29700Y-68828D01*
X29685Y-68771D01*
X29685Y-68700D01*
X29700Y-68642D01*
X29714Y-68614D01*
X29728Y-68600D01*
X29757Y-68585D01*
X29985Y-68857D02*
X30000Y-68871D01*
X29985Y-68885D01*
X29971Y-68871D01*
X29985Y-68857D01*
X29985Y-68885D01*
X30285Y-68885D02*
X30114Y-68885D01*
X30200Y-68885D02*
X30200Y-68585D01*
X30171Y-68628D01*
X30142Y-68657D01*
X30114Y-68671D01*
X30542Y-68685D02*
X30542Y-68885D01*
X30414Y-68685D02*
X30414Y-68842D01*
X30428Y-68871D01*
X30457Y-68885D01*
X30500Y-68885D01*
X30528Y-68871D01*
X30542Y-68857D01*
X30785Y-68728D02*
X30685Y-68728D01*
X30685Y-68885D02*
X30685Y-68585D01*
X30828Y-68585D01*
X31150Y-68335D02*
X31150Y-68550D01*
X31135Y-68592D01*
X31107Y-68621D01*
X31064Y-68635D01*
X31035Y-68635D01*
X31278Y-68364D02*
X31292Y-68350D01*
X31321Y-68335D01*
X31392Y-68335D01*
X31421Y-68350D01*
X31435Y-68364D01*
X31450Y-68392D01*
X31450Y-68421D01*
X31435Y-68464D01*
X31264Y-68635D01*
X31450Y-68635D01*
X32135Y-68635D02*
X31992Y-68635D01*
X31992Y-68335D01*
X32235Y-68478D02*
X32335Y-68478D01*
X32378Y-68635D02*
X32235Y-68635D01*
X32235Y-68335D01*
X32378Y-68335D01*
X32507Y-68635D02*
X32507Y-68335D01*
X32578Y-68335D01*
X32621Y-68350D01*
X32650Y-68378D01*
X32664Y-68407D01*
X32678Y-68464D01*
X32678Y-68507D01*
X32664Y-68564D01*
X32650Y-68592D01*
X32621Y-68621D01*
X32578Y-68635D01*
X32507Y-68635D01*
X32735Y-68664D02*
X32964Y-68664D01*
X33207Y-68607D02*
X33192Y-68621D01*
X33150Y-68635D01*
X33121Y-68635D01*
X33078Y-68621D01*
X33050Y-68592D01*
X33035Y-68564D01*
X33021Y-68507D01*
X33021Y-68464D01*
X33035Y-68407D01*
X33050Y-68378D01*
X33078Y-68350D01*
X33121Y-68335D01*
X33150Y-68335D01*
X33192Y-68350D01*
X33207Y-68364D01*
X33321Y-68550D02*
X33464Y-68550D01*
X33292Y-68635D02*
X33392Y-68335D01*
X33492Y-68635D01*
X33764Y-68635D02*
X33664Y-68492D01*
X33592Y-68635D02*
X33592Y-68335D01*
X33707Y-68335D01*
X33735Y-68350D01*
X33750Y-68364D01*
X33764Y-68392D01*
X33764Y-68435D01*
X33750Y-68464D01*
X33735Y-68478D01*
X33707Y-68492D01*
X33592Y-68492D01*
X33892Y-68635D02*
X33892Y-68335D01*
X33964Y-68335D01*
X34007Y-68350D01*
X34035Y-68378D01*
X34050Y-68407D01*
X34064Y-68464D01*
X34064Y-68507D01*
X34050Y-68564D01*
X34035Y-68592D01*
X34007Y-68621D01*
X33964Y-68635D01*
X33892Y-68635D01*
X34121Y-68664D02*
X34350Y-68664D01*
X34521Y-68478D02*
X34564Y-68492D01*
X34578Y-68507D01*
X34592Y-68535D01*
X34592Y-68578D01*
X34578Y-68607D01*
X34564Y-68621D01*
X34535Y-68635D01*
X34421Y-68635D01*
X34421Y-68335D01*
X34521Y-68335D01*
X34550Y-68350D01*
X34564Y-68364D01*
X34578Y-68392D01*
X34578Y-68421D01*
X34564Y-68450D01*
X34550Y-68464D01*
X34521Y-68478D01*
X34421Y-68478D01*
X34778Y-68335D02*
X34835Y-68335D01*
X34864Y-68350D01*
X34892Y-68378D01*
X34907Y-68435D01*
X34907Y-68535D01*
X34892Y-68592D01*
X34864Y-68621D01*
X34835Y-68635D01*
X34778Y-68635D01*
X34750Y-68621D01*
X34721Y-68592D01*
X34707Y-68535D01*
X34707Y-68435D01*
X34721Y-68378D01*
X34750Y-68350D01*
X34778Y-68335D01*
X34992Y-68335D02*
X35164Y-68335D01*
X35078Y-68635D02*
X35078Y-68335D01*
X35221Y-68335D02*
X35392Y-68335D01*
X35307Y-68635D02*
X35307Y-68335D01*
X35549Y-68335D02*
X35607Y-68335D01*
X35635Y-68350D01*
X35664Y-68378D01*
X35678Y-68435D01*
X35678Y-68535D01*
X35664Y-68592D01*
X35635Y-68621D01*
X35607Y-68635D01*
X35549Y-68635D01*
X35521Y-68621D01*
X35492Y-68592D01*
X35478Y-68535D01*
X35478Y-68435D01*
X35492Y-68378D01*
X35521Y-68350D01*
X35549Y-68335D01*
X35807Y-68635D02*
X35807Y-68335D01*
X35907Y-68550D01*
X36007Y-68335D01*
X36007Y-68635D01*
X33664Y-64135D02*
X33521Y-64135D01*
X33521Y-63835D01*
X33764Y-63978D02*
X33864Y-63978D01*
X33907Y-64135D02*
X33764Y-64135D01*
X33764Y-63835D01*
X33907Y-63835D01*
X34035Y-64135D02*
X34035Y-63835D01*
X34107Y-63835D01*
X34150Y-63850D01*
X34178Y-63878D01*
X34192Y-63907D01*
X34207Y-63964D01*
X34207Y-64007D01*
X34192Y-64064D01*
X34178Y-64092D01*
X34150Y-64121D01*
X34107Y-64135D01*
X34035Y-64135D01*
X34492Y-64135D02*
X34321Y-64135D01*
X34407Y-64135D02*
X34407Y-63835D01*
X34378Y-63878D01*
X34350Y-63907D01*
X34321Y-63921D01*
X33664Y-67135D02*
X33521Y-67135D01*
X33521Y-66835D01*
X33764Y-66978D02*
X33864Y-66978D01*
X33907Y-67135D02*
X33764Y-67135D01*
X33764Y-66835D01*
X33907Y-66835D01*
X34035Y-67135D02*
X34035Y-66835D01*
X34107Y-66835D01*
X34150Y-66850D01*
X34178Y-66878D01*
X34192Y-66907D01*
X34207Y-66964D01*
X34207Y-67007D01*
X34192Y-67064D01*
X34178Y-67092D01*
X34150Y-67121D01*
X34107Y-67135D01*
X34035Y-67135D01*
X34321Y-66864D02*
X34335Y-66850D01*
X34364Y-66835D01*
X34435Y-66835D01*
X34464Y-66850D01*
X34478Y-66864D01*
X34492Y-66892D01*
X34492Y-66921D01*
X34478Y-66964D01*
X34307Y-67135D01*
X34492Y-67135D01*
X31028Y-62885D02*
X31028Y-62585D01*
X31142Y-62585D01*
X31171Y-62600D01*
X31185Y-62614D01*
X31200Y-62642D01*
X31200Y-62685D01*
X31185Y-62714D01*
X31171Y-62728D01*
X31142Y-62742D01*
X31028Y-62742D01*
X31300Y-62585D02*
X31500Y-62585D01*
X31371Y-62885D01*
X32578Y-62635D02*
X32435Y-62635D01*
X32435Y-62335D01*
X32678Y-62478D02*
X32778Y-62478D01*
X32821Y-62635D02*
X32678Y-62635D01*
X32678Y-62335D01*
X32821Y-62335D01*
X32950Y-62635D02*
X32950Y-62335D01*
X33021Y-62335D01*
X33064Y-62350D01*
X33092Y-62378D01*
X33107Y-62407D01*
X33121Y-62464D01*
X33121Y-62507D01*
X33107Y-62564D01*
X33092Y-62592D01*
X33064Y-62621D01*
X33021Y-62635D01*
X32950Y-62635D01*
X33178Y-62664D02*
X33407Y-62664D01*
X33650Y-62607D02*
X33635Y-62621D01*
X33592Y-62635D01*
X33564Y-62635D01*
X33521Y-62621D01*
X33492Y-62592D01*
X33478Y-62564D01*
X33464Y-62507D01*
X33464Y-62464D01*
X33478Y-62407D01*
X33492Y-62378D01*
X33521Y-62350D01*
X33564Y-62335D01*
X33592Y-62335D01*
X33635Y-62350D01*
X33650Y-62364D01*
X33764Y-62550D02*
X33907Y-62550D01*
X33735Y-62635D02*
X33835Y-62335D01*
X33935Y-62635D01*
X34207Y-62635D02*
X34107Y-62492D01*
X34035Y-62635D02*
X34035Y-62335D01*
X34150Y-62335D01*
X34178Y-62350D01*
X34192Y-62364D01*
X34207Y-62392D01*
X34207Y-62435D01*
X34192Y-62464D01*
X34178Y-62478D01*
X34150Y-62492D01*
X34035Y-62492D01*
X34335Y-62635D02*
X34335Y-62335D01*
X34407Y-62335D01*
X34450Y-62350D01*
X34478Y-62378D01*
X34492Y-62407D01*
X34507Y-62464D01*
X34507Y-62507D01*
X34492Y-62564D01*
X34478Y-62592D01*
X34450Y-62621D01*
X34407Y-62635D01*
X34335Y-62635D01*
X34564Y-62664D02*
X34792Y-62664D01*
X34821Y-62335D02*
X34992Y-62335D01*
X34907Y-62635D02*
X34907Y-62335D01*
X35149Y-62335D02*
X35207Y-62335D01*
X35235Y-62350D01*
X35264Y-62378D01*
X35278Y-62435D01*
X35278Y-62535D01*
X35264Y-62592D01*
X35235Y-62621D01*
X35207Y-62635D01*
X35149Y-62635D01*
X35121Y-62621D01*
X35092Y-62592D01*
X35078Y-62535D01*
X35078Y-62435D01*
X35092Y-62378D01*
X35121Y-62350D01*
X35149Y-62335D01*
X35407Y-62635D02*
X35407Y-62335D01*
X35521Y-62335D01*
X35550Y-62350D01*
X35564Y-62364D01*
X35578Y-62392D01*
X35578Y-62435D01*
X35564Y-62464D01*
X35550Y-62478D01*
X35521Y-62492D01*
X35407Y-62492D01*
X36185Y-67300D02*
X36042Y-67400D01*
X36185Y-67471D02*
X35885Y-67471D01*
X35885Y-67357D01*
X35900Y-67328D01*
X35914Y-67314D01*
X35942Y-67300D01*
X35985Y-67300D01*
X36014Y-67314D01*
X36028Y-67328D01*
X36042Y-67357D01*
X36042Y-67471D01*
X35985Y-67042D02*
X36185Y-67042D01*
X35871Y-67114D02*
X36085Y-67185D01*
X36085Y-67000D01*
X36764Y-67978D02*
X36750Y-67964D01*
X36735Y-67935D01*
X36735Y-67864D01*
X36750Y-67835D01*
X36764Y-67821D01*
X36792Y-67807D01*
X36821Y-67807D01*
X36864Y-67821D01*
X37035Y-67992D01*
X37035Y-67807D01*
X37035Y-67678D02*
X36735Y-67678D01*
X36921Y-67650D02*
X37035Y-67564D01*
X36835Y-67564D02*
X36950Y-67678D01*
X37035Y-67450D02*
X37035Y-67378D01*
X36978Y-67378D01*
X36964Y-67407D01*
X36935Y-67435D01*
X36892Y-67450D01*
X36821Y-67450D01*
X36778Y-67435D01*
X36750Y-67407D01*
X36735Y-67364D01*
X36735Y-67307D01*
X36750Y-67264D01*
X36778Y-67235D01*
X36821Y-67221D01*
X36892Y-67221D01*
X36935Y-67235D01*
X36964Y-67264D01*
X36978Y-67292D01*
X37035Y-67292D01*
X37035Y-67221D01*
X37700Y-62385D02*
X37600Y-62242D01*
X37528Y-62385D02*
X37528Y-62085D01*
X37642Y-62085D01*
X37671Y-62100D01*
X37685Y-62114D01*
X37700Y-62142D01*
X37700Y-62185D01*
X37685Y-62214D01*
X37671Y-62228D01*
X37642Y-62242D01*
X37528Y-62242D01*
X37971Y-62085D02*
X37828Y-62085D01*
X37814Y-62228D01*
X37828Y-62214D01*
X37857Y-62200D01*
X37928Y-62200D01*
X37957Y-62214D01*
X37971Y-62228D01*
X37985Y-62257D01*
X37985Y-62328D01*
X37971Y-62357D01*
X37957Y-62371D01*
X37928Y-62385D01*
X37857Y-62385D01*
X37828Y-62371D01*
X37814Y-62357D01*
X37542Y-62885D02*
X37371Y-62885D01*
X37457Y-62885D02*
X37457Y-62585D01*
X37428Y-62628D01*
X37400Y-62657D01*
X37371Y-62671D01*
X37671Y-62885D02*
X37671Y-62585D01*
X37700Y-62771D02*
X37785Y-62885D01*
X37785Y-62685D02*
X37671Y-62800D01*
X37900Y-62885D02*
X37971Y-62885D01*
X37971Y-62828D01*
X37942Y-62814D01*
X37914Y-62785D01*
X37900Y-62742D01*
X37900Y-62671D01*
X37914Y-62628D01*
X37942Y-62600D01*
X37985Y-62585D01*
X38042Y-62585D01*
X38085Y-62600D01*
X38114Y-62628D01*
X38128Y-62671D01*
X38128Y-62742D01*
X38114Y-62785D01*
X38085Y-62814D01*
X38057Y-62828D01*
X38057Y-62885D01*
X38128Y-62885D01*
X29371Y-66478D02*
X29385Y-66435D01*
X29385Y-66364D01*
X29371Y-66335D01*
X29357Y-66321D01*
X29328Y-66307D01*
X29300Y-66307D01*
X29271Y-66321D01*
X29257Y-66335D01*
X29242Y-66364D01*
X29228Y-66421D01*
X29214Y-66450D01*
X29200Y-66464D01*
X29171Y-66478D01*
X29142Y-66478D01*
X29114Y-66464D01*
X29100Y-66450D01*
X29085Y-66421D01*
X29085Y-66350D01*
X29100Y-66307D01*
X29385Y-66021D02*
X29385Y-66192D01*
X29385Y-66107D02*
X29085Y-66107D01*
X29128Y-66135D01*
X29157Y-66164D01*
X29171Y-66192D01*
X30607Y-67085D02*
X30778Y-67085D01*
X30692Y-67385D02*
X30692Y-67085D01*
X30935Y-67085D02*
X30992Y-67085D01*
X31021Y-67100D01*
X31050Y-67128D01*
X31064Y-67185D01*
X31064Y-67285D01*
X31050Y-67342D01*
X31021Y-67371D01*
X30992Y-67385D01*
X30935Y-67385D01*
X30907Y-67371D01*
X30878Y-67342D01*
X30864Y-67285D01*
X30864Y-67185D01*
X30878Y-67128D01*
X30907Y-67100D01*
X30935Y-67085D01*
X31192Y-67385D02*
X31192Y-67085D01*
X31307Y-67085D01*
X31335Y-67100D01*
X31350Y-67114D01*
X31364Y-67142D01*
X31364Y-67185D01*
X31350Y-67214D01*
X31335Y-67228D01*
X31307Y-67242D01*
X31192Y-67242D01*
X36635Y-65792D02*
X36335Y-65792D01*
X36607Y-65478D02*
X36621Y-65492D01*
X36635Y-65535D01*
X36635Y-65564D01*
X36621Y-65607D01*
X36592Y-65635D01*
X36564Y-65649D01*
X36507Y-65664D01*
X36464Y-65664D01*
X36407Y-65649D01*
X36378Y-65635D01*
X36350Y-65607D01*
X36335Y-65564D01*
X36335Y-65535D01*
X36350Y-65492D01*
X36364Y-65478D01*
X36335Y-65378D02*
X36335Y-65192D01*
X36450Y-65292D01*
X36450Y-65249D01*
X36464Y-65221D01*
X36478Y-65207D01*
X36507Y-65192D01*
X36578Y-65192D01*
X36607Y-65207D01*
X36621Y-65221D01*
X36635Y-65249D01*
X36635Y-65335D01*
X36621Y-65364D01*
X36607Y-65378D01*
X36821Y-65335D02*
X36992Y-65335D01*
X36907Y-65635D02*
X36907Y-65335D01*
X37235Y-65635D02*
X37092Y-65635D01*
X37092Y-65335D01*
X37507Y-65607D02*
X37492Y-65621D01*
X37450Y-65635D01*
X37421Y-65635D01*
X37378Y-65621D01*
X37350Y-65592D01*
X37335Y-65564D01*
X37321Y-65507D01*
X37321Y-65464D01*
X37335Y-65407D01*
X37350Y-65378D01*
X37378Y-65350D01*
X37421Y-65335D01*
X37450Y-65335D01*
X37492Y-65350D01*
X37507Y-65364D01*
X37778Y-65335D02*
X37635Y-65335D01*
X37621Y-65478D01*
X37635Y-65464D01*
X37664Y-65450D01*
X37735Y-65450D01*
X37764Y-65464D01*
X37778Y-65478D01*
X37792Y-65507D01*
X37792Y-65578D01*
X37778Y-65607D01*
X37764Y-65621D01*
X37735Y-65635D01*
X37664Y-65635D01*
X37635Y-65621D01*
X37621Y-65607D01*
X37935Y-65635D02*
X37992Y-65635D01*
X38021Y-65621D01*
X38035Y-65607D01*
X38064Y-65564D01*
X38078Y-65507D01*
X38078Y-65392D01*
X38064Y-65364D01*
X38050Y-65350D01*
X38021Y-65335D01*
X37964Y-65335D01*
X37935Y-65350D01*
X37921Y-65364D01*
X37907Y-65392D01*
X37907Y-65464D01*
X37921Y-65492D01*
X37935Y-65507D01*
X37964Y-65521D01*
X38021Y-65521D01*
X38050Y-65507D01*
X38064Y-65492D01*
X38078Y-65464D01*
X38178Y-65335D02*
X38378Y-65335D01*
X38250Y-65635D01*
X38464Y-65335D02*
X38649Y-65335D01*
X38549Y-65450D01*
X38592Y-65450D01*
X38621Y-65464D01*
X38635Y-65478D01*
X38649Y-65507D01*
X38649Y-65578D01*
X38635Y-65607D01*
X38621Y-65621D01*
X38592Y-65635D01*
X38507Y-65635D01*
X38478Y-65621D01*
X38464Y-65607D01*
X36635Y-55792D02*
X36335Y-55792D01*
X36607Y-55478D02*
X36621Y-55492D01*
X36635Y-55535D01*
X36635Y-55564D01*
X36621Y-55607D01*
X36592Y-55635D01*
X36564Y-55649D01*
X36507Y-55664D01*
X36464Y-55664D01*
X36407Y-55649D01*
X36378Y-55635D01*
X36350Y-55607D01*
X36335Y-55564D01*
X36335Y-55535D01*
X36350Y-55492D01*
X36364Y-55478D01*
X36335Y-55378D02*
X36335Y-55192D01*
X36450Y-55292D01*
X36450Y-55249D01*
X36464Y-55221D01*
X36478Y-55207D01*
X36507Y-55192D01*
X36578Y-55192D01*
X36607Y-55207D01*
X36621Y-55221D01*
X36635Y-55249D01*
X36635Y-55335D01*
X36621Y-55364D01*
X36607Y-55378D01*
X36821Y-55335D02*
X36992Y-55335D01*
X36907Y-55635D02*
X36907Y-55335D01*
X37235Y-55635D02*
X37092Y-55635D01*
X37092Y-55335D01*
X37507Y-55607D02*
X37492Y-55621D01*
X37450Y-55635D01*
X37421Y-55635D01*
X37378Y-55621D01*
X37350Y-55592D01*
X37335Y-55564D01*
X37321Y-55507D01*
X37321Y-55464D01*
X37335Y-55407D01*
X37350Y-55378D01*
X37378Y-55350D01*
X37421Y-55335D01*
X37450Y-55335D01*
X37492Y-55350D01*
X37507Y-55364D01*
X37778Y-55335D02*
X37635Y-55335D01*
X37621Y-55478D01*
X37635Y-55464D01*
X37664Y-55450D01*
X37735Y-55450D01*
X37764Y-55464D01*
X37778Y-55478D01*
X37792Y-55507D01*
X37792Y-55578D01*
X37778Y-55607D01*
X37764Y-55621D01*
X37735Y-55635D01*
X37664Y-55635D01*
X37635Y-55621D01*
X37621Y-55607D01*
X37935Y-55635D02*
X37992Y-55635D01*
X38021Y-55621D01*
X38035Y-55607D01*
X38064Y-55564D01*
X38078Y-55507D01*
X38078Y-55392D01*
X38064Y-55364D01*
X38050Y-55350D01*
X38021Y-55335D01*
X37964Y-55335D01*
X37935Y-55350D01*
X37921Y-55364D01*
X37907Y-55392D01*
X37907Y-55464D01*
X37921Y-55492D01*
X37935Y-55507D01*
X37964Y-55521D01*
X38021Y-55521D01*
X38050Y-55507D01*
X38064Y-55492D01*
X38078Y-55464D01*
X38178Y-55335D02*
X38378Y-55335D01*
X38250Y-55635D01*
X38464Y-55335D02*
X38649Y-55335D01*
X38549Y-55450D01*
X38592Y-55450D01*
X38621Y-55464D01*
X38635Y-55478D01*
X38649Y-55507D01*
X38649Y-55578D01*
X38635Y-55607D01*
X38621Y-55621D01*
X38592Y-55635D01*
X38507Y-55635D01*
X38478Y-55621D01*
X38464Y-55607D01*
X29371Y-56478D02*
X29385Y-56435D01*
X29385Y-56364D01*
X29371Y-56335D01*
X29357Y-56321D01*
X29328Y-56307D01*
X29300Y-56307D01*
X29271Y-56321D01*
X29257Y-56335D01*
X29242Y-56364D01*
X29228Y-56421D01*
X29214Y-56450D01*
X29200Y-56464D01*
X29171Y-56478D01*
X29142Y-56478D01*
X29114Y-56464D01*
X29100Y-56450D01*
X29085Y-56421D01*
X29085Y-56350D01*
X29100Y-56307D01*
X29385Y-56021D02*
X29385Y-56192D01*
X29385Y-56107D02*
X29085Y-56107D01*
X29128Y-56135D01*
X29157Y-56164D01*
X29171Y-56192D01*
X30607Y-57085D02*
X30778Y-57085D01*
X30692Y-57385D02*
X30692Y-57085D01*
X30935Y-57085D02*
X30992Y-57085D01*
X31021Y-57100D01*
X31050Y-57128D01*
X31064Y-57185D01*
X31064Y-57285D01*
X31050Y-57342D01*
X31021Y-57371D01*
X30992Y-57385D01*
X30935Y-57385D01*
X30907Y-57371D01*
X30878Y-57342D01*
X30864Y-57285D01*
X30864Y-57185D01*
X30878Y-57128D01*
X30907Y-57100D01*
X30935Y-57085D01*
X31192Y-57385D02*
X31192Y-57085D01*
X31307Y-57085D01*
X31335Y-57100D01*
X31350Y-57114D01*
X31364Y-57142D01*
X31364Y-57185D01*
X31350Y-57214D01*
X31335Y-57228D01*
X31307Y-57242D01*
X31192Y-57242D01*
X37700Y-52385D02*
X37600Y-52242D01*
X37528Y-52385D02*
X37528Y-52085D01*
X37642Y-52085D01*
X37671Y-52100D01*
X37685Y-52114D01*
X37700Y-52142D01*
X37700Y-52185D01*
X37685Y-52214D01*
X37671Y-52228D01*
X37642Y-52242D01*
X37528Y-52242D01*
X37971Y-52085D02*
X37828Y-52085D01*
X37814Y-52228D01*
X37828Y-52214D01*
X37857Y-52200D01*
X37928Y-52200D01*
X37957Y-52214D01*
X37971Y-52228D01*
X37985Y-52257D01*
X37985Y-52328D01*
X37971Y-52357D01*
X37957Y-52371D01*
X37928Y-52385D01*
X37857Y-52385D01*
X37828Y-52371D01*
X37814Y-52357D01*
X37542Y-52885D02*
X37371Y-52885D01*
X37457Y-52885D02*
X37457Y-52585D01*
X37428Y-52628D01*
X37400Y-52657D01*
X37371Y-52671D01*
X37671Y-52885D02*
X37671Y-52585D01*
X37700Y-52771D02*
X37785Y-52885D01*
X37785Y-52685D02*
X37671Y-52800D01*
X37900Y-52885D02*
X37971Y-52885D01*
X37971Y-52828D01*
X37942Y-52814D01*
X37914Y-52785D01*
X37900Y-52742D01*
X37900Y-52671D01*
X37914Y-52628D01*
X37942Y-52600D01*
X37985Y-52585D01*
X38042Y-52585D01*
X38085Y-52600D01*
X38114Y-52628D01*
X38128Y-52671D01*
X38128Y-52742D01*
X38114Y-52785D01*
X38085Y-52814D01*
X38057Y-52828D01*
X38057Y-52885D01*
X38128Y-52885D01*
X36185Y-57300D02*
X36042Y-57400D01*
X36185Y-57471D02*
X35885Y-57471D01*
X35885Y-57357D01*
X35900Y-57328D01*
X35914Y-57314D01*
X35942Y-57300D01*
X35985Y-57300D01*
X36014Y-57314D01*
X36028Y-57328D01*
X36042Y-57357D01*
X36042Y-57471D01*
X35985Y-57042D02*
X36185Y-57042D01*
X35871Y-57114D02*
X36085Y-57185D01*
X36085Y-57000D01*
X36764Y-57978D02*
X36750Y-57964D01*
X36735Y-57935D01*
X36735Y-57864D01*
X36750Y-57835D01*
X36764Y-57821D01*
X36792Y-57807D01*
X36821Y-57807D01*
X36864Y-57821D01*
X37035Y-57992D01*
X37035Y-57807D01*
X37035Y-57678D02*
X36735Y-57678D01*
X36921Y-57650D02*
X37035Y-57564D01*
X36835Y-57564D02*
X36950Y-57678D01*
X37035Y-57450D02*
X37035Y-57378D01*
X36978Y-57378D01*
X36964Y-57407D01*
X36935Y-57435D01*
X36892Y-57450D01*
X36821Y-57450D01*
X36778Y-57435D01*
X36750Y-57407D01*
X36735Y-57364D01*
X36735Y-57307D01*
X36750Y-57264D01*
X36778Y-57235D01*
X36821Y-57221D01*
X36892Y-57221D01*
X36935Y-57235D01*
X36964Y-57264D01*
X36978Y-57292D01*
X37035Y-57292D01*
X37035Y-57221D01*
X31028Y-52885D02*
X31028Y-52585D01*
X31142Y-52585D01*
X31171Y-52600D01*
X31185Y-52614D01*
X31200Y-52642D01*
X31200Y-52685D01*
X31185Y-52714D01*
X31171Y-52728D01*
X31142Y-52742D01*
X31028Y-52742D01*
X31300Y-52585D02*
X31500Y-52585D01*
X31371Y-52885D01*
X32578Y-52635D02*
X32435Y-52635D01*
X32435Y-52335D01*
X32678Y-52478D02*
X32778Y-52478D01*
X32821Y-52635D02*
X32678Y-52635D01*
X32678Y-52335D01*
X32821Y-52335D01*
X32950Y-52635D02*
X32950Y-52335D01*
X33021Y-52335D01*
X33064Y-52350D01*
X33092Y-52378D01*
X33107Y-52407D01*
X33121Y-52464D01*
X33121Y-52507D01*
X33107Y-52564D01*
X33092Y-52592D01*
X33064Y-52621D01*
X33021Y-52635D01*
X32950Y-52635D01*
X33178Y-52664D02*
X33407Y-52664D01*
X33650Y-52607D02*
X33635Y-52621D01*
X33592Y-52635D01*
X33564Y-52635D01*
X33521Y-52621D01*
X33492Y-52592D01*
X33478Y-52564D01*
X33464Y-52507D01*
X33464Y-52464D01*
X33478Y-52407D01*
X33492Y-52378D01*
X33521Y-52350D01*
X33564Y-52335D01*
X33592Y-52335D01*
X33635Y-52350D01*
X33650Y-52364D01*
X33764Y-52550D02*
X33907Y-52550D01*
X33735Y-52635D02*
X33835Y-52335D01*
X33935Y-52635D01*
X34207Y-52635D02*
X34107Y-52492D01*
X34035Y-52635D02*
X34035Y-52335D01*
X34150Y-52335D01*
X34178Y-52350D01*
X34192Y-52364D01*
X34207Y-52392D01*
X34207Y-52435D01*
X34192Y-52464D01*
X34178Y-52478D01*
X34150Y-52492D01*
X34035Y-52492D01*
X34335Y-52635D02*
X34335Y-52335D01*
X34407Y-52335D01*
X34450Y-52350D01*
X34478Y-52378D01*
X34492Y-52407D01*
X34507Y-52464D01*
X34507Y-52507D01*
X34492Y-52564D01*
X34478Y-52592D01*
X34450Y-52621D01*
X34407Y-52635D01*
X34335Y-52635D01*
X34564Y-52664D02*
X34792Y-52664D01*
X34821Y-52335D02*
X34992Y-52335D01*
X34907Y-52635D02*
X34907Y-52335D01*
X35149Y-52335D02*
X35207Y-52335D01*
X35235Y-52350D01*
X35264Y-52378D01*
X35278Y-52435D01*
X35278Y-52535D01*
X35264Y-52592D01*
X35235Y-52621D01*
X35207Y-52635D01*
X35149Y-52635D01*
X35121Y-52621D01*
X35092Y-52592D01*
X35078Y-52535D01*
X35078Y-52435D01*
X35092Y-52378D01*
X35121Y-52350D01*
X35149Y-52335D01*
X35407Y-52635D02*
X35407Y-52335D01*
X35521Y-52335D01*
X35550Y-52350D01*
X35564Y-52364D01*
X35578Y-52392D01*
X35578Y-52435D01*
X35564Y-52464D01*
X35550Y-52478D01*
X35521Y-52492D01*
X35407Y-52492D01*
X33664Y-57135D02*
X33521Y-57135D01*
X33521Y-56835D01*
X33764Y-56978D02*
X33864Y-56978D01*
X33907Y-57135D02*
X33764Y-57135D01*
X33764Y-56835D01*
X33907Y-56835D01*
X34035Y-57135D02*
X34035Y-56835D01*
X34107Y-56835D01*
X34150Y-56850D01*
X34178Y-56878D01*
X34192Y-56907D01*
X34207Y-56964D01*
X34207Y-57007D01*
X34192Y-57064D01*
X34178Y-57092D01*
X34150Y-57121D01*
X34107Y-57135D01*
X34035Y-57135D01*
X34321Y-56864D02*
X34335Y-56850D01*
X34364Y-56835D01*
X34435Y-56835D01*
X34464Y-56850D01*
X34478Y-56864D01*
X34492Y-56892D01*
X34492Y-56921D01*
X34478Y-56964D01*
X34307Y-57135D01*
X34492Y-57135D01*
X33664Y-54135D02*
X33521Y-54135D01*
X33521Y-53835D01*
X33764Y-53978D02*
X33864Y-53978D01*
X33907Y-54135D02*
X33764Y-54135D01*
X33764Y-53835D01*
X33907Y-53835D01*
X34035Y-54135D02*
X34035Y-53835D01*
X34107Y-53835D01*
X34150Y-53850D01*
X34178Y-53878D01*
X34192Y-53907D01*
X34207Y-53964D01*
X34207Y-54007D01*
X34192Y-54064D01*
X34178Y-54092D01*
X34150Y-54121D01*
X34107Y-54135D01*
X34035Y-54135D01*
X34492Y-54135D02*
X34321Y-54135D01*
X34407Y-54135D02*
X34407Y-53835D01*
X34378Y-53878D01*
X34350Y-53907D01*
X34321Y-53921D01*
X31150Y-58335D02*
X31150Y-58550D01*
X31135Y-58592D01*
X31107Y-58621D01*
X31064Y-58635D01*
X31035Y-58635D01*
X31278Y-58364D02*
X31292Y-58350D01*
X31321Y-58335D01*
X31392Y-58335D01*
X31421Y-58350D01*
X31435Y-58364D01*
X31450Y-58392D01*
X31450Y-58421D01*
X31435Y-58464D01*
X31264Y-58635D01*
X31450Y-58635D01*
X32135Y-58635D02*
X31992Y-58635D01*
X31992Y-58335D01*
X32235Y-58478D02*
X32335Y-58478D01*
X32378Y-58635D02*
X32235Y-58635D01*
X32235Y-58335D01*
X32378Y-58335D01*
X32507Y-58635D02*
X32507Y-58335D01*
X32578Y-58335D01*
X32621Y-58350D01*
X32650Y-58378D01*
X32664Y-58407D01*
X32678Y-58464D01*
X32678Y-58507D01*
X32664Y-58564D01*
X32650Y-58592D01*
X32621Y-58621D01*
X32578Y-58635D01*
X32507Y-58635D01*
X32735Y-58664D02*
X32964Y-58664D01*
X33207Y-58607D02*
X33192Y-58621D01*
X33150Y-58635D01*
X33121Y-58635D01*
X33078Y-58621D01*
X33050Y-58592D01*
X33035Y-58564D01*
X33021Y-58507D01*
X33021Y-58464D01*
X33035Y-58407D01*
X33050Y-58378D01*
X33078Y-58350D01*
X33121Y-58335D01*
X33150Y-58335D01*
X33192Y-58350D01*
X33207Y-58364D01*
X33321Y-58550D02*
X33464Y-58550D01*
X33292Y-58635D02*
X33392Y-58335D01*
X33492Y-58635D01*
X33764Y-58635D02*
X33664Y-58492D01*
X33592Y-58635D02*
X33592Y-58335D01*
X33707Y-58335D01*
X33735Y-58350D01*
X33750Y-58364D01*
X33764Y-58392D01*
X33764Y-58435D01*
X33750Y-58464D01*
X33735Y-58478D01*
X33707Y-58492D01*
X33592Y-58492D01*
X33892Y-58635D02*
X33892Y-58335D01*
X33964Y-58335D01*
X34007Y-58350D01*
X34035Y-58378D01*
X34050Y-58407D01*
X34064Y-58464D01*
X34064Y-58507D01*
X34050Y-58564D01*
X34035Y-58592D01*
X34007Y-58621D01*
X33964Y-58635D01*
X33892Y-58635D01*
X34121Y-58664D02*
X34350Y-58664D01*
X34521Y-58478D02*
X34564Y-58492D01*
X34578Y-58507D01*
X34592Y-58535D01*
X34592Y-58578D01*
X34578Y-58607D01*
X34564Y-58621D01*
X34535Y-58635D01*
X34421Y-58635D01*
X34421Y-58335D01*
X34521Y-58335D01*
X34550Y-58350D01*
X34564Y-58364D01*
X34578Y-58392D01*
X34578Y-58421D01*
X34564Y-58450D01*
X34550Y-58464D01*
X34521Y-58478D01*
X34421Y-58478D01*
X34778Y-58335D02*
X34835Y-58335D01*
X34864Y-58350D01*
X34892Y-58378D01*
X34907Y-58435D01*
X34907Y-58535D01*
X34892Y-58592D01*
X34864Y-58621D01*
X34835Y-58635D01*
X34778Y-58635D01*
X34750Y-58621D01*
X34721Y-58592D01*
X34707Y-58535D01*
X34707Y-58435D01*
X34721Y-58378D01*
X34750Y-58350D01*
X34778Y-58335D01*
X34992Y-58335D02*
X35164Y-58335D01*
X35078Y-58635D02*
X35078Y-58335D01*
X35221Y-58335D02*
X35392Y-58335D01*
X35307Y-58635D02*
X35307Y-58335D01*
X35549Y-58335D02*
X35607Y-58335D01*
X35635Y-58350D01*
X35664Y-58378D01*
X35678Y-58435D01*
X35678Y-58535D01*
X35664Y-58592D01*
X35635Y-58621D01*
X35607Y-58635D01*
X35549Y-58635D01*
X35521Y-58621D01*
X35492Y-58592D01*
X35478Y-58535D01*
X35478Y-58435D01*
X35492Y-58378D01*
X35521Y-58350D01*
X35549Y-58335D01*
X35807Y-58635D02*
X35807Y-58335D01*
X35907Y-58550D01*
X36007Y-58335D01*
X36007Y-58635D01*
X30057Y-58357D02*
X30042Y-58371D01*
X30000Y-58385D01*
X29971Y-58385D01*
X29928Y-58371D01*
X29900Y-58342D01*
X29885Y-58314D01*
X29871Y-58257D01*
X29871Y-58214D01*
X29885Y-58157D01*
X29900Y-58128D01*
X29928Y-58100D01*
X29971Y-58085D01*
X30000Y-58085D01*
X30042Y-58100D01*
X30057Y-58114D01*
X30342Y-58385D02*
X30171Y-58385D01*
X30257Y-58385D02*
X30257Y-58085D01*
X30228Y-58128D01*
X30200Y-58157D01*
X30171Y-58171D01*
X30628Y-58385D02*
X30457Y-58385D01*
X30542Y-58385D02*
X30542Y-58085D01*
X30514Y-58128D01*
X30485Y-58157D01*
X30457Y-58171D01*
X29757Y-58585D02*
X29785Y-58585D01*
X29814Y-58600D01*
X29828Y-58614D01*
X29842Y-58642D01*
X29857Y-58700D01*
X29857Y-58771D01*
X29842Y-58828D01*
X29828Y-58857D01*
X29814Y-58871D01*
X29785Y-58885D01*
X29757Y-58885D01*
X29728Y-58871D01*
X29714Y-58857D01*
X29700Y-58828D01*
X29685Y-58771D01*
X29685Y-58700D01*
X29700Y-58642D01*
X29714Y-58614D01*
X29728Y-58600D01*
X29757Y-58585D01*
X29985Y-58857D02*
X30000Y-58871D01*
X29985Y-58885D01*
X29971Y-58871D01*
X29985Y-58857D01*
X29985Y-58885D01*
X30285Y-58885D02*
X30114Y-58885D01*
X30200Y-58885D02*
X30200Y-58585D01*
X30171Y-58628D01*
X30142Y-58657D01*
X30114Y-58671D01*
X30542Y-58685D02*
X30542Y-58885D01*
X30414Y-58685D02*
X30414Y-58842D01*
X30428Y-58871D01*
X30457Y-58885D01*
X30500Y-58885D01*
X30528Y-58871D01*
X30542Y-58857D01*
X30785Y-58728D02*
X30685Y-58728D01*
X30685Y-58885D02*
X30685Y-58585D01*
X30828Y-58585D01*
X36607Y-57442D02*
X36621Y-57457D01*
X36635Y-57500D01*
X36635Y-57528D01*
X36621Y-57571D01*
X36592Y-57600D01*
X36564Y-57614D01*
X36507Y-57628D01*
X36464Y-57628D01*
X36407Y-57614D01*
X36378Y-57600D01*
X36350Y-57571D01*
X36335Y-57528D01*
X36335Y-57500D01*
X36350Y-57457D01*
X36364Y-57442D01*
X36635Y-57157D02*
X36635Y-57328D01*
X36635Y-57242D02*
X36335Y-57242D01*
X36378Y-57271D01*
X36407Y-57300D01*
X36421Y-57328D01*
X36335Y-56971D02*
X36335Y-56942D01*
X36350Y-56914D01*
X36364Y-56900D01*
X36392Y-56885D01*
X36450Y-56871D01*
X36521Y-56871D01*
X36578Y-56885D01*
X36607Y-56900D01*
X36621Y-56914D01*
X36635Y-56942D01*
X36635Y-56971D01*
X36621Y-57000D01*
X36607Y-57014D01*
X36578Y-57028D01*
X36521Y-57042D01*
X36450Y-57042D01*
X36392Y-57028D01*
X36364Y-57014D01*
X36350Y-57000D01*
X36335Y-56971D01*
X37185Y-58092D02*
X37185Y-58064D01*
X37200Y-58035D01*
X37214Y-58021D01*
X37242Y-58007D01*
X37300Y-57992D01*
X37371Y-57992D01*
X37428Y-58007D01*
X37457Y-58021D01*
X37471Y-58035D01*
X37485Y-58064D01*
X37485Y-58092D01*
X37471Y-58121D01*
X37457Y-58135D01*
X37428Y-58149D01*
X37371Y-58164D01*
X37300Y-58164D01*
X37242Y-58149D01*
X37214Y-58135D01*
X37200Y-58121D01*
X37185Y-58092D01*
X37457Y-57864D02*
X37471Y-57850D01*
X37485Y-57864D01*
X37471Y-57878D01*
X37457Y-57864D01*
X37485Y-57864D01*
X37485Y-57564D02*
X37485Y-57735D01*
X37485Y-57650D02*
X37185Y-57650D01*
X37228Y-57678D01*
X37257Y-57707D01*
X37271Y-57735D01*
X37285Y-57307D02*
X37485Y-57307D01*
X37285Y-57435D02*
X37442Y-57435D01*
X37471Y-57421D01*
X37485Y-57392D01*
X37485Y-57350D01*
X37471Y-57321D01*
X37457Y-57307D01*
X37328Y-57064D02*
X37328Y-57164D01*
X37485Y-57164D02*
X37185Y-57164D01*
X37185Y-57021D01*
X40371Y-46478D02*
X40385Y-46435D01*
X40385Y-46364D01*
X40371Y-46335D01*
X40357Y-46321D01*
X40328Y-46307D01*
X40300Y-46307D01*
X40271Y-46321D01*
X40257Y-46335D01*
X40242Y-46364D01*
X40228Y-46421D01*
X40214Y-46450D01*
X40200Y-46464D01*
X40171Y-46478D01*
X40142Y-46478D01*
X40114Y-46464D01*
X40100Y-46450D01*
X40085Y-46421D01*
X40085Y-46350D01*
X40100Y-46307D01*
X40385Y-46021D02*
X40385Y-46192D01*
X40385Y-46107D02*
X40085Y-46107D01*
X40128Y-46135D01*
X40157Y-46164D01*
X40171Y-46192D01*
X41607Y-47085D02*
X41778Y-47085D01*
X41692Y-47385D02*
X41692Y-47085D01*
X41935Y-47085D02*
X41992Y-47085D01*
X42021Y-47100D01*
X42050Y-47128D01*
X42064Y-47185D01*
X42064Y-47285D01*
X42050Y-47342D01*
X42021Y-47371D01*
X41992Y-47385D01*
X41935Y-47385D01*
X41907Y-47371D01*
X41878Y-47342D01*
X41864Y-47285D01*
X41864Y-47185D01*
X41878Y-47128D01*
X41907Y-47100D01*
X41935Y-47085D01*
X42192Y-47385D02*
X42192Y-47085D01*
X42307Y-47085D01*
X42335Y-47100D01*
X42350Y-47114D01*
X42364Y-47142D01*
X42364Y-47185D01*
X42350Y-47214D01*
X42335Y-47228D01*
X42307Y-47242D01*
X42192Y-47242D01*
X35450Y-35607D02*
X35435Y-35621D01*
X35392Y-35635D01*
X35364Y-35635D01*
X35321Y-35621D01*
X35292Y-35592D01*
X35278Y-35564D01*
X35264Y-35507D01*
X35264Y-35464D01*
X35278Y-35407D01*
X35292Y-35378D01*
X35321Y-35350D01*
X35364Y-35335D01*
X35392Y-35335D01*
X35435Y-35350D01*
X35450Y-35364D01*
X35735Y-35635D02*
X35564Y-35635D01*
X35650Y-35635D02*
X35650Y-35335D01*
X35621Y-35378D01*
X35592Y-35407D01*
X35564Y-35421D01*
X36007Y-35835D02*
X36035Y-35835D01*
X36064Y-35850D01*
X36078Y-35864D01*
X36092Y-35892D01*
X36107Y-35950D01*
X36107Y-36021D01*
X36092Y-36078D01*
X36078Y-36107D01*
X36064Y-36121D01*
X36035Y-36135D01*
X36007Y-36135D01*
X35978Y-36121D01*
X35964Y-36107D01*
X35950Y-36078D01*
X35935Y-36021D01*
X35935Y-35950D01*
X35950Y-35892D01*
X35964Y-35864D01*
X35978Y-35850D01*
X36007Y-35835D01*
X36235Y-36107D02*
X36250Y-36121D01*
X36235Y-36135D01*
X36221Y-36121D01*
X36235Y-36107D01*
X36235Y-36135D01*
X36535Y-36135D02*
X36364Y-36135D01*
X36450Y-36135D02*
X36450Y-35835D01*
X36421Y-35878D01*
X36392Y-35907D01*
X36364Y-35921D01*
X36792Y-35935D02*
X36792Y-36135D01*
X36664Y-35935D02*
X36664Y-36092D01*
X36678Y-36121D01*
X36707Y-36135D01*
X36750Y-36135D01*
X36778Y-36121D01*
X36792Y-36107D01*
X37035Y-35978D02*
X36935Y-35978D01*
X36935Y-36135D02*
X36935Y-35835D01*
X37078Y-35835D01*
X39950Y-35857D02*
X39935Y-35871D01*
X39892Y-35885D01*
X39864Y-35885D01*
X39821Y-35871D01*
X39792Y-35842D01*
X39778Y-35814D01*
X39764Y-35757D01*
X39764Y-35714D01*
X39778Y-35657D01*
X39792Y-35628D01*
X39821Y-35600D01*
X39864Y-35585D01*
X39892Y-35585D01*
X39935Y-35600D01*
X39950Y-35614D01*
X40064Y-35614D02*
X40078Y-35600D01*
X40107Y-35585D01*
X40178Y-35585D01*
X40207Y-35600D01*
X40221Y-35614D01*
X40235Y-35642D01*
X40235Y-35671D01*
X40221Y-35714D01*
X40050Y-35885D01*
X40235Y-35885D01*
X40257Y-36114D02*
X40271Y-36100D01*
X40300Y-36085D01*
X40371Y-36085D01*
X40400Y-36100D01*
X40414Y-36114D01*
X40428Y-36142D01*
X40428Y-36171D01*
X40414Y-36214D01*
X40242Y-36385D01*
X40428Y-36385D01*
X40685Y-36185D02*
X40685Y-36385D01*
X40614Y-36071D02*
X40542Y-36285D01*
X40728Y-36285D01*
X40842Y-36185D02*
X40842Y-36485D01*
X40842Y-36200D02*
X40871Y-36185D01*
X40928Y-36185D01*
X40957Y-36200D01*
X40971Y-36214D01*
X40985Y-36242D01*
X40985Y-36328D01*
X40971Y-36357D01*
X40957Y-36371D01*
X40928Y-36385D01*
X40871Y-36385D01*
X40842Y-36371D01*
X41214Y-36228D02*
X41114Y-36228D01*
X41114Y-36385D02*
X41114Y-36085D01*
X41257Y-36085D01*
X38950Y-35857D02*
X38935Y-35871D01*
X38892Y-35885D01*
X38864Y-35885D01*
X38821Y-35871D01*
X38792Y-35842D01*
X38778Y-35814D01*
X38764Y-35757D01*
X38764Y-35714D01*
X38778Y-35657D01*
X38792Y-35628D01*
X38821Y-35600D01*
X38864Y-35585D01*
X38892Y-35585D01*
X38935Y-35600D01*
X38950Y-35614D01*
X39050Y-35585D02*
X39235Y-35585D01*
X39135Y-35700D01*
X39178Y-35700D01*
X39207Y-35714D01*
X39221Y-35728D01*
X39235Y-35757D01*
X39235Y-35828D01*
X39221Y-35857D01*
X39207Y-35871D01*
X39178Y-35885D01*
X39092Y-35885D01*
X39064Y-35871D01*
X39050Y-35857D01*
X38007Y-36114D02*
X38021Y-36100D01*
X38050Y-36085D01*
X38121Y-36085D01*
X38150Y-36100D01*
X38164Y-36114D01*
X38178Y-36142D01*
X38178Y-36171D01*
X38164Y-36214D01*
X37992Y-36385D01*
X38178Y-36385D01*
X38435Y-36185D02*
X38435Y-36385D01*
X38364Y-36071D02*
X38292Y-36285D01*
X38478Y-36285D01*
X38592Y-36185D02*
X38592Y-36485D01*
X38592Y-36200D02*
X38621Y-36185D01*
X38678Y-36185D01*
X38707Y-36200D01*
X38721Y-36214D01*
X38735Y-36242D01*
X38735Y-36328D01*
X38721Y-36357D01*
X38707Y-36371D01*
X38678Y-36385D01*
X38621Y-36385D01*
X38592Y-36371D01*
X38964Y-36228D02*
X38864Y-36228D01*
X38864Y-36385D02*
X38864Y-36085D01*
X39007Y-36085D01*
X35450Y-34607D02*
X35435Y-34621D01*
X35392Y-34635D01*
X35364Y-34635D01*
X35321Y-34621D01*
X35292Y-34592D01*
X35278Y-34564D01*
X35264Y-34507D01*
X35264Y-34464D01*
X35278Y-34407D01*
X35292Y-34378D01*
X35321Y-34350D01*
X35364Y-34335D01*
X35392Y-34335D01*
X35435Y-34350D01*
X35450Y-34364D01*
X35707Y-34435D02*
X35707Y-34635D01*
X35635Y-34321D02*
X35564Y-34535D01*
X35750Y-34535D01*
X36007Y-34835D02*
X36035Y-34835D01*
X36064Y-34850D01*
X36078Y-34864D01*
X36092Y-34892D01*
X36107Y-34950D01*
X36107Y-35021D01*
X36092Y-35078D01*
X36078Y-35107D01*
X36064Y-35121D01*
X36035Y-35135D01*
X36007Y-35135D01*
X35978Y-35121D01*
X35964Y-35107D01*
X35950Y-35078D01*
X35935Y-35021D01*
X35935Y-34950D01*
X35950Y-34892D01*
X35964Y-34864D01*
X35978Y-34850D01*
X36007Y-34835D01*
X36235Y-35107D02*
X36250Y-35121D01*
X36235Y-35135D01*
X36221Y-35121D01*
X36235Y-35107D01*
X36235Y-35135D01*
X36535Y-35135D02*
X36364Y-35135D01*
X36450Y-35135D02*
X36450Y-34835D01*
X36421Y-34878D01*
X36392Y-34907D01*
X36364Y-34921D01*
X36792Y-34935D02*
X36792Y-35135D01*
X36664Y-34935D02*
X36664Y-35092D01*
X36678Y-35121D01*
X36707Y-35135D01*
X36750Y-35135D01*
X36778Y-35121D01*
X36792Y-35107D01*
X37035Y-34978D02*
X36935Y-34978D01*
X36935Y-35135D02*
X36935Y-34835D01*
X37078Y-34835D01*
X43040Y-31111D02*
X43040Y-31131D01*
X43020Y-31171D01*
X43000Y-31191D01*
X42959Y-31212D01*
X42919Y-31212D01*
X42888Y-31202D01*
X42838Y-31171D01*
X42808Y-31141D01*
X42777Y-31090D01*
X42767Y-31060D01*
X42767Y-31020D01*
X42787Y-30979D01*
X42808Y-30959D01*
X42848Y-30939D01*
X42868Y-30939D01*
X43040Y-30727D02*
X42939Y-30828D01*
X43030Y-30939D01*
X43030Y-30919D01*
X43040Y-30888D01*
X43090Y-30838D01*
X43121Y-30828D01*
X43141Y-30828D01*
X43171Y-30838D01*
X43222Y-30888D01*
X43232Y-30919D01*
X43232Y-30939D01*
X43222Y-30969D01*
X43171Y-31020D01*
X43141Y-31030D01*
X43121Y-31030D01*
X42285Y-31982D02*
X42305Y-31962D01*
X42335Y-31952D01*
X42356Y-31952D01*
X42386Y-31962D01*
X42436Y-31992D01*
X42487Y-32042D01*
X42517Y-32093D01*
X42527Y-32123D01*
X42527Y-32143D01*
X42517Y-32174D01*
X42497Y-32194D01*
X42467Y-32204D01*
X42446Y-32204D01*
X42416Y-32194D01*
X42366Y-32164D01*
X42315Y-32113D01*
X42285Y-32063D01*
X42275Y-32032D01*
X42275Y-32012D01*
X42285Y-31982D01*
X42638Y-32012D02*
X42659Y-32012D01*
X42659Y-32032D01*
X42638Y-32032D01*
X42638Y-32012D01*
X42659Y-32032D01*
X42871Y-31820D02*
X42750Y-31941D01*
X42810Y-31881D02*
X42598Y-31669D01*
X42608Y-31719D01*
X42608Y-31760D01*
X42598Y-31790D01*
X42911Y-31497D02*
X43053Y-31638D01*
X42820Y-31588D02*
X42931Y-31699D01*
X42962Y-31709D01*
X42992Y-31699D01*
X43022Y-31669D01*
X43032Y-31638D01*
X43032Y-31618D01*
X43113Y-31356D02*
X43042Y-31426D01*
X43154Y-31537D02*
X42941Y-31325D01*
X43042Y-31224D01*
X42540Y-30611D02*
X42540Y-30631D01*
X42520Y-30671D01*
X42500Y-30691D01*
X42459Y-30712D01*
X42419Y-30712D01*
X42388Y-30702D01*
X42338Y-30671D01*
X42308Y-30641D01*
X42277Y-30590D01*
X42267Y-30560D01*
X42267Y-30520D01*
X42287Y-30479D01*
X42308Y-30459D01*
X42348Y-30439D01*
X42368Y-30439D01*
X42530Y-30237D02*
X42489Y-30277D01*
X42479Y-30308D01*
X42479Y-30328D01*
X42489Y-30378D01*
X42520Y-30429D01*
X42601Y-30510D01*
X42631Y-30520D01*
X42651Y-30520D01*
X42681Y-30510D01*
X42722Y-30469D01*
X42732Y-30439D01*
X42732Y-30419D01*
X42722Y-30388D01*
X42671Y-30338D01*
X42641Y-30328D01*
X42621Y-30328D01*
X42590Y-30338D01*
X42550Y-30378D01*
X42540Y-30409D01*
X42540Y-30429D01*
X42550Y-30459D01*
X40785Y-31232D02*
X40805Y-31212D01*
X40835Y-31202D01*
X40856Y-31202D01*
X40886Y-31212D01*
X40936Y-31242D01*
X40987Y-31292D01*
X41017Y-31343D01*
X41027Y-31373D01*
X41027Y-31393D01*
X41017Y-31424D01*
X40997Y-31444D01*
X40967Y-31454D01*
X40946Y-31454D01*
X40916Y-31444D01*
X40866Y-31414D01*
X40815Y-31363D01*
X40785Y-31313D01*
X40775Y-31282D01*
X40775Y-31262D01*
X40785Y-31232D01*
X41138Y-31262D02*
X41159Y-31262D01*
X41159Y-31282D01*
X41138Y-31282D01*
X41138Y-31262D01*
X41159Y-31282D01*
X41371Y-31070D02*
X41249Y-31191D01*
X41310Y-31131D02*
X41098Y-30919D01*
X41108Y-30969D01*
X41108Y-31010D01*
X41098Y-31040D01*
X41411Y-30747D02*
X41553Y-30888D01*
X41320Y-30838D02*
X41431Y-30949D01*
X41462Y-30959D01*
X41492Y-30949D01*
X41522Y-30919D01*
X41532Y-30888D01*
X41532Y-30868D01*
X41613Y-30606D02*
X41542Y-30676D01*
X41654Y-30787D02*
X41441Y-30575D01*
X41542Y-30474D01*
X34950Y-39107D02*
X34935Y-39121D01*
X34892Y-39135D01*
X34864Y-39135D01*
X34821Y-39121D01*
X34792Y-39092D01*
X34778Y-39064D01*
X34764Y-39007D01*
X34764Y-38964D01*
X34778Y-38907D01*
X34792Y-38878D01*
X34821Y-38850D01*
X34864Y-38835D01*
X34892Y-38835D01*
X34935Y-38850D01*
X34950Y-38864D01*
X35050Y-38835D02*
X35250Y-38835D01*
X35121Y-39135D01*
X34928Y-39635D02*
X34757Y-39635D01*
X34842Y-39635D02*
X34842Y-39335D01*
X34814Y-39378D01*
X34785Y-39407D01*
X34757Y-39421D01*
X35114Y-39335D02*
X35142Y-39335D01*
X35171Y-39350D01*
X35185Y-39364D01*
X35200Y-39392D01*
X35214Y-39450D01*
X35214Y-39521D01*
X35200Y-39578D01*
X35185Y-39607D01*
X35171Y-39621D01*
X35142Y-39635D01*
X35114Y-39635D01*
X35085Y-39621D01*
X35071Y-39607D01*
X35057Y-39578D01*
X35042Y-39521D01*
X35042Y-39450D01*
X35057Y-39392D01*
X35071Y-39364D01*
X35085Y-39350D01*
X35114Y-39335D01*
X35471Y-39435D02*
X35471Y-39635D01*
X35342Y-39435D02*
X35342Y-39592D01*
X35357Y-39621D01*
X35385Y-39635D01*
X35428Y-39635D01*
X35457Y-39621D01*
X35471Y-39607D01*
X35714Y-39478D02*
X35614Y-39478D01*
X35614Y-39635D02*
X35614Y-39335D01*
X35757Y-39335D01*
X33450Y-34107D02*
X33435Y-34121D01*
X33392Y-34135D01*
X33364Y-34135D01*
X33321Y-34121D01*
X33292Y-34092D01*
X33278Y-34064D01*
X33264Y-34007D01*
X33264Y-33964D01*
X33278Y-33907D01*
X33292Y-33878D01*
X33321Y-33850D01*
X33364Y-33835D01*
X33392Y-33835D01*
X33435Y-33850D01*
X33450Y-33864D01*
X33621Y-33964D02*
X33592Y-33950D01*
X33578Y-33935D01*
X33564Y-33907D01*
X33564Y-33892D01*
X33578Y-33864D01*
X33592Y-33850D01*
X33621Y-33835D01*
X33678Y-33835D01*
X33707Y-33850D01*
X33721Y-33864D01*
X33735Y-33892D01*
X33735Y-33907D01*
X33721Y-33935D01*
X33707Y-33950D01*
X33678Y-33964D01*
X33621Y-33964D01*
X33592Y-33978D01*
X33578Y-33992D01*
X33564Y-34021D01*
X33564Y-34078D01*
X33578Y-34107D01*
X33592Y-34121D01*
X33621Y-34135D01*
X33678Y-34135D01*
X33707Y-34121D01*
X33721Y-34107D01*
X33735Y-34078D01*
X33735Y-34021D01*
X33721Y-33992D01*
X33707Y-33978D01*
X33678Y-33964D01*
X33007Y-34364D02*
X33021Y-34350D01*
X33050Y-34335D01*
X33121Y-34335D01*
X33150Y-34350D01*
X33164Y-34364D01*
X33178Y-34392D01*
X33178Y-34421D01*
X33164Y-34464D01*
X32992Y-34635D01*
X33178Y-34635D01*
X33292Y-34364D02*
X33307Y-34350D01*
X33335Y-34335D01*
X33407Y-34335D01*
X33435Y-34350D01*
X33450Y-34364D01*
X33464Y-34392D01*
X33464Y-34421D01*
X33450Y-34464D01*
X33278Y-34635D01*
X33464Y-34635D01*
X33721Y-34435D02*
X33721Y-34635D01*
X33592Y-34435D02*
X33592Y-34592D01*
X33607Y-34621D01*
X33635Y-34635D01*
X33678Y-34635D01*
X33707Y-34621D01*
X33721Y-34607D01*
X33964Y-34478D02*
X33864Y-34478D01*
X33864Y-34635D02*
X33864Y-34335D01*
X34007Y-34335D01*
X37357Y-26550D02*
X37371Y-26564D01*
X37385Y-26607D01*
X37385Y-26635D01*
X37371Y-26678D01*
X37342Y-26707D01*
X37314Y-26721D01*
X37257Y-26735D01*
X37214Y-26735D01*
X37157Y-26721D01*
X37128Y-26707D01*
X37100Y-26678D01*
X37085Y-26635D01*
X37085Y-26607D01*
X37100Y-26564D01*
X37114Y-26550D01*
X37385Y-26407D02*
X37385Y-26350D01*
X37371Y-26321D01*
X37357Y-26307D01*
X37314Y-26278D01*
X37257Y-26264D01*
X37142Y-26264D01*
X37114Y-26278D01*
X37100Y-26292D01*
X37085Y-26321D01*
X37085Y-26378D01*
X37100Y-26407D01*
X37114Y-26421D01*
X37142Y-26435D01*
X37214Y-26435D01*
X37242Y-26421D01*
X37257Y-26407D01*
X37271Y-26378D01*
X37271Y-26321D01*
X37257Y-26292D01*
X37242Y-26278D01*
X37214Y-26264D01*
X37585Y-26492D02*
X37585Y-26464D01*
X37600Y-26435D01*
X37614Y-26421D01*
X37642Y-26407D01*
X37700Y-26392D01*
X37771Y-26392D01*
X37828Y-26407D01*
X37857Y-26421D01*
X37871Y-26435D01*
X37885Y-26464D01*
X37885Y-26492D01*
X37871Y-26521D01*
X37857Y-26535D01*
X37828Y-26549D01*
X37771Y-26564D01*
X37700Y-26564D01*
X37642Y-26549D01*
X37614Y-26535D01*
X37600Y-26521D01*
X37585Y-26492D01*
X37857Y-26264D02*
X37871Y-26250D01*
X37885Y-26264D01*
X37871Y-26278D01*
X37857Y-26264D01*
X37885Y-26264D01*
X37885Y-25964D02*
X37885Y-26135D01*
X37885Y-26050D02*
X37585Y-26050D01*
X37628Y-26078D01*
X37657Y-26107D01*
X37671Y-26135D01*
X37685Y-25707D02*
X37885Y-25707D01*
X37685Y-25835D02*
X37842Y-25835D01*
X37871Y-25821D01*
X37885Y-25792D01*
X37885Y-25750D01*
X37871Y-25721D01*
X37857Y-25707D01*
X37728Y-25464D02*
X37728Y-25564D01*
X37885Y-25564D02*
X37585Y-25564D01*
X37585Y-25421D01*
X36607Y-47442D02*
X36621Y-47457D01*
X36635Y-47500D01*
X36635Y-47528D01*
X36621Y-47571D01*
X36592Y-47600D01*
X36564Y-47614D01*
X36507Y-47628D01*
X36464Y-47628D01*
X36407Y-47614D01*
X36378Y-47600D01*
X36350Y-47571D01*
X36335Y-47528D01*
X36335Y-47500D01*
X36350Y-47457D01*
X36364Y-47442D01*
X36635Y-47157D02*
X36635Y-47328D01*
X36635Y-47242D02*
X36335Y-47242D01*
X36378Y-47271D01*
X36407Y-47300D01*
X36421Y-47328D01*
X36335Y-46971D02*
X36335Y-46942D01*
X36350Y-46914D01*
X36364Y-46900D01*
X36392Y-46885D01*
X36450Y-46871D01*
X36521Y-46871D01*
X36578Y-46885D01*
X36607Y-46900D01*
X36621Y-46914D01*
X36635Y-46942D01*
X36635Y-46971D01*
X36621Y-47000D01*
X36607Y-47014D01*
X36578Y-47028D01*
X36521Y-47042D01*
X36450Y-47042D01*
X36392Y-47028D01*
X36364Y-47014D01*
X36350Y-47000D01*
X36335Y-46971D01*
X37185Y-48092D02*
X37185Y-48064D01*
X37200Y-48035D01*
X37214Y-48021D01*
X37242Y-48007D01*
X37300Y-47992D01*
X37371Y-47992D01*
X37428Y-48007D01*
X37457Y-48021D01*
X37471Y-48035D01*
X37485Y-48064D01*
X37485Y-48092D01*
X37471Y-48121D01*
X37457Y-48135D01*
X37428Y-48149D01*
X37371Y-48164D01*
X37300Y-48164D01*
X37242Y-48149D01*
X37214Y-48135D01*
X37200Y-48121D01*
X37185Y-48092D01*
X37457Y-47864D02*
X37471Y-47850D01*
X37485Y-47864D01*
X37471Y-47878D01*
X37457Y-47864D01*
X37485Y-47864D01*
X37485Y-47564D02*
X37485Y-47735D01*
X37485Y-47650D02*
X37185Y-47650D01*
X37228Y-47678D01*
X37257Y-47707D01*
X37271Y-47735D01*
X37285Y-47307D02*
X37485Y-47307D01*
X37285Y-47435D02*
X37442Y-47435D01*
X37471Y-47421D01*
X37485Y-47392D01*
X37485Y-47350D01*
X37471Y-47321D01*
X37457Y-47307D01*
X37328Y-47064D02*
X37328Y-47164D01*
X37485Y-47164D02*
X37185Y-47164D01*
X37185Y-47021D01*
X30057Y-48357D02*
X30042Y-48371D01*
X30000Y-48385D01*
X29971Y-48385D01*
X29928Y-48371D01*
X29900Y-48342D01*
X29885Y-48314D01*
X29871Y-48257D01*
X29871Y-48214D01*
X29885Y-48157D01*
X29900Y-48128D01*
X29928Y-48100D01*
X29971Y-48085D01*
X30000Y-48085D01*
X30042Y-48100D01*
X30057Y-48114D01*
X30342Y-48385D02*
X30171Y-48385D01*
X30257Y-48385D02*
X30257Y-48085D01*
X30228Y-48128D01*
X30200Y-48157D01*
X30171Y-48171D01*
X30628Y-48385D02*
X30457Y-48385D01*
X30542Y-48385D02*
X30542Y-48085D01*
X30514Y-48128D01*
X30485Y-48157D01*
X30457Y-48171D01*
X29757Y-48585D02*
X29785Y-48585D01*
X29814Y-48600D01*
X29828Y-48614D01*
X29842Y-48642D01*
X29857Y-48700D01*
X29857Y-48771D01*
X29842Y-48828D01*
X29828Y-48857D01*
X29814Y-48871D01*
X29785Y-48885D01*
X29757Y-48885D01*
X29728Y-48871D01*
X29714Y-48857D01*
X29700Y-48828D01*
X29685Y-48771D01*
X29685Y-48700D01*
X29700Y-48642D01*
X29714Y-48614D01*
X29728Y-48600D01*
X29757Y-48585D01*
X29985Y-48857D02*
X30000Y-48871D01*
X29985Y-48885D01*
X29971Y-48871D01*
X29985Y-48857D01*
X29985Y-48885D01*
X30285Y-48885D02*
X30114Y-48885D01*
X30200Y-48885D02*
X30200Y-48585D01*
X30171Y-48628D01*
X30142Y-48657D01*
X30114Y-48671D01*
X30542Y-48685D02*
X30542Y-48885D01*
X30414Y-48685D02*
X30414Y-48842D01*
X30428Y-48871D01*
X30457Y-48885D01*
X30500Y-48885D01*
X30528Y-48871D01*
X30542Y-48857D01*
X30785Y-48728D02*
X30685Y-48728D01*
X30685Y-48885D02*
X30685Y-48585D01*
X30828Y-48585D01*
X39388Y-34553D02*
X39176Y-34340D01*
X39590Y-34310D02*
X39590Y-34330D01*
X39570Y-34371D01*
X39550Y-34391D01*
X39510Y-34411D01*
X39469Y-34411D01*
X39439Y-34401D01*
X39388Y-34371D01*
X39358Y-34340D01*
X39328Y-34290D01*
X39318Y-34260D01*
X39318Y-34219D01*
X39338Y-34179D01*
X39358Y-34159D01*
X39398Y-34138D01*
X39419Y-34138D01*
X39813Y-34128D02*
X39691Y-34249D01*
X39752Y-34189D02*
X39540Y-33977D01*
X39550Y-34027D01*
X39550Y-34068D01*
X39540Y-34098D01*
X33207Y-36385D02*
X33207Y-36085D01*
X33521Y-36357D02*
X33507Y-36371D01*
X33464Y-36385D01*
X33435Y-36385D01*
X33392Y-36371D01*
X33364Y-36342D01*
X33350Y-36314D01*
X33335Y-36257D01*
X33335Y-36214D01*
X33350Y-36157D01*
X33364Y-36128D01*
X33392Y-36100D01*
X33435Y-36085D01*
X33464Y-36085D01*
X33507Y-36100D01*
X33521Y-36114D01*
X33635Y-36114D02*
X33650Y-36100D01*
X33678Y-36085D01*
X33750Y-36085D01*
X33778Y-36100D01*
X33792Y-36114D01*
X33807Y-36142D01*
X33807Y-36171D01*
X33792Y-36214D01*
X33621Y-36385D01*
X33807Y-36385D01*
X33635Y-38149D02*
X33635Y-38292D01*
X33335Y-38292D01*
X33635Y-38049D02*
X33335Y-38049D01*
X33550Y-37949D01*
X33335Y-37849D01*
X33635Y-37849D01*
X33635Y-37550D02*
X33635Y-37721D01*
X33635Y-37635D02*
X33335Y-37635D01*
X33378Y-37664D01*
X33407Y-37692D01*
X33421Y-37721D01*
X33635Y-37264D02*
X33635Y-37435D01*
X33635Y-37350D02*
X33335Y-37350D01*
X33378Y-37378D01*
X33407Y-37407D01*
X33421Y-37435D01*
X33635Y-36978D02*
X33635Y-37150D01*
X33635Y-37064D02*
X33335Y-37064D01*
X33378Y-37092D01*
X33407Y-37121D01*
X33421Y-37150D01*
X33335Y-36878D02*
X33335Y-36678D01*
X33635Y-36807D01*
X46400Y-38835D02*
X46400Y-39050D01*
X46385Y-39092D01*
X46357Y-39121D01*
X46314Y-39135D01*
X46285Y-39135D01*
X46700Y-39135D02*
X46528Y-39135D01*
X46614Y-39135D02*
X46614Y-38835D01*
X46585Y-38878D01*
X46557Y-38907D01*
X46528Y-38921D01*
X45400Y-39335D02*
X45257Y-39335D01*
X45242Y-39478D01*
X45257Y-39464D01*
X45285Y-39450D01*
X45357Y-39450D01*
X45385Y-39464D01*
X45400Y-39478D01*
X45414Y-39507D01*
X45414Y-39578D01*
X45400Y-39607D01*
X45385Y-39621D01*
X45357Y-39635D01*
X45285Y-39635D01*
X45257Y-39621D01*
X45242Y-39607D01*
X45500Y-39335D02*
X45600Y-39635D01*
X45700Y-39335D01*
X45728Y-39664D02*
X45957Y-39664D01*
X46085Y-39335D02*
X46142Y-39335D01*
X46171Y-39350D01*
X46200Y-39378D01*
X46214Y-39435D01*
X46214Y-39535D01*
X46200Y-39592D01*
X46171Y-39621D01*
X46142Y-39635D01*
X46085Y-39635D01*
X46057Y-39621D01*
X46028Y-39592D01*
X46014Y-39535D01*
X46014Y-39435D01*
X46028Y-39378D01*
X46057Y-39350D01*
X46085Y-39335D01*
X46342Y-39335D02*
X46342Y-39578D01*
X46357Y-39607D01*
X46371Y-39621D01*
X46400Y-39635D01*
X46457Y-39635D01*
X46485Y-39621D01*
X46500Y-39607D01*
X46514Y-39578D01*
X46514Y-39335D01*
X46614Y-39335D02*
X46785Y-39335D01*
X46700Y-39635D02*
X46700Y-39335D01*
X31150Y-48335D02*
X31150Y-48550D01*
X31135Y-48592D01*
X31107Y-48621D01*
X31064Y-48635D01*
X31035Y-48635D01*
X31278Y-48364D02*
X31292Y-48350D01*
X31321Y-48335D01*
X31392Y-48335D01*
X31421Y-48350D01*
X31435Y-48364D01*
X31450Y-48392D01*
X31450Y-48421D01*
X31435Y-48464D01*
X31264Y-48635D01*
X31450Y-48635D01*
X32135Y-48635D02*
X31992Y-48635D01*
X31992Y-48335D01*
X32235Y-48478D02*
X32335Y-48478D01*
X32378Y-48635D02*
X32235Y-48635D01*
X32235Y-48335D01*
X32378Y-48335D01*
X32507Y-48635D02*
X32507Y-48335D01*
X32578Y-48335D01*
X32621Y-48350D01*
X32650Y-48378D01*
X32664Y-48407D01*
X32678Y-48464D01*
X32678Y-48507D01*
X32664Y-48564D01*
X32650Y-48592D01*
X32621Y-48621D01*
X32578Y-48635D01*
X32507Y-48635D01*
X32735Y-48664D02*
X32964Y-48664D01*
X33207Y-48607D02*
X33192Y-48621D01*
X33150Y-48635D01*
X33121Y-48635D01*
X33078Y-48621D01*
X33050Y-48592D01*
X33035Y-48564D01*
X33021Y-48507D01*
X33021Y-48464D01*
X33035Y-48407D01*
X33050Y-48378D01*
X33078Y-48350D01*
X33121Y-48335D01*
X33150Y-48335D01*
X33192Y-48350D01*
X33207Y-48364D01*
X33321Y-48550D02*
X33464Y-48550D01*
X33292Y-48635D02*
X33392Y-48335D01*
X33492Y-48635D01*
X33764Y-48635D02*
X33664Y-48492D01*
X33592Y-48635D02*
X33592Y-48335D01*
X33707Y-48335D01*
X33735Y-48350D01*
X33750Y-48364D01*
X33764Y-48392D01*
X33764Y-48435D01*
X33750Y-48464D01*
X33735Y-48478D01*
X33707Y-48492D01*
X33592Y-48492D01*
X33892Y-48635D02*
X33892Y-48335D01*
X33964Y-48335D01*
X34007Y-48350D01*
X34035Y-48378D01*
X34050Y-48407D01*
X34064Y-48464D01*
X34064Y-48507D01*
X34050Y-48564D01*
X34035Y-48592D01*
X34007Y-48621D01*
X33964Y-48635D01*
X33892Y-48635D01*
X34121Y-48664D02*
X34350Y-48664D01*
X34521Y-48478D02*
X34564Y-48492D01*
X34578Y-48507D01*
X34592Y-48535D01*
X34592Y-48578D01*
X34578Y-48607D01*
X34564Y-48621D01*
X34535Y-48635D01*
X34421Y-48635D01*
X34421Y-48335D01*
X34521Y-48335D01*
X34550Y-48350D01*
X34564Y-48364D01*
X34578Y-48392D01*
X34578Y-48421D01*
X34564Y-48450D01*
X34550Y-48464D01*
X34521Y-48478D01*
X34421Y-48478D01*
X34778Y-48335D02*
X34835Y-48335D01*
X34864Y-48350D01*
X34892Y-48378D01*
X34907Y-48435D01*
X34907Y-48535D01*
X34892Y-48592D01*
X34864Y-48621D01*
X34835Y-48635D01*
X34778Y-48635D01*
X34750Y-48621D01*
X34721Y-48592D01*
X34707Y-48535D01*
X34707Y-48435D01*
X34721Y-48378D01*
X34750Y-48350D01*
X34778Y-48335D01*
X34992Y-48335D02*
X35164Y-48335D01*
X35078Y-48635D02*
X35078Y-48335D01*
X35221Y-48335D02*
X35392Y-48335D01*
X35307Y-48635D02*
X35307Y-48335D01*
X35549Y-48335D02*
X35607Y-48335D01*
X35635Y-48350D01*
X35664Y-48378D01*
X35678Y-48435D01*
X35678Y-48535D01*
X35664Y-48592D01*
X35635Y-48621D01*
X35607Y-48635D01*
X35549Y-48635D01*
X35521Y-48621D01*
X35492Y-48592D01*
X35478Y-48535D01*
X35478Y-48435D01*
X35492Y-48378D01*
X35521Y-48350D01*
X35549Y-48335D01*
X35807Y-48635D02*
X35807Y-48335D01*
X35907Y-48550D01*
X36007Y-48335D01*
X36007Y-48635D01*
X33664Y-44135D02*
X33521Y-44135D01*
X33521Y-43835D01*
X33764Y-43978D02*
X33864Y-43978D01*
X33907Y-44135D02*
X33764Y-44135D01*
X33764Y-43835D01*
X33907Y-43835D01*
X34035Y-44135D02*
X34035Y-43835D01*
X34107Y-43835D01*
X34150Y-43850D01*
X34178Y-43878D01*
X34192Y-43907D01*
X34207Y-43964D01*
X34207Y-44007D01*
X34192Y-44064D01*
X34178Y-44092D01*
X34150Y-44121D01*
X34107Y-44135D01*
X34035Y-44135D01*
X34492Y-44135D02*
X34321Y-44135D01*
X34407Y-44135D02*
X34407Y-43835D01*
X34378Y-43878D01*
X34350Y-43907D01*
X34321Y-43921D01*
X33664Y-47135D02*
X33521Y-47135D01*
X33521Y-46835D01*
X33764Y-46978D02*
X33864Y-46978D01*
X33907Y-47135D02*
X33764Y-47135D01*
X33764Y-46835D01*
X33907Y-46835D01*
X34035Y-47135D02*
X34035Y-46835D01*
X34107Y-46835D01*
X34150Y-46850D01*
X34178Y-46878D01*
X34192Y-46907D01*
X34207Y-46964D01*
X34207Y-47007D01*
X34192Y-47064D01*
X34178Y-47092D01*
X34150Y-47121D01*
X34107Y-47135D01*
X34035Y-47135D01*
X34321Y-46864D02*
X34335Y-46850D01*
X34364Y-46835D01*
X34435Y-46835D01*
X34464Y-46850D01*
X34478Y-46864D01*
X34492Y-46892D01*
X34492Y-46921D01*
X34478Y-46964D01*
X34307Y-47135D01*
X34492Y-47135D01*
X42914Y-36885D02*
X42771Y-36885D01*
X42771Y-36585D01*
X43014Y-36728D02*
X43114Y-36728D01*
X43157Y-36885D02*
X43014Y-36885D01*
X43014Y-36585D01*
X43157Y-36585D01*
X43285Y-36885D02*
X43285Y-36585D01*
X43357Y-36585D01*
X43400Y-36600D01*
X43428Y-36628D01*
X43442Y-36657D01*
X43457Y-36714D01*
X43457Y-36757D01*
X43442Y-36814D01*
X43428Y-36842D01*
X43400Y-36871D01*
X43357Y-36885D01*
X43285Y-36885D01*
X43557Y-36585D02*
X43742Y-36585D01*
X43642Y-36700D01*
X43685Y-36700D01*
X43714Y-36714D01*
X43728Y-36728D01*
X43742Y-36757D01*
X43742Y-36828D01*
X43728Y-36857D01*
X43714Y-36871D01*
X43685Y-36885D01*
X43600Y-36885D01*
X43571Y-36871D01*
X43557Y-36857D01*
X42385Y-36385D02*
X42385Y-36085D01*
X42385Y-36228D02*
X42557Y-36228D01*
X42557Y-36385D02*
X42557Y-36085D01*
X42700Y-36228D02*
X42800Y-36228D01*
X42842Y-36385D02*
X42700Y-36385D01*
X42700Y-36085D01*
X42842Y-36085D01*
X42957Y-36300D02*
X43100Y-36300D01*
X42928Y-36385D02*
X43028Y-36085D01*
X43128Y-36385D01*
X43400Y-36385D02*
X43300Y-36242D01*
X43228Y-36385D02*
X43228Y-36085D01*
X43342Y-36085D01*
X43371Y-36100D01*
X43385Y-36114D01*
X43400Y-36142D01*
X43400Y-36185D01*
X43385Y-36214D01*
X43371Y-36228D01*
X43342Y-36242D01*
X43228Y-36242D01*
X43485Y-36085D02*
X43657Y-36085D01*
X43571Y-36385D02*
X43571Y-36085D01*
X46414Y-36385D02*
X46271Y-36385D01*
X46271Y-36085D01*
X46514Y-36228D02*
X46614Y-36228D01*
X46657Y-36385D02*
X46514Y-36385D01*
X46514Y-36085D01*
X46657Y-36085D01*
X46785Y-36385D02*
X46785Y-36085D01*
X46857Y-36085D01*
X46900Y-36100D01*
X46928Y-36128D01*
X46942Y-36157D01*
X46957Y-36214D01*
X46957Y-36257D01*
X46942Y-36314D01*
X46928Y-36342D01*
X46900Y-36371D01*
X46857Y-36385D01*
X46785Y-36385D01*
X47214Y-36185D02*
X47214Y-36385D01*
X47142Y-36071D02*
X47071Y-36285D01*
X47257Y-36285D01*
X46600Y-36885D02*
X46600Y-36585D01*
X46714Y-36585D01*
X46742Y-36600D01*
X46757Y-36614D01*
X46771Y-36642D01*
X46771Y-36685D01*
X46757Y-36714D01*
X46742Y-36728D01*
X46714Y-36742D01*
X46600Y-36742D01*
X46871Y-36585D02*
X46942Y-36885D01*
X47000Y-36671D01*
X47057Y-36885D01*
X47128Y-36585D01*
X47414Y-36885D02*
X47314Y-36742D01*
X47242Y-36885D02*
X47242Y-36585D01*
X47357Y-36585D01*
X47385Y-36600D01*
X47400Y-36614D01*
X47414Y-36642D01*
X47414Y-36685D01*
X47400Y-36714D01*
X47385Y-36728D01*
X47357Y-36742D01*
X47242Y-36742D01*
X30278Y-38385D02*
X30278Y-38085D01*
X30392Y-38085D01*
X30421Y-38100D01*
X30435Y-38114D01*
X30450Y-38142D01*
X30450Y-38185D01*
X30435Y-38214D01*
X30421Y-38228D01*
X30392Y-38242D01*
X30278Y-38242D01*
X30735Y-38385D02*
X30564Y-38385D01*
X30650Y-38385D02*
X30650Y-38085D01*
X30621Y-38128D01*
X30592Y-38157D01*
X30564Y-38171D01*
X29957Y-38585D02*
X30157Y-38585D01*
X30028Y-38885D01*
X30271Y-38771D02*
X30500Y-38771D01*
X30800Y-38885D02*
X30628Y-38885D01*
X30714Y-38885D02*
X30714Y-38585D01*
X30685Y-38628D01*
X30657Y-38657D01*
X30628Y-38671D01*
X30914Y-38614D02*
X30928Y-38600D01*
X30957Y-38585D01*
X31028Y-38585D01*
X31057Y-38600D01*
X31071Y-38614D01*
X31085Y-38642D01*
X31085Y-38671D01*
X31071Y-38714D01*
X30900Y-38885D01*
X31085Y-38885D01*
X31171Y-38585D02*
X31271Y-38885D01*
X31371Y-38585D01*
X31400Y-38914D02*
X31628Y-38914D01*
X31700Y-38885D02*
X31700Y-38585D01*
X31842Y-38885D02*
X31842Y-38585D01*
X32014Y-38885D01*
X32014Y-38585D01*
X44778Y-39135D02*
X44778Y-38835D01*
X44892Y-38835D01*
X44921Y-38850D01*
X44935Y-38864D01*
X44950Y-38892D01*
X44950Y-38935D01*
X44935Y-38964D01*
X44921Y-38978D01*
X44892Y-38992D01*
X44778Y-38992D01*
X45064Y-38864D02*
X45078Y-38850D01*
X45107Y-38835D01*
X45178Y-38835D01*
X45207Y-38850D01*
X45221Y-38864D01*
X45235Y-38892D01*
X45235Y-38921D01*
X45221Y-38964D01*
X45050Y-39135D01*
X45235Y-39135D01*
X44421Y-35300D02*
X44564Y-35300D01*
X44392Y-35385D02*
X44492Y-35085D01*
X44592Y-35385D01*
X44650Y-35085D02*
X44750Y-35385D01*
X44850Y-35085D01*
X45121Y-35385D02*
X45021Y-35242D01*
X44950Y-35385D02*
X44950Y-35085D01*
X45064Y-35085D01*
X45092Y-35100D01*
X45107Y-35114D01*
X45121Y-35142D01*
X45121Y-35185D01*
X45107Y-35214D01*
X45092Y-35228D01*
X45064Y-35242D01*
X44950Y-35242D01*
X45178Y-35414D02*
X45407Y-35414D01*
X45478Y-35385D02*
X45478Y-35085D01*
X45607Y-35371D02*
X45650Y-35385D01*
X45721Y-35385D01*
X45750Y-35371D01*
X45764Y-35357D01*
X45778Y-35328D01*
X45778Y-35300D01*
X45764Y-35271D01*
X45750Y-35257D01*
X45721Y-35242D01*
X45664Y-35228D01*
X45635Y-35214D01*
X45621Y-35200D01*
X45607Y-35171D01*
X45607Y-35142D01*
X45621Y-35114D01*
X45635Y-35100D01*
X45664Y-35085D01*
X45735Y-35085D01*
X45778Y-35100D01*
X45907Y-35385D02*
X45907Y-35085D01*
X46021Y-35085D01*
X46050Y-35100D01*
X46064Y-35114D01*
X46078Y-35142D01*
X46078Y-35185D01*
X46064Y-35214D01*
X46050Y-35228D01*
X46021Y-35242D01*
X45907Y-35242D01*
X39635Y-22971D02*
X39335Y-22971D01*
X39335Y-22857D01*
X39350Y-22828D01*
X39364Y-22814D01*
X39392Y-22800D01*
X39435Y-22800D01*
X39464Y-22814D01*
X39478Y-22828D01*
X39492Y-22857D01*
X39492Y-22971D01*
X39335Y-22700D02*
X39335Y-22514D01*
X39450Y-22614D01*
X39450Y-22571D01*
X39464Y-22542D01*
X39478Y-22528D01*
X39507Y-22514D01*
X39578Y-22514D01*
X39607Y-22528D01*
X39621Y-22542D01*
X39635Y-22571D01*
X39635Y-22657D01*
X39621Y-22685D01*
X39607Y-22700D01*
X42278Y-39135D02*
X42278Y-38835D01*
X42392Y-38835D01*
X42421Y-38850D01*
X42435Y-38864D01*
X42450Y-38892D01*
X42450Y-38935D01*
X42435Y-38964D01*
X42421Y-38978D01*
X42392Y-38992D01*
X42278Y-38992D01*
X42707Y-38935D02*
X42707Y-39135D01*
X42635Y-38821D02*
X42564Y-39035D01*
X42750Y-39035D01*
X42371Y-39635D02*
X42228Y-39635D01*
X42228Y-39335D01*
X42471Y-39478D02*
X42571Y-39478D01*
X42614Y-39635D02*
X42471Y-39635D01*
X42471Y-39335D01*
X42614Y-39335D01*
X42742Y-39635D02*
X42742Y-39335D01*
X42814Y-39335D01*
X42857Y-39350D01*
X42885Y-39378D01*
X42900Y-39407D01*
X42914Y-39464D01*
X42914Y-39507D01*
X42900Y-39564D01*
X42885Y-39592D01*
X42857Y-39621D01*
X42814Y-39635D01*
X42742Y-39635D01*
X43028Y-39621D02*
X43071Y-39635D01*
X43142Y-39635D01*
X43171Y-39621D01*
X43185Y-39607D01*
X43200Y-39578D01*
X43200Y-39550D01*
X43185Y-39521D01*
X43171Y-39507D01*
X43142Y-39492D01*
X43085Y-39478D01*
X43057Y-39464D01*
X43042Y-39450D01*
X43028Y-39421D01*
X43028Y-39392D01*
X43042Y-39364D01*
X43057Y-39350D01*
X43085Y-39335D01*
X43157Y-39335D01*
X43200Y-39350D01*
X43285Y-39335D02*
X43457Y-39335D01*
X43371Y-39635D02*
X43371Y-39335D01*
X43542Y-39550D02*
X43685Y-39550D01*
X43514Y-39635D02*
X43614Y-39335D01*
X43714Y-39635D01*
X43985Y-39607D02*
X43971Y-39621D01*
X43928Y-39635D01*
X43900Y-39635D01*
X43857Y-39621D01*
X43828Y-39592D01*
X43814Y-39564D01*
X43800Y-39507D01*
X43800Y-39464D01*
X43814Y-39407D01*
X43828Y-39378D01*
X43857Y-39350D01*
X43900Y-39335D01*
X43928Y-39335D01*
X43971Y-39350D01*
X43985Y-39364D01*
X44114Y-39635D02*
X44114Y-39335D01*
X44285Y-39635D02*
X44157Y-39464D01*
X44285Y-39335D02*
X44114Y-39507D01*
X36506Y-28259D02*
X36247Y-28109D01*
X36304Y-28010D01*
X36330Y-27993D01*
X36350Y-27987D01*
X36382Y-27989D01*
X36419Y-28011D01*
X36436Y-28037D01*
X36442Y-28057D01*
X36440Y-28089D01*
X36383Y-28188D01*
X36468Y-27726D02*
X36397Y-27849D01*
X36513Y-27933D01*
X36508Y-27914D01*
X36510Y-27882D01*
X36545Y-27820D01*
X36572Y-27802D01*
X36592Y-27797D01*
X36624Y-27799D01*
X36685Y-27835D01*
X36703Y-27861D01*
X36708Y-27881D01*
X36706Y-27913D01*
X36671Y-27975D01*
X36644Y-27992D01*
X36624Y-27997D01*
X36678Y-30078D02*
X36606Y-30202D01*
X36347Y-30052D01*
X36592Y-29913D02*
X36642Y-29826D01*
X36799Y-29868D02*
X36728Y-29992D01*
X36468Y-29842D01*
X36539Y-29718D01*
X36863Y-29757D02*
X36604Y-29607D01*
X36639Y-29545D01*
X36673Y-29515D01*
X36712Y-29504D01*
X36744Y-29506D01*
X36801Y-29522D01*
X36838Y-29544D01*
X36880Y-29585D01*
X36898Y-29611D01*
X36908Y-29650D01*
X36899Y-29695D01*
X36863Y-29757D01*
X36994Y-29502D02*
X37028Y-29472D01*
X37063Y-29410D01*
X37065Y-29378D01*
X37060Y-29359D01*
X37043Y-29332D01*
X37018Y-29318D01*
X36986Y-29316D01*
X36966Y-29321D01*
X36940Y-29339D01*
X36899Y-29381D01*
X36872Y-29399D01*
X36853Y-29404D01*
X36821Y-29402D01*
X36796Y-29388D01*
X36778Y-29361D01*
X36773Y-29342D01*
X36775Y-29310D01*
X36811Y-29248D01*
X36845Y-29218D01*
X36875Y-29136D02*
X36961Y-28988D01*
X37178Y-29212D02*
X36918Y-29062D01*
X37189Y-29021D02*
X37261Y-28897D01*
X37249Y-29088D02*
X37039Y-28852D01*
X37349Y-28915D01*
X37460Y-28666D02*
X37465Y-28685D01*
X37456Y-28730D01*
X37442Y-28754D01*
X37408Y-28784D01*
X37369Y-28795D01*
X37337Y-28793D01*
X37281Y-28777D01*
X37244Y-28755D01*
X37201Y-28714D01*
X37184Y-28688D01*
X37173Y-28649D01*
X37182Y-28604D01*
X37197Y-28580D01*
X37230Y-28550D01*
X37250Y-28544D01*
X37549Y-28569D02*
X37289Y-28419D01*
X37635Y-28420D02*
X37422Y-28446D01*
X37375Y-28270D02*
X37438Y-28505D01*
X45521Y-34376D02*
X45781Y-34226D01*
X45838Y-34325D01*
X45840Y-34356D01*
X45835Y-34376D01*
X45817Y-34403D01*
X45780Y-34424D01*
X45748Y-34426D01*
X45729Y-34421D01*
X45702Y-34403D01*
X45645Y-34304D01*
X45995Y-34597D02*
X45967Y-34547D01*
X45940Y-34530D01*
X45921Y-34524D01*
X45869Y-34521D01*
X45813Y-34537D01*
X45714Y-34594D01*
X45696Y-34621D01*
X45691Y-34641D01*
X45693Y-34673D01*
X45721Y-34722D01*
X45748Y-34740D01*
X45767Y-34745D01*
X45799Y-34743D01*
X45861Y-34707D01*
X45879Y-34681D01*
X45884Y-34661D01*
X45882Y-34629D01*
X45854Y-34580D01*
X45827Y-34562D01*
X45807Y-34557D01*
X45775Y-34559D01*
X45943Y-34056D02*
X45871Y-33933D01*
X46131Y-33783D01*
X46129Y-34065D02*
X46179Y-34151D01*
X46064Y-34267D02*
X45993Y-34143D01*
X46252Y-33993D01*
X46324Y-34117D01*
X46128Y-34378D02*
X46388Y-34228D01*
X46424Y-34290D01*
X46433Y-34334D01*
X46423Y-34373D01*
X46405Y-34400D01*
X46363Y-34441D01*
X46325Y-34462D01*
X46269Y-34479D01*
X46237Y-34480D01*
X46198Y-34470D01*
X46164Y-34440D01*
X46128Y-34378D01*
X46284Y-34618D02*
X46293Y-34663D01*
X46328Y-34725D01*
X46355Y-34742D01*
X46375Y-34747D01*
X46406Y-34745D01*
X46431Y-34731D01*
X46449Y-34705D01*
X46454Y-34685D01*
X46452Y-34653D01*
X46436Y-34597D01*
X46434Y-34565D01*
X46439Y-34545D01*
X46457Y-34518D01*
X46482Y-34504D01*
X46513Y-34502D01*
X46533Y-34507D01*
X46560Y-34525D01*
X46595Y-34587D01*
X46604Y-34631D01*
X46660Y-34698D02*
X46745Y-34847D01*
X46443Y-34923D02*
X46702Y-34773D01*
X46603Y-35028D02*
X46674Y-35152D01*
X46514Y-35046D02*
X46824Y-34983D01*
X46614Y-35219D01*
X46775Y-35440D02*
X46755Y-35435D01*
X46721Y-35405D01*
X46707Y-35380D01*
X46698Y-35336D01*
X46708Y-35297D01*
X46726Y-35270D01*
X46768Y-35229D01*
X46805Y-35208D01*
X46862Y-35192D01*
X46894Y-35190D01*
X46933Y-35200D01*
X46967Y-35230D01*
X46981Y-35255D01*
X46990Y-35299D01*
X46985Y-35319D01*
X46814Y-35566D02*
X47074Y-35416D01*
X46900Y-35714D02*
X46984Y-35517D01*
X47160Y-35564D02*
X46925Y-35502D01*
X31028Y-42885D02*
X31028Y-42585D01*
X31142Y-42585D01*
X31171Y-42600D01*
X31185Y-42614D01*
X31200Y-42642D01*
X31200Y-42685D01*
X31185Y-42714D01*
X31171Y-42728D01*
X31142Y-42742D01*
X31028Y-42742D01*
X31300Y-42585D02*
X31500Y-42585D01*
X31371Y-42885D01*
X32578Y-42635D02*
X32435Y-42635D01*
X32435Y-42335D01*
X32678Y-42478D02*
X32778Y-42478D01*
X32821Y-42635D02*
X32678Y-42635D01*
X32678Y-42335D01*
X32821Y-42335D01*
X32950Y-42635D02*
X32950Y-42335D01*
X33021Y-42335D01*
X33064Y-42350D01*
X33092Y-42378D01*
X33107Y-42407D01*
X33121Y-42464D01*
X33121Y-42507D01*
X33107Y-42564D01*
X33092Y-42592D01*
X33064Y-42621D01*
X33021Y-42635D01*
X32950Y-42635D01*
X33178Y-42664D02*
X33407Y-42664D01*
X33650Y-42607D02*
X33635Y-42621D01*
X33592Y-42635D01*
X33564Y-42635D01*
X33521Y-42621D01*
X33492Y-42592D01*
X33478Y-42564D01*
X33464Y-42507D01*
X33464Y-42464D01*
X33478Y-42407D01*
X33492Y-42378D01*
X33521Y-42350D01*
X33564Y-42335D01*
X33592Y-42335D01*
X33635Y-42350D01*
X33650Y-42364D01*
X33764Y-42550D02*
X33907Y-42550D01*
X33735Y-42635D02*
X33835Y-42335D01*
X33935Y-42635D01*
X34207Y-42635D02*
X34107Y-42492D01*
X34035Y-42635D02*
X34035Y-42335D01*
X34150Y-42335D01*
X34178Y-42350D01*
X34192Y-42364D01*
X34207Y-42392D01*
X34207Y-42435D01*
X34192Y-42464D01*
X34178Y-42478D01*
X34150Y-42492D01*
X34035Y-42492D01*
X34335Y-42635D02*
X34335Y-42335D01*
X34407Y-42335D01*
X34450Y-42350D01*
X34478Y-42378D01*
X34492Y-42407D01*
X34507Y-42464D01*
X34507Y-42507D01*
X34492Y-42564D01*
X34478Y-42592D01*
X34450Y-42621D01*
X34407Y-42635D01*
X34335Y-42635D01*
X34564Y-42664D02*
X34792Y-42664D01*
X34821Y-42335D02*
X34992Y-42335D01*
X34907Y-42635D02*
X34907Y-42335D01*
X35149Y-42335D02*
X35207Y-42335D01*
X35235Y-42350D01*
X35264Y-42378D01*
X35278Y-42435D01*
X35278Y-42535D01*
X35264Y-42592D01*
X35235Y-42621D01*
X35207Y-42635D01*
X35149Y-42635D01*
X35121Y-42621D01*
X35092Y-42592D01*
X35078Y-42535D01*
X35078Y-42435D01*
X35092Y-42378D01*
X35121Y-42350D01*
X35149Y-42335D01*
X35407Y-42635D02*
X35407Y-42335D01*
X35521Y-42335D01*
X35550Y-42350D01*
X35564Y-42364D01*
X35578Y-42392D01*
X35578Y-42435D01*
X35564Y-42464D01*
X35550Y-42478D01*
X35521Y-42492D01*
X35407Y-42492D01*
X35700Y-31885D02*
X35600Y-31742D01*
X35528Y-31885D02*
X35528Y-31585D01*
X35642Y-31585D01*
X35671Y-31600D01*
X35685Y-31614D01*
X35700Y-31642D01*
X35700Y-31685D01*
X35685Y-31714D01*
X35671Y-31728D01*
X35642Y-31742D01*
X35528Y-31742D01*
X35985Y-31885D02*
X35814Y-31885D01*
X35900Y-31885D02*
X35900Y-31585D01*
X35871Y-31628D01*
X35842Y-31657D01*
X35814Y-31671D01*
X36450Y-31135D02*
X36350Y-30992D01*
X36278Y-31135D02*
X36278Y-30835D01*
X36392Y-30835D01*
X36421Y-30850D01*
X36435Y-30864D01*
X36450Y-30892D01*
X36450Y-30935D01*
X36435Y-30964D01*
X36421Y-30978D01*
X36392Y-30992D01*
X36278Y-30992D01*
X36564Y-30864D02*
X36578Y-30850D01*
X36607Y-30835D01*
X36678Y-30835D01*
X36707Y-30850D01*
X36721Y-30864D01*
X36735Y-30892D01*
X36735Y-30921D01*
X36721Y-30964D01*
X36550Y-31135D01*
X36735Y-31135D01*
X37200Y-30385D02*
X37100Y-30242D01*
X37028Y-30385D02*
X37028Y-30085D01*
X37142Y-30085D01*
X37171Y-30100D01*
X37185Y-30114D01*
X37200Y-30142D01*
X37200Y-30185D01*
X37185Y-30214D01*
X37171Y-30228D01*
X37142Y-30242D01*
X37028Y-30242D01*
X37300Y-30085D02*
X37485Y-30085D01*
X37385Y-30200D01*
X37428Y-30200D01*
X37457Y-30214D01*
X37471Y-30228D01*
X37485Y-30257D01*
X37485Y-30328D01*
X37471Y-30357D01*
X37457Y-30371D01*
X37428Y-30385D01*
X37342Y-30385D01*
X37314Y-30371D01*
X37300Y-30357D01*
X36185Y-47300D02*
X36042Y-47400D01*
X36185Y-47471D02*
X35885Y-47471D01*
X35885Y-47357D01*
X35900Y-47328D01*
X35914Y-47314D01*
X35942Y-47300D01*
X35985Y-47300D01*
X36014Y-47314D01*
X36028Y-47328D01*
X36042Y-47357D01*
X36042Y-47471D01*
X35985Y-47042D02*
X36185Y-47042D01*
X35871Y-47114D02*
X36085Y-47185D01*
X36085Y-47000D01*
X36764Y-47978D02*
X36750Y-47964D01*
X36735Y-47935D01*
X36735Y-47864D01*
X36750Y-47835D01*
X36764Y-47821D01*
X36792Y-47807D01*
X36821Y-47807D01*
X36864Y-47821D01*
X37035Y-47992D01*
X37035Y-47807D01*
X37035Y-47678D02*
X36735Y-47678D01*
X36921Y-47650D02*
X37035Y-47564D01*
X36835Y-47564D02*
X36950Y-47678D01*
X37035Y-47450D02*
X37035Y-47378D01*
X36978Y-47378D01*
X36964Y-47407D01*
X36935Y-47435D01*
X36892Y-47450D01*
X36821Y-47450D01*
X36778Y-47435D01*
X36750Y-47407D01*
X36735Y-47364D01*
X36735Y-47307D01*
X36750Y-47264D01*
X36778Y-47235D01*
X36821Y-47221D01*
X36892Y-47221D01*
X36935Y-47235D01*
X36964Y-47264D01*
X36978Y-47292D01*
X37035Y-47292D01*
X37035Y-47221D01*
X37700Y-42385D02*
X37600Y-42242D01*
X37528Y-42385D02*
X37528Y-42085D01*
X37642Y-42085D01*
X37671Y-42100D01*
X37685Y-42114D01*
X37700Y-42142D01*
X37700Y-42185D01*
X37685Y-42214D01*
X37671Y-42228D01*
X37642Y-42242D01*
X37528Y-42242D01*
X37971Y-42085D02*
X37828Y-42085D01*
X37814Y-42228D01*
X37828Y-42214D01*
X37857Y-42200D01*
X37928Y-42200D01*
X37957Y-42214D01*
X37971Y-42228D01*
X37985Y-42257D01*
X37985Y-42328D01*
X37971Y-42357D01*
X37957Y-42371D01*
X37928Y-42385D01*
X37857Y-42385D01*
X37828Y-42371D01*
X37814Y-42357D01*
X37542Y-42885D02*
X37371Y-42885D01*
X37457Y-42885D02*
X37457Y-42585D01*
X37428Y-42628D01*
X37400Y-42657D01*
X37371Y-42671D01*
X37671Y-42885D02*
X37671Y-42585D01*
X37700Y-42771D02*
X37785Y-42885D01*
X37785Y-42685D02*
X37671Y-42800D01*
X37900Y-42885D02*
X37971Y-42885D01*
X37971Y-42828D01*
X37942Y-42814D01*
X37914Y-42785D01*
X37900Y-42742D01*
X37900Y-42671D01*
X37914Y-42628D01*
X37942Y-42600D01*
X37985Y-42585D01*
X38042Y-42585D01*
X38085Y-42600D01*
X38114Y-42628D01*
X38128Y-42671D01*
X38128Y-42742D01*
X38114Y-42785D01*
X38085Y-42814D01*
X38057Y-42828D01*
X38057Y-42885D01*
X38128Y-42885D01*
X41700Y-34885D02*
X41600Y-34742D01*
X41528Y-34885D02*
X41528Y-34585D01*
X41642Y-34585D01*
X41671Y-34600D01*
X41685Y-34614D01*
X41700Y-34642D01*
X41700Y-34685D01*
X41685Y-34714D01*
X41671Y-34728D01*
X41642Y-34742D01*
X41528Y-34742D01*
X41957Y-34585D02*
X41900Y-34585D01*
X41871Y-34600D01*
X41857Y-34614D01*
X41828Y-34657D01*
X41814Y-34714D01*
X41814Y-34828D01*
X41828Y-34857D01*
X41842Y-34871D01*
X41871Y-34885D01*
X41928Y-34885D01*
X41957Y-34871D01*
X41971Y-34857D01*
X41985Y-34828D01*
X41985Y-34757D01*
X41971Y-34728D01*
X41957Y-34714D01*
X41928Y-34700D01*
X41871Y-34700D01*
X41842Y-34714D01*
X41828Y-34728D01*
X41814Y-34757D01*
X43542Y-34885D02*
X43371Y-34885D01*
X43457Y-34885D02*
X43457Y-34585D01*
X43428Y-34628D01*
X43400Y-34657D01*
X43371Y-34671D01*
X43671Y-34885D02*
X43671Y-34585D01*
X43700Y-34771D02*
X43785Y-34885D01*
X43785Y-34685D02*
X43671Y-34800D01*
X43900Y-34885D02*
X43971Y-34885D01*
X43971Y-34828D01*
X43942Y-34814D01*
X43914Y-34785D01*
X43900Y-34742D01*
X43900Y-34671D01*
X43914Y-34628D01*
X43942Y-34600D01*
X43985Y-34585D01*
X44042Y-34585D01*
X44085Y-34600D01*
X44114Y-34628D01*
X44128Y-34671D01*
X44128Y-34742D01*
X44114Y-34785D01*
X44085Y-34814D01*
X44057Y-34828D01*
X44057Y-34885D01*
X44128Y-34885D01*
X46450Y-38385D02*
X46350Y-38242D01*
X46278Y-38385D02*
X46278Y-38085D01*
X46392Y-38085D01*
X46421Y-38100D01*
X46435Y-38114D01*
X46450Y-38142D01*
X46450Y-38185D01*
X46435Y-38214D01*
X46421Y-38228D01*
X46392Y-38242D01*
X46278Y-38242D01*
X46550Y-38085D02*
X46750Y-38085D01*
X46621Y-38385D01*
X48292Y-38385D02*
X48121Y-38385D01*
X48207Y-38385D02*
X48207Y-38085D01*
X48178Y-38128D01*
X48150Y-38157D01*
X48121Y-38171D01*
X48421Y-38385D02*
X48421Y-38085D01*
X48450Y-38271D02*
X48535Y-38385D01*
X48535Y-38185D02*
X48421Y-38300D01*
X48650Y-38385D02*
X48721Y-38385D01*
X48721Y-38328D01*
X48692Y-38314D01*
X48664Y-38285D01*
X48650Y-38242D01*
X48650Y-38171D01*
X48664Y-38128D01*
X48692Y-38100D01*
X48735Y-38085D01*
X48792Y-38085D01*
X48835Y-38100D01*
X48864Y-38128D01*
X48878Y-38171D01*
X48878Y-38242D01*
X48864Y-38285D01*
X48835Y-38314D01*
X48807Y-38328D01*
X48807Y-38385D01*
X48878Y-38385D01*
X29371Y-46478D02*
X29385Y-46435D01*
X29385Y-46364D01*
X29371Y-46335D01*
X29357Y-46321D01*
X29328Y-46307D01*
X29300Y-46307D01*
X29271Y-46321D01*
X29257Y-46335D01*
X29242Y-46364D01*
X29228Y-46421D01*
X29214Y-46450D01*
X29200Y-46464D01*
X29171Y-46478D01*
X29142Y-46478D01*
X29114Y-46464D01*
X29100Y-46450D01*
X29085Y-46421D01*
X29085Y-46350D01*
X29100Y-46307D01*
X29385Y-46021D02*
X29385Y-46192D01*
X29385Y-46107D02*
X29085Y-46107D01*
X29128Y-46135D01*
X29157Y-46164D01*
X29171Y-46192D01*
X30607Y-47085D02*
X30778Y-47085D01*
X30692Y-47385D02*
X30692Y-47085D01*
X30935Y-47085D02*
X30992Y-47085D01*
X31021Y-47100D01*
X31050Y-47128D01*
X31064Y-47185D01*
X31064Y-47285D01*
X31050Y-47342D01*
X31021Y-47371D01*
X30992Y-47385D01*
X30935Y-47385D01*
X30907Y-47371D01*
X30878Y-47342D01*
X30864Y-47285D01*
X30864Y-47185D01*
X30878Y-47128D01*
X30907Y-47100D01*
X30935Y-47085D01*
X31192Y-47385D02*
X31192Y-47085D01*
X31307Y-47085D01*
X31335Y-47100D01*
X31350Y-47114D01*
X31364Y-47142D01*
X31364Y-47185D01*
X31350Y-47214D01*
X31335Y-47228D01*
X31307Y-47242D01*
X31192Y-47242D01*
X39357Y-37242D02*
X39357Y-37385D01*
X39257Y-37085D02*
X39357Y-37242D01*
X39457Y-37085D01*
X39714Y-37385D02*
X39542Y-37385D01*
X39628Y-37385D02*
X39628Y-37085D01*
X39600Y-37128D01*
X39571Y-37157D01*
X39542Y-37171D01*
X38350Y-37885D02*
X38178Y-37885D01*
X38264Y-37885D02*
X38264Y-37585D01*
X38235Y-37628D01*
X38207Y-37657D01*
X38178Y-37671D01*
X38607Y-37685D02*
X38607Y-37885D01*
X38535Y-37571D02*
X38464Y-37785D01*
X38650Y-37785D01*
X38764Y-37857D02*
X38778Y-37871D01*
X38764Y-37885D01*
X38750Y-37871D01*
X38764Y-37857D01*
X38764Y-37885D01*
X38878Y-37585D02*
X39078Y-37585D01*
X38950Y-37885D01*
X39321Y-37685D02*
X39321Y-37885D01*
X39250Y-37571D02*
X39178Y-37785D01*
X39364Y-37785D01*
X39621Y-37585D02*
X39478Y-37585D01*
X39464Y-37728D01*
X39478Y-37714D01*
X39507Y-37700D01*
X39578Y-37700D01*
X39607Y-37714D01*
X39621Y-37728D01*
X39635Y-37757D01*
X39635Y-37828D01*
X39621Y-37857D01*
X39607Y-37871D01*
X39578Y-37885D01*
X39507Y-37885D01*
X39478Y-37871D01*
X39464Y-37857D01*
X39892Y-37585D02*
X39835Y-37585D01*
X39807Y-37600D01*
X39792Y-37614D01*
X39764Y-37657D01*
X39750Y-37714D01*
X39750Y-37828D01*
X39764Y-37857D01*
X39778Y-37871D01*
X39807Y-37885D01*
X39864Y-37885D01*
X39892Y-37871D01*
X39907Y-37857D01*
X39921Y-37828D01*
X39921Y-37757D01*
X39907Y-37728D01*
X39892Y-37714D01*
X39864Y-37700D01*
X39807Y-37700D01*
X39778Y-37714D01*
X39764Y-37728D01*
X39750Y-37757D01*
X40050Y-37885D02*
X40050Y-37585D01*
X40150Y-37800D01*
X40250Y-37585D01*
X40250Y-37885D01*
X40392Y-37885D02*
X40392Y-37585D01*
X40392Y-37728D02*
X40564Y-37728D01*
X40564Y-37885D02*
X40564Y-37585D01*
X40678Y-37685D02*
X40835Y-37685D01*
X40678Y-37885D01*
X40835Y-37885D01*
X36635Y-45792D02*
X36335Y-45792D01*
X36607Y-45478D02*
X36621Y-45492D01*
X36635Y-45535D01*
X36635Y-45564D01*
X36621Y-45607D01*
X36592Y-45635D01*
X36564Y-45649D01*
X36507Y-45664D01*
X36464Y-45664D01*
X36407Y-45649D01*
X36378Y-45635D01*
X36350Y-45607D01*
X36335Y-45564D01*
X36335Y-45535D01*
X36350Y-45492D01*
X36364Y-45478D01*
X36335Y-45378D02*
X36335Y-45192D01*
X36450Y-45292D01*
X36450Y-45249D01*
X36464Y-45221D01*
X36478Y-45207D01*
X36507Y-45192D01*
X36578Y-45192D01*
X36607Y-45207D01*
X36621Y-45221D01*
X36635Y-45249D01*
X36635Y-45335D01*
X36621Y-45364D01*
X36607Y-45378D01*
X36821Y-45335D02*
X36992Y-45335D01*
X36907Y-45635D02*
X36907Y-45335D01*
X37235Y-45635D02*
X37092Y-45635D01*
X37092Y-45335D01*
X37507Y-45607D02*
X37492Y-45621D01*
X37450Y-45635D01*
X37421Y-45635D01*
X37378Y-45621D01*
X37350Y-45592D01*
X37335Y-45564D01*
X37321Y-45507D01*
X37321Y-45464D01*
X37335Y-45407D01*
X37350Y-45378D01*
X37378Y-45350D01*
X37421Y-45335D01*
X37450Y-45335D01*
X37492Y-45350D01*
X37507Y-45364D01*
X37778Y-45335D02*
X37635Y-45335D01*
X37621Y-45478D01*
X37635Y-45464D01*
X37664Y-45450D01*
X37735Y-45450D01*
X37764Y-45464D01*
X37778Y-45478D01*
X37792Y-45507D01*
X37792Y-45578D01*
X37778Y-45607D01*
X37764Y-45621D01*
X37735Y-45635D01*
X37664Y-45635D01*
X37635Y-45621D01*
X37621Y-45607D01*
X37935Y-45635D02*
X37992Y-45635D01*
X38021Y-45621D01*
X38035Y-45607D01*
X38064Y-45564D01*
X38078Y-45507D01*
X38078Y-45392D01*
X38064Y-45364D01*
X38050Y-45350D01*
X38021Y-45335D01*
X37964Y-45335D01*
X37935Y-45350D01*
X37921Y-45364D01*
X37907Y-45392D01*
X37907Y-45464D01*
X37921Y-45492D01*
X37935Y-45507D01*
X37964Y-45521D01*
X38021Y-45521D01*
X38050Y-45507D01*
X38064Y-45492D01*
X38078Y-45464D01*
X38178Y-45335D02*
X38378Y-45335D01*
X38250Y-45635D01*
X38464Y-45335D02*
X38649Y-45335D01*
X38549Y-45450D01*
X38592Y-45450D01*
X38621Y-45464D01*
X38635Y-45478D01*
X38649Y-45507D01*
X38649Y-45578D01*
X38635Y-45607D01*
X38621Y-45621D01*
X38592Y-45635D01*
X38507Y-45635D01*
X38478Y-45621D01*
X38464Y-45607D01*
X41885Y-29971D02*
X41585Y-29971D01*
X41585Y-29857D01*
X41600Y-29828D01*
X41614Y-29814D01*
X41642Y-29800D01*
X41685Y-29800D01*
X41714Y-29814D01*
X41728Y-29828D01*
X41742Y-29857D01*
X41742Y-29971D01*
X41714Y-29628D02*
X41700Y-29657D01*
X41685Y-29671D01*
X41657Y-29685D01*
X41642Y-29685D01*
X41614Y-29671D01*
X41600Y-29657D01*
X41585Y-29628D01*
X41585Y-29571D01*
X41600Y-29542D01*
X41614Y-29528D01*
X41642Y-29514D01*
X41657Y-29514D01*
X41685Y-29528D01*
X41700Y-29542D01*
X41714Y-29571D01*
X41714Y-29628D01*
X41728Y-29657D01*
X41742Y-29671D01*
X41771Y-29685D01*
X41828Y-29685D01*
X41857Y-29671D01*
X41871Y-29657D01*
X41885Y-29628D01*
X41885Y-29571D01*
X41871Y-29542D01*
X41857Y-29528D01*
X41828Y-29514D01*
X41771Y-29514D01*
X41742Y-29528D01*
X41728Y-29542D01*
X41714Y-29571D01*
X41871Y-28707D02*
X41885Y-28664D01*
X41885Y-28592D01*
X41871Y-28564D01*
X41857Y-28549D01*
X41828Y-28535D01*
X41800Y-28535D01*
X41771Y-28549D01*
X41757Y-28564D01*
X41742Y-28592D01*
X41728Y-28649D01*
X41714Y-28678D01*
X41700Y-28692D01*
X41671Y-28707D01*
X41642Y-28707D01*
X41614Y-28692D01*
X41600Y-28678D01*
X41585Y-28649D01*
X41585Y-28578D01*
X41600Y-28535D01*
X41728Y-28407D02*
X41728Y-28307D01*
X41885Y-28264D02*
X41885Y-28407D01*
X41585Y-28407D01*
X41585Y-28264D01*
X41885Y-27964D02*
X41742Y-28064D01*
X41885Y-28135D02*
X41585Y-28135D01*
X41585Y-28021D01*
X41600Y-27992D01*
X41614Y-27978D01*
X41642Y-27964D01*
X41685Y-27964D01*
X41714Y-27978D01*
X41728Y-27992D01*
X41742Y-28021D01*
X41742Y-28135D01*
X41914Y-27907D02*
X41914Y-27678D01*
X41871Y-27621D02*
X41885Y-27578D01*
X41885Y-27507D01*
X41871Y-27478D01*
X41857Y-27464D01*
X41828Y-27450D01*
X41800Y-27450D01*
X41771Y-27464D01*
X41757Y-27478D01*
X41742Y-27507D01*
X41728Y-27564D01*
X41714Y-27592D01*
X41700Y-27607D01*
X41671Y-27621D01*
X41642Y-27621D01*
X41614Y-27607D01*
X41600Y-27592D01*
X41585Y-27564D01*
X41585Y-27492D01*
X41600Y-27450D01*
X41885Y-27321D02*
X41585Y-27321D01*
X41728Y-27321D02*
X41728Y-27150D01*
X41885Y-27150D02*
X41585Y-27150D01*
X41585Y-26950D02*
X41585Y-26892D01*
X41600Y-26864D01*
X41628Y-26835D01*
X41685Y-26821D01*
X41785Y-26821D01*
X41842Y-26835D01*
X41871Y-26864D01*
X41885Y-26892D01*
X41885Y-26950D01*
X41871Y-26978D01*
X41842Y-27007D01*
X41785Y-27021D01*
X41685Y-27021D01*
X41628Y-27007D01*
X41600Y-26978D01*
X41585Y-26950D01*
X41885Y-26521D02*
X41742Y-26621D01*
X41885Y-26692D02*
X41585Y-26692D01*
X41585Y-26578D01*
X41600Y-26549D01*
X41614Y-26535D01*
X41642Y-26521D01*
X41685Y-26521D01*
X41714Y-26535D01*
X41728Y-26549D01*
X41742Y-26578D01*
X41742Y-26692D01*
X41585Y-26435D02*
X41585Y-26264D01*
X41885Y-26349D02*
X41585Y-26349D01*
%LPC*%
G54D15*
X41000Y-42000D03*
X49000Y-49000D03*
G54D16*
X49500Y-44437D03*
X49000Y-44437D03*
X48500Y-44437D03*
X48000Y-44437D03*
X48000Y-46562D03*
X48500Y-46562D03*
X49000Y-46562D03*
X49500Y-46562D03*
G54D17*
X49025Y-41750D03*
X48474Y-41750D03*
X48850Y-47324D03*
X48850Y-47875D03*
G54D18*
X43000Y-41750D03*
G54D19*
X44000Y-41750D03*
X45000Y-41750D03*
X47000Y-41750D03*
X46000Y-41750D03*
G54D20*
X46083Y-47778D03*
G54D21*
X46083Y-47000D03*
G54D20*
X46083Y-46222D03*
X43917Y-46222D03*
G54D21*
X43917Y-47000D03*
G54D20*
X43917Y-47778D03*
X46083Y-44778D03*
G54D21*
X46083Y-44000D03*
G54D20*
X46083Y-43222D03*
X43917Y-43222D03*
G54D21*
X43917Y-44000D03*
G54D20*
X43917Y-44778D03*
G54D18*
X43000Y-49250D03*
G54D19*
X44000Y-49250D03*
X45000Y-49250D03*
X47000Y-49250D03*
X46000Y-49250D03*
G54D17*
X41525Y-49250D03*
X40974Y-49250D03*
X49500Y-47875D03*
X49500Y-47324D03*
X49500Y-57875D03*
X49500Y-57324D03*
X41525Y-59250D03*
X40974Y-59250D03*
G54D18*
X43000Y-59250D03*
G54D19*
X44000Y-59250D03*
X45000Y-59250D03*
X47000Y-59250D03*
X46000Y-59250D03*
G54D20*
X46083Y-54778D03*
G54D21*
X46083Y-54000D03*
G54D20*
X46083Y-53222D03*
X43917Y-53222D03*
G54D21*
X43917Y-54000D03*
G54D20*
X43917Y-54778D03*
X46083Y-57778D03*
G54D21*
X46083Y-57000D03*
G54D20*
X46083Y-56222D03*
X43917Y-56222D03*
G54D21*
X43917Y-57000D03*
G54D20*
X43917Y-57778D03*
G54D18*
X43000Y-51750D03*
G54D19*
X44000Y-51750D03*
X45000Y-51750D03*
X47000Y-51750D03*
X46000Y-51750D03*
G54D17*
X48850Y-57324D03*
X48850Y-57875D03*
X49025Y-51750D03*
X48474Y-51750D03*
G54D16*
X49500Y-54437D03*
X49000Y-54437D03*
X48500Y-54437D03*
X48000Y-54437D03*
X48000Y-56562D03*
X48500Y-56562D03*
X49000Y-56562D03*
X49500Y-56562D03*
G54D15*
X49000Y-59000D03*
X41000Y-52000D03*
X41000Y-62000D03*
X49000Y-69000D03*
G54D16*
X49500Y-64437D03*
X49000Y-64437D03*
X48500Y-64437D03*
X48000Y-64437D03*
X48000Y-66562D03*
X48500Y-66562D03*
X49000Y-66562D03*
X49500Y-66562D03*
G54D17*
X49025Y-61750D03*
X48474Y-61750D03*
X48850Y-67324D03*
X48850Y-67875D03*
G54D18*
X43000Y-61750D03*
G54D19*
X44000Y-61750D03*
X45000Y-61750D03*
X47000Y-61750D03*
X46000Y-61750D03*
G54D20*
X46083Y-67778D03*
G54D21*
X46083Y-67000D03*
G54D20*
X46083Y-66222D03*
X43917Y-66222D03*
G54D21*
X43917Y-67000D03*
G54D20*
X43917Y-67778D03*
X46083Y-64778D03*
G54D21*
X46083Y-64000D03*
G54D20*
X46083Y-63222D03*
X43917Y-63222D03*
G54D21*
X43917Y-64000D03*
G54D20*
X43917Y-64778D03*
G54D18*
X43000Y-69250D03*
G54D19*
X44000Y-69250D03*
X45000Y-69250D03*
X47000Y-69250D03*
X46000Y-69250D03*
G54D17*
X41525Y-69250D03*
X40974Y-69250D03*
X49500Y-67875D03*
X49500Y-67324D03*
G54D22*
X45000Y-60500D03*
X45300Y-60500D03*
X44700Y-60500D03*
X44700Y-50500D03*
X45300Y-50500D03*
X45000Y-50500D03*
G54D23*
X40750Y-56838D03*
X40750Y-54161D03*
G54D24*
X41832Y-54515D03*
X41832Y-55500D03*
X41832Y-56484D03*
G54D23*
X40750Y-66838D03*
X40750Y-64161D03*
G54D24*
X41832Y-64515D03*
X41832Y-65500D03*
X41832Y-66484D03*
G54D22*
X33700Y-60500D03*
X34300Y-60500D03*
X34000Y-60500D03*
G54D17*
X38500Y-67875D03*
X38500Y-67324D03*
X30525Y-69250D03*
X29974Y-69250D03*
G54D18*
X32000Y-69250D03*
G54D19*
X33000Y-69250D03*
X34000Y-69250D03*
X36000Y-69250D03*
X35000Y-69250D03*
G54D20*
X35083Y-64778D03*
G54D21*
X35083Y-64000D03*
G54D20*
X35083Y-63222D03*
X32917Y-63222D03*
G54D21*
X32917Y-64000D03*
G54D20*
X32917Y-64778D03*
X35083Y-67778D03*
G54D21*
X35083Y-67000D03*
G54D20*
X35083Y-66222D03*
X32917Y-66222D03*
G54D21*
X32917Y-67000D03*
G54D20*
X32917Y-67778D03*
G54D18*
X32000Y-61750D03*
G54D19*
X33000Y-61750D03*
X34000Y-61750D03*
X36000Y-61750D03*
X35000Y-61750D03*
G54D17*
X37850Y-67324D03*
X37850Y-67875D03*
X38025Y-61750D03*
X37474Y-61750D03*
G54D23*
X29750Y-66838D03*
X29750Y-64161D03*
G54D24*
X30832Y-64515D03*
X30832Y-65500D03*
X30832Y-66484D03*
G54D16*
X38500Y-64437D03*
X38000Y-64437D03*
X37500Y-64437D03*
X37000Y-64437D03*
X37000Y-66562D03*
X37500Y-66562D03*
X38000Y-66562D03*
X38500Y-66562D03*
G54D15*
X38000Y-69000D03*
X30000Y-62000D03*
X30000Y-52000D03*
X38000Y-59000D03*
G54D16*
X38500Y-54437D03*
X38000Y-54437D03*
X37500Y-54437D03*
X37000Y-54437D03*
X37000Y-56562D03*
X37500Y-56562D03*
X38000Y-56562D03*
X38500Y-56562D03*
G54D23*
X29750Y-56838D03*
X29750Y-54161D03*
G54D24*
X30832Y-54515D03*
X30832Y-55500D03*
X30832Y-56484D03*
G54D17*
X38025Y-51750D03*
X37474Y-51750D03*
X37850Y-57324D03*
X37850Y-57875D03*
G54D18*
X32000Y-51750D03*
G54D19*
X33000Y-51750D03*
X34000Y-51750D03*
X36000Y-51750D03*
X35000Y-51750D03*
G54D20*
X35083Y-57778D03*
G54D21*
X35083Y-57000D03*
G54D20*
X35083Y-56222D03*
X32917Y-56222D03*
G54D21*
X32917Y-57000D03*
G54D20*
X32917Y-57778D03*
X35083Y-54778D03*
G54D21*
X35083Y-54000D03*
G54D20*
X35083Y-53222D03*
X32917Y-53222D03*
G54D21*
X32917Y-54000D03*
G54D20*
X32917Y-54778D03*
G54D18*
X32000Y-59250D03*
G54D19*
X33000Y-59250D03*
X34000Y-59250D03*
X36000Y-59250D03*
X35000Y-59250D03*
G54D17*
X30525Y-59250D03*
X29974Y-59250D03*
X38500Y-57875D03*
X38500Y-57324D03*
G54D22*
X39500Y-55200D03*
X39500Y-55500D03*
X39500Y-55800D03*
X39500Y-65200D03*
X39500Y-65500D03*
X39500Y-65800D03*
G54D23*
X40750Y-46838D03*
X40750Y-44161D03*
G54D24*
X41832Y-44515D03*
X41832Y-45500D03*
X41832Y-46484D03*
G54D22*
X34000Y-50500D03*
X34300Y-50500D03*
X33700Y-50500D03*
G54D17*
X36775Y-35500D03*
X36224Y-35500D03*
X41275Y-35500D03*
X40724Y-35500D03*
X37724Y-35500D03*
X38275Y-35500D03*
X36775Y-34500D03*
X36224Y-34500D03*
G54D10*
G36*
X42055Y-31889D02*
X41860Y-31694D01*
X42055Y-31500D01*
X42250Y-31694D01*
X42055Y-31889D01*
X42055Y-31889D01*
G37*
G36*
X42444Y-31500D02*
X42250Y-31305D01*
X42444Y-31110D01*
X42639Y-31305D01*
X42444Y-31500D01*
X42444Y-31500D01*
G37*
G36*
X41944Y-30610D02*
X42139Y-30805D01*
X41944Y-31000D01*
X41750Y-30805D01*
X41944Y-30610D01*
X41944Y-30610D01*
G37*
G36*
X41555Y-31000D02*
X41750Y-31194D01*
X41555Y-31389D01*
X41360Y-31194D01*
X41555Y-31000D01*
X41555Y-31000D01*
G37*
G54D25*
X34051Y-39250D03*
X32948Y-39250D03*
X34051Y-35250D03*
X32948Y-35250D03*
G54D17*
X38250Y-25775D03*
X38250Y-25224D03*
X38500Y-47875D03*
X38500Y-47324D03*
X30525Y-49250D03*
X29974Y-49250D03*
G54D10*
G36*
X37411Y-33668D02*
X37272Y-33529D01*
X37690Y-33111D01*
X37829Y-33251D01*
X37411Y-33668D01*
X37411Y-33668D01*
G37*
G36*
X37634Y-33891D02*
X37495Y-33752D01*
X37913Y-33334D01*
X38052Y-33473D01*
X37634Y-33891D01*
X37634Y-33891D01*
G37*
G36*
X37857Y-34114D02*
X37718Y-33975D01*
X38135Y-33557D01*
X38275Y-33696D01*
X37857Y-34114D01*
X37857Y-34114D01*
G37*
G36*
X38080Y-34337D02*
X37940Y-34197D01*
X38358Y-33779D01*
X38498Y-33919D01*
X38080Y-34337D01*
X38080Y-34337D01*
G37*
G36*
X38302Y-34559D02*
X38162Y-34419D01*
X38580Y-34001D01*
X38720Y-34141D01*
X38302Y-34559D01*
X38302Y-34559D01*
G37*
G36*
X38524Y-34781D02*
X38385Y-34642D01*
X38803Y-34224D01*
X38942Y-34364D01*
X38524Y-34781D01*
X38524Y-34781D01*
G37*
G36*
X38747Y-35004D02*
X38608Y-34865D01*
X39026Y-34447D01*
X39165Y-34586D01*
X38747Y-35004D01*
X38747Y-35004D01*
G37*
G36*
X38970Y-35227D02*
X38831Y-35088D01*
X39248Y-34670D01*
X39388Y-34809D01*
X38970Y-35227D01*
X38970Y-35227D01*
G37*
G36*
X40168Y-35088D02*
X40029Y-35227D01*
X39611Y-34809D01*
X39751Y-34670D01*
X40168Y-35088D01*
X40168Y-35088D01*
G37*
G36*
X40391Y-34865D02*
X40252Y-35004D01*
X39834Y-34586D01*
X39973Y-34447D01*
X40391Y-34865D01*
X40391Y-34865D01*
G37*
G36*
X40614Y-34642D02*
X40475Y-34781D01*
X40057Y-34364D01*
X40196Y-34224D01*
X40614Y-34642D01*
X40614Y-34642D01*
G37*
G36*
X40837Y-34419D02*
X40697Y-34559D01*
X40279Y-34141D01*
X40419Y-34001D01*
X40837Y-34419D01*
X40837Y-34419D01*
G37*
G36*
X41059Y-34197D02*
X40919Y-34337D01*
X40501Y-33919D01*
X40641Y-33779D01*
X41059Y-34197D01*
X41059Y-34197D01*
G37*
G36*
X41281Y-33975D02*
X41142Y-34114D01*
X40724Y-33696D01*
X40864Y-33557D01*
X41281Y-33975D01*
X41281Y-33975D01*
G37*
G36*
X41504Y-33752D02*
X41365Y-33891D01*
X40947Y-33473D01*
X41086Y-33334D01*
X41504Y-33752D01*
X41504Y-33752D01*
G37*
G36*
X41727Y-33529D02*
X41588Y-33668D01*
X41170Y-33251D01*
X41309Y-33111D01*
X41727Y-33529D01*
X41727Y-33529D01*
G37*
G36*
X41588Y-32331D02*
X41727Y-32470D01*
X41309Y-32888D01*
X41170Y-32748D01*
X41588Y-32331D01*
X41588Y-32331D01*
G37*
G36*
X41365Y-32108D02*
X41504Y-32247D01*
X41086Y-32665D01*
X40947Y-32526D01*
X41365Y-32108D01*
X41365Y-32108D01*
G37*
G36*
X41142Y-31885D02*
X41281Y-32024D01*
X40864Y-32442D01*
X40724Y-32303D01*
X41142Y-31885D01*
X41142Y-31885D01*
G37*
G36*
X40919Y-31662D02*
X41059Y-31802D01*
X40641Y-32220D01*
X40501Y-32080D01*
X40919Y-31662D01*
X40919Y-31662D01*
G37*
G36*
X40697Y-31440D02*
X40837Y-31580D01*
X40419Y-31998D01*
X40279Y-31858D01*
X40697Y-31440D01*
X40697Y-31440D01*
G37*
G36*
X40475Y-31218D02*
X40614Y-31357D01*
X40196Y-31775D01*
X40057Y-31635D01*
X40475Y-31218D01*
X40475Y-31218D01*
G37*
G36*
X40252Y-30995D02*
X40391Y-31134D01*
X39973Y-31552D01*
X39834Y-31413D01*
X40252Y-30995D01*
X40252Y-30995D01*
G37*
G36*
X40029Y-30772D02*
X40168Y-30911D01*
X39751Y-31329D01*
X39611Y-31190D01*
X40029Y-30772D01*
X40029Y-30772D01*
G37*
G36*
X38831Y-30911D02*
X38970Y-30772D01*
X39388Y-31190D01*
X39248Y-31329D01*
X38831Y-30911D01*
X38831Y-30911D01*
G37*
G36*
X38608Y-31134D02*
X38747Y-30995D01*
X39165Y-31413D01*
X39026Y-31552D01*
X38608Y-31134D01*
X38608Y-31134D01*
G37*
G36*
X38385Y-31357D02*
X38524Y-31218D01*
X38942Y-31635D01*
X38803Y-31775D01*
X38385Y-31357D01*
X38385Y-31357D01*
G37*
G36*
X38162Y-31580D02*
X38302Y-31440D01*
X38720Y-31858D01*
X38580Y-31998D01*
X38162Y-31580D01*
X38162Y-31580D01*
G37*
G36*
X37940Y-31802D02*
X38080Y-31662D01*
X38498Y-32080D01*
X38358Y-32220D01*
X37940Y-31802D01*
X37940Y-31802D01*
G37*
G36*
X37718Y-32024D02*
X37857Y-31885D01*
X38275Y-32303D01*
X38135Y-32442D01*
X37718Y-32024D01*
X37718Y-32024D01*
G37*
G36*
X37495Y-32247D02*
X37634Y-32108D01*
X38052Y-32526D01*
X37913Y-32665D01*
X37495Y-32247D01*
X37495Y-32247D01*
G37*
G36*
X37272Y-32470D02*
X37411Y-32331D01*
X37829Y-32748D01*
X37690Y-32888D01*
X37272Y-32470D01*
X37272Y-32470D01*
G37*
G54D26*
X32279Y-36344D03*
X32279Y-37250D03*
X32279Y-38155D03*
G54D27*
X34720Y-37250D03*
G54D18*
X48000Y-39500D03*
G54D19*
X49000Y-39500D03*
G54D18*
X32000Y-49250D03*
G54D19*
X33000Y-49250D03*
X34000Y-49250D03*
X36000Y-49250D03*
X35000Y-49250D03*
G54D20*
X35083Y-44778D03*
G54D21*
X35083Y-44000D03*
G54D20*
X35083Y-43222D03*
X32917Y-43222D03*
G54D21*
X32917Y-44000D03*
G54D20*
X32917Y-44778D03*
X35083Y-47778D03*
G54D21*
X35083Y-47000D03*
G54D20*
X35083Y-46222D03*
X32917Y-46222D03*
G54D21*
X32917Y-47000D03*
G54D20*
X32917Y-47778D03*
G54D17*
X43025Y-35500D03*
X42474Y-35500D03*
X47224Y-37500D03*
X47775Y-37500D03*
G54D18*
X30000Y-39500D03*
G54D19*
X31000Y-39500D03*
G54D28*
X44500Y-36000D03*
G54D29*
X45500Y-36000D03*
X44500Y-37000D03*
X45500Y-37000D03*
X44500Y-38000D03*
X45500Y-38000D03*
G54D18*
X39500Y-28750D03*
G54D19*
X39500Y-27750D03*
X39500Y-26750D03*
X39500Y-24750D03*
X39500Y-23750D03*
X39500Y-25750D03*
G54D18*
X37500Y-39250D03*
G54D19*
X38500Y-39250D03*
X39500Y-39250D03*
X41500Y-39250D03*
X40500Y-39250D03*
G54D10*
G36*
X35770Y-29063D02*
X36384Y-29418D01*
X36029Y-30031D01*
X35415Y-29677D01*
X35770Y-29063D01*
X35770Y-29063D01*
G37*
G54D19*
X35400Y-30413D03*
X34900Y-31280D03*
X33900Y-33012D03*
X34400Y-32146D03*
G54D10*
G36*
X45584Y-33141D02*
X44970Y-33496D01*
X44615Y-32882D01*
X45229Y-32528D01*
X45584Y-33141D01*
X45584Y-33141D01*
G37*
G54D19*
X44600Y-32146D03*
X44100Y-31280D03*
X43100Y-29547D03*
X43600Y-30413D03*
G54D18*
X32000Y-41750D03*
G54D19*
X33000Y-41750D03*
X34000Y-41750D03*
X36000Y-41750D03*
X35000Y-41750D03*
G54D17*
X37025Y-31750D03*
X36474Y-31750D03*
X37775Y-31000D03*
X37224Y-31000D03*
X38525Y-30250D03*
X37974Y-30250D03*
X37850Y-47324D03*
X37850Y-47875D03*
X38025Y-41750D03*
X37474Y-41750D03*
X43025Y-34750D03*
X42474Y-34750D03*
X47224Y-38250D03*
X47775Y-38250D03*
G54D23*
X29750Y-46838D03*
X29750Y-44161D03*
G54D24*
X30832Y-44515D03*
X30832Y-45500D03*
X30832Y-46484D03*
G54D30*
X37629Y-37000D03*
X41370Y-37000D03*
G54D16*
X38500Y-44437D03*
X38000Y-44437D03*
X37500Y-44437D03*
X37000Y-44437D03*
X37000Y-46562D03*
X37500Y-46562D03*
X38000Y-46562D03*
X38500Y-46562D03*
G54D18*
X41000Y-29500D03*
G54D19*
X41000Y-28500D03*
X41000Y-27500D03*
X41000Y-25500D03*
X41000Y-26500D03*
G54D15*
X35750Y-33250D03*
X43250Y-33250D03*
X38000Y-49000D03*
X30000Y-42000D03*
G54D22*
X33700Y-40500D03*
X34000Y-40500D03*
X34300Y-40500D03*
X45300Y-40500D03*
X45000Y-40500D03*
X44700Y-40500D03*
X39500Y-45500D03*
X39500Y-45200D03*
X39500Y-45800D03*
M02*
