M48
;DRILL file {Pcbnew (2014-02-03 BZR 4657)-product} date Wed 05 Mar 2014 09:35:45 PM CST
;FORMAT={2:4/ absolute / inch / keep zeros}
FMAT,2
INCH,TZ
T1C0.015
T2C0.020
T3C0.035
T4C0.098
%
G90
G05
M72
T1
X029750Y-044500
X029750Y-053500
X029750Y-062500
X030250Y-044500
X030250Y-047250
X030250Y-053500
X030250Y-056250
X030250Y-062500
X030250Y-065250
X031250Y-042500
X031250Y-051500
X031250Y-060500
X035750Y-031150
X035750Y-044500
X035750Y-053500
X035750Y-062500
X036500Y-041750
X036500Y-050750
X036500Y-059750
X036750Y-046250
X036750Y-055250
X036750Y-064250
X037000Y-032300
X037000Y-041250
X037000Y-050250
X037000Y-059250
X037350Y-027300
X037500Y-036000
X037600Y-031750
X038150Y-033100
X038200Y-029050
X038300Y-027850
X038300Y-028300
X038400Y-032750
X038750Y-032450
X039050Y-032100
X039400Y-033200
X039800Y-031950
X040250Y-044500
X040250Y-053500
X040250Y-062500
X040750Y-044500
X040750Y-047250
X040750Y-053500
X040750Y-056250
X040750Y-062500
X040750Y-065250
X041750Y-042500
X041750Y-051500
X041750Y-060500
X042100Y-032400
X043250Y-037800
X046250Y-044500
X046250Y-053500
X046250Y-062500
X047000Y-041750
X047000Y-050750
X047000Y-059750
X047250Y-046250
X047250Y-055250
X047250Y-064250
X047500Y-041250
X047500Y-050250
X047500Y-059250
T2
X042700Y-038150
T3
X030000Y-039500
X030000Y-043161
X030000Y-045839
X030000Y-052161
X030000Y-054839
X030000Y-061161
X030000Y-063839
X031000Y-039500
X032250Y-040750
X032250Y-048250
X032250Y-049750
X032250Y-057250
X032250Y-058750
X032250Y-066250
X033250Y-040750
X033250Y-048250
X033250Y-049750
X033250Y-057250
X033250Y-058750
X033250Y-066250
X033900Y-033012
X034250Y-040750
X034250Y-048250
X034250Y-049750
X034250Y-057250
X034250Y-058750
X034250Y-066250
X034400Y-032146
X034900Y-031280
X035250Y-040750
X035250Y-048250
X035250Y-049750
X035250Y-057250
X035250Y-058750
X035250Y-066250
X035400Y-030414
X035900Y-029548
X036250Y-040750
X036250Y-048250
X036250Y-049750
X036250Y-057250
X036250Y-058750
X036250Y-066250
X037500Y-039250
X038500Y-039250
X039500Y-023750
X039500Y-024750
X039500Y-025750
X039500Y-026750
X039500Y-027750
X039500Y-028750
X039500Y-039250
X040500Y-039250
X040500Y-043161
X040500Y-045839
X040500Y-052161
X040500Y-054839
X040500Y-061161
X040500Y-063839
X041000Y-025500
X041000Y-026500
X041000Y-027500
X041000Y-028500
X041000Y-029500
X041500Y-039250
X042750Y-040750
X042750Y-048250
X042750Y-049750
X042750Y-057250
X042750Y-058750
X042750Y-066250
X043100Y-029548
X043600Y-030414
X043750Y-040750
X043750Y-048250
X043750Y-049750
X043750Y-057250
X043750Y-058750
X043750Y-066250
X044100Y-031280
X044500Y-036000
X044500Y-037000
X044500Y-038000
X044600Y-032146
X044750Y-040750
X044750Y-048250
X044750Y-049750
X044750Y-057250
X044750Y-058750
X044750Y-066250
X045100Y-033012
X045500Y-036000
X045500Y-037000
X045500Y-038000
X045750Y-040750
X045750Y-048250
X045750Y-049750
X045750Y-057250
X045750Y-058750
X045750Y-066250
X046750Y-040750
X046750Y-048250
X046750Y-049750
X046750Y-057250
X046750Y-058750
X046750Y-066250
X048000Y-039500
X049000Y-039500
T4
X030000Y-041000
X030000Y-050000
X030000Y-059000
X035750Y-033250
X038500Y-048000
X038500Y-057000
X038500Y-066000
X040500Y-041000
X040500Y-050000
X040500Y-059000
X043250Y-033250
X049000Y-048000
X049000Y-057000
X049000Y-066000
T0
M30
