M48
;DRILL file {Pcbnew (2014-02-03 BZR 4657)-product} date Thu 13 Mar 2014 03:56:54 PM CDT
;FORMAT={2:4/ absolute / inch / keep zeros}
FMAT,2
INCH,TZ
T1C0.015
%
G90
G05
M72
T1
X033700Y-040500
X033700Y-050500
X033700Y-060500
X034000Y-040500
X034000Y-050500
X034000Y-060500
X034300Y-040500
X034300Y-050500
X034300Y-060500
X039500Y-045200
X039500Y-045500
X039500Y-045800
X039500Y-055200
X039500Y-055500
X039500Y-055800
X039500Y-065200
X039500Y-065500
X039500Y-065800
X044700Y-040500
X044700Y-050500
X044700Y-060500
X045000Y-040500
X045000Y-050500
X045000Y-060500
X045300Y-040500
X045300Y-050500
X045300Y-060500
T0
M30
