%FSLAX34Y34*%
G04 Gerber Fmt 3.4, Leading zero omitted, Abs format*
G04 (created by PCBNEW (2014-02-03 BZR 4657)-product) date Thu 13 Mar 2014 03:57:06 PM CDT*
%MOIN*%
G01*
G70*
G90*
G04 APERTURE LIST*
%ADD10C,0.006000*%
%ADD11C,0.005000*%
G04 APERTURE END LIST*
G54D10*
G54D11*
X40000Y-70000D02*
X40000Y-66000D01*
X39000Y-66000D02*
X39000Y-70000D01*
X40000Y-61000D02*
X40000Y-65000D01*
X39000Y-65000D02*
X39000Y-61000D01*
X40000Y-41000D02*
X40000Y-45000D01*
X39000Y-41000D02*
X38950Y-41000D01*
X39000Y-45000D02*
X39000Y-41000D01*
X40000Y-46000D02*
X40000Y-50000D01*
X39000Y-50000D02*
X39000Y-46000D01*
X40000Y-51000D02*
X40000Y-55000D01*
X39000Y-55000D02*
X39000Y-51000D01*
X40000Y-56000D02*
X40000Y-60000D01*
X39000Y-60000D02*
X39000Y-56000D01*
X40000Y-60000D02*
X44500Y-60000D01*
X44500Y-61000D02*
X40000Y-61000D01*
X50000Y-60000D02*
X45500Y-60000D01*
X45500Y-61000D02*
X50000Y-61000D01*
X34500Y-61000D02*
X39000Y-61000D01*
X33500Y-61000D02*
X29000Y-61000D01*
X33500Y-60000D02*
X29000Y-60000D01*
X34500Y-60000D02*
X39000Y-60000D01*
X44500Y-51000D02*
X40000Y-51000D01*
X45500Y-51000D02*
X50000Y-51000D01*
X45500Y-50000D02*
X50000Y-50000D01*
X44500Y-50000D02*
X40000Y-50000D01*
X29000Y-50000D02*
X33500Y-50000D01*
X33500Y-51000D02*
X29000Y-51000D01*
X39000Y-51000D02*
X34500Y-51000D01*
X39000Y-50000D02*
X34500Y-50000D01*
X33500Y-41000D02*
X29000Y-41000D01*
X39000Y-41000D02*
X34500Y-41000D01*
X44500Y-41000D02*
X40000Y-41000D01*
X45500Y-41000D02*
X50000Y-41000D01*
X33500Y-40000D02*
X29000Y-40000D01*
X44500Y-40000D02*
X34500Y-40000D01*
X45500Y-40000D02*
X50000Y-40000D01*
X50000Y-41000D02*
X50000Y-50000D01*
X50000Y-51000D02*
X50000Y-60000D01*
X50000Y-61000D02*
X50000Y-70000D01*
X40000Y-70000D02*
X50000Y-70000D01*
X44500Y-50000D02*
X44500Y-51000D01*
X45500Y-50000D02*
X45500Y-51000D01*
X45500Y-60000D02*
X45500Y-61000D01*
X44500Y-60000D02*
X44500Y-61000D01*
X33500Y-60000D02*
X33500Y-61000D01*
X40000Y-65000D02*
X39000Y-65000D01*
X39000Y-66000D02*
X40000Y-66000D01*
X34500Y-60000D02*
X34500Y-61000D01*
X39000Y-56000D02*
X40000Y-56000D01*
X39000Y-55000D02*
X40000Y-55000D01*
X29000Y-70000D02*
X39000Y-70000D01*
X29000Y-70000D02*
X29000Y-61000D01*
X29000Y-60000D02*
X29000Y-51000D01*
X34500Y-50000D02*
X34500Y-51000D01*
X33500Y-50000D02*
X33500Y-51000D01*
X39000Y-46000D02*
X40000Y-46000D01*
X40000Y-45000D02*
X39000Y-45000D01*
X34500Y-40000D02*
X34500Y-41000D01*
X33500Y-40000D02*
X33500Y-41000D01*
X44500Y-40000D02*
X44500Y-41000D01*
X45500Y-40000D02*
X45500Y-41000D01*
X29000Y-50000D02*
X29000Y-41000D01*
X39500Y-21800D02*
X29000Y-40000D01*
X50000Y-40000D02*
X39500Y-21800D01*
M02*
